M48
; DRILL file {KiCad 8.0.1} date 2024-04-29T13:46:07+0200
; FORMAT={-:-/ absolute / metric / decimal}
; #@! TF.CreationDate,2024-04-29T13:46:07+02:00
; #@! TF.GenerationSoftware,Kicad,Pcbnew,8.0.1
; #@! TF.FileFunction,Plated,1,2,PTH
FMAT,2
METRIC
; #@! TA.AperFunction,Plated,PTH,ViaDrill
T1C0.400
; #@! TA.AperFunction,Plated,PTH,ComponentDrill
T2C0.400
; #@! TA.AperFunction,Plated,PTH,ComponentDrill
T3C0.500
; #@! TA.AperFunction,Plated,PTH,ComponentDrill
T4C0.600
; #@! TA.AperFunction,Plated,PTH,ComponentDrill
T5C0.700
; #@! TA.AperFunction,Plated,PTH,ComponentDrill
T6C0.800
; #@! TA.AperFunction,Plated,PTH,ComponentDrill
T7C0.890
; #@! TA.AperFunction,Plated,PTH,ComponentDrill
T8C0.900
; #@! TA.AperFunction,Plated,PTH,ViaDrill
T9C1.000
; #@! TA.AperFunction,Plated,PTH,ComponentDrill
T10C1.000
; #@! TA.AperFunction,Plated,PTH,ComponentDrill
T11C1.200
; #@! TA.AperFunction,Plated,PTH,ComponentDrill
T12C1.500
; #@! TA.AperFunction,Plated,PTH,ComponentDrill
T13C2.000
; #@! TA.AperFunction,Plated,PTH,ComponentDrill
T14C3.200
%
G90
G05
T1
X157.75Y-65.52
X157.84Y-101.86
X159.6Y-36.2
X161.62Y-91.76
X166.23Y-67.89
X167.09Y-84.43
X167.4Y-88.48
X167.71Y-66.13
X168.15Y-64.21
X168.38Y-91.62
X168.46Y-70.97
X168.5Y-60.6
X169.47Y-68.07
X169.6Y-71.2
X171.04Y-68.18
X171.3Y-42.65
X171.4Y-75.2
X172.18Y-68.31
X172.3Y-60.6
X172.38Y-72.33
X172.75Y-41.6
X172.82Y-88.26
X173.4Y-40.4
X173.8Y-41.6
X173.85Y-47.75
X175.61Y-76.25
X176.28Y-101.98
X176.4Y-41.6
X176.6Y-94.5
X176.63Y-87.62
X178.1Y-33.6
X179.05Y-37.85
X183.17Y-76.33
X186.2Y-79.1
X186.34Y-74.94
X189.75Y-75.5
X189.88Y-78.39
X194.28Y-78.42
X194.56Y-74.36
X195.42Y-71.44
X198.25Y-77.92
X201.36Y-74.8
X202.4Y-78.8
X204.65Y-74.82
X208.03Y-66.05
X209.19Y-68.92
X211.88Y-62.0
X213.9Y-90.5
X214.02Y-55.52
X214.95Y-49.29
X215.2Y-85.5
X215.21Y-70.85
X215.28Y-77.6
X216.2Y-67.9
X217.24Y-75.24
X217.53Y-71.94
X219.45Y-91.78
X220.18Y-74.96
X222.32Y-65.36
X223.83Y-84.52
X224.6Y-88.35
X224.64Y-62.1
X225.65Y-91.79
X228.89Y-86.44
X229.7Y-101.1
T2
X163.3Y-32.025
X163.3Y-33.375
X164.15Y-32.025
X164.15Y-33.375
X165.0Y-32.025
X165.0Y-33.375
X165.85Y-32.025
X165.85Y-33.375
X166.7Y-32.025
X166.7Y-33.375
X167.55Y-32.025
X167.55Y-33.375
X168.4Y-32.025
X168.4Y-33.375
X169.25Y-32.025
X169.25Y-33.375
T3
X138.995Y-37.692
X139.698Y-35.995
X139.698Y-39.389
X139.84Y-97.59
X140.543Y-95.893
X140.543Y-99.287
X141.395Y-35.292
X141.395Y-40.092
X142.24Y-95.19
X142.24Y-99.99
X143.092Y-35.995
X143.092Y-39.389
X143.795Y-37.692
X143.937Y-95.893
X143.937Y-99.287
X144.64Y-97.59
X228.26Y-71.088
X228.963Y-69.391
X228.963Y-72.785
X230.66Y-68.688
X230.66Y-73.488
X232.357Y-69.391
X232.357Y-72.785
X233.06Y-71.088
X248.02Y-36.102
X248.722Y-34.405
X248.722Y-37.8
X250.25Y-99.55
X250.42Y-33.702
X250.42Y-38.502
X250.953Y-97.853
X250.953Y-101.247
X252.117Y-34.405
X252.117Y-37.8
X252.65Y-97.15
X252.65Y-101.95
X252.82Y-36.102
X254.347Y-97.853
X254.347Y-101.247
X255.05Y-99.55
T5
X164.72Y-66.91
X164.72Y-71.99
X184.221Y-32.75
X186.761Y-32.75
X189.301Y-32.75
X200.0Y-33.4
X200.0Y-38.48
X202.8Y-33.4
X202.8Y-38.48
X214.4Y-33.9
X214.4Y-38.98
X216.55Y-34.5
X216.55Y-39.58
X220.99Y-68.24
X220.99Y-73.32
T6
X140.78Y-85.63
X140.78Y-91.47
X140.97Y-69.82
X140.97Y-79.98
X141.18Y-42.47
X141.18Y-45.01
X141.18Y-47.55
X143.32Y-85.63
X143.32Y-91.47
X143.98Y-69.81
X143.98Y-79.97
X144.3Y-43.54
X144.3Y-46.6
X145.855Y-67.125
X145.86Y-85.63
X145.86Y-91.47
X148.3Y-69.765
X148.3Y-79.925
X151.4Y-69.775
X151.4Y-79.935
X153.475Y-67.125
X154.46Y-43.54
X154.46Y-46.6
X154.5Y-69.765
X154.5Y-79.925
X157.81Y-43.91
X160.31Y-43.91
X161.29Y-39.35
X167.35Y-69.275
X167.35Y-74.275
X171.45Y-39.35
X174.6Y-72.7
X174.74Y-64.15
X175.02Y-88.34
X175.02Y-93.34
X175.1Y-78.49
X175.1Y-86.11
X175.29Y-95.74
X177.79Y-95.74
X178.136Y-76.236
X178.2Y-78.49
X178.2Y-86.11
X178.23Y-88.32
X178.23Y-93.32
X184.3Y-78.3
X184.55Y-54.0
X184.55Y-56.5
X184.55Y-58.65
X184.55Y-61.15
X184.65Y-67.35
X184.65Y-69.85
X184.9Y-64.15
X187.75Y-51.69
X187.75Y-61.85
X189.5Y-64.0
X189.5Y-69.0
X191.62Y-51.65
X191.62Y-61.81
X191.92Y-78.3
X192.1Y-75.4
X192.5Y-45.23
X192.54Y-42.1
X196.48Y-78.2
X197.1Y-75.4
X197.735Y-51.54
X197.735Y-61.7
X199.5Y-64.75
X199.5Y-69.75
X201.6Y-51.54
X201.6Y-61.7
X202.66Y-45.23
X202.7Y-42.1
X204.1Y-78.2
X204.75Y-52.35
X204.75Y-54.85
X204.75Y-57.25
X204.75Y-59.75
X205.25Y-41.4
X205.25Y-46.4
X206.364Y-76.036
X208.17Y-43.95
X208.17Y-47.0
X209.525Y-77.08
X209.525Y-84.7
X209.7Y-87.0
X209.7Y-92.0
X209.75Y-94.4
X209.9Y-72.5
X211.03Y-64.66
X211.03Y-69.66
X212.25Y-94.4
X212.3Y-87.0
X212.3Y-92.0
X212.675Y-77.055
X212.675Y-84.675
X213.82Y-68.96
X213.82Y-73.96
X218.33Y-43.95
X218.33Y-47.0
X219.81Y-33.23
X219.81Y-35.77
X219.81Y-38.31
X219.81Y-40.85
X220.98Y-43.97
X223.48Y-43.97
X227.16Y-44.01
X227.43Y-33.23
X227.43Y-35.77
X227.43Y-38.31
X227.43Y-40.85
X229.66Y-44.01
X230.3Y-32.12
X230.3Y-37.12
X233.26Y-82.02
X233.26Y-92.18
X233.34Y-32.88
X233.38Y-36.255
X234.92Y-81.225
X236.195Y-66.725
X236.27Y-52.15
X243.5Y-32.88
X243.54Y-36.255
X245.08Y-81.225
X246.355Y-66.725
X246.43Y-52.15
X247.1Y-82.25
X247.1Y-92.41
X249.22Y-52.15
X249.645Y-66.95
X249.745Y-81.4
X259.38Y-52.15
X259.805Y-66.95
X259.905Y-81.4
X261.2Y-83.07
X261.2Y-93.23
X262.92Y-52.2
X263.12Y-66.75
X263.12Y-81.3
X273.08Y-52.2
X273.28Y-66.75
X273.28Y-81.3
T7
X147.799Y-33.323
X147.799Y-38.403
X147.799Y-40.943
X150.339Y-38.403
X150.339Y-40.943
X152.879Y-33.323
X152.879Y-38.403
X152.879Y-40.943
T8
X147.663Y-98.294
X148.875Y-88.725
X150.203Y-98.294
X151.415Y-88.725
X152.743Y-98.294
T9
X164.2Y-51.72
X166.65Y-51.85
T10
X141.21Y-50.45
X143.75Y-50.45
X146.644Y-56.896
X154.144Y-56.896
X161.1Y-63.9
X163.6Y-63.9
X166.1Y-63.9
X173.653Y-56.895
X181.153Y-56.895
X218.55Y-63.8
X221.05Y-63.8
X223.55Y-63.8
X236.578Y-88.126
X236.579Y-44.526
X236.579Y-59.06
X236.579Y-73.593
X244.078Y-88.126
X244.079Y-44.526
X244.079Y-59.06
X244.079Y-73.593
X250.578Y-88.126
X250.579Y-44.626
X250.579Y-59.126
X250.579Y-73.626
X258.078Y-88.126
X258.079Y-44.626
X258.079Y-59.126
X258.079Y-73.626
X264.579Y-44.626
X264.579Y-59.126
X264.579Y-73.626
X264.579Y-88.126
X272.079Y-44.626
X272.079Y-59.126
X272.079Y-73.626
X272.079Y-88.126
T11
X152.715Y-56.87
X179.724Y-56.868
X180.45Y-32.45
X242.649Y-88.1
X242.65Y-44.5
X242.65Y-59.033
X242.65Y-73.567
X256.649Y-88.1
X256.65Y-44.6
X256.65Y-59.1
X256.65Y-73.6
X270.65Y-44.6
X270.65Y-59.1
X270.65Y-73.6
X270.65Y-88.1
T12
X150.144Y-61.396
X159.5Y-83.3
X159.5Y-89.65
X159.5Y-96.0
X170.93Y-83.3
X170.93Y-89.65
X170.93Y-96.0
X177.153Y-61.395
X217.0Y-83.3
X217.0Y-89.65
X217.0Y-96.0
X228.43Y-83.3
X228.43Y-89.65
X228.43Y-96.0
X240.078Y-92.626
X240.079Y-49.026
X240.079Y-63.56
X240.079Y-78.093
X254.078Y-92.626
X254.079Y-49.126
X254.079Y-63.626
X254.079Y-78.126
X268.079Y-49.126
X268.079Y-63.626
X268.079Y-78.126
X268.079Y-92.626
T13
X211.7Y-100.4
T14
X141.395Y-37.692
X142.24Y-97.59
X230.66Y-71.088
X250.42Y-36.102
X252.65Y-99.55
T4
X147.615Y-57.32G85X147.615Y-56.42
G05
X147.894Y-55.546G85X147.894Y-56.446
G05
X147.965Y-52.87G85X148.865Y-52.87
G05
X147.965Y-60.87G85X148.865Y-60.87
G05
X149.694Y-54.596G85X150.594Y-54.596
G05
X151.465Y-54.37G85X152.365Y-54.37
G05
X151.465Y-59.37G85X152.365Y-59.37
G05
X152.394Y-55.546G85X152.394Y-56.446
G05
X161.95Y-29.415G85X161.95Y-28.615
G05
X161.95Y-33.145G85X161.95Y-31.645
G05
X170.6Y-29.415G85X170.6Y-28.615
G05
X170.6Y-33.145G85X170.6Y-31.645
G05
X174.624Y-57.318G85X174.624Y-56.418
G05
X174.903Y-55.545G85X174.903Y-56.445
G05
X174.974Y-52.868G85X175.874Y-52.868
G05
X174.974Y-60.868G85X175.874Y-60.868
G05
X176.703Y-54.595G85X177.603Y-54.595
G05
X178.474Y-54.368G85X179.374Y-54.368
G05
X178.474Y-59.368G85X179.374Y-59.368
G05
X179.403Y-55.545G85X179.403Y-56.445
G05
X237.549Y-88.55G85X237.549Y-87.65
G05
X237.55Y-44.95G85X237.55Y-44.05
G05
X237.55Y-59.483G85X237.55Y-58.583
G05
X237.55Y-74.017G85X237.55Y-73.117
G05
X237.828Y-86.776G85X237.828Y-87.676
G05
X237.829Y-43.176G85X237.829Y-44.076
G05
X237.829Y-57.71G85X237.829Y-58.61
G05
X237.829Y-72.243G85X237.829Y-73.143
G05
X237.899Y-84.1G85X238.799Y-84.1
G05
X237.899Y-92.1G85X238.799Y-92.1
G05
X237.9Y-40.5G85X238.8Y-40.5
G05
X237.9Y-48.5G85X238.8Y-48.5
G05
X237.9Y-55.033G85X238.8Y-55.033
G05
X237.9Y-63.033G85X238.8Y-63.033
G05
X237.9Y-69.567G85X238.8Y-69.567
G05
X237.9Y-77.567G85X238.8Y-77.567
G05
X239.628Y-85.826G85X240.528Y-85.826
G05
X239.629Y-42.226G85X240.529Y-42.226
G05
X239.629Y-56.76G85X240.529Y-56.76
G05
X239.629Y-71.293G85X240.529Y-71.293
G05
X241.399Y-85.6G85X242.299Y-85.6
G05
X241.399Y-90.6G85X242.299Y-90.6
G05
X241.4Y-42.0G85X242.3Y-42.0
G05
X241.4Y-47.0G85X242.3Y-47.0
G05
X241.4Y-56.533G85X242.3Y-56.533
G05
X241.4Y-61.533G85X242.3Y-61.533
G05
X241.4Y-71.067G85X242.3Y-71.067
G05
X241.4Y-76.067G85X242.3Y-76.067
G05
X242.328Y-86.776G85X242.328Y-87.676
G05
X242.329Y-43.176G85X242.329Y-44.076
G05
X242.329Y-57.71G85X242.329Y-58.61
G05
X242.329Y-72.243G85X242.329Y-73.143
G05
X251.549Y-88.55G85X251.549Y-87.65
G05
X251.55Y-45.05G85X251.55Y-44.15
G05
X251.55Y-59.55G85X251.55Y-58.65
G05
X251.55Y-74.05G85X251.55Y-73.15
G05
X251.828Y-86.776G85X251.828Y-87.676
G05
X251.829Y-43.276G85X251.829Y-44.176
G05
X251.829Y-57.776G85X251.829Y-58.676
G05
X251.829Y-72.276G85X251.829Y-73.176
G05
X251.899Y-84.1G85X252.799Y-84.1
G05
X251.899Y-92.1G85X252.799Y-92.1
G05
X251.9Y-40.6G85X252.8Y-40.6
G05
X251.9Y-48.6G85X252.8Y-48.6
G05
X251.9Y-55.1G85X252.8Y-55.1
G05
X251.9Y-63.1G85X252.8Y-63.1
G05
X251.9Y-69.6G85X252.8Y-69.6
G05
X251.9Y-77.6G85X252.8Y-77.6
G05
X253.628Y-85.826G85X254.528Y-85.826
G05
X253.629Y-42.326G85X254.529Y-42.326
G05
X253.629Y-56.826G85X254.529Y-56.826
G05
X253.629Y-71.326G85X254.529Y-71.326
G05
X255.399Y-85.6G85X256.299Y-85.6
G05
X255.399Y-90.6G85X256.299Y-90.6
G05
X255.4Y-42.1G85X256.3Y-42.1
G05
X255.4Y-47.1G85X256.3Y-47.1
G05
X255.4Y-56.6G85X256.3Y-56.6
G05
X255.4Y-61.6G85X256.3Y-61.6
G05
X255.4Y-71.1G85X256.3Y-71.1
G05
X255.4Y-76.1G85X256.3Y-76.1
G05
X256.328Y-86.776G85X256.328Y-87.676
G05
X256.329Y-43.276G85X256.329Y-44.176
G05
X256.329Y-57.776G85X256.329Y-58.676
G05
X256.329Y-72.276G85X256.329Y-73.176
G05
X265.55Y-45.05G85X265.55Y-44.15
G05
X265.55Y-59.55G85X265.55Y-58.65
G05
X265.55Y-74.05G85X265.55Y-73.15
G05
X265.55Y-88.55G85X265.55Y-87.65
G05
X265.829Y-43.276G85X265.829Y-44.176
G05
X265.829Y-57.776G85X265.829Y-58.676
G05
X265.829Y-72.276G85X265.829Y-73.176
G05
X265.829Y-86.776G85X265.829Y-87.676
G05
X265.9Y-40.6G85X266.8Y-40.6
G05
X265.9Y-48.6G85X266.8Y-48.6
G05
X265.9Y-55.1G85X266.8Y-55.1
G05
X265.9Y-63.1G85X266.8Y-63.1
G05
X265.9Y-69.6G85X266.8Y-69.6
G05
X265.9Y-77.6G85X266.8Y-77.6
G05
X265.9Y-84.1G85X266.8Y-84.1
G05
X265.9Y-92.1G85X266.8Y-92.1
G05
X267.629Y-42.326G85X268.529Y-42.326
G05
X267.629Y-56.826G85X268.529Y-56.826
G05
X267.629Y-71.326G85X268.529Y-71.326
G05
X267.629Y-85.826G85X268.529Y-85.826
G05
X269.4Y-42.1G85X270.3Y-42.1
G05
X269.4Y-47.1G85X270.3Y-47.1
G05
X269.4Y-56.6G85X270.3Y-56.6
G05
X269.4Y-61.6G85X270.3Y-61.6
G05
X269.4Y-71.1G85X270.3Y-71.1
G05
X269.4Y-76.1G85X270.3Y-76.1
G05
X269.4Y-85.6G85X270.3Y-85.6
G05
X269.4Y-90.6G85X270.3Y-90.6
G05
X270.329Y-43.276G85X270.329Y-44.176
G05
X270.329Y-57.776G85X270.329Y-58.676
G05
X270.329Y-72.276G85X270.329Y-73.176
G05
X270.329Y-86.776G85X270.329Y-87.676
G05
T5
X192.15Y-37.8G85X192.15Y-38.6
G05
X196.55Y-29.8G85X196.55Y-30.6
G05
X196.55Y-32.8G85X196.55Y-33.6
G05
X196.55Y-36.8G85X196.55Y-37.6
G05
X207.15Y-37.8G85X207.15Y-38.6
G05
X211.55Y-29.8G85X211.55Y-30.6
G05
X211.55Y-32.8G85X211.55Y-33.6
G05
X211.55Y-36.8G85X211.55Y-37.6
G05
M30
