G04 #@! TF.GenerationSoftware,KiCad,Pcbnew,8.0.1*
G04 #@! TF.CreationDate,2024-04-29T14:01:51+02:00*
G04 #@! TF.ProjectId,spider2,73706964-6572-4322-9e6b-696361645f70,rev?*
G04 #@! TF.SameCoordinates,Original*
G04 #@! TF.FileFunction,Copper,L1,Top*
G04 #@! TF.FilePolarity,Positive*
%FSLAX46Y46*%
G04 Gerber Fmt 4.6, Leading zero omitted, Abs format (unit mm)*
G04 Created by KiCad (PCBNEW 8.0.1) date 2024-04-29 14:01:51*
%MOMM*%
%LPD*%
G01*
G04 APERTURE LIST*
G04 #@! TA.AperFunction,ComponentPad*
%ADD10C,1.600000*%
G04 #@! TD*
G04 #@! TA.AperFunction,ComponentPad*
%ADD11O,1.600000X1.600000*%
G04 #@! TD*
G04 #@! TA.AperFunction,ComponentPad*
%ADD12C,0.700000*%
G04 #@! TD*
G04 #@! TA.AperFunction,ComponentPad*
%ADD13O,0.900000X2.400000*%
G04 #@! TD*
G04 #@! TA.AperFunction,ComponentPad*
%ADD14O,0.900000X1.700000*%
G04 #@! TD*
G04 #@! TA.AperFunction,ComponentPad*
%ADD15R,1.600000X1.600000*%
G04 #@! TD*
G04 #@! TA.AperFunction,ComponentPad*
%ADD16C,1.400000*%
G04 #@! TD*
G04 #@! TA.AperFunction,ComponentPad*
%ADD17O,1.400000X1.400000*%
G04 #@! TD*
G04 #@! TA.AperFunction,ComponentPad*
%ADD18R,2.500000X2.500000*%
G04 #@! TD*
G04 #@! TA.AperFunction,WasherPad*
%ADD19C,1.500000*%
G04 #@! TD*
G04 #@! TA.AperFunction,ComponentPad*
%ADD20O,1.900000X1.000000*%
G04 #@! TD*
G04 #@! TA.AperFunction,ComponentPad*
%ADD21O,1.000000X1.800000*%
G04 #@! TD*
G04 #@! TA.AperFunction,ComponentPad*
%ADD22C,1.300000*%
G04 #@! TD*
G04 #@! TA.AperFunction,ComponentPad*
%ADD23O,1.500000X3.000000*%
G04 #@! TD*
G04 #@! TA.AperFunction,ComponentPad*
%ADD24O,1.700000X3.000000*%
G04 #@! TD*
G04 #@! TA.AperFunction,ComponentPad*
%ADD25O,1.000000X1.900000*%
G04 #@! TD*
G04 #@! TA.AperFunction,ComponentPad*
%ADD26O,3.000000X2.000000*%
G04 #@! TD*
G04 #@! TA.AperFunction,ComponentPad*
%ADD27O,1.800000X0.900000*%
G04 #@! TD*
G04 #@! TA.AperFunction,ComponentPad*
%ADD28C,0.800000*%
G04 #@! TD*
G04 #@! TA.AperFunction,ComponentPad*
%ADD29C,6.400000*%
G04 #@! TD*
G04 #@! TA.AperFunction,ComponentPad*
%ADD30C,3.000000*%
G04 #@! TD*
G04 #@! TA.AperFunction,ComponentPad*
%ADD31R,1.500000X1.500000*%
G04 #@! TD*
G04 #@! TA.AperFunction,ComponentPad*
%ADD32C,1.500000*%
G04 #@! TD*
G04 #@! TA.AperFunction,WasherPad*
%ADD33C,4.000000*%
G04 #@! TD*
G04 #@! TA.AperFunction,ComponentPad*
%ADD34C,1.800000*%
G04 #@! TD*
G04 #@! TA.AperFunction,ComponentPad*
%ADD35R,1.700000X1.700000*%
G04 #@! TD*
G04 #@! TA.AperFunction,ComponentPad*
%ADD36O,1.700000X1.700000*%
G04 #@! TD*
G04 #@! TA.AperFunction,ComponentPad*
%ADD37R,1.800000X1.800000*%
G04 #@! TD*
G04 #@! TA.AperFunction,SMDPad,CuDef*
%ADD38R,5.100000X2.350000*%
G04 #@! TD*
G04 #@! TA.AperFunction,ComponentPad*
%ADD39R,4.000000X4.000000*%
G04 #@! TD*
G04 #@! TA.AperFunction,ViaPad*
%ADD40C,0.800000*%
G04 #@! TD*
G04 #@! TA.AperFunction,ViaPad*
%ADD41C,1.600000*%
G04 #@! TD*
G04 #@! TA.AperFunction,Conductor*
%ADD42C,0.250000*%
G04 #@! TD*
G04 #@! TA.AperFunction,Conductor*
%ADD43C,1.000000*%
G04 #@! TD*
G04 #@! TA.AperFunction,Conductor*
%ADD44C,0.500000*%
G04 #@! TD*
G04 #@! TA.AperFunction,Conductor*
%ADD45C,0.200000*%
G04 #@! TD*
G04 APERTURE END LIST*
D10*
X147799400Y-33323400D03*
X152879400Y-33323400D03*
G04 #@! TA.AperFunction,ComponentPad*
G36*
G01*
X147399400Y-40143400D02*
X148199400Y-40143400D01*
G75*
G02*
X148599400Y-40543400I0J-400000D01*
G01*
X148599400Y-41343400D01*
G75*
G02*
X148199400Y-41743400I-400000J0D01*
G01*
X147399400Y-41743400D01*
G75*
G02*
X146999400Y-41343400I0J400000D01*
G01*
X146999400Y-40543400D01*
G75*
G02*
X147399400Y-40143400I400000J0D01*
G01*
G37*
G04 #@! TD.AperFunction*
X150339400Y-40943400D03*
X152879400Y-40943400D03*
X147799400Y-38403400D03*
X150339400Y-38403400D03*
X152879400Y-38403400D03*
X262920000Y-52200000D03*
D11*
X273080000Y-52200000D03*
D10*
X230300000Y-32120000D03*
X230300000Y-37120000D03*
X243540000Y-36255000D03*
D11*
X233380000Y-36255000D03*
D12*
X169250000Y-33375000D03*
X168400000Y-33375000D03*
X167550000Y-33375000D03*
X166700000Y-33375000D03*
X165850000Y-33375000D03*
X165000000Y-33375000D03*
X164150000Y-33375000D03*
X163300000Y-33375000D03*
X163300000Y-32025000D03*
X164150000Y-32025000D03*
X165000000Y-32025000D03*
X165850000Y-32025000D03*
X166700000Y-32025000D03*
X167550000Y-32025000D03*
X168400000Y-32025000D03*
X169250000Y-32025000D03*
D13*
X170600000Y-32395000D03*
D14*
X170600000Y-29015000D03*
D13*
X161950000Y-32395000D03*
D14*
X161950000Y-29015000D03*
D10*
X187750000Y-61850000D03*
D11*
X187750000Y-51690000D03*
D10*
X263120000Y-81300000D03*
D11*
X273280000Y-81300000D03*
D10*
X167350000Y-69275000D03*
X167350000Y-74275000D03*
X204750000Y-52350000D03*
X204750000Y-54850000D03*
X209900000Y-72500000D03*
X206364466Y-76035534D03*
X204750000Y-59750000D03*
X204750000Y-57250000D03*
D15*
X153475000Y-67125000D03*
D11*
X145855000Y-67125000D03*
D10*
X154460000Y-46600000D03*
D11*
X144300000Y-46600000D03*
D16*
X202800000Y-33400000D03*
D17*
X202800000Y-38480000D03*
D10*
X213820000Y-68960000D03*
X213820000Y-73960000D03*
D18*
X180450000Y-32450000D03*
D19*
X240078391Y-90526253D03*
D20*
X238349112Y-92100000D03*
X241849112Y-90600000D03*
D21*
X242328391Y-87226253D03*
D22*
X242649112Y-88100000D03*
D23*
X244078391Y-88126253D03*
D24*
X236578391Y-88126253D03*
D25*
X237549112Y-88100000D03*
X237828391Y-87226253D03*
D20*
X238349112Y-84100000D03*
X240078391Y-85826253D03*
D26*
X240078391Y-92626253D03*
D27*
X241849112Y-85600000D03*
D28*
X248019532Y-36102461D03*
X248722476Y-34405405D03*
X248722476Y-37799517D03*
X250419532Y-33702461D03*
D29*
X250419532Y-36102461D03*
D28*
X250419532Y-38502461D03*
X252116588Y-34405405D03*
X252116588Y-37799517D03*
X252819532Y-36102461D03*
D10*
X174600000Y-72700000D03*
X178135534Y-76235534D03*
X199500000Y-69750000D03*
X199500000Y-64750000D03*
D16*
X216550000Y-34500000D03*
D17*
X216550000Y-39580000D03*
D10*
X196550000Y-33200000D03*
X196550000Y-30200000D03*
X192150000Y-38200000D03*
X196550000Y-37200000D03*
X178200000Y-86110000D03*
D11*
X178200000Y-78490000D03*
D10*
X212300000Y-92000000D03*
X212300000Y-87000000D03*
X175290000Y-95740000D03*
X177790000Y-95740000D03*
X205250000Y-46400000D03*
X205250000Y-41400000D03*
X191620000Y-61810000D03*
D11*
X191620000Y-51650000D03*
D10*
X261200000Y-93230000D03*
D11*
X261200000Y-83070000D03*
D10*
X249645000Y-66950000D03*
D11*
X259805000Y-66950000D03*
D30*
X217000000Y-96000000D03*
X228430000Y-89650000D03*
X217000000Y-89650000D03*
X228430000Y-96000000D03*
X228430000Y-83300000D03*
X217000000Y-83300000D03*
D10*
X184900000Y-64150000D03*
D11*
X174740000Y-64150000D03*
D30*
X159500000Y-96000000D03*
X170930000Y-89650000D03*
X159500000Y-89650000D03*
X170930000Y-96000000D03*
X170930000Y-83300000D03*
X159500000Y-83300000D03*
D10*
X148300000Y-79925000D03*
D11*
X148300000Y-69765000D03*
D10*
X249745000Y-81400000D03*
D11*
X259905000Y-81400000D03*
D10*
X209525000Y-84700000D03*
D11*
X209525000Y-77080000D03*
G04 #@! TA.AperFunction,SMDPad,CuDef*
G36*
G01*
X174450000Y-36947636D02*
X175750000Y-36947636D01*
G75*
G02*
X176000000Y-37197636I0J-250000D01*
G01*
X176000000Y-38022636D01*
G75*
G02*
X175750000Y-38272636I-250000J0D01*
G01*
X174450000Y-38272636D01*
G75*
G02*
X174200000Y-38022636I0J250000D01*
G01*
X174200000Y-37197636D01*
G75*
G02*
X174450000Y-36947636I250000J0D01*
G01*
G37*
G04 #@! TD.AperFunction*
G04 #@! TA.AperFunction,SMDPad,CuDef*
G36*
G01*
X174450000Y-40072636D02*
X175750000Y-40072636D01*
G75*
G02*
X176000000Y-40322636I0J-250000D01*
G01*
X176000000Y-41147636D01*
G75*
G02*
X175750000Y-41397636I-250000J0D01*
G01*
X174450000Y-41397636D01*
G75*
G02*
X174200000Y-41147636I0J250000D01*
G01*
X174200000Y-40322636D01*
G75*
G02*
X174450000Y-40072636I250000J0D01*
G01*
G37*
G04 #@! TD.AperFunction*
D10*
X249220000Y-52150000D03*
D11*
X259380000Y-52150000D03*
D10*
X229660000Y-44010000D03*
X227160000Y-44010000D03*
X201600000Y-61700000D03*
D11*
X201600000Y-51540000D03*
D10*
X233340000Y-32880000D03*
D11*
X243500000Y-32880000D03*
D10*
X236195000Y-66725000D03*
D11*
X246355000Y-66725000D03*
D15*
X160310000Y-43910000D03*
D10*
X157810000Y-43910000D03*
G04 #@! TA.AperFunction,SMDPad,CuDef*
G36*
G01*
X217662500Y-68795000D02*
X217837500Y-68795000D01*
G75*
G02*
X217925000Y-68882500I0J-87500D01*
G01*
X217925000Y-70332500D01*
G75*
G02*
X217837500Y-70420000I-87500J0D01*
G01*
X217662500Y-70420000D01*
G75*
G02*
X217575000Y-70332500I0J87500D01*
G01*
X217575000Y-68882500D01*
G75*
G02*
X217662500Y-68795000I87500J0D01*
G01*
G37*
G04 #@! TD.AperFunction*
G04 #@! TA.AperFunction,SMDPad,CuDef*
G36*
G01*
X217162500Y-68795000D02*
X217337500Y-68795000D01*
G75*
G02*
X217425000Y-68882500I0J-87500D01*
G01*
X217425000Y-70332500D01*
G75*
G02*
X217337500Y-70420000I-87500J0D01*
G01*
X217162500Y-70420000D01*
G75*
G02*
X217075000Y-70332500I0J87500D01*
G01*
X217075000Y-68882500D01*
G75*
G02*
X217162500Y-68795000I87500J0D01*
G01*
G37*
G04 #@! TD.AperFunction*
G04 #@! TA.AperFunction,SMDPad,CuDef*
G36*
G01*
X216662500Y-68795000D02*
X216837500Y-68795000D01*
G75*
G02*
X216925000Y-68882500I0J-87500D01*
G01*
X216925000Y-70332500D01*
G75*
G02*
X216837500Y-70420000I-87500J0D01*
G01*
X216662500Y-70420000D01*
G75*
G02*
X216575000Y-70332500I0J87500D01*
G01*
X216575000Y-68882500D01*
G75*
G02*
X216662500Y-68795000I87500J0D01*
G01*
G37*
G04 #@! TD.AperFunction*
G04 #@! TA.AperFunction,SMDPad,CuDef*
G36*
G01*
X216162500Y-68795000D02*
X216337500Y-68795000D01*
G75*
G02*
X216425000Y-68882500I0J-87500D01*
G01*
X216425000Y-70332500D01*
G75*
G02*
X216337500Y-70420000I-87500J0D01*
G01*
X216162500Y-70420000D01*
G75*
G02*
X216075000Y-70332500I0J87500D01*
G01*
X216075000Y-68882500D01*
G75*
G02*
X216162500Y-68795000I87500J0D01*
G01*
G37*
G04 #@! TD.AperFunction*
G04 #@! TA.AperFunction,SMDPad,CuDef*
G36*
G01*
X215662500Y-68795000D02*
X215837500Y-68795000D01*
G75*
G02*
X215925000Y-68882500I0J-87500D01*
G01*
X215925000Y-70332500D01*
G75*
G02*
X215837500Y-70420000I-87500J0D01*
G01*
X215662500Y-70420000D01*
G75*
G02*
X215575000Y-70332500I0J87500D01*
G01*
X215575000Y-68882500D01*
G75*
G02*
X215662500Y-68795000I87500J0D01*
G01*
G37*
G04 #@! TD.AperFunction*
G04 #@! TA.AperFunction,SMDPad,CuDef*
G36*
G01*
X215662500Y-73020000D02*
X215837500Y-73020000D01*
G75*
G02*
X215925000Y-73107500I0J-87500D01*
G01*
X215925000Y-74557500D01*
G75*
G02*
X215837500Y-74645000I-87500J0D01*
G01*
X215662500Y-74645000D01*
G75*
G02*
X215575000Y-74557500I0J87500D01*
G01*
X215575000Y-73107500D01*
G75*
G02*
X215662500Y-73020000I87500J0D01*
G01*
G37*
G04 #@! TD.AperFunction*
G04 #@! TA.AperFunction,SMDPad,CuDef*
G36*
G01*
X216162500Y-73020000D02*
X216337500Y-73020000D01*
G75*
G02*
X216425000Y-73107500I0J-87500D01*
G01*
X216425000Y-74557500D01*
G75*
G02*
X216337500Y-74645000I-87500J0D01*
G01*
X216162500Y-74645000D01*
G75*
G02*
X216075000Y-74557500I0J87500D01*
G01*
X216075000Y-73107500D01*
G75*
G02*
X216162500Y-73020000I87500J0D01*
G01*
G37*
G04 #@! TD.AperFunction*
G04 #@! TA.AperFunction,SMDPad,CuDef*
G36*
G01*
X216662500Y-73020000D02*
X216837500Y-73020000D01*
G75*
G02*
X216925000Y-73107500I0J-87500D01*
G01*
X216925000Y-74557500D01*
G75*
G02*
X216837500Y-74645000I-87500J0D01*
G01*
X216662500Y-74645000D01*
G75*
G02*
X216575000Y-74557500I0J87500D01*
G01*
X216575000Y-73107500D01*
G75*
G02*
X216662500Y-73020000I87500J0D01*
G01*
G37*
G04 #@! TD.AperFunction*
G04 #@! TA.AperFunction,SMDPad,CuDef*
G36*
G01*
X217162500Y-73020000D02*
X217337500Y-73020000D01*
G75*
G02*
X217425000Y-73107500I0J-87500D01*
G01*
X217425000Y-74557500D01*
G75*
G02*
X217337500Y-74645000I-87500J0D01*
G01*
X217162500Y-74645000D01*
G75*
G02*
X217075000Y-74557500I0J87500D01*
G01*
X217075000Y-73107500D01*
G75*
G02*
X217162500Y-73020000I87500J0D01*
G01*
G37*
G04 #@! TD.AperFunction*
G04 #@! TA.AperFunction,SMDPad,CuDef*
G36*
G01*
X217662500Y-73020000D02*
X217837500Y-73020000D01*
G75*
G02*
X217925000Y-73107500I0J-87500D01*
G01*
X217925000Y-74557500D01*
G75*
G02*
X217837500Y-74645000I-87500J0D01*
G01*
X217662500Y-74645000D01*
G75*
G02*
X217575000Y-74557500I0J87500D01*
G01*
X217575000Y-73107500D01*
G75*
G02*
X217662500Y-73020000I87500J0D01*
G01*
G37*
G04 #@! TD.AperFunction*
X197100000Y-75400000D03*
X192100000Y-75400000D03*
X143980000Y-69810000D03*
D11*
X143980000Y-79970000D03*
D10*
X247100000Y-82250000D03*
D11*
X247100000Y-92410000D03*
D19*
X240079279Y-61459586D03*
D20*
X238350000Y-63033333D03*
X241850000Y-61533333D03*
D21*
X242329279Y-58159586D03*
D22*
X242650000Y-59033333D03*
D23*
X244079279Y-59059586D03*
D24*
X236579279Y-59059586D03*
D25*
X237550000Y-59033333D03*
X237829279Y-58159586D03*
D20*
X238350000Y-55033333D03*
X240079279Y-56759586D03*
D26*
X240079279Y-63559586D03*
D27*
X241850000Y-56533333D03*
D31*
X145860000Y-85630000D03*
D32*
X143320000Y-85630000D03*
X140780000Y-85630000D03*
D16*
X164720000Y-71990000D03*
D17*
X164720000Y-66910000D03*
D10*
X175020000Y-93340000D03*
X175020000Y-88340000D03*
X208170000Y-43950000D03*
D11*
X218330000Y-43950000D03*
D19*
X240079279Y-75992919D03*
D20*
X238350000Y-77566666D03*
X241850000Y-76066666D03*
D21*
X242329279Y-72692919D03*
D22*
X242650000Y-73566666D03*
D23*
X244079279Y-73592919D03*
D24*
X236579279Y-73592919D03*
D25*
X237550000Y-73566666D03*
X237829279Y-72692919D03*
D20*
X238350000Y-69566666D03*
X240079279Y-71292919D03*
D26*
X240079279Y-78092919D03*
D27*
X241850000Y-71066666D03*
D19*
X177153344Y-59294502D03*
D20*
X175424065Y-60868249D03*
X178924065Y-59368249D03*
D21*
X179403344Y-55994502D03*
D22*
X179724065Y-56868249D03*
D23*
X181153344Y-56894502D03*
D24*
X173653344Y-56894502D03*
D25*
X174624065Y-56868249D03*
X174903344Y-55994502D03*
D20*
X175424065Y-52868249D03*
X177153344Y-54594502D03*
D26*
X177153344Y-61394502D03*
D27*
X178924065Y-54368249D03*
D28*
X228260142Y-71088261D03*
X228963086Y-69391205D03*
X228963086Y-72785317D03*
X230660142Y-68688261D03*
D29*
X230660142Y-71088261D03*
D28*
X230660142Y-73488261D03*
X232357198Y-69391205D03*
X232357198Y-72785317D03*
X233060142Y-71088261D03*
D10*
X154460000Y-43540000D03*
D11*
X144300000Y-43540000D03*
G04 #@! TA.AperFunction,SMDPad,CuDef*
G36*
X172250000Y-44675000D02*
G01*
X172750000Y-44675000D01*
X172750000Y-44680089D01*
X172821157Y-44680089D01*
X172957708Y-44720184D01*
X173077430Y-44797125D01*
X173170627Y-44904680D01*
X173229746Y-45034134D01*
X173250000Y-45175000D01*
X173250000Y-45675000D01*
X173229746Y-45815866D01*
X173170627Y-45945320D01*
X173077430Y-46052875D01*
X172957708Y-46129816D01*
X172821157Y-46169911D01*
X172750000Y-46169911D01*
X172750000Y-46175000D01*
X172250000Y-46175000D01*
X172250000Y-44675000D01*
G37*
G04 #@! TD.AperFunction*
G04 #@! TA.AperFunction,SMDPad,CuDef*
G36*
X171450000Y-46169911D02*
G01*
X171378843Y-46169911D01*
X171242292Y-46129816D01*
X171122570Y-46052875D01*
X171029373Y-45945320D01*
X170970254Y-45815866D01*
X170950000Y-45675000D01*
X170950000Y-45175000D01*
X170970254Y-45034134D01*
X171029373Y-44904680D01*
X171122570Y-44797125D01*
X171242292Y-44720184D01*
X171378843Y-44680089D01*
X171450000Y-44680089D01*
X171450000Y-44675000D01*
X171950000Y-44675000D01*
X171950000Y-46175000D01*
X171450000Y-46175000D01*
X171450000Y-46169911D01*
G37*
G04 #@! TD.AperFunction*
D19*
X268079279Y-47026253D03*
D20*
X266350000Y-48600000D03*
X269850000Y-47100000D03*
D21*
X270329279Y-43726253D03*
D22*
X270650000Y-44600000D03*
D23*
X272079279Y-44626253D03*
D24*
X264579279Y-44626253D03*
D25*
X265550000Y-44600000D03*
X265829279Y-43726253D03*
D20*
X266350000Y-40600000D03*
X268079279Y-42326253D03*
D26*
X268079279Y-49126253D03*
D27*
X269850000Y-42100000D03*
D10*
X184550000Y-56500000D03*
X184550000Y-54000000D03*
D31*
X184221000Y-32750000D03*
D33*
X159200000Y-56900000D03*
X168000000Y-56900000D03*
D34*
X166100000Y-63900000D03*
X163600000Y-63900000D03*
X161100000Y-63900000D03*
D10*
X189500000Y-69000000D03*
X189500000Y-64000000D03*
D31*
X186761000Y-32750000D03*
X189301000Y-32750000D03*
D10*
X171450000Y-39350000D03*
D11*
X161290000Y-39350000D03*
D31*
X145860000Y-91470000D03*
D32*
X143320000Y-91470000D03*
X140780000Y-91470000D03*
D10*
X151400000Y-69775000D03*
D11*
X151400000Y-79935000D03*
D10*
X175100000Y-86110000D03*
D11*
X175100000Y-78490000D03*
D19*
X268079279Y-76026253D03*
D20*
X266350000Y-77600000D03*
X269850000Y-76100000D03*
D21*
X270329279Y-72726253D03*
D22*
X270650000Y-73600000D03*
D23*
X272079279Y-73626253D03*
D24*
X264579279Y-73626253D03*
D25*
X265550000Y-73600000D03*
X265829279Y-72726253D03*
D20*
X266350000Y-69600000D03*
X268079279Y-71326253D03*
D26*
X268079279Y-78126253D03*
D27*
X269850000Y-71100000D03*
D35*
X143750000Y-50450000D03*
D36*
X141210000Y-50450000D03*
D28*
X250250000Y-99550000D03*
X250952944Y-97852944D03*
X250952944Y-101247056D03*
X252650000Y-97150000D03*
D29*
X252650000Y-99550000D03*
D28*
X252650000Y-101950000D03*
X254347056Y-97852944D03*
X254347056Y-101247056D03*
X255050000Y-99550000D03*
D10*
X236270000Y-52150000D03*
D11*
X246430000Y-52150000D03*
D16*
X214400000Y-33900000D03*
D17*
X214400000Y-38980000D03*
D10*
X211550000Y-33200000D03*
X211550000Y-30200000D03*
X207150000Y-38200000D03*
X211550000Y-37200000D03*
D19*
X268079279Y-61526253D03*
D20*
X266350000Y-63100000D03*
X269850000Y-61600000D03*
D21*
X270329279Y-58226253D03*
D22*
X270650000Y-59100000D03*
D23*
X272079279Y-59126253D03*
D24*
X264579279Y-59126253D03*
D25*
X265550000Y-59100000D03*
X265829279Y-58226253D03*
D20*
X266350000Y-55100000D03*
X268079279Y-56826253D03*
D26*
X268079279Y-63626253D03*
D27*
X269850000Y-56600000D03*
D19*
X240079279Y-46926253D03*
D20*
X238350000Y-48500000D03*
X241850000Y-47000000D03*
D21*
X242329279Y-43626253D03*
D22*
X242650000Y-44500000D03*
D23*
X244079279Y-44526253D03*
D24*
X236579279Y-44526253D03*
D25*
X237550000Y-44500000D03*
X237829279Y-43626253D03*
D20*
X238350000Y-40500000D03*
X240079279Y-42226253D03*
D26*
X240079279Y-49026253D03*
D27*
X241850000Y-42000000D03*
D15*
X219810000Y-33230000D03*
D11*
X219810000Y-35770000D03*
X219810000Y-38310000D03*
X219810000Y-40850000D03*
X227430000Y-40850000D03*
X227430000Y-38310000D03*
X227430000Y-35770000D03*
X227430000Y-33230000D03*
D10*
X263120000Y-66750000D03*
D11*
X273280000Y-66750000D03*
D10*
X233260000Y-92180000D03*
D11*
X233260000Y-82020000D03*
D10*
X192500000Y-45230000D03*
D11*
X202660000Y-45230000D03*
D19*
X254079279Y-61526253D03*
D20*
X252350000Y-63100000D03*
X255850000Y-61600000D03*
D21*
X256329279Y-58226253D03*
D22*
X256650000Y-59100000D03*
D23*
X258079279Y-59126253D03*
D24*
X250579279Y-59126253D03*
D25*
X251550000Y-59100000D03*
X251829279Y-58226253D03*
D20*
X252350000Y-55100000D03*
X254079279Y-56826253D03*
D26*
X254079279Y-63626253D03*
D27*
X255850000Y-56600000D03*
D19*
X254079279Y-76026253D03*
D20*
X252350000Y-77600000D03*
X255850000Y-76100000D03*
D21*
X256329279Y-72726253D03*
D22*
X256650000Y-73600000D03*
D23*
X258079279Y-73626253D03*
D24*
X250579279Y-73626253D03*
D25*
X251550000Y-73600000D03*
X251829279Y-72726253D03*
D20*
X252350000Y-69600000D03*
X254079279Y-71326253D03*
D26*
X254079279Y-78126253D03*
D27*
X255850000Y-71100000D03*
D19*
X254079279Y-47026253D03*
D20*
X252350000Y-48600000D03*
X255850000Y-47100000D03*
D21*
X256329279Y-43726253D03*
D22*
X256650000Y-44600000D03*
D23*
X258079279Y-44626253D03*
D24*
X250579279Y-44626253D03*
D25*
X251550000Y-44600000D03*
X251829279Y-43726253D03*
D20*
X252350000Y-40600000D03*
X254079279Y-42326253D03*
D26*
X254079279Y-49126253D03*
D27*
X255850000Y-42100000D03*
D10*
X212675000Y-84675000D03*
D11*
X212675000Y-77055000D03*
D10*
X223480000Y-43970000D03*
X220980000Y-43970000D03*
X184550000Y-58650000D03*
X184550000Y-61150000D03*
X211030000Y-64660000D03*
X211030000Y-69660000D03*
D19*
X150144477Y-59295965D03*
D20*
X148415198Y-60869712D03*
X151915198Y-59369712D03*
D21*
X152394477Y-55995965D03*
D22*
X152715198Y-56869712D03*
D23*
X154144477Y-56895965D03*
D24*
X146644477Y-56895965D03*
D25*
X147615198Y-56869712D03*
X147894477Y-55995965D03*
D20*
X148415198Y-52869712D03*
X150144477Y-54595965D03*
D26*
X150144477Y-61395965D03*
D27*
X151915198Y-54369712D03*
D19*
X254078391Y-90526253D03*
D20*
X252349112Y-92100000D03*
X255849112Y-90600000D03*
D21*
X256328391Y-87226253D03*
D22*
X256649112Y-88100000D03*
D23*
X258078391Y-88126253D03*
D24*
X250578391Y-88126253D03*
D25*
X251549112Y-88100000D03*
X251828391Y-87226253D03*
D20*
X252349112Y-84100000D03*
X254078391Y-85826253D03*
D26*
X254078391Y-92626253D03*
D27*
X255849112Y-85600000D03*
D19*
X268079279Y-90526253D03*
D20*
X266350000Y-92100000D03*
X269850000Y-90600000D03*
D21*
X270329279Y-87226253D03*
D22*
X270650000Y-88100000D03*
D23*
X272079279Y-88126253D03*
D24*
X264579279Y-88126253D03*
D25*
X265550000Y-88100000D03*
X265829279Y-87226253D03*
D20*
X266350000Y-84100000D03*
X268079279Y-85826253D03*
D26*
X268079279Y-92626253D03*
D27*
X269850000Y-85600000D03*
D10*
X178230000Y-93320000D03*
X178230000Y-88320000D03*
G04 #@! TA.AperFunction,SMDPad,CuDef*
G36*
G01*
X181650000Y-42025000D02*
X180350000Y-42025000D01*
G75*
G02*
X180100000Y-41775000I0J250000D01*
G01*
X180100000Y-40950000D01*
G75*
G02*
X180350000Y-40700000I250000J0D01*
G01*
X181650000Y-40700000D01*
G75*
G02*
X181900000Y-40950000I0J-250000D01*
G01*
X181900000Y-41775000D01*
G75*
G02*
X181650000Y-42025000I-250000J0D01*
G01*
G37*
G04 #@! TD.AperFunction*
G04 #@! TA.AperFunction,SMDPad,CuDef*
G36*
G01*
X181650000Y-38900000D02*
X180350000Y-38900000D01*
G75*
G02*
X180100000Y-38650000I0J250000D01*
G01*
X180100000Y-37825000D01*
G75*
G02*
X180350000Y-37575000I250000J0D01*
G01*
X181650000Y-37575000D01*
G75*
G02*
X181900000Y-37825000I0J-250000D01*
G01*
X181900000Y-38650000D01*
G75*
G02*
X181650000Y-38900000I-250000J0D01*
G01*
G37*
G04 #@! TD.AperFunction*
X154500000Y-79925000D03*
D11*
X154500000Y-69765000D03*
D10*
X184300000Y-78300000D03*
D11*
X191920000Y-78300000D03*
D10*
X204100000Y-78200000D03*
D11*
X196480000Y-78200000D03*
G04 #@! TA.AperFunction,SMDPad,CuDef*
G36*
G01*
X174449222Y-41975000D02*
X175749222Y-41975000D01*
G75*
G02*
X175999222Y-42225000I0J-250000D01*
G01*
X175999222Y-43050000D01*
G75*
G02*
X175749222Y-43300000I-250000J0D01*
G01*
X174449222Y-43300000D01*
G75*
G02*
X174199222Y-43050000I0J250000D01*
G01*
X174199222Y-42225000D01*
G75*
G02*
X174449222Y-41975000I250000J0D01*
G01*
G37*
G04 #@! TD.AperFunction*
G04 #@! TA.AperFunction,SMDPad,CuDef*
G36*
G01*
X174449222Y-45100000D02*
X175749222Y-45100000D01*
G75*
G02*
X175999222Y-45350000I0J-250000D01*
G01*
X175999222Y-46175000D01*
G75*
G02*
X175749222Y-46425000I-250000J0D01*
G01*
X174449222Y-46425000D01*
G75*
G02*
X174199222Y-46175000I0J250000D01*
G01*
X174199222Y-45350000D01*
G75*
G02*
X174449222Y-45100000I250000J0D01*
G01*
G37*
G04 #@! TD.AperFunction*
D37*
X148875000Y-88725000D03*
D34*
X151415000Y-88725000D03*
D16*
X200000000Y-33400000D03*
D17*
X200000000Y-38480000D03*
G04 #@! TA.AperFunction,SMDPad,CuDef*
G36*
G01*
X191050000Y-64670000D02*
X191050000Y-64370000D01*
G75*
G02*
X191200000Y-64220000I150000J0D01*
G01*
X192900000Y-64220000D01*
G75*
G02*
X193050000Y-64370000I0J-150000D01*
G01*
X193050000Y-64670000D01*
G75*
G02*
X192900000Y-64820000I-150000J0D01*
G01*
X191200000Y-64820000D01*
G75*
G02*
X191050000Y-64670000I0J150000D01*
G01*
G37*
G04 #@! TD.AperFunction*
G04 #@! TA.AperFunction,SMDPad,CuDef*
G36*
G01*
X191050000Y-65940000D02*
X191050000Y-65640000D01*
G75*
G02*
X191200000Y-65490000I150000J0D01*
G01*
X192900000Y-65490000D01*
G75*
G02*
X193050000Y-65640000I0J-150000D01*
G01*
X193050000Y-65940000D01*
G75*
G02*
X192900000Y-66090000I-150000J0D01*
G01*
X191200000Y-66090000D01*
G75*
G02*
X191050000Y-65940000I0J150000D01*
G01*
G37*
G04 #@! TD.AperFunction*
G04 #@! TA.AperFunction,SMDPad,CuDef*
G36*
G01*
X191050000Y-67210000D02*
X191050000Y-66910000D01*
G75*
G02*
X191200000Y-66760000I150000J0D01*
G01*
X192900000Y-66760000D01*
G75*
G02*
X193050000Y-66910000I0J-150000D01*
G01*
X193050000Y-67210000D01*
G75*
G02*
X192900000Y-67360000I-150000J0D01*
G01*
X191200000Y-67360000D01*
G75*
G02*
X191050000Y-67210000I0J150000D01*
G01*
G37*
G04 #@! TD.AperFunction*
G04 #@! TA.AperFunction,SMDPad,CuDef*
G36*
G01*
X191050000Y-68480000D02*
X191050000Y-68180000D01*
G75*
G02*
X191200000Y-68030000I150000J0D01*
G01*
X192900000Y-68030000D01*
G75*
G02*
X193050000Y-68180000I0J-150000D01*
G01*
X193050000Y-68480000D01*
G75*
G02*
X192900000Y-68630000I-150000J0D01*
G01*
X191200000Y-68630000D01*
G75*
G02*
X191050000Y-68480000I0J150000D01*
G01*
G37*
G04 #@! TD.AperFunction*
G04 #@! TA.AperFunction,SMDPad,CuDef*
G36*
G01*
X191050000Y-69750000D02*
X191050000Y-69450000D01*
G75*
G02*
X191200000Y-69300000I150000J0D01*
G01*
X192900000Y-69300000D01*
G75*
G02*
X193050000Y-69450000I0J-150000D01*
G01*
X193050000Y-69750000D01*
G75*
G02*
X192900000Y-69900000I-150000J0D01*
G01*
X191200000Y-69900000D01*
G75*
G02*
X191050000Y-69750000I0J150000D01*
G01*
G37*
G04 #@! TD.AperFunction*
G04 #@! TA.AperFunction,SMDPad,CuDef*
G36*
G01*
X191050000Y-71020000D02*
X191050000Y-70720000D01*
G75*
G02*
X191200000Y-70570000I150000J0D01*
G01*
X192900000Y-70570000D01*
G75*
G02*
X193050000Y-70720000I0J-150000D01*
G01*
X193050000Y-71020000D01*
G75*
G02*
X192900000Y-71170000I-150000J0D01*
G01*
X191200000Y-71170000D01*
G75*
G02*
X191050000Y-71020000I0J150000D01*
G01*
G37*
G04 #@! TD.AperFunction*
G04 #@! TA.AperFunction,SMDPad,CuDef*
G36*
G01*
X191050000Y-72290000D02*
X191050000Y-71990000D01*
G75*
G02*
X191200000Y-71840000I150000J0D01*
G01*
X192900000Y-71840000D01*
G75*
G02*
X193050000Y-71990000I0J-150000D01*
G01*
X193050000Y-72290000D01*
G75*
G02*
X192900000Y-72440000I-150000J0D01*
G01*
X191200000Y-72440000D01*
G75*
G02*
X191050000Y-72290000I0J150000D01*
G01*
G37*
G04 #@! TD.AperFunction*
G04 #@! TA.AperFunction,SMDPad,CuDef*
G36*
G01*
X191050000Y-73560000D02*
X191050000Y-73260000D01*
G75*
G02*
X191200000Y-73110000I150000J0D01*
G01*
X192900000Y-73110000D01*
G75*
G02*
X193050000Y-73260000I0J-150000D01*
G01*
X193050000Y-73560000D01*
G75*
G02*
X192900000Y-73710000I-150000J0D01*
G01*
X191200000Y-73710000D01*
G75*
G02*
X191050000Y-73560000I0J150000D01*
G01*
G37*
G04 #@! TD.AperFunction*
G04 #@! TA.AperFunction,SMDPad,CuDef*
G36*
G01*
X196050000Y-73560000D02*
X196050000Y-73260000D01*
G75*
G02*
X196200000Y-73110000I150000J0D01*
G01*
X197900000Y-73110000D01*
G75*
G02*
X198050000Y-73260000I0J-150000D01*
G01*
X198050000Y-73560000D01*
G75*
G02*
X197900000Y-73710000I-150000J0D01*
G01*
X196200000Y-73710000D01*
G75*
G02*
X196050000Y-73560000I0J150000D01*
G01*
G37*
G04 #@! TD.AperFunction*
G04 #@! TA.AperFunction,SMDPad,CuDef*
G36*
G01*
X196050000Y-72290000D02*
X196050000Y-71990000D01*
G75*
G02*
X196200000Y-71840000I150000J0D01*
G01*
X197900000Y-71840000D01*
G75*
G02*
X198050000Y-71990000I0J-150000D01*
G01*
X198050000Y-72290000D01*
G75*
G02*
X197900000Y-72440000I-150000J0D01*
G01*
X196200000Y-72440000D01*
G75*
G02*
X196050000Y-72290000I0J150000D01*
G01*
G37*
G04 #@! TD.AperFunction*
G04 #@! TA.AperFunction,SMDPad,CuDef*
G36*
G01*
X196050000Y-71020000D02*
X196050000Y-70720000D01*
G75*
G02*
X196200000Y-70570000I150000J0D01*
G01*
X197900000Y-70570000D01*
G75*
G02*
X198050000Y-70720000I0J-150000D01*
G01*
X198050000Y-71020000D01*
G75*
G02*
X197900000Y-71170000I-150000J0D01*
G01*
X196200000Y-71170000D01*
G75*
G02*
X196050000Y-71020000I0J150000D01*
G01*
G37*
G04 #@! TD.AperFunction*
G04 #@! TA.AperFunction,SMDPad,CuDef*
G36*
G01*
X196050000Y-69750000D02*
X196050000Y-69450000D01*
G75*
G02*
X196200000Y-69300000I150000J0D01*
G01*
X197900000Y-69300000D01*
G75*
G02*
X198050000Y-69450000I0J-150000D01*
G01*
X198050000Y-69750000D01*
G75*
G02*
X197900000Y-69900000I-150000J0D01*
G01*
X196200000Y-69900000D01*
G75*
G02*
X196050000Y-69750000I0J150000D01*
G01*
G37*
G04 #@! TD.AperFunction*
G04 #@! TA.AperFunction,SMDPad,CuDef*
G36*
G01*
X196050000Y-68480000D02*
X196050000Y-68180000D01*
G75*
G02*
X196200000Y-68030000I150000J0D01*
G01*
X197900000Y-68030000D01*
G75*
G02*
X198050000Y-68180000I0J-150000D01*
G01*
X198050000Y-68480000D01*
G75*
G02*
X197900000Y-68630000I-150000J0D01*
G01*
X196200000Y-68630000D01*
G75*
G02*
X196050000Y-68480000I0J150000D01*
G01*
G37*
G04 #@! TD.AperFunction*
G04 #@! TA.AperFunction,SMDPad,CuDef*
G36*
G01*
X196050000Y-67210000D02*
X196050000Y-66910000D01*
G75*
G02*
X196200000Y-66760000I150000J0D01*
G01*
X197900000Y-66760000D01*
G75*
G02*
X198050000Y-66910000I0J-150000D01*
G01*
X198050000Y-67210000D01*
G75*
G02*
X197900000Y-67360000I-150000J0D01*
G01*
X196200000Y-67360000D01*
G75*
G02*
X196050000Y-67210000I0J150000D01*
G01*
G37*
G04 #@! TD.AperFunction*
G04 #@! TA.AperFunction,SMDPad,CuDef*
G36*
G01*
X196050000Y-65940000D02*
X196050000Y-65640000D01*
G75*
G02*
X196200000Y-65490000I150000J0D01*
G01*
X197900000Y-65490000D01*
G75*
G02*
X198050000Y-65640000I0J-150000D01*
G01*
X198050000Y-65940000D01*
G75*
G02*
X197900000Y-66090000I-150000J0D01*
G01*
X196200000Y-66090000D01*
G75*
G02*
X196050000Y-65940000I0J150000D01*
G01*
G37*
G04 #@! TD.AperFunction*
G04 #@! TA.AperFunction,SMDPad,CuDef*
G36*
G01*
X196050000Y-64670000D02*
X196050000Y-64370000D01*
G75*
G02*
X196200000Y-64220000I150000J0D01*
G01*
X197900000Y-64220000D01*
G75*
G02*
X198050000Y-64370000I0J-150000D01*
G01*
X198050000Y-64670000D01*
G75*
G02*
X197900000Y-64820000I-150000J0D01*
G01*
X196200000Y-64820000D01*
G75*
G02*
X196050000Y-64670000I0J150000D01*
G01*
G37*
G04 #@! TD.AperFunction*
D10*
X208170000Y-47000000D03*
D11*
X218330000Y-47000000D03*
D10*
X209700000Y-92000000D03*
X209700000Y-87000000D03*
D33*
X216650000Y-56800000D03*
X225450000Y-56800000D03*
D34*
X223550000Y-63800000D03*
X221050000Y-63800000D03*
X218550000Y-63800000D03*
D10*
X197735200Y-61700000D03*
D11*
X197735200Y-51540000D03*
D16*
X220990000Y-73320000D03*
D17*
X220990000Y-68240000D03*
G04 #@! TA.AperFunction,SMDPad,CuDef*
G36*
G01*
X178900000Y-38320100D02*
X179200000Y-38320100D01*
G75*
G02*
X179350000Y-38470100I0J-150000D01*
G01*
X179350000Y-39495100D01*
G75*
G02*
X179200000Y-39645100I-150000J0D01*
G01*
X178900000Y-39645100D01*
G75*
G02*
X178750000Y-39495100I0J150000D01*
G01*
X178750000Y-38470100D01*
G75*
G02*
X178900000Y-38320100I150000J0D01*
G01*
G37*
G04 #@! TD.AperFunction*
G04 #@! TA.AperFunction,SMDPad,CuDef*
G36*
G01*
X177950000Y-38320100D02*
X178250000Y-38320100D01*
G75*
G02*
X178400000Y-38470100I0J-150000D01*
G01*
X178400000Y-39495100D01*
G75*
G02*
X178250000Y-39645100I-150000J0D01*
G01*
X177950000Y-39645100D01*
G75*
G02*
X177800000Y-39495100I0J150000D01*
G01*
X177800000Y-38470100D01*
G75*
G02*
X177950000Y-38320100I150000J0D01*
G01*
G37*
G04 #@! TD.AperFunction*
G04 #@! TA.AperFunction,SMDPad,CuDef*
G36*
G01*
X177000000Y-38320100D02*
X177300000Y-38320100D01*
G75*
G02*
X177450000Y-38470100I0J-150000D01*
G01*
X177450000Y-39495100D01*
G75*
G02*
X177300000Y-39645100I-150000J0D01*
G01*
X177000000Y-39645100D01*
G75*
G02*
X176850000Y-39495100I0J150000D01*
G01*
X176850000Y-38470100D01*
G75*
G02*
X177000000Y-38320100I150000J0D01*
G01*
G37*
G04 #@! TD.AperFunction*
G04 #@! TA.AperFunction,SMDPad,CuDef*
G36*
G01*
X177000000Y-40595100D02*
X177300000Y-40595100D01*
G75*
G02*
X177450000Y-40745100I0J-150000D01*
G01*
X177450000Y-41770100D01*
G75*
G02*
X177300000Y-41920100I-150000J0D01*
G01*
X177000000Y-41920100D01*
G75*
G02*
X176850000Y-41770100I0J150000D01*
G01*
X176850000Y-40745100D01*
G75*
G02*
X177000000Y-40595100I150000J0D01*
G01*
G37*
G04 #@! TD.AperFunction*
G04 #@! TA.AperFunction,SMDPad,CuDef*
G36*
G01*
X177950000Y-40595100D02*
X178250000Y-40595100D01*
G75*
G02*
X178400000Y-40745100I0J-150000D01*
G01*
X178400000Y-41770100D01*
G75*
G02*
X178250000Y-41920100I-150000J0D01*
G01*
X177950000Y-41920100D01*
G75*
G02*
X177800000Y-41770100I0J150000D01*
G01*
X177800000Y-40745100D01*
G75*
G02*
X177950000Y-40595100I150000J0D01*
G01*
G37*
G04 #@! TD.AperFunction*
G04 #@! TA.AperFunction,SMDPad,CuDef*
G36*
G01*
X178900000Y-40595100D02*
X179200000Y-40595100D01*
G75*
G02*
X179350000Y-40745100I0J-150000D01*
G01*
X179350000Y-41770100D01*
G75*
G02*
X179200000Y-41920100I-150000J0D01*
G01*
X178900000Y-41920100D01*
G75*
G02*
X178750000Y-41770100I0J150000D01*
G01*
X178750000Y-40745100D01*
G75*
G02*
X178900000Y-40595100I150000J0D01*
G01*
G37*
G04 #@! TD.AperFunction*
D10*
X245080000Y-81225000D03*
D11*
X234920000Y-81225000D03*
D38*
X179600000Y-43625000D03*
X179600000Y-47775000D03*
D37*
X152742934Y-98294059D03*
D34*
X150202934Y-98294059D03*
X147662934Y-98294059D03*
D28*
X139840000Y-97590000D03*
X140542944Y-95892944D03*
X140542944Y-99287056D03*
X142240000Y-95190000D03*
D29*
X142240000Y-97590000D03*
D28*
X142240000Y-99990000D03*
X143937056Y-95892944D03*
X143937056Y-99287056D03*
X144640000Y-97590000D03*
D10*
X202700000Y-42100000D03*
D11*
X192540000Y-42100000D03*
D10*
X140970000Y-79980000D03*
D11*
X140970000Y-69820000D03*
D10*
X209750000Y-94400000D03*
X212250000Y-94400000D03*
D15*
X184650000Y-69850000D03*
D10*
X184650000Y-67350000D03*
D28*
X138994600Y-37691600D03*
X139697544Y-35994544D03*
X139697544Y-39388656D03*
X141394600Y-35291600D03*
D29*
X141394600Y-37691600D03*
D28*
X141394600Y-40091600D03*
X143091656Y-35994544D03*
X143091656Y-39388656D03*
X143794600Y-37691600D03*
G04 #@! TA.AperFunction,SMDPad,CuDef*
G36*
G01*
X171212500Y-68775000D02*
X171387500Y-68775000D01*
G75*
G02*
X171475000Y-68862500I0J-87500D01*
G01*
X171475000Y-70312500D01*
G75*
G02*
X171387500Y-70400000I-87500J0D01*
G01*
X171212500Y-70400000D01*
G75*
G02*
X171125000Y-70312500I0J87500D01*
G01*
X171125000Y-68862500D01*
G75*
G02*
X171212500Y-68775000I87500J0D01*
G01*
G37*
G04 #@! TD.AperFunction*
G04 #@! TA.AperFunction,SMDPad,CuDef*
G36*
G01*
X170712500Y-68775000D02*
X170887500Y-68775000D01*
G75*
G02*
X170975000Y-68862500I0J-87500D01*
G01*
X170975000Y-70312500D01*
G75*
G02*
X170887500Y-70400000I-87500J0D01*
G01*
X170712500Y-70400000D01*
G75*
G02*
X170625000Y-70312500I0J87500D01*
G01*
X170625000Y-68862500D01*
G75*
G02*
X170712500Y-68775000I87500J0D01*
G01*
G37*
G04 #@! TD.AperFunction*
G04 #@! TA.AperFunction,SMDPad,CuDef*
G36*
G01*
X170212500Y-68775000D02*
X170387500Y-68775000D01*
G75*
G02*
X170475000Y-68862500I0J-87500D01*
G01*
X170475000Y-70312500D01*
G75*
G02*
X170387500Y-70400000I-87500J0D01*
G01*
X170212500Y-70400000D01*
G75*
G02*
X170125000Y-70312500I0J87500D01*
G01*
X170125000Y-68862500D01*
G75*
G02*
X170212500Y-68775000I87500J0D01*
G01*
G37*
G04 #@! TD.AperFunction*
G04 #@! TA.AperFunction,SMDPad,CuDef*
G36*
G01*
X169712500Y-68775000D02*
X169887500Y-68775000D01*
G75*
G02*
X169975000Y-68862500I0J-87500D01*
G01*
X169975000Y-70312500D01*
G75*
G02*
X169887500Y-70400000I-87500J0D01*
G01*
X169712500Y-70400000D01*
G75*
G02*
X169625000Y-70312500I0J87500D01*
G01*
X169625000Y-68862500D01*
G75*
G02*
X169712500Y-68775000I87500J0D01*
G01*
G37*
G04 #@! TD.AperFunction*
G04 #@! TA.AperFunction,SMDPad,CuDef*
G36*
G01*
X169212500Y-68775000D02*
X169387500Y-68775000D01*
G75*
G02*
X169475000Y-68862500I0J-87500D01*
G01*
X169475000Y-70312500D01*
G75*
G02*
X169387500Y-70400000I-87500J0D01*
G01*
X169212500Y-70400000D01*
G75*
G02*
X169125000Y-70312500I0J87500D01*
G01*
X169125000Y-68862500D01*
G75*
G02*
X169212500Y-68775000I87500J0D01*
G01*
G37*
G04 #@! TD.AperFunction*
G04 #@! TA.AperFunction,SMDPad,CuDef*
G36*
G01*
X169212500Y-73000000D02*
X169387500Y-73000000D01*
G75*
G02*
X169475000Y-73087500I0J-87500D01*
G01*
X169475000Y-74537500D01*
G75*
G02*
X169387500Y-74625000I-87500J0D01*
G01*
X169212500Y-74625000D01*
G75*
G02*
X169125000Y-74537500I0J87500D01*
G01*
X169125000Y-73087500D01*
G75*
G02*
X169212500Y-73000000I87500J0D01*
G01*
G37*
G04 #@! TD.AperFunction*
G04 #@! TA.AperFunction,SMDPad,CuDef*
G36*
G01*
X169712500Y-73000000D02*
X169887500Y-73000000D01*
G75*
G02*
X169975000Y-73087500I0J-87500D01*
G01*
X169975000Y-74537500D01*
G75*
G02*
X169887500Y-74625000I-87500J0D01*
G01*
X169712500Y-74625000D01*
G75*
G02*
X169625000Y-74537500I0J87500D01*
G01*
X169625000Y-73087500D01*
G75*
G02*
X169712500Y-73000000I87500J0D01*
G01*
G37*
G04 #@! TD.AperFunction*
G04 #@! TA.AperFunction,SMDPad,CuDef*
G36*
G01*
X170212500Y-73000000D02*
X170387500Y-73000000D01*
G75*
G02*
X170475000Y-73087500I0J-87500D01*
G01*
X170475000Y-74537500D01*
G75*
G02*
X170387500Y-74625000I-87500J0D01*
G01*
X170212500Y-74625000D01*
G75*
G02*
X170125000Y-74537500I0J87500D01*
G01*
X170125000Y-73087500D01*
G75*
G02*
X170212500Y-73000000I87500J0D01*
G01*
G37*
G04 #@! TD.AperFunction*
G04 #@! TA.AperFunction,SMDPad,CuDef*
G36*
G01*
X170712500Y-73000000D02*
X170887500Y-73000000D01*
G75*
G02*
X170975000Y-73087500I0J-87500D01*
G01*
X170975000Y-74537500D01*
G75*
G02*
X170887500Y-74625000I-87500J0D01*
G01*
X170712500Y-74625000D01*
G75*
G02*
X170625000Y-74537500I0J87500D01*
G01*
X170625000Y-73087500D01*
G75*
G02*
X170712500Y-73000000I87500J0D01*
G01*
G37*
G04 #@! TD.AperFunction*
G04 #@! TA.AperFunction,SMDPad,CuDef*
G36*
G01*
X171212500Y-73000000D02*
X171387500Y-73000000D01*
G75*
G02*
X171475000Y-73087500I0J-87500D01*
G01*
X171475000Y-74537500D01*
G75*
G02*
X171387500Y-74625000I-87500J0D01*
G01*
X171212500Y-74625000D01*
G75*
G02*
X171125000Y-74537500I0J87500D01*
G01*
X171125000Y-73087500D01*
G75*
G02*
X171212500Y-73000000I87500J0D01*
G01*
G37*
G04 #@! TD.AperFunction*
G04 #@! TA.AperFunction,SMDPad,CuDef*
G36*
G01*
X188850000Y-70525000D02*
X190150000Y-70525000D01*
G75*
G02*
X190400000Y-70775000I0J-250000D01*
G01*
X190400000Y-71600000D01*
G75*
G02*
X190150000Y-71850000I-250000J0D01*
G01*
X188850000Y-71850000D01*
G75*
G02*
X188600000Y-71600000I0J250000D01*
G01*
X188600000Y-70775000D01*
G75*
G02*
X188850000Y-70525000I250000J0D01*
G01*
G37*
G04 #@! TD.AperFunction*
G04 #@! TA.AperFunction,SMDPad,CuDef*
G36*
G01*
X188850000Y-73650000D02*
X190150000Y-73650000D01*
G75*
G02*
X190400000Y-73900000I0J-250000D01*
G01*
X190400000Y-74725000D01*
G75*
G02*
X190150000Y-74975000I-250000J0D01*
G01*
X188850000Y-74975000D01*
G75*
G02*
X188600000Y-74725000I0J250000D01*
G01*
X188600000Y-73900000D01*
G75*
G02*
X188850000Y-73650000I250000J0D01*
G01*
G37*
G04 #@! TD.AperFunction*
D31*
X141180000Y-47550000D03*
D32*
X141180000Y-45010000D03*
X141180000Y-42470000D03*
D39*
X211700000Y-100400000D03*
D40*
X176400000Y-41600000D03*
X176600000Y-94500000D03*
X208030000Y-66050000D03*
X172380000Y-72330000D03*
X172750000Y-41600000D03*
X202400000Y-78800000D03*
X194280000Y-78420000D03*
X175610000Y-76250000D03*
X219450000Y-91780000D03*
X157750000Y-65520000D03*
X189750000Y-75500000D03*
X215210000Y-70850000D03*
X215200000Y-85500000D03*
X217530000Y-71940000D03*
X161620000Y-91760000D03*
X189880000Y-78390000D03*
X194560000Y-74360000D03*
X172820000Y-88260000D03*
X168460000Y-70970000D03*
X167400000Y-88480000D03*
X213900000Y-90500000D03*
X176630000Y-87620000D03*
X195420000Y-71440000D03*
X209190000Y-68920000D03*
X173400000Y-40400000D03*
X220180000Y-74960000D03*
X176280000Y-101980000D03*
X228890000Y-86440000D03*
X224640000Y-62100000D03*
X225650000Y-91790000D03*
X171300000Y-42650000D03*
X173800000Y-41600000D03*
X183170000Y-76330000D03*
X186340000Y-74940000D03*
X186200000Y-79100000D03*
X167090000Y-84430000D03*
X166230000Y-67890000D03*
X172180000Y-68310000D03*
X215280000Y-77600000D03*
X204650000Y-74820000D03*
X211880000Y-62000000D03*
X229700000Y-101100000D03*
X198250000Y-77920000D03*
X168150000Y-64210000D03*
X223830000Y-84520000D03*
X157840000Y-101860000D03*
X224600000Y-88350000D03*
X222320000Y-65360000D03*
X169470000Y-68070000D03*
X168380000Y-91620000D03*
X167710000Y-66130000D03*
X201360000Y-74800000D03*
X216200000Y-67900000D03*
X169600000Y-71200000D03*
D41*
X166650305Y-51849695D03*
D40*
X171040000Y-68180000D03*
D41*
X164200000Y-51719712D03*
D40*
X168500000Y-60600000D03*
X172300000Y-60600000D03*
X178100000Y-33600000D03*
X159600000Y-36200000D03*
X214020000Y-55520000D03*
X214950000Y-49290000D03*
X217240000Y-75240000D03*
X171400000Y-75200000D03*
X179050000Y-37850000D03*
X173850000Y-47750000D03*
D42*
X204600000Y-78200000D02*
X206364466Y-76435534D01*
X204100000Y-78200000D02*
X204600000Y-78200000D01*
X206364466Y-76435534D02*
X206364466Y-76035534D01*
D43*
X243218384Y-57901717D02*
X243498283Y-57901717D01*
X241850000Y-56533333D02*
X243218384Y-57901717D01*
X210330000Y-53350000D02*
X231750000Y-53350000D01*
X233400000Y-55000000D02*
X233433333Y-55033333D01*
X240100000Y-63533333D02*
X241791667Y-63533333D01*
X244633219Y-60691781D02*
X244633219Y-59036279D01*
X238950000Y-56559586D02*
X239879279Y-56559586D01*
X239879279Y-56559586D02*
X240079279Y-56759586D01*
X241850000Y-61788865D02*
X241850000Y-61533333D01*
X241850000Y-56533333D02*
X238976253Y-56533333D01*
X231750000Y-53350000D02*
X233400000Y-55000000D01*
X244079279Y-58482713D02*
X243498283Y-57901717D01*
X206430000Y-57250000D02*
X210330000Y-53350000D01*
X234959586Y-56559586D02*
X238950000Y-56559586D01*
X233400000Y-55000000D02*
X234959586Y-56559586D01*
X242329279Y-58159586D02*
X243179279Y-58159586D01*
X197880000Y-51540000D02*
X197735200Y-51540000D01*
X241623747Y-56759586D02*
X241850000Y-56533333D01*
X243229899Y-57633333D02*
X242329279Y-57633333D01*
X233433333Y-55033333D02*
X238350000Y-55033333D01*
X244079279Y-59059586D02*
X244079279Y-58482713D01*
X204750000Y-57250000D02*
X206430000Y-57250000D01*
X240079279Y-56759586D02*
X241623747Y-56759586D01*
X204750000Y-57250000D02*
X203590000Y-57250000D01*
X241791667Y-63533333D02*
X244633219Y-60691781D01*
X238976253Y-56533333D02*
X238950000Y-56559586D01*
X203590000Y-57250000D02*
X197880000Y-51540000D01*
X243179279Y-58159586D02*
X244079279Y-59059586D01*
X243498283Y-57901717D02*
X243229899Y-57633333D01*
D44*
X217000000Y-89650000D02*
X228430000Y-89650000D01*
D45*
X213600000Y-92310049D02*
X215600000Y-90310049D01*
X215600000Y-90300000D02*
X216250000Y-89650000D01*
X212300000Y-94350000D02*
X212250000Y-94400000D01*
X212300000Y-92000000D02*
X212300000Y-94350000D01*
X215600000Y-90310049D02*
X215600000Y-90300000D01*
X213600000Y-93050000D02*
X213600000Y-92310049D01*
X212250000Y-94400000D02*
X213600000Y-93050000D01*
X216250000Y-89650000D02*
X217000000Y-89650000D01*
D43*
X201430000Y-64750000D02*
X199500000Y-64750000D01*
X192050000Y-65790000D02*
X191050001Y-65790000D01*
D42*
X217250000Y-71660000D02*
X217530000Y-71940000D01*
X170140000Y-72700000D02*
X168925000Y-72700000D01*
D43*
X191050001Y-65790000D02*
X189500000Y-64239999D01*
D42*
X216750000Y-73832500D02*
X216750000Y-73004924D01*
X170800000Y-69587500D02*
X170800000Y-70415076D01*
D43*
X189500000Y-64239999D02*
X189500000Y-64000000D01*
X199500000Y-64750000D02*
X198460000Y-65790000D01*
X187400000Y-64000000D02*
X184550000Y-61150000D01*
D42*
X189500000Y-74312500D02*
X189500000Y-75250000D01*
X216750000Y-73004924D02*
X216490076Y-72745000D01*
X170300000Y-73812500D02*
X170300000Y-72860000D01*
D43*
X189500000Y-64000000D02*
X187400000Y-64000000D01*
D42*
X197050000Y-70870000D02*
X195990000Y-70870000D01*
D43*
X171314369Y-42635631D02*
X171300000Y-42650000D01*
D42*
X170300000Y-72860000D02*
X170140000Y-72700000D01*
X171059924Y-70675000D02*
X172350000Y-70675000D01*
X216490076Y-72745000D02*
X215035000Y-72745000D01*
X172350000Y-70675000D02*
X172400000Y-70625000D01*
X215035000Y-72745000D02*
X213820000Y-73960000D01*
X170800000Y-70415076D02*
X171059924Y-70675000D01*
X168925000Y-72700000D02*
X167350000Y-74275000D01*
X217250000Y-69607500D02*
X217250000Y-68100000D01*
X217250000Y-68100000D02*
X217220000Y-68070000D01*
D43*
X204750000Y-59750000D02*
X204750000Y-61430000D01*
D42*
X195990000Y-70870000D02*
X195420000Y-71440000D01*
D43*
X172722096Y-42635631D02*
X171314369Y-42635631D01*
X204750000Y-61430000D02*
X201430000Y-64750000D01*
D42*
X217250000Y-69607500D02*
X217250000Y-71660000D01*
D43*
X198460000Y-65790000D02*
X197050000Y-65790000D01*
D42*
X189500000Y-75250000D02*
X189750000Y-75500000D01*
D45*
X217000000Y-85500000D02*
X217000000Y-83300000D01*
X209700000Y-94350000D02*
X209750000Y-94400000D01*
X209700000Y-92000000D02*
X209700000Y-94350000D01*
X210900000Y-91600000D02*
X217000000Y-85500000D01*
X209750000Y-94400000D02*
X210900000Y-93250000D01*
D44*
X228430000Y-83300000D02*
X217000000Y-83300000D01*
D45*
X210900000Y-93250000D02*
X210900000Y-91600000D01*
X177790000Y-95740000D02*
X176740000Y-96790000D01*
X174790000Y-96790000D02*
X172900000Y-94900000D01*
X178230000Y-93320000D02*
X178230000Y-95300000D01*
X172900000Y-94900000D02*
X172900000Y-91620000D01*
X172900000Y-91620000D02*
X170930000Y-89650000D01*
X178230000Y-95300000D02*
X177790000Y-95740000D01*
X159500000Y-89650000D02*
X170930000Y-89650000D01*
X176740000Y-96790000D02*
X174790000Y-96790000D01*
X175020000Y-93340000D02*
X175020000Y-95470000D01*
X170930000Y-83300000D02*
X173470000Y-85840000D01*
X173470000Y-85840000D02*
X173470000Y-93920000D01*
X159500000Y-83300000D02*
X170930000Y-83300000D01*
X175020000Y-95470000D02*
X175290000Y-95740000D01*
X173470000Y-93920000D02*
X175290000Y-95740000D01*
D42*
X216250000Y-67950000D02*
X216200000Y-67900000D01*
X216250000Y-69607500D02*
X216250000Y-67950000D01*
D44*
X264600000Y-44600000D02*
X264600000Y-50520000D01*
X264600000Y-50520000D02*
X262920000Y-52200000D01*
X264600000Y-59100000D02*
X264600000Y-65270000D01*
X264600000Y-65270000D02*
X263120000Y-66750000D01*
D42*
X169800000Y-71000000D02*
X169800000Y-69587500D01*
X169600000Y-71200000D02*
X169800000Y-71000000D01*
D44*
X261200000Y-93230000D02*
X261200000Y-91500000D01*
X261200000Y-91500000D02*
X264600000Y-88100000D01*
X233260000Y-92180000D02*
X233260000Y-91745000D01*
X233260000Y-91745000D02*
X236599112Y-88405888D01*
X236599112Y-88405888D02*
X236599112Y-88100000D01*
X250600000Y-50770000D02*
X249220000Y-52150000D01*
X250600000Y-44600000D02*
X250600000Y-50770000D01*
D43*
X258355000Y-68400000D02*
X259027500Y-69072500D01*
X234920000Y-81225000D02*
X234920000Y-70920320D01*
X240780000Y-53950000D02*
X240680000Y-53850000D01*
X238755000Y-82125000D02*
X240795495Y-84165495D01*
X271630000Y-53650000D02*
X273080000Y-52200000D01*
X246430000Y-52150000D02*
X244630000Y-53950000D01*
X244630000Y-53950000D02*
X244350000Y-53950000D01*
X234920000Y-81225000D02*
X235820000Y-82125000D01*
X260880000Y-53650000D02*
X271630000Y-53650000D01*
X232226346Y-52200000D02*
X204900000Y-52200000D01*
X240795495Y-84165495D02*
X242894505Y-84165495D01*
D44*
X234055000Y-81225000D02*
X233260000Y-82020000D01*
D43*
X240780000Y-53950000D02*
X244350000Y-53950000D01*
X259027500Y-69072500D02*
X262773274Y-72818274D01*
X259027500Y-69072500D02*
X259905000Y-69950000D01*
X246355000Y-66725000D02*
X248030000Y-68400000D01*
X267973654Y-81300000D02*
X273280000Y-81300000D01*
X234920000Y-70920320D02*
X238415320Y-67425000D01*
X240670346Y-66725000D02*
X246355000Y-66725000D01*
X244350000Y-53950000D02*
X257580000Y-53950000D01*
X204750000Y-52350000D02*
X202410000Y-52350000D01*
X259380000Y-52150000D02*
X260880000Y-53650000D01*
X257420000Y-68400000D02*
X258355000Y-68400000D01*
X262773274Y-76099620D02*
X267973654Y-81300000D01*
X259905000Y-73810000D02*
X259905000Y-81400000D01*
X242894505Y-84165495D02*
X247100000Y-88370989D01*
X259905000Y-81400000D02*
X259905000Y-81775000D01*
X259905000Y-69950000D02*
X259905000Y-73810000D01*
X202410000Y-52350000D02*
X201600000Y-51540000D01*
X257420000Y-68400000D02*
X271630000Y-68400000D01*
X247100000Y-88370989D02*
X247100000Y-92410000D01*
X248030000Y-68400000D02*
X257420000Y-68400000D01*
X241746566Y-53950000D02*
X246355000Y-58558434D01*
X238415320Y-67425000D02*
X239970346Y-67425000D01*
X239970346Y-67425000D02*
X240670346Y-66725000D01*
X259905000Y-81775000D02*
X261200000Y-83070000D01*
X262773274Y-72818274D02*
X262773274Y-76099620D01*
D44*
X234920000Y-81225000D02*
X234055000Y-81225000D01*
D43*
X240780000Y-53950000D02*
X241746566Y-53950000D01*
X240680000Y-53850000D02*
X233876346Y-53850000D01*
X257580000Y-53950000D02*
X259380000Y-52150000D01*
X246355000Y-58558434D02*
X246355000Y-66725000D01*
X235820000Y-82125000D02*
X238755000Y-82125000D01*
X258355000Y-68400000D02*
X259805000Y-66950000D01*
X271630000Y-68400000D02*
X273280000Y-66750000D01*
X233876346Y-53850000D02*
X232226346Y-52200000D01*
X204900000Y-52200000D02*
X204750000Y-52350000D01*
D44*
X250600000Y-59100000D02*
X250600000Y-65995000D01*
X250600000Y-65995000D02*
X249645000Y-66950000D01*
X249745000Y-74455000D02*
X250600000Y-73600000D01*
X249745000Y-81400000D02*
X249745000Y-74455000D01*
X236600000Y-77908697D02*
X236600000Y-73566666D01*
X245080000Y-81225000D02*
X239916303Y-81225000D01*
X239916303Y-81225000D02*
X236600000Y-77908697D01*
X250599112Y-88100000D02*
X250599112Y-85749112D01*
X250599112Y-85749112D02*
X247100000Y-82250000D01*
X236600000Y-66320000D02*
X236195000Y-66725000D01*
D42*
X143320000Y-85630000D02*
X143210000Y-85740000D01*
X143210000Y-85740000D02*
X143210000Y-88770000D01*
X143460000Y-85630000D02*
X148090000Y-81000000D01*
X148745280Y-81000000D02*
X154500000Y-75245280D01*
X145860000Y-91420000D02*
X145860000Y-91470000D01*
X143210000Y-88770000D02*
X145860000Y-91420000D01*
X148090000Y-81000000D02*
X148745280Y-81000000D01*
X143320000Y-85630000D02*
X143460000Y-85630000D01*
X154500000Y-75245280D02*
X154500000Y-69765000D01*
X139755000Y-87905000D02*
X143320000Y-91470000D01*
X143980000Y-79970000D02*
X143370000Y-79970000D01*
X143370000Y-79970000D02*
X139840000Y-83500000D01*
X139755000Y-85205431D02*
X139755000Y-87905000D01*
X139840000Y-85120431D02*
X139755000Y-85205431D01*
X139840000Y-83500000D02*
X139840000Y-85120431D01*
X223550000Y-63804594D02*
X223600000Y-63854594D01*
X223600000Y-63854594D02*
X223600000Y-65630000D01*
X223600000Y-65630000D02*
X220990000Y-68240000D01*
X223550000Y-63800000D02*
X223550000Y-63804594D01*
X164720000Y-65280000D02*
X166100000Y-63900000D01*
X164720000Y-66910000D02*
X164720000Y-65280000D01*
X148875000Y-88725000D02*
X148875000Y-85305000D01*
X151400000Y-82780000D02*
X151400000Y-79935000D01*
X148875000Y-85305000D02*
X151400000Y-82780000D01*
X241465000Y-38330000D02*
X243540000Y-36255000D01*
X227430000Y-38310000D02*
X227450000Y-38330000D01*
X229660000Y-44010000D02*
X228650000Y-43000000D01*
X228650000Y-39530000D02*
X227430000Y-38310000D01*
X228650000Y-43000000D02*
X228650000Y-39530000D01*
D44*
X243515000Y-36230000D02*
X243515000Y-32895000D01*
X243540000Y-36255000D02*
X243515000Y-36230000D01*
D42*
X227450000Y-38330000D02*
X241465000Y-38330000D01*
D44*
X243515000Y-32895000D02*
X243500000Y-32880000D01*
D42*
X216550000Y-39580000D02*
X216550000Y-38230000D01*
X211550000Y-33230000D02*
X211550000Y-33200000D01*
X216550000Y-38230000D02*
X211550000Y-33230000D01*
X140970000Y-77380000D02*
X140970000Y-79980000D01*
X144860000Y-69810000D02*
X145855000Y-68815000D01*
X143980000Y-69810000D02*
X143020000Y-70770000D01*
X143020000Y-70770000D02*
X143020000Y-75330000D01*
X145855000Y-68815000D02*
X145855000Y-67125000D01*
X143980000Y-69810000D02*
X144860000Y-69810000D01*
X143020000Y-75330000D02*
X140970000Y-77380000D01*
X213120000Y-37200000D02*
X214400000Y-38480000D01*
X211550000Y-37200000D02*
X213120000Y-37200000D01*
X214400000Y-38480000D02*
X214400000Y-38980000D01*
X197920000Y-33200000D02*
X202800000Y-38080000D01*
X196550000Y-33200000D02*
X197920000Y-33200000D01*
X202800000Y-38080000D02*
X202800000Y-38480000D01*
X200000000Y-38480000D02*
X197830000Y-38480000D01*
X197830000Y-38480000D02*
X196550000Y-37200000D01*
D44*
X197090000Y-37000000D02*
X196350000Y-37000000D01*
D42*
X212625000Y-33725000D02*
X212625000Y-32754720D01*
X233380000Y-36255000D02*
X233040000Y-35915000D01*
X227575000Y-35915000D02*
X227430000Y-35770000D01*
X216550000Y-34500000D02*
X216550000Y-34950000D01*
X215650000Y-35400000D02*
X214300000Y-35400000D01*
X214300000Y-35400000D02*
X212625000Y-33725000D01*
X218625000Y-37025000D02*
X226175000Y-37025000D01*
X216550000Y-34950000D02*
X218625000Y-37025000D01*
X226175000Y-37025000D02*
X227430000Y-35770000D01*
X204125000Y-32075000D02*
X202800000Y-33400000D01*
X211945280Y-32075000D02*
X204125000Y-32075000D01*
X216550000Y-34500000D02*
X215650000Y-35400000D01*
X212625000Y-32754720D02*
X211945280Y-32075000D01*
X233040000Y-35915000D02*
X227575000Y-35915000D01*
X192050000Y-73410000D02*
X192050000Y-75350000D01*
X192050000Y-75350000D02*
X192100000Y-75400000D01*
X209700000Y-84875000D02*
X209525000Y-84700000D01*
X209700000Y-87000000D02*
X209700000Y-84875000D01*
X215750000Y-73832500D02*
X215750000Y-74250000D01*
X214100000Y-75900000D02*
X210765000Y-75900000D01*
X215750000Y-74250000D02*
X214100000Y-75900000D01*
X210765000Y-75900000D02*
X209525000Y-77140000D01*
X212300000Y-85050000D02*
X212675000Y-84675000D01*
X212300000Y-87000000D02*
X212300000Y-85050000D01*
X213795076Y-77115000D02*
X216250000Y-74660076D01*
X212675000Y-77115000D02*
X213795076Y-77115000D01*
X216250000Y-74660076D02*
X216250000Y-73832500D01*
X175100000Y-86110000D02*
X175100000Y-88260000D01*
X169300000Y-74705762D02*
X169300000Y-73812500D01*
X172294238Y-77700000D02*
X169300000Y-74705762D01*
X175200000Y-78440000D02*
X174460000Y-77700000D01*
X174460000Y-77700000D02*
X172294238Y-77700000D01*
X178200000Y-86110000D02*
X178200000Y-88290000D01*
X172459924Y-77300000D02*
X177160000Y-77300000D01*
X169800000Y-73812500D02*
X169800000Y-74640076D01*
X177160000Y-77300000D02*
X178300000Y-78440000D01*
X169800000Y-74640076D02*
X172459924Y-77300000D01*
D44*
X177174065Y-54568249D02*
X178024065Y-54568249D01*
D43*
X150165198Y-54569712D02*
X151015198Y-54569712D01*
X184550000Y-54000000D02*
X185240000Y-54000000D01*
X154144477Y-57590433D02*
X152365198Y-59369712D01*
X177153344Y-61394502D02*
X177653344Y-61394502D01*
X150144477Y-54595965D02*
X150141451Y-54595965D01*
X177153344Y-54594502D02*
X177150318Y-54594502D01*
X154144477Y-56895965D02*
X154144477Y-57590433D01*
X181707284Y-56842716D02*
X181707284Y-56871195D01*
D44*
X181174065Y-56868249D02*
X180324065Y-56868249D01*
D43*
X166179678Y-52320322D02*
X165650000Y-52320322D01*
X181153344Y-56894502D02*
X181153344Y-56317629D01*
X177653344Y-61394502D02*
X181153344Y-57894502D01*
X177150318Y-54594502D02*
X175424065Y-52868249D01*
X185240000Y-54000000D02*
X187550000Y-51690000D01*
X154144477Y-56319092D02*
X153295097Y-55469712D01*
X181153344Y-56317629D02*
X180303964Y-55468249D01*
X150141451Y-54595965D02*
X148415198Y-52869712D01*
X164720322Y-53250000D02*
X157100000Y-53250000D01*
X151915198Y-59369712D02*
X151915198Y-59625244D01*
X181153344Y-57894502D02*
X181153344Y-56894502D01*
X154144477Y-56895965D02*
X154144477Y-56319092D01*
D44*
X180324065Y-56868249D02*
X179424065Y-55968249D01*
D43*
X151915198Y-59625244D02*
X150144477Y-61395965D01*
X157100000Y-53250000D02*
X154144477Y-56205523D01*
X152365198Y-59369712D02*
X151915198Y-59369712D01*
D44*
X178024065Y-54568249D02*
X179424065Y-55968249D01*
D43*
X153295097Y-55469712D02*
X152394477Y-55469712D01*
X187550000Y-51690000D02*
X187750000Y-51690000D01*
X184550000Y-54000000D02*
X181707284Y-56842716D01*
X151015198Y-54569712D02*
X152415198Y-55969712D01*
X154144477Y-56205523D02*
X154144477Y-56895965D01*
X165650000Y-52320322D02*
X164720322Y-53250000D01*
X180303964Y-55468249D02*
X179403344Y-55468249D01*
X166650305Y-51849695D02*
X166179678Y-52320322D01*
D42*
X217750000Y-69607500D02*
X217750000Y-68810000D01*
X217750000Y-68810000D02*
X221050000Y-65510000D01*
X221050000Y-65510000D02*
X221050000Y-63800000D01*
D43*
X182530001Y-61780001D02*
X184900000Y-64150000D01*
X184550000Y-59099390D02*
X182530001Y-61119389D01*
X184550000Y-58650000D02*
X184550000Y-59099390D01*
X191550000Y-51650000D02*
X191620000Y-51650000D01*
X184550000Y-58650000D02*
X191550000Y-51650000D01*
X182530001Y-61119389D02*
X182530001Y-61780001D01*
D42*
X171300000Y-68440000D02*
X171300000Y-69587500D01*
X171040000Y-68180000D02*
X171300000Y-68440000D01*
D44*
X189047057Y-61850000D02*
X187750000Y-61850000D01*
X192050000Y-64520000D02*
X191717057Y-64520000D01*
X191717057Y-64520000D02*
X189047057Y-61850000D01*
D42*
X212470000Y-72180000D02*
X215005076Y-72180000D01*
X215005076Y-72180000D02*
X216750000Y-70435076D01*
X209900000Y-72500000D02*
X210317767Y-72082233D01*
X212150000Y-72500000D02*
X212470000Y-72180000D01*
X210317767Y-72082233D02*
X210317767Y-70372233D01*
X209900000Y-72500000D02*
X212150000Y-72500000D01*
X210317767Y-70372233D02*
X211030000Y-69660000D01*
X216750000Y-70435076D02*
X216750000Y-69607500D01*
D44*
X193550000Y-64238026D02*
X191620000Y-62308026D01*
X192050000Y-67060000D02*
X193049999Y-67060000D01*
X193550000Y-66559999D02*
X193550000Y-64238026D01*
X191620000Y-62308026D02*
X191620000Y-61810000D01*
X193049999Y-67060000D02*
X193550000Y-66559999D01*
X195650000Y-66659999D02*
X195650000Y-65348000D01*
X197735200Y-62052826D02*
X195650000Y-64138026D01*
X197050000Y-67060000D02*
X196050001Y-67060000D01*
X195650000Y-64138026D02*
X195650000Y-65348000D01*
X197735200Y-61700000D02*
X197735200Y-62052826D01*
X196050001Y-67060000D02*
X195650000Y-66659999D01*
X195650000Y-65348000D02*
X195681600Y-65379600D01*
X200358800Y-62941200D02*
X201600000Y-61700000D01*
X197050000Y-64520000D02*
X197230000Y-64520000D01*
X197230000Y-64520000D02*
X198808800Y-62941200D01*
X198808800Y-62941200D02*
X200358800Y-62941200D01*
D42*
X174350000Y-72700000D02*
X174600000Y-72700000D01*
X170700000Y-71300000D02*
X172950000Y-71300000D01*
X170300000Y-69587500D02*
X170300000Y-70900000D01*
X172950000Y-71300000D02*
X174350000Y-72700000D01*
X170300000Y-70900000D02*
X170700000Y-71300000D01*
D43*
X147282288Y-51719712D02*
X146644477Y-52357523D01*
X164200000Y-51719712D02*
X147282288Y-51719712D01*
X146644477Y-52357523D02*
X146644477Y-56895965D01*
D42*
X220477500Y-73832500D02*
X217750000Y-73832500D01*
X220990000Y-73320000D02*
X220477500Y-73832500D01*
X170315076Y-72000000D02*
X164730000Y-72000000D01*
X171300000Y-73812500D02*
X171300000Y-72984924D01*
X164730000Y-72000000D02*
X164720000Y-71990000D01*
X171300000Y-72984924D02*
X170315076Y-72000000D01*
X146315000Y-79925000D02*
X148300000Y-79925000D01*
X140780000Y-85630000D02*
X140780000Y-85460000D01*
X140780000Y-85460000D02*
X146315000Y-79925000D01*
X191910000Y-78900000D02*
X193550000Y-77260000D01*
X192440000Y-72140000D02*
X192050000Y-72140000D01*
X193550000Y-73250000D02*
X192440000Y-72140000D01*
X193550000Y-77260000D02*
X193550000Y-73250000D01*
D43*
X141180000Y-50420000D02*
X141210000Y-50450000D01*
X141180000Y-47550000D02*
X141180000Y-50420000D01*
D42*
X169508884Y-32650000D02*
X167780026Y-32650000D01*
X142845000Y-45145000D02*
X142845000Y-41605000D01*
X145717657Y-37866657D02*
X149185914Y-34398400D01*
X168628884Y-30520000D02*
X169875000Y-31766116D01*
X159930000Y-30520000D02*
X168628884Y-30520000D01*
X167780026Y-32650000D02*
X167550000Y-32880026D01*
X156051600Y-34398400D02*
X159930000Y-30520000D01*
X149185914Y-34398400D02*
X156051600Y-34398400D01*
X142845000Y-41605000D02*
X145717657Y-38732343D01*
X169875000Y-32283884D02*
X169508884Y-32650000D01*
X167550000Y-32880026D02*
X167550000Y-33375000D01*
X145717657Y-38732343D02*
X145717657Y-37866657D01*
X169875000Y-31766116D02*
X169875000Y-32283884D01*
X144300000Y-46600000D02*
X142845000Y-45145000D01*
X143500000Y-42301000D02*
X143500000Y-42740000D01*
X160095686Y-30920000D02*
X156115686Y-34900000D01*
X149250000Y-34900000D02*
X146200000Y-37950000D01*
X164050000Y-30920000D02*
X160095686Y-30920000D01*
X146200000Y-39601000D02*
X143500000Y-42301000D01*
X143500000Y-42740000D02*
X144300000Y-43540000D01*
X164800000Y-32025000D02*
X164800000Y-31670000D01*
X146200000Y-37950000D02*
X146200000Y-39601000D01*
X164800000Y-31670000D02*
X164050000Y-30920000D01*
X156115686Y-34900000D02*
X149250000Y-34900000D01*
D43*
X147799400Y-46550600D02*
X143900000Y-50450000D01*
X147799400Y-40943400D02*
X147799400Y-46550600D01*
X143900000Y-50450000D02*
X143750000Y-50450000D01*
X171450000Y-46501311D02*
X171450000Y-45425000D01*
D42*
X149027934Y-98780760D02*
X151547174Y-101300000D01*
D43*
X184650000Y-69850000D02*
X184200000Y-69400000D01*
D42*
X149027934Y-91112066D02*
X149027934Y-98780760D01*
D43*
X189500000Y-69000000D02*
X190170000Y-68330000D01*
X172153344Y-55623182D02*
X172625000Y-55151526D01*
X198080000Y-68330000D02*
X199500000Y-69750000D01*
X197050000Y-68330000D02*
X198080000Y-68330000D01*
X172153344Y-58803344D02*
X172153344Y-55623182D01*
X172625000Y-47676311D02*
X171450000Y-46501311D01*
D42*
X159700000Y-60600000D02*
X168500000Y-60600000D01*
D43*
X190170000Y-68330000D02*
X192050000Y-68330000D01*
X172625000Y-55151526D02*
X172625000Y-47676311D01*
X172290000Y-63750610D02*
X172290000Y-58940000D01*
X169990000Y-43028535D02*
X171450000Y-44488535D01*
X185100000Y-69400000D02*
X189100000Y-69400000D01*
X184200000Y-69400000D02*
X177939390Y-69400000D01*
D42*
X199500000Y-71959999D02*
X199500000Y-69750000D01*
D43*
X177939390Y-69400000D02*
X172290000Y-63750610D01*
D42*
X156100000Y-98200000D02*
X156100000Y-64200000D01*
D43*
X184650000Y-69850000D02*
X185100000Y-69400000D01*
X189100000Y-69400000D02*
X189500000Y-69000000D01*
D42*
X153000000Y-101300000D02*
X156100000Y-98200000D01*
X198049999Y-73410000D02*
X199500000Y-71959999D01*
X151415000Y-88725000D02*
X149027934Y-91112066D01*
D43*
X172290000Y-58940000D02*
X172153344Y-58803344D01*
D42*
X156100000Y-64200000D02*
X159700000Y-60600000D01*
X151547174Y-101300000D02*
X153000000Y-101300000D01*
D43*
X171450000Y-39350000D02*
X169990000Y-40810000D01*
D42*
X197050000Y-73410000D02*
X198049999Y-73410000D01*
D43*
X169990000Y-40810000D02*
X169990000Y-43028535D01*
X171450000Y-44488535D02*
X171450000Y-45425000D01*
D42*
X174200000Y-31280000D02*
X169540000Y-35940000D01*
D43*
X215102500Y-68960000D02*
X215425000Y-69282500D01*
X161290000Y-40620000D02*
X161290000Y-39350000D01*
X198700000Y-79900000D02*
X189050000Y-79900000D01*
X177300000Y-71600000D02*
X178520000Y-71600000D01*
X160310000Y-41600000D02*
X161290000Y-40620000D01*
X170650000Y-53798780D02*
X160761220Y-43910000D01*
D42*
X189301000Y-42631000D02*
X189301000Y-32750000D01*
D43*
X212160000Y-67300000D02*
X207200000Y-67300000D01*
D42*
X178100000Y-33600000D02*
X175780000Y-31280000D01*
D43*
X203100000Y-71400000D02*
X203100000Y-75500000D01*
X203100000Y-75500000D02*
X198700000Y-79900000D01*
D42*
X192050000Y-70870000D02*
X189817500Y-70870000D01*
D43*
X160761220Y-43910000D02*
X160310000Y-43910000D01*
D42*
X161000000Y-36200000D02*
X159600000Y-36200000D01*
D43*
X215425000Y-69282500D02*
X215425000Y-69607500D01*
X167350000Y-68600000D02*
X167350000Y-69275000D01*
X170650000Y-65984925D02*
X170650000Y-53798780D01*
X168481370Y-69275000D02*
X168975000Y-69768630D01*
D42*
X192500000Y-45230000D02*
X191900000Y-45230000D01*
X189817500Y-70870000D02*
X189500000Y-71187500D01*
D43*
X213820000Y-68960000D02*
X212160000Y-67300000D01*
X170450000Y-66184925D02*
X169765075Y-66184925D01*
D42*
X191900000Y-45230000D02*
X189301000Y-42631000D01*
X175780000Y-31280000D02*
X174200000Y-31280000D01*
D43*
X170450000Y-66184925D02*
X171884925Y-66184925D01*
X171884925Y-66184925D02*
X177300000Y-71600000D01*
X180750000Y-71600000D02*
X178520000Y-71600000D01*
D42*
X169540000Y-35940000D02*
X161260000Y-35940000D01*
X161260000Y-35940000D02*
X161000000Y-36200000D01*
D43*
X207200000Y-67300000D02*
X203100000Y-71400000D01*
X168975000Y-69768630D02*
X168975000Y-69587500D01*
X189050000Y-79900000D02*
X180750000Y-71600000D01*
X189087500Y-71600000D02*
X189500000Y-71187500D01*
X169765075Y-66184925D02*
X167350000Y-68600000D01*
X178520000Y-71600000D02*
X181900000Y-71600000D01*
X167350000Y-69275000D02*
X168481370Y-69275000D01*
X213820000Y-68960000D02*
X215102500Y-68960000D01*
X160310000Y-43910000D02*
X160310000Y-41600000D01*
X170450000Y-66184925D02*
X170650000Y-65984925D01*
X181900000Y-71600000D02*
X189087500Y-71600000D01*
X173100000Y-37300000D02*
X174000000Y-37300000D01*
D44*
X207375000Y-28950000D02*
X195917767Y-28950000D01*
X184650000Y-31500000D02*
X184221000Y-31929000D01*
D43*
X171429864Y-37240000D02*
X171489864Y-37300000D01*
D44*
X173719864Y-34950000D02*
X171429864Y-37240000D01*
X183271000Y-34950000D02*
X173719864Y-34950000D01*
X230300000Y-32120000D02*
X229480000Y-31300000D01*
D43*
X175100000Y-37610136D02*
X175777536Y-37610136D01*
X158010000Y-37240000D02*
X159155075Y-37240000D01*
D42*
X178100000Y-38982600D02*
X177150000Y-38982600D01*
D44*
X229190000Y-33230000D02*
X230300000Y-32120000D01*
D43*
X159155075Y-37240000D02*
X159165075Y-37250000D01*
X150139400Y-38403400D02*
X151589400Y-36953400D01*
D44*
X195917767Y-28950000D02*
X193367767Y-31500000D01*
D43*
X173100000Y-37300000D02*
X174789864Y-37300000D01*
D44*
X212600000Y-28950000D02*
X210917767Y-28950000D01*
D43*
X175777536Y-37610136D02*
X177150000Y-38982600D01*
D44*
X229480000Y-31300000D02*
X214950000Y-31300000D01*
X209867767Y-30000000D02*
X208425000Y-30000000D01*
X184221000Y-32750000D02*
X184221000Y-34000000D01*
X210917767Y-28950000D02*
X209867767Y-30000000D01*
D43*
X160034925Y-37250000D02*
X160044925Y-37240000D01*
X151589400Y-36953400D02*
X157723400Y-36953400D01*
D44*
X184221000Y-31929000D02*
X184221000Y-32750000D01*
D43*
X171489864Y-37300000D02*
X173100000Y-37300000D01*
X159165075Y-37250000D02*
X160034925Y-37250000D01*
D44*
X208425000Y-30000000D02*
X207375000Y-28950000D01*
D43*
X174789864Y-37300000D02*
X175100000Y-37610136D01*
X160044925Y-37240000D02*
X171429864Y-37240000D01*
D44*
X227430000Y-33230000D02*
X229190000Y-33230000D01*
X214950000Y-31300000D02*
X212600000Y-28950000D01*
X193367767Y-31500000D02*
X184650000Y-31500000D01*
X184221000Y-34000000D02*
X183271000Y-34950000D01*
D43*
X157723400Y-36953400D02*
X158010000Y-37240000D01*
X179050000Y-41257600D02*
X179050000Y-40850000D01*
X181000000Y-38900000D02*
X181000000Y-38237500D01*
X179050000Y-40850000D02*
X181000000Y-38900000D01*
D42*
X155700000Y-69125000D02*
X153700000Y-67125000D01*
X155700000Y-97686993D02*
X155700000Y-69125000D01*
X144250000Y-62600000D02*
X144250000Y-53125000D01*
X153475000Y-67125000D02*
X152975000Y-66625000D01*
X141180000Y-45520000D02*
X143570000Y-47910000D01*
X145750000Y-51150000D02*
X150139400Y-46760600D01*
X147799400Y-38650600D02*
X147799400Y-38403400D01*
X153917934Y-99469059D02*
X155700000Y-97686993D01*
X145620000Y-40830000D02*
X147799400Y-38650600D01*
X144250000Y-53125000D02*
X145750000Y-51625000D01*
X145620000Y-47080000D02*
X145620000Y-40830000D01*
X150139400Y-46760600D02*
X150139400Y-40943400D01*
X152975000Y-66625000D02*
X148275000Y-66625000D01*
X145750000Y-51625000D02*
X145750000Y-51150000D01*
X141180000Y-45010000D02*
X141180000Y-45520000D01*
X143570000Y-47910000D02*
X144790000Y-47910000D01*
X150202934Y-98294059D02*
X151377934Y-99469059D01*
X151377934Y-99469059D02*
X153917934Y-99469059D01*
X148275000Y-66625000D02*
X144250000Y-62600000D01*
X144790000Y-47910000D02*
X145620000Y-47080000D01*
X153700000Y-67125000D02*
X153475000Y-67125000D01*
D43*
X147599400Y-38403400D02*
X150139400Y-40943400D01*
D42*
X154500000Y-79925000D02*
X154400000Y-80025000D01*
X154400000Y-80025000D02*
X154400000Y-96636993D01*
X154400000Y-96636993D02*
X152742934Y-98294059D01*
X145860000Y-85630000D02*
X147160000Y-86930000D01*
X147160000Y-97791125D02*
X147662934Y-98294059D01*
X147160000Y-86930000D02*
X147160000Y-97791125D01*
X178635534Y-76235534D02*
X178135534Y-76235534D01*
X180000000Y-77600000D02*
X178635534Y-76235534D01*
X183600000Y-77600000D02*
X180000000Y-77600000D01*
X184300000Y-78300000D02*
X183600000Y-77600000D01*
X195560000Y-72140000D02*
X197050000Y-72140000D01*
X195300001Y-72399999D02*
X195560000Y-72140000D01*
X196050000Y-78290000D02*
X195300001Y-77540001D01*
X195300001Y-77540001D02*
X195300001Y-72399999D01*
X220980000Y-43970000D02*
X220980000Y-39480000D01*
X220960000Y-43950000D02*
X220980000Y-43970000D01*
X208170000Y-47000000D02*
X209990000Y-45180000D01*
X217100000Y-45180000D02*
X218330000Y-43950000D01*
X218330000Y-43950000D02*
X220960000Y-43950000D01*
X220980000Y-39480000D02*
X219810000Y-38310000D01*
X209990000Y-45180000D02*
X217100000Y-45180000D01*
D44*
X216040000Y-49290000D02*
X218330000Y-47000000D01*
X214950000Y-49290000D02*
X216040000Y-49290000D01*
X211030000Y-64660000D02*
X213140000Y-62550000D01*
X213140000Y-62550000D02*
X213140000Y-56400000D01*
X213140000Y-56400000D02*
X214020000Y-55520000D01*
D42*
X219810000Y-33230000D02*
X219665000Y-33375000D01*
X221030000Y-34450000D02*
X219810000Y-33230000D01*
X219810000Y-33230000D02*
X219810000Y-35770000D01*
X214925000Y-33375000D02*
X214400000Y-33900000D01*
X231770000Y-34450000D02*
X221030000Y-34450000D01*
X200000000Y-33400000D02*
X201725000Y-31675000D01*
X219665000Y-33375000D02*
X214925000Y-33375000D01*
X201725000Y-31675000D02*
X212675000Y-31675000D01*
X214400000Y-33400000D02*
X214400000Y-33900000D01*
X233340000Y-32880000D02*
X231770000Y-34450000D01*
X212675000Y-31675000D02*
X214400000Y-33400000D01*
X217240000Y-75240000D02*
X217240000Y-73842500D01*
X217240000Y-73842500D02*
X217250000Y-73832500D01*
X170800000Y-74640076D02*
X171359924Y-75200000D01*
X170800000Y-73812500D02*
X170800000Y-74640076D01*
X171359924Y-75200000D02*
X171400000Y-75200000D01*
X211110280Y-45580000D02*
X218229720Y-45580000D01*
X208600280Y-48090000D02*
X211110280Y-45580000D01*
X206940000Y-48090000D02*
X208600280Y-48090000D01*
X202700000Y-45190000D02*
X202660000Y-45230000D01*
X202700000Y-42100000D02*
X202700000Y-45190000D01*
X204080000Y-45230000D02*
X205250000Y-46400000D01*
X205250000Y-46400000D02*
X206940000Y-48090000D01*
X225090000Y-43190000D02*
X227430000Y-40850000D01*
X218764720Y-45045000D02*
X223935000Y-45045000D01*
X218229720Y-45580000D02*
X218764720Y-45045000D01*
X225090000Y-43890000D02*
X225090000Y-43190000D01*
X207700000Y-43950000D02*
X208170000Y-43950000D01*
X205250000Y-46400000D02*
X207700000Y-43950000D01*
X202660000Y-45230000D02*
X204080000Y-45230000D01*
X223935000Y-45045000D02*
X225090000Y-43890000D01*
X179050000Y-38982600D02*
X179050000Y-37850000D01*
X186761000Y-34089000D02*
X183950000Y-36900000D01*
X180000000Y-36900000D02*
X179050000Y-37850000D01*
X179050000Y-38900000D02*
X179150000Y-38800000D01*
X175099222Y-46500778D02*
X175099222Y-45762500D01*
X183950000Y-36900000D02*
X180000000Y-36900000D01*
X186761000Y-32750000D02*
X186761000Y-34089000D01*
X173850000Y-47750000D02*
X175099222Y-46500778D01*
G04 #@! TA.AperFunction,Conductor*
G36*
X174199614Y-44986664D02*
G01*
X174234165Y-45001247D01*
X174248286Y-45035990D01*
X174233935Y-45070311D01*
X174160438Y-45143808D01*
X174160435Y-45143813D01*
X174109134Y-45248750D01*
X174109134Y-45248751D01*
X174099846Y-45312499D01*
X174099847Y-45312500D01*
X176098596Y-45312500D01*
X176098597Y-45312498D01*
X176089310Y-45248751D01*
X176089310Y-45248750D01*
X176038009Y-45143813D01*
X176038006Y-45143809D01*
X175976587Y-45082390D01*
X175962235Y-45047742D01*
X175976587Y-45013094D01*
X176011235Y-44998742D01*
X176011355Y-44998742D01*
X176194505Y-44999963D01*
X176205353Y-45001254D01*
X176729093Y-45124006D01*
X176757683Y-45143092D01*
X176803376Y-45206599D01*
X176897440Y-45267892D01*
X176897442Y-45267893D01*
X176897444Y-45267894D01*
X176915543Y-45275390D01*
X176932088Y-45282244D01*
X176938641Y-45284870D01*
X177049000Y-45305500D01*
X177049002Y-45305500D01*
X177497803Y-45305500D01*
X177508982Y-45306792D01*
X182562181Y-46491136D01*
X182592641Y-46513015D01*
X182600000Y-46538843D01*
X182600000Y-49251000D01*
X182585648Y-49285648D01*
X182551000Y-49300000D01*
X176619242Y-49300000D01*
X176585900Y-49286907D01*
X175442308Y-48225000D01*
X176950001Y-48225000D01*
X176950001Y-48959845D01*
X176955802Y-48989018D01*
X176955804Y-48989022D01*
X176977904Y-49022097D01*
X177010980Y-49044197D01*
X177040154Y-49049999D01*
X179150000Y-49049999D01*
X179150000Y-48225000D01*
X180050000Y-48225000D01*
X180050000Y-49049999D01*
X182159845Y-49049999D01*
X182159845Y-49049998D01*
X182189018Y-49044197D01*
X182189022Y-49044195D01*
X182222097Y-49022095D01*
X182244197Y-48989019D01*
X182250000Y-48959845D01*
X182250000Y-48225000D01*
X180050000Y-48225000D01*
X179150000Y-48225000D01*
X176950001Y-48225000D01*
X175442308Y-48225000D01*
X174473077Y-47325000D01*
X176950000Y-47325000D01*
X179150000Y-47325000D01*
X179150000Y-46500000D01*
X180050000Y-46500000D01*
X180050000Y-47325000D01*
X182249999Y-47325000D01*
X182249999Y-46590155D01*
X182249998Y-46590154D01*
X182244197Y-46560981D01*
X182244195Y-46560977D01*
X182222095Y-46527902D01*
X182189019Y-46505802D01*
X182159846Y-46500000D01*
X180050000Y-46500000D01*
X179150000Y-46500000D01*
X177040155Y-46500000D01*
X177040154Y-46500001D01*
X177010981Y-46505802D01*
X177010977Y-46505804D01*
X176977902Y-46527904D01*
X176955802Y-46560980D01*
X176950000Y-46590154D01*
X176950000Y-47325000D01*
X174473077Y-47325000D01*
X173800000Y-46700000D01*
X173800001Y-46700000D01*
X172781298Y-46681134D01*
X172747557Y-46666790D01*
X172464352Y-46383585D01*
X172450000Y-46348937D01*
X172450000Y-46212501D01*
X174099846Y-46212501D01*
X174109133Y-46276248D01*
X174109133Y-46276249D01*
X174160434Y-46381186D01*
X174160437Y-46381190D01*
X174243031Y-46463784D01*
X174243035Y-46463786D01*
X174347973Y-46515087D01*
X174416001Y-46524999D01*
X174649221Y-46524999D01*
X174649222Y-46524998D01*
X174649222Y-46212500D01*
X175549222Y-46212500D01*
X175549222Y-46524999D01*
X175782443Y-46524999D01*
X175850470Y-46515088D01*
X175850471Y-46515088D01*
X175955408Y-46463787D01*
X175955412Y-46463784D01*
X176038006Y-46381190D01*
X176038008Y-46381186D01*
X176089309Y-46276249D01*
X176089309Y-46276248D01*
X176098597Y-46212500D01*
X175549222Y-46212500D01*
X174649222Y-46212500D01*
X174099848Y-46212500D01*
X174099846Y-46212501D01*
X172450000Y-46212501D01*
X172450000Y-45024327D01*
X172464352Y-44989679D01*
X172499000Y-44975327D01*
X172499092Y-44975327D01*
X174199614Y-44986664D01*
G37*
G04 #@! TD.AperFunction*
G04 #@! TA.AperFunction,Conductor*
G36*
X173678610Y-39604938D02*
G01*
X173694454Y-39638931D01*
X173694500Y-39641059D01*
X173694500Y-39676006D01*
X173701480Y-39740927D01*
X173701483Y-39740950D01*
X173712682Y-39792431D01*
X173712688Y-39792453D01*
X173723646Y-39830661D01*
X173723647Y-39830662D01*
X173780317Y-39927560D01*
X173780322Y-39927567D01*
X173780325Y-39927571D01*
X173826080Y-39980375D01*
X173826083Y-39980378D01*
X173826089Y-39980384D01*
X173870808Y-40022549D01*
X173870811Y-40022551D01*
X173870813Y-40022553D01*
X173920002Y-40047564D01*
X173970888Y-40073439D01*
X174004408Y-40083281D01*
X174037928Y-40093124D01*
X174097173Y-40101642D01*
X174129425Y-40120778D01*
X174138700Y-40157116D01*
X174134220Y-40171663D01*
X174109913Y-40221383D01*
X174109912Y-40221387D01*
X174100624Y-40285135D01*
X174100625Y-40285136D01*
X176099374Y-40285136D01*
X176099375Y-40285134D01*
X176090088Y-40221387D01*
X176090088Y-40221386D01*
X176067910Y-40176021D01*
X176065586Y-40138590D01*
X176090410Y-40110479D01*
X176111931Y-40105500D01*
X176671075Y-40105500D01*
X176705506Y-40101642D01*
X176738668Y-40097927D01*
X176738672Y-40097926D01*
X176792174Y-40085787D01*
X176792177Y-40085786D01*
X176792179Y-40085785D01*
X176792185Y-40085784D01*
X176832847Y-40073531D01*
X176928734Y-40015131D01*
X176980713Y-39968441D01*
X176986911Y-39961627D01*
X177020842Y-39945655D01*
X177023157Y-39945600D01*
X177354256Y-39945600D01*
X177354266Y-39945600D01*
X177384699Y-39942746D01*
X177512882Y-39897893D01*
X177595903Y-39836620D01*
X177632303Y-39827593D01*
X177654096Y-39836620D01*
X177737118Y-39897893D01*
X177737121Y-39897894D01*
X177737123Y-39897895D01*
X177821930Y-39927570D01*
X177865301Y-39942746D01*
X177895734Y-39945600D01*
X177895744Y-39945600D01*
X178304256Y-39945600D01*
X178304266Y-39945600D01*
X178334699Y-39942746D01*
X178462882Y-39897893D01*
X178545903Y-39836620D01*
X178582303Y-39827593D01*
X178604096Y-39836620D01*
X178687118Y-39897893D01*
X178749010Y-39919549D01*
X178776972Y-39944538D01*
X178779076Y-39981982D01*
X178767473Y-40000447D01*
X178596259Y-40171663D01*
X178539711Y-40228211D01*
X178473421Y-40294500D01*
X178457045Y-40310876D01*
X178422396Y-40325227D01*
X178406214Y-40322477D01*
X178334698Y-40297453D01*
X178304275Y-40294600D01*
X178304266Y-40294600D01*
X177895734Y-40294600D01*
X177895724Y-40294600D01*
X177865301Y-40297453D01*
X177865300Y-40297453D01*
X177737123Y-40342304D01*
X177737114Y-40342308D01*
X177627849Y-40422949D01*
X177547209Y-40532214D01*
X177547208Y-40532215D01*
X177546147Y-40535248D01*
X177521155Y-40563210D01*
X177483711Y-40565312D01*
X177472674Y-40559804D01*
X177450000Y-40544653D01*
X177450000Y-40760598D01*
X177449166Y-40769601D01*
X177445000Y-40791889D01*
X177445000Y-41508600D01*
X177430648Y-41543248D01*
X177396000Y-41557600D01*
X176750000Y-41557600D01*
X176750000Y-41794729D01*
X176764503Y-41867642D01*
X176819759Y-41950340D01*
X176829230Y-41956668D01*
X176850065Y-41987850D01*
X176842749Y-42024633D01*
X176839026Y-42029513D01*
X176817832Y-42053951D01*
X176813279Y-42059324D01*
X176813277Y-42059327D01*
X176758809Y-42157496D01*
X176758807Y-42157501D01*
X176712691Y-42295846D01*
X176700963Y-42343495D01*
X176700961Y-42343507D01*
X176698448Y-42358993D01*
X176698444Y-42359024D01*
X176694501Y-42407925D01*
X176694500Y-42407955D01*
X176694500Y-43351000D01*
X176680148Y-43385648D01*
X176645500Y-43400000D01*
X176012493Y-43400000D01*
X175977845Y-43385648D01*
X175963493Y-43351000D01*
X175977845Y-43316352D01*
X176038006Y-43256190D01*
X176038008Y-43256186D01*
X176089309Y-43151249D01*
X176089309Y-43151248D01*
X176098597Y-43087500D01*
X174099848Y-43087500D01*
X174099846Y-43087501D01*
X174109133Y-43151248D01*
X174109133Y-43151249D01*
X174160434Y-43256186D01*
X174160437Y-43256190D01*
X174220599Y-43316352D01*
X174234951Y-43351000D01*
X174220599Y-43385648D01*
X174185951Y-43400000D01*
X171649000Y-43400000D01*
X171614352Y-43385648D01*
X171600000Y-43351000D01*
X171600000Y-42187499D01*
X174099846Y-42187499D01*
X174099847Y-42187500D01*
X174649222Y-42187500D01*
X174649222Y-41875000D01*
X175549222Y-41875000D01*
X175549222Y-42187500D01*
X176098596Y-42187500D01*
X176098597Y-42187498D01*
X176089310Y-42123751D01*
X176089310Y-42123750D01*
X176038009Y-42018813D01*
X176038006Y-42018809D01*
X175955412Y-41936215D01*
X175955408Y-41936213D01*
X175850470Y-41884912D01*
X175782443Y-41875000D01*
X175549222Y-41875000D01*
X174649222Y-41875000D01*
X174416000Y-41875000D01*
X174347973Y-41884911D01*
X174347972Y-41884911D01*
X174243035Y-41936212D01*
X174243031Y-41936215D01*
X174160437Y-42018809D01*
X174160435Y-42018813D01*
X174109134Y-42123750D01*
X174109134Y-42123751D01*
X174099846Y-42187499D01*
X171600000Y-42187499D01*
X171600000Y-41819060D01*
X171612879Y-41785950D01*
X171835356Y-41543248D01*
X172163624Y-41185137D01*
X174100624Y-41185137D01*
X174109911Y-41248884D01*
X174109911Y-41248885D01*
X174161212Y-41353822D01*
X174161215Y-41353826D01*
X174243809Y-41436420D01*
X174243813Y-41436422D01*
X174348751Y-41487723D01*
X174416779Y-41497635D01*
X174649999Y-41497635D01*
X174650000Y-41497634D01*
X174650000Y-41185136D01*
X175550000Y-41185136D01*
X175550000Y-41497635D01*
X175783221Y-41497635D01*
X175851248Y-41487724D01*
X175851249Y-41487724D01*
X175956186Y-41436423D01*
X175956190Y-41436420D01*
X176038784Y-41353826D01*
X176038786Y-41353822D01*
X176090087Y-41248885D01*
X176090087Y-41248884D01*
X176099375Y-41185136D01*
X175550000Y-41185136D01*
X174650000Y-41185136D01*
X174100626Y-41185136D01*
X174100624Y-41185137D01*
X172163624Y-41185137D01*
X172372199Y-40957600D01*
X176750000Y-40957600D01*
X176850000Y-40957600D01*
X176850000Y-40544653D01*
X176819759Y-40564859D01*
X176764503Y-40647557D01*
X176750000Y-40720470D01*
X176750000Y-40957600D01*
X172372199Y-40957600D01*
X173609380Y-39607948D01*
X173643372Y-39592105D01*
X173678610Y-39604938D01*
G37*
G04 #@! TD.AperFunction*
G04 #@! TA.AperFunction,Conductor*
G36*
X171950353Y-91237483D02*
G01*
X171958760Y-91245152D01*
X172463181Y-91749573D01*
X172496666Y-91810896D01*
X172499500Y-91837254D01*
X172499500Y-94732691D01*
X172479815Y-94799730D01*
X172463181Y-94820372D01*
X171607577Y-95675974D01*
X171594641Y-95644742D01*
X171512563Y-95521903D01*
X171408097Y-95417437D01*
X171285258Y-95335359D01*
X171254024Y-95322421D01*
X172156562Y-94419883D01*
X172156561Y-94419882D01*
X172014046Y-94313196D01*
X172014038Y-94313191D01*
X171762957Y-94176091D01*
X171762958Y-94176091D01*
X171577390Y-94106878D01*
X171521457Y-94065006D01*
X171497040Y-93999542D01*
X171511892Y-93931269D01*
X171561297Y-93881864D01*
X171564391Y-93880230D01*
X171585405Y-93869524D01*
X171744646Y-93753828D01*
X171883828Y-93614646D01*
X171999524Y-93455405D01*
X172088884Y-93280025D01*
X172149709Y-93092826D01*
X172160445Y-93025041D01*
X172180500Y-92898422D01*
X172180500Y-92701577D01*
X172149709Y-92507173D01*
X172114641Y-92399247D01*
X172088884Y-92319975D01*
X172088882Y-92319972D01*
X172088882Y-92319970D01*
X171999523Y-92144594D01*
X171883828Y-91985354D01*
X171744646Y-91846172D01*
X171585405Y-91730476D01*
X171562474Y-91718792D01*
X171410029Y-91641117D01*
X171396354Y-91636674D01*
X171379870Y-91631318D01*
X171322197Y-91591881D01*
X171294999Y-91527522D01*
X171306914Y-91458676D01*
X171354159Y-91407200D01*
X171381637Y-91394898D01*
X171589641Y-91330738D01*
X171817281Y-91221112D01*
X171886218Y-91209761D01*
X171950353Y-91237483D01*
G37*
G04 #@! TD.AperFunction*
G04 #@! TA.AperFunction,Conductor*
G36*
X212532539Y-61219685D02*
G01*
X212578294Y-61272489D01*
X212589500Y-61324000D01*
X212589500Y-62270612D01*
X212569815Y-62337651D01*
X212553181Y-62358293D01*
X211363544Y-63547929D01*
X211302221Y-63581414D01*
X211253079Y-63582137D01*
X211178406Y-63568179D01*
X211131976Y-63559500D01*
X210928024Y-63559500D01*
X210727544Y-63596976D01*
X210727541Y-63596976D01*
X210727541Y-63596977D01*
X210537364Y-63670651D01*
X210537357Y-63670655D01*
X210363960Y-63778017D01*
X210363958Y-63778019D01*
X210213237Y-63915418D01*
X210090327Y-64078178D01*
X209999422Y-64260739D01*
X209999417Y-64260752D01*
X209943602Y-64456917D01*
X209924785Y-64659999D01*
X209924785Y-64660000D01*
X209943602Y-64863082D01*
X209999417Y-65059247D01*
X209999422Y-65059260D01*
X210090327Y-65241821D01*
X210213237Y-65404581D01*
X210363958Y-65541980D01*
X210363960Y-65541982D01*
X210402780Y-65566018D01*
X210537363Y-65649348D01*
X210727544Y-65723024D01*
X210928024Y-65760500D01*
X210928026Y-65760500D01*
X211131974Y-65760500D01*
X211131976Y-65760500D01*
X211332456Y-65723024D01*
X211522637Y-65649348D01*
X211696041Y-65541981D01*
X211835125Y-65415189D01*
X211846762Y-65404581D01*
X211846764Y-65404579D01*
X211969673Y-65241821D01*
X212060582Y-65059250D01*
X212116397Y-64863083D01*
X212135215Y-64660000D01*
X212116397Y-64456917D01*
X212113128Y-64445428D01*
X212113712Y-64375562D01*
X212144710Y-64323812D01*
X213580510Y-62888014D01*
X213652984Y-62762485D01*
X213690500Y-62622474D01*
X213690500Y-62477526D01*
X213690500Y-61324000D01*
X213710185Y-61256961D01*
X213762989Y-61211206D01*
X213814500Y-61200000D01*
X225345328Y-61200000D01*
X225412367Y-61219685D01*
X225436874Y-61240363D01*
X228852644Y-64979245D01*
X230547534Y-66834463D01*
X230578218Y-66897234D01*
X230579986Y-66918134D01*
X230579888Y-67269752D01*
X230560185Y-67336786D01*
X230507368Y-67382526D01*
X230462378Y-67393547D01*
X230272855Y-67403480D01*
X229889818Y-67464147D01*
X229889811Y-67464148D01*
X229515205Y-67564523D01*
X229153147Y-67703505D01*
X228807598Y-67879571D01*
X228482348Y-68090792D01*
X228224790Y-68299356D01*
X228224790Y-68299357D01*
X229719443Y-69794009D01*
X229617812Y-69867849D01*
X229439730Y-70045931D01*
X229365890Y-70147561D01*
X227871238Y-68652909D01*
X227871237Y-68652909D01*
X227662673Y-68910467D01*
X227451452Y-69235717D01*
X227275386Y-69581266D01*
X227136404Y-69943324D01*
X227036029Y-70317930D01*
X227036028Y-70317937D01*
X226975361Y-70700973D01*
X226955064Y-71088260D01*
X226955064Y-71088261D01*
X226975361Y-71475548D01*
X227036028Y-71858584D01*
X227036029Y-71858591D01*
X227136404Y-72233197D01*
X227275386Y-72595255D01*
X227451452Y-72940804D01*
X227662673Y-73266054D01*
X227871237Y-73523611D01*
X227871238Y-73523611D01*
X229365890Y-72028959D01*
X229439730Y-72130591D01*
X229617812Y-72308673D01*
X229719441Y-72382511D01*
X228224790Y-73877164D01*
X228224791Y-73877165D01*
X228482348Y-74085729D01*
X228807598Y-74296950D01*
X229153147Y-74473016D01*
X229515205Y-74611998D01*
X229889811Y-74712373D01*
X229889818Y-74712374D01*
X230272854Y-74773041D01*
X230460263Y-74782863D01*
X230526181Y-74806029D01*
X230569110Y-74861155D01*
X230577774Y-74906727D01*
X230572119Y-95332947D01*
X230552416Y-95399981D01*
X230499599Y-95445722D01*
X230430438Y-95455646D01*
X230366890Y-95426603D01*
X230331937Y-95376246D01*
X230253910Y-95167046D01*
X230253908Y-95167042D01*
X230116808Y-94915961D01*
X230116807Y-94915960D01*
X230010115Y-94773436D01*
X229107577Y-95675973D01*
X229094641Y-95644742D01*
X229012563Y-95521903D01*
X228908097Y-95417437D01*
X228785258Y-95335359D01*
X228754024Y-95322421D01*
X229656562Y-94419883D01*
X229656561Y-94419882D01*
X229514046Y-94313196D01*
X229514038Y-94313191D01*
X229262957Y-94176091D01*
X229262958Y-94176091D01*
X229077390Y-94106878D01*
X229021457Y-94065006D01*
X228997040Y-93999542D01*
X229011892Y-93931269D01*
X229061297Y-93881864D01*
X229064391Y-93880230D01*
X229085405Y-93869524D01*
X229244646Y-93753828D01*
X229383828Y-93614646D01*
X229499524Y-93455405D01*
X229588884Y-93280025D01*
X229649709Y-93092826D01*
X229660445Y-93025041D01*
X229680500Y-92898422D01*
X229680500Y-92701577D01*
X229649709Y-92507173D01*
X229614641Y-92399247D01*
X229588884Y-92319975D01*
X229588882Y-92319972D01*
X229588882Y-92319970D01*
X229499523Y-92144594D01*
X229383828Y-91985354D01*
X229244646Y-91846172D01*
X229085405Y-91730476D01*
X229062474Y-91718792D01*
X228910029Y-91641117D01*
X228896354Y-91636674D01*
X228879870Y-91631318D01*
X228822197Y-91591881D01*
X228794999Y-91527522D01*
X228806914Y-91458676D01*
X228854159Y-91407200D01*
X228881637Y-91394898D01*
X229089641Y-91330738D01*
X229283287Y-91237483D01*
X229332767Y-91213655D01*
X229332767Y-91213654D01*
X229332775Y-91213651D01*
X229555741Y-91061635D01*
X229753561Y-90878085D01*
X229921815Y-90667102D01*
X230056743Y-90433398D01*
X230155334Y-90182195D01*
X230215383Y-89919103D01*
X230235549Y-89650000D01*
X230215383Y-89380897D01*
X230155334Y-89117805D01*
X230056743Y-88866602D01*
X229921815Y-88632898D01*
X229753561Y-88421915D01*
X229753560Y-88421914D01*
X229753557Y-88421910D01*
X229555741Y-88238365D01*
X229500202Y-88200499D01*
X229332775Y-88086349D01*
X229332769Y-88086346D01*
X229332768Y-88086345D01*
X229332767Y-88086344D01*
X229089643Y-87969263D01*
X229089645Y-87969263D01*
X228831773Y-87889720D01*
X228831767Y-87889718D01*
X228564936Y-87849500D01*
X228564929Y-87849500D01*
X228295071Y-87849500D01*
X228295063Y-87849500D01*
X228028232Y-87889718D01*
X228028226Y-87889720D01*
X227770358Y-87969262D01*
X227527230Y-88086346D01*
X227304258Y-88238365D01*
X227106442Y-88421910D01*
X226938185Y-88632898D01*
X226803258Y-88866599D01*
X226803256Y-88866603D01*
X226742737Y-89020803D01*
X226699921Y-89076016D01*
X226634051Y-89099317D01*
X226627309Y-89099500D01*
X218802691Y-89099500D01*
X218735652Y-89079815D01*
X218689897Y-89027011D01*
X218687263Y-89020803D01*
X218658255Y-88946892D01*
X218626743Y-88866602D01*
X218491815Y-88632898D01*
X218323561Y-88421915D01*
X218323560Y-88421914D01*
X218323557Y-88421910D01*
X218125741Y-88238365D01*
X218070202Y-88200499D01*
X217902775Y-88086349D01*
X217902769Y-88086346D01*
X217902768Y-88086345D01*
X217902767Y-88086344D01*
X217659643Y-87969263D01*
X217659645Y-87969263D01*
X217401773Y-87889720D01*
X217401767Y-87889718D01*
X217134936Y-87849500D01*
X217134929Y-87849500D01*
X216865071Y-87849500D01*
X216865063Y-87849500D01*
X216598232Y-87889718D01*
X216598226Y-87889720D01*
X216340358Y-87969262D01*
X216097230Y-88086346D01*
X215874258Y-88238365D01*
X215676442Y-88421910D01*
X215508185Y-88632898D01*
X215373258Y-88866599D01*
X215373256Y-88866603D01*
X215274666Y-89117804D01*
X215274664Y-89117811D01*
X215214616Y-89380898D01*
X215194451Y-89649995D01*
X215194451Y-89650004D01*
X215214616Y-89919100D01*
X215238379Y-90023211D01*
X215234106Y-90092950D01*
X215205169Y-90138485D01*
X213571115Y-91772539D01*
X213509792Y-91806024D01*
X213440100Y-91801040D01*
X213384167Y-91759168D01*
X213364168Y-91718792D01*
X213342067Y-91641117D01*
X213330582Y-91600750D01*
X213313492Y-91566429D01*
X213247285Y-91433467D01*
X213239673Y-91418179D01*
X213116764Y-91255421D01*
X213116762Y-91255418D01*
X212966041Y-91118019D01*
X212966039Y-91118017D01*
X212792642Y-91010655D01*
X212792635Y-91010651D01*
X212697546Y-90973814D01*
X212602456Y-90936976D01*
X212475001Y-90913150D01*
X212435155Y-90905702D01*
X212372874Y-90874033D01*
X212337601Y-90813721D01*
X212340535Y-90743913D01*
X212370257Y-90696134D01*
X216501649Y-86564741D01*
X224549500Y-86564741D01*
X224574446Y-86754215D01*
X224579452Y-86792238D01*
X224579453Y-86792240D01*
X224638842Y-87013887D01*
X224726650Y-87225876D01*
X224726657Y-87225890D01*
X224841392Y-87424617D01*
X224981081Y-87606661D01*
X224981089Y-87606670D01*
X225143330Y-87768911D01*
X225143338Y-87768918D01*
X225143339Y-87768919D01*
X225193962Y-87807764D01*
X225325382Y-87908607D01*
X225325385Y-87908608D01*
X225325388Y-87908611D01*
X225524112Y-88023344D01*
X225524117Y-88023346D01*
X225524123Y-88023349D01*
X225615480Y-88061190D01*
X225736113Y-88111158D01*
X225957762Y-88170548D01*
X226185266Y-88200500D01*
X226185273Y-88200500D01*
X226414727Y-88200500D01*
X226414734Y-88200500D01*
X226642238Y-88170548D01*
X226863887Y-88111158D01*
X227075888Y-88023344D01*
X227274612Y-87908611D01*
X227456661Y-87768919D01*
X227456665Y-87768914D01*
X227456670Y-87768911D01*
X227618911Y-87606670D01*
X227618914Y-87606665D01*
X227618919Y-87606661D01*
X227758611Y-87424612D01*
X227873344Y-87225888D01*
X227961158Y-87013887D01*
X228020548Y-86792238D01*
X228050500Y-86564734D01*
X228050500Y-86335266D01*
X228020548Y-86107762D01*
X227961158Y-85886113D01*
X227888520Y-85710750D01*
X227873349Y-85674123D01*
X227873346Y-85674117D01*
X227873344Y-85674112D01*
X227758611Y-85475388D01*
X227758608Y-85475385D01*
X227758607Y-85475382D01*
X227618918Y-85293338D01*
X227618911Y-85293330D01*
X227456670Y-85131089D01*
X227456661Y-85131081D01*
X227274619Y-84991393D01*
X227075890Y-84876657D01*
X227075876Y-84876650D01*
X226863887Y-84788842D01*
X226841461Y-84782833D01*
X226642238Y-84729452D01*
X226604215Y-84724446D01*
X226414741Y-84699500D01*
X226414734Y-84699500D01*
X226185266Y-84699500D01*
X226185258Y-84699500D01*
X225968715Y-84728009D01*
X225957762Y-84729452D01*
X225864076Y-84754554D01*
X225736112Y-84788842D01*
X225524123Y-84876650D01*
X225524109Y-84876657D01*
X225325382Y-84991392D01*
X225143338Y-85131081D01*
X224981081Y-85293338D01*
X224841392Y-85475382D01*
X224726657Y-85674109D01*
X224726650Y-85674123D01*
X224638842Y-85886112D01*
X224617990Y-85963934D01*
X224579452Y-86107762D01*
X224579157Y-86110000D01*
X224549500Y-86335258D01*
X224549500Y-86564741D01*
X216501649Y-86564741D01*
X217235703Y-85830687D01*
X217235708Y-85830684D01*
X217245911Y-85820480D01*
X217245913Y-85820480D01*
X217320480Y-85745913D01*
X217373207Y-85654587D01*
X217392662Y-85581981D01*
X217400501Y-85552727D01*
X217400501Y-85447273D01*
X217400501Y-85439678D01*
X217400500Y-85439660D01*
X217400500Y-85152188D01*
X217420185Y-85085149D01*
X217472989Y-85039394D01*
X217487941Y-85033700D01*
X217659641Y-84980738D01*
X217902775Y-84863651D01*
X218125741Y-84711635D01*
X218323561Y-84528085D01*
X218491815Y-84317102D01*
X218626743Y-84083398D01*
X218687263Y-83929196D01*
X218730079Y-83873984D01*
X218795949Y-83850683D01*
X218802691Y-83850500D01*
X226627309Y-83850500D01*
X226694348Y-83870185D01*
X226740103Y-83922989D01*
X226742733Y-83929188D01*
X226803257Y-84083398D01*
X226938185Y-84317102D01*
X226945487Y-84326258D01*
X227106442Y-84528089D01*
X227222567Y-84635836D01*
X227304259Y-84711635D01*
X227408688Y-84782833D01*
X227411099Y-84785774D01*
X227419385Y-84790126D01*
X227527226Y-84863651D01*
X227770359Y-84980738D01*
X228028228Y-85060280D01*
X228028229Y-85060280D01*
X228028232Y-85060281D01*
X228295063Y-85100499D01*
X228295068Y-85100499D01*
X228295071Y-85100500D01*
X228295072Y-85100500D01*
X228564928Y-85100500D01*
X228564929Y-85100500D01*
X228573156Y-85099260D01*
X228831767Y-85060281D01*
X228831768Y-85060280D01*
X228831772Y-85060280D01*
X229089641Y-84980738D01*
X229332775Y-84863651D01*
X229555741Y-84711635D01*
X229753561Y-84528085D01*
X229921815Y-84317102D01*
X230056743Y-84083398D01*
X230155334Y-83832195D01*
X230215383Y-83569103D01*
X230235549Y-83300000D01*
X230215383Y-83030897D01*
X230155334Y-82767805D01*
X230056743Y-82516602D01*
X229921815Y-82282898D01*
X229753561Y-82071915D01*
X229753560Y-82071914D01*
X229753557Y-82071910D01*
X229555741Y-81888365D01*
X229332775Y-81736349D01*
X229332769Y-81736346D01*
X229332768Y-81736345D01*
X229332767Y-81736344D01*
X229089643Y-81619263D01*
X229089645Y-81619263D01*
X228831773Y-81539720D01*
X228831767Y-81539718D01*
X228564936Y-81499500D01*
X228564929Y-81499500D01*
X228295071Y-81499500D01*
X228295063Y-81499500D01*
X228028232Y-81539718D01*
X228028226Y-81539720D01*
X227770358Y-81619262D01*
X227527230Y-81736346D01*
X227304258Y-81888365D01*
X227106442Y-82071910D01*
X226938185Y-82282898D01*
X226803258Y-82516599D01*
X226803256Y-82516603D01*
X226742737Y-82670803D01*
X226699921Y-82726016D01*
X226634051Y-82749317D01*
X226627309Y-82749500D01*
X218802691Y-82749500D01*
X218735652Y-82729815D01*
X218689897Y-82677011D01*
X218687263Y-82670803D01*
X218626743Y-82516603D01*
X218626741Y-82516599D01*
X218491815Y-82282898D01*
X218323561Y-82071915D01*
X218323560Y-82071914D01*
X218323557Y-82071910D01*
X218125741Y-81888365D01*
X217902775Y-81736349D01*
X217902769Y-81736346D01*
X217902768Y-81736345D01*
X217902767Y-81736344D01*
X217659643Y-81619263D01*
X217659645Y-81619263D01*
X217401773Y-81539720D01*
X217401767Y-81539718D01*
X217134936Y-81499500D01*
X217134929Y-81499500D01*
X216865071Y-81499500D01*
X216865063Y-81499500D01*
X216598232Y-81539718D01*
X216598226Y-81539720D01*
X216340358Y-81619262D01*
X216097230Y-81736346D01*
X215874258Y-81888365D01*
X215676442Y-82071910D01*
X215508185Y-82282898D01*
X215373258Y-82516599D01*
X215373256Y-82516603D01*
X215274666Y-82767804D01*
X215274664Y-82767811D01*
X215214616Y-83030898D01*
X215194451Y-83299995D01*
X215194451Y-83300004D01*
X215214616Y-83569101D01*
X215271430Y-83818017D01*
X215274666Y-83832195D01*
X215373257Y-84083398D01*
X215508185Y-84317102D01*
X215515487Y-84326258D01*
X215676442Y-84528089D01*
X215834775Y-84674999D01*
X215874259Y-84711635D01*
X216097226Y-84863651D01*
X216340359Y-84980738D01*
X216512051Y-85033698D01*
X216570309Y-85072267D01*
X216598466Y-85136212D01*
X216599500Y-85152188D01*
X216599500Y-85282744D01*
X216579815Y-85349783D01*
X216563181Y-85370425D01*
X210684927Y-91248678D01*
X210623604Y-91282163D01*
X210553912Y-91277179D01*
X210513708Y-91252634D01*
X210366041Y-91118019D01*
X210366039Y-91118017D01*
X210192642Y-91010655D01*
X210192635Y-91010651D01*
X210097546Y-90973814D01*
X210002456Y-90936976D01*
X209801976Y-90899500D01*
X209598024Y-90899500D01*
X209397544Y-90936976D01*
X209397541Y-90936976D01*
X209397541Y-90936977D01*
X209207364Y-91010651D01*
X209207357Y-91010655D01*
X209033960Y-91118017D01*
X209033958Y-91118019D01*
X208883237Y-91255418D01*
X208760327Y-91418178D01*
X208669422Y-91600739D01*
X208669417Y-91600752D01*
X208613602Y-91796917D01*
X208594785Y-91999999D01*
X208594785Y-92000000D01*
X208613602Y-92203082D01*
X208669417Y-92399247D01*
X208669422Y-92399260D01*
X208760327Y-92581821D01*
X208883237Y-92744581D01*
X209033958Y-92881980D01*
X209033960Y-92881982D01*
X209060504Y-92898417D01*
X209207363Y-92989348D01*
X209220290Y-92994356D01*
X209275691Y-93036924D01*
X209299285Y-93102689D01*
X209299500Y-93109983D01*
X209299500Y-93315494D01*
X209279815Y-93382533D01*
X209240778Y-93420921D01*
X209083957Y-93518020D01*
X208933237Y-93655418D01*
X208810327Y-93818178D01*
X208719422Y-94000739D01*
X208719417Y-94000752D01*
X208663602Y-94196917D01*
X208644785Y-94399999D01*
X208644785Y-94400000D01*
X208663602Y-94603082D01*
X208719417Y-94799247D01*
X208719422Y-94799260D01*
X208810327Y-94981821D01*
X208933237Y-95144581D01*
X209083958Y-95281980D01*
X209083960Y-95281982D01*
X209166272Y-95332947D01*
X209257363Y-95389348D01*
X209447544Y-95463024D01*
X209648024Y-95500500D01*
X209648026Y-95500500D01*
X209851974Y-95500500D01*
X209851976Y-95500500D01*
X210052456Y-95463024D01*
X210242637Y-95389348D01*
X210416041Y-95281981D01*
X210544122Y-95165219D01*
X210566762Y-95144581D01*
X210566764Y-95144579D01*
X210689673Y-94981821D01*
X210780582Y-94799250D01*
X210836397Y-94603083D01*
X210855215Y-94400000D01*
X210836397Y-94196917D01*
X210786139Y-94020280D01*
X210786725Y-93950416D01*
X210817722Y-93898669D01*
X211135703Y-93580687D01*
X211135708Y-93580684D01*
X211145911Y-93570480D01*
X211145913Y-93570480D01*
X211220480Y-93495913D01*
X211273207Y-93404587D01*
X211300501Y-93302727D01*
X211300501Y-93197273D01*
X211300501Y-93189678D01*
X211300500Y-93189660D01*
X211300500Y-92858826D01*
X211320185Y-92791787D01*
X211372989Y-92746032D01*
X211442147Y-92736088D01*
X211505703Y-92765113D01*
X211508038Y-92767189D01*
X211633958Y-92881980D01*
X211633960Y-92881982D01*
X211660504Y-92898417D01*
X211807363Y-92989348D01*
X211820290Y-92994356D01*
X211875691Y-93036924D01*
X211899285Y-93102689D01*
X211899500Y-93109983D01*
X211899500Y-93270645D01*
X211879815Y-93337684D01*
X211827011Y-93383439D01*
X211820294Y-93386271D01*
X211757374Y-93410646D01*
X211757359Y-93410653D01*
X211583960Y-93518017D01*
X211583958Y-93518019D01*
X211433237Y-93655418D01*
X211310327Y-93818178D01*
X211219422Y-94000739D01*
X211219417Y-94000752D01*
X211163602Y-94196917D01*
X211144785Y-94399999D01*
X211144785Y-94400000D01*
X211163602Y-94603082D01*
X211219417Y-94799247D01*
X211219422Y-94799260D01*
X211310327Y-94981821D01*
X211433237Y-95144581D01*
X211583958Y-95281980D01*
X211583960Y-95281982D01*
X211666272Y-95332947D01*
X211757363Y-95389348D01*
X211947544Y-95463024D01*
X212148024Y-95500500D01*
X212148026Y-95500500D01*
X212351974Y-95500500D01*
X212351976Y-95500500D01*
X212552456Y-95463024D01*
X212742637Y-95389348D01*
X212916041Y-95281981D01*
X213044122Y-95165219D01*
X213066762Y-95144581D01*
X213066764Y-95144579D01*
X213189673Y-94981821D01*
X213280582Y-94799250D01*
X213336397Y-94603083D01*
X213355215Y-94400000D01*
X213336397Y-94196917D01*
X213286139Y-94020280D01*
X213286725Y-93950416D01*
X213317722Y-93898669D01*
X213920480Y-93295913D01*
X213973206Y-93204588D01*
X213973207Y-93204587D01*
X214000500Y-93102727D01*
X214000500Y-92527303D01*
X214020185Y-92460264D01*
X214036814Y-92439627D01*
X215551475Y-90924965D01*
X215612798Y-90891481D01*
X215682490Y-90896465D01*
X215723495Y-90921747D01*
X215874259Y-91061635D01*
X216097226Y-91213651D01*
X216097229Y-91213652D01*
X216097230Y-91213653D01*
X216127490Y-91228225D01*
X216340359Y-91330738D01*
X216548358Y-91394897D01*
X216606617Y-91433467D01*
X216634775Y-91497412D01*
X216623891Y-91566429D01*
X216577422Y-91618606D01*
X216550128Y-91631318D01*
X216519974Y-91641115D01*
X216344594Y-91730476D01*
X216268322Y-91785892D01*
X216185354Y-91846172D01*
X216185352Y-91846174D01*
X216185351Y-91846174D01*
X216046174Y-91985351D01*
X216046174Y-91985352D01*
X216046172Y-91985354D01*
X216035532Y-91999999D01*
X215930476Y-92144594D01*
X215841117Y-92319970D01*
X215780290Y-92507173D01*
X215749500Y-92701577D01*
X215749500Y-92898422D01*
X215780290Y-93092826D01*
X215841117Y-93280029D01*
X215930476Y-93455405D01*
X216046172Y-93614646D01*
X216185354Y-93753828D01*
X216273924Y-93818178D01*
X216344596Y-93869525D01*
X216365569Y-93880211D01*
X216416366Y-93928185D01*
X216433161Y-93996006D01*
X216410624Y-94062141D01*
X216355909Y-94105593D01*
X216352609Y-94106878D01*
X216167042Y-94176091D01*
X215915961Y-94313191D01*
X215915953Y-94313196D01*
X215773437Y-94419882D01*
X215773436Y-94419883D01*
X216675975Y-95322421D01*
X216644742Y-95335359D01*
X216521903Y-95417437D01*
X216417437Y-95521903D01*
X216335359Y-95644742D01*
X216322421Y-95675974D01*
X215419883Y-94773436D01*
X215419882Y-94773437D01*
X215313196Y-94915953D01*
X215313191Y-94915961D01*
X215176091Y-95167041D01*
X215076109Y-95435104D01*
X215015300Y-95714637D01*
X214994891Y-95999998D01*
X214994891Y-96000001D01*
X215015300Y-96285362D01*
X215076109Y-96564895D01*
X215176091Y-96832958D01*
X215313191Y-97084038D01*
X215313196Y-97084046D01*
X215419882Y-97226561D01*
X215419883Y-97226562D01*
X216322421Y-96324024D01*
X216335359Y-96355258D01*
X216417437Y-96478097D01*
X216521903Y-96582563D01*
X216644742Y-96664641D01*
X216675974Y-96677578D01*
X215773436Y-97580115D01*
X215915960Y-97686807D01*
X215915961Y-97686808D01*
X216167042Y-97823908D01*
X216167041Y-97823908D01*
X216435104Y-97923890D01*
X216714637Y-97984699D01*
X216999999Y-98005109D01*
X217000001Y-98005109D01*
X217285362Y-97984699D01*
X217564895Y-97923890D01*
X217832958Y-97823908D01*
X218084047Y-97686803D01*
X218226561Y-97580116D01*
X218226562Y-97580115D01*
X217324025Y-96677577D01*
X217355258Y-96664641D01*
X217478097Y-96582563D01*
X217582563Y-96478097D01*
X217664641Y-96355258D01*
X217677578Y-96324025D01*
X218580115Y-97226562D01*
X218580116Y-97226561D01*
X218686803Y-97084047D01*
X218823908Y-96832958D01*
X218923890Y-96564895D01*
X218984699Y-96285362D01*
X219005109Y-96000001D01*
X219005109Y-95999998D01*
X218984699Y-95714637D01*
X218923890Y-95435104D01*
X218823908Y-95167041D01*
X218686808Y-94915961D01*
X218686807Y-94915960D01*
X218580115Y-94773436D01*
X217677577Y-95675973D01*
X217664641Y-95644742D01*
X217582563Y-95521903D01*
X217478097Y-95417437D01*
X217355258Y-95335359D01*
X217324024Y-95322421D01*
X218226562Y-94419883D01*
X218226561Y-94419882D01*
X218084046Y-94313196D01*
X218084038Y-94313191D01*
X217832957Y-94176091D01*
X217832958Y-94176091D01*
X217647390Y-94106878D01*
X217591457Y-94065006D01*
X217567040Y-93999542D01*
X217581892Y-93931269D01*
X217631297Y-93881864D01*
X217634391Y-93880230D01*
X217655405Y-93869524D01*
X217814646Y-93753828D01*
X217953828Y-93614646D01*
X218069524Y-93455405D01*
X218158884Y-93280025D01*
X218219709Y-93092826D01*
X218230445Y-93025041D01*
X218250500Y-92898422D01*
X218250500Y-92701577D01*
X218219709Y-92507173D01*
X218184641Y-92399247D01*
X218158884Y-92319975D01*
X218158882Y-92319972D01*
X218158882Y-92319970D01*
X218069523Y-92144594D01*
X217953828Y-91985354D01*
X217814646Y-91846172D01*
X217655405Y-91730476D01*
X217632474Y-91718792D01*
X217480029Y-91641117D01*
X217466354Y-91636674D01*
X217449870Y-91631318D01*
X217392197Y-91591881D01*
X217364999Y-91527522D01*
X217376914Y-91458676D01*
X217424159Y-91407200D01*
X217451637Y-91394898D01*
X217659641Y-91330738D01*
X217853287Y-91237483D01*
X217902767Y-91213655D01*
X217902767Y-91213654D01*
X217902775Y-91213651D01*
X218125741Y-91061635D01*
X218323561Y-90878085D01*
X218491815Y-90667102D01*
X218626743Y-90433398D01*
X218687263Y-90279196D01*
X218730079Y-90223984D01*
X218795949Y-90200683D01*
X218802691Y-90200500D01*
X226627309Y-90200500D01*
X226694348Y-90220185D01*
X226740103Y-90272989D01*
X226742733Y-90279188D01*
X226803257Y-90433398D01*
X226938185Y-90667102D01*
X226961336Y-90696132D01*
X227106442Y-90878089D01*
X227256647Y-91017458D01*
X227304259Y-91061635D01*
X227527226Y-91213651D01*
X227527229Y-91213652D01*
X227527230Y-91213653D01*
X227557490Y-91228225D01*
X227770359Y-91330738D01*
X227978358Y-91394897D01*
X228036617Y-91433467D01*
X228064775Y-91497412D01*
X228053891Y-91566429D01*
X228007422Y-91618606D01*
X227980128Y-91631318D01*
X227949974Y-91641115D01*
X227774594Y-91730476D01*
X227698322Y-91785892D01*
X227615354Y-91846172D01*
X227615352Y-91846174D01*
X227615351Y-91846174D01*
X227476174Y-91985351D01*
X227476174Y-91985352D01*
X227476172Y-91985354D01*
X227465532Y-91999999D01*
X227360476Y-92144594D01*
X227271117Y-92319970D01*
X227210290Y-92507173D01*
X227179500Y-92701577D01*
X227179500Y-92898422D01*
X227210290Y-93092826D01*
X227271117Y-93280029D01*
X227360476Y-93455405D01*
X227476172Y-93614646D01*
X227615354Y-93753828D01*
X227703924Y-93818178D01*
X227774596Y-93869525D01*
X227795569Y-93880211D01*
X227846366Y-93928185D01*
X227863161Y-93996006D01*
X227840624Y-94062141D01*
X227785909Y-94105593D01*
X227782609Y-94106878D01*
X227597042Y-94176091D01*
X227345961Y-94313191D01*
X227345953Y-94313196D01*
X227203437Y-94419882D01*
X227203436Y-94419883D01*
X228105975Y-95322421D01*
X228074742Y-95335359D01*
X227951903Y-95417437D01*
X227847437Y-95521903D01*
X227765359Y-95644742D01*
X227752421Y-95675974D01*
X226849883Y-94773436D01*
X226849882Y-94773437D01*
X226743196Y-94915953D01*
X226743191Y-94915961D01*
X226606091Y-95167041D01*
X226506109Y-95435104D01*
X226445300Y-95714637D01*
X226424891Y-95999998D01*
X226424891Y-96000001D01*
X226445300Y-96285362D01*
X226506109Y-96564895D01*
X226606091Y-96832958D01*
X226743191Y-97084038D01*
X226743196Y-97084046D01*
X226849882Y-97226561D01*
X226849883Y-97226562D01*
X227752421Y-96324024D01*
X227765359Y-96355258D01*
X227847437Y-96478097D01*
X227951903Y-96582563D01*
X228074742Y-96664641D01*
X228105974Y-96677578D01*
X227203436Y-97580115D01*
X227345960Y-97686807D01*
X227345961Y-97686808D01*
X227597042Y-97823908D01*
X227597041Y-97823908D01*
X227865104Y-97923890D01*
X228144637Y-97984699D01*
X228429999Y-98005109D01*
X228430001Y-98005109D01*
X228715362Y-97984699D01*
X228994895Y-97923890D01*
X229262958Y-97823908D01*
X229514047Y-97686803D01*
X229656561Y-97580116D01*
X229656562Y-97580115D01*
X228754025Y-96677577D01*
X228785258Y-96664641D01*
X228908097Y-96582563D01*
X229012563Y-96478097D01*
X229094641Y-96355258D01*
X229107578Y-96324025D01*
X230010115Y-97226562D01*
X230010116Y-97226561D01*
X230116803Y-97084047D01*
X230253908Y-96832957D01*
X230253910Y-96832953D01*
X230331568Y-96624744D01*
X230373439Y-96568810D01*
X230438904Y-96544393D01*
X230507177Y-96559245D01*
X230556582Y-96608650D01*
X230571750Y-96668111D01*
X230570034Y-102865681D01*
X230550331Y-102932715D01*
X230497514Y-102978456D01*
X230445681Y-102989646D01*
X214165196Y-102943351D01*
X214098213Y-102923476D01*
X214052609Y-102870543D01*
X214042862Y-102801356D01*
X214066283Y-102745040D01*
X214143352Y-102642089D01*
X214143354Y-102642086D01*
X214193596Y-102507379D01*
X214193598Y-102507372D01*
X214199999Y-102447844D01*
X214200000Y-102447827D01*
X214200000Y-100650000D01*
X212669863Y-100650000D01*
X212700000Y-100498491D01*
X212700000Y-100301509D01*
X212669863Y-100150000D01*
X214200000Y-100150000D01*
X214200000Y-98352172D01*
X214199999Y-98352155D01*
X214193598Y-98292627D01*
X214193596Y-98292620D01*
X214143354Y-98157913D01*
X214143350Y-98157906D01*
X214057190Y-98042812D01*
X214057187Y-98042809D01*
X213942093Y-97956649D01*
X213942086Y-97956645D01*
X213807379Y-97906403D01*
X213807372Y-97906401D01*
X213747844Y-97900000D01*
X211950000Y-97900000D01*
X211950000Y-99430136D01*
X211798491Y-99400000D01*
X211601509Y-99400000D01*
X211450000Y-99430136D01*
X211450000Y-97900000D01*
X209652155Y-97900000D01*
X209592627Y-97906401D01*
X209592620Y-97906403D01*
X209457913Y-97956645D01*
X209457906Y-97956649D01*
X209342812Y-98042809D01*
X209342809Y-98042812D01*
X209256649Y-98157906D01*
X209256645Y-98157913D01*
X209206403Y-98292620D01*
X209206401Y-98292627D01*
X209200000Y-98352155D01*
X209200000Y-100150000D01*
X210730137Y-100150000D01*
X210700000Y-100301509D01*
X210700000Y-100498491D01*
X210730137Y-100650000D01*
X209200000Y-100650000D01*
X209200000Y-102447844D01*
X209206401Y-102507372D01*
X209206403Y-102507379D01*
X209256645Y-102642086D01*
X209256649Y-102642093D01*
X209323197Y-102730989D01*
X209347615Y-102796453D01*
X209332764Y-102864726D01*
X209283359Y-102914132D01*
X209223578Y-102929299D01*
X156843516Y-102780351D01*
X156776533Y-102760476D01*
X156730929Y-102707543D01*
X156719869Y-102656487D01*
X156712857Y-96000001D01*
X157494891Y-96000001D01*
X157515300Y-96285362D01*
X157576109Y-96564895D01*
X157676091Y-96832958D01*
X157813191Y-97084038D01*
X157813196Y-97084046D01*
X157919882Y-97226561D01*
X157919883Y-97226562D01*
X158822421Y-96324024D01*
X158835359Y-96355258D01*
X158917437Y-96478097D01*
X159021903Y-96582563D01*
X159144742Y-96664641D01*
X159175974Y-96677578D01*
X158273436Y-97580115D01*
X158415960Y-97686807D01*
X158415961Y-97686808D01*
X158667042Y-97823908D01*
X158667041Y-97823908D01*
X158935104Y-97923890D01*
X159214637Y-97984699D01*
X159499999Y-98005109D01*
X159500001Y-98005109D01*
X159785362Y-97984699D01*
X160064895Y-97923890D01*
X160332958Y-97823908D01*
X160584047Y-97686803D01*
X160726561Y-97580116D01*
X160726562Y-97580115D01*
X159824025Y-96677577D01*
X159855258Y-96664641D01*
X159978097Y-96582563D01*
X160082563Y-96478097D01*
X160164641Y-96355258D01*
X160177578Y-96324025D01*
X161080115Y-97226562D01*
X161080116Y-97226561D01*
X161186803Y-97084047D01*
X161323908Y-96832958D01*
X161423890Y-96564895D01*
X161484699Y-96285362D01*
X161505109Y-96000001D01*
X161505109Y-95999998D01*
X161484699Y-95714637D01*
X161423890Y-95435104D01*
X161323908Y-95167041D01*
X161186808Y-94915961D01*
X161186807Y-94915960D01*
X161080115Y-94773436D01*
X160177577Y-95675973D01*
X160164641Y-95644742D01*
X160082563Y-95521903D01*
X159978097Y-95417437D01*
X159855258Y-95335359D01*
X159824024Y-95322421D01*
X160726562Y-94419883D01*
X160726561Y-94419882D01*
X160584046Y-94313196D01*
X160584038Y-94313191D01*
X160332957Y-94176091D01*
X160332958Y-94176091D01*
X160147390Y-94106878D01*
X160091457Y-94065006D01*
X160067040Y-93999542D01*
X160081892Y-93931269D01*
X160131297Y-93881864D01*
X160134391Y-93880230D01*
X160155405Y-93869524D01*
X160314646Y-93753828D01*
X160453828Y-93614646D01*
X160569524Y-93455405D01*
X160658884Y-93280025D01*
X160719709Y-93092826D01*
X160730445Y-93025041D01*
X160750500Y-92898422D01*
X160750500Y-92701577D01*
X160719709Y-92507173D01*
X160684641Y-92399247D01*
X160658884Y-92319975D01*
X160658882Y-92319972D01*
X160658882Y-92319970D01*
X160569523Y-92144594D01*
X160453828Y-91985354D01*
X160314646Y-91846172D01*
X160155405Y-91730476D01*
X160132474Y-91718792D01*
X159980029Y-91641117D01*
X159966354Y-91636674D01*
X159949870Y-91631318D01*
X159892197Y-91591881D01*
X159864999Y-91527522D01*
X159876914Y-91458676D01*
X159924159Y-91407200D01*
X159951637Y-91394898D01*
X160159641Y-91330738D01*
X160353287Y-91237483D01*
X160402767Y-91213655D01*
X160402767Y-91213654D01*
X160402775Y-91213651D01*
X160625741Y-91061635D01*
X160823561Y-90878085D01*
X160991815Y-90667102D01*
X161126743Y-90433398D01*
X161225334Y-90182195D01*
X161233389Y-90146906D01*
X161267498Y-90085928D01*
X161329160Y-90053071D01*
X161354280Y-90050500D01*
X169075720Y-90050500D01*
X169142759Y-90070185D01*
X169188514Y-90122989D01*
X169196611Y-90146906D01*
X169204664Y-90182190D01*
X169204666Y-90182195D01*
X169303257Y-90433398D01*
X169438185Y-90667102D01*
X169461336Y-90696132D01*
X169606442Y-90878089D01*
X169756647Y-91017458D01*
X169804259Y-91061635D01*
X170027226Y-91213651D01*
X170027229Y-91213652D01*
X170027230Y-91213653D01*
X170057490Y-91228225D01*
X170270359Y-91330738D01*
X170478358Y-91394897D01*
X170536617Y-91433467D01*
X170564775Y-91497412D01*
X170553891Y-91566429D01*
X170507422Y-91618606D01*
X170480128Y-91631318D01*
X170449974Y-91641115D01*
X170274594Y-91730476D01*
X170198322Y-91785892D01*
X170115354Y-91846172D01*
X170115352Y-91846174D01*
X170115351Y-91846174D01*
X169976174Y-91985351D01*
X169976174Y-91985352D01*
X169976172Y-91985354D01*
X169965532Y-91999999D01*
X169860476Y-92144594D01*
X169771117Y-92319970D01*
X169710290Y-92507173D01*
X169679500Y-92701577D01*
X169679500Y-92898422D01*
X169710290Y-93092826D01*
X169771117Y-93280029D01*
X169860476Y-93455405D01*
X169976172Y-93614646D01*
X170115354Y-93753828D01*
X170203924Y-93818178D01*
X170274596Y-93869525D01*
X170295569Y-93880211D01*
X170346366Y-93928185D01*
X170363161Y-93996006D01*
X170340624Y-94062141D01*
X170285909Y-94105593D01*
X170282609Y-94106878D01*
X170097042Y-94176091D01*
X169845961Y-94313191D01*
X169845953Y-94313196D01*
X169703437Y-94419882D01*
X169703436Y-94419883D01*
X170605975Y-95322421D01*
X170574742Y-95335359D01*
X170451903Y-95417437D01*
X170347437Y-95521903D01*
X170265359Y-95644742D01*
X170252421Y-95675974D01*
X169349883Y-94773436D01*
X169349882Y-94773437D01*
X169243196Y-94915953D01*
X169243191Y-94915961D01*
X169106091Y-95167041D01*
X169006109Y-95435104D01*
X168945300Y-95714637D01*
X168924891Y-95999998D01*
X168924891Y-96000001D01*
X168945300Y-96285362D01*
X169006109Y-96564895D01*
X169106091Y-96832958D01*
X169243191Y-97084038D01*
X169243196Y-97084046D01*
X169349882Y-97226561D01*
X169349883Y-97226562D01*
X170252421Y-96324024D01*
X170265359Y-96355258D01*
X170347437Y-96478097D01*
X170451903Y-96582563D01*
X170574742Y-96664641D01*
X170605974Y-96677578D01*
X169703436Y-97580115D01*
X169845960Y-97686807D01*
X169845961Y-97686808D01*
X170097042Y-97823908D01*
X170097041Y-97823908D01*
X170365104Y-97923890D01*
X170644637Y-97984699D01*
X170929999Y-98005109D01*
X170930001Y-98005109D01*
X171215362Y-97984699D01*
X171494895Y-97923890D01*
X171762958Y-97823908D01*
X172014047Y-97686803D01*
X172156561Y-97580116D01*
X172156562Y-97580115D01*
X171254025Y-96677577D01*
X171285258Y-96664641D01*
X171408097Y-96582563D01*
X171512563Y-96478097D01*
X171594641Y-96355258D01*
X171607577Y-96324025D01*
X172510115Y-97226562D01*
X172510116Y-97226561D01*
X172616803Y-97084047D01*
X172753908Y-96832958D01*
X172853890Y-96564895D01*
X172914699Y-96285362D01*
X172935109Y-96000001D01*
X172935109Y-95999998D01*
X172920426Y-95794711D01*
X172935278Y-95726438D01*
X172984683Y-95677033D01*
X173052956Y-95662181D01*
X173118420Y-95686598D01*
X173131791Y-95698184D01*
X174465179Y-97031571D01*
X174465189Y-97031582D01*
X174469519Y-97035912D01*
X174469520Y-97035913D01*
X174544087Y-97110480D01*
X174635413Y-97163207D01*
X174737273Y-97190501D01*
X174737275Y-97190501D01*
X174850323Y-97190501D01*
X174850339Y-97190500D01*
X176792725Y-97190500D01*
X176792727Y-97190500D01*
X176894588Y-97163207D01*
X176985913Y-97110480D01*
X177290456Y-96805935D01*
X177351776Y-96772453D01*
X177421467Y-96777437D01*
X177422927Y-96777992D01*
X177487538Y-96803022D01*
X177487539Y-96803022D01*
X177487544Y-96803024D01*
X177688024Y-96840500D01*
X177688026Y-96840500D01*
X177891974Y-96840500D01*
X177891976Y-96840500D01*
X178092456Y-96803024D01*
X178282637Y-96729348D01*
X178456041Y-96621981D01*
X178606764Y-96484579D01*
X178729673Y-96321821D01*
X178820582Y-96139250D01*
X178876397Y-95943083D01*
X178895215Y-95740000D01*
X178876397Y-95536917D01*
X178820582Y-95340750D01*
X178729673Y-95158179D01*
X178655545Y-95060017D01*
X178630854Y-94994658D01*
X178630500Y-94985292D01*
X178630500Y-94429983D01*
X178650185Y-94362944D01*
X178702989Y-94317189D01*
X178709682Y-94314366D01*
X178722637Y-94309348D01*
X178896041Y-94201981D01*
X179046764Y-94064579D01*
X179169673Y-93901821D01*
X179260582Y-93719250D01*
X179316397Y-93523083D01*
X179335215Y-93320000D01*
X179334797Y-93315494D01*
X179316397Y-93116917D01*
X179293637Y-93036924D01*
X179260582Y-92920750D01*
X179241277Y-92881981D01*
X179196366Y-92791787D01*
X179169673Y-92738179D01*
X179046764Y-92575421D01*
X179046762Y-92575418D01*
X178896041Y-92438019D01*
X178896039Y-92438017D01*
X178722642Y-92330655D01*
X178722635Y-92330651D01*
X178584082Y-92276976D01*
X178532456Y-92256976D01*
X178331976Y-92219500D01*
X178128024Y-92219500D01*
X177927544Y-92256976D01*
X177927541Y-92256976D01*
X177927541Y-92256977D01*
X177737364Y-92330651D01*
X177737357Y-92330655D01*
X177563960Y-92438017D01*
X177563958Y-92438019D01*
X177413237Y-92575418D01*
X177290327Y-92738178D01*
X177199422Y-92920739D01*
X177199417Y-92920752D01*
X177143602Y-93116917D01*
X177124785Y-93319999D01*
X177124785Y-93320000D01*
X177143602Y-93523082D01*
X177199417Y-93719247D01*
X177199422Y-93719260D01*
X177290327Y-93901821D01*
X177413237Y-94064581D01*
X177563958Y-94201980D01*
X177563960Y-94201982D01*
X177663141Y-94263392D01*
X177737363Y-94309348D01*
X177750290Y-94314356D01*
X177805691Y-94356924D01*
X177829285Y-94422689D01*
X177829500Y-94429983D01*
X177829500Y-94515500D01*
X177809815Y-94582539D01*
X177757011Y-94628294D01*
X177705500Y-94639500D01*
X177688024Y-94639500D01*
X177487544Y-94676976D01*
X177487541Y-94676976D01*
X177487541Y-94676977D01*
X177297364Y-94750651D01*
X177297357Y-94750655D01*
X177123960Y-94858017D01*
X177123958Y-94858019D01*
X176973237Y-94995418D01*
X176850327Y-95158178D01*
X176759422Y-95340739D01*
X176759417Y-95340752D01*
X176703602Y-95536917D01*
X176684785Y-95739999D01*
X176684785Y-95740000D01*
X176703602Y-95943082D01*
X176703603Y-95943085D01*
X176753859Y-96119716D01*
X176753272Y-96189583D01*
X176722275Y-96241330D01*
X176610427Y-96353180D01*
X176549104Y-96386666D01*
X176522745Y-96389500D01*
X176396240Y-96389500D01*
X176329201Y-96369815D01*
X176283446Y-96317011D01*
X176273502Y-96247853D01*
X176285240Y-96210229D01*
X176320575Y-96139265D01*
X176320576Y-96139260D01*
X176320582Y-96139250D01*
X176376397Y-95943083D01*
X176395215Y-95740000D01*
X176376397Y-95536917D01*
X176320582Y-95340750D01*
X176229673Y-95158179D01*
X176106764Y-94995421D01*
X176106762Y-94995418D01*
X175956041Y-94858019D01*
X175956039Y-94858017D01*
X175782642Y-94750655D01*
X175782635Y-94750651D01*
X175592454Y-94676975D01*
X175521714Y-94663751D01*
X175459433Y-94632083D01*
X175424161Y-94571770D01*
X175420500Y-94541863D01*
X175420500Y-94449983D01*
X175440185Y-94382944D01*
X175492989Y-94337189D01*
X175499682Y-94334366D01*
X175512637Y-94329348D01*
X175686041Y-94221981D01*
X175836764Y-94084579D01*
X175959673Y-93921821D01*
X176050582Y-93739250D01*
X176106397Y-93543083D01*
X176125215Y-93340000D01*
X176121129Y-93295909D01*
X176106397Y-93136917D01*
X176100706Y-93116917D01*
X176050582Y-92940750D01*
X176040624Y-92920752D01*
X176006272Y-92851764D01*
X175959673Y-92758179D01*
X175836764Y-92595421D01*
X175836762Y-92595418D01*
X175686041Y-92458019D01*
X175686039Y-92458017D01*
X175512642Y-92350655D01*
X175512635Y-92350651D01*
X175417546Y-92313814D01*
X175322456Y-92276976D01*
X175121976Y-92239500D01*
X174918024Y-92239500D01*
X174717544Y-92276976D01*
X174717541Y-92276976D01*
X174717541Y-92276977D01*
X174527364Y-92350651D01*
X174527357Y-92350655D01*
X174353960Y-92458017D01*
X174353958Y-92458019D01*
X174203237Y-92595419D01*
X174093454Y-92740795D01*
X174037345Y-92782431D01*
X173967633Y-92787122D01*
X173906451Y-92753380D01*
X173873224Y-92691917D01*
X173870500Y-92666068D01*
X173870500Y-89013931D01*
X173890185Y-88946892D01*
X173942989Y-88901137D01*
X174012147Y-88891193D01*
X174075703Y-88920218D01*
X174093454Y-88939204D01*
X174203237Y-89084581D01*
X174353958Y-89221980D01*
X174353960Y-89221982D01*
X174453141Y-89283392D01*
X174527363Y-89329348D01*
X174717544Y-89403024D01*
X174918024Y-89440500D01*
X174918026Y-89440500D01*
X175121974Y-89440500D01*
X175121976Y-89440500D01*
X175322456Y-89403024D01*
X175512637Y-89329348D01*
X175686041Y-89221981D01*
X175836764Y-89084579D01*
X175959673Y-88921821D01*
X176050582Y-88739250D01*
X176106397Y-88543083D01*
X176125215Y-88340000D01*
X176106397Y-88136917D01*
X176050582Y-87940750D01*
X176040624Y-87920752D01*
X176005145Y-87849500D01*
X175959673Y-87758179D01*
X175836764Y-87595421D01*
X175836762Y-87595418D01*
X175686042Y-87458020D01*
X175686041Y-87458019D01*
X175584222Y-87394975D01*
X175537587Y-87342947D01*
X175525500Y-87289548D01*
X175525500Y-87209555D01*
X175545185Y-87142516D01*
X175588555Y-87103645D01*
X175587763Y-87102366D01*
X175657434Y-87059227D01*
X175766041Y-86991981D01*
X175916764Y-86854579D01*
X176039673Y-86691821D01*
X176130582Y-86509250D01*
X176186397Y-86313083D01*
X176205215Y-86110000D01*
X177094785Y-86110000D01*
X177113602Y-86313082D01*
X177169417Y-86509247D01*
X177169422Y-86509260D01*
X177260327Y-86691821D01*
X177383237Y-86854581D01*
X177533958Y-86991980D01*
X177533960Y-86991982D01*
X177712237Y-87102366D01*
X177711375Y-87103756D01*
X177756998Y-87146041D01*
X177774500Y-87209555D01*
X177774500Y-87238590D01*
X177754815Y-87305629D01*
X177715777Y-87344017D01*
X177563960Y-87438017D01*
X177563958Y-87438019D01*
X177413237Y-87575418D01*
X177290327Y-87738178D01*
X177199422Y-87920739D01*
X177199417Y-87920752D01*
X177143602Y-88116917D01*
X177124785Y-88319999D01*
X177124785Y-88320000D01*
X177143602Y-88523082D01*
X177199417Y-88719247D01*
X177199422Y-88719260D01*
X177290327Y-88901821D01*
X177413237Y-89064581D01*
X177563958Y-89201980D01*
X177563960Y-89201982D01*
X177640705Y-89249500D01*
X177737363Y-89309348D01*
X177927544Y-89383024D01*
X178128024Y-89420500D01*
X178128026Y-89420500D01*
X178331974Y-89420500D01*
X178331976Y-89420500D01*
X178532456Y-89383024D01*
X178722637Y-89309348D01*
X178896041Y-89201981D01*
X179046764Y-89064579D01*
X179169673Y-88901821D01*
X179260582Y-88719250D01*
X179316397Y-88523083D01*
X179335215Y-88320000D01*
X179316397Y-88116917D01*
X179260582Y-87920750D01*
X179241277Y-87881981D01*
X179216272Y-87831764D01*
X179169673Y-87738179D01*
X179046764Y-87575421D01*
X179046762Y-87575418D01*
X178896041Y-87438019D01*
X178896039Y-87438017D01*
X178722640Y-87330653D01*
X178722625Y-87330646D01*
X178706371Y-87324349D01*
X178650971Y-87281775D01*
X178627382Y-87216008D01*
X178643095Y-87147928D01*
X178688538Y-87103617D01*
X178687763Y-87102366D01*
X178757434Y-87059227D01*
X178866041Y-86991981D01*
X179016764Y-86854579D01*
X179139673Y-86691821D01*
X179230582Y-86509250D01*
X179286397Y-86313083D01*
X179305215Y-86110000D01*
X179295611Y-86006359D01*
X179286397Y-85906917D01*
X179264709Y-85830692D01*
X179230582Y-85710750D01*
X179227238Y-85704035D01*
X179168563Y-85586198D01*
X179139673Y-85528179D01*
X179016764Y-85365421D01*
X179016762Y-85365418D01*
X178866041Y-85228019D01*
X178866039Y-85228017D01*
X178692642Y-85120655D01*
X178692635Y-85120651D01*
X178597546Y-85083814D01*
X178502456Y-85046976D01*
X178301976Y-85009500D01*
X178098024Y-85009500D01*
X177897544Y-85046976D01*
X177897541Y-85046976D01*
X177897541Y-85046977D01*
X177707364Y-85120651D01*
X177707357Y-85120655D01*
X177533960Y-85228017D01*
X177533958Y-85228019D01*
X177383237Y-85365418D01*
X177260327Y-85528178D01*
X177169422Y-85710739D01*
X177169417Y-85710752D01*
X177113602Y-85906917D01*
X177094785Y-86109999D01*
X177094785Y-86110000D01*
X176205215Y-86110000D01*
X176195611Y-86006359D01*
X176186397Y-85906917D01*
X176164709Y-85830692D01*
X176130582Y-85710750D01*
X176127238Y-85704035D01*
X176068563Y-85586198D01*
X176039673Y-85528179D01*
X175916764Y-85365421D01*
X175916762Y-85365418D01*
X175766041Y-85228019D01*
X175766039Y-85228017D01*
X175592642Y-85120655D01*
X175592635Y-85120651D01*
X175497546Y-85083814D01*
X175402456Y-85046976D01*
X175201976Y-85009500D01*
X174998024Y-85009500D01*
X174797544Y-85046976D01*
X174797541Y-85046976D01*
X174797541Y-85046977D01*
X174607364Y-85120651D01*
X174607357Y-85120655D01*
X174433960Y-85228017D01*
X174433958Y-85228019D01*
X174283237Y-85365418D01*
X174160327Y-85528178D01*
X174072760Y-85704035D01*
X174025257Y-85755272D01*
X173957594Y-85772693D01*
X173891254Y-85750767D01*
X173847299Y-85696456D01*
X173845073Y-85689920D01*
X173843208Y-85685418D01*
X173843207Y-85685413D01*
X173790480Y-85594087D01*
X173715913Y-85519520D01*
X172896393Y-84700000D01*
X208419785Y-84700000D01*
X208438602Y-84903082D01*
X208494417Y-85099247D01*
X208494422Y-85099260D01*
X208585327Y-85281821D01*
X208708237Y-85444581D01*
X208858958Y-85581980D01*
X208858957Y-85581980D01*
X208878511Y-85594087D01*
X209032363Y-85689348D01*
X209195294Y-85752467D01*
X209250695Y-85795040D01*
X209274286Y-85860807D01*
X209274500Y-85868094D01*
X209274500Y-85900444D01*
X209254815Y-85967483D01*
X209211447Y-86006359D01*
X209212237Y-86007634D01*
X209033960Y-86118017D01*
X209033958Y-86118019D01*
X208883237Y-86255418D01*
X208760327Y-86418178D01*
X208669422Y-86600739D01*
X208669417Y-86600752D01*
X208613602Y-86796917D01*
X208594785Y-86999999D01*
X208594785Y-87000000D01*
X208613602Y-87203082D01*
X208669417Y-87399247D01*
X208669422Y-87399260D01*
X208760327Y-87581821D01*
X208883237Y-87744581D01*
X209033958Y-87881980D01*
X209033960Y-87881982D01*
X209076968Y-87908611D01*
X209207363Y-87989348D01*
X209397544Y-88063024D01*
X209598024Y-88100500D01*
X209598026Y-88100500D01*
X209801974Y-88100500D01*
X209801976Y-88100500D01*
X210002456Y-88063024D01*
X210192637Y-87989348D01*
X210366041Y-87881981D01*
X210494122Y-87765219D01*
X210516762Y-87744581D01*
X210516764Y-87744579D01*
X210639673Y-87581821D01*
X210730582Y-87399250D01*
X210786397Y-87203083D01*
X210805215Y-87000000D01*
X211194785Y-87000000D01*
X211213602Y-87203082D01*
X211269417Y-87399247D01*
X211269422Y-87399260D01*
X211360327Y-87581821D01*
X211483237Y-87744581D01*
X211633958Y-87881980D01*
X211633960Y-87881982D01*
X211676968Y-87908611D01*
X211807363Y-87989348D01*
X211997544Y-88063024D01*
X212198024Y-88100500D01*
X212198026Y-88100500D01*
X212401974Y-88100500D01*
X212401976Y-88100500D01*
X212602456Y-88063024D01*
X212792637Y-87989348D01*
X212966041Y-87881981D01*
X213094122Y-87765219D01*
X213116762Y-87744581D01*
X213116764Y-87744579D01*
X213239673Y-87581821D01*
X213330582Y-87399250D01*
X213386397Y-87203083D01*
X213405215Y-87000000D01*
X213386397Y-86796917D01*
X213330582Y-86600750D01*
X213321103Y-86581714D01*
X213285019Y-86509247D01*
X213239673Y-86418179D01*
X213116764Y-86255421D01*
X213116762Y-86255418D01*
X212966041Y-86118019D01*
X212966039Y-86118017D01*
X212787763Y-86007634D01*
X212788620Y-86006248D01*
X212742987Y-85963934D01*
X212725500Y-85900444D01*
X212725500Y-85888090D01*
X212745185Y-85821051D01*
X212797989Y-85775296D01*
X212826708Y-85766203D01*
X212977456Y-85738024D01*
X213167637Y-85664348D01*
X213341041Y-85556981D01*
X213491764Y-85419579D01*
X213614673Y-85256821D01*
X213705582Y-85074250D01*
X213761397Y-84878083D01*
X213780215Y-84675000D01*
X213761397Y-84471917D01*
X213705582Y-84275750D01*
X213614673Y-84093179D01*
X213491764Y-83930421D01*
X213491762Y-83930418D01*
X213341041Y-83793019D01*
X213341039Y-83793017D01*
X213167642Y-83685655D01*
X213167635Y-83685651D01*
X213041989Y-83636976D01*
X212977456Y-83611976D01*
X212776976Y-83574500D01*
X212573024Y-83574500D01*
X212372544Y-83611976D01*
X212372541Y-83611976D01*
X212372541Y-83611977D01*
X212182364Y-83685651D01*
X212182357Y-83685655D01*
X212008960Y-83793017D01*
X212008958Y-83793019D01*
X211858237Y-83930418D01*
X211735327Y-84093178D01*
X211644422Y-84275739D01*
X211644417Y-84275752D01*
X211588602Y-84471917D01*
X211569785Y-84674999D01*
X211569785Y-84675000D01*
X211588602Y-84878082D01*
X211644417Y-85074247D01*
X211644422Y-85074260D01*
X211672716Y-85131081D01*
X211735327Y-85256821D01*
X211849454Y-85407950D01*
X211874146Y-85473310D01*
X211874500Y-85482676D01*
X211874500Y-85900444D01*
X211854815Y-85967483D01*
X211811447Y-86006359D01*
X211812237Y-86007634D01*
X211633960Y-86118017D01*
X211633958Y-86118019D01*
X211483237Y-86255418D01*
X211360327Y-86418178D01*
X211269422Y-86600739D01*
X211269417Y-86600752D01*
X211213602Y-86796917D01*
X211194785Y-86999999D01*
X211194785Y-87000000D01*
X210805215Y-87000000D01*
X210786397Y-86796917D01*
X210730582Y-86600750D01*
X210721103Y-86581714D01*
X210685019Y-86509247D01*
X210639673Y-86418179D01*
X210516764Y-86255421D01*
X210516762Y-86255418D01*
X210366041Y-86118019D01*
X210366039Y-86118017D01*
X210187763Y-86007634D01*
X210188620Y-86006248D01*
X210142987Y-85963934D01*
X210125500Y-85900444D01*
X210125500Y-85691629D01*
X210145185Y-85624590D01*
X210184226Y-85586200D01*
X210191041Y-85581981D01*
X210341764Y-85444579D01*
X210464673Y-85281821D01*
X210555582Y-85099250D01*
X210611397Y-84903083D01*
X210630215Y-84700000D01*
X210627898Y-84675000D01*
X210611397Y-84496917D01*
X210604284Y-84471917D01*
X210555582Y-84300750D01*
X210537748Y-84264935D01*
X210493751Y-84176576D01*
X210464673Y-84118179D01*
X210341764Y-83955421D01*
X210341762Y-83955418D01*
X210191041Y-83818019D01*
X210191039Y-83818017D01*
X210017642Y-83710655D01*
X210017635Y-83710651D01*
X209922546Y-83673814D01*
X209827456Y-83636976D01*
X209626976Y-83599500D01*
X209423024Y-83599500D01*
X209222544Y-83636976D01*
X209222541Y-83636976D01*
X209222541Y-83636977D01*
X209032364Y-83710651D01*
X209032357Y-83710655D01*
X208858960Y-83818017D01*
X208858958Y-83818019D01*
X208708237Y-83955418D01*
X208585327Y-84118178D01*
X208494422Y-84300739D01*
X208494417Y-84300752D01*
X208438602Y-84496917D01*
X208419785Y-84699999D01*
X208419785Y-84700000D01*
X172896393Y-84700000D01*
X172522651Y-84326258D01*
X172489166Y-84264935D01*
X172494150Y-84195243D01*
X172502935Y-84176595D01*
X172556743Y-84083398D01*
X172655334Y-83832195D01*
X172715383Y-83569103D01*
X172735549Y-83300000D01*
X172715383Y-83030897D01*
X172655334Y-82767805D01*
X172556743Y-82516602D01*
X172421815Y-82282898D01*
X172253561Y-82071915D01*
X172253560Y-82071914D01*
X172253557Y-82071910D01*
X172055741Y-81888365D01*
X171832775Y-81736349D01*
X171832769Y-81736346D01*
X171832768Y-81736345D01*
X171832767Y-81736344D01*
X171589643Y-81619263D01*
X171589645Y-81619263D01*
X171331773Y-81539720D01*
X171331767Y-81539718D01*
X171064936Y-81499500D01*
X171064929Y-81499500D01*
X170795071Y-81499500D01*
X170795063Y-81499500D01*
X170528232Y-81539718D01*
X170528226Y-81539720D01*
X170270358Y-81619262D01*
X170027230Y-81736346D01*
X169804258Y-81888365D01*
X169606442Y-82071910D01*
X169438185Y-82282898D01*
X169303258Y-82516599D01*
X169303256Y-82516603D01*
X169204666Y-82767804D01*
X169204664Y-82767809D01*
X169196611Y-82803094D01*
X169162502Y-82864072D01*
X169100840Y-82896929D01*
X169075720Y-82899500D01*
X161354280Y-82899500D01*
X161287241Y-82879815D01*
X161241486Y-82827011D01*
X161233389Y-82803094D01*
X161225335Y-82767809D01*
X161225334Y-82767808D01*
X161225334Y-82767805D01*
X161126743Y-82516602D01*
X160991815Y-82282898D01*
X160823561Y-82071915D01*
X160823560Y-82071914D01*
X160823557Y-82071910D01*
X160625741Y-81888365D01*
X160402775Y-81736349D01*
X160402769Y-81736346D01*
X160402768Y-81736345D01*
X160402767Y-81736344D01*
X160159643Y-81619263D01*
X160159645Y-81619263D01*
X159901773Y-81539720D01*
X159901767Y-81539718D01*
X159634936Y-81499500D01*
X159634929Y-81499500D01*
X159365071Y-81499500D01*
X159365063Y-81499500D01*
X159098232Y-81539718D01*
X159098226Y-81539720D01*
X158840358Y-81619262D01*
X158597230Y-81736346D01*
X158374258Y-81888365D01*
X158176442Y-82071910D01*
X158008185Y-82282898D01*
X157873258Y-82516599D01*
X157873256Y-82516603D01*
X157774666Y-82767804D01*
X157774664Y-82767811D01*
X157714616Y-83030898D01*
X157694451Y-83299995D01*
X157694451Y-83300004D01*
X157714616Y-83569101D01*
X157771430Y-83818017D01*
X157774666Y-83832195D01*
X157873257Y-84083398D01*
X158008185Y-84317102D01*
X158015487Y-84326258D01*
X158176442Y-84528089D01*
X158334775Y-84674999D01*
X158374259Y-84711635D01*
X158597226Y-84863651D01*
X158840359Y-84980738D01*
X159098228Y-85060280D01*
X159098229Y-85060280D01*
X159098232Y-85060281D01*
X159365063Y-85100499D01*
X159365068Y-85100499D01*
X159365071Y-85100500D01*
X159365072Y-85100500D01*
X159634928Y-85100500D01*
X159634929Y-85100500D01*
X159643156Y-85099260D01*
X159901767Y-85060281D01*
X159901768Y-85060280D01*
X159901772Y-85060280D01*
X160159641Y-84980738D01*
X160402775Y-84863651D01*
X160625741Y-84711635D01*
X160823561Y-84528085D01*
X160991815Y-84317102D01*
X161126743Y-84083398D01*
X161225334Y-83832195D01*
X161233389Y-83796906D01*
X161267498Y-83735928D01*
X161329160Y-83703071D01*
X161354280Y-83700500D01*
X169075720Y-83700500D01*
X169142759Y-83720185D01*
X169188514Y-83772989D01*
X169196611Y-83796906D01*
X169204664Y-83832190D01*
X169204666Y-83832195D01*
X169303257Y-84083398D01*
X169438185Y-84317102D01*
X169445487Y-84326258D01*
X169606442Y-84528089D01*
X169722567Y-84635836D01*
X169804259Y-84711635D01*
X169908688Y-84782833D01*
X169911099Y-84785774D01*
X169919385Y-84790126D01*
X170027226Y-84863651D01*
X170270359Y-84980738D01*
X170528228Y-85060280D01*
X170528229Y-85060280D01*
X170528232Y-85060281D01*
X170795063Y-85100499D01*
X170795068Y-85100499D01*
X170795071Y-85100500D01*
X170795072Y-85100500D01*
X171064928Y-85100500D01*
X171064929Y-85100500D01*
X171073156Y-85099260D01*
X171331767Y-85060281D01*
X171331768Y-85060280D01*
X171331772Y-85060280D01*
X171589641Y-84980738D01*
X171817278Y-84871113D01*
X171886219Y-84859762D01*
X171950353Y-84887484D01*
X171958760Y-84895153D01*
X173033181Y-85969574D01*
X173066666Y-86030897D01*
X173069500Y-86057255D01*
X173069500Y-90923745D01*
X173049815Y-90990784D01*
X172997011Y-91036539D01*
X172927853Y-91046483D01*
X172864297Y-91017458D01*
X172857819Y-91011426D01*
X172522651Y-90676259D01*
X172489166Y-90614936D01*
X172494150Y-90545245D01*
X172502940Y-90526585D01*
X172556743Y-90433398D01*
X172655334Y-90182195D01*
X172715383Y-89919103D01*
X172735549Y-89650000D01*
X172715383Y-89380897D01*
X172655334Y-89117805D01*
X172556743Y-88866602D01*
X172421815Y-88632898D01*
X172253561Y-88421915D01*
X172253560Y-88421914D01*
X172253557Y-88421910D01*
X172055741Y-88238365D01*
X172000202Y-88200499D01*
X171832775Y-88086349D01*
X171832769Y-88086346D01*
X171832768Y-88086345D01*
X171832767Y-88086344D01*
X171589643Y-87969263D01*
X171589645Y-87969263D01*
X171331773Y-87889720D01*
X171331767Y-87889718D01*
X171064936Y-87849500D01*
X171064929Y-87849500D01*
X170795071Y-87849500D01*
X170795063Y-87849500D01*
X170528232Y-87889718D01*
X170528226Y-87889720D01*
X170270358Y-87969262D01*
X170027230Y-88086346D01*
X169804258Y-88238365D01*
X169606442Y-88421910D01*
X169438185Y-88632898D01*
X169303258Y-88866599D01*
X169303256Y-88866603D01*
X169204666Y-89117804D01*
X169204664Y-89117809D01*
X169196611Y-89153094D01*
X169162502Y-89214072D01*
X169100840Y-89246929D01*
X169075720Y-89249500D01*
X161354280Y-89249500D01*
X161287241Y-89229815D01*
X161241486Y-89177011D01*
X161233389Y-89153094D01*
X161225335Y-89117809D01*
X161225334Y-89117808D01*
X161225334Y-89117805D01*
X161126743Y-88866602D01*
X160991815Y-88632898D01*
X160823561Y-88421915D01*
X160823560Y-88421914D01*
X160823557Y-88421910D01*
X160625741Y-88238365D01*
X160570202Y-88200499D01*
X160402775Y-88086349D01*
X160402769Y-88086346D01*
X160402768Y-88086345D01*
X160402767Y-88086344D01*
X160159643Y-87969263D01*
X160159645Y-87969263D01*
X159901773Y-87889720D01*
X159901767Y-87889718D01*
X159634936Y-87849500D01*
X159634929Y-87849500D01*
X159365071Y-87849500D01*
X159365063Y-87849500D01*
X159098232Y-87889718D01*
X159098226Y-87889720D01*
X158840358Y-87969262D01*
X158597230Y-88086346D01*
X158374258Y-88238365D01*
X158176442Y-88421910D01*
X158008185Y-88632898D01*
X157873258Y-88866599D01*
X157873256Y-88866603D01*
X157774666Y-89117804D01*
X157774664Y-89117811D01*
X157714616Y-89380898D01*
X157694451Y-89649995D01*
X157694451Y-89650004D01*
X157714616Y-89919101D01*
X157774664Y-90182188D01*
X157774666Y-90182195D01*
X157873257Y-90433398D01*
X158008185Y-90667102D01*
X158031336Y-90696132D01*
X158176442Y-90878089D01*
X158326647Y-91017458D01*
X158374259Y-91061635D01*
X158597226Y-91213651D01*
X158597229Y-91213652D01*
X158597230Y-91213653D01*
X158627490Y-91228225D01*
X158840359Y-91330738D01*
X159048358Y-91394897D01*
X159106617Y-91433467D01*
X159134775Y-91497412D01*
X159123891Y-91566429D01*
X159077422Y-91618606D01*
X159050128Y-91631318D01*
X159019974Y-91641115D01*
X158844594Y-91730476D01*
X158768322Y-91785892D01*
X158685354Y-91846172D01*
X158685352Y-91846174D01*
X158685351Y-91846174D01*
X158546174Y-91985351D01*
X158546174Y-91985352D01*
X158546172Y-91985354D01*
X158535532Y-91999999D01*
X158430476Y-92144594D01*
X158341117Y-92319970D01*
X158280290Y-92507173D01*
X158249500Y-92701577D01*
X158249500Y-92898422D01*
X158280290Y-93092826D01*
X158341117Y-93280029D01*
X158430476Y-93455405D01*
X158546172Y-93614646D01*
X158685354Y-93753828D01*
X158773924Y-93818178D01*
X158844596Y-93869525D01*
X158865569Y-93880211D01*
X158916366Y-93928185D01*
X158933161Y-93996006D01*
X158910624Y-94062141D01*
X158855909Y-94105593D01*
X158852609Y-94106878D01*
X158667042Y-94176091D01*
X158415961Y-94313191D01*
X158415953Y-94313196D01*
X158273437Y-94419882D01*
X158273436Y-94419883D01*
X159175975Y-95322421D01*
X159144742Y-95335359D01*
X159021903Y-95417437D01*
X158917437Y-95521903D01*
X158835359Y-95644742D01*
X158822421Y-95675974D01*
X157919883Y-94773436D01*
X157919882Y-94773437D01*
X157813196Y-94915953D01*
X157813191Y-94915961D01*
X157676091Y-95167041D01*
X157576109Y-95435104D01*
X157515300Y-95714637D01*
X157494891Y-95999998D01*
X157494891Y-96000001D01*
X156712857Y-96000001D01*
X156702917Y-86564741D01*
X167049500Y-86564741D01*
X167074446Y-86754215D01*
X167079452Y-86792238D01*
X167079453Y-86792240D01*
X167138842Y-87013887D01*
X167226650Y-87225876D01*
X167226657Y-87225890D01*
X167341392Y-87424617D01*
X167481081Y-87606661D01*
X167481089Y-87606670D01*
X167643330Y-87768911D01*
X167643338Y-87768918D01*
X167643339Y-87768919D01*
X167693962Y-87807764D01*
X167825382Y-87908607D01*
X167825385Y-87908608D01*
X167825388Y-87908611D01*
X168024112Y-88023344D01*
X168024117Y-88023346D01*
X168024123Y-88023349D01*
X168115480Y-88061190D01*
X168236113Y-88111158D01*
X168457762Y-88170548D01*
X168685266Y-88200500D01*
X168685273Y-88200500D01*
X168914727Y-88200500D01*
X168914734Y-88200500D01*
X169142238Y-88170548D01*
X169363887Y-88111158D01*
X169575888Y-88023344D01*
X169774612Y-87908611D01*
X169956661Y-87768919D01*
X169956665Y-87768914D01*
X169956670Y-87768911D01*
X170118911Y-87606670D01*
X170118914Y-87606665D01*
X170118919Y-87606661D01*
X170258611Y-87424612D01*
X170373344Y-87225888D01*
X170461158Y-87013887D01*
X170520548Y-86792238D01*
X170550500Y-86564734D01*
X170550500Y-86335266D01*
X170520548Y-86107762D01*
X170461158Y-85886113D01*
X170388520Y-85710750D01*
X170373349Y-85674123D01*
X170373346Y-85674117D01*
X170373344Y-85674112D01*
X170258611Y-85475388D01*
X170258608Y-85475385D01*
X170258607Y-85475382D01*
X170118918Y-85293338D01*
X170118911Y-85293330D01*
X169956670Y-85131089D01*
X169956661Y-85131081D01*
X169774619Y-84991393D01*
X169575890Y-84876657D01*
X169575876Y-84876650D01*
X169363887Y-84788842D01*
X169341461Y-84782833D01*
X169142238Y-84729452D01*
X169104215Y-84724446D01*
X168914741Y-84699500D01*
X168914734Y-84699500D01*
X168685266Y-84699500D01*
X168685258Y-84699500D01*
X168468715Y-84728009D01*
X168457762Y-84729452D01*
X168364076Y-84754554D01*
X168236112Y-84788842D01*
X168024123Y-84876650D01*
X168024109Y-84876657D01*
X167825382Y-84991392D01*
X167643338Y-85131081D01*
X167481081Y-85293338D01*
X167341392Y-85475382D01*
X167226657Y-85674109D01*
X167226650Y-85674123D01*
X167138842Y-85886112D01*
X167117990Y-85963934D01*
X167079452Y-86107762D01*
X167079157Y-86110000D01*
X167049500Y-86335258D01*
X167049500Y-86564741D01*
X156702917Y-86564741D01*
X156680063Y-64870241D01*
X156699677Y-64803182D01*
X156727316Y-64772716D01*
X157834883Y-63900000D01*
X159894357Y-63900000D01*
X159914884Y-64121535D01*
X159914885Y-64121537D01*
X159975769Y-64335523D01*
X159975775Y-64335538D01*
X160074938Y-64534683D01*
X160074943Y-64534691D01*
X160209020Y-64712238D01*
X160373437Y-64862123D01*
X160373439Y-64862125D01*
X160562595Y-64979245D01*
X160562596Y-64979245D01*
X160562599Y-64979247D01*
X160770060Y-65059618D01*
X160988757Y-65100500D01*
X160988759Y-65100500D01*
X161211241Y-65100500D01*
X161211243Y-65100500D01*
X161429940Y-65059618D01*
X161637401Y-64979247D01*
X161826562Y-64862124D01*
X161990981Y-64712236D01*
X162125058Y-64534689D01*
X162224229Y-64335528D01*
X162230734Y-64312661D01*
X162268012Y-64253571D01*
X162331322Y-64224013D01*
X162400561Y-64233375D01*
X162453748Y-64278684D01*
X162469264Y-64312658D01*
X162474474Y-64330968D01*
X162475772Y-64335530D01*
X162475775Y-64335538D01*
X162574938Y-64534683D01*
X162574943Y-64534691D01*
X162709020Y-64712238D01*
X162873437Y-64862123D01*
X162873439Y-64862125D01*
X163062595Y-64979245D01*
X163062596Y-64979245D01*
X163062599Y-64979247D01*
X163270060Y-65059618D01*
X163488757Y-65100500D01*
X163488759Y-65100500D01*
X163711241Y-65100500D01*
X163711243Y-65100500D01*
X163929940Y-65059618D01*
X164137401Y-64979247D01*
X164138319Y-64978678D01*
X164138818Y-64978540D01*
X164142527Y-64976694D01*
X164142888Y-64977419D01*
X164205676Y-64960115D01*
X164272377Y-64980915D01*
X164317245Y-65034475D01*
X164326033Y-65103790D01*
X164323382Y-65116191D01*
X164294500Y-65223982D01*
X164294500Y-65928656D01*
X164274815Y-65995695D01*
X164228955Y-66038013D01*
X164161460Y-66074090D01*
X164009116Y-66199116D01*
X163884090Y-66351460D01*
X163884086Y-66351467D01*
X163791188Y-66525266D01*
X163733975Y-66713870D01*
X163714659Y-66910000D01*
X163733975Y-67106129D01*
X163733976Y-67106132D01*
X163772964Y-67234659D01*
X163791188Y-67294733D01*
X163884086Y-67468532D01*
X163884090Y-67468539D01*
X164009116Y-67620883D01*
X164161460Y-67745909D01*
X164161467Y-67745913D01*
X164335266Y-67838811D01*
X164335269Y-67838811D01*
X164335273Y-67838814D01*
X164523868Y-67896024D01*
X164720000Y-67915341D01*
X164916132Y-67896024D01*
X165104727Y-67838814D01*
X165133975Y-67823181D01*
X165278532Y-67745913D01*
X165278538Y-67745910D01*
X165430883Y-67620883D01*
X165555910Y-67468538D01*
X165635699Y-67319263D01*
X165648811Y-67294733D01*
X165648811Y-67294732D01*
X165648814Y-67294727D01*
X165706024Y-67106132D01*
X165725341Y-66910000D01*
X165706024Y-66713868D01*
X165648814Y-66525273D01*
X165648811Y-66525269D01*
X165648811Y-66525266D01*
X165555913Y-66351467D01*
X165555909Y-66351460D01*
X165430883Y-66199116D01*
X165278539Y-66074090D01*
X165211045Y-66038013D01*
X165161202Y-65989050D01*
X165145500Y-65928656D01*
X165145500Y-65507609D01*
X165165185Y-65440570D01*
X165181815Y-65419932D01*
X165548643Y-65053103D01*
X165609964Y-65019620D01*
X165679655Y-65024604D01*
X165680954Y-65025098D01*
X165770060Y-65059618D01*
X165988757Y-65100500D01*
X165988759Y-65100500D01*
X166211241Y-65100500D01*
X166211243Y-65100500D01*
X166429940Y-65059618D01*
X166637401Y-64979247D01*
X166826562Y-64862124D01*
X166990981Y-64712236D01*
X167125058Y-64534689D01*
X167224229Y-64335528D01*
X167285115Y-64121536D01*
X167305643Y-63900000D01*
X167285115Y-63678464D01*
X167224229Y-63464472D01*
X167224224Y-63464461D01*
X167125061Y-63265316D01*
X167125056Y-63265308D01*
X166990979Y-63087761D01*
X166826562Y-62937876D01*
X166826560Y-62937874D01*
X166637404Y-62820754D01*
X166637398Y-62820752D01*
X166429940Y-62740382D01*
X166211243Y-62699500D01*
X165988757Y-62699500D01*
X165770060Y-62740382D01*
X165638864Y-62791207D01*
X165562601Y-62820752D01*
X165562595Y-62820754D01*
X165373439Y-62937874D01*
X165373437Y-62937876D01*
X165209020Y-63087761D01*
X165074943Y-63265308D01*
X165074938Y-63265316D01*
X164975775Y-63464461D01*
X164975769Y-63464476D01*
X164969266Y-63487335D01*
X164931987Y-63546429D01*
X164868677Y-63575986D01*
X164799438Y-63566624D01*
X164746251Y-63521314D01*
X164730734Y-63487335D01*
X164724230Y-63464476D01*
X164724229Y-63464472D01*
X164724224Y-63464461D01*
X164625061Y-63265316D01*
X164625056Y-63265308D01*
X164490979Y-63087761D01*
X164326562Y-62937876D01*
X164326560Y-62937874D01*
X164137404Y-62820754D01*
X164137398Y-62820752D01*
X163929940Y-62740382D01*
X163711243Y-62699500D01*
X163488757Y-62699500D01*
X163270060Y-62740382D01*
X163138864Y-62791207D01*
X163062601Y-62820752D01*
X163062595Y-62820754D01*
X162873439Y-62937874D01*
X162873437Y-62937876D01*
X162709020Y-63087761D01*
X162574943Y-63265308D01*
X162574938Y-63265316D01*
X162475775Y-63464461D01*
X162475769Y-63464476D01*
X162469266Y-63487335D01*
X162431987Y-63546429D01*
X162368677Y-63575986D01*
X162299438Y-63566624D01*
X162246251Y-63521314D01*
X162230734Y-63487335D01*
X162224230Y-63464476D01*
X162224229Y-63464472D01*
X162224224Y-63464461D01*
X162125061Y-63265316D01*
X162125056Y-63265308D01*
X161990979Y-63087761D01*
X161826562Y-62937876D01*
X161826560Y-62937874D01*
X161637404Y-62820754D01*
X161637398Y-62820752D01*
X161429940Y-62740382D01*
X161211243Y-62699500D01*
X160988757Y-62699500D01*
X160770060Y-62740382D01*
X160638864Y-62791207D01*
X160562601Y-62820752D01*
X160562595Y-62820754D01*
X160373439Y-62937874D01*
X160373437Y-62937876D01*
X160209020Y-63087761D01*
X160074943Y-63265308D01*
X160074938Y-63265316D01*
X159975775Y-63464461D01*
X159975769Y-63464476D01*
X159914885Y-63678462D01*
X159914884Y-63678464D01*
X159894357Y-63899999D01*
X159894357Y-63900000D01*
X157834883Y-63900000D01*
X160465834Y-61826921D01*
X160530672Y-61800892D01*
X160543491Y-61800322D01*
X167200587Y-61849633D01*
X167267476Y-61869814D01*
X167285616Y-61884251D01*
X169811453Y-64313313D01*
X169846128Y-64373969D01*
X169849500Y-64402688D01*
X169849500Y-65260425D01*
X169829815Y-65327464D01*
X169777011Y-65373219D01*
X169725500Y-65384425D01*
X169686230Y-65384425D01*
X169531585Y-65415186D01*
X169531573Y-65415189D01*
X169385902Y-65475527D01*
X169385889Y-65475534D01*
X169254786Y-65563135D01*
X169254782Y-65563138D01*
X167435396Y-67382526D01*
X166839711Y-67978211D01*
X166807270Y-68010652D01*
X166728209Y-68089712D01*
X166640609Y-68220814D01*
X166640602Y-68220827D01*
X166580264Y-68366498D01*
X166580261Y-68366508D01*
X166558356Y-68476632D01*
X166535693Y-68527167D01*
X166410327Y-68693178D01*
X166319422Y-68875739D01*
X166319417Y-68875752D01*
X166263602Y-69071917D01*
X166244785Y-69274999D01*
X166244785Y-69275000D01*
X166263602Y-69478082D01*
X166319417Y-69674247D01*
X166319422Y-69674260D01*
X166410327Y-69856821D01*
X166533237Y-70019581D01*
X166658867Y-70134107D01*
X166675478Y-70149250D01*
X166683958Y-70156980D01*
X166683960Y-70156982D01*
X166766351Y-70207996D01*
X166857363Y-70264348D01*
X167047544Y-70338024D01*
X167248024Y-70375500D01*
X167248026Y-70375500D01*
X167451974Y-70375500D01*
X167451976Y-70375500D01*
X167652456Y-70338024D01*
X167842637Y-70264348D01*
X168016041Y-70156981D01*
X168041133Y-70134106D01*
X168103935Y-70103488D01*
X168173323Y-70111684D01*
X168212353Y-70138061D01*
X168353211Y-70278919D01*
X168412314Y-70338022D01*
X168464712Y-70390420D01*
X168595814Y-70478020D01*
X168595823Y-70478025D01*
X168736917Y-70536468D01*
X168740303Y-70537870D01*
X168741503Y-70538367D01*
X168741506Y-70538368D01*
X168804419Y-70550882D01*
X168889547Y-70567815D01*
X168951458Y-70600200D01*
X168953038Y-70601752D01*
X168981592Y-70630307D01*
X168981595Y-70630309D01*
X168981597Y-70630311D01*
X168981598Y-70630311D01*
X168989489Y-70636044D01*
X168987335Y-70639007D01*
X169024858Y-70674441D01*
X169041658Y-70742261D01*
X169019822Y-70807397D01*
X168975182Y-70872069D01*
X168914860Y-71031125D01*
X168914859Y-71031130D01*
X168894355Y-71200000D01*
X168914859Y-71368869D01*
X168914861Y-71368877D01*
X168929141Y-71406530D01*
X168934508Y-71476193D01*
X168901360Y-71537699D01*
X168840221Y-71571520D01*
X168813199Y-71574500D01*
X165706688Y-71574500D01*
X165639649Y-71554815D01*
X165597329Y-71508952D01*
X165555911Y-71431463D01*
X165555909Y-71431460D01*
X165430883Y-71279116D01*
X165278539Y-71154090D01*
X165278532Y-71154086D01*
X165104733Y-71061188D01*
X165104727Y-71061186D01*
X164916132Y-71003976D01*
X164916129Y-71003975D01*
X164720000Y-70984659D01*
X164523870Y-71003975D01*
X164335266Y-71061188D01*
X164161467Y-71154086D01*
X164161460Y-71154090D01*
X164009116Y-71279116D01*
X163884090Y-71431460D01*
X163884086Y-71431467D01*
X163791188Y-71605266D01*
X163733975Y-71793870D01*
X163714659Y-71990000D01*
X163733975Y-72186129D01*
X163733976Y-72186132D01*
X163772964Y-72314659D01*
X163791188Y-72374733D01*
X163884086Y-72548532D01*
X163884090Y-72548539D01*
X164009116Y-72700883D01*
X164161460Y-72825909D01*
X164161467Y-72825913D01*
X164335266Y-72918811D01*
X164335269Y-72918811D01*
X164335273Y-72918814D01*
X164523868Y-72976024D01*
X164720000Y-72995341D01*
X164916132Y-72976024D01*
X165104727Y-72918814D01*
X165118310Y-72911554D01*
X165251270Y-72840485D01*
X165278538Y-72825910D01*
X165430883Y-72700883D01*
X165555910Y-72548538D01*
X165586640Y-72491045D01*
X165635601Y-72441203D01*
X165695998Y-72425500D01*
X169744869Y-72425500D01*
X169811908Y-72445185D01*
X169857663Y-72497989D01*
X169867607Y-72567147D01*
X169838582Y-72630703D01*
X169820355Y-72647876D01*
X169787042Y-72673438D01*
X169784980Y-72670751D01*
X169737337Y-72696696D01*
X169711121Y-72699500D01*
X169681964Y-72699500D01*
X169681961Y-72699501D01*
X169591107Y-72713890D01*
X169588317Y-72714797D01*
X169584737Y-72714899D01*
X169581468Y-72715417D01*
X169581401Y-72714994D01*
X169518476Y-72716792D01*
X169511680Y-72714796D01*
X169508891Y-72713890D01*
X169418033Y-72699500D01*
X169181962Y-72699500D01*
X169181962Y-72699501D01*
X169091111Y-72713889D01*
X169091110Y-72713889D01*
X168981595Y-72769690D01*
X168981591Y-72769693D01*
X168894693Y-72856591D01*
X168894690Y-72856595D01*
X168894689Y-72856597D01*
X168851784Y-72940804D01*
X168838889Y-72966111D01*
X168824500Y-73056966D01*
X168824500Y-73813220D01*
X168804815Y-73880259D01*
X168752011Y-73926014D01*
X168682853Y-73935958D01*
X168619297Y-73906933D01*
X168581523Y-73848155D01*
X168580724Y-73845311D01*
X168576267Y-73828676D01*
X168576264Y-73828668D01*
X168480136Y-73622521D01*
X168480132Y-73622513D01*
X168429025Y-73549526D01*
X167750000Y-74228551D01*
X167750000Y-74222339D01*
X167722741Y-74120606D01*
X167670080Y-74029394D01*
X167595606Y-73954920D01*
X167504394Y-73902259D01*
X167402661Y-73875000D01*
X167396448Y-73875000D01*
X168075472Y-73195974D01*
X168002478Y-73144863D01*
X167796331Y-73048735D01*
X167796317Y-73048730D01*
X167576610Y-72989860D01*
X167576599Y-72989858D01*
X167350002Y-72970034D01*
X167349998Y-72970034D01*
X167123400Y-72989858D01*
X167123389Y-72989860D01*
X166903682Y-73048730D01*
X166903673Y-73048734D01*
X166697516Y-73144866D01*
X166697512Y-73144868D01*
X166624526Y-73195973D01*
X166624526Y-73195974D01*
X167303553Y-73875000D01*
X167297339Y-73875000D01*
X167195606Y-73902259D01*
X167104394Y-73954920D01*
X167029920Y-74029394D01*
X166977259Y-74120606D01*
X166950000Y-74222339D01*
X166950000Y-74228552D01*
X166270974Y-73549526D01*
X166270973Y-73549526D01*
X166219868Y-73622512D01*
X166219866Y-73622516D01*
X166123734Y-73828673D01*
X166123730Y-73828682D01*
X166064860Y-74048389D01*
X166064858Y-74048400D01*
X166045034Y-74274997D01*
X166045034Y-74275002D01*
X166064858Y-74501599D01*
X166064860Y-74501610D01*
X166123730Y-74721317D01*
X166123735Y-74721331D01*
X166219863Y-74927478D01*
X166270974Y-75000472D01*
X166950000Y-74321446D01*
X166950000Y-74327661D01*
X166977259Y-74429394D01*
X167029920Y-74520606D01*
X167104394Y-74595080D01*
X167195606Y-74647741D01*
X167297339Y-74675000D01*
X167303553Y-74675000D01*
X166624526Y-75354025D01*
X166697513Y-75405132D01*
X166697521Y-75405136D01*
X166903668Y-75501264D01*
X166903682Y-75501269D01*
X167123389Y-75560139D01*
X167123400Y-75560141D01*
X167349998Y-75579966D01*
X167350002Y-75579966D01*
X167576599Y-75560141D01*
X167576610Y-75560139D01*
X167796317Y-75501269D01*
X167796331Y-75501264D01*
X168002478Y-75405136D01*
X168075471Y-75354024D01*
X167396447Y-74675000D01*
X167402661Y-74675000D01*
X167504394Y-74647741D01*
X167595606Y-74595080D01*
X167670080Y-74520606D01*
X167722741Y-74429394D01*
X167750000Y-74327661D01*
X167750000Y-74321447D01*
X168429024Y-75000471D01*
X168480136Y-74927478D01*
X168576264Y-74721331D01*
X168576269Y-74721317D01*
X168596551Y-74645623D01*
X168632915Y-74585963D01*
X168695762Y-74555433D01*
X168765138Y-74563727D01*
X168819016Y-74608212D01*
X168835419Y-74649755D01*
X168835874Y-74649608D01*
X168838254Y-74656935D01*
X168838799Y-74658313D01*
X168838890Y-74658890D01*
X168838890Y-74658891D01*
X168838891Y-74658893D01*
X168860985Y-74702255D01*
X168873343Y-74753732D01*
X168873439Y-74753720D01*
X168873558Y-74754624D01*
X168874500Y-74758548D01*
X168874500Y-74761780D01*
X168903456Y-74869844D01*
X168903497Y-74869998D01*
X168903498Y-74870001D01*
X168904693Y-74872070D01*
X168959515Y-74967025D01*
X171953753Y-77961263D01*
X172032975Y-78040485D01*
X172130001Y-78096503D01*
X172238220Y-78125500D01*
X173895328Y-78125500D01*
X173962367Y-78145185D01*
X174008122Y-78197989D01*
X174018066Y-78267147D01*
X174014593Y-78283439D01*
X174013602Y-78286918D01*
X173994785Y-78489999D01*
X173994785Y-78490000D01*
X174013602Y-78693082D01*
X174069417Y-78889247D01*
X174069422Y-78889260D01*
X174160327Y-79071821D01*
X174283237Y-79234581D01*
X174433958Y-79371980D01*
X174433960Y-79371982D01*
X174480019Y-79400500D01*
X174607363Y-79479348D01*
X174797544Y-79553024D01*
X174998024Y-79590500D01*
X174998026Y-79590500D01*
X175201974Y-79590500D01*
X175201976Y-79590500D01*
X175402456Y-79553024D01*
X175592637Y-79479348D01*
X175766041Y-79371981D01*
X175916764Y-79234579D01*
X176039673Y-79071821D01*
X176130582Y-78889250D01*
X176186397Y-78693083D01*
X176205215Y-78490000D01*
X176186397Y-78286917D01*
X176130582Y-78090750D01*
X176119923Y-78069344D01*
X176070006Y-77969097D01*
X176039673Y-77908179D01*
X176039671Y-77908177D01*
X176037976Y-77904772D01*
X176025715Y-77835986D01*
X176052588Y-77771491D01*
X176110064Y-77731764D01*
X176148976Y-77725500D01*
X176932390Y-77725500D01*
X176999429Y-77745185D01*
X177020071Y-77761819D01*
X177166026Y-77907774D01*
X177199511Y-77969097D01*
X177194527Y-78038789D01*
X177189347Y-78050723D01*
X177169419Y-78090746D01*
X177113602Y-78286917D01*
X177094785Y-78489999D01*
X177094785Y-78490000D01*
X177113602Y-78693082D01*
X177169417Y-78889247D01*
X177169422Y-78889260D01*
X177260327Y-79071821D01*
X177383237Y-79234581D01*
X177533958Y-79371980D01*
X177533960Y-79371982D01*
X177580019Y-79400500D01*
X177707363Y-79479348D01*
X177897544Y-79553024D01*
X178098024Y-79590500D01*
X178098026Y-79590500D01*
X178301974Y-79590500D01*
X178301976Y-79590500D01*
X178502456Y-79553024D01*
X178692637Y-79479348D01*
X178866041Y-79371981D01*
X179016764Y-79234579D01*
X179139673Y-79071821D01*
X179230582Y-78889250D01*
X179286397Y-78693083D01*
X179305215Y-78490000D01*
X179286397Y-78286917D01*
X179230582Y-78090750D01*
X179219923Y-78069344D01*
X179170006Y-77969097D01*
X179139673Y-77908179D01*
X179058548Y-77800752D01*
X179016762Y-77745418D01*
X178866041Y-77608019D01*
X178866039Y-77608017D01*
X178692642Y-77500655D01*
X178692640Y-77500654D01*
X178692637Y-77500652D01*
X178692634Y-77500651D01*
X178692629Y-77500648D01*
X178602947Y-77465905D01*
X178547546Y-77423332D01*
X178523956Y-77357565D01*
X178539668Y-77289485D01*
X178589692Y-77240706D01*
X178602940Y-77234656D01*
X178628171Y-77224882D01*
X178788594Y-77125552D01*
X178855953Y-77106997D01*
X178922652Y-77127805D01*
X178941551Y-77143299D01*
X179655174Y-77856921D01*
X179655184Y-77856932D01*
X179738738Y-77940486D01*
X179765767Y-77956090D01*
X179834314Y-77995666D01*
X179834321Y-77995674D01*
X179834323Y-77995672D01*
X179835758Y-77996501D01*
X179835760Y-77996501D01*
X179835763Y-77996503D01*
X179943981Y-78025500D01*
X179943982Y-78025500D01*
X183084199Y-78025500D01*
X183151238Y-78045185D01*
X183196993Y-78097989D01*
X183207670Y-78160941D01*
X183194785Y-78299998D01*
X183194785Y-78300000D01*
X183213602Y-78503082D01*
X183269417Y-78699247D01*
X183269422Y-78699260D01*
X183360327Y-78881821D01*
X183483237Y-79044581D01*
X183633958Y-79181980D01*
X183633960Y-79181982D01*
X183645857Y-79189348D01*
X183807363Y-79289348D01*
X183997544Y-79363024D01*
X184198024Y-79400500D01*
X184198026Y-79400500D01*
X184401974Y-79400500D01*
X184401976Y-79400500D01*
X184602456Y-79363024D01*
X184792637Y-79289348D01*
X184966041Y-79181981D01*
X185116764Y-79044579D01*
X185239673Y-78881821D01*
X185330582Y-78699250D01*
X185386397Y-78503083D01*
X185405215Y-78300000D01*
X185403680Y-78283439D01*
X185386397Y-78096917D01*
X185378552Y-78069344D01*
X185330582Y-77900750D01*
X185310918Y-77861260D01*
X185261403Y-77761819D01*
X185239673Y-77718179D01*
X185164156Y-77618178D01*
X185116762Y-77555418D01*
X184966041Y-77418019D01*
X184966039Y-77418017D01*
X184792642Y-77310655D01*
X184792635Y-77310651D01*
X184612084Y-77240706D01*
X184602456Y-77236976D01*
X184401976Y-77199500D01*
X184198024Y-77199500D01*
X184097784Y-77218238D01*
X183997542Y-77236976D01*
X183997540Y-77236977D01*
X183947990Y-77256172D01*
X183878367Y-77262032D01*
X183841199Y-77247931D01*
X183764239Y-77203498D01*
X183764238Y-77203497D01*
X183764237Y-77203497D01*
X183656018Y-77174500D01*
X183656017Y-77174500D01*
X180227609Y-77174500D01*
X180160570Y-77154815D01*
X180139928Y-77138181D01*
X179272762Y-76271015D01*
X179239277Y-76209692D01*
X179236972Y-76194775D01*
X179223505Y-76049443D01*
X179221931Y-76032451D01*
X179166116Y-75836284D01*
X179164207Y-75832451D01*
X179114930Y-75733489D01*
X179075207Y-75653713D01*
X178952298Y-75490955D01*
X178952296Y-75490952D01*
X178801575Y-75353553D01*
X178801573Y-75353551D01*
X178628176Y-75246189D01*
X178628169Y-75246185D01*
X178500992Y-75196917D01*
X178437990Y-75172510D01*
X178237510Y-75135034D01*
X178033558Y-75135034D01*
X177833078Y-75172510D01*
X177833075Y-75172510D01*
X177833075Y-75172511D01*
X177642898Y-75246185D01*
X177642891Y-75246189D01*
X177469494Y-75353551D01*
X177469492Y-75353553D01*
X177318771Y-75490952D01*
X177195861Y-75653712D01*
X177104956Y-75836273D01*
X177104951Y-75836286D01*
X177049136Y-76032451D01*
X177030319Y-76235533D01*
X177030319Y-76235534D01*
X177049136Y-76438616D01*
X177104951Y-76634781D01*
X177104956Y-76634794D01*
X177135049Y-76695228D01*
X177147310Y-76764014D01*
X177120437Y-76828509D01*
X177062961Y-76868236D01*
X177024049Y-76874500D01*
X172687534Y-76874500D01*
X172620495Y-76854815D01*
X172599853Y-76838181D01*
X171750523Y-75988851D01*
X171717038Y-75927528D01*
X171722022Y-75857836D01*
X171763894Y-75801903D01*
X171780576Y-75791375D01*
X171800852Y-75780734D01*
X171928183Y-75667929D01*
X172024818Y-75527930D01*
X172085140Y-75368872D01*
X172105645Y-75200000D01*
X172085140Y-75031128D01*
X172073513Y-75000471D01*
X172039988Y-74912070D01*
X172024818Y-74872070D01*
X172023388Y-74869999D01*
X171957796Y-74774973D01*
X171928183Y-74732071D01*
X171817270Y-74633811D01*
X171780145Y-74574624D01*
X171775499Y-74541005D01*
X171775499Y-73056968D01*
X171775499Y-73056966D01*
X171775499Y-73056962D01*
X171761110Y-72966111D01*
X171761110Y-72966110D01*
X171761109Y-72966108D01*
X171761109Y-72966107D01*
X171712942Y-72871575D01*
X171703654Y-72847378D01*
X171696503Y-72820687D01*
X171640485Y-72723661D01*
X171561263Y-72644439D01*
X170854005Y-71937181D01*
X170820520Y-71875858D01*
X170825504Y-71806166D01*
X170867376Y-71750233D01*
X170932840Y-71725816D01*
X170941686Y-71725500D01*
X172722390Y-71725500D01*
X172789429Y-71745185D01*
X172810071Y-71761819D01*
X173475119Y-72426867D01*
X173508604Y-72488190D01*
X173510909Y-72525989D01*
X173494785Y-72699999D01*
X173494785Y-72700000D01*
X173513602Y-72903082D01*
X173569417Y-73099247D01*
X173569422Y-73099260D01*
X173660327Y-73281821D01*
X173783237Y-73444581D01*
X173933958Y-73581980D01*
X173933960Y-73581982D01*
X173999425Y-73622516D01*
X174107363Y-73689348D01*
X174297544Y-73763024D01*
X174498024Y-73800500D01*
X174498026Y-73800500D01*
X174701974Y-73800500D01*
X174701976Y-73800500D01*
X174902456Y-73763024D01*
X175092637Y-73689348D01*
X175266041Y-73581981D01*
X175416764Y-73444579D01*
X175539673Y-73281821D01*
X175630582Y-73099250D01*
X175686397Y-72903083D01*
X175705215Y-72700000D01*
X175703175Y-72677989D01*
X175686397Y-72496917D01*
X175666077Y-72425500D01*
X175630582Y-72300750D01*
X175628673Y-72296917D01*
X175542689Y-72124236D01*
X175539673Y-72118179D01*
X175454787Y-72005771D01*
X175416762Y-71955418D01*
X175266041Y-71818019D01*
X175266039Y-71818017D01*
X175092642Y-71710655D01*
X175092635Y-71710651D01*
X174997546Y-71673814D01*
X174902456Y-71636976D01*
X174701976Y-71599500D01*
X174498024Y-71599500D01*
X174297544Y-71636976D01*
X174297541Y-71636976D01*
X174297541Y-71636977D01*
X174107357Y-71710654D01*
X174101335Y-71714383D01*
X174033974Y-71732935D01*
X173967275Y-71712124D01*
X173948382Y-71696634D01*
X173211265Y-70959517D01*
X173211263Y-70959515D01*
X173114237Y-70903497D01*
X173006018Y-70874500D01*
X173006017Y-70874500D01*
X171655651Y-70874500D01*
X171588612Y-70854815D01*
X171542857Y-70802011D01*
X171532913Y-70732853D01*
X171561938Y-70669297D01*
X171599355Y-70640016D01*
X171618403Y-70630311D01*
X171705311Y-70543403D01*
X171761109Y-70433893D01*
X171775500Y-70343033D01*
X171775499Y-68831968D01*
X171775499Y-68831962D01*
X171761109Y-68741108D01*
X171761108Y-68741104D01*
X171739015Y-68697743D01*
X171725500Y-68641449D01*
X171725500Y-68383985D01*
X171725143Y-68381274D01*
X171724986Y-68350139D01*
X171727300Y-68331080D01*
X171745645Y-68180000D01*
X171725140Y-68011128D01*
X171724959Y-68010652D01*
X171682995Y-67900000D01*
X171664818Y-67852070D01*
X171661289Y-67846958D01*
X171613143Y-67777207D01*
X171568183Y-67712071D01*
X171440852Y-67599266D01*
X171440849Y-67599263D01*
X171290226Y-67520210D01*
X171125056Y-67479500D01*
X170954944Y-67479500D01*
X170789773Y-67520210D01*
X170639150Y-67599263D01*
X170511816Y-67712072D01*
X170415182Y-67852068D01*
X170354860Y-68011125D01*
X170354859Y-68011130D01*
X170334355Y-68180000D01*
X170351609Y-68322102D01*
X170340148Y-68391025D01*
X170304006Y-68435419D01*
X170287048Y-68448433D01*
X170284986Y-68445747D01*
X170237336Y-68471696D01*
X170211120Y-68474500D01*
X170181964Y-68474500D01*
X170181961Y-68474501D01*
X170091107Y-68488890D01*
X170088317Y-68489797D01*
X170084737Y-68489899D01*
X170081468Y-68490417D01*
X170081401Y-68489994D01*
X170018476Y-68491792D01*
X170011680Y-68489796D01*
X170008891Y-68488890D01*
X169918033Y-68474500D01*
X169681962Y-68474500D01*
X169681962Y-68474501D01*
X169591107Y-68488890D01*
X169588317Y-68489797D01*
X169584737Y-68489899D01*
X169581468Y-68490417D01*
X169581401Y-68489994D01*
X169518476Y-68491792D01*
X169511680Y-68489796D01*
X169508891Y-68488890D01*
X169418033Y-68474500D01*
X169181962Y-68474500D01*
X169181962Y-68474501D01*
X169091111Y-68488889D01*
X169091110Y-68488889D01*
X168981595Y-68544690D01*
X168975486Y-68549129D01*
X168909679Y-68572607D01*
X168855151Y-68563370D01*
X168788700Y-68535845D01*
X168734298Y-68492005D01*
X168712233Y-68425711D01*
X168729512Y-68358012D01*
X168748473Y-68333604D01*
X169349724Y-67732354D01*
X170060334Y-67021744D01*
X170121657Y-66988259D01*
X170148015Y-66985425D01*
X170371158Y-66985425D01*
X170528842Y-66985425D01*
X171501985Y-66985425D01*
X171569024Y-67005110D01*
X171589666Y-67021744D01*
X176789707Y-72221786D01*
X176789711Y-72221789D01*
X176920814Y-72309390D01*
X176920818Y-72309392D01*
X176920821Y-72309394D01*
X177066503Y-72369738D01*
X177221153Y-72400499D01*
X177221157Y-72400500D01*
X177221158Y-72400500D01*
X177378843Y-72400500D01*
X178170889Y-72400500D01*
X178237928Y-72420185D01*
X178256841Y-72435123D01*
X180300000Y-74400000D01*
X182366560Y-74400000D01*
X182433599Y-74419685D01*
X182454241Y-74436319D01*
X188539707Y-80521786D01*
X188539711Y-80521789D01*
X188670814Y-80609390D01*
X188670818Y-80609392D01*
X188670821Y-80609394D01*
X188816503Y-80669738D01*
X188971153Y-80700499D01*
X188971157Y-80700500D01*
X188971158Y-80700500D01*
X198778844Y-80700500D01*
X198778845Y-80700499D01*
X198933497Y-80669737D01*
X199079179Y-80609394D01*
X199210289Y-80521789D01*
X201532078Y-78200000D01*
X202994785Y-78200000D01*
X203013602Y-78403082D01*
X203069417Y-78599247D01*
X203069422Y-78599260D01*
X203160327Y-78781821D01*
X203283237Y-78944581D01*
X203433958Y-79081980D01*
X203433960Y-79081982D01*
X203437352Y-79084082D01*
X203607363Y-79189348D01*
X203797544Y-79263024D01*
X203998024Y-79300500D01*
X203998026Y-79300500D01*
X204201974Y-79300500D01*
X204201976Y-79300500D01*
X204402456Y-79263024D01*
X204592637Y-79189348D01*
X204766041Y-79081981D01*
X204916764Y-78944579D01*
X205039673Y-78781821D01*
X205130582Y-78599250D01*
X205186397Y-78403083D01*
X205201438Y-78240757D01*
X205227224Y-78175821D01*
X205237220Y-78164526D01*
X206229395Y-77172353D01*
X206290718Y-77138868D01*
X206317076Y-77136034D01*
X206466440Y-77136034D01*
X206466442Y-77136034D01*
X206666922Y-77098558D01*
X206857103Y-77024882D01*
X207030507Y-76917515D01*
X207181230Y-76780113D01*
X207304139Y-76617355D01*
X207395048Y-76434784D01*
X207450863Y-76238617D01*
X207469681Y-76035534D01*
X207467961Y-76016977D01*
X207450863Y-75832451D01*
X207441416Y-75799250D01*
X207395048Y-75636284D01*
X207390225Y-75626599D01*
X207322683Y-75490955D01*
X207304139Y-75453713D01*
X207228858Y-75354025D01*
X207181228Y-75290952D01*
X207030507Y-75153553D01*
X207030503Y-75153550D01*
X206857108Y-75046189D01*
X206857101Y-75046185D01*
X206737882Y-75000000D01*
X206666922Y-74972510D01*
X206466442Y-74935034D01*
X206262490Y-74935034D01*
X206062010Y-74972510D01*
X206062007Y-74972510D01*
X206062007Y-74972511D01*
X205871830Y-75046185D01*
X205871823Y-75046189D01*
X205698429Y-75153550D01*
X205698424Y-75153553D01*
X205547703Y-75290952D01*
X205424793Y-75453712D01*
X205333888Y-75636273D01*
X205333883Y-75636286D01*
X205278068Y-75832451D01*
X205259251Y-76035533D01*
X205259251Y-76035534D01*
X205278068Y-76238616D01*
X205333883Y-76434781D01*
X205333888Y-76434794D01*
X205424793Y-76617355D01*
X205426930Y-76620185D01*
X205427533Y-76621781D01*
X205427812Y-76622232D01*
X205427723Y-76622286D01*
X205451622Y-76685547D01*
X205437057Y-76753881D01*
X205415657Y-76782593D01*
X204906016Y-77292234D01*
X204844693Y-77325719D01*
X204775001Y-77320735D01*
X204753058Y-77309980D01*
X204592642Y-77210655D01*
X204592635Y-77210651D01*
X204436506Y-77150167D01*
X204402456Y-77136976D01*
X204201976Y-77099500D01*
X203998024Y-77099500D01*
X203797544Y-77136976D01*
X203797541Y-77136976D01*
X203797541Y-77136977D01*
X203607364Y-77210651D01*
X203607357Y-77210655D01*
X203433960Y-77318017D01*
X203433958Y-77318019D01*
X203283237Y-77455418D01*
X203160327Y-77618178D01*
X203069422Y-77800739D01*
X203069417Y-77800752D01*
X203013602Y-77996917D01*
X202994785Y-78199999D01*
X202994785Y-78200000D01*
X201532078Y-78200000D01*
X203721789Y-76010289D01*
X203809394Y-75879179D01*
X203869738Y-75733497D01*
X203900500Y-75578842D01*
X203900500Y-75421157D01*
X203900500Y-71782940D01*
X203920185Y-71715901D01*
X203936819Y-71695259D01*
X207495259Y-68136819D01*
X207556582Y-68103334D01*
X207582940Y-68100500D01*
X211777060Y-68100500D01*
X211844099Y-68120185D01*
X211864741Y-68136819D01*
X212685869Y-68957947D01*
X212719354Y-69019270D01*
X212721659Y-69034187D01*
X212733602Y-69163081D01*
X212789417Y-69359247D01*
X212789422Y-69359260D01*
X212880327Y-69541821D01*
X213003237Y-69704581D01*
X213153958Y-69841980D01*
X213153960Y-69841982D01*
X213195737Y-69867849D01*
X213327363Y-69949348D01*
X213517544Y-70023024D01*
X213718024Y-70060500D01*
X213718026Y-70060500D01*
X213921974Y-70060500D01*
X213921976Y-70060500D01*
X214122456Y-70023024D01*
X214312637Y-69949348D01*
X214486041Y-69841981D01*
X214486049Y-69841973D01*
X214487313Y-69841020D01*
X214488033Y-69840747D01*
X214490916Y-69838963D01*
X214491265Y-69839526D01*
X214552674Y-69816326D01*
X214621009Y-69830889D01*
X214670623Y-69880085D01*
X214676604Y-69892520D01*
X214715602Y-69986672D01*
X214715609Y-69986685D01*
X214803210Y-70117788D01*
X214803213Y-70117792D01*
X214914707Y-70229286D01*
X214914711Y-70229289D01*
X215045814Y-70316890D01*
X215045827Y-70316897D01*
X215155082Y-70362151D01*
X215191503Y-70377237D01*
X215197708Y-70378471D01*
X215259620Y-70410854D01*
X215281906Y-70446498D01*
X215284461Y-70445197D01*
X215288890Y-70453890D01*
X215288891Y-70453893D01*
X215342972Y-70560033D01*
X215344690Y-70563404D01*
X215344693Y-70563408D01*
X215431591Y-70650306D01*
X215431595Y-70650309D01*
X215431597Y-70650311D01*
X215541107Y-70706109D01*
X215590896Y-70713994D01*
X215654028Y-70743921D01*
X215690960Y-70803232D01*
X215689964Y-70873095D01*
X215659178Y-70924148D01*
X214865147Y-71718181D01*
X214803824Y-71751666D01*
X214777466Y-71754500D01*
X212413981Y-71754500D01*
X212329569Y-71777118D01*
X212329568Y-71777117D01*
X212305767Y-71783495D01*
X212305760Y-71783498D01*
X212208740Y-71839513D01*
X212208738Y-71839514D01*
X212136584Y-71911668D01*
X212136583Y-71911667D01*
X212010070Y-72038181D01*
X211948747Y-72071666D01*
X211922389Y-72074500D01*
X210994288Y-72074500D01*
X210927249Y-72054815D01*
X210883289Y-72005774D01*
X210839673Y-71918179D01*
X210780269Y-71839515D01*
X210768313Y-71823682D01*
X210743621Y-71758321D01*
X210743267Y-71748956D01*
X210743267Y-70875290D01*
X210762952Y-70808251D01*
X210815756Y-70762496D01*
X210884914Y-70752552D01*
X210890052Y-70753401D01*
X210928024Y-70760500D01*
X210928025Y-70760500D01*
X211131974Y-70760500D01*
X211131976Y-70760500D01*
X211332456Y-70723024D01*
X211522637Y-70649348D01*
X211696041Y-70541981D01*
X211846764Y-70404579D01*
X211969673Y-70241821D01*
X212060582Y-70059250D01*
X212116397Y-69863083D01*
X212135215Y-69660000D01*
X212116397Y-69456917D01*
X212060582Y-69260750D01*
X212052909Y-69245341D01*
X212011949Y-69163081D01*
X211969673Y-69078179D01*
X211855996Y-68927646D01*
X211846762Y-68915418D01*
X211696041Y-68778019D01*
X211696039Y-68778017D01*
X211522642Y-68670655D01*
X211522635Y-68670651D01*
X211418380Y-68630263D01*
X211332456Y-68596976D01*
X211131976Y-68559500D01*
X210928024Y-68559500D01*
X210727544Y-68596976D01*
X210727541Y-68596976D01*
X210727541Y-68596977D01*
X210537364Y-68670651D01*
X210537357Y-68670655D01*
X210363960Y-68778017D01*
X210363958Y-68778019D01*
X210213237Y-68915418D01*
X210090327Y-69078178D01*
X209999422Y-69260739D01*
X209999417Y-69260752D01*
X209943602Y-69456917D01*
X209924785Y-69659999D01*
X209924785Y-69660000D01*
X209943602Y-69863082D01*
X209943603Y-69863084D01*
X209987604Y-70017731D01*
X209987017Y-70087598D01*
X209975726Y-70113664D01*
X209921264Y-70207995D01*
X209921264Y-70207996D01*
X209892267Y-70316215D01*
X209892267Y-71278914D01*
X209872582Y-71345953D01*
X209819778Y-71391708D01*
X209791052Y-71400803D01*
X209714821Y-71415053D01*
X209597544Y-71436976D01*
X209597541Y-71436976D01*
X209597541Y-71436977D01*
X209407364Y-71510651D01*
X209407357Y-71510655D01*
X209233960Y-71618017D01*
X209233958Y-71618019D01*
X209083237Y-71755418D01*
X208960327Y-71918178D01*
X208869422Y-72100739D01*
X208869417Y-72100752D01*
X208813602Y-72296917D01*
X208794785Y-72499999D01*
X208794785Y-72500000D01*
X208813602Y-72703082D01*
X208869417Y-72899247D01*
X208869422Y-72899260D01*
X208960327Y-73081821D01*
X209083237Y-73244581D01*
X209233958Y-73381980D01*
X209233960Y-73381982D01*
X209263545Y-73400300D01*
X209407363Y-73489348D01*
X209597544Y-73563024D01*
X209798024Y-73600500D01*
X209798026Y-73600500D01*
X210001974Y-73600500D01*
X210001976Y-73600500D01*
X210202456Y-73563024D01*
X210392637Y-73489348D01*
X210566041Y-73381981D01*
X210716764Y-73244579D01*
X210839673Y-73081821D01*
X210883289Y-72994225D01*
X210930790Y-72942992D01*
X210994288Y-72925500D01*
X212206016Y-72925500D01*
X212206018Y-72925500D01*
X212314237Y-72896503D01*
X212411263Y-72840485D01*
X212609928Y-72641818D01*
X212671251Y-72608334D01*
X212697609Y-72605500D01*
X213094667Y-72605500D01*
X213161706Y-72625185D01*
X213207461Y-72677989D01*
X213217405Y-72747147D01*
X213188380Y-72810703D01*
X213165790Y-72831075D01*
X213094526Y-72880973D01*
X213094526Y-72880974D01*
X213773553Y-73560000D01*
X213767339Y-73560000D01*
X213665606Y-73587259D01*
X213574394Y-73639920D01*
X213499920Y-73714394D01*
X213447259Y-73805606D01*
X213420000Y-73907339D01*
X213420000Y-73913552D01*
X212740974Y-73234526D01*
X212740973Y-73234526D01*
X212689868Y-73307512D01*
X212689866Y-73307516D01*
X212593734Y-73513673D01*
X212593730Y-73513682D01*
X212534860Y-73733389D01*
X212534858Y-73733400D01*
X212515034Y-73959997D01*
X212515034Y-73960002D01*
X212534858Y-74186599D01*
X212534860Y-74186610D01*
X212593730Y-74406317D01*
X212593735Y-74406331D01*
X212689863Y-74612478D01*
X212740974Y-74685472D01*
X213420000Y-74006446D01*
X213420000Y-74012661D01*
X213447259Y-74114394D01*
X213499920Y-74205606D01*
X213574394Y-74280080D01*
X213665606Y-74332741D01*
X213767339Y-74360000D01*
X213773553Y-74360000D01*
X213094526Y-75039025D01*
X213167513Y-75090132D01*
X213167521Y-75090136D01*
X213373668Y-75186264D01*
X213373682Y-75186269D01*
X213539594Y-75230725D01*
X213599255Y-75267090D01*
X213629784Y-75329937D01*
X213621489Y-75399312D01*
X213577004Y-75453190D01*
X213510452Y-75474465D01*
X213507501Y-75474500D01*
X210708982Y-75474500D01*
X210600763Y-75503497D01*
X210600760Y-75503498D01*
X210503740Y-75559513D01*
X210503734Y-75559517D01*
X210042308Y-76020942D01*
X209980985Y-76054427D01*
X209911293Y-76049443D01*
X209909834Y-76048888D01*
X209827461Y-76016977D01*
X209827456Y-76016976D01*
X209626976Y-75979500D01*
X209423024Y-75979500D01*
X209222544Y-76016976D01*
X209222541Y-76016976D01*
X209222541Y-76016977D01*
X209032364Y-76090651D01*
X209032357Y-76090655D01*
X208858960Y-76198017D01*
X208858958Y-76198019D01*
X208708237Y-76335418D01*
X208585327Y-76498178D01*
X208494422Y-76680739D01*
X208494417Y-76680752D01*
X208438602Y-76876917D01*
X208419785Y-77079999D01*
X208419785Y-77080000D01*
X208438602Y-77283082D01*
X208494417Y-77479247D01*
X208494422Y-77479260D01*
X208585327Y-77661821D01*
X208708237Y-77824581D01*
X208858958Y-77961980D01*
X208858960Y-77961982D01*
X208958141Y-78023392D01*
X209032363Y-78069348D01*
X209222544Y-78143024D01*
X209423024Y-78180500D01*
X209423026Y-78180500D01*
X209626974Y-78180500D01*
X209626976Y-78180500D01*
X209827456Y-78143024D01*
X210017637Y-78069348D01*
X210191041Y-77961981D01*
X210341764Y-77824579D01*
X210464673Y-77661821D01*
X210555582Y-77479250D01*
X210611397Y-77283083D01*
X210630215Y-77080000D01*
X210627898Y-77055000D01*
X210611397Y-76876917D01*
X210611396Y-76876915D01*
X210600375Y-76838181D01*
X210582261Y-76774515D01*
X210582847Y-76704648D01*
X210613842Y-76652904D01*
X210904930Y-76361816D01*
X210966252Y-76328334D01*
X210992610Y-76325500D01*
X211608596Y-76325500D01*
X211675635Y-76345185D01*
X211721390Y-76397989D01*
X211731334Y-76467147D01*
X211719596Y-76504772D01*
X211644422Y-76655739D01*
X211644417Y-76655752D01*
X211588602Y-76851917D01*
X211569785Y-77054999D01*
X211569785Y-77055000D01*
X211588602Y-77258082D01*
X211644417Y-77454247D01*
X211644422Y-77454260D01*
X211735327Y-77636821D01*
X211858237Y-77799581D01*
X212008958Y-77936980D01*
X212008960Y-77936982D01*
X212049335Y-77961981D01*
X212182363Y-78044348D01*
X212372544Y-78118024D01*
X212573024Y-78155500D01*
X212573026Y-78155500D01*
X212776974Y-78155500D01*
X212776976Y-78155500D01*
X212977456Y-78118024D01*
X213167637Y-78044348D01*
X213341041Y-77936981D01*
X213469122Y-77820219D01*
X213491762Y-77799581D01*
X213547706Y-77725500D01*
X213614673Y-77636821D01*
X213628412Y-77609228D01*
X213675913Y-77557992D01*
X213739412Y-77540500D01*
X213851092Y-77540500D01*
X213851094Y-77540500D01*
X213959313Y-77511503D01*
X214056339Y-77455485D01*
X216325853Y-75185970D01*
X216387172Y-75152488D01*
X216456864Y-75157472D01*
X216512797Y-75199344D01*
X216536626Y-75258707D01*
X216554859Y-75408868D01*
X216554860Y-75408874D01*
X216615182Y-75567931D01*
X216655686Y-75626610D01*
X216711817Y-75707929D01*
X216814909Y-75799260D01*
X216839150Y-75820736D01*
X216989773Y-75899789D01*
X216989775Y-75899790D01*
X217154944Y-75940500D01*
X217325056Y-75940500D01*
X217490225Y-75899790D01*
X217592108Y-75846317D01*
X217640849Y-75820736D01*
X217640850Y-75820734D01*
X217640852Y-75820734D01*
X217768183Y-75707929D01*
X217864818Y-75567930D01*
X217925140Y-75408872D01*
X217945645Y-75240000D01*
X217925140Y-75071128D01*
X217925139Y-75071126D01*
X217923345Y-75063846D01*
X217924865Y-75063471D01*
X217920167Y-75002508D01*
X217953314Y-74941001D01*
X217985180Y-74917715D01*
X218068403Y-74875311D01*
X218155311Y-74788403D01*
X218211109Y-74678893D01*
X218221755Y-74611681D01*
X218225500Y-74588033D01*
X218225500Y-74382000D01*
X218245185Y-74314961D01*
X218297989Y-74269206D01*
X218349500Y-74258000D01*
X220533515Y-74258000D01*
X220533518Y-74258000D01*
X220553495Y-74252647D01*
X220621580Y-74253760D01*
X220793868Y-74306024D01*
X220990000Y-74325341D01*
X221186132Y-74306024D01*
X221374727Y-74248814D01*
X221387240Y-74242126D01*
X221548532Y-74155913D01*
X221548538Y-74155910D01*
X221700883Y-74030883D01*
X221825910Y-73878538D01*
X221918814Y-73704727D01*
X221976024Y-73516132D01*
X221995341Y-73320000D01*
X221976024Y-73123868D01*
X221918814Y-72935273D01*
X221918811Y-72935269D01*
X221918811Y-72935266D01*
X221825913Y-72761467D01*
X221825909Y-72761460D01*
X221700883Y-72609116D01*
X221548539Y-72484090D01*
X221548532Y-72484086D01*
X221374733Y-72391188D01*
X221374727Y-72391186D01*
X221248997Y-72353046D01*
X221186129Y-72333975D01*
X220990000Y-72314659D01*
X220793870Y-72333975D01*
X220605266Y-72391188D01*
X220431467Y-72484086D01*
X220431460Y-72484090D01*
X220279116Y-72609116D01*
X220154090Y-72761460D01*
X220154086Y-72761467D01*
X220061188Y-72935266D01*
X220003975Y-73123870D01*
X219987106Y-73295154D01*
X219960945Y-73359941D01*
X219903911Y-73400300D01*
X219863703Y-73407000D01*
X218349499Y-73407000D01*
X218282460Y-73387315D01*
X218236705Y-73334511D01*
X218225499Y-73283000D01*
X218225499Y-73076962D01*
X218211110Y-72986111D01*
X218211110Y-72986110D01*
X218211109Y-72986108D01*
X218211109Y-72986107D01*
X218155311Y-72876597D01*
X218155309Y-72876595D01*
X218155306Y-72876591D01*
X218068408Y-72789693D01*
X218068404Y-72789690D01*
X218068403Y-72789689D01*
X217958893Y-72733891D01*
X217958891Y-72733890D01*
X217958888Y-72733889D01*
X217868033Y-72719500D01*
X217631962Y-72719500D01*
X217631962Y-72719501D01*
X217541107Y-72733890D01*
X217538317Y-72734797D01*
X217534737Y-72734899D01*
X217531468Y-72735417D01*
X217531401Y-72734994D01*
X217468476Y-72736792D01*
X217461680Y-72734796D01*
X217458891Y-72733890D01*
X217368033Y-72719500D01*
X217338882Y-72719500D01*
X217271843Y-72699815D01*
X217263328Y-72692953D01*
X217262957Y-72693437D01*
X217133786Y-72594319D01*
X217133780Y-72594316D01*
X216990868Y-72535121D01*
X216925000Y-72526448D01*
X216925000Y-72744923D01*
X216905315Y-72811962D01*
X216888681Y-72832604D01*
X216837788Y-72883497D01*
X216834982Y-72880691D01*
X216794886Y-72911554D01*
X216725268Y-72917471D01*
X216663501Y-72884811D01*
X216662292Y-72883416D01*
X216662212Y-72883497D01*
X216611319Y-72832604D01*
X216577834Y-72771281D01*
X216575000Y-72744923D01*
X216575000Y-72526450D01*
X216574998Y-72526449D01*
X216509140Y-72535118D01*
X216509128Y-72535122D01*
X216366219Y-72594316D01*
X216366213Y-72594319D01*
X216237043Y-72693437D01*
X216234981Y-72690750D01*
X216187337Y-72716696D01*
X216161121Y-72719500D01*
X216131964Y-72719500D01*
X216131961Y-72719501D01*
X216041107Y-72733890D01*
X216038317Y-72734797D01*
X216034737Y-72734899D01*
X216031468Y-72735417D01*
X216031401Y-72734994D01*
X215968476Y-72736792D01*
X215961680Y-72734796D01*
X215958891Y-72733890D01*
X215868033Y-72719500D01*
X215631962Y-72719500D01*
X215631962Y-72719501D01*
X215541111Y-72733889D01*
X215541110Y-72733889D01*
X215431595Y-72789690D01*
X215431591Y-72789693D01*
X215344693Y-72876591D01*
X215344690Y-72876595D01*
X215344689Y-72876597D01*
X215299082Y-72966107D01*
X215288889Y-72986111D01*
X215274500Y-73076966D01*
X215274500Y-73443794D01*
X215254815Y-73510833D01*
X215202011Y-73556588D01*
X215132853Y-73566532D01*
X215069297Y-73537507D01*
X215038118Y-73496199D01*
X214950134Y-73307517D01*
X214950132Y-73307513D01*
X214899025Y-73234526D01*
X214220000Y-73913552D01*
X214220000Y-73907339D01*
X214192741Y-73805606D01*
X214140080Y-73714394D01*
X214065606Y-73639920D01*
X213974394Y-73587259D01*
X213872661Y-73560000D01*
X213866448Y-73560000D01*
X214545472Y-72880974D01*
X214474209Y-72831075D01*
X214430584Y-72776497D01*
X214423392Y-72706999D01*
X214454914Y-72644644D01*
X214515144Y-72609231D01*
X214545333Y-72605500D01*
X215061092Y-72605500D01*
X215061094Y-72605500D01*
X215169313Y-72576503D01*
X215266339Y-72520485D01*
X216860613Y-70926210D01*
X216921932Y-70892728D01*
X216991623Y-70897712D01*
X216995742Y-70899332D01*
X217009135Y-70904879D01*
X217009140Y-70904881D01*
X217074998Y-70913550D01*
X217075000Y-70913549D01*
X217075000Y-70756385D01*
X217091613Y-70694385D01*
X217150567Y-70592274D01*
X217153259Y-70593828D01*
X217187816Y-70550882D01*
X217254094Y-70528769D01*
X217321806Y-70545999D01*
X217346290Y-70565005D01*
X217388680Y-70607394D01*
X217422166Y-70668716D01*
X217425000Y-70695076D01*
X217425000Y-70913548D01*
X217490869Y-70904878D01*
X217633781Y-70845682D01*
X217762958Y-70746562D01*
X217765033Y-70749266D01*
X217812526Y-70723333D01*
X217838882Y-70720499D01*
X217868032Y-70720499D01*
X217868037Y-70720499D01*
X217868037Y-70720498D01*
X217913462Y-70713304D01*
X217958888Y-70706110D01*
X217958889Y-70706110D01*
X217958890Y-70706109D01*
X217958893Y-70706109D01*
X218068403Y-70650311D01*
X218155311Y-70563403D01*
X218211109Y-70453893D01*
X218225500Y-70363033D01*
X218225499Y-68987608D01*
X218245184Y-68920570D01*
X218261813Y-68899933D01*
X221390485Y-65771263D01*
X221446503Y-65674237D01*
X221475500Y-65566018D01*
X221475500Y-65453981D01*
X221475500Y-65007539D01*
X221495185Y-64940500D01*
X221547989Y-64894745D01*
X221554708Y-64891912D01*
X221582324Y-64881214D01*
X221587401Y-64879247D01*
X221776562Y-64762124D01*
X221940981Y-64612236D01*
X222075058Y-64434689D01*
X222174229Y-64235528D01*
X222180734Y-64212661D01*
X222218012Y-64153571D01*
X222281322Y-64124013D01*
X222350561Y-64133375D01*
X222403748Y-64178684D01*
X222419264Y-64212658D01*
X222425770Y-64235523D01*
X222425772Y-64235530D01*
X222425775Y-64235538D01*
X222524938Y-64434683D01*
X222524943Y-64434691D01*
X222659020Y-64612238D01*
X222823437Y-64762123D01*
X222823439Y-64762125D01*
X222888908Y-64802661D01*
X223012599Y-64879247D01*
X223095294Y-64911282D01*
X223150695Y-64953854D01*
X223174286Y-65019621D01*
X223174500Y-65026909D01*
X223174500Y-65402389D01*
X223154815Y-65469428D01*
X223138181Y-65490070D01*
X221383040Y-67245210D01*
X221321717Y-67278695D01*
X221259365Y-67276190D01*
X221186132Y-67253976D01*
X220990000Y-67234659D01*
X220793870Y-67253975D01*
X220605266Y-67311188D01*
X220431467Y-67404086D01*
X220431460Y-67404090D01*
X220279116Y-67529116D01*
X220154090Y-67681460D01*
X220154086Y-67681467D01*
X220061188Y-67855266D01*
X220003975Y-68043870D01*
X219984659Y-68240000D01*
X220003975Y-68436129D01*
X220003976Y-68436132D01*
X220053533Y-68599500D01*
X220061188Y-68624733D01*
X220154086Y-68798532D01*
X220154090Y-68798539D01*
X220279116Y-68950883D01*
X220431460Y-69075909D01*
X220431467Y-69075913D01*
X220605266Y-69168811D01*
X220605269Y-69168811D01*
X220605273Y-69168814D01*
X220793868Y-69226024D01*
X220990000Y-69245341D01*
X221186132Y-69226024D01*
X221374727Y-69168814D01*
X221548538Y-69075910D01*
X221700883Y-68950883D01*
X221825910Y-68798538D01*
X221902262Y-68655693D01*
X221918811Y-68624733D01*
X221918811Y-68624732D01*
X221918814Y-68624727D01*
X221976024Y-68436132D01*
X221995341Y-68240000D01*
X221976024Y-68043868D01*
X221953809Y-67970635D01*
X221953185Y-67900768D01*
X221984786Y-67846960D01*
X223940484Y-65891264D01*
X223957967Y-65860984D01*
X223996503Y-65794237D01*
X224002659Y-65771265D01*
X224007975Y-65751427D01*
X224016737Y-65718723D01*
X224025500Y-65686019D01*
X224025500Y-65573982D01*
X224025500Y-64986641D01*
X224045185Y-64919602D01*
X224084223Y-64881214D01*
X224087397Y-64879248D01*
X224087401Y-64879247D01*
X224276562Y-64762124D01*
X224440981Y-64612236D01*
X224575058Y-64434689D01*
X224674229Y-64235528D01*
X224735115Y-64021536D01*
X224755643Y-63800000D01*
X224735115Y-63578464D01*
X224674229Y-63364472D01*
X224624855Y-63265316D01*
X224575061Y-63165316D01*
X224575056Y-63165308D01*
X224440979Y-62987761D01*
X224276562Y-62837876D01*
X224276560Y-62837874D01*
X224087404Y-62720754D01*
X224087398Y-62720752D01*
X223879940Y-62640382D01*
X223661243Y-62599500D01*
X223438757Y-62599500D01*
X223220060Y-62640382D01*
X223088864Y-62691207D01*
X223012601Y-62720752D01*
X223012595Y-62720754D01*
X222823439Y-62837874D01*
X222823437Y-62837876D01*
X222659020Y-62987761D01*
X222524943Y-63165308D01*
X222524938Y-63165316D01*
X222425775Y-63364461D01*
X222425769Y-63364476D01*
X222419266Y-63387335D01*
X222381987Y-63446429D01*
X222318677Y-63475986D01*
X222249438Y-63466624D01*
X222196251Y-63421314D01*
X222180734Y-63387335D01*
X222174230Y-63364476D01*
X222174229Y-63364472D01*
X222124855Y-63265316D01*
X222075061Y-63165316D01*
X222075056Y-63165308D01*
X221940979Y-62987761D01*
X221776562Y-62837876D01*
X221776560Y-62837874D01*
X221587404Y-62720754D01*
X221587398Y-62720752D01*
X221379940Y-62640382D01*
X221161243Y-62599500D01*
X220938757Y-62599500D01*
X220720060Y-62640382D01*
X220588864Y-62691207D01*
X220512601Y-62720752D01*
X220512595Y-62720754D01*
X220323439Y-62837874D01*
X220323437Y-62837876D01*
X220159020Y-62987761D01*
X220024943Y-63165308D01*
X220024938Y-63165316D01*
X219925775Y-63364461D01*
X219925769Y-63364476D01*
X219919266Y-63387335D01*
X219881987Y-63446429D01*
X219818677Y-63475986D01*
X219749438Y-63466624D01*
X219696251Y-63421314D01*
X219680734Y-63387335D01*
X219674230Y-63364476D01*
X219674229Y-63364472D01*
X219624855Y-63265316D01*
X219575061Y-63165316D01*
X219575056Y-63165308D01*
X219440979Y-62987761D01*
X219276562Y-62837876D01*
X219276560Y-62837874D01*
X219087404Y-62720754D01*
X219087398Y-62720752D01*
X218879940Y-62640382D01*
X218661243Y-62599500D01*
X218438757Y-62599500D01*
X218220060Y-62640382D01*
X218088864Y-62691207D01*
X218012601Y-62720752D01*
X218012595Y-62720754D01*
X217823439Y-62837874D01*
X217823437Y-62837876D01*
X217659020Y-62987761D01*
X217524943Y-63165308D01*
X217524938Y-63165316D01*
X217425775Y-63364461D01*
X217425769Y-63364476D01*
X217364885Y-63578462D01*
X217364884Y-63578464D01*
X217344357Y-63799999D01*
X217344357Y-63800000D01*
X217364884Y-64021535D01*
X217364885Y-64021537D01*
X217425769Y-64235523D01*
X217425775Y-64235538D01*
X217524938Y-64434683D01*
X217524943Y-64434691D01*
X217659020Y-64612238D01*
X217823437Y-64762123D01*
X217823439Y-64762125D01*
X218012595Y-64879245D01*
X218012596Y-64879245D01*
X218012599Y-64879247D01*
X218220060Y-64959618D01*
X218438757Y-65000500D01*
X218438759Y-65000500D01*
X218661241Y-65000500D01*
X218661243Y-65000500D01*
X218879940Y-64959618D01*
X219087401Y-64879247D01*
X219276562Y-64762124D01*
X219440981Y-64612236D01*
X219575058Y-64434689D01*
X219674229Y-64235528D01*
X219680734Y-64212661D01*
X219718012Y-64153571D01*
X219781322Y-64124013D01*
X219850561Y-64133375D01*
X219903748Y-64178684D01*
X219919264Y-64212658D01*
X219925770Y-64235523D01*
X219925772Y-64235530D01*
X219925775Y-64235538D01*
X220024938Y-64434683D01*
X220024943Y-64434691D01*
X220159020Y-64612238D01*
X220323437Y-64762123D01*
X220323439Y-64762125D01*
X220388908Y-64802661D01*
X220512599Y-64879247D01*
X220512604Y-64879248D01*
X220512606Y-64879250D01*
X220545292Y-64891912D01*
X220600694Y-64934483D01*
X220624286Y-65000250D01*
X220624500Y-65007539D01*
X220624500Y-65282389D01*
X220604815Y-65349428D01*
X220588181Y-65370070D01*
X217660655Y-68297595D01*
X217599332Y-68331080D01*
X217529640Y-68326096D01*
X217525521Y-68324475D01*
X217490867Y-68310120D01*
X217425000Y-68301448D01*
X217425000Y-68488690D01*
X217408386Y-68550692D01*
X217365718Y-68624592D01*
X217346024Y-68650261D01*
X217337797Y-68658490D01*
X217335000Y-68655693D01*
X217294790Y-68686591D01*
X217225166Y-68692451D01*
X217163427Y-68659739D01*
X217162286Y-68658422D01*
X217162212Y-68658497D01*
X217111319Y-68607604D01*
X217077834Y-68546281D01*
X217075000Y-68519923D01*
X217075000Y-68301450D01*
X217074998Y-68301449D01*
X217009132Y-68310120D01*
X217003172Y-68311717D01*
X216933322Y-68310052D01*
X216875461Y-68270887D01*
X216847959Y-68206657D01*
X216855140Y-68147976D01*
X216885140Y-68068872D01*
X216905645Y-67900000D01*
X216885140Y-67731128D01*
X216824818Y-67572070D01*
X216802668Y-67539981D01*
X216753355Y-67468539D01*
X216728183Y-67432071D01*
X216600852Y-67319266D01*
X216600849Y-67319263D01*
X216450226Y-67240210D01*
X216285056Y-67199500D01*
X216114944Y-67199500D01*
X215949773Y-67240210D01*
X215799150Y-67319263D01*
X215671816Y-67432072D01*
X215575182Y-67572068D01*
X215514860Y-67731125D01*
X215514859Y-67731130D01*
X215494355Y-67900000D01*
X215514262Y-68063952D01*
X215502801Y-68132875D01*
X215455898Y-68184661D01*
X215388442Y-68202868D01*
X215343715Y-68193460D01*
X215335997Y-68190263D01*
X215335989Y-68190261D01*
X215181345Y-68159500D01*
X215181342Y-68159500D01*
X214623459Y-68159500D01*
X214556420Y-68139815D01*
X214539927Y-68127143D01*
X214486041Y-68078019D01*
X214486038Y-68078017D01*
X214486037Y-68078016D01*
X214312642Y-67970655D01*
X214312635Y-67970651D01*
X214132244Y-67900768D01*
X214122456Y-67896976D01*
X213921976Y-67859500D01*
X213921974Y-67859500D01*
X213902940Y-67859500D01*
X213835901Y-67839815D01*
X213815259Y-67823181D01*
X212670292Y-66678213D01*
X212670288Y-66678210D01*
X212539185Y-66590609D01*
X212539172Y-66590602D01*
X212393501Y-66530264D01*
X212393489Y-66530261D01*
X212238845Y-66499500D01*
X212238842Y-66499500D01*
X207480196Y-66499500D01*
X207413157Y-66479815D01*
X207367402Y-66427011D01*
X207357458Y-66357853D01*
X207382795Y-66298760D01*
X207461303Y-66199116D01*
X210888168Y-61849633D01*
X211362765Y-61247260D01*
X211419716Y-61206783D01*
X211460166Y-61200000D01*
X212465500Y-61200000D01*
X212532539Y-61219685D01*
G37*
G04 #@! TD.AperFunction*
G04 #@! TA.AperFunction,Conductor*
G36*
X188043040Y-74419685D02*
G01*
X188088795Y-74472489D01*
X188100001Y-74524000D01*
X188100001Y-74774986D01*
X188110494Y-74877697D01*
X188165641Y-75044119D01*
X188165643Y-75044124D01*
X188257684Y-75193345D01*
X188381654Y-75317315D01*
X188530875Y-75409356D01*
X188530880Y-75409358D01*
X188697302Y-75464505D01*
X188697309Y-75464506D01*
X188800019Y-75474999D01*
X189249999Y-75474999D01*
X189250000Y-75474998D01*
X189250000Y-74400000D01*
X189750000Y-74400000D01*
X189750000Y-75474999D01*
X190199972Y-75474999D01*
X190199986Y-75474998D01*
X190302697Y-75464505D01*
X190469119Y-75409358D01*
X190469124Y-75409356D01*
X190618345Y-75317315D01*
X190742317Y-75193343D01*
X190784110Y-75125586D01*
X190836058Y-75078861D01*
X190905020Y-75067638D01*
X190969102Y-75095481D01*
X191007959Y-75153550D01*
X191013120Y-75202123D01*
X190994785Y-75399998D01*
X190994785Y-75400000D01*
X191013602Y-75603082D01*
X191069417Y-75799247D01*
X191069422Y-75799260D01*
X191160327Y-75981821D01*
X191283237Y-76144581D01*
X191433958Y-76281980D01*
X191433960Y-76281982D01*
X191504245Y-76325500D01*
X191607363Y-76389348D01*
X191797544Y-76463024D01*
X191998024Y-76500500D01*
X191998026Y-76500500D01*
X192201974Y-76500500D01*
X192201976Y-76500500D01*
X192402456Y-76463024D01*
X192592637Y-76389348D01*
X192766041Y-76281981D01*
X192916762Y-76144581D01*
X192916962Y-76144399D01*
X192979766Y-76113782D01*
X193049153Y-76121980D01*
X193103093Y-76166389D01*
X193124461Y-76232912D01*
X193124500Y-76236036D01*
X193124500Y-77032390D01*
X193104815Y-77099429D01*
X193088181Y-77120071D01*
X192776578Y-77431673D01*
X192715255Y-77465158D01*
X192645563Y-77460174D01*
X192605359Y-77435630D01*
X192586041Y-77418019D01*
X192586038Y-77418017D01*
X192586037Y-77418016D01*
X192412642Y-77310655D01*
X192412635Y-77310651D01*
X192232084Y-77240706D01*
X192222456Y-77236976D01*
X192021976Y-77199500D01*
X191818024Y-77199500D01*
X191617544Y-77236976D01*
X191617541Y-77236976D01*
X191617541Y-77236977D01*
X191427364Y-77310651D01*
X191427357Y-77310655D01*
X191253960Y-77418017D01*
X191253958Y-77418019D01*
X191103237Y-77555418D01*
X190980327Y-77718178D01*
X190889422Y-77900739D01*
X190889417Y-77900752D01*
X190833602Y-78096917D01*
X190814785Y-78299999D01*
X190814785Y-78300000D01*
X190833602Y-78503082D01*
X190889417Y-78699247D01*
X190889422Y-78699260D01*
X190980327Y-78881821D01*
X190994639Y-78900773D01*
X191019331Y-78966134D01*
X191004766Y-79034469D01*
X190955569Y-79084081D01*
X190895685Y-79099500D01*
X189432940Y-79099500D01*
X189365901Y-79079815D01*
X189345259Y-79063181D01*
X184893759Y-74611681D01*
X184860274Y-74550358D01*
X184865258Y-74480666D01*
X184907130Y-74424733D01*
X184972594Y-74400316D01*
X184981440Y-74400000D01*
X187976001Y-74400000D01*
X188043040Y-74419685D01*
G37*
G04 #@! TD.AperFunction*
G04 #@! TA.AperFunction,Conductor*
G36*
X194817540Y-74419685D02*
G01*
X194863295Y-74472489D01*
X194874501Y-74524000D01*
X194874501Y-77483983D01*
X194874501Y-77596019D01*
X194903498Y-77704238D01*
X194959516Y-77801264D01*
X194959518Y-77801266D01*
X195344814Y-78186562D01*
X195378299Y-78247885D01*
X195380604Y-78262802D01*
X195393602Y-78403081D01*
X195449417Y-78599247D01*
X195449422Y-78599260D01*
X195540327Y-78781821D01*
X195630155Y-78900773D01*
X195654847Y-78966135D01*
X195640282Y-79034469D01*
X195591084Y-79084082D01*
X195531201Y-79099500D01*
X192944315Y-79099500D01*
X192877276Y-79079815D01*
X192831521Y-79027011D01*
X192821577Y-78957853D01*
X192845361Y-78900773D01*
X192854055Y-78889260D01*
X192859673Y-78881821D01*
X192950582Y-78699250D01*
X193006397Y-78503083D01*
X193012246Y-78439949D01*
X193038031Y-78375013D01*
X193048028Y-78363717D01*
X193801053Y-77610693D01*
X193801058Y-77610689D01*
X193811261Y-77600485D01*
X193811263Y-77600485D01*
X193890485Y-77521263D01*
X193946503Y-77424237D01*
X193975500Y-77316018D01*
X193975500Y-74524000D01*
X193995185Y-74456961D01*
X194047989Y-74411206D01*
X194099500Y-74400000D01*
X194750501Y-74400000D01*
X194817540Y-74419685D01*
G37*
G04 #@! TD.AperFunction*
G04 #@! TA.AperFunction,Conductor*
G36*
X202265321Y-73022895D02*
G01*
X202297280Y-73085026D01*
X202299500Y-73108383D01*
X202299500Y-75117060D01*
X202279815Y-75184099D01*
X202263181Y-75204741D01*
X198404741Y-79063181D01*
X198343418Y-79096666D01*
X198317060Y-79099500D01*
X197428799Y-79099500D01*
X197361760Y-79079815D01*
X197316005Y-79027011D01*
X197306061Y-78957853D01*
X197329845Y-78900773D01*
X197349552Y-78874675D01*
X197419673Y-78781821D01*
X197510582Y-78599250D01*
X197566397Y-78403083D01*
X197585215Y-78200000D01*
X197575762Y-78097989D01*
X197566397Y-77996917D01*
X197550341Y-77940486D01*
X197510582Y-77800750D01*
X197419673Y-77618179D01*
X197346486Y-77521263D01*
X197296762Y-77455418D01*
X197146041Y-77318019D01*
X197146039Y-77318017D01*
X196972642Y-77210655D01*
X196972635Y-77210651D01*
X196816506Y-77150167D01*
X196782456Y-77136976D01*
X196581976Y-77099500D01*
X196378024Y-77099500D01*
X196177544Y-77136976D01*
X196177541Y-77136976D01*
X196177541Y-77136977D01*
X195987364Y-77210651D01*
X195987357Y-77210655D01*
X195914778Y-77255594D01*
X195847417Y-77274149D01*
X195780718Y-77253341D01*
X195735857Y-77199776D01*
X195725501Y-77150167D01*
X195725501Y-76087768D01*
X195745186Y-76020729D01*
X195797990Y-75974974D01*
X195867148Y-75965030D01*
X195930704Y-75994055D01*
X195961884Y-76035365D01*
X195969865Y-76052480D01*
X196020974Y-76125472D01*
X196700000Y-75446446D01*
X196700000Y-75452661D01*
X196727259Y-75554394D01*
X196779920Y-75645606D01*
X196854394Y-75720080D01*
X196945606Y-75772741D01*
X197047339Y-75800000D01*
X197053553Y-75800000D01*
X196374526Y-76479025D01*
X196447513Y-76530132D01*
X196447521Y-76530136D01*
X196653668Y-76626264D01*
X196653682Y-76626269D01*
X196873389Y-76685139D01*
X196873400Y-76685141D01*
X197099998Y-76704966D01*
X197100002Y-76704966D01*
X197326599Y-76685141D01*
X197326610Y-76685139D01*
X197546317Y-76626269D01*
X197546331Y-76626264D01*
X197752478Y-76530136D01*
X197825471Y-76479024D01*
X197146447Y-75800000D01*
X197152661Y-75800000D01*
X197254394Y-75772741D01*
X197345606Y-75720080D01*
X197420080Y-75645606D01*
X197472741Y-75554394D01*
X197500000Y-75452661D01*
X197500000Y-75446447D01*
X198179024Y-76125471D01*
X198230136Y-76052478D01*
X198326264Y-75846331D01*
X198326269Y-75846317D01*
X198385139Y-75626610D01*
X198385141Y-75626599D01*
X198404966Y-75400002D01*
X198404966Y-75399997D01*
X198385141Y-75173400D01*
X198385139Y-75173389D01*
X198326269Y-74953682D01*
X198326265Y-74953673D01*
X198230134Y-74747517D01*
X198123426Y-74595124D01*
X198101099Y-74528918D01*
X198118109Y-74461150D01*
X198169057Y-74413337D01*
X198225001Y-74400000D01*
X201000000Y-74400000D01*
X202078100Y-73031642D01*
X202135050Y-72991166D01*
X202204843Y-72987905D01*
X202265321Y-73022895D01*
G37*
G04 #@! TD.AperFunction*
G04 #@! TA.AperFunction,Conductor*
G36*
X182185648Y-40614352D02*
G01*
X182200000Y-40649000D01*
X182200000Y-44951000D01*
X182185648Y-44985648D01*
X182151000Y-45000000D01*
X177049000Y-45000000D01*
X177014352Y-44985648D01*
X177000000Y-44951000D01*
X177000000Y-42407950D01*
X177002515Y-42392455D01*
X177048632Y-42254105D01*
X177073204Y-42225773D01*
X177095117Y-42220600D01*
X177354256Y-42220600D01*
X177354266Y-42220600D01*
X177384699Y-42217746D01*
X177512882Y-42172893D01*
X177622150Y-42092250D01*
X177702793Y-41982982D01*
X177747646Y-41854799D01*
X177750500Y-41824366D01*
X177750500Y-40791889D01*
X177764852Y-40757241D01*
X177799500Y-40742889D01*
X177826677Y-40751118D01*
X178200000Y-41000000D01*
X178212882Y-41008588D01*
X178214695Y-41008409D01*
X178223769Y-41015847D01*
X178224422Y-41016282D01*
X178224378Y-41016346D01*
X178243700Y-41032183D01*
X178249500Y-41055308D01*
X178249500Y-41336447D01*
X178280260Y-41491087D01*
X178280263Y-41491098D01*
X178340604Y-41636775D01*
X178340606Y-41636779D01*
X178399271Y-41724578D01*
X178428210Y-41767888D01*
X178435148Y-41774826D01*
X178449500Y-41809474D01*
X178449500Y-41824375D01*
X178452353Y-41854798D01*
X178452353Y-41854799D01*
X178497204Y-41982976D01*
X178497208Y-41982985D01*
X178577849Y-42092250D01*
X178687114Y-42172891D01*
X178687117Y-42172892D01*
X178687118Y-42172893D01*
X178687120Y-42172893D01*
X178687123Y-42172895D01*
X178709526Y-42180734D01*
X178815301Y-42217746D01*
X178845734Y-42220600D01*
X178845744Y-42220600D01*
X179254256Y-42220600D01*
X179254266Y-42220600D01*
X179284699Y-42217746D01*
X179412882Y-42172893D01*
X179522150Y-42092250D01*
X179602793Y-41982982D01*
X179647646Y-41854799D01*
X179650500Y-41824366D01*
X179650500Y-41809474D01*
X179664852Y-41774826D01*
X179671789Y-41767889D01*
X179759394Y-41636779D01*
X179819737Y-41491097D01*
X179850500Y-41336442D01*
X179850500Y-41201874D01*
X179864852Y-41167226D01*
X180417726Y-40614352D01*
X180452374Y-40600000D01*
X182151000Y-40600000D01*
X182185648Y-40614352D01*
G37*
G04 #@! TD.AperFunction*
G04 #@! TA.AperFunction,Conductor*
G36*
X176221168Y-36819685D02*
G01*
X176234827Y-36829852D01*
X177556698Y-37962884D01*
X177594788Y-38021459D01*
X177600000Y-38057032D01*
X177600000Y-38137892D01*
X177580315Y-38204931D01*
X177527511Y-38250686D01*
X177470020Y-38258952D01*
X177450000Y-38269653D01*
X177450000Y-39158600D01*
X177430315Y-39225639D01*
X177377511Y-39271394D01*
X177326000Y-39282600D01*
X176750000Y-39282600D01*
X176750000Y-39519728D01*
X176764503Y-39592640D01*
X176764504Y-39592644D01*
X176774170Y-39607109D01*
X176795048Y-39673786D01*
X176776564Y-39741167D01*
X176724585Y-39787857D01*
X176671068Y-39800000D01*
X175948850Y-39800000D01*
X175903359Y-39791354D01*
X175881563Y-39782758D01*
X175828978Y-39776444D01*
X175793102Y-39772136D01*
X174406898Y-39772136D01*
X174373713Y-39776121D01*
X174318436Y-39782758D01*
X174296641Y-39791354D01*
X174251150Y-39800000D01*
X174124000Y-39800000D01*
X174056961Y-39780315D01*
X174011206Y-39727511D01*
X174000000Y-39676000D01*
X174000000Y-38682600D01*
X176750000Y-38682600D01*
X176850000Y-38682600D01*
X176850000Y-38269653D01*
X176819762Y-38289857D01*
X176819759Y-38289860D01*
X176764505Y-38372555D01*
X176764503Y-38372559D01*
X176750000Y-38445471D01*
X176750000Y-38682600D01*
X174000000Y-38682600D01*
X174000000Y-38366974D01*
X174019685Y-38299935D01*
X174072489Y-38254180D01*
X174141647Y-38244236D01*
X174205203Y-38273261D01*
X174211681Y-38279293D01*
X174243811Y-38311423D01*
X174348748Y-38362723D01*
X174348751Y-38362724D01*
X174416780Y-38372635D01*
X174649999Y-38372635D01*
X174650000Y-38372634D01*
X174650000Y-38060136D01*
X175550000Y-38060136D01*
X175550000Y-38372635D01*
X175783218Y-38372635D01*
X175851249Y-38362723D01*
X175956191Y-38311420D01*
X176038787Y-38228824D01*
X176090087Y-38123887D01*
X176090088Y-38123884D01*
X176099376Y-38060136D01*
X175550000Y-38060136D01*
X174650000Y-38060136D01*
X174650000Y-37284136D01*
X174669685Y-37217097D01*
X174722489Y-37171342D01*
X174774000Y-37160136D01*
X176099374Y-37160136D01*
X176090087Y-37096387D01*
X176034273Y-36982216D01*
X176036832Y-36980964D01*
X176019140Y-36930061D01*
X176035524Y-36862140D01*
X176086029Y-36813858D01*
X176142992Y-36800000D01*
X176154129Y-36800000D01*
X176221168Y-36819685D01*
G37*
G04 #@! TD.AperFunction*
M02*
