G04 #@! TF.GenerationSoftware,KiCad,Pcbnew,8.0.1*
G04 #@! TF.CreationDate,2024-04-29T13:46:07+02:00*
G04 #@! TF.ProjectId,spider2,73706964-6572-4322-9e6b-696361645f70,rev?*
G04 #@! TF.SameCoordinates,Original*
G04 #@! TF.FileFunction,Soldermask,Bot*
G04 #@! TF.FilePolarity,Negative*
%FSLAX46Y46*%
G04 Gerber Fmt 4.6, Leading zero omitted, Abs format (unit mm)*
G04 Created by KiCad (PCBNEW 8.0.1) date 2024-04-29 13:46:07*
%MOMM*%
%LPD*%
G01*
G04 APERTURE LIST*
%ADD10C,1.600000*%
%ADD11O,1.600000X1.600000*%
%ADD12C,0.700000*%
%ADD13O,0.900000X2.400000*%
%ADD14O,0.900000X1.700000*%
%ADD15R,1.600000X1.600000*%
%ADD16C,1.400000*%
%ADD17O,1.400000X1.400000*%
%ADD18R,2.500000X2.500000*%
%ADD19C,1.500000*%
%ADD20O,1.900000X1.000000*%
%ADD21O,1.000000X1.800000*%
%ADD22C,1.300000*%
%ADD23O,1.703200X3.203200*%
%ADD24O,1.903200X3.203200*%
%ADD25O,1.000000X1.900000*%
%ADD26O,3.203200X2.203200*%
%ADD27O,1.800000X0.900000*%
%ADD28C,0.800000*%
%ADD29C,6.400000*%
%ADD30C,3.000000*%
%ADD31C,2.000000*%
%ADD32R,1.500000X1.500000*%
%ADD33C,4.000000*%
%ADD34C,1.800000*%
%ADD35R,1.700000X1.700000*%
%ADD36O,1.700000X1.700000*%
%ADD37R,1.800000X1.800000*%
%ADD38R,4.000000X4.000000*%
%ADD39C,1.000000*%
G04 APERTURE END LIST*
D10*
X147799400Y-33323400D03*
X152879400Y-33323400D03*
G36*
G01*
X147399400Y-40143400D02*
X148199400Y-40143400D01*
G75*
G02*
X148599400Y-40543400I0J-400000D01*
G01*
X148599400Y-41343400D01*
G75*
G02*
X148199400Y-41743400I-400000J0D01*
G01*
X147399400Y-41743400D01*
G75*
G02*
X146999400Y-41343400I0J400000D01*
G01*
X146999400Y-40543400D01*
G75*
G02*
X147399400Y-40143400I400000J0D01*
G01*
G37*
X150339400Y-40943400D03*
X152879400Y-40943400D03*
X147799400Y-38403400D03*
X150339400Y-38403400D03*
X152879400Y-38403400D03*
X262920000Y-52200000D03*
D11*
X273080000Y-52200000D03*
D10*
X230300000Y-32120000D03*
X230300000Y-37120000D03*
X243540000Y-36255000D03*
D11*
X233380000Y-36255000D03*
D12*
X169250000Y-33375000D03*
X168400000Y-33375000D03*
X167550000Y-33375000D03*
X166700000Y-33375000D03*
X165850000Y-33375000D03*
X165000000Y-33375000D03*
X164150000Y-33375000D03*
X163300000Y-33375000D03*
X163300000Y-32025000D03*
X164150000Y-32025000D03*
X165000000Y-32025000D03*
X165850000Y-32025000D03*
X166700000Y-32025000D03*
X167550000Y-32025000D03*
X168400000Y-32025000D03*
X169250000Y-32025000D03*
D13*
X170600000Y-32395000D03*
D14*
X170600000Y-29015000D03*
D13*
X161950000Y-32395000D03*
D14*
X161950000Y-29015000D03*
D10*
X187750000Y-61850000D03*
D11*
X187750000Y-51690000D03*
D10*
X263120000Y-81300000D03*
D11*
X273280000Y-81300000D03*
D10*
X167350000Y-69275000D03*
X167350000Y-74275000D03*
X204750000Y-52350000D03*
X204750000Y-54850000D03*
X209900000Y-72500000D03*
X206364466Y-76035534D03*
X204750000Y-59750000D03*
X204750000Y-57250000D03*
D15*
X153475000Y-67125000D03*
D11*
X145855000Y-67125000D03*
D10*
X154460000Y-46600000D03*
D11*
X144300000Y-46600000D03*
D16*
X202800000Y-33400000D03*
D17*
X202800000Y-38480000D03*
D10*
X213820000Y-68960000D03*
X213820000Y-73960000D03*
D18*
X180450000Y-32450000D03*
D19*
X240078391Y-90526253D03*
D20*
X238349112Y-92100000D03*
X241849112Y-90600000D03*
D21*
X242328391Y-87226253D03*
D22*
X242649112Y-88100000D03*
D23*
X244078391Y-88126253D03*
D24*
X236578391Y-88126253D03*
D25*
X237549112Y-88100000D03*
X237828391Y-87226253D03*
D20*
X238349112Y-84100000D03*
X240078391Y-85826253D03*
D26*
X240078391Y-92626253D03*
D27*
X241849112Y-85600000D03*
D28*
X248019532Y-36102461D03*
X248722476Y-34405405D03*
X248722476Y-37799517D03*
X250419532Y-33702461D03*
D29*
X250419532Y-36102461D03*
D28*
X250419532Y-38502461D03*
X252116588Y-34405405D03*
X252116588Y-37799517D03*
X252819532Y-36102461D03*
D10*
X174600000Y-72700000D03*
X178135534Y-76235534D03*
X199500000Y-69750000D03*
X199500000Y-64750000D03*
D16*
X216550000Y-34500000D03*
D17*
X216550000Y-39580000D03*
D10*
X196550000Y-33200000D03*
X196550000Y-30200000D03*
X192150000Y-38200000D03*
X196550000Y-37200000D03*
X178200000Y-86110000D03*
D11*
X178200000Y-78490000D03*
D10*
X212300000Y-92000000D03*
X212300000Y-87000000D03*
X175290000Y-95740000D03*
X177790000Y-95740000D03*
X205250000Y-46400000D03*
X205250000Y-41400000D03*
X191620000Y-61810000D03*
D11*
X191620000Y-51650000D03*
D10*
X261200000Y-93230000D03*
D11*
X261200000Y-83070000D03*
D10*
X249645000Y-66950000D03*
D11*
X259805000Y-66950000D03*
D30*
X226300000Y-86450000D03*
D31*
X228430000Y-92800000D03*
X217000000Y-92800000D03*
D30*
X217000000Y-96000000D03*
X228430000Y-89650000D03*
X217000000Y-89650000D03*
X228430000Y-96000000D03*
X228430000Y-83300000D03*
X217000000Y-83300000D03*
D10*
X184900000Y-64150000D03*
D11*
X174740000Y-64150000D03*
D30*
X168800000Y-86450000D03*
D31*
X170930000Y-92800000D03*
X159500000Y-92800000D03*
D30*
X159500000Y-96000000D03*
X170930000Y-89650000D03*
X159500000Y-89650000D03*
X170930000Y-96000000D03*
X170930000Y-83300000D03*
X159500000Y-83300000D03*
D10*
X148300000Y-79925000D03*
D11*
X148300000Y-69765000D03*
D10*
X249745000Y-81400000D03*
D11*
X259905000Y-81400000D03*
D10*
X209525000Y-84700000D03*
D11*
X209525000Y-77080000D03*
D10*
X249220000Y-52150000D03*
D11*
X259380000Y-52150000D03*
D10*
X229660000Y-44010000D03*
X227160000Y-44010000D03*
X201600000Y-61700000D03*
D11*
X201600000Y-51540000D03*
D10*
X233340000Y-32880000D03*
D11*
X243500000Y-32880000D03*
D10*
X236195000Y-66725000D03*
D11*
X246355000Y-66725000D03*
D15*
X160310000Y-43910000D03*
D10*
X157810000Y-43910000D03*
X197100000Y-75400000D03*
X192100000Y-75400000D03*
X143980000Y-69810000D03*
D11*
X143980000Y-79970000D03*
D10*
X247100000Y-82250000D03*
D11*
X247100000Y-92410000D03*
D19*
X240079279Y-61459586D03*
D20*
X238350000Y-63033333D03*
X241850000Y-61533333D03*
D21*
X242329279Y-58159586D03*
D22*
X242650000Y-59033333D03*
D23*
X244079279Y-59059586D03*
D24*
X236579279Y-59059586D03*
D25*
X237550000Y-59033333D03*
X237829279Y-58159586D03*
D20*
X238350000Y-55033333D03*
X240079279Y-56759586D03*
D26*
X240079279Y-63559586D03*
D27*
X241850000Y-56533333D03*
D32*
X145860000Y-85630000D03*
D19*
X143320000Y-85630000D03*
X140780000Y-85630000D03*
D16*
X164720000Y-71990000D03*
D17*
X164720000Y-66910000D03*
D10*
X175020000Y-93340000D03*
X175020000Y-88340000D03*
X208170000Y-43950000D03*
D11*
X218330000Y-43950000D03*
D19*
X240079279Y-75992919D03*
D20*
X238350000Y-77566666D03*
X241850000Y-76066666D03*
D21*
X242329279Y-72692919D03*
D22*
X242650000Y-73566666D03*
D23*
X244079279Y-73592919D03*
D24*
X236579279Y-73592919D03*
D25*
X237550000Y-73566666D03*
X237829279Y-72692919D03*
D20*
X238350000Y-69566666D03*
X240079279Y-71292919D03*
D26*
X240079279Y-78092919D03*
D27*
X241850000Y-71066666D03*
D19*
X177153344Y-59294502D03*
D20*
X175424065Y-60868249D03*
X178924065Y-59368249D03*
D21*
X179403344Y-55994502D03*
D22*
X179724065Y-56868249D03*
D23*
X181153344Y-56894502D03*
D24*
X173653344Y-56894502D03*
D25*
X174624065Y-56868249D03*
X174903344Y-55994502D03*
D20*
X175424065Y-52868249D03*
X177153344Y-54594502D03*
D26*
X177153344Y-61394502D03*
D27*
X178924065Y-54368249D03*
D28*
X228260142Y-71088261D03*
X228963086Y-69391205D03*
X228963086Y-72785317D03*
X230660142Y-68688261D03*
D29*
X230660142Y-71088261D03*
D28*
X230660142Y-73488261D03*
X232357198Y-69391205D03*
X232357198Y-72785317D03*
X233060142Y-71088261D03*
D10*
X154460000Y-43540000D03*
D11*
X144300000Y-43540000D03*
D19*
X268079279Y-47026253D03*
D20*
X266350000Y-48600000D03*
X269850000Y-47100000D03*
D21*
X270329279Y-43726253D03*
D22*
X270650000Y-44600000D03*
D23*
X272079279Y-44626253D03*
D24*
X264579279Y-44626253D03*
D25*
X265550000Y-44600000D03*
X265829279Y-43726253D03*
D20*
X266350000Y-40600000D03*
X268079279Y-42326253D03*
D26*
X268079279Y-49126253D03*
D27*
X269850000Y-42100000D03*
D10*
X184550000Y-56500000D03*
X184550000Y-54000000D03*
D32*
X184221000Y-32750000D03*
D33*
X159200000Y-56900000D03*
X168000000Y-56900000D03*
D34*
X166100000Y-63900000D03*
X163600000Y-63900000D03*
X161100000Y-63900000D03*
D10*
X189500000Y-69000000D03*
X189500000Y-64000000D03*
D32*
X186761000Y-32750000D03*
X189301000Y-32750000D03*
D10*
X171450000Y-39350000D03*
D11*
X161290000Y-39350000D03*
D32*
X145860000Y-91470000D03*
D19*
X143320000Y-91470000D03*
X140780000Y-91470000D03*
D10*
X151400000Y-69775000D03*
D11*
X151400000Y-79935000D03*
D10*
X175100000Y-86110000D03*
D11*
X175100000Y-78490000D03*
D19*
X268079279Y-76026253D03*
D20*
X266350000Y-77600000D03*
X269850000Y-76100000D03*
D21*
X270329279Y-72726253D03*
D22*
X270650000Y-73600000D03*
D23*
X272079279Y-73626253D03*
D24*
X264579279Y-73626253D03*
D25*
X265550000Y-73600000D03*
X265829279Y-72726253D03*
D20*
X266350000Y-69600000D03*
X268079279Y-71326253D03*
D26*
X268079279Y-78126253D03*
D27*
X269850000Y-71100000D03*
D35*
X143750000Y-50450000D03*
D36*
X141210000Y-50450000D03*
D28*
X250250000Y-99550000D03*
X250952944Y-97852944D03*
X250952944Y-101247056D03*
X252650000Y-97150000D03*
D29*
X252650000Y-99550000D03*
D28*
X252650000Y-101950000D03*
X254347056Y-97852944D03*
X254347056Y-101247056D03*
X255050000Y-99550000D03*
D10*
X236270000Y-52150000D03*
D11*
X246430000Y-52150000D03*
D16*
X214400000Y-33900000D03*
D17*
X214400000Y-38980000D03*
D10*
X211550000Y-33200000D03*
X211550000Y-30200000D03*
X207150000Y-38200000D03*
X211550000Y-37200000D03*
D19*
X268079279Y-61526253D03*
D20*
X266350000Y-63100000D03*
X269850000Y-61600000D03*
D21*
X270329279Y-58226253D03*
D22*
X270650000Y-59100000D03*
D23*
X272079279Y-59126253D03*
D24*
X264579279Y-59126253D03*
D25*
X265550000Y-59100000D03*
X265829279Y-58226253D03*
D20*
X266350000Y-55100000D03*
X268079279Y-56826253D03*
D26*
X268079279Y-63626253D03*
D27*
X269850000Y-56600000D03*
D19*
X240079279Y-46926253D03*
D20*
X238350000Y-48500000D03*
X241850000Y-47000000D03*
D21*
X242329279Y-43626253D03*
D22*
X242650000Y-44500000D03*
D23*
X244079279Y-44526253D03*
D24*
X236579279Y-44526253D03*
D25*
X237550000Y-44500000D03*
X237829279Y-43626253D03*
D20*
X238350000Y-40500000D03*
X240079279Y-42226253D03*
D26*
X240079279Y-49026253D03*
D27*
X241850000Y-42000000D03*
D15*
X219810000Y-33230000D03*
D11*
X219810000Y-35770000D03*
X219810000Y-38310000D03*
X219810000Y-40850000D03*
X227430000Y-40850000D03*
X227430000Y-38310000D03*
X227430000Y-35770000D03*
X227430000Y-33230000D03*
D10*
X263120000Y-66750000D03*
D11*
X273280000Y-66750000D03*
D10*
X233260000Y-92180000D03*
D11*
X233260000Y-82020000D03*
D10*
X192500000Y-45230000D03*
D11*
X202660000Y-45230000D03*
D19*
X254079279Y-61526253D03*
D20*
X252350000Y-63100000D03*
X255850000Y-61600000D03*
D21*
X256329279Y-58226253D03*
D22*
X256650000Y-59100000D03*
D23*
X258079279Y-59126253D03*
D24*
X250579279Y-59126253D03*
D25*
X251550000Y-59100000D03*
X251829279Y-58226253D03*
D20*
X252350000Y-55100000D03*
X254079279Y-56826253D03*
D26*
X254079279Y-63626253D03*
D27*
X255850000Y-56600000D03*
D19*
X254079279Y-76026253D03*
D20*
X252350000Y-77600000D03*
X255850000Y-76100000D03*
D21*
X256329279Y-72726253D03*
D22*
X256650000Y-73600000D03*
D23*
X258079279Y-73626253D03*
D24*
X250579279Y-73626253D03*
D25*
X251550000Y-73600000D03*
X251829279Y-72726253D03*
D20*
X252350000Y-69600000D03*
X254079279Y-71326253D03*
D26*
X254079279Y-78126253D03*
D27*
X255850000Y-71100000D03*
D19*
X254079279Y-47026253D03*
D20*
X252350000Y-48600000D03*
X255850000Y-47100000D03*
D21*
X256329279Y-43726253D03*
D22*
X256650000Y-44600000D03*
D23*
X258079279Y-44626253D03*
D24*
X250579279Y-44626253D03*
D25*
X251550000Y-44600000D03*
X251829279Y-43726253D03*
D20*
X252350000Y-40600000D03*
X254079279Y-42326253D03*
D26*
X254079279Y-49126253D03*
D27*
X255850000Y-42100000D03*
D10*
X212675000Y-84675000D03*
D11*
X212675000Y-77055000D03*
D10*
X223480000Y-43970000D03*
X220980000Y-43970000D03*
X184550000Y-58650000D03*
X184550000Y-61150000D03*
X211030000Y-64660000D03*
X211030000Y-69660000D03*
D19*
X150144477Y-59295965D03*
D20*
X148415198Y-60869712D03*
X151915198Y-59369712D03*
D21*
X152394477Y-55995965D03*
D22*
X152715198Y-56869712D03*
D23*
X154144477Y-56895965D03*
D24*
X146644477Y-56895965D03*
D25*
X147615198Y-56869712D03*
X147894477Y-55995965D03*
D20*
X148415198Y-52869712D03*
X150144477Y-54595965D03*
D26*
X150144477Y-61395965D03*
D27*
X151915198Y-54369712D03*
D19*
X254078391Y-90526253D03*
D20*
X252349112Y-92100000D03*
X255849112Y-90600000D03*
D21*
X256328391Y-87226253D03*
D22*
X256649112Y-88100000D03*
D23*
X258078391Y-88126253D03*
D24*
X250578391Y-88126253D03*
D25*
X251549112Y-88100000D03*
X251828391Y-87226253D03*
D20*
X252349112Y-84100000D03*
X254078391Y-85826253D03*
D26*
X254078391Y-92626253D03*
D27*
X255849112Y-85600000D03*
D19*
X268079279Y-90526253D03*
D20*
X266350000Y-92100000D03*
X269850000Y-90600000D03*
D21*
X270329279Y-87226253D03*
D22*
X270650000Y-88100000D03*
D23*
X272079279Y-88126253D03*
D24*
X264579279Y-88126253D03*
D25*
X265550000Y-88100000D03*
X265829279Y-87226253D03*
D20*
X266350000Y-84100000D03*
X268079279Y-85826253D03*
D26*
X268079279Y-92626253D03*
D27*
X269850000Y-85600000D03*
D10*
X178230000Y-93320000D03*
X178230000Y-88320000D03*
X154500000Y-79925000D03*
D11*
X154500000Y-69765000D03*
D10*
X184300000Y-78300000D03*
D11*
X191920000Y-78300000D03*
D10*
X204100000Y-78200000D03*
D11*
X196480000Y-78200000D03*
D37*
X148875000Y-88725000D03*
D34*
X151415000Y-88725000D03*
D16*
X200000000Y-33400000D03*
D17*
X200000000Y-38480000D03*
D10*
X208170000Y-47000000D03*
D11*
X218330000Y-47000000D03*
D10*
X209700000Y-92000000D03*
X209700000Y-87000000D03*
D33*
X216650000Y-56800000D03*
X225450000Y-56800000D03*
D34*
X223550000Y-63800000D03*
X221050000Y-63800000D03*
X218550000Y-63800000D03*
D10*
X197735200Y-61700000D03*
D11*
X197735200Y-51540000D03*
D16*
X220990000Y-73320000D03*
D17*
X220990000Y-68240000D03*
D10*
X245080000Y-81225000D03*
D11*
X234920000Y-81225000D03*
D37*
X152742934Y-98294059D03*
D34*
X150202934Y-98294059D03*
X147662934Y-98294059D03*
D28*
X139840000Y-97590000D03*
X140542944Y-95892944D03*
X140542944Y-99287056D03*
X142240000Y-95190000D03*
D29*
X142240000Y-97590000D03*
D28*
X142240000Y-99990000D03*
X143937056Y-95892944D03*
X143937056Y-99287056D03*
X144640000Y-97590000D03*
D10*
X202700000Y-42100000D03*
D11*
X192540000Y-42100000D03*
D10*
X140970000Y-79980000D03*
D11*
X140970000Y-69820000D03*
D10*
X209750000Y-94400000D03*
X212250000Y-94400000D03*
D15*
X184650000Y-69850000D03*
D10*
X184650000Y-67350000D03*
D28*
X138994600Y-37691600D03*
X139697544Y-35994544D03*
X139697544Y-39388656D03*
X141394600Y-35291600D03*
D29*
X141394600Y-37691600D03*
D28*
X141394600Y-40091600D03*
X143091656Y-35994544D03*
X143091656Y-39388656D03*
X143794600Y-37691600D03*
D32*
X141180000Y-47550000D03*
D19*
X141180000Y-45010000D03*
X141180000Y-42470000D03*
D38*
X211700000Y-100400000D03*
D39*
X218730000Y-74940000D03*
X170700000Y-75900000D03*
G36*
G01*
X174962500Y-69450000D02*
X174962500Y-70750000D01*
G75*
G02*
X174712500Y-71000000I-250000J0D01*
G01*
X173887500Y-71000000D01*
G75*
G02*
X173637500Y-70750000I0J250000D01*
G01*
X173637500Y-69450000D01*
G75*
G02*
X173887500Y-69200000I250000J0D01*
G01*
X174712500Y-69200000D01*
G75*
G02*
X174962500Y-69450000I0J-250000D01*
G01*
G37*
G36*
G01*
X171837500Y-69450000D02*
X171837500Y-70750000D01*
G75*
G02*
X171587500Y-71000000I-250000J0D01*
G01*
X170762500Y-71000000D01*
G75*
G02*
X170512500Y-70750000I0J250000D01*
G01*
X170512500Y-69450000D01*
G75*
G02*
X170762500Y-69200000I250000J0D01*
G01*
X171587500Y-69200000D01*
G75*
G02*
X171837500Y-69450000I0J-250000D01*
G01*
G37*
G36*
G01*
X220525000Y-69250000D02*
X220525000Y-70550000D01*
G75*
G02*
X220275000Y-70800000I-250000J0D01*
G01*
X219450000Y-70800000D01*
G75*
G02*
X219200000Y-70550000I0J250000D01*
G01*
X219200000Y-69250000D01*
G75*
G02*
X219450000Y-69000000I250000J0D01*
G01*
X220275000Y-69000000D01*
G75*
G02*
X220525000Y-69250000I0J-250000D01*
G01*
G37*
G36*
G01*
X217400000Y-69250000D02*
X217400000Y-70550000D01*
G75*
G02*
X217150000Y-70800000I-250000J0D01*
G01*
X216325000Y-70800000D01*
G75*
G02*
X216075000Y-70550000I0J250000D01*
G01*
X216075000Y-69250000D01*
G75*
G02*
X216325000Y-69000000I250000J0D01*
G01*
X217150000Y-69000000D01*
G75*
G02*
X217400000Y-69250000I0J-250000D01*
G01*
G37*
M02*
