%TF.GenerationSoftware,KiCad,Pcbnew,9.0.1+1*%
%TF.CreationDate,2025-10-02T22:25:14+00:00*%
%TF.ProjectId,spider2,73706964-6572-4322-9e6b-696361645f70,rev?*%
%TF.SameCoordinates,Original*%
%TF.FileFunction,Drillmap*%
%TF.FilePolarity,Positive*%
%FSLAX45Y45*%
G04 Gerber Fmt 4.5, Leading zero omitted, Abs format (unit mm)*
G04 Created by KiCad (PCBNEW 9.0.1+1) date 2025-10-02 22:25:14*
%MOMM*%
%LPD*%
G01*
G04 APERTURE LIST*
%ADD10C,0.254000*%
%ADD11C,0.100000*%
%ADD12C,0.200000*%
%ADD13C,0.150000*%
%ADD14C,0.220000*%
%ADD15C,0.300000*%
G04 APERTURE END LIST*
D10*
X18873422Y-2994112D02*
X18934801Y-2870849D01*
X26864460Y-3909160D02*
G75*
G02*
X26339460Y-3409160I-12500J512500D01*
G01*
X17135542Y-2691234D02*
X17293546Y-2994000D01*
X27264460Y-3909160D02*
G75*
G02*
X27464460Y-4109160I0J-200000D01*
G01*
X18873422Y-2994112D02*
G75*
G02*
X18747000Y-3061000I-119002J72002D01*
G01*
X17419967Y-3060888D02*
X18747000Y-3061000D01*
X26339460Y-10209160D02*
X26339460Y-9959160D01*
X26339460Y-10209160D02*
G75*
G02*
X26239460Y-10309160I-100000J0D01*
G01*
X16089480Y-2699368D02*
G75*
G02*
X16181924Y-2637504I92440J-38132D01*
G01*
X13764460Y-3359057D02*
G75*
G02*
X14064357Y-3059060I300000J-3D01*
G01*
D11*
X14300000Y-5605000D02*
X14300000Y-5609289D01*
X14300000Y-5609289D02*
G75*
G02*
X14200000Y-5709290I-100000J-1D01*
G01*
D10*
X27014460Y-9459160D02*
X27264460Y-9459160D01*
X15968954Y-2991559D02*
G75*
G02*
X15842532Y-3058447I-118994J71989D01*
G01*
D11*
X13891421Y-5605000D02*
X13891421Y-5609289D01*
D10*
X15968954Y-2991559D02*
X16089480Y-2699368D01*
D11*
X13991421Y-5709289D02*
G75*
G02*
X13891421Y-5609289I-1J99999D01*
G01*
D10*
X26257080Y-3059142D02*
G75*
G02*
X26356803Y-3166267I-20J-99998D01*
G01*
X14064460Y-10309160D02*
X26239460Y-10309160D01*
X27464460Y-9259160D02*
X27464460Y-4109160D01*
D11*
X13891421Y-5605000D02*
G75*
G02*
X13991421Y-5505001I99999J0D01*
G01*
D10*
X17046889Y-2637500D02*
G75*
G02*
X17135544Y-2691234I2J-100000D01*
G01*
X14064460Y-10309160D02*
G75*
G02*
X13764460Y-10009160I0J300000D01*
G01*
X21757980Y-3058410D02*
G75*
G02*
X21629304Y-2995972I2610J169190D01*
G01*
D11*
X13985711Y-5980000D02*
G75*
G02*
X14085711Y-5880001I99999J0D01*
G01*
D10*
X14064357Y-3059057D02*
X15842532Y-3058447D01*
D11*
X13985711Y-6188579D02*
X13985711Y-5980000D01*
X14085711Y-6288579D02*
G75*
G02*
X13985711Y-6188579I-1J99999D01*
G01*
D10*
X17419967Y-3060888D02*
G75*
G02*
X17293549Y-2993998I-7417J138888D01*
G01*
X26339460Y-9959160D02*
G75*
G02*
X27014460Y-9459160I587500J-87500D01*
G01*
D11*
X14090000Y-5880000D02*
X14085711Y-5880000D01*
D10*
X18934801Y-2870849D02*
G75*
G02*
X19113833Y-2760002I179029J-89151D01*
G01*
X21757980Y-3058410D02*
X26257080Y-3059142D01*
X16181924Y-2637500D02*
X17046889Y-2637500D01*
X13764460Y-3359057D02*
X13764460Y-10009160D01*
X21313610Y-2760000D02*
G75*
G02*
X21456288Y-2819846I0J-200000D01*
G01*
X19113833Y-2760000D02*
X21313610Y-2760000D01*
X26356809Y-3166267D02*
X26339460Y-3409160D01*
D11*
X14190000Y-6188579D02*
X14190000Y-5980000D01*
X14190000Y-6188579D02*
G75*
G02*
X14090000Y-6288580I-100000J-1D01*
G01*
X14200000Y-5709289D02*
X13991421Y-5709289D01*
X14090000Y-6288579D02*
X14085711Y-6288579D01*
X14200000Y-5505000D02*
X13991421Y-5505000D01*
X14200000Y-5505000D02*
G75*
G02*
X14300000Y-5605000I0J-100000D01*
G01*
D10*
X27464460Y-9259160D02*
G75*
G02*
X27264460Y-9459160I-200000J0D01*
G01*
X26864460Y-3909160D02*
X27264460Y-3909160D01*
D11*
X14090000Y-5880000D02*
G75*
G02*
X14190000Y-5980000I0J-100000D01*
G01*
D10*
X21456288Y-2819846D02*
X21629301Y-2995975D01*
D12*
D13*
X19360000Y-2800000D02*
X19510000Y-2950000D01*
X19510000Y-2800000D02*
X19360000Y-2950000D01*
X19360000Y-3500000D02*
X19510000Y-3650000D01*
X19510000Y-3500000D02*
X19360000Y-3650000D01*
X20860000Y-2800000D02*
X21010000Y-2950000D01*
X21010000Y-2800000D02*
X20860000Y-2950000D01*
X20860000Y-3500000D02*
X21010000Y-3650000D01*
X21010000Y-3500000D02*
X20860000Y-3650000D01*
D12*
X16050000Y-9280000D02*
G75*
G02*
X15850000Y-9280000I-100000J0D01*
G01*
X15850000Y-9280000D02*
G75*
G02*
X16050000Y-9280000I100000J0D01*
G01*
X17193000Y-9280000D02*
G75*
G02*
X16993000Y-9280000I-100000J0D01*
G01*
X16993000Y-9280000D02*
G75*
G02*
X17193000Y-9280000I100000J0D01*
G01*
X21800000Y-9280000D02*
G75*
G02*
X21600000Y-9280000I-100000J0D01*
G01*
X21600000Y-9280000D02*
G75*
G02*
X21800000Y-9280000I100000J0D01*
G01*
X22943000Y-9280000D02*
G75*
G02*
X22743000Y-9280000I-100000J0D01*
G01*
X22743000Y-9280000D02*
G75*
G02*
X22943000Y-9280000I100000J0D01*
G01*
D14*
X15920000Y-5580000D02*
X15920000Y-5800000D01*
X15810000Y-5690000D02*
X16030000Y-5690000D01*
X16800000Y-5580000D02*
X16800000Y-5800000D01*
X16690000Y-5690000D02*
X16910000Y-5690000D01*
X21665000Y-5570000D02*
X21665000Y-5790000D01*
X21555000Y-5680000D02*
X21775000Y-5680000D01*
X22545000Y-5570000D02*
X22545000Y-5790000D01*
X22435000Y-5680000D02*
X22655000Y-5680000D01*
D15*
X16986067Y-8751067D02*
X16986067Y-8538933D01*
X16773933Y-8538933D01*
X16773933Y-8751067D01*
X16986067Y-8751067D01*
X22736067Y-8751067D02*
X22736067Y-8538933D01*
X22523933Y-8538933D01*
X22523933Y-8751067D01*
X22736067Y-8751067D01*
D12*
X14012537Y-10633344D02*
X14012537Y-10433344D01*
X14012537Y-10433344D02*
X14060156Y-10433344D01*
X14060156Y-10433344D02*
X14088727Y-10442868D01*
X14088727Y-10442868D02*
X14107775Y-10461915D01*
X14107775Y-10461915D02*
X14117299Y-10480963D01*
X14117299Y-10480963D02*
X14126822Y-10519058D01*
X14126822Y-10519058D02*
X14126822Y-10547630D01*
X14126822Y-10547630D02*
X14117299Y-10585725D01*
X14117299Y-10585725D02*
X14107775Y-10604772D01*
X14107775Y-10604772D02*
X14088727Y-10623820D01*
X14088727Y-10623820D02*
X14060156Y-10633344D01*
X14060156Y-10633344D02*
X14012537Y-10633344D01*
X14212537Y-10633344D02*
X14212537Y-10500010D01*
X14212537Y-10538106D02*
X14222061Y-10519058D01*
X14222061Y-10519058D02*
X14231584Y-10509534D01*
X14231584Y-10509534D02*
X14250632Y-10500010D01*
X14250632Y-10500010D02*
X14269680Y-10500010D01*
X14336346Y-10633344D02*
X14336346Y-10500010D01*
X14336346Y-10433344D02*
X14326822Y-10442868D01*
X14326822Y-10442868D02*
X14336346Y-10452391D01*
X14336346Y-10452391D02*
X14345870Y-10442868D01*
X14345870Y-10442868D02*
X14336346Y-10433344D01*
X14336346Y-10433344D02*
X14336346Y-10452391D01*
X14460156Y-10633344D02*
X14441108Y-10623820D01*
X14441108Y-10623820D02*
X14431584Y-10604772D01*
X14431584Y-10604772D02*
X14431584Y-10433344D01*
X14564918Y-10633344D02*
X14545870Y-10623820D01*
X14545870Y-10623820D02*
X14536346Y-10604772D01*
X14536346Y-10604772D02*
X14536346Y-10433344D01*
X14793489Y-10633344D02*
X14793489Y-10433344D01*
X14793489Y-10433344D02*
X14860156Y-10576201D01*
X14860156Y-10576201D02*
X14926822Y-10433344D01*
X14926822Y-10433344D02*
X14926822Y-10633344D01*
X15107775Y-10633344D02*
X15107775Y-10528582D01*
X15107775Y-10528582D02*
X15098251Y-10509534D01*
X15098251Y-10509534D02*
X15079203Y-10500010D01*
X15079203Y-10500010D02*
X15041108Y-10500010D01*
X15041108Y-10500010D02*
X15022061Y-10509534D01*
X15107775Y-10623820D02*
X15088727Y-10633344D01*
X15088727Y-10633344D02*
X15041108Y-10633344D01*
X15041108Y-10633344D02*
X15022061Y-10623820D01*
X15022061Y-10623820D02*
X15012537Y-10604772D01*
X15012537Y-10604772D02*
X15012537Y-10585725D01*
X15012537Y-10585725D02*
X15022061Y-10566677D01*
X15022061Y-10566677D02*
X15041108Y-10557153D01*
X15041108Y-10557153D02*
X15088727Y-10557153D01*
X15088727Y-10557153D02*
X15107775Y-10547630D01*
X15203013Y-10500010D02*
X15203013Y-10700010D01*
X15203013Y-10509534D02*
X15222061Y-10500010D01*
X15222061Y-10500010D02*
X15260156Y-10500010D01*
X15260156Y-10500010D02*
X15279203Y-10509534D01*
X15279203Y-10509534D02*
X15288727Y-10519058D01*
X15288727Y-10519058D02*
X15298251Y-10538106D01*
X15298251Y-10538106D02*
X15298251Y-10595249D01*
X15298251Y-10595249D02*
X15288727Y-10614296D01*
X15288727Y-10614296D02*
X15279203Y-10623820D01*
X15279203Y-10623820D02*
X15260156Y-10633344D01*
X15260156Y-10633344D02*
X15222061Y-10633344D01*
X15222061Y-10633344D02*
X15203013Y-10623820D01*
X15383965Y-10614296D02*
X15393489Y-10623820D01*
X15393489Y-10623820D02*
X15383965Y-10633344D01*
X15383965Y-10633344D02*
X15374442Y-10623820D01*
X15374442Y-10623820D02*
X15383965Y-10614296D01*
X15383965Y-10614296D02*
X15383965Y-10633344D01*
X15383965Y-10509534D02*
X15393489Y-10519058D01*
X15393489Y-10519058D02*
X15383965Y-10528582D01*
X15383965Y-10528582D02*
X15374442Y-10519058D01*
X15374442Y-10519058D02*
X15383965Y-10509534D01*
X15383965Y-10509534D02*
X15383965Y-10528582D01*
D13*
X13601760Y-10886860D02*
X13751760Y-11036860D01*
X13751760Y-10886860D02*
X13601760Y-11036860D01*
D12*
X14117299Y-11053344D02*
X14003013Y-11053344D01*
X14060156Y-11053344D02*
X14060156Y-10853344D01*
X14060156Y-10853344D02*
X14041108Y-10881915D01*
X14041108Y-10881915D02*
X14022061Y-10900963D01*
X14022061Y-10900963D02*
X14003013Y-10910487D01*
X14203013Y-11034296D02*
X14212537Y-11043820D01*
X14212537Y-11043820D02*
X14203013Y-11053344D01*
X14203013Y-11053344D02*
X14193489Y-11043820D01*
X14193489Y-11043820D02*
X14203013Y-11034296D01*
X14203013Y-11034296D02*
X14203013Y-11053344D01*
X14393489Y-10853344D02*
X14298251Y-10853344D01*
X14298251Y-10853344D02*
X14288727Y-10948582D01*
X14288727Y-10948582D02*
X14298251Y-10939058D01*
X14298251Y-10939058D02*
X14317299Y-10929534D01*
X14317299Y-10929534D02*
X14364918Y-10929534D01*
X14364918Y-10929534D02*
X14383965Y-10939058D01*
X14383965Y-10939058D02*
X14393489Y-10948582D01*
X14393489Y-10948582D02*
X14403013Y-10967630D01*
X14403013Y-10967630D02*
X14403013Y-11015249D01*
X14403013Y-11015249D02*
X14393489Y-11034296D01*
X14393489Y-11034296D02*
X14383965Y-11043820D01*
X14383965Y-11043820D02*
X14364918Y-11053344D01*
X14364918Y-11053344D02*
X14317299Y-11053344D01*
X14317299Y-11053344D02*
X14298251Y-11043820D01*
X14298251Y-11043820D02*
X14288727Y-11034296D01*
X14526822Y-10853344D02*
X14545870Y-10853344D01*
X14545870Y-10853344D02*
X14564918Y-10862868D01*
X14564918Y-10862868D02*
X14574442Y-10872391D01*
X14574442Y-10872391D02*
X14583965Y-10891439D01*
X14583965Y-10891439D02*
X14593489Y-10929534D01*
X14593489Y-10929534D02*
X14593489Y-10977153D01*
X14593489Y-10977153D02*
X14583965Y-11015249D01*
X14583965Y-11015249D02*
X14574442Y-11034296D01*
X14574442Y-11034296D02*
X14564918Y-11043820D01*
X14564918Y-11043820D02*
X14545870Y-11053344D01*
X14545870Y-11053344D02*
X14526822Y-11053344D01*
X14526822Y-11053344D02*
X14507775Y-11043820D01*
X14507775Y-11043820D02*
X14498251Y-11034296D01*
X14498251Y-11034296D02*
X14488727Y-11015249D01*
X14488727Y-11015249D02*
X14479203Y-10977153D01*
X14479203Y-10977153D02*
X14479203Y-10929534D01*
X14479203Y-10929534D02*
X14488727Y-10891439D01*
X14488727Y-10891439D02*
X14498251Y-10872391D01*
X14498251Y-10872391D02*
X14507775Y-10862868D01*
X14507775Y-10862868D02*
X14526822Y-10853344D01*
X14717299Y-10853344D02*
X14736346Y-10853344D01*
X14736346Y-10853344D02*
X14755394Y-10862868D01*
X14755394Y-10862868D02*
X14764918Y-10872391D01*
X14764918Y-10872391D02*
X14774442Y-10891439D01*
X14774442Y-10891439D02*
X14783965Y-10929534D01*
X14783965Y-10929534D02*
X14783965Y-10977153D01*
X14783965Y-10977153D02*
X14774442Y-11015249D01*
X14774442Y-11015249D02*
X14764918Y-11034296D01*
X14764918Y-11034296D02*
X14755394Y-11043820D01*
X14755394Y-11043820D02*
X14736346Y-11053344D01*
X14736346Y-11053344D02*
X14717299Y-11053344D01*
X14717299Y-11053344D02*
X14698251Y-11043820D01*
X14698251Y-11043820D02*
X14688727Y-11034296D01*
X14688727Y-11034296D02*
X14679203Y-11015249D01*
X14679203Y-11015249D02*
X14669680Y-10977153D01*
X14669680Y-10977153D02*
X14669680Y-10929534D01*
X14669680Y-10929534D02*
X14679203Y-10891439D01*
X14679203Y-10891439D02*
X14688727Y-10872391D01*
X14688727Y-10872391D02*
X14698251Y-10862868D01*
X14698251Y-10862868D02*
X14717299Y-10853344D01*
X14869680Y-11053344D02*
X14869680Y-10920010D01*
X14869680Y-10939058D02*
X14879203Y-10929534D01*
X14879203Y-10929534D02*
X14898251Y-10920010D01*
X14898251Y-10920010D02*
X14926823Y-10920010D01*
X14926823Y-10920010D02*
X14945870Y-10929534D01*
X14945870Y-10929534D02*
X14955394Y-10948582D01*
X14955394Y-10948582D02*
X14955394Y-11053344D01*
X14955394Y-10948582D02*
X14964918Y-10929534D01*
X14964918Y-10929534D02*
X14983965Y-10920010D01*
X14983965Y-10920010D02*
X15012537Y-10920010D01*
X15012537Y-10920010D02*
X15031584Y-10929534D01*
X15031584Y-10929534D02*
X15041108Y-10948582D01*
X15041108Y-10948582D02*
X15041108Y-11053344D01*
X15136346Y-11053344D02*
X15136346Y-10920010D01*
X15136346Y-10939058D02*
X15145870Y-10929534D01*
X15145870Y-10929534D02*
X15164918Y-10920010D01*
X15164918Y-10920010D02*
X15193489Y-10920010D01*
X15193489Y-10920010D02*
X15212537Y-10929534D01*
X15212537Y-10929534D02*
X15222061Y-10948582D01*
X15222061Y-10948582D02*
X15222061Y-11053344D01*
X15222061Y-10948582D02*
X15231584Y-10929534D01*
X15231584Y-10929534D02*
X15250632Y-10920010D01*
X15250632Y-10920010D02*
X15279203Y-10920010D01*
X15279203Y-10920010D02*
X15298251Y-10929534D01*
X15298251Y-10929534D02*
X15307775Y-10948582D01*
X15307775Y-10948582D02*
X15307775Y-11053344D01*
X15698251Y-10843820D02*
X15526823Y-11100963D01*
X15955394Y-10853344D02*
X15974442Y-10853344D01*
X15974442Y-10853344D02*
X15993489Y-10862868D01*
X15993489Y-10862868D02*
X16003013Y-10872391D01*
X16003013Y-10872391D02*
X16012537Y-10891439D01*
X16012537Y-10891439D02*
X16022061Y-10929534D01*
X16022061Y-10929534D02*
X16022061Y-10977153D01*
X16022061Y-10977153D02*
X16012537Y-11015249D01*
X16012537Y-11015249D02*
X16003013Y-11034296D01*
X16003013Y-11034296D02*
X15993489Y-11043820D01*
X15993489Y-11043820D02*
X15974442Y-11053344D01*
X15974442Y-11053344D02*
X15955394Y-11053344D01*
X15955394Y-11053344D02*
X15936346Y-11043820D01*
X15936346Y-11043820D02*
X15926823Y-11034296D01*
X15926823Y-11034296D02*
X15917299Y-11015249D01*
X15917299Y-11015249D02*
X15907775Y-10977153D01*
X15907775Y-10977153D02*
X15907775Y-10929534D01*
X15907775Y-10929534D02*
X15917299Y-10891439D01*
X15917299Y-10891439D02*
X15926823Y-10872391D01*
X15926823Y-10872391D02*
X15936346Y-10862868D01*
X15936346Y-10862868D02*
X15955394Y-10853344D01*
X16107775Y-11034296D02*
X16117299Y-11043820D01*
X16117299Y-11043820D02*
X16107775Y-11053344D01*
X16107775Y-11053344D02*
X16098251Y-11043820D01*
X16098251Y-11043820D02*
X16107775Y-11034296D01*
X16107775Y-11034296D02*
X16107775Y-11053344D01*
X16241108Y-10853344D02*
X16260156Y-10853344D01*
X16260156Y-10853344D02*
X16279204Y-10862868D01*
X16279204Y-10862868D02*
X16288727Y-10872391D01*
X16288727Y-10872391D02*
X16298251Y-10891439D01*
X16298251Y-10891439D02*
X16307775Y-10929534D01*
X16307775Y-10929534D02*
X16307775Y-10977153D01*
X16307775Y-10977153D02*
X16298251Y-11015249D01*
X16298251Y-11015249D02*
X16288727Y-11034296D01*
X16288727Y-11034296D02*
X16279204Y-11043820D01*
X16279204Y-11043820D02*
X16260156Y-11053344D01*
X16260156Y-11053344D02*
X16241108Y-11053344D01*
X16241108Y-11053344D02*
X16222061Y-11043820D01*
X16222061Y-11043820D02*
X16212537Y-11034296D01*
X16212537Y-11034296D02*
X16203013Y-11015249D01*
X16203013Y-11015249D02*
X16193489Y-10977153D01*
X16193489Y-10977153D02*
X16193489Y-10929534D01*
X16193489Y-10929534D02*
X16203013Y-10891439D01*
X16203013Y-10891439D02*
X16212537Y-10872391D01*
X16212537Y-10872391D02*
X16222061Y-10862868D01*
X16222061Y-10862868D02*
X16241108Y-10853344D01*
X16488727Y-10853344D02*
X16393489Y-10853344D01*
X16393489Y-10853344D02*
X16383966Y-10948582D01*
X16383966Y-10948582D02*
X16393489Y-10939058D01*
X16393489Y-10939058D02*
X16412537Y-10929534D01*
X16412537Y-10929534D02*
X16460156Y-10929534D01*
X16460156Y-10929534D02*
X16479204Y-10939058D01*
X16479204Y-10939058D02*
X16488727Y-10948582D01*
X16488727Y-10948582D02*
X16498251Y-10967630D01*
X16498251Y-10967630D02*
X16498251Y-11015249D01*
X16498251Y-11015249D02*
X16488727Y-11034296D01*
X16488727Y-11034296D02*
X16479204Y-11043820D01*
X16479204Y-11043820D02*
X16460156Y-11053344D01*
X16460156Y-11053344D02*
X16412537Y-11053344D01*
X16412537Y-11053344D02*
X16393489Y-11043820D01*
X16393489Y-11043820D02*
X16383966Y-11034296D01*
X16593489Y-11053344D02*
X16631585Y-11053344D01*
X16631585Y-11053344D02*
X16650632Y-11043820D01*
X16650632Y-11043820D02*
X16660156Y-11034296D01*
X16660156Y-11034296D02*
X16679204Y-11005725D01*
X16679204Y-11005725D02*
X16688727Y-10967630D01*
X16688727Y-10967630D02*
X16688727Y-10891439D01*
X16688727Y-10891439D02*
X16679204Y-10872391D01*
X16679204Y-10872391D02*
X16669680Y-10862868D01*
X16669680Y-10862868D02*
X16650632Y-10853344D01*
X16650632Y-10853344D02*
X16612537Y-10853344D01*
X16612537Y-10853344D02*
X16593489Y-10862868D01*
X16593489Y-10862868D02*
X16583966Y-10872391D01*
X16583966Y-10872391D02*
X16574442Y-10891439D01*
X16574442Y-10891439D02*
X16574442Y-10939058D01*
X16574442Y-10939058D02*
X16583966Y-10958106D01*
X16583966Y-10958106D02*
X16593489Y-10967630D01*
X16593489Y-10967630D02*
X16612537Y-10977153D01*
X16612537Y-10977153D02*
X16650632Y-10977153D01*
X16650632Y-10977153D02*
X16669680Y-10967630D01*
X16669680Y-10967630D02*
X16679204Y-10958106D01*
X16679204Y-10958106D02*
X16688727Y-10939058D01*
X16879204Y-11053344D02*
X16764918Y-11053344D01*
X16822061Y-11053344D02*
X16822061Y-10853344D01*
X16822061Y-10853344D02*
X16803013Y-10881915D01*
X16803013Y-10881915D02*
X16783966Y-10900963D01*
X16783966Y-10900963D02*
X16764918Y-10910487D01*
X16955394Y-10853344D02*
X16955394Y-10891439D01*
X17031585Y-10853344D02*
X17031585Y-10891439D01*
X17326823Y-11129534D02*
X17317299Y-11120010D01*
X17317299Y-11120010D02*
X17298251Y-11091439D01*
X17298251Y-11091439D02*
X17288728Y-11072391D01*
X17288728Y-11072391D02*
X17279204Y-11043820D01*
X17279204Y-11043820D02*
X17269680Y-10996201D01*
X17269680Y-10996201D02*
X17269680Y-10958106D01*
X17269680Y-10958106D02*
X17279204Y-10910487D01*
X17279204Y-10910487D02*
X17288728Y-10881915D01*
X17288728Y-10881915D02*
X17298251Y-10862868D01*
X17298251Y-10862868D02*
X17317299Y-10834296D01*
X17317299Y-10834296D02*
X17326823Y-10824772D01*
X17488728Y-10920010D02*
X17488728Y-11053344D01*
X17441109Y-10843820D02*
X17393490Y-10986677D01*
X17393490Y-10986677D02*
X17517299Y-10986677D01*
X17745871Y-11053344D02*
X17745871Y-10853344D01*
X17831585Y-11053344D02*
X17831585Y-10948582D01*
X17831585Y-10948582D02*
X17822061Y-10929534D01*
X17822061Y-10929534D02*
X17803013Y-10920010D01*
X17803013Y-10920010D02*
X17774442Y-10920010D01*
X17774442Y-10920010D02*
X17755394Y-10929534D01*
X17755394Y-10929534D02*
X17745871Y-10939058D01*
X17955394Y-11053344D02*
X17936347Y-11043820D01*
X17936347Y-11043820D02*
X17926823Y-11034296D01*
X17926823Y-11034296D02*
X17917299Y-11015249D01*
X17917299Y-11015249D02*
X17917299Y-10958106D01*
X17917299Y-10958106D02*
X17926823Y-10939058D01*
X17926823Y-10939058D02*
X17936347Y-10929534D01*
X17936347Y-10929534D02*
X17955394Y-10920010D01*
X17955394Y-10920010D02*
X17983966Y-10920010D01*
X17983966Y-10920010D02*
X18003013Y-10929534D01*
X18003013Y-10929534D02*
X18012537Y-10939058D01*
X18012537Y-10939058D02*
X18022061Y-10958106D01*
X18022061Y-10958106D02*
X18022061Y-11015249D01*
X18022061Y-11015249D02*
X18012537Y-11034296D01*
X18012537Y-11034296D02*
X18003013Y-11043820D01*
X18003013Y-11043820D02*
X17983966Y-11053344D01*
X17983966Y-11053344D02*
X17955394Y-11053344D01*
X18136347Y-11053344D02*
X18117299Y-11043820D01*
X18117299Y-11043820D02*
X18107775Y-11024772D01*
X18107775Y-11024772D02*
X18107775Y-10853344D01*
X18288728Y-11043820D02*
X18269680Y-11053344D01*
X18269680Y-11053344D02*
X18231585Y-11053344D01*
X18231585Y-11053344D02*
X18212537Y-11043820D01*
X18212537Y-11043820D02*
X18203013Y-11024772D01*
X18203013Y-11024772D02*
X18203013Y-10948582D01*
X18203013Y-10948582D02*
X18212537Y-10929534D01*
X18212537Y-10929534D02*
X18231585Y-10920010D01*
X18231585Y-10920010D02*
X18269680Y-10920010D01*
X18269680Y-10920010D02*
X18288728Y-10929534D01*
X18288728Y-10929534D02*
X18298252Y-10948582D01*
X18298252Y-10948582D02*
X18298252Y-10967630D01*
X18298252Y-10967630D02*
X18203013Y-10986677D01*
X18374442Y-11043820D02*
X18393490Y-11053344D01*
X18393490Y-11053344D02*
X18431585Y-11053344D01*
X18431585Y-11053344D02*
X18450633Y-11043820D01*
X18450633Y-11043820D02*
X18460156Y-11024772D01*
X18460156Y-11024772D02*
X18460156Y-11015249D01*
X18460156Y-11015249D02*
X18450633Y-10996201D01*
X18450633Y-10996201D02*
X18431585Y-10986677D01*
X18431585Y-10986677D02*
X18403013Y-10986677D01*
X18403013Y-10986677D02*
X18383966Y-10977153D01*
X18383966Y-10977153D02*
X18374442Y-10958106D01*
X18374442Y-10958106D02*
X18374442Y-10948582D01*
X18374442Y-10948582D02*
X18383966Y-10929534D01*
X18383966Y-10929534D02*
X18403013Y-10920010D01*
X18403013Y-10920010D02*
X18431585Y-10920010D01*
X18431585Y-10920010D02*
X18450633Y-10929534D01*
X18526823Y-11129534D02*
X18536347Y-11120010D01*
X18536347Y-11120010D02*
X18555394Y-11091439D01*
X18555394Y-11091439D02*
X18564918Y-11072391D01*
X18564918Y-11072391D02*
X18574442Y-11043820D01*
X18574442Y-11043820D02*
X18583966Y-10996201D01*
X18583966Y-10996201D02*
X18583966Y-10958106D01*
X18583966Y-10958106D02*
X18574442Y-10910487D01*
X18574442Y-10910487D02*
X18564918Y-10881915D01*
X18564918Y-10881915D02*
X18555394Y-10862868D01*
X18555394Y-10862868D02*
X18536347Y-10834296D01*
X18536347Y-10834296D02*
X18526823Y-10824772D01*
X18888728Y-11129534D02*
X18879204Y-11120010D01*
X18879204Y-11120010D02*
X18860156Y-11091439D01*
X18860156Y-11091439D02*
X18850633Y-11072391D01*
X18850633Y-11072391D02*
X18841109Y-11043820D01*
X18841109Y-11043820D02*
X18831585Y-10996201D01*
X18831585Y-10996201D02*
X18831585Y-10958106D01*
X18831585Y-10958106D02*
X18841109Y-10910487D01*
X18841109Y-10910487D02*
X18850633Y-10881915D01*
X18850633Y-10881915D02*
X18860156Y-10862868D01*
X18860156Y-10862868D02*
X18879204Y-10834296D01*
X18879204Y-10834296D02*
X18888728Y-10824772D01*
X18964918Y-10920010D02*
X18964918Y-11053344D01*
X18964918Y-10939058D02*
X18974442Y-10929534D01*
X18974442Y-10929534D02*
X18993490Y-10920010D01*
X18993490Y-10920010D02*
X19022061Y-10920010D01*
X19022061Y-10920010D02*
X19041109Y-10929534D01*
X19041109Y-10929534D02*
X19050633Y-10948582D01*
X19050633Y-10948582D02*
X19050633Y-11053344D01*
X19174442Y-11053344D02*
X19155394Y-11043820D01*
X19155394Y-11043820D02*
X19145871Y-11034296D01*
X19145871Y-11034296D02*
X19136347Y-11015249D01*
X19136347Y-11015249D02*
X19136347Y-10958106D01*
X19136347Y-10958106D02*
X19145871Y-10939058D01*
X19145871Y-10939058D02*
X19155394Y-10929534D01*
X19155394Y-10929534D02*
X19174442Y-10920010D01*
X19174442Y-10920010D02*
X19203014Y-10920010D01*
X19203014Y-10920010D02*
X19222061Y-10929534D01*
X19222061Y-10929534D02*
X19231585Y-10939058D01*
X19231585Y-10939058D02*
X19241109Y-10958106D01*
X19241109Y-10958106D02*
X19241109Y-11015249D01*
X19241109Y-11015249D02*
X19231585Y-11034296D01*
X19231585Y-11034296D02*
X19222061Y-11043820D01*
X19222061Y-11043820D02*
X19203014Y-11053344D01*
X19203014Y-11053344D02*
X19174442Y-11053344D01*
X19298252Y-10920010D02*
X19374442Y-10920010D01*
X19326823Y-10853344D02*
X19326823Y-11024772D01*
X19326823Y-11024772D02*
X19336347Y-11043820D01*
X19336347Y-11043820D02*
X19355394Y-11053344D01*
X19355394Y-11053344D02*
X19374442Y-11053344D01*
X19593490Y-10920010D02*
X19593490Y-11120010D01*
X19593490Y-10929534D02*
X19612537Y-10920010D01*
X19612537Y-10920010D02*
X19650633Y-10920010D01*
X19650633Y-10920010D02*
X19669680Y-10929534D01*
X19669680Y-10929534D02*
X19679204Y-10939058D01*
X19679204Y-10939058D02*
X19688728Y-10958106D01*
X19688728Y-10958106D02*
X19688728Y-11015249D01*
X19688728Y-11015249D02*
X19679204Y-11034296D01*
X19679204Y-11034296D02*
X19669680Y-11043820D01*
X19669680Y-11043820D02*
X19650633Y-11053344D01*
X19650633Y-11053344D02*
X19612537Y-11053344D01*
X19612537Y-11053344D02*
X19593490Y-11043820D01*
X19803014Y-11053344D02*
X19783966Y-11043820D01*
X19783966Y-11043820D02*
X19774442Y-11024772D01*
X19774442Y-11024772D02*
X19774442Y-10853344D01*
X19964918Y-11053344D02*
X19964918Y-10948582D01*
X19964918Y-10948582D02*
X19955395Y-10929534D01*
X19955395Y-10929534D02*
X19936347Y-10920010D01*
X19936347Y-10920010D02*
X19898252Y-10920010D01*
X19898252Y-10920010D02*
X19879204Y-10929534D01*
X19964918Y-11043820D02*
X19945871Y-11053344D01*
X19945871Y-11053344D02*
X19898252Y-11053344D01*
X19898252Y-11053344D02*
X19879204Y-11043820D01*
X19879204Y-11043820D02*
X19869680Y-11024772D01*
X19869680Y-11024772D02*
X19869680Y-11005725D01*
X19869680Y-11005725D02*
X19879204Y-10986677D01*
X19879204Y-10986677D02*
X19898252Y-10977153D01*
X19898252Y-10977153D02*
X19945871Y-10977153D01*
X19945871Y-10977153D02*
X19964918Y-10967630D01*
X20031585Y-10920010D02*
X20107775Y-10920010D01*
X20060156Y-10853344D02*
X20060156Y-11024772D01*
X20060156Y-11024772D02*
X20069680Y-11043820D01*
X20069680Y-11043820D02*
X20088728Y-11053344D01*
X20088728Y-11053344D02*
X20107775Y-11053344D01*
X20250633Y-11043820D02*
X20231585Y-11053344D01*
X20231585Y-11053344D02*
X20193490Y-11053344D01*
X20193490Y-11053344D02*
X20174442Y-11043820D01*
X20174442Y-11043820D02*
X20164918Y-11024772D01*
X20164918Y-11024772D02*
X20164918Y-10948582D01*
X20164918Y-10948582D02*
X20174442Y-10929534D01*
X20174442Y-10929534D02*
X20193490Y-10920010D01*
X20193490Y-10920010D02*
X20231585Y-10920010D01*
X20231585Y-10920010D02*
X20250633Y-10929534D01*
X20250633Y-10929534D02*
X20260156Y-10948582D01*
X20260156Y-10948582D02*
X20260156Y-10967630D01*
X20260156Y-10967630D02*
X20164918Y-10986677D01*
X20431585Y-11053344D02*
X20431585Y-10853344D01*
X20431585Y-11043820D02*
X20412537Y-11053344D01*
X20412537Y-11053344D02*
X20374442Y-11053344D01*
X20374442Y-11053344D02*
X20355395Y-11043820D01*
X20355395Y-11043820D02*
X20345871Y-11034296D01*
X20345871Y-11034296D02*
X20336347Y-11015249D01*
X20336347Y-11015249D02*
X20336347Y-10958106D01*
X20336347Y-10958106D02*
X20345871Y-10939058D01*
X20345871Y-10939058D02*
X20355395Y-10929534D01*
X20355395Y-10929534D02*
X20374442Y-10920010D01*
X20374442Y-10920010D02*
X20412537Y-10920010D01*
X20412537Y-10920010D02*
X20431585Y-10929534D01*
X20507776Y-11129534D02*
X20517299Y-11120010D01*
X20517299Y-11120010D02*
X20536347Y-11091439D01*
X20536347Y-11091439D02*
X20545871Y-11072391D01*
X20545871Y-11072391D02*
X20555395Y-11043820D01*
X20555395Y-11043820D02*
X20564918Y-10996201D01*
X20564918Y-10996201D02*
X20564918Y-10958106D01*
X20564918Y-10958106D02*
X20555395Y-10910487D01*
X20555395Y-10910487D02*
X20545871Y-10881915D01*
X20545871Y-10881915D02*
X20536347Y-10862868D01*
X20536347Y-10862868D02*
X20517299Y-10834296D01*
X20517299Y-10834296D02*
X20507776Y-10824772D01*
X13751760Y-11231860D02*
G75*
G02*
X13551760Y-11231860I-100000J0D01*
G01*
X13551760Y-11231860D02*
G75*
G02*
X13751760Y-11231860I100000J0D01*
G01*
X14003013Y-11142391D02*
X14012537Y-11132868D01*
X14012537Y-11132868D02*
X14031584Y-11123344D01*
X14031584Y-11123344D02*
X14079203Y-11123344D01*
X14079203Y-11123344D02*
X14098251Y-11132868D01*
X14098251Y-11132868D02*
X14107775Y-11142391D01*
X14107775Y-11142391D02*
X14117299Y-11161439D01*
X14117299Y-11161439D02*
X14117299Y-11180487D01*
X14117299Y-11180487D02*
X14107775Y-11209058D01*
X14107775Y-11209058D02*
X13993489Y-11323344D01*
X13993489Y-11323344D02*
X14117299Y-11323344D01*
X14203013Y-11304296D02*
X14212537Y-11313820D01*
X14212537Y-11313820D02*
X14203013Y-11323344D01*
X14203013Y-11323344D02*
X14193489Y-11313820D01*
X14193489Y-11313820D02*
X14203013Y-11304296D01*
X14203013Y-11304296D02*
X14203013Y-11323344D01*
X14336346Y-11123344D02*
X14355394Y-11123344D01*
X14355394Y-11123344D02*
X14374442Y-11132868D01*
X14374442Y-11132868D02*
X14383965Y-11142391D01*
X14383965Y-11142391D02*
X14393489Y-11161439D01*
X14393489Y-11161439D02*
X14403013Y-11199534D01*
X14403013Y-11199534D02*
X14403013Y-11247153D01*
X14403013Y-11247153D02*
X14393489Y-11285248D01*
X14393489Y-11285248D02*
X14383965Y-11304296D01*
X14383965Y-11304296D02*
X14374442Y-11313820D01*
X14374442Y-11313820D02*
X14355394Y-11323344D01*
X14355394Y-11323344D02*
X14336346Y-11323344D01*
X14336346Y-11323344D02*
X14317299Y-11313820D01*
X14317299Y-11313820D02*
X14307775Y-11304296D01*
X14307775Y-11304296D02*
X14298251Y-11285248D01*
X14298251Y-11285248D02*
X14288727Y-11247153D01*
X14288727Y-11247153D02*
X14288727Y-11199534D01*
X14288727Y-11199534D02*
X14298251Y-11161439D01*
X14298251Y-11161439D02*
X14307775Y-11142391D01*
X14307775Y-11142391D02*
X14317299Y-11132868D01*
X14317299Y-11132868D02*
X14336346Y-11123344D01*
X14526822Y-11123344D02*
X14545870Y-11123344D01*
X14545870Y-11123344D02*
X14564918Y-11132868D01*
X14564918Y-11132868D02*
X14574442Y-11142391D01*
X14574442Y-11142391D02*
X14583965Y-11161439D01*
X14583965Y-11161439D02*
X14593489Y-11199534D01*
X14593489Y-11199534D02*
X14593489Y-11247153D01*
X14593489Y-11247153D02*
X14583965Y-11285248D01*
X14583965Y-11285248D02*
X14574442Y-11304296D01*
X14574442Y-11304296D02*
X14564918Y-11313820D01*
X14564918Y-11313820D02*
X14545870Y-11323344D01*
X14545870Y-11323344D02*
X14526822Y-11323344D01*
X14526822Y-11323344D02*
X14507775Y-11313820D01*
X14507775Y-11313820D02*
X14498251Y-11304296D01*
X14498251Y-11304296D02*
X14488727Y-11285248D01*
X14488727Y-11285248D02*
X14479203Y-11247153D01*
X14479203Y-11247153D02*
X14479203Y-11199534D01*
X14479203Y-11199534D02*
X14488727Y-11161439D01*
X14488727Y-11161439D02*
X14498251Y-11142391D01*
X14498251Y-11142391D02*
X14507775Y-11132868D01*
X14507775Y-11132868D02*
X14526822Y-11123344D01*
X14717299Y-11123344D02*
X14736346Y-11123344D01*
X14736346Y-11123344D02*
X14755394Y-11132868D01*
X14755394Y-11132868D02*
X14764918Y-11142391D01*
X14764918Y-11142391D02*
X14774442Y-11161439D01*
X14774442Y-11161439D02*
X14783965Y-11199534D01*
X14783965Y-11199534D02*
X14783965Y-11247153D01*
X14783965Y-11247153D02*
X14774442Y-11285248D01*
X14774442Y-11285248D02*
X14764918Y-11304296D01*
X14764918Y-11304296D02*
X14755394Y-11313820D01*
X14755394Y-11313820D02*
X14736346Y-11323344D01*
X14736346Y-11323344D02*
X14717299Y-11323344D01*
X14717299Y-11323344D02*
X14698251Y-11313820D01*
X14698251Y-11313820D02*
X14688727Y-11304296D01*
X14688727Y-11304296D02*
X14679203Y-11285248D01*
X14679203Y-11285248D02*
X14669680Y-11247153D01*
X14669680Y-11247153D02*
X14669680Y-11199534D01*
X14669680Y-11199534D02*
X14679203Y-11161439D01*
X14679203Y-11161439D02*
X14688727Y-11142391D01*
X14688727Y-11142391D02*
X14698251Y-11132868D01*
X14698251Y-11132868D02*
X14717299Y-11123344D01*
X14869680Y-11323344D02*
X14869680Y-11190010D01*
X14869680Y-11209058D02*
X14879203Y-11199534D01*
X14879203Y-11199534D02*
X14898251Y-11190010D01*
X14898251Y-11190010D02*
X14926823Y-11190010D01*
X14926823Y-11190010D02*
X14945870Y-11199534D01*
X14945870Y-11199534D02*
X14955394Y-11218582D01*
X14955394Y-11218582D02*
X14955394Y-11323344D01*
X14955394Y-11218582D02*
X14964918Y-11199534D01*
X14964918Y-11199534D02*
X14983965Y-11190010D01*
X14983965Y-11190010D02*
X15012537Y-11190010D01*
X15012537Y-11190010D02*
X15031584Y-11199534D01*
X15031584Y-11199534D02*
X15041108Y-11218582D01*
X15041108Y-11218582D02*
X15041108Y-11323344D01*
X15136346Y-11323344D02*
X15136346Y-11190010D01*
X15136346Y-11209058D02*
X15145870Y-11199534D01*
X15145870Y-11199534D02*
X15164918Y-11190010D01*
X15164918Y-11190010D02*
X15193489Y-11190010D01*
X15193489Y-11190010D02*
X15212537Y-11199534D01*
X15212537Y-11199534D02*
X15222061Y-11218582D01*
X15222061Y-11218582D02*
X15222061Y-11323344D01*
X15222061Y-11218582D02*
X15231584Y-11199534D01*
X15231584Y-11199534D02*
X15250632Y-11190010D01*
X15250632Y-11190010D02*
X15279203Y-11190010D01*
X15279203Y-11190010D02*
X15298251Y-11199534D01*
X15298251Y-11199534D02*
X15307775Y-11218582D01*
X15307775Y-11218582D02*
X15307775Y-11323344D01*
X15698251Y-11113820D02*
X15526823Y-11370963D01*
X15955394Y-11123344D02*
X15974442Y-11123344D01*
X15974442Y-11123344D02*
X15993489Y-11132868D01*
X15993489Y-11132868D02*
X16003013Y-11142391D01*
X16003013Y-11142391D02*
X16012537Y-11161439D01*
X16012537Y-11161439D02*
X16022061Y-11199534D01*
X16022061Y-11199534D02*
X16022061Y-11247153D01*
X16022061Y-11247153D02*
X16012537Y-11285248D01*
X16012537Y-11285248D02*
X16003013Y-11304296D01*
X16003013Y-11304296D02*
X15993489Y-11313820D01*
X15993489Y-11313820D02*
X15974442Y-11323344D01*
X15974442Y-11323344D02*
X15955394Y-11323344D01*
X15955394Y-11323344D02*
X15936346Y-11313820D01*
X15936346Y-11313820D02*
X15926823Y-11304296D01*
X15926823Y-11304296D02*
X15917299Y-11285248D01*
X15917299Y-11285248D02*
X15907775Y-11247153D01*
X15907775Y-11247153D02*
X15907775Y-11199534D01*
X15907775Y-11199534D02*
X15917299Y-11161439D01*
X15917299Y-11161439D02*
X15926823Y-11142391D01*
X15926823Y-11142391D02*
X15936346Y-11132868D01*
X15936346Y-11132868D02*
X15955394Y-11123344D01*
X16107775Y-11304296D02*
X16117299Y-11313820D01*
X16117299Y-11313820D02*
X16107775Y-11323344D01*
X16107775Y-11323344D02*
X16098251Y-11313820D01*
X16098251Y-11313820D02*
X16107775Y-11304296D01*
X16107775Y-11304296D02*
X16107775Y-11323344D01*
X16241108Y-11123344D02*
X16260156Y-11123344D01*
X16260156Y-11123344D02*
X16279204Y-11132868D01*
X16279204Y-11132868D02*
X16288727Y-11142391D01*
X16288727Y-11142391D02*
X16298251Y-11161439D01*
X16298251Y-11161439D02*
X16307775Y-11199534D01*
X16307775Y-11199534D02*
X16307775Y-11247153D01*
X16307775Y-11247153D02*
X16298251Y-11285248D01*
X16298251Y-11285248D02*
X16288727Y-11304296D01*
X16288727Y-11304296D02*
X16279204Y-11313820D01*
X16279204Y-11313820D02*
X16260156Y-11323344D01*
X16260156Y-11323344D02*
X16241108Y-11323344D01*
X16241108Y-11323344D02*
X16222061Y-11313820D01*
X16222061Y-11313820D02*
X16212537Y-11304296D01*
X16212537Y-11304296D02*
X16203013Y-11285248D01*
X16203013Y-11285248D02*
X16193489Y-11247153D01*
X16193489Y-11247153D02*
X16193489Y-11199534D01*
X16193489Y-11199534D02*
X16203013Y-11161439D01*
X16203013Y-11161439D02*
X16212537Y-11142391D01*
X16212537Y-11142391D02*
X16222061Y-11132868D01*
X16222061Y-11132868D02*
X16241108Y-11123344D01*
X16374442Y-11123344D02*
X16507775Y-11123344D01*
X16507775Y-11123344D02*
X16422061Y-11323344D01*
X16612537Y-11209058D02*
X16593489Y-11199534D01*
X16593489Y-11199534D02*
X16583966Y-11190010D01*
X16583966Y-11190010D02*
X16574442Y-11170963D01*
X16574442Y-11170963D02*
X16574442Y-11161439D01*
X16574442Y-11161439D02*
X16583966Y-11142391D01*
X16583966Y-11142391D02*
X16593489Y-11132868D01*
X16593489Y-11132868D02*
X16612537Y-11123344D01*
X16612537Y-11123344D02*
X16650632Y-11123344D01*
X16650632Y-11123344D02*
X16669680Y-11132868D01*
X16669680Y-11132868D02*
X16679204Y-11142391D01*
X16679204Y-11142391D02*
X16688727Y-11161439D01*
X16688727Y-11161439D02*
X16688727Y-11170963D01*
X16688727Y-11170963D02*
X16679204Y-11190010D01*
X16679204Y-11190010D02*
X16669680Y-11199534D01*
X16669680Y-11199534D02*
X16650632Y-11209058D01*
X16650632Y-11209058D02*
X16612537Y-11209058D01*
X16612537Y-11209058D02*
X16593489Y-11218582D01*
X16593489Y-11218582D02*
X16583966Y-11228106D01*
X16583966Y-11228106D02*
X16574442Y-11247153D01*
X16574442Y-11247153D02*
X16574442Y-11285248D01*
X16574442Y-11285248D02*
X16583966Y-11304296D01*
X16583966Y-11304296D02*
X16593489Y-11313820D01*
X16593489Y-11313820D02*
X16612537Y-11323344D01*
X16612537Y-11323344D02*
X16650632Y-11323344D01*
X16650632Y-11323344D02*
X16669680Y-11313820D01*
X16669680Y-11313820D02*
X16679204Y-11304296D01*
X16679204Y-11304296D02*
X16688727Y-11285248D01*
X16688727Y-11285248D02*
X16688727Y-11247153D01*
X16688727Y-11247153D02*
X16679204Y-11228106D01*
X16679204Y-11228106D02*
X16669680Y-11218582D01*
X16669680Y-11218582D02*
X16650632Y-11209058D01*
X16755394Y-11123344D02*
X16888728Y-11123344D01*
X16888728Y-11123344D02*
X16803013Y-11323344D01*
X16955394Y-11123344D02*
X16955394Y-11161439D01*
X17031585Y-11123344D02*
X17031585Y-11161439D01*
X17326823Y-11399534D02*
X17317299Y-11390010D01*
X17317299Y-11390010D02*
X17298251Y-11361439D01*
X17298251Y-11361439D02*
X17288728Y-11342391D01*
X17288728Y-11342391D02*
X17279204Y-11313820D01*
X17279204Y-11313820D02*
X17269680Y-11266201D01*
X17269680Y-11266201D02*
X17269680Y-11228106D01*
X17269680Y-11228106D02*
X17279204Y-11180487D01*
X17279204Y-11180487D02*
X17288728Y-11151915D01*
X17288728Y-11151915D02*
X17298251Y-11132868D01*
X17298251Y-11132868D02*
X17317299Y-11104296D01*
X17317299Y-11104296D02*
X17326823Y-11094772D01*
X17488728Y-11190010D02*
X17488728Y-11323344D01*
X17441109Y-11113820D02*
X17393490Y-11256677D01*
X17393490Y-11256677D02*
X17517299Y-11256677D01*
X17745871Y-11323344D02*
X17745871Y-11123344D01*
X17831585Y-11323344D02*
X17831585Y-11218582D01*
X17831585Y-11218582D02*
X17822061Y-11199534D01*
X17822061Y-11199534D02*
X17803013Y-11190010D01*
X17803013Y-11190010D02*
X17774442Y-11190010D01*
X17774442Y-11190010D02*
X17755394Y-11199534D01*
X17755394Y-11199534D02*
X17745871Y-11209058D01*
X17955394Y-11323344D02*
X17936347Y-11313820D01*
X17936347Y-11313820D02*
X17926823Y-11304296D01*
X17926823Y-11304296D02*
X17917299Y-11285248D01*
X17917299Y-11285248D02*
X17917299Y-11228106D01*
X17917299Y-11228106D02*
X17926823Y-11209058D01*
X17926823Y-11209058D02*
X17936347Y-11199534D01*
X17936347Y-11199534D02*
X17955394Y-11190010D01*
X17955394Y-11190010D02*
X17983966Y-11190010D01*
X17983966Y-11190010D02*
X18003013Y-11199534D01*
X18003013Y-11199534D02*
X18012537Y-11209058D01*
X18012537Y-11209058D02*
X18022061Y-11228106D01*
X18022061Y-11228106D02*
X18022061Y-11285248D01*
X18022061Y-11285248D02*
X18012537Y-11304296D01*
X18012537Y-11304296D02*
X18003013Y-11313820D01*
X18003013Y-11313820D02*
X17983966Y-11323344D01*
X17983966Y-11323344D02*
X17955394Y-11323344D01*
X18136347Y-11323344D02*
X18117299Y-11313820D01*
X18117299Y-11313820D02*
X18107775Y-11294772D01*
X18107775Y-11294772D02*
X18107775Y-11123344D01*
X18288728Y-11313820D02*
X18269680Y-11323344D01*
X18269680Y-11323344D02*
X18231585Y-11323344D01*
X18231585Y-11323344D02*
X18212537Y-11313820D01*
X18212537Y-11313820D02*
X18203013Y-11294772D01*
X18203013Y-11294772D02*
X18203013Y-11218582D01*
X18203013Y-11218582D02*
X18212537Y-11199534D01*
X18212537Y-11199534D02*
X18231585Y-11190010D01*
X18231585Y-11190010D02*
X18269680Y-11190010D01*
X18269680Y-11190010D02*
X18288728Y-11199534D01*
X18288728Y-11199534D02*
X18298252Y-11218582D01*
X18298252Y-11218582D02*
X18298252Y-11237629D01*
X18298252Y-11237629D02*
X18203013Y-11256677D01*
X18374442Y-11313820D02*
X18393490Y-11323344D01*
X18393490Y-11323344D02*
X18431585Y-11323344D01*
X18431585Y-11323344D02*
X18450633Y-11313820D01*
X18450633Y-11313820D02*
X18460156Y-11294772D01*
X18460156Y-11294772D02*
X18460156Y-11285248D01*
X18460156Y-11285248D02*
X18450633Y-11266201D01*
X18450633Y-11266201D02*
X18431585Y-11256677D01*
X18431585Y-11256677D02*
X18403013Y-11256677D01*
X18403013Y-11256677D02*
X18383966Y-11247153D01*
X18383966Y-11247153D02*
X18374442Y-11228106D01*
X18374442Y-11228106D02*
X18374442Y-11218582D01*
X18374442Y-11218582D02*
X18383966Y-11199534D01*
X18383966Y-11199534D02*
X18403013Y-11190010D01*
X18403013Y-11190010D02*
X18431585Y-11190010D01*
X18431585Y-11190010D02*
X18450633Y-11199534D01*
X18526823Y-11399534D02*
X18536347Y-11390010D01*
X18536347Y-11390010D02*
X18555394Y-11361439D01*
X18555394Y-11361439D02*
X18564918Y-11342391D01*
X18564918Y-11342391D02*
X18574442Y-11313820D01*
X18574442Y-11313820D02*
X18583966Y-11266201D01*
X18583966Y-11266201D02*
X18583966Y-11228106D01*
X18583966Y-11228106D02*
X18574442Y-11180487D01*
X18574442Y-11180487D02*
X18564918Y-11151915D01*
X18564918Y-11151915D02*
X18555394Y-11132868D01*
X18555394Y-11132868D02*
X18536347Y-11104296D01*
X18536347Y-11104296D02*
X18526823Y-11094772D01*
X18888728Y-11399534D02*
X18879204Y-11390010D01*
X18879204Y-11390010D02*
X18860156Y-11361439D01*
X18860156Y-11361439D02*
X18850633Y-11342391D01*
X18850633Y-11342391D02*
X18841109Y-11313820D01*
X18841109Y-11313820D02*
X18831585Y-11266201D01*
X18831585Y-11266201D02*
X18831585Y-11228106D01*
X18831585Y-11228106D02*
X18841109Y-11180487D01*
X18841109Y-11180487D02*
X18850633Y-11151915D01*
X18850633Y-11151915D02*
X18860156Y-11132868D01*
X18860156Y-11132868D02*
X18879204Y-11104296D01*
X18879204Y-11104296D02*
X18888728Y-11094772D01*
X18964918Y-11190010D02*
X18964918Y-11323344D01*
X18964918Y-11209058D02*
X18974442Y-11199534D01*
X18974442Y-11199534D02*
X18993490Y-11190010D01*
X18993490Y-11190010D02*
X19022061Y-11190010D01*
X19022061Y-11190010D02*
X19041109Y-11199534D01*
X19041109Y-11199534D02*
X19050633Y-11218582D01*
X19050633Y-11218582D02*
X19050633Y-11323344D01*
X19174442Y-11323344D02*
X19155394Y-11313820D01*
X19155394Y-11313820D02*
X19145871Y-11304296D01*
X19145871Y-11304296D02*
X19136347Y-11285248D01*
X19136347Y-11285248D02*
X19136347Y-11228106D01*
X19136347Y-11228106D02*
X19145871Y-11209058D01*
X19145871Y-11209058D02*
X19155394Y-11199534D01*
X19155394Y-11199534D02*
X19174442Y-11190010D01*
X19174442Y-11190010D02*
X19203014Y-11190010D01*
X19203014Y-11190010D02*
X19222061Y-11199534D01*
X19222061Y-11199534D02*
X19231585Y-11209058D01*
X19231585Y-11209058D02*
X19241109Y-11228106D01*
X19241109Y-11228106D02*
X19241109Y-11285248D01*
X19241109Y-11285248D02*
X19231585Y-11304296D01*
X19231585Y-11304296D02*
X19222061Y-11313820D01*
X19222061Y-11313820D02*
X19203014Y-11323344D01*
X19203014Y-11323344D02*
X19174442Y-11323344D01*
X19298252Y-11190010D02*
X19374442Y-11190010D01*
X19326823Y-11123344D02*
X19326823Y-11294772D01*
X19326823Y-11294772D02*
X19336347Y-11313820D01*
X19336347Y-11313820D02*
X19355394Y-11323344D01*
X19355394Y-11323344D02*
X19374442Y-11323344D01*
X19593490Y-11190010D02*
X19593490Y-11390010D01*
X19593490Y-11199534D02*
X19612537Y-11190010D01*
X19612537Y-11190010D02*
X19650633Y-11190010D01*
X19650633Y-11190010D02*
X19669680Y-11199534D01*
X19669680Y-11199534D02*
X19679204Y-11209058D01*
X19679204Y-11209058D02*
X19688728Y-11228106D01*
X19688728Y-11228106D02*
X19688728Y-11285248D01*
X19688728Y-11285248D02*
X19679204Y-11304296D01*
X19679204Y-11304296D02*
X19669680Y-11313820D01*
X19669680Y-11313820D02*
X19650633Y-11323344D01*
X19650633Y-11323344D02*
X19612537Y-11323344D01*
X19612537Y-11323344D02*
X19593490Y-11313820D01*
X19803014Y-11323344D02*
X19783966Y-11313820D01*
X19783966Y-11313820D02*
X19774442Y-11294772D01*
X19774442Y-11294772D02*
X19774442Y-11123344D01*
X19964918Y-11323344D02*
X19964918Y-11218582D01*
X19964918Y-11218582D02*
X19955395Y-11199534D01*
X19955395Y-11199534D02*
X19936347Y-11190010D01*
X19936347Y-11190010D02*
X19898252Y-11190010D01*
X19898252Y-11190010D02*
X19879204Y-11199534D01*
X19964918Y-11313820D02*
X19945871Y-11323344D01*
X19945871Y-11323344D02*
X19898252Y-11323344D01*
X19898252Y-11323344D02*
X19879204Y-11313820D01*
X19879204Y-11313820D02*
X19869680Y-11294772D01*
X19869680Y-11294772D02*
X19869680Y-11275725D01*
X19869680Y-11275725D02*
X19879204Y-11256677D01*
X19879204Y-11256677D02*
X19898252Y-11247153D01*
X19898252Y-11247153D02*
X19945871Y-11247153D01*
X19945871Y-11247153D02*
X19964918Y-11237629D01*
X20031585Y-11190010D02*
X20107775Y-11190010D01*
X20060156Y-11123344D02*
X20060156Y-11294772D01*
X20060156Y-11294772D02*
X20069680Y-11313820D01*
X20069680Y-11313820D02*
X20088728Y-11323344D01*
X20088728Y-11323344D02*
X20107775Y-11323344D01*
X20250633Y-11313820D02*
X20231585Y-11323344D01*
X20231585Y-11323344D02*
X20193490Y-11323344D01*
X20193490Y-11323344D02*
X20174442Y-11313820D01*
X20174442Y-11313820D02*
X20164918Y-11294772D01*
X20164918Y-11294772D02*
X20164918Y-11218582D01*
X20164918Y-11218582D02*
X20174442Y-11199534D01*
X20174442Y-11199534D02*
X20193490Y-11190010D01*
X20193490Y-11190010D02*
X20231585Y-11190010D01*
X20231585Y-11190010D02*
X20250633Y-11199534D01*
X20250633Y-11199534D02*
X20260156Y-11218582D01*
X20260156Y-11218582D02*
X20260156Y-11237629D01*
X20260156Y-11237629D02*
X20164918Y-11256677D01*
X20431585Y-11323344D02*
X20431585Y-11123344D01*
X20431585Y-11313820D02*
X20412537Y-11323344D01*
X20412537Y-11323344D02*
X20374442Y-11323344D01*
X20374442Y-11323344D02*
X20355395Y-11313820D01*
X20355395Y-11313820D02*
X20345871Y-11304296D01*
X20345871Y-11304296D02*
X20336347Y-11285248D01*
X20336347Y-11285248D02*
X20336347Y-11228106D01*
X20336347Y-11228106D02*
X20345871Y-11209058D01*
X20345871Y-11209058D02*
X20355395Y-11199534D01*
X20355395Y-11199534D02*
X20374442Y-11190010D01*
X20374442Y-11190010D02*
X20412537Y-11190010D01*
X20412537Y-11190010D02*
X20431585Y-11199534D01*
X20507776Y-11399534D02*
X20517299Y-11390010D01*
X20517299Y-11390010D02*
X20536347Y-11361439D01*
X20536347Y-11361439D02*
X20545871Y-11342391D01*
X20545871Y-11342391D02*
X20555395Y-11313820D01*
X20555395Y-11313820D02*
X20564918Y-11266201D01*
X20564918Y-11266201D02*
X20564918Y-11228106D01*
X20564918Y-11228106D02*
X20555395Y-11180487D01*
X20555395Y-11180487D02*
X20545871Y-11151915D01*
X20545871Y-11151915D02*
X20536347Y-11132868D01*
X20536347Y-11132868D02*
X20517299Y-11104296D01*
X20517299Y-11104296D02*
X20507776Y-11094772D01*
X13651760Y-11451860D02*
X13651760Y-11651860D01*
X13551760Y-11551860D02*
X13751760Y-11551860D01*
X14003013Y-11462391D02*
X14012537Y-11452868D01*
X14012537Y-11452868D02*
X14031584Y-11443344D01*
X14031584Y-11443344D02*
X14079203Y-11443344D01*
X14079203Y-11443344D02*
X14098251Y-11452868D01*
X14098251Y-11452868D02*
X14107775Y-11462391D01*
X14107775Y-11462391D02*
X14117299Y-11481439D01*
X14117299Y-11481439D02*
X14117299Y-11500487D01*
X14117299Y-11500487D02*
X14107775Y-11529058D01*
X14107775Y-11529058D02*
X13993489Y-11643344D01*
X13993489Y-11643344D02*
X14117299Y-11643344D01*
X14203013Y-11624296D02*
X14212537Y-11633820D01*
X14212537Y-11633820D02*
X14203013Y-11643344D01*
X14203013Y-11643344D02*
X14193489Y-11633820D01*
X14193489Y-11633820D02*
X14203013Y-11624296D01*
X14203013Y-11624296D02*
X14203013Y-11643344D01*
X14288727Y-11462391D02*
X14298251Y-11452868D01*
X14298251Y-11452868D02*
X14317299Y-11443344D01*
X14317299Y-11443344D02*
X14364918Y-11443344D01*
X14364918Y-11443344D02*
X14383965Y-11452868D01*
X14383965Y-11452868D02*
X14393489Y-11462391D01*
X14393489Y-11462391D02*
X14403013Y-11481439D01*
X14403013Y-11481439D02*
X14403013Y-11500487D01*
X14403013Y-11500487D02*
X14393489Y-11529058D01*
X14393489Y-11529058D02*
X14279203Y-11643344D01*
X14279203Y-11643344D02*
X14403013Y-11643344D01*
X14526822Y-11443344D02*
X14545870Y-11443344D01*
X14545870Y-11443344D02*
X14564918Y-11452868D01*
X14564918Y-11452868D02*
X14574442Y-11462391D01*
X14574442Y-11462391D02*
X14583965Y-11481439D01*
X14583965Y-11481439D02*
X14593489Y-11519534D01*
X14593489Y-11519534D02*
X14593489Y-11567153D01*
X14593489Y-11567153D02*
X14583965Y-11605248D01*
X14583965Y-11605248D02*
X14574442Y-11624296D01*
X14574442Y-11624296D02*
X14564918Y-11633820D01*
X14564918Y-11633820D02*
X14545870Y-11643344D01*
X14545870Y-11643344D02*
X14526822Y-11643344D01*
X14526822Y-11643344D02*
X14507775Y-11633820D01*
X14507775Y-11633820D02*
X14498251Y-11624296D01*
X14498251Y-11624296D02*
X14488727Y-11605248D01*
X14488727Y-11605248D02*
X14479203Y-11567153D01*
X14479203Y-11567153D02*
X14479203Y-11519534D01*
X14479203Y-11519534D02*
X14488727Y-11481439D01*
X14488727Y-11481439D02*
X14498251Y-11462391D01*
X14498251Y-11462391D02*
X14507775Y-11452868D01*
X14507775Y-11452868D02*
X14526822Y-11443344D01*
X14717299Y-11443344D02*
X14736346Y-11443344D01*
X14736346Y-11443344D02*
X14755394Y-11452868D01*
X14755394Y-11452868D02*
X14764918Y-11462391D01*
X14764918Y-11462391D02*
X14774442Y-11481439D01*
X14774442Y-11481439D02*
X14783965Y-11519534D01*
X14783965Y-11519534D02*
X14783965Y-11567153D01*
X14783965Y-11567153D02*
X14774442Y-11605248D01*
X14774442Y-11605248D02*
X14764918Y-11624296D01*
X14764918Y-11624296D02*
X14755394Y-11633820D01*
X14755394Y-11633820D02*
X14736346Y-11643344D01*
X14736346Y-11643344D02*
X14717299Y-11643344D01*
X14717299Y-11643344D02*
X14698251Y-11633820D01*
X14698251Y-11633820D02*
X14688727Y-11624296D01*
X14688727Y-11624296D02*
X14679203Y-11605248D01*
X14679203Y-11605248D02*
X14669680Y-11567153D01*
X14669680Y-11567153D02*
X14669680Y-11519534D01*
X14669680Y-11519534D02*
X14679203Y-11481439D01*
X14679203Y-11481439D02*
X14688727Y-11462391D01*
X14688727Y-11462391D02*
X14698251Y-11452868D01*
X14698251Y-11452868D02*
X14717299Y-11443344D01*
X14869680Y-11643344D02*
X14869680Y-11510010D01*
X14869680Y-11529058D02*
X14879203Y-11519534D01*
X14879203Y-11519534D02*
X14898251Y-11510010D01*
X14898251Y-11510010D02*
X14926823Y-11510010D01*
X14926823Y-11510010D02*
X14945870Y-11519534D01*
X14945870Y-11519534D02*
X14955394Y-11538582D01*
X14955394Y-11538582D02*
X14955394Y-11643344D01*
X14955394Y-11538582D02*
X14964918Y-11519534D01*
X14964918Y-11519534D02*
X14983965Y-11510010D01*
X14983965Y-11510010D02*
X15012537Y-11510010D01*
X15012537Y-11510010D02*
X15031584Y-11519534D01*
X15031584Y-11519534D02*
X15041108Y-11538582D01*
X15041108Y-11538582D02*
X15041108Y-11643344D01*
X15136346Y-11643344D02*
X15136346Y-11510010D01*
X15136346Y-11529058D02*
X15145870Y-11519534D01*
X15145870Y-11519534D02*
X15164918Y-11510010D01*
X15164918Y-11510010D02*
X15193489Y-11510010D01*
X15193489Y-11510010D02*
X15212537Y-11519534D01*
X15212537Y-11519534D02*
X15222061Y-11538582D01*
X15222061Y-11538582D02*
X15222061Y-11643344D01*
X15222061Y-11538582D02*
X15231584Y-11519534D01*
X15231584Y-11519534D02*
X15250632Y-11510010D01*
X15250632Y-11510010D02*
X15279203Y-11510010D01*
X15279203Y-11510010D02*
X15298251Y-11519534D01*
X15298251Y-11519534D02*
X15307775Y-11538582D01*
X15307775Y-11538582D02*
X15307775Y-11643344D01*
X15698251Y-11433820D02*
X15526823Y-11690963D01*
X15955394Y-11443344D02*
X15974442Y-11443344D01*
X15974442Y-11443344D02*
X15993489Y-11452868D01*
X15993489Y-11452868D02*
X16003013Y-11462391D01*
X16003013Y-11462391D02*
X16012537Y-11481439D01*
X16012537Y-11481439D02*
X16022061Y-11519534D01*
X16022061Y-11519534D02*
X16022061Y-11567153D01*
X16022061Y-11567153D02*
X16012537Y-11605248D01*
X16012537Y-11605248D02*
X16003013Y-11624296D01*
X16003013Y-11624296D02*
X15993489Y-11633820D01*
X15993489Y-11633820D02*
X15974442Y-11643344D01*
X15974442Y-11643344D02*
X15955394Y-11643344D01*
X15955394Y-11643344D02*
X15936346Y-11633820D01*
X15936346Y-11633820D02*
X15926823Y-11624296D01*
X15926823Y-11624296D02*
X15917299Y-11605248D01*
X15917299Y-11605248D02*
X15907775Y-11567153D01*
X15907775Y-11567153D02*
X15907775Y-11519534D01*
X15907775Y-11519534D02*
X15917299Y-11481439D01*
X15917299Y-11481439D02*
X15926823Y-11462391D01*
X15926823Y-11462391D02*
X15936346Y-11452868D01*
X15936346Y-11452868D02*
X15955394Y-11443344D01*
X16107775Y-11624296D02*
X16117299Y-11633820D01*
X16117299Y-11633820D02*
X16107775Y-11643344D01*
X16107775Y-11643344D02*
X16098251Y-11633820D01*
X16098251Y-11633820D02*
X16107775Y-11624296D01*
X16107775Y-11624296D02*
X16107775Y-11643344D01*
X16241108Y-11443344D02*
X16260156Y-11443344D01*
X16260156Y-11443344D02*
X16279204Y-11452868D01*
X16279204Y-11452868D02*
X16288727Y-11462391D01*
X16288727Y-11462391D02*
X16298251Y-11481439D01*
X16298251Y-11481439D02*
X16307775Y-11519534D01*
X16307775Y-11519534D02*
X16307775Y-11567153D01*
X16307775Y-11567153D02*
X16298251Y-11605248D01*
X16298251Y-11605248D02*
X16288727Y-11624296D01*
X16288727Y-11624296D02*
X16279204Y-11633820D01*
X16279204Y-11633820D02*
X16260156Y-11643344D01*
X16260156Y-11643344D02*
X16241108Y-11643344D01*
X16241108Y-11643344D02*
X16222061Y-11633820D01*
X16222061Y-11633820D02*
X16212537Y-11624296D01*
X16212537Y-11624296D02*
X16203013Y-11605248D01*
X16203013Y-11605248D02*
X16193489Y-11567153D01*
X16193489Y-11567153D02*
X16193489Y-11519534D01*
X16193489Y-11519534D02*
X16203013Y-11481439D01*
X16203013Y-11481439D02*
X16212537Y-11462391D01*
X16212537Y-11462391D02*
X16222061Y-11452868D01*
X16222061Y-11452868D02*
X16241108Y-11443344D01*
X16422061Y-11529058D02*
X16403013Y-11519534D01*
X16403013Y-11519534D02*
X16393489Y-11510010D01*
X16393489Y-11510010D02*
X16383966Y-11490963D01*
X16383966Y-11490963D02*
X16383966Y-11481439D01*
X16383966Y-11481439D02*
X16393489Y-11462391D01*
X16393489Y-11462391D02*
X16403013Y-11452868D01*
X16403013Y-11452868D02*
X16422061Y-11443344D01*
X16422061Y-11443344D02*
X16460156Y-11443344D01*
X16460156Y-11443344D02*
X16479204Y-11452868D01*
X16479204Y-11452868D02*
X16488727Y-11462391D01*
X16488727Y-11462391D02*
X16498251Y-11481439D01*
X16498251Y-11481439D02*
X16498251Y-11490963D01*
X16498251Y-11490963D02*
X16488727Y-11510010D01*
X16488727Y-11510010D02*
X16479204Y-11519534D01*
X16479204Y-11519534D02*
X16460156Y-11529058D01*
X16460156Y-11529058D02*
X16422061Y-11529058D01*
X16422061Y-11529058D02*
X16403013Y-11538582D01*
X16403013Y-11538582D02*
X16393489Y-11548106D01*
X16393489Y-11548106D02*
X16383966Y-11567153D01*
X16383966Y-11567153D02*
X16383966Y-11605248D01*
X16383966Y-11605248D02*
X16393489Y-11624296D01*
X16393489Y-11624296D02*
X16403013Y-11633820D01*
X16403013Y-11633820D02*
X16422061Y-11643344D01*
X16422061Y-11643344D02*
X16460156Y-11643344D01*
X16460156Y-11643344D02*
X16479204Y-11633820D01*
X16479204Y-11633820D02*
X16488727Y-11624296D01*
X16488727Y-11624296D02*
X16498251Y-11605248D01*
X16498251Y-11605248D02*
X16498251Y-11567153D01*
X16498251Y-11567153D02*
X16488727Y-11548106D01*
X16488727Y-11548106D02*
X16479204Y-11538582D01*
X16479204Y-11538582D02*
X16460156Y-11529058D01*
X16669680Y-11443344D02*
X16631585Y-11443344D01*
X16631585Y-11443344D02*
X16612537Y-11452868D01*
X16612537Y-11452868D02*
X16603013Y-11462391D01*
X16603013Y-11462391D02*
X16583966Y-11490963D01*
X16583966Y-11490963D02*
X16574442Y-11529058D01*
X16574442Y-11529058D02*
X16574442Y-11605248D01*
X16574442Y-11605248D02*
X16583966Y-11624296D01*
X16583966Y-11624296D02*
X16593489Y-11633820D01*
X16593489Y-11633820D02*
X16612537Y-11643344D01*
X16612537Y-11643344D02*
X16650632Y-11643344D01*
X16650632Y-11643344D02*
X16669680Y-11633820D01*
X16669680Y-11633820D02*
X16679204Y-11624296D01*
X16679204Y-11624296D02*
X16688727Y-11605248D01*
X16688727Y-11605248D02*
X16688727Y-11557629D01*
X16688727Y-11557629D02*
X16679204Y-11538582D01*
X16679204Y-11538582D02*
X16669680Y-11529058D01*
X16669680Y-11529058D02*
X16650632Y-11519534D01*
X16650632Y-11519534D02*
X16612537Y-11519534D01*
X16612537Y-11519534D02*
X16593489Y-11529058D01*
X16593489Y-11529058D02*
X16583966Y-11538582D01*
X16583966Y-11538582D02*
X16574442Y-11557629D01*
X16860156Y-11443344D02*
X16822061Y-11443344D01*
X16822061Y-11443344D02*
X16803013Y-11452868D01*
X16803013Y-11452868D02*
X16793489Y-11462391D01*
X16793489Y-11462391D02*
X16774442Y-11490963D01*
X16774442Y-11490963D02*
X16764918Y-11529058D01*
X16764918Y-11529058D02*
X16764918Y-11605248D01*
X16764918Y-11605248D02*
X16774442Y-11624296D01*
X16774442Y-11624296D02*
X16783966Y-11633820D01*
X16783966Y-11633820D02*
X16803013Y-11643344D01*
X16803013Y-11643344D02*
X16841109Y-11643344D01*
X16841109Y-11643344D02*
X16860156Y-11633820D01*
X16860156Y-11633820D02*
X16869680Y-11624296D01*
X16869680Y-11624296D02*
X16879204Y-11605248D01*
X16879204Y-11605248D02*
X16879204Y-11557629D01*
X16879204Y-11557629D02*
X16869680Y-11538582D01*
X16869680Y-11538582D02*
X16860156Y-11529058D01*
X16860156Y-11529058D02*
X16841109Y-11519534D01*
X16841109Y-11519534D02*
X16803013Y-11519534D01*
X16803013Y-11519534D02*
X16783966Y-11529058D01*
X16783966Y-11529058D02*
X16774442Y-11538582D01*
X16774442Y-11538582D02*
X16764918Y-11557629D01*
X16955394Y-11443344D02*
X16955394Y-11481439D01*
X17031585Y-11443344D02*
X17031585Y-11481439D01*
X17326823Y-11719534D02*
X17317299Y-11710010D01*
X17317299Y-11710010D02*
X17298251Y-11681439D01*
X17298251Y-11681439D02*
X17288728Y-11662391D01*
X17288728Y-11662391D02*
X17279204Y-11633820D01*
X17279204Y-11633820D02*
X17269680Y-11586201D01*
X17269680Y-11586201D02*
X17269680Y-11548106D01*
X17269680Y-11548106D02*
X17279204Y-11500487D01*
X17279204Y-11500487D02*
X17288728Y-11471915D01*
X17288728Y-11471915D02*
X17298251Y-11452868D01*
X17298251Y-11452868D02*
X17317299Y-11424296D01*
X17317299Y-11424296D02*
X17326823Y-11414772D01*
X17488728Y-11510010D02*
X17488728Y-11643344D01*
X17441109Y-11433820D02*
X17393490Y-11576677D01*
X17393490Y-11576677D02*
X17517299Y-11576677D01*
X17745871Y-11643344D02*
X17745871Y-11443344D01*
X17831585Y-11643344D02*
X17831585Y-11538582D01*
X17831585Y-11538582D02*
X17822061Y-11519534D01*
X17822061Y-11519534D02*
X17803013Y-11510010D01*
X17803013Y-11510010D02*
X17774442Y-11510010D01*
X17774442Y-11510010D02*
X17755394Y-11519534D01*
X17755394Y-11519534D02*
X17745871Y-11529058D01*
X17955394Y-11643344D02*
X17936347Y-11633820D01*
X17936347Y-11633820D02*
X17926823Y-11624296D01*
X17926823Y-11624296D02*
X17917299Y-11605248D01*
X17917299Y-11605248D02*
X17917299Y-11548106D01*
X17917299Y-11548106D02*
X17926823Y-11529058D01*
X17926823Y-11529058D02*
X17936347Y-11519534D01*
X17936347Y-11519534D02*
X17955394Y-11510010D01*
X17955394Y-11510010D02*
X17983966Y-11510010D01*
X17983966Y-11510010D02*
X18003013Y-11519534D01*
X18003013Y-11519534D02*
X18012537Y-11529058D01*
X18012537Y-11529058D02*
X18022061Y-11548106D01*
X18022061Y-11548106D02*
X18022061Y-11605248D01*
X18022061Y-11605248D02*
X18012537Y-11624296D01*
X18012537Y-11624296D02*
X18003013Y-11633820D01*
X18003013Y-11633820D02*
X17983966Y-11643344D01*
X17983966Y-11643344D02*
X17955394Y-11643344D01*
X18136347Y-11643344D02*
X18117299Y-11633820D01*
X18117299Y-11633820D02*
X18107775Y-11614772D01*
X18107775Y-11614772D02*
X18107775Y-11443344D01*
X18288728Y-11633820D02*
X18269680Y-11643344D01*
X18269680Y-11643344D02*
X18231585Y-11643344D01*
X18231585Y-11643344D02*
X18212537Y-11633820D01*
X18212537Y-11633820D02*
X18203013Y-11614772D01*
X18203013Y-11614772D02*
X18203013Y-11538582D01*
X18203013Y-11538582D02*
X18212537Y-11519534D01*
X18212537Y-11519534D02*
X18231585Y-11510010D01*
X18231585Y-11510010D02*
X18269680Y-11510010D01*
X18269680Y-11510010D02*
X18288728Y-11519534D01*
X18288728Y-11519534D02*
X18298252Y-11538582D01*
X18298252Y-11538582D02*
X18298252Y-11557629D01*
X18298252Y-11557629D02*
X18203013Y-11576677D01*
X18374442Y-11633820D02*
X18393490Y-11643344D01*
X18393490Y-11643344D02*
X18431585Y-11643344D01*
X18431585Y-11643344D02*
X18450633Y-11633820D01*
X18450633Y-11633820D02*
X18460156Y-11614772D01*
X18460156Y-11614772D02*
X18460156Y-11605248D01*
X18460156Y-11605248D02*
X18450633Y-11586201D01*
X18450633Y-11586201D02*
X18431585Y-11576677D01*
X18431585Y-11576677D02*
X18403013Y-11576677D01*
X18403013Y-11576677D02*
X18383966Y-11567153D01*
X18383966Y-11567153D02*
X18374442Y-11548106D01*
X18374442Y-11548106D02*
X18374442Y-11538582D01*
X18374442Y-11538582D02*
X18383966Y-11519534D01*
X18383966Y-11519534D02*
X18403013Y-11510010D01*
X18403013Y-11510010D02*
X18431585Y-11510010D01*
X18431585Y-11510010D02*
X18450633Y-11519534D01*
X18526823Y-11719534D02*
X18536347Y-11710010D01*
X18536347Y-11710010D02*
X18555394Y-11681439D01*
X18555394Y-11681439D02*
X18564918Y-11662391D01*
X18564918Y-11662391D02*
X18574442Y-11633820D01*
X18574442Y-11633820D02*
X18583966Y-11586201D01*
X18583966Y-11586201D02*
X18583966Y-11548106D01*
X18583966Y-11548106D02*
X18574442Y-11500487D01*
X18574442Y-11500487D02*
X18564918Y-11471915D01*
X18564918Y-11471915D02*
X18555394Y-11452868D01*
X18555394Y-11452868D02*
X18536347Y-11424296D01*
X18536347Y-11424296D02*
X18526823Y-11414772D01*
X18888728Y-11719534D02*
X18879204Y-11710010D01*
X18879204Y-11710010D02*
X18860156Y-11681439D01*
X18860156Y-11681439D02*
X18850633Y-11662391D01*
X18850633Y-11662391D02*
X18841109Y-11633820D01*
X18841109Y-11633820D02*
X18831585Y-11586201D01*
X18831585Y-11586201D02*
X18831585Y-11548106D01*
X18831585Y-11548106D02*
X18841109Y-11500487D01*
X18841109Y-11500487D02*
X18850633Y-11471915D01*
X18850633Y-11471915D02*
X18860156Y-11452868D01*
X18860156Y-11452868D02*
X18879204Y-11424296D01*
X18879204Y-11424296D02*
X18888728Y-11414772D01*
X18964918Y-11510010D02*
X18964918Y-11643344D01*
X18964918Y-11529058D02*
X18974442Y-11519534D01*
X18974442Y-11519534D02*
X18993490Y-11510010D01*
X18993490Y-11510010D02*
X19022061Y-11510010D01*
X19022061Y-11510010D02*
X19041109Y-11519534D01*
X19041109Y-11519534D02*
X19050633Y-11538582D01*
X19050633Y-11538582D02*
X19050633Y-11643344D01*
X19174442Y-11643344D02*
X19155394Y-11633820D01*
X19155394Y-11633820D02*
X19145871Y-11624296D01*
X19145871Y-11624296D02*
X19136347Y-11605248D01*
X19136347Y-11605248D02*
X19136347Y-11548106D01*
X19136347Y-11548106D02*
X19145871Y-11529058D01*
X19145871Y-11529058D02*
X19155394Y-11519534D01*
X19155394Y-11519534D02*
X19174442Y-11510010D01*
X19174442Y-11510010D02*
X19203014Y-11510010D01*
X19203014Y-11510010D02*
X19222061Y-11519534D01*
X19222061Y-11519534D02*
X19231585Y-11529058D01*
X19231585Y-11529058D02*
X19241109Y-11548106D01*
X19241109Y-11548106D02*
X19241109Y-11605248D01*
X19241109Y-11605248D02*
X19231585Y-11624296D01*
X19231585Y-11624296D02*
X19222061Y-11633820D01*
X19222061Y-11633820D02*
X19203014Y-11643344D01*
X19203014Y-11643344D02*
X19174442Y-11643344D01*
X19298252Y-11510010D02*
X19374442Y-11510010D01*
X19326823Y-11443344D02*
X19326823Y-11614772D01*
X19326823Y-11614772D02*
X19336347Y-11633820D01*
X19336347Y-11633820D02*
X19355394Y-11643344D01*
X19355394Y-11643344D02*
X19374442Y-11643344D01*
X19593490Y-11510010D02*
X19593490Y-11710010D01*
X19593490Y-11519534D02*
X19612537Y-11510010D01*
X19612537Y-11510010D02*
X19650633Y-11510010D01*
X19650633Y-11510010D02*
X19669680Y-11519534D01*
X19669680Y-11519534D02*
X19679204Y-11529058D01*
X19679204Y-11529058D02*
X19688728Y-11548106D01*
X19688728Y-11548106D02*
X19688728Y-11605248D01*
X19688728Y-11605248D02*
X19679204Y-11624296D01*
X19679204Y-11624296D02*
X19669680Y-11633820D01*
X19669680Y-11633820D02*
X19650633Y-11643344D01*
X19650633Y-11643344D02*
X19612537Y-11643344D01*
X19612537Y-11643344D02*
X19593490Y-11633820D01*
X19803014Y-11643344D02*
X19783966Y-11633820D01*
X19783966Y-11633820D02*
X19774442Y-11614772D01*
X19774442Y-11614772D02*
X19774442Y-11443344D01*
X19964918Y-11643344D02*
X19964918Y-11538582D01*
X19964918Y-11538582D02*
X19955395Y-11519534D01*
X19955395Y-11519534D02*
X19936347Y-11510010D01*
X19936347Y-11510010D02*
X19898252Y-11510010D01*
X19898252Y-11510010D02*
X19879204Y-11519534D01*
X19964918Y-11633820D02*
X19945871Y-11643344D01*
X19945871Y-11643344D02*
X19898252Y-11643344D01*
X19898252Y-11643344D02*
X19879204Y-11633820D01*
X19879204Y-11633820D02*
X19869680Y-11614772D01*
X19869680Y-11614772D02*
X19869680Y-11595725D01*
X19869680Y-11595725D02*
X19879204Y-11576677D01*
X19879204Y-11576677D02*
X19898252Y-11567153D01*
X19898252Y-11567153D02*
X19945871Y-11567153D01*
X19945871Y-11567153D02*
X19964918Y-11557629D01*
X20031585Y-11510010D02*
X20107775Y-11510010D01*
X20060156Y-11443344D02*
X20060156Y-11614772D01*
X20060156Y-11614772D02*
X20069680Y-11633820D01*
X20069680Y-11633820D02*
X20088728Y-11643344D01*
X20088728Y-11643344D02*
X20107775Y-11643344D01*
X20250633Y-11633820D02*
X20231585Y-11643344D01*
X20231585Y-11643344D02*
X20193490Y-11643344D01*
X20193490Y-11643344D02*
X20174442Y-11633820D01*
X20174442Y-11633820D02*
X20164918Y-11614772D01*
X20164918Y-11614772D02*
X20164918Y-11538582D01*
X20164918Y-11538582D02*
X20174442Y-11519534D01*
X20174442Y-11519534D02*
X20193490Y-11510010D01*
X20193490Y-11510010D02*
X20231585Y-11510010D01*
X20231585Y-11510010D02*
X20250633Y-11519534D01*
X20250633Y-11519534D02*
X20260156Y-11538582D01*
X20260156Y-11538582D02*
X20260156Y-11557629D01*
X20260156Y-11557629D02*
X20164918Y-11576677D01*
X20431585Y-11643344D02*
X20431585Y-11443344D01*
X20431585Y-11633820D02*
X20412537Y-11643344D01*
X20412537Y-11643344D02*
X20374442Y-11643344D01*
X20374442Y-11643344D02*
X20355395Y-11633820D01*
X20355395Y-11633820D02*
X20345871Y-11624296D01*
X20345871Y-11624296D02*
X20336347Y-11605248D01*
X20336347Y-11605248D02*
X20336347Y-11548106D01*
X20336347Y-11548106D02*
X20345871Y-11529058D01*
X20345871Y-11529058D02*
X20355395Y-11519534D01*
X20355395Y-11519534D02*
X20374442Y-11510010D01*
X20374442Y-11510010D02*
X20412537Y-11510010D01*
X20412537Y-11510010D02*
X20431585Y-11519534D01*
X20507776Y-11719534D02*
X20517299Y-11710010D01*
X20517299Y-11710010D02*
X20536347Y-11681439D01*
X20536347Y-11681439D02*
X20545871Y-11662391D01*
X20545871Y-11662391D02*
X20555395Y-11633820D01*
X20555395Y-11633820D02*
X20564918Y-11586201D01*
X20564918Y-11586201D02*
X20564918Y-11548106D01*
X20564918Y-11548106D02*
X20555395Y-11500487D01*
X20555395Y-11500487D02*
X20545871Y-11471915D01*
X20545871Y-11471915D02*
X20536347Y-11452868D01*
X20536347Y-11452868D02*
X20517299Y-11424296D01*
X20517299Y-11424296D02*
X20507776Y-11414772D01*
X13722471Y-11942571D02*
X13722471Y-11801149D01*
X13581049Y-11801149D01*
X13581049Y-11942571D01*
X13722471Y-11942571D01*
X13993489Y-11763344D02*
X14117299Y-11763344D01*
X14117299Y-11763344D02*
X14050632Y-11839534D01*
X14050632Y-11839534D02*
X14079203Y-11839534D01*
X14079203Y-11839534D02*
X14098251Y-11849058D01*
X14098251Y-11849058D02*
X14107775Y-11858582D01*
X14107775Y-11858582D02*
X14117299Y-11877629D01*
X14117299Y-11877629D02*
X14117299Y-11925248D01*
X14117299Y-11925248D02*
X14107775Y-11944296D01*
X14107775Y-11944296D02*
X14098251Y-11953820D01*
X14098251Y-11953820D02*
X14079203Y-11963344D01*
X14079203Y-11963344D02*
X14022061Y-11963344D01*
X14022061Y-11963344D02*
X14003013Y-11953820D01*
X14003013Y-11953820D02*
X13993489Y-11944296D01*
X14203013Y-11944296D02*
X14212537Y-11953820D01*
X14212537Y-11953820D02*
X14203013Y-11963344D01*
X14203013Y-11963344D02*
X14193489Y-11953820D01*
X14193489Y-11953820D02*
X14203013Y-11944296D01*
X14203013Y-11944296D02*
X14203013Y-11963344D01*
X14336346Y-11763344D02*
X14355394Y-11763344D01*
X14355394Y-11763344D02*
X14374442Y-11772868D01*
X14374442Y-11772868D02*
X14383965Y-11782391D01*
X14383965Y-11782391D02*
X14393489Y-11801439D01*
X14393489Y-11801439D02*
X14403013Y-11839534D01*
X14403013Y-11839534D02*
X14403013Y-11887153D01*
X14403013Y-11887153D02*
X14393489Y-11925248D01*
X14393489Y-11925248D02*
X14383965Y-11944296D01*
X14383965Y-11944296D02*
X14374442Y-11953820D01*
X14374442Y-11953820D02*
X14355394Y-11963344D01*
X14355394Y-11963344D02*
X14336346Y-11963344D01*
X14336346Y-11963344D02*
X14317299Y-11953820D01*
X14317299Y-11953820D02*
X14307775Y-11944296D01*
X14307775Y-11944296D02*
X14298251Y-11925248D01*
X14298251Y-11925248D02*
X14288727Y-11887153D01*
X14288727Y-11887153D02*
X14288727Y-11839534D01*
X14288727Y-11839534D02*
X14298251Y-11801439D01*
X14298251Y-11801439D02*
X14307775Y-11782391D01*
X14307775Y-11782391D02*
X14317299Y-11772868D01*
X14317299Y-11772868D02*
X14336346Y-11763344D01*
X14526822Y-11763344D02*
X14545870Y-11763344D01*
X14545870Y-11763344D02*
X14564918Y-11772868D01*
X14564918Y-11772868D02*
X14574442Y-11782391D01*
X14574442Y-11782391D02*
X14583965Y-11801439D01*
X14583965Y-11801439D02*
X14593489Y-11839534D01*
X14593489Y-11839534D02*
X14593489Y-11887153D01*
X14593489Y-11887153D02*
X14583965Y-11925248D01*
X14583965Y-11925248D02*
X14574442Y-11944296D01*
X14574442Y-11944296D02*
X14564918Y-11953820D01*
X14564918Y-11953820D02*
X14545870Y-11963344D01*
X14545870Y-11963344D02*
X14526822Y-11963344D01*
X14526822Y-11963344D02*
X14507775Y-11953820D01*
X14507775Y-11953820D02*
X14498251Y-11944296D01*
X14498251Y-11944296D02*
X14488727Y-11925248D01*
X14488727Y-11925248D02*
X14479203Y-11887153D01*
X14479203Y-11887153D02*
X14479203Y-11839534D01*
X14479203Y-11839534D02*
X14488727Y-11801439D01*
X14488727Y-11801439D02*
X14498251Y-11782391D01*
X14498251Y-11782391D02*
X14507775Y-11772868D01*
X14507775Y-11772868D02*
X14526822Y-11763344D01*
X14717299Y-11763344D02*
X14736346Y-11763344D01*
X14736346Y-11763344D02*
X14755394Y-11772868D01*
X14755394Y-11772868D02*
X14764918Y-11782391D01*
X14764918Y-11782391D02*
X14774442Y-11801439D01*
X14774442Y-11801439D02*
X14783965Y-11839534D01*
X14783965Y-11839534D02*
X14783965Y-11887153D01*
X14783965Y-11887153D02*
X14774442Y-11925248D01*
X14774442Y-11925248D02*
X14764918Y-11944296D01*
X14764918Y-11944296D02*
X14755394Y-11953820D01*
X14755394Y-11953820D02*
X14736346Y-11963344D01*
X14736346Y-11963344D02*
X14717299Y-11963344D01*
X14717299Y-11963344D02*
X14698251Y-11953820D01*
X14698251Y-11953820D02*
X14688727Y-11944296D01*
X14688727Y-11944296D02*
X14679203Y-11925248D01*
X14679203Y-11925248D02*
X14669680Y-11887153D01*
X14669680Y-11887153D02*
X14669680Y-11839534D01*
X14669680Y-11839534D02*
X14679203Y-11801439D01*
X14679203Y-11801439D02*
X14688727Y-11782391D01*
X14688727Y-11782391D02*
X14698251Y-11772868D01*
X14698251Y-11772868D02*
X14717299Y-11763344D01*
X14869680Y-11963344D02*
X14869680Y-11830010D01*
X14869680Y-11849058D02*
X14879203Y-11839534D01*
X14879203Y-11839534D02*
X14898251Y-11830010D01*
X14898251Y-11830010D02*
X14926823Y-11830010D01*
X14926823Y-11830010D02*
X14945870Y-11839534D01*
X14945870Y-11839534D02*
X14955394Y-11858582D01*
X14955394Y-11858582D02*
X14955394Y-11963344D01*
X14955394Y-11858582D02*
X14964918Y-11839534D01*
X14964918Y-11839534D02*
X14983965Y-11830010D01*
X14983965Y-11830010D02*
X15012537Y-11830010D01*
X15012537Y-11830010D02*
X15031584Y-11839534D01*
X15031584Y-11839534D02*
X15041108Y-11858582D01*
X15041108Y-11858582D02*
X15041108Y-11963344D01*
X15136346Y-11963344D02*
X15136346Y-11830010D01*
X15136346Y-11849058D02*
X15145870Y-11839534D01*
X15145870Y-11839534D02*
X15164918Y-11830010D01*
X15164918Y-11830010D02*
X15193489Y-11830010D01*
X15193489Y-11830010D02*
X15212537Y-11839534D01*
X15212537Y-11839534D02*
X15222061Y-11858582D01*
X15222061Y-11858582D02*
X15222061Y-11963344D01*
X15222061Y-11858582D02*
X15231584Y-11839534D01*
X15231584Y-11839534D02*
X15250632Y-11830010D01*
X15250632Y-11830010D02*
X15279203Y-11830010D01*
X15279203Y-11830010D02*
X15298251Y-11839534D01*
X15298251Y-11839534D02*
X15307775Y-11858582D01*
X15307775Y-11858582D02*
X15307775Y-11963344D01*
X15698251Y-11753820D02*
X15526823Y-12010963D01*
X15955394Y-11763344D02*
X15974442Y-11763344D01*
X15974442Y-11763344D02*
X15993489Y-11772868D01*
X15993489Y-11772868D02*
X16003013Y-11782391D01*
X16003013Y-11782391D02*
X16012537Y-11801439D01*
X16012537Y-11801439D02*
X16022061Y-11839534D01*
X16022061Y-11839534D02*
X16022061Y-11887153D01*
X16022061Y-11887153D02*
X16012537Y-11925248D01*
X16012537Y-11925248D02*
X16003013Y-11944296D01*
X16003013Y-11944296D02*
X15993489Y-11953820D01*
X15993489Y-11953820D02*
X15974442Y-11963344D01*
X15974442Y-11963344D02*
X15955394Y-11963344D01*
X15955394Y-11963344D02*
X15936346Y-11953820D01*
X15936346Y-11953820D02*
X15926823Y-11944296D01*
X15926823Y-11944296D02*
X15917299Y-11925248D01*
X15917299Y-11925248D02*
X15907775Y-11887153D01*
X15907775Y-11887153D02*
X15907775Y-11839534D01*
X15907775Y-11839534D02*
X15917299Y-11801439D01*
X15917299Y-11801439D02*
X15926823Y-11782391D01*
X15926823Y-11782391D02*
X15936346Y-11772868D01*
X15936346Y-11772868D02*
X15955394Y-11763344D01*
X16107775Y-11944296D02*
X16117299Y-11953820D01*
X16117299Y-11953820D02*
X16107775Y-11963344D01*
X16107775Y-11963344D02*
X16098251Y-11953820D01*
X16098251Y-11953820D02*
X16107775Y-11944296D01*
X16107775Y-11944296D02*
X16107775Y-11963344D01*
X16307775Y-11963344D02*
X16193489Y-11963344D01*
X16250632Y-11963344D02*
X16250632Y-11763344D01*
X16250632Y-11763344D02*
X16231585Y-11791915D01*
X16231585Y-11791915D02*
X16212537Y-11810963D01*
X16212537Y-11810963D02*
X16193489Y-11820487D01*
X16498251Y-11963344D02*
X16383966Y-11963344D01*
X16441108Y-11963344D02*
X16441108Y-11763344D01*
X16441108Y-11763344D02*
X16422061Y-11791915D01*
X16422061Y-11791915D02*
X16403013Y-11810963D01*
X16403013Y-11810963D02*
X16383966Y-11820487D01*
X16612537Y-11849058D02*
X16593489Y-11839534D01*
X16593489Y-11839534D02*
X16583966Y-11830010D01*
X16583966Y-11830010D02*
X16574442Y-11810963D01*
X16574442Y-11810963D02*
X16574442Y-11801439D01*
X16574442Y-11801439D02*
X16583966Y-11782391D01*
X16583966Y-11782391D02*
X16593489Y-11772868D01*
X16593489Y-11772868D02*
X16612537Y-11763344D01*
X16612537Y-11763344D02*
X16650632Y-11763344D01*
X16650632Y-11763344D02*
X16669680Y-11772868D01*
X16669680Y-11772868D02*
X16679204Y-11782391D01*
X16679204Y-11782391D02*
X16688727Y-11801439D01*
X16688727Y-11801439D02*
X16688727Y-11810963D01*
X16688727Y-11810963D02*
X16679204Y-11830010D01*
X16679204Y-11830010D02*
X16669680Y-11839534D01*
X16669680Y-11839534D02*
X16650632Y-11849058D01*
X16650632Y-11849058D02*
X16612537Y-11849058D01*
X16612537Y-11849058D02*
X16593489Y-11858582D01*
X16593489Y-11858582D02*
X16583966Y-11868106D01*
X16583966Y-11868106D02*
X16574442Y-11887153D01*
X16574442Y-11887153D02*
X16574442Y-11925248D01*
X16574442Y-11925248D02*
X16583966Y-11944296D01*
X16583966Y-11944296D02*
X16593489Y-11953820D01*
X16593489Y-11953820D02*
X16612537Y-11963344D01*
X16612537Y-11963344D02*
X16650632Y-11963344D01*
X16650632Y-11963344D02*
X16669680Y-11953820D01*
X16669680Y-11953820D02*
X16679204Y-11944296D01*
X16679204Y-11944296D02*
X16688727Y-11925248D01*
X16688727Y-11925248D02*
X16688727Y-11887153D01*
X16688727Y-11887153D02*
X16679204Y-11868106D01*
X16679204Y-11868106D02*
X16669680Y-11858582D01*
X16669680Y-11858582D02*
X16650632Y-11849058D01*
X16879204Y-11963344D02*
X16764918Y-11963344D01*
X16822061Y-11963344D02*
X16822061Y-11763344D01*
X16822061Y-11763344D02*
X16803013Y-11791915D01*
X16803013Y-11791915D02*
X16783966Y-11810963D01*
X16783966Y-11810963D02*
X16764918Y-11820487D01*
X16955394Y-11763344D02*
X16955394Y-11801439D01*
X17031585Y-11763344D02*
X17031585Y-11801439D01*
X17326823Y-12039534D02*
X17317299Y-12030010D01*
X17317299Y-12030010D02*
X17298251Y-12001439D01*
X17298251Y-12001439D02*
X17288728Y-11982391D01*
X17288728Y-11982391D02*
X17279204Y-11953820D01*
X17279204Y-11953820D02*
X17269680Y-11906201D01*
X17269680Y-11906201D02*
X17269680Y-11868106D01*
X17269680Y-11868106D02*
X17279204Y-11820487D01*
X17279204Y-11820487D02*
X17288728Y-11791915D01*
X17288728Y-11791915D02*
X17298251Y-11772868D01*
X17298251Y-11772868D02*
X17317299Y-11744296D01*
X17317299Y-11744296D02*
X17326823Y-11734772D01*
X17393490Y-11782391D02*
X17403013Y-11772868D01*
X17403013Y-11772868D02*
X17422061Y-11763344D01*
X17422061Y-11763344D02*
X17469680Y-11763344D01*
X17469680Y-11763344D02*
X17488728Y-11772868D01*
X17488728Y-11772868D02*
X17498251Y-11782391D01*
X17498251Y-11782391D02*
X17507775Y-11801439D01*
X17507775Y-11801439D02*
X17507775Y-11820487D01*
X17507775Y-11820487D02*
X17498251Y-11849058D01*
X17498251Y-11849058D02*
X17383966Y-11963344D01*
X17383966Y-11963344D02*
X17507775Y-11963344D01*
X17745871Y-11963344D02*
X17745871Y-11763344D01*
X17831585Y-11963344D02*
X17831585Y-11858582D01*
X17831585Y-11858582D02*
X17822061Y-11839534D01*
X17822061Y-11839534D02*
X17803013Y-11830010D01*
X17803013Y-11830010D02*
X17774442Y-11830010D01*
X17774442Y-11830010D02*
X17755394Y-11839534D01*
X17755394Y-11839534D02*
X17745871Y-11849058D01*
X17955394Y-11963344D02*
X17936347Y-11953820D01*
X17936347Y-11953820D02*
X17926823Y-11944296D01*
X17926823Y-11944296D02*
X17917299Y-11925248D01*
X17917299Y-11925248D02*
X17917299Y-11868106D01*
X17917299Y-11868106D02*
X17926823Y-11849058D01*
X17926823Y-11849058D02*
X17936347Y-11839534D01*
X17936347Y-11839534D02*
X17955394Y-11830010D01*
X17955394Y-11830010D02*
X17983966Y-11830010D01*
X17983966Y-11830010D02*
X18003013Y-11839534D01*
X18003013Y-11839534D02*
X18012537Y-11849058D01*
X18012537Y-11849058D02*
X18022061Y-11868106D01*
X18022061Y-11868106D02*
X18022061Y-11925248D01*
X18022061Y-11925248D02*
X18012537Y-11944296D01*
X18012537Y-11944296D02*
X18003013Y-11953820D01*
X18003013Y-11953820D02*
X17983966Y-11963344D01*
X17983966Y-11963344D02*
X17955394Y-11963344D01*
X18136347Y-11963344D02*
X18117299Y-11953820D01*
X18117299Y-11953820D02*
X18107775Y-11934772D01*
X18107775Y-11934772D02*
X18107775Y-11763344D01*
X18288728Y-11953820D02*
X18269680Y-11963344D01*
X18269680Y-11963344D02*
X18231585Y-11963344D01*
X18231585Y-11963344D02*
X18212537Y-11953820D01*
X18212537Y-11953820D02*
X18203013Y-11934772D01*
X18203013Y-11934772D02*
X18203013Y-11858582D01*
X18203013Y-11858582D02*
X18212537Y-11839534D01*
X18212537Y-11839534D02*
X18231585Y-11830010D01*
X18231585Y-11830010D02*
X18269680Y-11830010D01*
X18269680Y-11830010D02*
X18288728Y-11839534D01*
X18288728Y-11839534D02*
X18298252Y-11858582D01*
X18298252Y-11858582D02*
X18298252Y-11877629D01*
X18298252Y-11877629D02*
X18203013Y-11896677D01*
X18374442Y-11953820D02*
X18393490Y-11963344D01*
X18393490Y-11963344D02*
X18431585Y-11963344D01*
X18431585Y-11963344D02*
X18450633Y-11953820D01*
X18450633Y-11953820D02*
X18460156Y-11934772D01*
X18460156Y-11934772D02*
X18460156Y-11925248D01*
X18460156Y-11925248D02*
X18450633Y-11906201D01*
X18450633Y-11906201D02*
X18431585Y-11896677D01*
X18431585Y-11896677D02*
X18403013Y-11896677D01*
X18403013Y-11896677D02*
X18383966Y-11887153D01*
X18383966Y-11887153D02*
X18374442Y-11868106D01*
X18374442Y-11868106D02*
X18374442Y-11858582D01*
X18374442Y-11858582D02*
X18383966Y-11839534D01*
X18383966Y-11839534D02*
X18403013Y-11830010D01*
X18403013Y-11830010D02*
X18431585Y-11830010D01*
X18431585Y-11830010D02*
X18450633Y-11839534D01*
X18526823Y-12039534D02*
X18536347Y-12030010D01*
X18536347Y-12030010D02*
X18555394Y-12001439D01*
X18555394Y-12001439D02*
X18564918Y-11982391D01*
X18564918Y-11982391D02*
X18574442Y-11953820D01*
X18574442Y-11953820D02*
X18583966Y-11906201D01*
X18583966Y-11906201D02*
X18583966Y-11868106D01*
X18583966Y-11868106D02*
X18574442Y-11820487D01*
X18574442Y-11820487D02*
X18564918Y-11791915D01*
X18564918Y-11791915D02*
X18555394Y-11772868D01*
X18555394Y-11772868D02*
X18536347Y-11744296D01*
X18536347Y-11744296D02*
X18526823Y-11734772D01*
X18888728Y-12039534D02*
X18879204Y-12030010D01*
X18879204Y-12030010D02*
X18860156Y-12001439D01*
X18860156Y-12001439D02*
X18850633Y-11982391D01*
X18850633Y-11982391D02*
X18841109Y-11953820D01*
X18841109Y-11953820D02*
X18831585Y-11906201D01*
X18831585Y-11906201D02*
X18831585Y-11868106D01*
X18831585Y-11868106D02*
X18841109Y-11820487D01*
X18841109Y-11820487D02*
X18850633Y-11791915D01*
X18850633Y-11791915D02*
X18860156Y-11772868D01*
X18860156Y-11772868D02*
X18879204Y-11744296D01*
X18879204Y-11744296D02*
X18888728Y-11734772D01*
X18964918Y-11830010D02*
X18964918Y-11963344D01*
X18964918Y-11849058D02*
X18974442Y-11839534D01*
X18974442Y-11839534D02*
X18993490Y-11830010D01*
X18993490Y-11830010D02*
X19022061Y-11830010D01*
X19022061Y-11830010D02*
X19041109Y-11839534D01*
X19041109Y-11839534D02*
X19050633Y-11858582D01*
X19050633Y-11858582D02*
X19050633Y-11963344D01*
X19174442Y-11963344D02*
X19155394Y-11953820D01*
X19155394Y-11953820D02*
X19145871Y-11944296D01*
X19145871Y-11944296D02*
X19136347Y-11925248D01*
X19136347Y-11925248D02*
X19136347Y-11868106D01*
X19136347Y-11868106D02*
X19145871Y-11849058D01*
X19145871Y-11849058D02*
X19155394Y-11839534D01*
X19155394Y-11839534D02*
X19174442Y-11830010D01*
X19174442Y-11830010D02*
X19203014Y-11830010D01*
X19203014Y-11830010D02*
X19222061Y-11839534D01*
X19222061Y-11839534D02*
X19231585Y-11849058D01*
X19231585Y-11849058D02*
X19241109Y-11868106D01*
X19241109Y-11868106D02*
X19241109Y-11925248D01*
X19241109Y-11925248D02*
X19231585Y-11944296D01*
X19231585Y-11944296D02*
X19222061Y-11953820D01*
X19222061Y-11953820D02*
X19203014Y-11963344D01*
X19203014Y-11963344D02*
X19174442Y-11963344D01*
X19298252Y-11830010D02*
X19374442Y-11830010D01*
X19326823Y-11763344D02*
X19326823Y-11934772D01*
X19326823Y-11934772D02*
X19336347Y-11953820D01*
X19336347Y-11953820D02*
X19355394Y-11963344D01*
X19355394Y-11963344D02*
X19374442Y-11963344D01*
X19593490Y-11830010D02*
X19593490Y-12030010D01*
X19593490Y-11839534D02*
X19612537Y-11830010D01*
X19612537Y-11830010D02*
X19650633Y-11830010D01*
X19650633Y-11830010D02*
X19669680Y-11839534D01*
X19669680Y-11839534D02*
X19679204Y-11849058D01*
X19679204Y-11849058D02*
X19688728Y-11868106D01*
X19688728Y-11868106D02*
X19688728Y-11925248D01*
X19688728Y-11925248D02*
X19679204Y-11944296D01*
X19679204Y-11944296D02*
X19669680Y-11953820D01*
X19669680Y-11953820D02*
X19650633Y-11963344D01*
X19650633Y-11963344D02*
X19612537Y-11963344D01*
X19612537Y-11963344D02*
X19593490Y-11953820D01*
X19803014Y-11963344D02*
X19783966Y-11953820D01*
X19783966Y-11953820D02*
X19774442Y-11934772D01*
X19774442Y-11934772D02*
X19774442Y-11763344D01*
X19964918Y-11963344D02*
X19964918Y-11858582D01*
X19964918Y-11858582D02*
X19955395Y-11839534D01*
X19955395Y-11839534D02*
X19936347Y-11830010D01*
X19936347Y-11830010D02*
X19898252Y-11830010D01*
X19898252Y-11830010D02*
X19879204Y-11839534D01*
X19964918Y-11953820D02*
X19945871Y-11963344D01*
X19945871Y-11963344D02*
X19898252Y-11963344D01*
X19898252Y-11963344D02*
X19879204Y-11953820D01*
X19879204Y-11953820D02*
X19869680Y-11934772D01*
X19869680Y-11934772D02*
X19869680Y-11915725D01*
X19869680Y-11915725D02*
X19879204Y-11896677D01*
X19879204Y-11896677D02*
X19898252Y-11887153D01*
X19898252Y-11887153D02*
X19945871Y-11887153D01*
X19945871Y-11887153D02*
X19964918Y-11877629D01*
X20031585Y-11830010D02*
X20107775Y-11830010D01*
X20060156Y-11763344D02*
X20060156Y-11934772D01*
X20060156Y-11934772D02*
X20069680Y-11953820D01*
X20069680Y-11953820D02*
X20088728Y-11963344D01*
X20088728Y-11963344D02*
X20107775Y-11963344D01*
X20250633Y-11953820D02*
X20231585Y-11963344D01*
X20231585Y-11963344D02*
X20193490Y-11963344D01*
X20193490Y-11963344D02*
X20174442Y-11953820D01*
X20174442Y-11953820D02*
X20164918Y-11934772D01*
X20164918Y-11934772D02*
X20164918Y-11858582D01*
X20164918Y-11858582D02*
X20174442Y-11839534D01*
X20174442Y-11839534D02*
X20193490Y-11830010D01*
X20193490Y-11830010D02*
X20231585Y-11830010D01*
X20231585Y-11830010D02*
X20250633Y-11839534D01*
X20250633Y-11839534D02*
X20260156Y-11858582D01*
X20260156Y-11858582D02*
X20260156Y-11877629D01*
X20260156Y-11877629D02*
X20164918Y-11896677D01*
X20431585Y-11963344D02*
X20431585Y-11763344D01*
X20431585Y-11953820D02*
X20412537Y-11963344D01*
X20412537Y-11963344D02*
X20374442Y-11963344D01*
X20374442Y-11963344D02*
X20355395Y-11953820D01*
X20355395Y-11953820D02*
X20345871Y-11944296D01*
X20345871Y-11944296D02*
X20336347Y-11925248D01*
X20336347Y-11925248D02*
X20336347Y-11868106D01*
X20336347Y-11868106D02*
X20345871Y-11849058D01*
X20345871Y-11849058D02*
X20355395Y-11839534D01*
X20355395Y-11839534D02*
X20374442Y-11830010D01*
X20374442Y-11830010D02*
X20412537Y-11830010D01*
X20412537Y-11830010D02*
X20431585Y-11839534D01*
X20507776Y-12039534D02*
X20517299Y-12030010D01*
X20517299Y-12030010D02*
X20536347Y-12001439D01*
X20536347Y-12001439D02*
X20545871Y-11982391D01*
X20545871Y-11982391D02*
X20555395Y-11953820D01*
X20555395Y-11953820D02*
X20564918Y-11906201D01*
X20564918Y-11906201D02*
X20564918Y-11868106D01*
X20564918Y-11868106D02*
X20555395Y-11820487D01*
X20555395Y-11820487D02*
X20545871Y-11791915D01*
X20545871Y-11791915D02*
X20536347Y-11772868D01*
X20536347Y-11772868D02*
X20517299Y-11744296D01*
X20517299Y-11744296D02*
X20507776Y-11734772D01*
M02*
