M48
; DRILL file {KiCad 9.0.1+1} date 2025-10-02T22:25:14+0000
; FORMAT={-:-/ absolute / metric / decimal}
; #@! TF.CreationDate,2025-10-02T22:25:14+00:00
; #@! TF.GenerationSoftware,Kicad,Pcbnew,9.0.1+1
; #@! TF.FileFunction,Plated,1,2,PTH
FMAT,2
METRIC
; #@! TA.AperFunction,Plated,PTH,ViaDrill
T1C0.400
; #@! TA.AperFunction,Plated,PTH,ComponentDrill
T2C0.500
; #@! TA.AperFunction,Plated,PTH,ComponentDrill
T3C0.600
; #@! TA.AperFunction,Plated,PTH,ComponentDrill
T4C0.700
; #@! TA.AperFunction,Plated,PTH,ComponentDrill
T5C0.750
; #@! TA.AperFunction,Plated,PTH,ComponentDrill
T6C0.762
; #@! TA.AperFunction,Plated,PTH,ComponentDrill
T7C0.800
; #@! TA.AperFunction,Plated,PTH,ComponentDrill
T8C0.900
; #@! TA.AperFunction,Plated,PTH,ViaDrill
T9C1.000
; #@! TA.AperFunction,Plated,PTH,ComponentDrill
T10C1.000
; #@! TA.AperFunction,Plated,PTH,ComponentDrill
T11C1.200
; #@! TA.AperFunction,Plated,PTH,ComponentDrill
T12C1.300
; #@! TA.AperFunction,Plated,PTH,ComponentDrill
T13C1.500
; #@! TA.AperFunction,Plated,PTH,ComponentDrill
T14C2.000
; #@! TA.AperFunction,Plated,PTH,ComponentDrill
T15C3.200
%
G90
G05
T1
X144.746Y-40.881
X149.533Y-36.868
X150.523Y-37.908
X155.64Y-88.08
X156.37Y-54.55
X156.42Y-50.77
X157.092Y-41.05
X157.825Y-71.9
X157.84Y-101.86
X158.025Y-75.0
X158.4Y-64.975
X158.875Y-67.675
X159.642Y-46.7
X160.117Y-31.701
X160.842Y-43.7
X160.842Y-46.3
X160.842Y-47.35
X161.6Y-65.525
X161.75Y-73.275
X163.075Y-71.075
X164.8Y-64.925
X164.9Y-62.6
X166.381Y-44.982
X166.88Y-74.26
X167.8Y-62.425
X167.87Y-49.59
X168.625Y-91.375
X169.475Y-67.8
X169.9Y-71.25
X171.44Y-48.67
X172.35Y-87.75
X173.625Y-84.675
X174.45Y-71.25
X175.16Y-89.35
X176.11Y-70.01
X176.49Y-86.46
X176.52Y-82.75
X178.075Y-72.6
X182.728Y-77.292
X186.11Y-75.15
X189.75Y-75.5
X194.28Y-78.42
X195.42Y-71.44
X197.714Y-75.159
X197.968Y-78.359
X200.87Y-75.27
X203.175Y-76.454
X204.016Y-75.576
X206.35Y-77.425
X208.02Y-50.38
X208.178Y-56.083
X208.25Y-74.05
X210.131Y-58.169
X210.642Y-50.444
X211.26Y-95.79
X211.45Y-67.45
X211.47Y-83.15
X211.525Y-62.975
X211.6Y-69.925
X213.57Y-89.51
X213.73Y-71.13
X213.74Y-86.97
X213.97Y-48.223
X215.475Y-63.45
X215.73Y-91.66
X216.8Y-73.225
X216.925Y-87.45
X218.425Y-71.425
X219.03Y-90.73
X219.35Y-73.2
X221.5Y-67.3
X224.825Y-65.0
X227.762Y-66.294
X229.4Y-86.4
X229.575Y-66.125
X229.7Y-101.1
T2
X138.995Y-37.692
X139.698Y-35.995
X139.698Y-39.389
X139.84Y-97.59
X140.543Y-95.893
X140.543Y-99.287
X141.395Y-35.292
X141.395Y-40.092
X142.24Y-95.19
X142.24Y-99.99
X143.092Y-35.995
X143.092Y-39.389
X143.795Y-37.692
X143.937Y-95.893
X143.937Y-99.287
X144.64Y-97.59
X228.26Y-71.088
X228.963Y-69.391
X228.963Y-72.785
X230.66Y-68.688
X230.66Y-73.488
X232.357Y-69.391
X232.357Y-72.785
X233.06Y-71.088
X248.02Y-36.102
X248.722Y-34.405
X248.722Y-37.8
X250.25Y-99.55
X250.42Y-33.702
X250.42Y-38.502
X250.953Y-97.853
X250.953Y-101.247
X252.117Y-34.405
X252.117Y-37.8
X252.65Y-97.15
X252.65Y-101.95
X252.82Y-36.102
X254.347Y-97.853
X254.347Y-101.247
X255.05Y-99.55
T4
X157.675Y-66.325
X157.72Y-68.35
X157.72Y-73.43
X160.19Y-74.1
X162.755Y-66.325
X165.045Y-66.3
X165.27Y-74.1
X170.125Y-66.3
X170.825Y-69.045
X170.825Y-74.125
X180.44Y-83.7
X180.46Y-81.5
X181.571Y-33.075
X184.111Y-33.075
X185.52Y-83.7
X185.54Y-81.5
X186.651Y-33.075
X189.176Y-33.075
X200.0Y-33.4
X200.0Y-38.48
X202.2Y-81.9
X202.2Y-84.425
X202.8Y-33.4
X202.8Y-38.48
X207.28Y-81.9
X207.28Y-84.425
X210.35Y-68.635
X210.35Y-73.715
X212.675Y-68.67
X212.675Y-73.75
X214.33Y-66.37
X214.478Y-34.544
X214.478Y-39.624
X215.29Y-74.34
X216.891Y-34.519
X216.891Y-39.599
X219.41Y-66.37
X220.37Y-74.34
X225.94Y-68.16
X225.94Y-73.24
X227.432Y-35.154
X227.432Y-40.234
X229.743Y-35.154
X229.743Y-40.234
T6
X147.803Y-32.878
X147.803Y-35.378
X149.803Y-32.878
X149.803Y-35.378
X151.803Y-32.878
X151.803Y-35.378
X155.803Y-32.878
X155.803Y-35.378
T7
X140.78Y-85.63
X140.78Y-91.248
X140.97Y-69.82
X140.97Y-79.98
X141.2Y-42.52
X141.2Y-45.06
X141.2Y-47.6
X143.32Y-85.63
X143.32Y-91.248
X143.98Y-69.81
X143.98Y-79.97
X144.253Y-42.748
X144.273Y-45.748
X145.855Y-67.125
X145.86Y-85.63
X145.86Y-91.248
X147.62Y-69.82
X147.62Y-79.98
X150.66Y-69.82
X150.66Y-79.98
X153.475Y-67.125
X153.73Y-69.82
X153.73Y-79.98
X154.413Y-42.748
X154.433Y-45.748
X168.25Y-69.088
X168.25Y-71.588
X172.39Y-37.22
X172.39Y-40.27
X173.325Y-69.175
X173.325Y-71.675
X173.692Y-45.2
X174.74Y-64.15
X175.285Y-79.491
X175.285Y-81.991
X175.285Y-85.268
X175.42Y-87.732
X175.42Y-95.352
X175.62Y-72.7
X176.192Y-45.2
X177.293Y-74.558
X177.698Y-79.491
X177.698Y-81.991
X177.749Y-87.732
X177.749Y-95.352
X177.785Y-85.268
X181.5Y-43.5
X181.5Y-46.0
X182.55Y-37.22
X182.55Y-40.27
X184.3Y-78.3
X184.55Y-54.0
X184.55Y-56.5
X184.55Y-58.65
X184.55Y-61.15
X184.65Y-67.35
X184.65Y-69.85
X184.9Y-64.15
X185.4Y-40.6
X187.75Y-51.64
X187.75Y-61.8
X187.9Y-40.6
X189.5Y-66.5
X189.5Y-69.0
X191.581Y-75.514
X191.62Y-51.65
X191.62Y-61.81
X191.92Y-78.3
X192.23Y-42.9
X192.23Y-45.4
X194.081Y-75.514
X196.088Y-78.283
X197.735Y-51.54
X197.735Y-61.7
X199.5Y-67.25
X199.5Y-69.75
X201.6Y-51.54
X201.6Y-61.7
X203.708Y-78.283
X204.75Y-52.35
X204.75Y-54.85
X204.75Y-57.25
X204.75Y-59.75
X205.31Y-74.468
X206.78Y-72.446
X208.175Y-76.05
X209.77Y-88.2
X209.77Y-95.82
X210.236Y-43.18
X210.25Y-85.5
X210.29Y-79.727
X210.29Y-82.227
X210.388Y-46.457
X210.675Y-76.05
X212.7Y-79.75
X212.7Y-82.25
X212.75Y-85.5
X212.775Y-88.2
X212.775Y-95.82
X213.081Y-59.984
X213.081Y-62.484
X219.803Y-32.088
X220.396Y-43.18
X220.548Y-46.457
X222.303Y-32.088
X222.676Y-42.85
X223.2Y-68.5
X223.2Y-71.0
X225.176Y-42.85
X233.26Y-82.02
X233.26Y-92.18
X234.92Y-81.225
X236.195Y-66.725
X236.27Y-52.15
X245.08Y-81.225
X246.355Y-66.725
X246.43Y-52.15
X247.1Y-82.25
X247.1Y-92.41
X249.22Y-52.15
X249.61Y-66.72
X249.745Y-81.4
X259.38Y-52.15
X259.77Y-66.72
X259.905Y-81.4
X261.2Y-83.07
X261.2Y-93.23
X262.92Y-52.2
X263.12Y-66.75
X263.12Y-81.3
X273.08Y-52.2
X273.28Y-66.75
X273.28Y-81.3
T8
X147.663Y-98.294
X148.875Y-88.725
X150.203Y-98.294
X151.415Y-88.725
X152.743Y-98.294
T9
X164.2Y-51.72
X166.65Y-51.85
T10
X139.623Y-53.348
X142.163Y-53.348
X161.1Y-63.9
X163.6Y-63.9
X166.1Y-63.9
X218.55Y-63.8
X221.05Y-63.8
X223.55Y-63.8
T11
X177.8Y-32.775
T12
X152.715Y-56.87
X179.724Y-56.868
X242.649Y-88.1
X242.65Y-44.5
X242.65Y-59.033
X242.65Y-73.567
X256.649Y-88.1
X256.65Y-44.6
X256.65Y-59.1
X256.65Y-73.6
X270.65Y-44.6
X270.65Y-59.1
X270.65Y-73.6
X270.65Y-88.1
T13
X159.5Y-83.3
X159.5Y-89.65
X159.5Y-96.0
X170.93Y-83.3
X170.93Y-89.65
X170.93Y-96.0
X217.0Y-83.3
X217.0Y-89.65
X217.0Y-96.0
X228.43Y-83.3
X228.43Y-89.65
X228.43Y-96.0
T14
X211.531Y-99.924
T15
X141.395Y-37.692
X142.24Y-97.59
X230.66Y-71.088
X250.42Y-36.102
X252.65Y-99.55
T3
X147.615Y-57.32G85X147.615Y-56.42
G05
X147.965Y-52.87G85X148.865Y-52.87
G05
X147.965Y-60.87G85X148.865Y-60.87
G05
X151.465Y-54.37G85X152.365Y-54.37
G05
X151.465Y-59.37G85X152.365Y-59.37
G05
X161.95Y-27.87G85X161.95Y-27.27
G05
X161.95Y-31.67G85X161.95Y-31.07
G05
X170.59Y-27.87G85X170.59Y-27.27
G05
X170.59Y-31.67G85X170.59Y-31.07
G05
X174.624Y-57.318G85X174.624Y-56.418
G05
X174.974Y-52.868G85X175.874Y-52.868
G05
X174.974Y-60.868G85X175.874Y-60.868
G05
X178.474Y-54.368G85X179.374Y-54.368
G05
X178.474Y-59.368G85X179.374Y-59.368
G05
X237.549Y-88.55G85X237.549Y-87.65
G05
X237.55Y-44.95G85X237.55Y-44.05
G05
X237.55Y-59.483G85X237.55Y-58.583
G05
X237.55Y-74.017G85X237.55Y-73.117
G05
X237.899Y-84.1G85X238.799Y-84.1
G05
X237.899Y-92.1G85X238.799Y-92.1
G05
X237.9Y-40.5G85X238.8Y-40.5
G05
X237.9Y-48.5G85X238.8Y-48.5
G05
X237.9Y-55.033G85X238.8Y-55.033
G05
X237.9Y-63.033G85X238.8Y-63.033
G05
X237.9Y-69.567G85X238.8Y-69.567
G05
X237.9Y-77.567G85X238.8Y-77.567
G05
X241.399Y-85.6G85X242.299Y-85.6
G05
X241.399Y-90.6G85X242.299Y-90.6
G05
X241.4Y-42.0G85X242.3Y-42.0
G05
X241.4Y-47.0G85X242.3Y-47.0
G05
X241.4Y-56.533G85X242.3Y-56.533
G05
X241.4Y-61.533G85X242.3Y-61.533
G05
X241.4Y-71.067G85X242.3Y-71.067
G05
X241.4Y-76.067G85X242.3Y-76.067
G05
X251.549Y-88.55G85X251.549Y-87.65
G05
X251.55Y-45.05G85X251.55Y-44.15
G05
X251.55Y-59.55G85X251.55Y-58.65
G05
X251.55Y-74.05G85X251.55Y-73.15
G05
X251.899Y-84.1G85X252.799Y-84.1
G05
X251.899Y-92.1G85X252.799Y-92.1
G05
X251.9Y-40.6G85X252.8Y-40.6
G05
X251.9Y-48.6G85X252.8Y-48.6
G05
X251.9Y-55.1G85X252.8Y-55.1
G05
X251.9Y-63.1G85X252.8Y-63.1
G05
X251.9Y-69.6G85X252.8Y-69.6
G05
X251.9Y-77.6G85X252.8Y-77.6
G05
X255.399Y-85.6G85X256.299Y-85.6
G05
X255.399Y-90.6G85X256.299Y-90.6
G05
X255.4Y-42.1G85X256.3Y-42.1
G05
X255.4Y-47.1G85X256.3Y-47.1
G05
X255.4Y-56.6G85X256.3Y-56.6
G05
X255.4Y-61.6G85X256.3Y-61.6
G05
X255.4Y-71.1G85X256.3Y-71.1
G05
X255.4Y-76.1G85X256.3Y-76.1
G05
X265.55Y-45.05G85X265.55Y-44.15
G05
X265.55Y-59.55G85X265.55Y-58.65
G05
X265.55Y-74.05G85X265.55Y-73.15
G05
X265.55Y-88.55G85X265.55Y-87.65
G05
X265.9Y-40.6G85X266.8Y-40.6
G05
X265.9Y-48.6G85X266.8Y-48.6
G05
X265.9Y-55.1G85X266.8Y-55.1
G05
X265.9Y-63.1G85X266.8Y-63.1
G05
X265.9Y-69.6G85X266.8Y-69.6
G05
X265.9Y-77.6G85X266.8Y-77.6
G05
X265.9Y-84.1G85X266.8Y-84.1
G05
X265.9Y-92.1G85X266.8Y-92.1
G05
X269.4Y-42.1G85X270.3Y-42.1
G05
X269.4Y-47.1G85X270.3Y-47.1
G05
X269.4Y-56.6G85X270.3Y-56.6
G05
X269.4Y-61.6G85X270.3Y-61.6
G05
X269.4Y-71.1G85X270.3Y-71.1
G05
X269.4Y-76.1G85X270.3Y-76.1
G05
X269.4Y-85.6G85X270.3Y-85.6
G05
X269.4Y-90.6G85X270.3Y-90.6
G05
T4
X192.15Y-37.8G85X192.15Y-38.6
G05
X196.55Y-29.8G85X196.55Y-30.6
G05
X196.55Y-32.8G85X196.55Y-33.6
G05
X196.55Y-36.8G85X196.55Y-37.6
G05
X207.15Y-37.8G85X207.15Y-38.6
G05
X211.55Y-29.8G85X211.55Y-30.6
G05
X211.55Y-32.8G85X211.55Y-33.6
G05
X211.55Y-36.8G85X211.55Y-37.6
G05
T5
X145.653Y-34.503G85X145.653Y-33.753
G05
X157.953Y-34.503G85X157.953Y-33.753
G05
T10
X146.644Y-57.646G85X146.644Y-56.146
G05
X149.894Y-61.396G85X150.394Y-61.396
G05
X154.144Y-56.146G85X154.144Y-57.646
G05
X173.653Y-57.645G85X173.653Y-56.145
G05
X176.903Y-61.395G85X177.403Y-61.395
G05
X181.153Y-56.145G85X181.153Y-57.645
G05
X236.578Y-88.876G85X236.578Y-87.376
G05
X236.579Y-45.276G85X236.579Y-43.776
G05
X236.579Y-59.81G85X236.579Y-58.31
G05
X236.579Y-74.343G85X236.579Y-72.843
G05
X239.828Y-92.626G85X240.328Y-92.626
G05
X239.829Y-49.026G85X240.329Y-49.026
G05
X239.829Y-63.56G85X240.329Y-63.56
G05
X239.829Y-78.093G85X240.329Y-78.093
G05
X244.078Y-87.376G85X244.078Y-88.876
G05
X244.079Y-43.776G85X244.079Y-45.276
G05
X244.079Y-58.31G85X244.079Y-59.81
G05
X244.079Y-72.843G85X244.079Y-74.343
G05
X250.578Y-88.876G85X250.578Y-87.376
G05
X250.579Y-45.376G85X250.579Y-43.876
G05
X250.579Y-59.876G85X250.579Y-58.376
G05
X250.579Y-74.376G85X250.579Y-72.876
G05
X253.828Y-92.626G85X254.328Y-92.626
G05
X253.829Y-49.126G85X254.329Y-49.126
G05
X253.829Y-63.626G85X254.329Y-63.626
G05
X253.829Y-78.126G85X254.329Y-78.126
G05
X258.078Y-87.376G85X258.078Y-88.876
G05
X258.079Y-43.876G85X258.079Y-45.376
G05
X258.079Y-58.376G85X258.079Y-59.876
G05
X258.079Y-72.876G85X258.079Y-74.376
G05
X264.579Y-45.376G85X264.579Y-43.876
G05
X264.579Y-59.876G85X264.579Y-58.376
G05
X264.579Y-74.376G85X264.579Y-72.876
G05
X264.579Y-88.876G85X264.579Y-87.376
G05
X267.829Y-49.126G85X268.329Y-49.126
G05
X267.829Y-63.626G85X268.329Y-63.626
G05
X267.829Y-78.126G85X268.329Y-78.126
G05
X267.829Y-92.626G85X268.329Y-92.626
G05
X272.079Y-43.876G85X272.079Y-45.376
G05
X272.079Y-58.376G85X272.079Y-59.876
G05
X272.079Y-72.876G85X272.079Y-74.376
G05
X272.079Y-87.376G85X272.079Y-88.876
G05
M30
