M48
; DRILL file {KiCad 8.0.1} date 2024-03-31T00:10:13+0100
; FORMAT={-:-/ absolute / metric / decimal}
; #@! TF.CreationDate,2024-03-31T00:10:13+01:00
; #@! TF.GenerationSoftware,Kicad,Pcbnew,8.0.1
; #@! TF.FileFunction,Plated,1,2,PTH
FMAT,2
METRIC
; #@! TA.AperFunction,Plated,PTH,ViaDrill
T1C0.400
; #@! TA.AperFunction,Plated,PTH,ComponentDrill
T2C0.400
; #@! TA.AperFunction,Plated,PTH,ComponentDrill
T3C0.500
; #@! TA.AperFunction,Plated,PTH,ComponentDrill
T4C0.600
; #@! TA.AperFunction,Plated,PTH,ComponentDrill
T5C0.700
; #@! TA.AperFunction,Plated,PTH,ComponentDrill
T6C0.750
; #@! TA.AperFunction,Plated,PTH,ComponentDrill
T7C0.800
; #@! TA.AperFunction,Plated,PTH,ComponentDrill
T8C0.890
; #@! TA.AperFunction,Plated,PTH,ComponentDrill
T9C0.900
; #@! TA.AperFunction,Plated,PTH,ViaDrill
T10C1.000
; #@! TA.AperFunction,Plated,PTH,ComponentDrill
T11C1.000
; #@! TA.AperFunction,Plated,PTH,ComponentDrill
T12C1.100
; #@! TA.AperFunction,Plated,PTH,ComponentDrill
T13C1.200
; #@! TA.AperFunction,Plated,PTH,ComponentDrill
T14C1.300
; #@! TA.AperFunction,Plated,PTH,ComponentDrill
T15C1.500
; #@! TA.AperFunction,Plated,PTH,ComponentDrill
T16C2.000
; #@! TA.AperFunction,Plated,PTH,ComponentDrill
T17C3.200
%
G90
G05
T1
X159.0Y-39.5
X159.348Y-62.948
X165.4Y-53.4
X166.7Y-97.333
X168.0Y-66.21
X168.4Y-67.81
X168.6Y-59.8
X169.6Y-59.2
X169.75Y-33.25
X171.834Y-35.766
X172.25Y-33.25
X173.966Y-35.634
X174.0Y-53.4
X179.121Y-93.548
X180.006Y-81.956
X180.225Y-77.325
X181.667Y-90.113
X182.702Y-84.404
X183.425Y-77.725
X185.925Y-80.225
X193.75Y-44.25
X195.072Y-71.882
X200.279Y-83.845
X200.914Y-72.898
X202.692Y-80.772
X203.048Y-95.682
X205.645Y-83.605
X206.88Y-81.87
X215.265Y-50.038
X215.265Y-53.975
X216.075Y-65.3
X217.551Y-35.433
X220.95Y-59.5
X221.107Y-45.72
X221.234Y-53.975
X224.434Y-94.513
X225.169Y-63.206
T2
X159.775Y-36.225
X159.775Y-37.575
X160.625Y-36.225
X160.625Y-37.575
X161.475Y-36.225
X161.475Y-37.575
X162.325Y-36.225
X162.325Y-37.575
X163.175Y-36.225
X163.175Y-37.575
X164.025Y-36.225
X164.025Y-37.575
X164.875Y-36.225
X164.875Y-37.575
X165.725Y-36.225
X165.725Y-37.575
T3
X138.995Y-37.692
X139.698Y-35.995
X139.698Y-39.389
X139.84Y-97.59
X140.543Y-95.893
X140.543Y-99.287
X141.395Y-35.292
X141.395Y-40.092
X142.24Y-95.19
X142.24Y-99.99
X143.092Y-35.995
X143.092Y-39.389
X143.795Y-37.692
X143.937Y-95.893
X143.937Y-99.287
X144.64Y-97.59
X228.26Y-71.088
X228.963Y-69.391
X228.963Y-72.785
X230.66Y-68.688
X230.66Y-73.488
X232.357Y-69.391
X232.357Y-72.785
X233.06Y-71.088
X248.02Y-36.102
X248.722Y-34.405
X248.722Y-37.8
X250.278Y-99.588
X250.42Y-33.702
X250.42Y-38.502
X250.981Y-97.891
X250.981Y-101.285
X252.117Y-34.405
X252.117Y-37.8
X252.678Y-97.188
X252.678Y-101.988
X252.82Y-36.102
X254.375Y-97.891
X254.375Y-101.285
X255.078Y-99.588
T5
X184.277Y-32.385
X186.817Y-32.385
X189.357Y-32.385
X192.12Y-89.159
X195.961Y-89.154
T6
X142.46Y-86.5
X142.48Y-91.25
X143.73Y-86.5
X143.75Y-91.25
X145.0Y-86.5
X145.02Y-91.25
T7
X139.25Y-83.0
X139.25Y-93.16
X139.35Y-67.68
X139.35Y-77.84
X139.7Y-42.799
X139.7Y-52.959
X142.0Y-69.75
X142.5Y-72.17
X142.5Y-82.33
X143.002Y-42.799
X143.002Y-52.959
X145.5Y-79.0
X145.5Y-82.5
X146.265Y-50.275
X149.62Y-69.75
X152.25Y-66.03
X152.25Y-76.19
X155.25Y-65.99
X155.25Y-76.15
X155.66Y-79.0
X155.66Y-82.5
X156.425Y-50.275
X160.925Y-43.175
X160.925Y-45.675
X165.129Y-43.75
X170.129Y-43.75
X170.641Y-31.877
X170.641Y-36.877
X171.704Y-48.133
X171.975Y-64.135
X171.975Y-74.295
X172.348Y-44.196
X175.225Y-72.675
X175.225Y-82.835
X175.641Y-95.758
X175.7Y-100.5
X176.425Y-85.6
X176.425Y-90.6
X176.704Y-48.133
X177.348Y-44.196
X178.275Y-72.72
X178.275Y-82.88
X180.641Y-95.758
X180.7Y-100.5
X181.8Y-82.425
X181.8Y-87.425
X183.388Y-66.9
X183.388Y-69.4
X183.75Y-41.682
X183.75Y-44.182
X184.0Y-51.4
X184.0Y-56.4
X184.0Y-58.6
X184.0Y-63.6
X185.1Y-90.04
X185.1Y-100.2
X187.8Y-51.44
X187.8Y-61.6
X188.722Y-71.276
X188.722Y-76.276
X188.75Y-37.25
X188.75Y-47.41
X188.75Y-64.063
X188.75Y-69.063
X189.2Y-90.04
X189.2Y-100.2
X189.85Y-81.45
X189.85Y-86.45
X191.6Y-51.435
X191.6Y-61.595
X192.1Y-76.225
X196.85Y-81.475
X196.85Y-86.475
X197.1Y-76.225
X198.8Y-90.16
X198.8Y-100.32
X199.6Y-32.57
X199.6Y-42.73
X199.695Y-51.562
X199.695Y-61.722
X200.5Y-64.45
X200.5Y-69.45
X202.6Y-90.2
X202.6Y-100.36
X202.8Y-32.55
X202.8Y-42.71
X203.81Y-51.562
X203.81Y-61.722
X205.525Y-82.0
X205.525Y-87.0
X205.765Y-66.309
X205.765Y-68.809
X207.177Y-99.568
X207.304Y-94.361
X207.645Y-51.333
X207.645Y-56.333
X209.3Y-72.82
X209.3Y-82.98
X211.4Y-85.65
X211.4Y-90.65
X211.48Y-51.337
X211.48Y-56.337
X211.8Y-48.75
X212.177Y-99.568
X212.304Y-94.361
X212.55Y-60.1
X212.55Y-70.26
X212.6Y-72.825
X212.6Y-82.985
X214.7Y-32.64
X214.7Y-42.8
X218.75Y-32.64
X218.75Y-42.8
X221.96Y-48.75
X222.375Y-37.1
X222.375Y-39.64
X222.375Y-42.18
X222.375Y-44.72
X224.0Y-48.76
X225.65Y-33.4
X229.45Y-54.64
X229.45Y-64.8
X229.995Y-37.1
X229.995Y-39.64
X229.995Y-42.18
X229.995Y-44.72
X230.65Y-33.4
X232.6Y-54.625
X232.6Y-64.785
X232.925Y-41.2
X232.925Y-46.2
X233.26Y-82.02
X233.26Y-92.18
X234.16Y-48.76
X234.675Y-32.825
X234.715Y-36.2
X234.92Y-81.225
X236.195Y-66.725
X236.27Y-52.15
X244.835Y-32.825
X244.875Y-36.2
X245.08Y-81.225
X246.355Y-66.725
X246.43Y-52.15
X247.1Y-82.25
X247.1Y-92.41
X249.22Y-52.15
X249.645Y-66.95
X249.745Y-81.4
X259.38Y-52.15
X259.805Y-66.95
X259.905Y-81.4
X261.2Y-83.07
X261.2Y-93.23
X262.92Y-52.2
X263.12Y-66.75
X263.12Y-81.3
X273.08Y-52.2
X273.28Y-66.75
X273.28Y-81.3
T8
X147.599Y-34.823
X147.599Y-39.903
X147.599Y-42.443
X150.139Y-39.903
X150.139Y-42.443
X152.679Y-34.823
X152.679Y-39.903
X152.679Y-42.443
T9
X147.67Y-98.3
X148.875Y-88.725
X150.21Y-98.3
X151.415Y-88.725
X152.75Y-98.3
T10
X172.2Y-50.45
X177.009Y-50.059
X209.042Y-45.999
X209.55Y-54.356
X239.93Y-51.89
T11
X139.85Y-60.25
X139.85Y-62.79
X146.665Y-56.87
X154.165Y-56.87
X155.8Y-43.55
X155.8Y-46.09
X161.118Y-63.781
X163.618Y-63.781
X166.118Y-63.781
X173.674Y-56.868
X181.174Y-56.868
X218.65Y-63.7
X221.15Y-63.7
X223.65Y-63.7
X236.599Y-88.1
X236.6Y-44.5
X236.6Y-59.033
X236.6Y-73.567
X244.099Y-88.1
X244.1Y-44.5
X244.1Y-59.033
X244.1Y-73.567
X250.599Y-88.1
X250.6Y-44.6
X250.6Y-59.1
X250.6Y-73.6
X258.099Y-88.1
X258.1Y-44.6
X258.1Y-59.1
X258.1Y-73.6
X264.6Y-44.6
X264.6Y-59.1
X264.6Y-73.6
X264.6Y-88.1
X272.1Y-44.6
X272.1Y-59.1
X272.1Y-73.6
X272.1Y-88.1
T12
X142.95Y-67.0
X145.24Y-67.0
X147.53Y-67.0
T13
X161.072Y-67.01
X161.072Y-72.09
X163.612Y-67.01
X163.612Y-72.09
X166.153Y-67.01
X166.153Y-72.09
X181.356Y-32.385
X218.62Y-67.0
X218.62Y-72.08
X221.16Y-67.0
X221.16Y-72.08
X223.7Y-67.0
X223.7Y-72.08
X259.1Y-32.19
X259.1Y-39.81
T14
X174.752Y-37.592
X179.752Y-37.592
T15
X150.165Y-61.37
X159.5Y-83.3
X159.5Y-89.65
X159.5Y-96.0
X170.93Y-83.3
X170.93Y-89.65
X170.93Y-96.0
X177.174Y-61.368
X217.0Y-83.3
X217.0Y-89.65
X217.0Y-96.0
X228.43Y-83.3
X228.43Y-89.65
X228.43Y-96.0
X240.099Y-92.6
X240.1Y-49.0
X240.1Y-63.533
X240.1Y-78.067
X254.099Y-92.6
X254.1Y-49.1
X254.1Y-63.6
X254.1Y-78.1
X268.1Y-49.1
X268.1Y-63.6
X268.1Y-78.1
X268.1Y-92.6
T16
X194.056Y-100.584
T17
X141.395Y-37.692
X142.24Y-97.59
X230.66Y-71.088
X250.42Y-36.102
X252.678Y-99.588
T4
X147.915Y-55.52G85X147.915Y-56.42
G05
X149.715Y-54.57G85X150.615Y-54.57
G05
X152.415Y-55.52G85X152.415Y-56.42
G05
X158.425Y-33.615G85X158.425Y-32.815
G05
X158.425Y-37.345G85X158.425Y-35.845
G05
X167.075Y-33.615G85X167.075Y-32.815
G05
X167.075Y-37.345G85X167.075Y-35.845
G05
X174.924Y-55.518G85X174.924Y-56.418
G05
X176.724Y-54.568G85X177.624Y-54.568
G05
X179.424Y-55.518G85X179.424Y-56.418
G05
X237.849Y-86.75G85X237.849Y-87.65
G05
X237.85Y-43.15G85X237.85Y-44.05
G05
X237.85Y-57.683G85X237.85Y-58.583
G05
X237.85Y-72.217G85X237.85Y-73.117
G05
X239.649Y-85.8G85X240.549Y-85.8
G05
X239.65Y-42.2G85X240.55Y-42.2
G05
X239.65Y-56.733G85X240.55Y-56.733
G05
X239.65Y-71.267G85X240.55Y-71.267
G05
X242.349Y-86.75G85X242.349Y-87.65
G05
X242.35Y-43.15G85X242.35Y-44.05
G05
X242.35Y-57.683G85X242.35Y-58.583
G05
X242.35Y-72.217G85X242.35Y-73.117
G05
X251.849Y-86.75G85X251.849Y-87.65
G05
X251.85Y-43.25G85X251.85Y-44.15
G05
X251.85Y-57.75G85X251.85Y-58.65
G05
X251.85Y-72.25G85X251.85Y-73.15
G05
X253.649Y-85.8G85X254.549Y-85.8
G05
X253.65Y-42.3G85X254.55Y-42.3
G05
X253.65Y-56.8G85X254.55Y-56.8
G05
X253.65Y-71.3G85X254.55Y-71.3
G05
X256.349Y-86.75G85X256.349Y-87.65
G05
X256.35Y-43.25G85X256.35Y-44.15
G05
X256.35Y-57.75G85X256.35Y-58.65
G05
X256.35Y-72.25G85X256.35Y-73.15
G05
X265.85Y-43.25G85X265.85Y-44.15
G05
X265.85Y-57.75G85X265.85Y-58.65
G05
X265.85Y-72.25G85X265.85Y-73.15
G05
X265.85Y-86.75G85X265.85Y-87.65
G05
X267.65Y-42.3G85X268.55Y-42.3
G05
X267.65Y-56.8G85X268.55Y-56.8
G05
X267.65Y-71.3G85X268.55Y-71.3
G05
X267.65Y-85.8G85X268.55Y-85.8
G05
X270.35Y-43.25G85X270.35Y-44.15
G05
X270.35Y-57.75G85X270.35Y-58.65
G05
X270.35Y-72.25G85X270.35Y-73.15
G05
X270.35Y-86.75G85X270.35Y-87.65
G05
T5
X191.95Y-41.6G85X191.95Y-42.4
G05
X196.35Y-33.6G85X196.35Y-34.4
G05
X196.35Y-36.6G85X196.35Y-37.4
G05
X196.35Y-40.6G85X196.35Y-41.4
G05
X206.95Y-41.6G85X206.95Y-42.4
G05
X211.35Y-33.6G85X211.35Y-34.4
G05
X211.35Y-36.6G85X211.35Y-37.4
G05
X211.35Y-40.6G85X211.35Y-41.4
G05
M30
