%TF.GenerationSoftware,KiCad,Pcbnew,8.0.1*%
%TF.CreationDate,2024-03-31T00:10:13+01:00*%
%TF.ProjectId,spider2,73706964-6572-4322-9e6b-696361645f70,rev?*%
%TF.SameCoordinates,Original*%
%TF.FileFunction,Drillmap*%
%TF.FilePolarity,Positive*%
%FSLAX45Y45*%
G04 Gerber Fmt 4.5, Leading zero omitted, Abs format (unit mm)*
G04 Created by KiCad (PCBNEW 8.0.1) date 2024-03-31 00:10:13*
%MOMM*%
%LPD*%
G01*
G04 APERTURE LIST*
%ADD10C,0.254000*%
%ADD11C,0.200000*%
%ADD12C,0.120000*%
%ADD13C,0.150000*%
%ADD14C,0.220000*%
%ADD15C,0.300000*%
G04 APERTURE END LIST*
D10*
X26864460Y-3909160D02*
G75*
G02*
X26339460Y-3409160I-12500J512500D01*
G01*
X26339460Y-10309160D02*
X26339460Y-9959160D01*
X27014460Y-9459160D02*
X27464460Y-9459160D01*
X13764460Y-10309160D02*
X26339460Y-10309160D01*
X27464460Y-9459160D02*
X27464460Y-3909160D01*
X13764460Y-3059160D02*
X26364460Y-3059160D01*
X26339460Y-9959160D02*
G75*
G02*
X27014460Y-9459160I587500J-87500D01*
G01*
X13764460Y-3059160D02*
X13764460Y-10309160D01*
X26364460Y-3059160D02*
X26339460Y-3409160D01*
X26864460Y-3909160D02*
X27464460Y-3909160D01*
D11*
D12*
X14956520Y-5866971D02*
X15076520Y-5986971D01*
X15076520Y-5866971D02*
X14956520Y-5986971D01*
X17657407Y-5866825D02*
X17777407Y-5986825D01*
X17777407Y-5866825D02*
X17657407Y-5986825D01*
X23949911Y-8990000D02*
X24069911Y-9110000D01*
X24069911Y-8990000D02*
X23949911Y-9110000D01*
X23950000Y-4630000D02*
X24070000Y-4750000D01*
X24070000Y-4630000D02*
X23950000Y-4750000D01*
X23950000Y-6083333D02*
X24070000Y-6203333D01*
X24070000Y-6083333D02*
X23950000Y-6203333D01*
X23950000Y-7536667D02*
X24070000Y-7656667D01*
X24070000Y-7536667D02*
X23950000Y-7656667D01*
X25349911Y-8990000D02*
X25469911Y-9110000D01*
X25469911Y-8990000D02*
X25349911Y-9110000D01*
X25350000Y-4640000D02*
X25470000Y-4760000D01*
X25470000Y-4640000D02*
X25350000Y-4760000D01*
X25350000Y-6090000D02*
X25470000Y-6210000D01*
X25470000Y-6090000D02*
X25350000Y-6210000D01*
X25350000Y-7540000D02*
X25470000Y-7660000D01*
X25470000Y-7540000D02*
X25350000Y-7660000D01*
X26750000Y-4640000D02*
X26870000Y-4760000D01*
X26870000Y-4640000D02*
X26750000Y-4760000D01*
X26750000Y-6090000D02*
X26870000Y-6210000D01*
X26870000Y-6090000D02*
X26750000Y-6210000D01*
X26750000Y-7540000D02*
X26870000Y-7660000D01*
X26870000Y-7540000D02*
X26750000Y-7660000D01*
X26750000Y-8990000D02*
X26870000Y-9110000D01*
X26870000Y-8990000D02*
X26750000Y-9110000D01*
D13*
X19490000Y-3255000D02*
G75*
G02*
X19340000Y-3255000I-75000J0D01*
G01*
X19340000Y-3255000D02*
G75*
G02*
X19490000Y-3255000I75000J0D01*
G01*
X19490000Y-3955000D02*
G75*
G02*
X19340000Y-3955000I-75000J0D01*
G01*
X19340000Y-3955000D02*
G75*
G02*
X19490000Y-3955000I75000J0D01*
G01*
X20990000Y-3255000D02*
G75*
G02*
X20840000Y-3255000I-75000J0D01*
G01*
X20840000Y-3255000D02*
G75*
G02*
X20990000Y-3255000I75000J0D01*
G01*
X20990000Y-3955000D02*
G75*
G02*
X20840000Y-3955000I-75000J0D01*
G01*
X20840000Y-3955000D02*
G75*
G02*
X20990000Y-3955000I75000J0D01*
G01*
D11*
X15950000Y-9180000D02*
X15950000Y-9380000D01*
X15850000Y-9280000D02*
X16050000Y-9280000D01*
X17093000Y-9180000D02*
X17093000Y-9380000D01*
X16993000Y-9280000D02*
X17193000Y-9280000D01*
X21700000Y-9180000D02*
X21700000Y-9380000D01*
X21600000Y-9280000D02*
X21800000Y-9280000D01*
X22843000Y-9180000D02*
X22843000Y-9380000D01*
X22743000Y-9280000D02*
X22943000Y-9280000D01*
D14*
X15999539Y-5755873D02*
X15999539Y-5600308D01*
X15843974Y-5600308D01*
X15843974Y-5755873D01*
X15999539Y-5755873D01*
X16879539Y-5755873D02*
X16879539Y-5600308D01*
X16723974Y-5600308D01*
X16723974Y-5755873D01*
X16879539Y-5755873D01*
X21752776Y-5747782D02*
X21752776Y-5592218D01*
X21597211Y-5592218D01*
X21597211Y-5747782D01*
X21752776Y-5747782D01*
X22632775Y-5747782D02*
X22632775Y-5592218D01*
X22477210Y-5592218D01*
X22477210Y-5747782D01*
X22632775Y-5747782D01*
D15*
X16880000Y-8795000D02*
X17030000Y-8645000D01*
X16880000Y-8495000D01*
X16730000Y-8645000D01*
X16880000Y-8795000D01*
X22630000Y-8795000D02*
X22780000Y-8645000D01*
X22630000Y-8495000D01*
X22480000Y-8645000D01*
X22630000Y-8795000D01*
D11*
X14012537Y-10633344D02*
X14012537Y-10433344D01*
X14012537Y-10433344D02*
X14060156Y-10433344D01*
X14060156Y-10433344D02*
X14088727Y-10442868D01*
X14088727Y-10442868D02*
X14107775Y-10461915D01*
X14107775Y-10461915D02*
X14117299Y-10480963D01*
X14117299Y-10480963D02*
X14126822Y-10519058D01*
X14126822Y-10519058D02*
X14126822Y-10547630D01*
X14126822Y-10547630D02*
X14117299Y-10585725D01*
X14117299Y-10585725D02*
X14107775Y-10604772D01*
X14107775Y-10604772D02*
X14088727Y-10623820D01*
X14088727Y-10623820D02*
X14060156Y-10633344D01*
X14060156Y-10633344D02*
X14012537Y-10633344D01*
X14212537Y-10633344D02*
X14212537Y-10500010D01*
X14212537Y-10538106D02*
X14222061Y-10519058D01*
X14222061Y-10519058D02*
X14231584Y-10509534D01*
X14231584Y-10509534D02*
X14250632Y-10500010D01*
X14250632Y-10500010D02*
X14269680Y-10500010D01*
X14336346Y-10633344D02*
X14336346Y-10500010D01*
X14336346Y-10433344D02*
X14326822Y-10442868D01*
X14326822Y-10442868D02*
X14336346Y-10452391D01*
X14336346Y-10452391D02*
X14345870Y-10442868D01*
X14345870Y-10442868D02*
X14336346Y-10433344D01*
X14336346Y-10433344D02*
X14336346Y-10452391D01*
X14460156Y-10633344D02*
X14441108Y-10623820D01*
X14441108Y-10623820D02*
X14431584Y-10604772D01*
X14431584Y-10604772D02*
X14431584Y-10433344D01*
X14564918Y-10633344D02*
X14545870Y-10623820D01*
X14545870Y-10623820D02*
X14536346Y-10604772D01*
X14536346Y-10604772D02*
X14536346Y-10433344D01*
X14793489Y-10633344D02*
X14793489Y-10433344D01*
X14793489Y-10433344D02*
X14860156Y-10576201D01*
X14860156Y-10576201D02*
X14926822Y-10433344D01*
X14926822Y-10433344D02*
X14926822Y-10633344D01*
X15107775Y-10633344D02*
X15107775Y-10528582D01*
X15107775Y-10528582D02*
X15098251Y-10509534D01*
X15098251Y-10509534D02*
X15079203Y-10500010D01*
X15079203Y-10500010D02*
X15041108Y-10500010D01*
X15041108Y-10500010D02*
X15022061Y-10509534D01*
X15107775Y-10623820D02*
X15088727Y-10633344D01*
X15088727Y-10633344D02*
X15041108Y-10633344D01*
X15041108Y-10633344D02*
X15022061Y-10623820D01*
X15022061Y-10623820D02*
X15012537Y-10604772D01*
X15012537Y-10604772D02*
X15012537Y-10585725D01*
X15012537Y-10585725D02*
X15022061Y-10566677D01*
X15022061Y-10566677D02*
X15041108Y-10557153D01*
X15041108Y-10557153D02*
X15088727Y-10557153D01*
X15088727Y-10557153D02*
X15107775Y-10547630D01*
X15203013Y-10500010D02*
X15203013Y-10700010D01*
X15203013Y-10509534D02*
X15222061Y-10500010D01*
X15222061Y-10500010D02*
X15260156Y-10500010D01*
X15260156Y-10500010D02*
X15279203Y-10509534D01*
X15279203Y-10509534D02*
X15288727Y-10519058D01*
X15288727Y-10519058D02*
X15298251Y-10538106D01*
X15298251Y-10538106D02*
X15298251Y-10595249D01*
X15298251Y-10595249D02*
X15288727Y-10614296D01*
X15288727Y-10614296D02*
X15279203Y-10623820D01*
X15279203Y-10623820D02*
X15260156Y-10633344D01*
X15260156Y-10633344D02*
X15222061Y-10633344D01*
X15222061Y-10633344D02*
X15203013Y-10623820D01*
X15383965Y-10614296D02*
X15393489Y-10623820D01*
X15393489Y-10623820D02*
X15383965Y-10633344D01*
X15383965Y-10633344D02*
X15374442Y-10623820D01*
X15374442Y-10623820D02*
X15383965Y-10614296D01*
X15383965Y-10614296D02*
X15383965Y-10633344D01*
X15383965Y-10509534D02*
X15393489Y-10519058D01*
X15393489Y-10519058D02*
X15383965Y-10528582D01*
X15383965Y-10528582D02*
X15374442Y-10519058D01*
X15374442Y-10519058D02*
X15383965Y-10509534D01*
X15383965Y-10509534D02*
X15383965Y-10528582D01*
D12*
X13631760Y-10901860D02*
X13751760Y-11021860D01*
X13751760Y-10901860D02*
X13631760Y-11021860D01*
D11*
X14117299Y-11053344D02*
X14003013Y-11053344D01*
X14060156Y-11053344D02*
X14060156Y-10853344D01*
X14060156Y-10853344D02*
X14041108Y-10881915D01*
X14041108Y-10881915D02*
X14022061Y-10900963D01*
X14022061Y-10900963D02*
X14003013Y-10910487D01*
X14203013Y-11034296D02*
X14212537Y-11043820D01*
X14212537Y-11043820D02*
X14203013Y-11053344D01*
X14203013Y-11053344D02*
X14193489Y-11043820D01*
X14193489Y-11043820D02*
X14203013Y-11034296D01*
X14203013Y-11034296D02*
X14203013Y-11053344D01*
X14288727Y-10872391D02*
X14298251Y-10862868D01*
X14298251Y-10862868D02*
X14317299Y-10853344D01*
X14317299Y-10853344D02*
X14364918Y-10853344D01*
X14364918Y-10853344D02*
X14383965Y-10862868D01*
X14383965Y-10862868D02*
X14393489Y-10872391D01*
X14393489Y-10872391D02*
X14403013Y-10891439D01*
X14403013Y-10891439D02*
X14403013Y-10910487D01*
X14403013Y-10910487D02*
X14393489Y-10939058D01*
X14393489Y-10939058D02*
X14279203Y-11053344D01*
X14279203Y-11053344D02*
X14403013Y-11053344D01*
X14526822Y-10853344D02*
X14545870Y-10853344D01*
X14545870Y-10853344D02*
X14564918Y-10862868D01*
X14564918Y-10862868D02*
X14574442Y-10872391D01*
X14574442Y-10872391D02*
X14583965Y-10891439D01*
X14583965Y-10891439D02*
X14593489Y-10929534D01*
X14593489Y-10929534D02*
X14593489Y-10977153D01*
X14593489Y-10977153D02*
X14583965Y-11015249D01*
X14583965Y-11015249D02*
X14574442Y-11034296D01*
X14574442Y-11034296D02*
X14564918Y-11043820D01*
X14564918Y-11043820D02*
X14545870Y-11053344D01*
X14545870Y-11053344D02*
X14526822Y-11053344D01*
X14526822Y-11053344D02*
X14507775Y-11043820D01*
X14507775Y-11043820D02*
X14498251Y-11034296D01*
X14498251Y-11034296D02*
X14488727Y-11015249D01*
X14488727Y-11015249D02*
X14479203Y-10977153D01*
X14479203Y-10977153D02*
X14479203Y-10929534D01*
X14479203Y-10929534D02*
X14488727Y-10891439D01*
X14488727Y-10891439D02*
X14498251Y-10872391D01*
X14498251Y-10872391D02*
X14507775Y-10862868D01*
X14507775Y-10862868D02*
X14526822Y-10853344D01*
X14717299Y-10853344D02*
X14736346Y-10853344D01*
X14736346Y-10853344D02*
X14755394Y-10862868D01*
X14755394Y-10862868D02*
X14764918Y-10872391D01*
X14764918Y-10872391D02*
X14774442Y-10891439D01*
X14774442Y-10891439D02*
X14783965Y-10929534D01*
X14783965Y-10929534D02*
X14783965Y-10977153D01*
X14783965Y-10977153D02*
X14774442Y-11015249D01*
X14774442Y-11015249D02*
X14764918Y-11034296D01*
X14764918Y-11034296D02*
X14755394Y-11043820D01*
X14755394Y-11043820D02*
X14736346Y-11053344D01*
X14736346Y-11053344D02*
X14717299Y-11053344D01*
X14717299Y-11053344D02*
X14698251Y-11043820D01*
X14698251Y-11043820D02*
X14688727Y-11034296D01*
X14688727Y-11034296D02*
X14679203Y-11015249D01*
X14679203Y-11015249D02*
X14669680Y-10977153D01*
X14669680Y-10977153D02*
X14669680Y-10929534D01*
X14669680Y-10929534D02*
X14679203Y-10891439D01*
X14679203Y-10891439D02*
X14688727Y-10872391D01*
X14688727Y-10872391D02*
X14698251Y-10862868D01*
X14698251Y-10862868D02*
X14717299Y-10853344D01*
X14869680Y-11053344D02*
X14869680Y-10920010D01*
X14869680Y-10939058D02*
X14879203Y-10929534D01*
X14879203Y-10929534D02*
X14898251Y-10920010D01*
X14898251Y-10920010D02*
X14926823Y-10920010D01*
X14926823Y-10920010D02*
X14945870Y-10929534D01*
X14945870Y-10929534D02*
X14955394Y-10948582D01*
X14955394Y-10948582D02*
X14955394Y-11053344D01*
X14955394Y-10948582D02*
X14964918Y-10929534D01*
X14964918Y-10929534D02*
X14983965Y-10920010D01*
X14983965Y-10920010D02*
X15012537Y-10920010D01*
X15012537Y-10920010D02*
X15031584Y-10929534D01*
X15031584Y-10929534D02*
X15041108Y-10948582D01*
X15041108Y-10948582D02*
X15041108Y-11053344D01*
X15136346Y-11053344D02*
X15136346Y-10920010D01*
X15136346Y-10939058D02*
X15145870Y-10929534D01*
X15145870Y-10929534D02*
X15164918Y-10920010D01*
X15164918Y-10920010D02*
X15193489Y-10920010D01*
X15193489Y-10920010D02*
X15212537Y-10929534D01*
X15212537Y-10929534D02*
X15222061Y-10948582D01*
X15222061Y-10948582D02*
X15222061Y-11053344D01*
X15222061Y-10948582D02*
X15231584Y-10929534D01*
X15231584Y-10929534D02*
X15250632Y-10920010D01*
X15250632Y-10920010D02*
X15279203Y-10920010D01*
X15279203Y-10920010D02*
X15298251Y-10929534D01*
X15298251Y-10929534D02*
X15307775Y-10948582D01*
X15307775Y-10948582D02*
X15307775Y-11053344D01*
X15698251Y-10843820D02*
X15526823Y-11100963D01*
X15955394Y-10853344D02*
X15974442Y-10853344D01*
X15974442Y-10853344D02*
X15993489Y-10862868D01*
X15993489Y-10862868D02*
X16003013Y-10872391D01*
X16003013Y-10872391D02*
X16012537Y-10891439D01*
X16012537Y-10891439D02*
X16022061Y-10929534D01*
X16022061Y-10929534D02*
X16022061Y-10977153D01*
X16022061Y-10977153D02*
X16012537Y-11015249D01*
X16012537Y-11015249D02*
X16003013Y-11034296D01*
X16003013Y-11034296D02*
X15993489Y-11043820D01*
X15993489Y-11043820D02*
X15974442Y-11053344D01*
X15974442Y-11053344D02*
X15955394Y-11053344D01*
X15955394Y-11053344D02*
X15936346Y-11043820D01*
X15936346Y-11043820D02*
X15926823Y-11034296D01*
X15926823Y-11034296D02*
X15917299Y-11015249D01*
X15917299Y-11015249D02*
X15907775Y-10977153D01*
X15907775Y-10977153D02*
X15907775Y-10929534D01*
X15907775Y-10929534D02*
X15917299Y-10891439D01*
X15917299Y-10891439D02*
X15926823Y-10872391D01*
X15926823Y-10872391D02*
X15936346Y-10862868D01*
X15936346Y-10862868D02*
X15955394Y-10853344D01*
X16107775Y-11034296D02*
X16117299Y-11043820D01*
X16117299Y-11043820D02*
X16107775Y-11053344D01*
X16107775Y-11053344D02*
X16098251Y-11043820D01*
X16098251Y-11043820D02*
X16107775Y-11034296D01*
X16107775Y-11034296D02*
X16107775Y-11053344D01*
X16241108Y-10853344D02*
X16260156Y-10853344D01*
X16260156Y-10853344D02*
X16279204Y-10862868D01*
X16279204Y-10862868D02*
X16288727Y-10872391D01*
X16288727Y-10872391D02*
X16298251Y-10891439D01*
X16298251Y-10891439D02*
X16307775Y-10929534D01*
X16307775Y-10929534D02*
X16307775Y-10977153D01*
X16307775Y-10977153D02*
X16298251Y-11015249D01*
X16298251Y-11015249D02*
X16288727Y-11034296D01*
X16288727Y-11034296D02*
X16279204Y-11043820D01*
X16279204Y-11043820D02*
X16260156Y-11053344D01*
X16260156Y-11053344D02*
X16241108Y-11053344D01*
X16241108Y-11053344D02*
X16222061Y-11043820D01*
X16222061Y-11043820D02*
X16212537Y-11034296D01*
X16212537Y-11034296D02*
X16203013Y-11015249D01*
X16203013Y-11015249D02*
X16193489Y-10977153D01*
X16193489Y-10977153D02*
X16193489Y-10929534D01*
X16193489Y-10929534D02*
X16203013Y-10891439D01*
X16203013Y-10891439D02*
X16212537Y-10872391D01*
X16212537Y-10872391D02*
X16222061Y-10862868D01*
X16222061Y-10862868D02*
X16241108Y-10853344D01*
X16479204Y-10920010D02*
X16479204Y-11053344D01*
X16431585Y-10843820D02*
X16383966Y-10986677D01*
X16383966Y-10986677D02*
X16507775Y-10986677D01*
X16564918Y-10853344D02*
X16698251Y-10853344D01*
X16698251Y-10853344D02*
X16612537Y-11053344D01*
X16764918Y-10872391D02*
X16774442Y-10862868D01*
X16774442Y-10862868D02*
X16793489Y-10853344D01*
X16793489Y-10853344D02*
X16841109Y-10853344D01*
X16841109Y-10853344D02*
X16860156Y-10862868D01*
X16860156Y-10862868D02*
X16869680Y-10872391D01*
X16869680Y-10872391D02*
X16879204Y-10891439D01*
X16879204Y-10891439D02*
X16879204Y-10910487D01*
X16879204Y-10910487D02*
X16869680Y-10939058D01*
X16869680Y-10939058D02*
X16755394Y-11053344D01*
X16755394Y-11053344D02*
X16879204Y-11053344D01*
X16955394Y-10853344D02*
X16955394Y-10891439D01*
X17031585Y-10853344D02*
X17031585Y-10891439D01*
X17326823Y-11129534D02*
X17317299Y-11120010D01*
X17317299Y-11120010D02*
X17298251Y-11091439D01*
X17298251Y-11091439D02*
X17288728Y-11072391D01*
X17288728Y-11072391D02*
X17279204Y-11043820D01*
X17279204Y-11043820D02*
X17269680Y-10996201D01*
X17269680Y-10996201D02*
X17269680Y-10958106D01*
X17269680Y-10958106D02*
X17279204Y-10910487D01*
X17279204Y-10910487D02*
X17288728Y-10881915D01*
X17288728Y-10881915D02*
X17298251Y-10862868D01*
X17298251Y-10862868D02*
X17317299Y-10834296D01*
X17317299Y-10834296D02*
X17326823Y-10824772D01*
X17507775Y-11053344D02*
X17393490Y-11053344D01*
X17450632Y-11053344D02*
X17450632Y-10853344D01*
X17450632Y-10853344D02*
X17431585Y-10881915D01*
X17431585Y-10881915D02*
X17412537Y-10900963D01*
X17412537Y-10900963D02*
X17393490Y-10910487D01*
X17679204Y-10920010D02*
X17679204Y-11053344D01*
X17631585Y-10843820D02*
X17583966Y-10986677D01*
X17583966Y-10986677D02*
X17707775Y-10986677D01*
X17936347Y-11053344D02*
X17936347Y-10853344D01*
X18022061Y-11053344D02*
X18022061Y-10948582D01*
X18022061Y-10948582D02*
X18012537Y-10929534D01*
X18012537Y-10929534D02*
X17993490Y-10920010D01*
X17993490Y-10920010D02*
X17964918Y-10920010D01*
X17964918Y-10920010D02*
X17945871Y-10929534D01*
X17945871Y-10929534D02*
X17936347Y-10939058D01*
X18145871Y-11053344D02*
X18126823Y-11043820D01*
X18126823Y-11043820D02*
X18117299Y-11034296D01*
X18117299Y-11034296D02*
X18107775Y-11015249D01*
X18107775Y-11015249D02*
X18107775Y-10958106D01*
X18107775Y-10958106D02*
X18117299Y-10939058D01*
X18117299Y-10939058D02*
X18126823Y-10929534D01*
X18126823Y-10929534D02*
X18145871Y-10920010D01*
X18145871Y-10920010D02*
X18174442Y-10920010D01*
X18174442Y-10920010D02*
X18193490Y-10929534D01*
X18193490Y-10929534D02*
X18203013Y-10939058D01*
X18203013Y-10939058D02*
X18212537Y-10958106D01*
X18212537Y-10958106D02*
X18212537Y-11015249D01*
X18212537Y-11015249D02*
X18203013Y-11034296D01*
X18203013Y-11034296D02*
X18193490Y-11043820D01*
X18193490Y-11043820D02*
X18174442Y-11053344D01*
X18174442Y-11053344D02*
X18145871Y-11053344D01*
X18326823Y-11053344D02*
X18307775Y-11043820D01*
X18307775Y-11043820D02*
X18298252Y-11024772D01*
X18298252Y-11024772D02*
X18298252Y-10853344D01*
X18479204Y-11043820D02*
X18460156Y-11053344D01*
X18460156Y-11053344D02*
X18422061Y-11053344D01*
X18422061Y-11053344D02*
X18403013Y-11043820D01*
X18403013Y-11043820D02*
X18393490Y-11024772D01*
X18393490Y-11024772D02*
X18393490Y-10948582D01*
X18393490Y-10948582D02*
X18403013Y-10929534D01*
X18403013Y-10929534D02*
X18422061Y-10920010D01*
X18422061Y-10920010D02*
X18460156Y-10920010D01*
X18460156Y-10920010D02*
X18479204Y-10929534D01*
X18479204Y-10929534D02*
X18488728Y-10948582D01*
X18488728Y-10948582D02*
X18488728Y-10967630D01*
X18488728Y-10967630D02*
X18393490Y-10986677D01*
X18564918Y-11043820D02*
X18583966Y-11053344D01*
X18583966Y-11053344D02*
X18622061Y-11053344D01*
X18622061Y-11053344D02*
X18641109Y-11043820D01*
X18641109Y-11043820D02*
X18650633Y-11024772D01*
X18650633Y-11024772D02*
X18650633Y-11015249D01*
X18650633Y-11015249D02*
X18641109Y-10996201D01*
X18641109Y-10996201D02*
X18622061Y-10986677D01*
X18622061Y-10986677D02*
X18593490Y-10986677D01*
X18593490Y-10986677D02*
X18574442Y-10977153D01*
X18574442Y-10977153D02*
X18564918Y-10958106D01*
X18564918Y-10958106D02*
X18564918Y-10948582D01*
X18564918Y-10948582D02*
X18574442Y-10929534D01*
X18574442Y-10929534D02*
X18593490Y-10920010D01*
X18593490Y-10920010D02*
X18622061Y-10920010D01*
X18622061Y-10920010D02*
X18641109Y-10929534D01*
X18717299Y-11129534D02*
X18726823Y-11120010D01*
X18726823Y-11120010D02*
X18745871Y-11091439D01*
X18745871Y-11091439D02*
X18755394Y-11072391D01*
X18755394Y-11072391D02*
X18764918Y-11043820D01*
X18764918Y-11043820D02*
X18774442Y-10996201D01*
X18774442Y-10996201D02*
X18774442Y-10958106D01*
X18774442Y-10958106D02*
X18764918Y-10910487D01*
X18764918Y-10910487D02*
X18755394Y-10881915D01*
X18755394Y-10881915D02*
X18745871Y-10862868D01*
X18745871Y-10862868D02*
X18726823Y-10834296D01*
X18726823Y-10834296D02*
X18717299Y-10824772D01*
X19079204Y-11129534D02*
X19069680Y-11120010D01*
X19069680Y-11120010D02*
X19050633Y-11091439D01*
X19050633Y-11091439D02*
X19041109Y-11072391D01*
X19041109Y-11072391D02*
X19031585Y-11043820D01*
X19031585Y-11043820D02*
X19022061Y-10996201D01*
X19022061Y-10996201D02*
X19022061Y-10958106D01*
X19022061Y-10958106D02*
X19031585Y-10910487D01*
X19031585Y-10910487D02*
X19041109Y-10881915D01*
X19041109Y-10881915D02*
X19050633Y-10862868D01*
X19050633Y-10862868D02*
X19069680Y-10834296D01*
X19069680Y-10834296D02*
X19079204Y-10824772D01*
X19155394Y-10920010D02*
X19155394Y-11053344D01*
X19155394Y-10939058D02*
X19164918Y-10929534D01*
X19164918Y-10929534D02*
X19183966Y-10920010D01*
X19183966Y-10920010D02*
X19212537Y-10920010D01*
X19212537Y-10920010D02*
X19231585Y-10929534D01*
X19231585Y-10929534D02*
X19241109Y-10948582D01*
X19241109Y-10948582D02*
X19241109Y-11053344D01*
X19364918Y-11053344D02*
X19345871Y-11043820D01*
X19345871Y-11043820D02*
X19336347Y-11034296D01*
X19336347Y-11034296D02*
X19326823Y-11015249D01*
X19326823Y-11015249D02*
X19326823Y-10958106D01*
X19326823Y-10958106D02*
X19336347Y-10939058D01*
X19336347Y-10939058D02*
X19345871Y-10929534D01*
X19345871Y-10929534D02*
X19364918Y-10920010D01*
X19364918Y-10920010D02*
X19393490Y-10920010D01*
X19393490Y-10920010D02*
X19412537Y-10929534D01*
X19412537Y-10929534D02*
X19422061Y-10939058D01*
X19422061Y-10939058D02*
X19431585Y-10958106D01*
X19431585Y-10958106D02*
X19431585Y-11015249D01*
X19431585Y-11015249D02*
X19422061Y-11034296D01*
X19422061Y-11034296D02*
X19412537Y-11043820D01*
X19412537Y-11043820D02*
X19393490Y-11053344D01*
X19393490Y-11053344D02*
X19364918Y-11053344D01*
X19488728Y-10920010D02*
X19564918Y-10920010D01*
X19517299Y-10853344D02*
X19517299Y-11024772D01*
X19517299Y-11024772D02*
X19526823Y-11043820D01*
X19526823Y-11043820D02*
X19545871Y-11053344D01*
X19545871Y-11053344D02*
X19564918Y-11053344D01*
X19783966Y-10920010D02*
X19783966Y-11120010D01*
X19783966Y-10929534D02*
X19803014Y-10920010D01*
X19803014Y-10920010D02*
X19841109Y-10920010D01*
X19841109Y-10920010D02*
X19860156Y-10929534D01*
X19860156Y-10929534D02*
X19869680Y-10939058D01*
X19869680Y-10939058D02*
X19879204Y-10958106D01*
X19879204Y-10958106D02*
X19879204Y-11015249D01*
X19879204Y-11015249D02*
X19869680Y-11034296D01*
X19869680Y-11034296D02*
X19860156Y-11043820D01*
X19860156Y-11043820D02*
X19841109Y-11053344D01*
X19841109Y-11053344D02*
X19803014Y-11053344D01*
X19803014Y-11053344D02*
X19783966Y-11043820D01*
X19993490Y-11053344D02*
X19974442Y-11043820D01*
X19974442Y-11043820D02*
X19964918Y-11024772D01*
X19964918Y-11024772D02*
X19964918Y-10853344D01*
X20155395Y-11053344D02*
X20155395Y-10948582D01*
X20155395Y-10948582D02*
X20145871Y-10929534D01*
X20145871Y-10929534D02*
X20126823Y-10920010D01*
X20126823Y-10920010D02*
X20088728Y-10920010D01*
X20088728Y-10920010D02*
X20069680Y-10929534D01*
X20155395Y-11043820D02*
X20136347Y-11053344D01*
X20136347Y-11053344D02*
X20088728Y-11053344D01*
X20088728Y-11053344D02*
X20069680Y-11043820D01*
X20069680Y-11043820D02*
X20060156Y-11024772D01*
X20060156Y-11024772D02*
X20060156Y-11005725D01*
X20060156Y-11005725D02*
X20069680Y-10986677D01*
X20069680Y-10986677D02*
X20088728Y-10977153D01*
X20088728Y-10977153D02*
X20136347Y-10977153D01*
X20136347Y-10977153D02*
X20155395Y-10967630D01*
X20222061Y-10920010D02*
X20298252Y-10920010D01*
X20250633Y-10853344D02*
X20250633Y-11024772D01*
X20250633Y-11024772D02*
X20260156Y-11043820D01*
X20260156Y-11043820D02*
X20279204Y-11053344D01*
X20279204Y-11053344D02*
X20298252Y-11053344D01*
X20441109Y-11043820D02*
X20422061Y-11053344D01*
X20422061Y-11053344D02*
X20383966Y-11053344D01*
X20383966Y-11053344D02*
X20364918Y-11043820D01*
X20364918Y-11043820D02*
X20355395Y-11024772D01*
X20355395Y-11024772D02*
X20355395Y-10948582D01*
X20355395Y-10948582D02*
X20364918Y-10929534D01*
X20364918Y-10929534D02*
X20383966Y-10920010D01*
X20383966Y-10920010D02*
X20422061Y-10920010D01*
X20422061Y-10920010D02*
X20441109Y-10929534D01*
X20441109Y-10929534D02*
X20450633Y-10948582D01*
X20450633Y-10948582D02*
X20450633Y-10967630D01*
X20450633Y-10967630D02*
X20355395Y-10986677D01*
X20622061Y-11053344D02*
X20622061Y-10853344D01*
X20622061Y-11043820D02*
X20603014Y-11053344D01*
X20603014Y-11053344D02*
X20564918Y-11053344D01*
X20564918Y-11053344D02*
X20545871Y-11043820D01*
X20545871Y-11043820D02*
X20536347Y-11034296D01*
X20536347Y-11034296D02*
X20526823Y-11015249D01*
X20526823Y-11015249D02*
X20526823Y-10958106D01*
X20526823Y-10958106D02*
X20536347Y-10939058D01*
X20536347Y-10939058D02*
X20545871Y-10929534D01*
X20545871Y-10929534D02*
X20564918Y-10920010D01*
X20564918Y-10920010D02*
X20603014Y-10920010D01*
X20603014Y-10920010D02*
X20622061Y-10929534D01*
X20698252Y-11129534D02*
X20707776Y-11120010D01*
X20707776Y-11120010D02*
X20726823Y-11091439D01*
X20726823Y-11091439D02*
X20736347Y-11072391D01*
X20736347Y-11072391D02*
X20745871Y-11043820D01*
X20745871Y-11043820D02*
X20755395Y-10996201D01*
X20755395Y-10996201D02*
X20755395Y-10958106D01*
X20755395Y-10958106D02*
X20745871Y-10910487D01*
X20745871Y-10910487D02*
X20736347Y-10881915D01*
X20736347Y-10881915D02*
X20726823Y-10862868D01*
X20726823Y-10862868D02*
X20707776Y-10834296D01*
X20707776Y-10834296D02*
X20698252Y-10824772D01*
D13*
X13751760Y-11225860D02*
G75*
G02*
X13601760Y-11225860I-75000J0D01*
G01*
X13601760Y-11225860D02*
G75*
G02*
X13751760Y-11225860I75000J0D01*
G01*
D11*
X14117299Y-11317344D02*
X14003013Y-11317344D01*
X14060156Y-11317344D02*
X14060156Y-11117344D01*
X14060156Y-11117344D02*
X14041108Y-11145915D01*
X14041108Y-11145915D02*
X14022061Y-11164963D01*
X14022061Y-11164963D02*
X14003013Y-11174487D01*
X14203013Y-11298296D02*
X14212537Y-11307820D01*
X14212537Y-11307820D02*
X14203013Y-11317344D01*
X14203013Y-11317344D02*
X14193489Y-11307820D01*
X14193489Y-11307820D02*
X14203013Y-11298296D01*
X14203013Y-11298296D02*
X14203013Y-11317344D01*
X14393489Y-11117344D02*
X14298251Y-11117344D01*
X14298251Y-11117344D02*
X14288727Y-11212582D01*
X14288727Y-11212582D02*
X14298251Y-11203058D01*
X14298251Y-11203058D02*
X14317299Y-11193534D01*
X14317299Y-11193534D02*
X14364918Y-11193534D01*
X14364918Y-11193534D02*
X14383965Y-11203058D01*
X14383965Y-11203058D02*
X14393489Y-11212582D01*
X14393489Y-11212582D02*
X14403013Y-11231629D01*
X14403013Y-11231629D02*
X14403013Y-11279248D01*
X14403013Y-11279248D02*
X14393489Y-11298296D01*
X14393489Y-11298296D02*
X14383965Y-11307820D01*
X14383965Y-11307820D02*
X14364918Y-11317344D01*
X14364918Y-11317344D02*
X14317299Y-11317344D01*
X14317299Y-11317344D02*
X14298251Y-11307820D01*
X14298251Y-11307820D02*
X14288727Y-11298296D01*
X14526822Y-11117344D02*
X14545870Y-11117344D01*
X14545870Y-11117344D02*
X14564918Y-11126868D01*
X14564918Y-11126868D02*
X14574442Y-11136391D01*
X14574442Y-11136391D02*
X14583965Y-11155439D01*
X14583965Y-11155439D02*
X14593489Y-11193534D01*
X14593489Y-11193534D02*
X14593489Y-11241153D01*
X14593489Y-11241153D02*
X14583965Y-11279248D01*
X14583965Y-11279248D02*
X14574442Y-11298296D01*
X14574442Y-11298296D02*
X14564918Y-11307820D01*
X14564918Y-11307820D02*
X14545870Y-11317344D01*
X14545870Y-11317344D02*
X14526822Y-11317344D01*
X14526822Y-11317344D02*
X14507775Y-11307820D01*
X14507775Y-11307820D02*
X14498251Y-11298296D01*
X14498251Y-11298296D02*
X14488727Y-11279248D01*
X14488727Y-11279248D02*
X14479203Y-11241153D01*
X14479203Y-11241153D02*
X14479203Y-11193534D01*
X14479203Y-11193534D02*
X14488727Y-11155439D01*
X14488727Y-11155439D02*
X14498251Y-11136391D01*
X14498251Y-11136391D02*
X14507775Y-11126868D01*
X14507775Y-11126868D02*
X14526822Y-11117344D01*
X14717299Y-11117344D02*
X14736346Y-11117344D01*
X14736346Y-11117344D02*
X14755394Y-11126868D01*
X14755394Y-11126868D02*
X14764918Y-11136391D01*
X14764918Y-11136391D02*
X14774442Y-11155439D01*
X14774442Y-11155439D02*
X14783965Y-11193534D01*
X14783965Y-11193534D02*
X14783965Y-11241153D01*
X14783965Y-11241153D02*
X14774442Y-11279248D01*
X14774442Y-11279248D02*
X14764918Y-11298296D01*
X14764918Y-11298296D02*
X14755394Y-11307820D01*
X14755394Y-11307820D02*
X14736346Y-11317344D01*
X14736346Y-11317344D02*
X14717299Y-11317344D01*
X14717299Y-11317344D02*
X14698251Y-11307820D01*
X14698251Y-11307820D02*
X14688727Y-11298296D01*
X14688727Y-11298296D02*
X14679203Y-11279248D01*
X14679203Y-11279248D02*
X14669680Y-11241153D01*
X14669680Y-11241153D02*
X14669680Y-11193534D01*
X14669680Y-11193534D02*
X14679203Y-11155439D01*
X14679203Y-11155439D02*
X14688727Y-11136391D01*
X14688727Y-11136391D02*
X14698251Y-11126868D01*
X14698251Y-11126868D02*
X14717299Y-11117344D01*
X14869680Y-11317344D02*
X14869680Y-11184010D01*
X14869680Y-11203058D02*
X14879203Y-11193534D01*
X14879203Y-11193534D02*
X14898251Y-11184010D01*
X14898251Y-11184010D02*
X14926823Y-11184010D01*
X14926823Y-11184010D02*
X14945870Y-11193534D01*
X14945870Y-11193534D02*
X14955394Y-11212582D01*
X14955394Y-11212582D02*
X14955394Y-11317344D01*
X14955394Y-11212582D02*
X14964918Y-11193534D01*
X14964918Y-11193534D02*
X14983965Y-11184010D01*
X14983965Y-11184010D02*
X15012537Y-11184010D01*
X15012537Y-11184010D02*
X15031584Y-11193534D01*
X15031584Y-11193534D02*
X15041108Y-11212582D01*
X15041108Y-11212582D02*
X15041108Y-11317344D01*
X15136346Y-11317344D02*
X15136346Y-11184010D01*
X15136346Y-11203058D02*
X15145870Y-11193534D01*
X15145870Y-11193534D02*
X15164918Y-11184010D01*
X15164918Y-11184010D02*
X15193489Y-11184010D01*
X15193489Y-11184010D02*
X15212537Y-11193534D01*
X15212537Y-11193534D02*
X15222061Y-11212582D01*
X15222061Y-11212582D02*
X15222061Y-11317344D01*
X15222061Y-11212582D02*
X15231584Y-11193534D01*
X15231584Y-11193534D02*
X15250632Y-11184010D01*
X15250632Y-11184010D02*
X15279203Y-11184010D01*
X15279203Y-11184010D02*
X15298251Y-11193534D01*
X15298251Y-11193534D02*
X15307775Y-11212582D01*
X15307775Y-11212582D02*
X15307775Y-11317344D01*
X15698251Y-11107820D02*
X15526823Y-11364963D01*
X15955394Y-11117344D02*
X15974442Y-11117344D01*
X15974442Y-11117344D02*
X15993489Y-11126868D01*
X15993489Y-11126868D02*
X16003013Y-11136391D01*
X16003013Y-11136391D02*
X16012537Y-11155439D01*
X16012537Y-11155439D02*
X16022061Y-11193534D01*
X16022061Y-11193534D02*
X16022061Y-11241153D01*
X16022061Y-11241153D02*
X16012537Y-11279248D01*
X16012537Y-11279248D02*
X16003013Y-11298296D01*
X16003013Y-11298296D02*
X15993489Y-11307820D01*
X15993489Y-11307820D02*
X15974442Y-11317344D01*
X15974442Y-11317344D02*
X15955394Y-11317344D01*
X15955394Y-11317344D02*
X15936346Y-11307820D01*
X15936346Y-11307820D02*
X15926823Y-11298296D01*
X15926823Y-11298296D02*
X15917299Y-11279248D01*
X15917299Y-11279248D02*
X15907775Y-11241153D01*
X15907775Y-11241153D02*
X15907775Y-11193534D01*
X15907775Y-11193534D02*
X15917299Y-11155439D01*
X15917299Y-11155439D02*
X15926823Y-11136391D01*
X15926823Y-11136391D02*
X15936346Y-11126868D01*
X15936346Y-11126868D02*
X15955394Y-11117344D01*
X16107775Y-11298296D02*
X16117299Y-11307820D01*
X16117299Y-11307820D02*
X16107775Y-11317344D01*
X16107775Y-11317344D02*
X16098251Y-11307820D01*
X16098251Y-11307820D02*
X16107775Y-11298296D01*
X16107775Y-11298296D02*
X16107775Y-11317344D01*
X16241108Y-11117344D02*
X16260156Y-11117344D01*
X16260156Y-11117344D02*
X16279204Y-11126868D01*
X16279204Y-11126868D02*
X16288727Y-11136391D01*
X16288727Y-11136391D02*
X16298251Y-11155439D01*
X16298251Y-11155439D02*
X16307775Y-11193534D01*
X16307775Y-11193534D02*
X16307775Y-11241153D01*
X16307775Y-11241153D02*
X16298251Y-11279248D01*
X16298251Y-11279248D02*
X16288727Y-11298296D01*
X16288727Y-11298296D02*
X16279204Y-11307820D01*
X16279204Y-11307820D02*
X16260156Y-11317344D01*
X16260156Y-11317344D02*
X16241108Y-11317344D01*
X16241108Y-11317344D02*
X16222061Y-11307820D01*
X16222061Y-11307820D02*
X16212537Y-11298296D01*
X16212537Y-11298296D02*
X16203013Y-11279248D01*
X16203013Y-11279248D02*
X16193489Y-11241153D01*
X16193489Y-11241153D02*
X16193489Y-11193534D01*
X16193489Y-11193534D02*
X16203013Y-11155439D01*
X16203013Y-11155439D02*
X16212537Y-11136391D01*
X16212537Y-11136391D02*
X16222061Y-11126868D01*
X16222061Y-11126868D02*
X16241108Y-11117344D01*
X16488727Y-11117344D02*
X16393489Y-11117344D01*
X16393489Y-11117344D02*
X16383966Y-11212582D01*
X16383966Y-11212582D02*
X16393489Y-11203058D01*
X16393489Y-11203058D02*
X16412537Y-11193534D01*
X16412537Y-11193534D02*
X16460156Y-11193534D01*
X16460156Y-11193534D02*
X16479204Y-11203058D01*
X16479204Y-11203058D02*
X16488727Y-11212582D01*
X16488727Y-11212582D02*
X16498251Y-11231629D01*
X16498251Y-11231629D02*
X16498251Y-11279248D01*
X16498251Y-11279248D02*
X16488727Y-11298296D01*
X16488727Y-11298296D02*
X16479204Y-11307820D01*
X16479204Y-11307820D02*
X16460156Y-11317344D01*
X16460156Y-11317344D02*
X16412537Y-11317344D01*
X16412537Y-11317344D02*
X16393489Y-11307820D01*
X16393489Y-11307820D02*
X16383966Y-11298296D01*
X16593489Y-11317344D02*
X16631585Y-11317344D01*
X16631585Y-11317344D02*
X16650632Y-11307820D01*
X16650632Y-11307820D02*
X16660156Y-11298296D01*
X16660156Y-11298296D02*
X16679204Y-11269725D01*
X16679204Y-11269725D02*
X16688727Y-11231629D01*
X16688727Y-11231629D02*
X16688727Y-11155439D01*
X16688727Y-11155439D02*
X16679204Y-11136391D01*
X16679204Y-11136391D02*
X16669680Y-11126868D01*
X16669680Y-11126868D02*
X16650632Y-11117344D01*
X16650632Y-11117344D02*
X16612537Y-11117344D01*
X16612537Y-11117344D02*
X16593489Y-11126868D01*
X16593489Y-11126868D02*
X16583966Y-11136391D01*
X16583966Y-11136391D02*
X16574442Y-11155439D01*
X16574442Y-11155439D02*
X16574442Y-11203058D01*
X16574442Y-11203058D02*
X16583966Y-11222106D01*
X16583966Y-11222106D02*
X16593489Y-11231629D01*
X16593489Y-11231629D02*
X16612537Y-11241153D01*
X16612537Y-11241153D02*
X16650632Y-11241153D01*
X16650632Y-11241153D02*
X16669680Y-11231629D01*
X16669680Y-11231629D02*
X16679204Y-11222106D01*
X16679204Y-11222106D02*
X16688727Y-11203058D01*
X16879204Y-11317344D02*
X16764918Y-11317344D01*
X16822061Y-11317344D02*
X16822061Y-11117344D01*
X16822061Y-11117344D02*
X16803013Y-11145915D01*
X16803013Y-11145915D02*
X16783966Y-11164963D01*
X16783966Y-11164963D02*
X16764918Y-11174487D01*
X16955394Y-11117344D02*
X16955394Y-11155439D01*
X17031585Y-11117344D02*
X17031585Y-11155439D01*
X17326823Y-11393534D02*
X17317299Y-11384010D01*
X17317299Y-11384010D02*
X17298251Y-11355439D01*
X17298251Y-11355439D02*
X17288728Y-11336391D01*
X17288728Y-11336391D02*
X17279204Y-11307820D01*
X17279204Y-11307820D02*
X17269680Y-11260201D01*
X17269680Y-11260201D02*
X17269680Y-11222106D01*
X17269680Y-11222106D02*
X17279204Y-11174487D01*
X17279204Y-11174487D02*
X17288728Y-11145915D01*
X17288728Y-11145915D02*
X17298251Y-11126868D01*
X17298251Y-11126868D02*
X17317299Y-11098296D01*
X17317299Y-11098296D02*
X17326823Y-11088772D01*
X17488728Y-11184010D02*
X17488728Y-11317344D01*
X17441109Y-11107820D02*
X17393490Y-11250677D01*
X17393490Y-11250677D02*
X17517299Y-11250677D01*
X17745871Y-11317344D02*
X17745871Y-11117344D01*
X17831585Y-11317344D02*
X17831585Y-11212582D01*
X17831585Y-11212582D02*
X17822061Y-11193534D01*
X17822061Y-11193534D02*
X17803013Y-11184010D01*
X17803013Y-11184010D02*
X17774442Y-11184010D01*
X17774442Y-11184010D02*
X17755394Y-11193534D01*
X17755394Y-11193534D02*
X17745871Y-11203058D01*
X17955394Y-11317344D02*
X17936347Y-11307820D01*
X17936347Y-11307820D02*
X17926823Y-11298296D01*
X17926823Y-11298296D02*
X17917299Y-11279248D01*
X17917299Y-11279248D02*
X17917299Y-11222106D01*
X17917299Y-11222106D02*
X17926823Y-11203058D01*
X17926823Y-11203058D02*
X17936347Y-11193534D01*
X17936347Y-11193534D02*
X17955394Y-11184010D01*
X17955394Y-11184010D02*
X17983966Y-11184010D01*
X17983966Y-11184010D02*
X18003013Y-11193534D01*
X18003013Y-11193534D02*
X18012537Y-11203058D01*
X18012537Y-11203058D02*
X18022061Y-11222106D01*
X18022061Y-11222106D02*
X18022061Y-11279248D01*
X18022061Y-11279248D02*
X18012537Y-11298296D01*
X18012537Y-11298296D02*
X18003013Y-11307820D01*
X18003013Y-11307820D02*
X17983966Y-11317344D01*
X17983966Y-11317344D02*
X17955394Y-11317344D01*
X18136347Y-11317344D02*
X18117299Y-11307820D01*
X18117299Y-11307820D02*
X18107775Y-11288772D01*
X18107775Y-11288772D02*
X18107775Y-11117344D01*
X18288728Y-11307820D02*
X18269680Y-11317344D01*
X18269680Y-11317344D02*
X18231585Y-11317344D01*
X18231585Y-11317344D02*
X18212537Y-11307820D01*
X18212537Y-11307820D02*
X18203013Y-11288772D01*
X18203013Y-11288772D02*
X18203013Y-11212582D01*
X18203013Y-11212582D02*
X18212537Y-11193534D01*
X18212537Y-11193534D02*
X18231585Y-11184010D01*
X18231585Y-11184010D02*
X18269680Y-11184010D01*
X18269680Y-11184010D02*
X18288728Y-11193534D01*
X18288728Y-11193534D02*
X18298252Y-11212582D01*
X18298252Y-11212582D02*
X18298252Y-11231629D01*
X18298252Y-11231629D02*
X18203013Y-11250677D01*
X18374442Y-11307820D02*
X18393490Y-11317344D01*
X18393490Y-11317344D02*
X18431585Y-11317344D01*
X18431585Y-11317344D02*
X18450633Y-11307820D01*
X18450633Y-11307820D02*
X18460156Y-11288772D01*
X18460156Y-11288772D02*
X18460156Y-11279248D01*
X18460156Y-11279248D02*
X18450633Y-11260201D01*
X18450633Y-11260201D02*
X18431585Y-11250677D01*
X18431585Y-11250677D02*
X18403013Y-11250677D01*
X18403013Y-11250677D02*
X18383966Y-11241153D01*
X18383966Y-11241153D02*
X18374442Y-11222106D01*
X18374442Y-11222106D02*
X18374442Y-11212582D01*
X18374442Y-11212582D02*
X18383966Y-11193534D01*
X18383966Y-11193534D02*
X18403013Y-11184010D01*
X18403013Y-11184010D02*
X18431585Y-11184010D01*
X18431585Y-11184010D02*
X18450633Y-11193534D01*
X18526823Y-11393534D02*
X18536347Y-11384010D01*
X18536347Y-11384010D02*
X18555394Y-11355439D01*
X18555394Y-11355439D02*
X18564918Y-11336391D01*
X18564918Y-11336391D02*
X18574442Y-11307820D01*
X18574442Y-11307820D02*
X18583966Y-11260201D01*
X18583966Y-11260201D02*
X18583966Y-11222106D01*
X18583966Y-11222106D02*
X18574442Y-11174487D01*
X18574442Y-11174487D02*
X18564918Y-11145915D01*
X18564918Y-11145915D02*
X18555394Y-11126868D01*
X18555394Y-11126868D02*
X18536347Y-11098296D01*
X18536347Y-11098296D02*
X18526823Y-11088772D01*
X18888728Y-11393534D02*
X18879204Y-11384010D01*
X18879204Y-11384010D02*
X18860156Y-11355439D01*
X18860156Y-11355439D02*
X18850633Y-11336391D01*
X18850633Y-11336391D02*
X18841109Y-11307820D01*
X18841109Y-11307820D02*
X18831585Y-11260201D01*
X18831585Y-11260201D02*
X18831585Y-11222106D01*
X18831585Y-11222106D02*
X18841109Y-11174487D01*
X18841109Y-11174487D02*
X18850633Y-11145915D01*
X18850633Y-11145915D02*
X18860156Y-11126868D01*
X18860156Y-11126868D02*
X18879204Y-11098296D01*
X18879204Y-11098296D02*
X18888728Y-11088772D01*
X18964918Y-11184010D02*
X18964918Y-11317344D01*
X18964918Y-11203058D02*
X18974442Y-11193534D01*
X18974442Y-11193534D02*
X18993490Y-11184010D01*
X18993490Y-11184010D02*
X19022061Y-11184010D01*
X19022061Y-11184010D02*
X19041109Y-11193534D01*
X19041109Y-11193534D02*
X19050633Y-11212582D01*
X19050633Y-11212582D02*
X19050633Y-11317344D01*
X19174442Y-11317344D02*
X19155394Y-11307820D01*
X19155394Y-11307820D02*
X19145871Y-11298296D01*
X19145871Y-11298296D02*
X19136347Y-11279248D01*
X19136347Y-11279248D02*
X19136347Y-11222106D01*
X19136347Y-11222106D02*
X19145871Y-11203058D01*
X19145871Y-11203058D02*
X19155394Y-11193534D01*
X19155394Y-11193534D02*
X19174442Y-11184010D01*
X19174442Y-11184010D02*
X19203014Y-11184010D01*
X19203014Y-11184010D02*
X19222061Y-11193534D01*
X19222061Y-11193534D02*
X19231585Y-11203058D01*
X19231585Y-11203058D02*
X19241109Y-11222106D01*
X19241109Y-11222106D02*
X19241109Y-11279248D01*
X19241109Y-11279248D02*
X19231585Y-11298296D01*
X19231585Y-11298296D02*
X19222061Y-11307820D01*
X19222061Y-11307820D02*
X19203014Y-11317344D01*
X19203014Y-11317344D02*
X19174442Y-11317344D01*
X19298252Y-11184010D02*
X19374442Y-11184010D01*
X19326823Y-11117344D02*
X19326823Y-11288772D01*
X19326823Y-11288772D02*
X19336347Y-11307820D01*
X19336347Y-11307820D02*
X19355394Y-11317344D01*
X19355394Y-11317344D02*
X19374442Y-11317344D01*
X19593490Y-11184010D02*
X19593490Y-11384010D01*
X19593490Y-11193534D02*
X19612537Y-11184010D01*
X19612537Y-11184010D02*
X19650633Y-11184010D01*
X19650633Y-11184010D02*
X19669680Y-11193534D01*
X19669680Y-11193534D02*
X19679204Y-11203058D01*
X19679204Y-11203058D02*
X19688728Y-11222106D01*
X19688728Y-11222106D02*
X19688728Y-11279248D01*
X19688728Y-11279248D02*
X19679204Y-11298296D01*
X19679204Y-11298296D02*
X19669680Y-11307820D01*
X19669680Y-11307820D02*
X19650633Y-11317344D01*
X19650633Y-11317344D02*
X19612537Y-11317344D01*
X19612537Y-11317344D02*
X19593490Y-11307820D01*
X19803014Y-11317344D02*
X19783966Y-11307820D01*
X19783966Y-11307820D02*
X19774442Y-11288772D01*
X19774442Y-11288772D02*
X19774442Y-11117344D01*
X19964918Y-11317344D02*
X19964918Y-11212582D01*
X19964918Y-11212582D02*
X19955395Y-11193534D01*
X19955395Y-11193534D02*
X19936347Y-11184010D01*
X19936347Y-11184010D02*
X19898252Y-11184010D01*
X19898252Y-11184010D02*
X19879204Y-11193534D01*
X19964918Y-11307820D02*
X19945871Y-11317344D01*
X19945871Y-11317344D02*
X19898252Y-11317344D01*
X19898252Y-11317344D02*
X19879204Y-11307820D01*
X19879204Y-11307820D02*
X19869680Y-11288772D01*
X19869680Y-11288772D02*
X19869680Y-11269725D01*
X19869680Y-11269725D02*
X19879204Y-11250677D01*
X19879204Y-11250677D02*
X19898252Y-11241153D01*
X19898252Y-11241153D02*
X19945871Y-11241153D01*
X19945871Y-11241153D02*
X19964918Y-11231629D01*
X20031585Y-11184010D02*
X20107775Y-11184010D01*
X20060156Y-11117344D02*
X20060156Y-11288772D01*
X20060156Y-11288772D02*
X20069680Y-11307820D01*
X20069680Y-11307820D02*
X20088728Y-11317344D01*
X20088728Y-11317344D02*
X20107775Y-11317344D01*
X20250633Y-11307820D02*
X20231585Y-11317344D01*
X20231585Y-11317344D02*
X20193490Y-11317344D01*
X20193490Y-11317344D02*
X20174442Y-11307820D01*
X20174442Y-11307820D02*
X20164918Y-11288772D01*
X20164918Y-11288772D02*
X20164918Y-11212582D01*
X20164918Y-11212582D02*
X20174442Y-11193534D01*
X20174442Y-11193534D02*
X20193490Y-11184010D01*
X20193490Y-11184010D02*
X20231585Y-11184010D01*
X20231585Y-11184010D02*
X20250633Y-11193534D01*
X20250633Y-11193534D02*
X20260156Y-11212582D01*
X20260156Y-11212582D02*
X20260156Y-11231629D01*
X20260156Y-11231629D02*
X20164918Y-11250677D01*
X20431585Y-11317344D02*
X20431585Y-11117344D01*
X20431585Y-11307820D02*
X20412537Y-11317344D01*
X20412537Y-11317344D02*
X20374442Y-11317344D01*
X20374442Y-11317344D02*
X20355395Y-11307820D01*
X20355395Y-11307820D02*
X20345871Y-11298296D01*
X20345871Y-11298296D02*
X20336347Y-11279248D01*
X20336347Y-11279248D02*
X20336347Y-11222106D01*
X20336347Y-11222106D02*
X20345871Y-11203058D01*
X20345871Y-11203058D02*
X20355395Y-11193534D01*
X20355395Y-11193534D02*
X20374442Y-11184010D01*
X20374442Y-11184010D02*
X20412537Y-11184010D01*
X20412537Y-11184010D02*
X20431585Y-11193534D01*
X20507776Y-11393534D02*
X20517299Y-11384010D01*
X20517299Y-11384010D02*
X20536347Y-11355439D01*
X20536347Y-11355439D02*
X20545871Y-11336391D01*
X20545871Y-11336391D02*
X20555395Y-11307820D01*
X20555395Y-11307820D02*
X20564918Y-11260201D01*
X20564918Y-11260201D02*
X20564918Y-11222106D01*
X20564918Y-11222106D02*
X20555395Y-11174487D01*
X20555395Y-11174487D02*
X20545871Y-11145915D01*
X20545871Y-11145915D02*
X20536347Y-11126868D01*
X20536347Y-11126868D02*
X20517299Y-11098296D01*
X20517299Y-11098296D02*
X20507776Y-11088772D01*
X13651760Y-11395860D02*
X13651760Y-11595860D01*
X13551760Y-11495860D02*
X13751760Y-11495860D01*
X14003013Y-11406391D02*
X14012537Y-11396868D01*
X14012537Y-11396868D02*
X14031584Y-11387344D01*
X14031584Y-11387344D02*
X14079203Y-11387344D01*
X14079203Y-11387344D02*
X14098251Y-11396868D01*
X14098251Y-11396868D02*
X14107775Y-11406391D01*
X14107775Y-11406391D02*
X14117299Y-11425439D01*
X14117299Y-11425439D02*
X14117299Y-11444487D01*
X14117299Y-11444487D02*
X14107775Y-11473058D01*
X14107775Y-11473058D02*
X13993489Y-11587344D01*
X13993489Y-11587344D02*
X14117299Y-11587344D01*
X14203013Y-11568296D02*
X14212537Y-11577820D01*
X14212537Y-11577820D02*
X14203013Y-11587344D01*
X14203013Y-11587344D02*
X14193489Y-11577820D01*
X14193489Y-11577820D02*
X14203013Y-11568296D01*
X14203013Y-11568296D02*
X14203013Y-11587344D01*
X14336346Y-11387344D02*
X14355394Y-11387344D01*
X14355394Y-11387344D02*
X14374442Y-11396868D01*
X14374442Y-11396868D02*
X14383965Y-11406391D01*
X14383965Y-11406391D02*
X14393489Y-11425439D01*
X14393489Y-11425439D02*
X14403013Y-11463534D01*
X14403013Y-11463534D02*
X14403013Y-11511153D01*
X14403013Y-11511153D02*
X14393489Y-11549248D01*
X14393489Y-11549248D02*
X14383965Y-11568296D01*
X14383965Y-11568296D02*
X14374442Y-11577820D01*
X14374442Y-11577820D02*
X14355394Y-11587344D01*
X14355394Y-11587344D02*
X14336346Y-11587344D01*
X14336346Y-11587344D02*
X14317299Y-11577820D01*
X14317299Y-11577820D02*
X14307775Y-11568296D01*
X14307775Y-11568296D02*
X14298251Y-11549248D01*
X14298251Y-11549248D02*
X14288727Y-11511153D01*
X14288727Y-11511153D02*
X14288727Y-11463534D01*
X14288727Y-11463534D02*
X14298251Y-11425439D01*
X14298251Y-11425439D02*
X14307775Y-11406391D01*
X14307775Y-11406391D02*
X14317299Y-11396868D01*
X14317299Y-11396868D02*
X14336346Y-11387344D01*
X14526822Y-11387344D02*
X14545870Y-11387344D01*
X14545870Y-11387344D02*
X14564918Y-11396868D01*
X14564918Y-11396868D02*
X14574442Y-11406391D01*
X14574442Y-11406391D02*
X14583965Y-11425439D01*
X14583965Y-11425439D02*
X14593489Y-11463534D01*
X14593489Y-11463534D02*
X14593489Y-11511153D01*
X14593489Y-11511153D02*
X14583965Y-11549248D01*
X14583965Y-11549248D02*
X14574442Y-11568296D01*
X14574442Y-11568296D02*
X14564918Y-11577820D01*
X14564918Y-11577820D02*
X14545870Y-11587344D01*
X14545870Y-11587344D02*
X14526822Y-11587344D01*
X14526822Y-11587344D02*
X14507775Y-11577820D01*
X14507775Y-11577820D02*
X14498251Y-11568296D01*
X14498251Y-11568296D02*
X14488727Y-11549248D01*
X14488727Y-11549248D02*
X14479203Y-11511153D01*
X14479203Y-11511153D02*
X14479203Y-11463534D01*
X14479203Y-11463534D02*
X14488727Y-11425439D01*
X14488727Y-11425439D02*
X14498251Y-11406391D01*
X14498251Y-11406391D02*
X14507775Y-11396868D01*
X14507775Y-11396868D02*
X14526822Y-11387344D01*
X14717299Y-11387344D02*
X14736346Y-11387344D01*
X14736346Y-11387344D02*
X14755394Y-11396868D01*
X14755394Y-11396868D02*
X14764918Y-11406391D01*
X14764918Y-11406391D02*
X14774442Y-11425439D01*
X14774442Y-11425439D02*
X14783965Y-11463534D01*
X14783965Y-11463534D02*
X14783965Y-11511153D01*
X14783965Y-11511153D02*
X14774442Y-11549248D01*
X14774442Y-11549248D02*
X14764918Y-11568296D01*
X14764918Y-11568296D02*
X14755394Y-11577820D01*
X14755394Y-11577820D02*
X14736346Y-11587344D01*
X14736346Y-11587344D02*
X14717299Y-11587344D01*
X14717299Y-11587344D02*
X14698251Y-11577820D01*
X14698251Y-11577820D02*
X14688727Y-11568296D01*
X14688727Y-11568296D02*
X14679203Y-11549248D01*
X14679203Y-11549248D02*
X14669680Y-11511153D01*
X14669680Y-11511153D02*
X14669680Y-11463534D01*
X14669680Y-11463534D02*
X14679203Y-11425439D01*
X14679203Y-11425439D02*
X14688727Y-11406391D01*
X14688727Y-11406391D02*
X14698251Y-11396868D01*
X14698251Y-11396868D02*
X14717299Y-11387344D01*
X14869680Y-11587344D02*
X14869680Y-11454010D01*
X14869680Y-11473058D02*
X14879203Y-11463534D01*
X14879203Y-11463534D02*
X14898251Y-11454010D01*
X14898251Y-11454010D02*
X14926823Y-11454010D01*
X14926823Y-11454010D02*
X14945870Y-11463534D01*
X14945870Y-11463534D02*
X14955394Y-11482582D01*
X14955394Y-11482582D02*
X14955394Y-11587344D01*
X14955394Y-11482582D02*
X14964918Y-11463534D01*
X14964918Y-11463534D02*
X14983965Y-11454010D01*
X14983965Y-11454010D02*
X15012537Y-11454010D01*
X15012537Y-11454010D02*
X15031584Y-11463534D01*
X15031584Y-11463534D02*
X15041108Y-11482582D01*
X15041108Y-11482582D02*
X15041108Y-11587344D01*
X15136346Y-11587344D02*
X15136346Y-11454010D01*
X15136346Y-11473058D02*
X15145870Y-11463534D01*
X15145870Y-11463534D02*
X15164918Y-11454010D01*
X15164918Y-11454010D02*
X15193489Y-11454010D01*
X15193489Y-11454010D02*
X15212537Y-11463534D01*
X15212537Y-11463534D02*
X15222061Y-11482582D01*
X15222061Y-11482582D02*
X15222061Y-11587344D01*
X15222061Y-11482582D02*
X15231584Y-11463534D01*
X15231584Y-11463534D02*
X15250632Y-11454010D01*
X15250632Y-11454010D02*
X15279203Y-11454010D01*
X15279203Y-11454010D02*
X15298251Y-11463534D01*
X15298251Y-11463534D02*
X15307775Y-11482582D01*
X15307775Y-11482582D02*
X15307775Y-11587344D01*
X15698251Y-11377820D02*
X15526823Y-11634963D01*
X15955394Y-11387344D02*
X15974442Y-11387344D01*
X15974442Y-11387344D02*
X15993489Y-11396868D01*
X15993489Y-11396868D02*
X16003013Y-11406391D01*
X16003013Y-11406391D02*
X16012537Y-11425439D01*
X16012537Y-11425439D02*
X16022061Y-11463534D01*
X16022061Y-11463534D02*
X16022061Y-11511153D01*
X16022061Y-11511153D02*
X16012537Y-11549248D01*
X16012537Y-11549248D02*
X16003013Y-11568296D01*
X16003013Y-11568296D02*
X15993489Y-11577820D01*
X15993489Y-11577820D02*
X15974442Y-11587344D01*
X15974442Y-11587344D02*
X15955394Y-11587344D01*
X15955394Y-11587344D02*
X15936346Y-11577820D01*
X15936346Y-11577820D02*
X15926823Y-11568296D01*
X15926823Y-11568296D02*
X15917299Y-11549248D01*
X15917299Y-11549248D02*
X15907775Y-11511153D01*
X15907775Y-11511153D02*
X15907775Y-11463534D01*
X15907775Y-11463534D02*
X15917299Y-11425439D01*
X15917299Y-11425439D02*
X15926823Y-11406391D01*
X15926823Y-11406391D02*
X15936346Y-11396868D01*
X15936346Y-11396868D02*
X15955394Y-11387344D01*
X16107775Y-11568296D02*
X16117299Y-11577820D01*
X16117299Y-11577820D02*
X16107775Y-11587344D01*
X16107775Y-11587344D02*
X16098251Y-11577820D01*
X16098251Y-11577820D02*
X16107775Y-11568296D01*
X16107775Y-11568296D02*
X16107775Y-11587344D01*
X16241108Y-11387344D02*
X16260156Y-11387344D01*
X16260156Y-11387344D02*
X16279204Y-11396868D01*
X16279204Y-11396868D02*
X16288727Y-11406391D01*
X16288727Y-11406391D02*
X16298251Y-11425439D01*
X16298251Y-11425439D02*
X16307775Y-11463534D01*
X16307775Y-11463534D02*
X16307775Y-11511153D01*
X16307775Y-11511153D02*
X16298251Y-11549248D01*
X16298251Y-11549248D02*
X16288727Y-11568296D01*
X16288727Y-11568296D02*
X16279204Y-11577820D01*
X16279204Y-11577820D02*
X16260156Y-11587344D01*
X16260156Y-11587344D02*
X16241108Y-11587344D01*
X16241108Y-11587344D02*
X16222061Y-11577820D01*
X16222061Y-11577820D02*
X16212537Y-11568296D01*
X16212537Y-11568296D02*
X16203013Y-11549248D01*
X16203013Y-11549248D02*
X16193489Y-11511153D01*
X16193489Y-11511153D02*
X16193489Y-11463534D01*
X16193489Y-11463534D02*
X16203013Y-11425439D01*
X16203013Y-11425439D02*
X16212537Y-11406391D01*
X16212537Y-11406391D02*
X16222061Y-11396868D01*
X16222061Y-11396868D02*
X16241108Y-11387344D01*
X16374442Y-11387344D02*
X16507775Y-11387344D01*
X16507775Y-11387344D02*
X16422061Y-11587344D01*
X16612537Y-11473058D02*
X16593489Y-11463534D01*
X16593489Y-11463534D02*
X16583966Y-11454010D01*
X16583966Y-11454010D02*
X16574442Y-11434963D01*
X16574442Y-11434963D02*
X16574442Y-11425439D01*
X16574442Y-11425439D02*
X16583966Y-11406391D01*
X16583966Y-11406391D02*
X16593489Y-11396868D01*
X16593489Y-11396868D02*
X16612537Y-11387344D01*
X16612537Y-11387344D02*
X16650632Y-11387344D01*
X16650632Y-11387344D02*
X16669680Y-11396868D01*
X16669680Y-11396868D02*
X16679204Y-11406391D01*
X16679204Y-11406391D02*
X16688727Y-11425439D01*
X16688727Y-11425439D02*
X16688727Y-11434963D01*
X16688727Y-11434963D02*
X16679204Y-11454010D01*
X16679204Y-11454010D02*
X16669680Y-11463534D01*
X16669680Y-11463534D02*
X16650632Y-11473058D01*
X16650632Y-11473058D02*
X16612537Y-11473058D01*
X16612537Y-11473058D02*
X16593489Y-11482582D01*
X16593489Y-11482582D02*
X16583966Y-11492106D01*
X16583966Y-11492106D02*
X16574442Y-11511153D01*
X16574442Y-11511153D02*
X16574442Y-11549248D01*
X16574442Y-11549248D02*
X16583966Y-11568296D01*
X16583966Y-11568296D02*
X16593489Y-11577820D01*
X16593489Y-11577820D02*
X16612537Y-11587344D01*
X16612537Y-11587344D02*
X16650632Y-11587344D01*
X16650632Y-11587344D02*
X16669680Y-11577820D01*
X16669680Y-11577820D02*
X16679204Y-11568296D01*
X16679204Y-11568296D02*
X16688727Y-11549248D01*
X16688727Y-11549248D02*
X16688727Y-11511153D01*
X16688727Y-11511153D02*
X16679204Y-11492106D01*
X16679204Y-11492106D02*
X16669680Y-11482582D01*
X16669680Y-11482582D02*
X16650632Y-11473058D01*
X16755394Y-11387344D02*
X16888728Y-11387344D01*
X16888728Y-11387344D02*
X16803013Y-11587344D01*
X16955394Y-11387344D02*
X16955394Y-11425439D01*
X17031585Y-11387344D02*
X17031585Y-11425439D01*
X17326823Y-11663534D02*
X17317299Y-11654010D01*
X17317299Y-11654010D02*
X17298251Y-11625439D01*
X17298251Y-11625439D02*
X17288728Y-11606391D01*
X17288728Y-11606391D02*
X17279204Y-11577820D01*
X17279204Y-11577820D02*
X17269680Y-11530201D01*
X17269680Y-11530201D02*
X17269680Y-11492106D01*
X17269680Y-11492106D02*
X17279204Y-11444487D01*
X17279204Y-11444487D02*
X17288728Y-11415915D01*
X17288728Y-11415915D02*
X17298251Y-11396868D01*
X17298251Y-11396868D02*
X17317299Y-11368296D01*
X17317299Y-11368296D02*
X17326823Y-11358772D01*
X17488728Y-11454010D02*
X17488728Y-11587344D01*
X17441109Y-11377820D02*
X17393490Y-11520677D01*
X17393490Y-11520677D02*
X17517299Y-11520677D01*
X17745871Y-11587344D02*
X17745871Y-11387344D01*
X17831585Y-11587344D02*
X17831585Y-11482582D01*
X17831585Y-11482582D02*
X17822061Y-11463534D01*
X17822061Y-11463534D02*
X17803013Y-11454010D01*
X17803013Y-11454010D02*
X17774442Y-11454010D01*
X17774442Y-11454010D02*
X17755394Y-11463534D01*
X17755394Y-11463534D02*
X17745871Y-11473058D01*
X17955394Y-11587344D02*
X17936347Y-11577820D01*
X17936347Y-11577820D02*
X17926823Y-11568296D01*
X17926823Y-11568296D02*
X17917299Y-11549248D01*
X17917299Y-11549248D02*
X17917299Y-11492106D01*
X17917299Y-11492106D02*
X17926823Y-11473058D01*
X17926823Y-11473058D02*
X17936347Y-11463534D01*
X17936347Y-11463534D02*
X17955394Y-11454010D01*
X17955394Y-11454010D02*
X17983966Y-11454010D01*
X17983966Y-11454010D02*
X18003013Y-11463534D01*
X18003013Y-11463534D02*
X18012537Y-11473058D01*
X18012537Y-11473058D02*
X18022061Y-11492106D01*
X18022061Y-11492106D02*
X18022061Y-11549248D01*
X18022061Y-11549248D02*
X18012537Y-11568296D01*
X18012537Y-11568296D02*
X18003013Y-11577820D01*
X18003013Y-11577820D02*
X17983966Y-11587344D01*
X17983966Y-11587344D02*
X17955394Y-11587344D01*
X18136347Y-11587344D02*
X18117299Y-11577820D01*
X18117299Y-11577820D02*
X18107775Y-11558772D01*
X18107775Y-11558772D02*
X18107775Y-11387344D01*
X18288728Y-11577820D02*
X18269680Y-11587344D01*
X18269680Y-11587344D02*
X18231585Y-11587344D01*
X18231585Y-11587344D02*
X18212537Y-11577820D01*
X18212537Y-11577820D02*
X18203013Y-11558772D01*
X18203013Y-11558772D02*
X18203013Y-11482582D01*
X18203013Y-11482582D02*
X18212537Y-11463534D01*
X18212537Y-11463534D02*
X18231585Y-11454010D01*
X18231585Y-11454010D02*
X18269680Y-11454010D01*
X18269680Y-11454010D02*
X18288728Y-11463534D01*
X18288728Y-11463534D02*
X18298252Y-11482582D01*
X18298252Y-11482582D02*
X18298252Y-11501629D01*
X18298252Y-11501629D02*
X18203013Y-11520677D01*
X18374442Y-11577820D02*
X18393490Y-11587344D01*
X18393490Y-11587344D02*
X18431585Y-11587344D01*
X18431585Y-11587344D02*
X18450633Y-11577820D01*
X18450633Y-11577820D02*
X18460156Y-11558772D01*
X18460156Y-11558772D02*
X18460156Y-11549248D01*
X18460156Y-11549248D02*
X18450633Y-11530201D01*
X18450633Y-11530201D02*
X18431585Y-11520677D01*
X18431585Y-11520677D02*
X18403013Y-11520677D01*
X18403013Y-11520677D02*
X18383966Y-11511153D01*
X18383966Y-11511153D02*
X18374442Y-11492106D01*
X18374442Y-11492106D02*
X18374442Y-11482582D01*
X18374442Y-11482582D02*
X18383966Y-11463534D01*
X18383966Y-11463534D02*
X18403013Y-11454010D01*
X18403013Y-11454010D02*
X18431585Y-11454010D01*
X18431585Y-11454010D02*
X18450633Y-11463534D01*
X18526823Y-11663534D02*
X18536347Y-11654010D01*
X18536347Y-11654010D02*
X18555394Y-11625439D01*
X18555394Y-11625439D02*
X18564918Y-11606391D01*
X18564918Y-11606391D02*
X18574442Y-11577820D01*
X18574442Y-11577820D02*
X18583966Y-11530201D01*
X18583966Y-11530201D02*
X18583966Y-11492106D01*
X18583966Y-11492106D02*
X18574442Y-11444487D01*
X18574442Y-11444487D02*
X18564918Y-11415915D01*
X18564918Y-11415915D02*
X18555394Y-11396868D01*
X18555394Y-11396868D02*
X18536347Y-11368296D01*
X18536347Y-11368296D02*
X18526823Y-11358772D01*
X18888728Y-11663534D02*
X18879204Y-11654010D01*
X18879204Y-11654010D02*
X18860156Y-11625439D01*
X18860156Y-11625439D02*
X18850633Y-11606391D01*
X18850633Y-11606391D02*
X18841109Y-11577820D01*
X18841109Y-11577820D02*
X18831585Y-11530201D01*
X18831585Y-11530201D02*
X18831585Y-11492106D01*
X18831585Y-11492106D02*
X18841109Y-11444487D01*
X18841109Y-11444487D02*
X18850633Y-11415915D01*
X18850633Y-11415915D02*
X18860156Y-11396868D01*
X18860156Y-11396868D02*
X18879204Y-11368296D01*
X18879204Y-11368296D02*
X18888728Y-11358772D01*
X18964918Y-11454010D02*
X18964918Y-11587344D01*
X18964918Y-11473058D02*
X18974442Y-11463534D01*
X18974442Y-11463534D02*
X18993490Y-11454010D01*
X18993490Y-11454010D02*
X19022061Y-11454010D01*
X19022061Y-11454010D02*
X19041109Y-11463534D01*
X19041109Y-11463534D02*
X19050633Y-11482582D01*
X19050633Y-11482582D02*
X19050633Y-11587344D01*
X19174442Y-11587344D02*
X19155394Y-11577820D01*
X19155394Y-11577820D02*
X19145871Y-11568296D01*
X19145871Y-11568296D02*
X19136347Y-11549248D01*
X19136347Y-11549248D02*
X19136347Y-11492106D01*
X19136347Y-11492106D02*
X19145871Y-11473058D01*
X19145871Y-11473058D02*
X19155394Y-11463534D01*
X19155394Y-11463534D02*
X19174442Y-11454010D01*
X19174442Y-11454010D02*
X19203014Y-11454010D01*
X19203014Y-11454010D02*
X19222061Y-11463534D01*
X19222061Y-11463534D02*
X19231585Y-11473058D01*
X19231585Y-11473058D02*
X19241109Y-11492106D01*
X19241109Y-11492106D02*
X19241109Y-11549248D01*
X19241109Y-11549248D02*
X19231585Y-11568296D01*
X19231585Y-11568296D02*
X19222061Y-11577820D01*
X19222061Y-11577820D02*
X19203014Y-11587344D01*
X19203014Y-11587344D02*
X19174442Y-11587344D01*
X19298252Y-11454010D02*
X19374442Y-11454010D01*
X19326823Y-11387344D02*
X19326823Y-11558772D01*
X19326823Y-11558772D02*
X19336347Y-11577820D01*
X19336347Y-11577820D02*
X19355394Y-11587344D01*
X19355394Y-11587344D02*
X19374442Y-11587344D01*
X19593490Y-11454010D02*
X19593490Y-11654010D01*
X19593490Y-11463534D02*
X19612537Y-11454010D01*
X19612537Y-11454010D02*
X19650633Y-11454010D01*
X19650633Y-11454010D02*
X19669680Y-11463534D01*
X19669680Y-11463534D02*
X19679204Y-11473058D01*
X19679204Y-11473058D02*
X19688728Y-11492106D01*
X19688728Y-11492106D02*
X19688728Y-11549248D01*
X19688728Y-11549248D02*
X19679204Y-11568296D01*
X19679204Y-11568296D02*
X19669680Y-11577820D01*
X19669680Y-11577820D02*
X19650633Y-11587344D01*
X19650633Y-11587344D02*
X19612537Y-11587344D01*
X19612537Y-11587344D02*
X19593490Y-11577820D01*
X19803014Y-11587344D02*
X19783966Y-11577820D01*
X19783966Y-11577820D02*
X19774442Y-11558772D01*
X19774442Y-11558772D02*
X19774442Y-11387344D01*
X19964918Y-11587344D02*
X19964918Y-11482582D01*
X19964918Y-11482582D02*
X19955395Y-11463534D01*
X19955395Y-11463534D02*
X19936347Y-11454010D01*
X19936347Y-11454010D02*
X19898252Y-11454010D01*
X19898252Y-11454010D02*
X19879204Y-11463534D01*
X19964918Y-11577820D02*
X19945871Y-11587344D01*
X19945871Y-11587344D02*
X19898252Y-11587344D01*
X19898252Y-11587344D02*
X19879204Y-11577820D01*
X19879204Y-11577820D02*
X19869680Y-11558772D01*
X19869680Y-11558772D02*
X19869680Y-11539725D01*
X19869680Y-11539725D02*
X19879204Y-11520677D01*
X19879204Y-11520677D02*
X19898252Y-11511153D01*
X19898252Y-11511153D02*
X19945871Y-11511153D01*
X19945871Y-11511153D02*
X19964918Y-11501629D01*
X20031585Y-11454010D02*
X20107775Y-11454010D01*
X20060156Y-11387344D02*
X20060156Y-11558772D01*
X20060156Y-11558772D02*
X20069680Y-11577820D01*
X20069680Y-11577820D02*
X20088728Y-11587344D01*
X20088728Y-11587344D02*
X20107775Y-11587344D01*
X20250633Y-11577820D02*
X20231585Y-11587344D01*
X20231585Y-11587344D02*
X20193490Y-11587344D01*
X20193490Y-11587344D02*
X20174442Y-11577820D01*
X20174442Y-11577820D02*
X20164918Y-11558772D01*
X20164918Y-11558772D02*
X20164918Y-11482582D01*
X20164918Y-11482582D02*
X20174442Y-11463534D01*
X20174442Y-11463534D02*
X20193490Y-11454010D01*
X20193490Y-11454010D02*
X20231585Y-11454010D01*
X20231585Y-11454010D02*
X20250633Y-11463534D01*
X20250633Y-11463534D02*
X20260156Y-11482582D01*
X20260156Y-11482582D02*
X20260156Y-11501629D01*
X20260156Y-11501629D02*
X20164918Y-11520677D01*
X20431585Y-11587344D02*
X20431585Y-11387344D01*
X20431585Y-11577820D02*
X20412537Y-11587344D01*
X20412537Y-11587344D02*
X20374442Y-11587344D01*
X20374442Y-11587344D02*
X20355395Y-11577820D01*
X20355395Y-11577820D02*
X20345871Y-11568296D01*
X20345871Y-11568296D02*
X20336347Y-11549248D01*
X20336347Y-11549248D02*
X20336347Y-11492106D01*
X20336347Y-11492106D02*
X20345871Y-11473058D01*
X20345871Y-11473058D02*
X20355395Y-11463534D01*
X20355395Y-11463534D02*
X20374442Y-11454010D01*
X20374442Y-11454010D02*
X20412537Y-11454010D01*
X20412537Y-11454010D02*
X20431585Y-11463534D01*
X20507776Y-11663534D02*
X20517299Y-11654010D01*
X20517299Y-11654010D02*
X20536347Y-11625439D01*
X20536347Y-11625439D02*
X20545871Y-11606391D01*
X20545871Y-11606391D02*
X20555395Y-11577820D01*
X20555395Y-11577820D02*
X20564918Y-11530201D01*
X20564918Y-11530201D02*
X20564918Y-11492106D01*
X20564918Y-11492106D02*
X20555395Y-11444487D01*
X20555395Y-11444487D02*
X20545871Y-11415915D01*
X20545871Y-11415915D02*
X20536347Y-11396868D01*
X20536347Y-11396868D02*
X20517299Y-11368296D01*
X20517299Y-11368296D02*
X20507776Y-11358772D01*
X13722471Y-11886571D02*
X13722471Y-11745149D01*
X13581049Y-11745149D01*
X13581049Y-11886571D01*
X13722471Y-11886571D01*
X14003013Y-11726391D02*
X14012537Y-11716868D01*
X14012537Y-11716868D02*
X14031584Y-11707344D01*
X14031584Y-11707344D02*
X14079203Y-11707344D01*
X14079203Y-11707344D02*
X14098251Y-11716868D01*
X14098251Y-11716868D02*
X14107775Y-11726391D01*
X14107775Y-11726391D02*
X14117299Y-11745439D01*
X14117299Y-11745439D02*
X14117299Y-11764487D01*
X14117299Y-11764487D02*
X14107775Y-11793058D01*
X14107775Y-11793058D02*
X13993489Y-11907344D01*
X13993489Y-11907344D02*
X14117299Y-11907344D01*
X14203013Y-11888296D02*
X14212537Y-11897820D01*
X14212537Y-11897820D02*
X14203013Y-11907344D01*
X14203013Y-11907344D02*
X14193489Y-11897820D01*
X14193489Y-11897820D02*
X14203013Y-11888296D01*
X14203013Y-11888296D02*
X14203013Y-11907344D01*
X14288727Y-11726391D02*
X14298251Y-11716868D01*
X14298251Y-11716868D02*
X14317299Y-11707344D01*
X14317299Y-11707344D02*
X14364918Y-11707344D01*
X14364918Y-11707344D02*
X14383965Y-11716868D01*
X14383965Y-11716868D02*
X14393489Y-11726391D01*
X14393489Y-11726391D02*
X14403013Y-11745439D01*
X14403013Y-11745439D02*
X14403013Y-11764487D01*
X14403013Y-11764487D02*
X14393489Y-11793058D01*
X14393489Y-11793058D02*
X14279203Y-11907344D01*
X14279203Y-11907344D02*
X14403013Y-11907344D01*
X14526822Y-11707344D02*
X14545870Y-11707344D01*
X14545870Y-11707344D02*
X14564918Y-11716868D01*
X14564918Y-11716868D02*
X14574442Y-11726391D01*
X14574442Y-11726391D02*
X14583965Y-11745439D01*
X14583965Y-11745439D02*
X14593489Y-11783534D01*
X14593489Y-11783534D02*
X14593489Y-11831153D01*
X14593489Y-11831153D02*
X14583965Y-11869248D01*
X14583965Y-11869248D02*
X14574442Y-11888296D01*
X14574442Y-11888296D02*
X14564918Y-11897820D01*
X14564918Y-11897820D02*
X14545870Y-11907344D01*
X14545870Y-11907344D02*
X14526822Y-11907344D01*
X14526822Y-11907344D02*
X14507775Y-11897820D01*
X14507775Y-11897820D02*
X14498251Y-11888296D01*
X14498251Y-11888296D02*
X14488727Y-11869248D01*
X14488727Y-11869248D02*
X14479203Y-11831153D01*
X14479203Y-11831153D02*
X14479203Y-11783534D01*
X14479203Y-11783534D02*
X14488727Y-11745439D01*
X14488727Y-11745439D02*
X14498251Y-11726391D01*
X14498251Y-11726391D02*
X14507775Y-11716868D01*
X14507775Y-11716868D02*
X14526822Y-11707344D01*
X14717299Y-11707344D02*
X14736346Y-11707344D01*
X14736346Y-11707344D02*
X14755394Y-11716868D01*
X14755394Y-11716868D02*
X14764918Y-11726391D01*
X14764918Y-11726391D02*
X14774442Y-11745439D01*
X14774442Y-11745439D02*
X14783965Y-11783534D01*
X14783965Y-11783534D02*
X14783965Y-11831153D01*
X14783965Y-11831153D02*
X14774442Y-11869248D01*
X14774442Y-11869248D02*
X14764918Y-11888296D01*
X14764918Y-11888296D02*
X14755394Y-11897820D01*
X14755394Y-11897820D02*
X14736346Y-11907344D01*
X14736346Y-11907344D02*
X14717299Y-11907344D01*
X14717299Y-11907344D02*
X14698251Y-11897820D01*
X14698251Y-11897820D02*
X14688727Y-11888296D01*
X14688727Y-11888296D02*
X14679203Y-11869248D01*
X14679203Y-11869248D02*
X14669680Y-11831153D01*
X14669680Y-11831153D02*
X14669680Y-11783534D01*
X14669680Y-11783534D02*
X14679203Y-11745439D01*
X14679203Y-11745439D02*
X14688727Y-11726391D01*
X14688727Y-11726391D02*
X14698251Y-11716868D01*
X14698251Y-11716868D02*
X14717299Y-11707344D01*
X14869680Y-11907344D02*
X14869680Y-11774010D01*
X14869680Y-11793058D02*
X14879203Y-11783534D01*
X14879203Y-11783534D02*
X14898251Y-11774010D01*
X14898251Y-11774010D02*
X14926823Y-11774010D01*
X14926823Y-11774010D02*
X14945870Y-11783534D01*
X14945870Y-11783534D02*
X14955394Y-11802582D01*
X14955394Y-11802582D02*
X14955394Y-11907344D01*
X14955394Y-11802582D02*
X14964918Y-11783534D01*
X14964918Y-11783534D02*
X14983965Y-11774010D01*
X14983965Y-11774010D02*
X15012537Y-11774010D01*
X15012537Y-11774010D02*
X15031584Y-11783534D01*
X15031584Y-11783534D02*
X15041108Y-11802582D01*
X15041108Y-11802582D02*
X15041108Y-11907344D01*
X15136346Y-11907344D02*
X15136346Y-11774010D01*
X15136346Y-11793058D02*
X15145870Y-11783534D01*
X15145870Y-11783534D02*
X15164918Y-11774010D01*
X15164918Y-11774010D02*
X15193489Y-11774010D01*
X15193489Y-11774010D02*
X15212537Y-11783534D01*
X15212537Y-11783534D02*
X15222061Y-11802582D01*
X15222061Y-11802582D02*
X15222061Y-11907344D01*
X15222061Y-11802582D02*
X15231584Y-11783534D01*
X15231584Y-11783534D02*
X15250632Y-11774010D01*
X15250632Y-11774010D02*
X15279203Y-11774010D01*
X15279203Y-11774010D02*
X15298251Y-11783534D01*
X15298251Y-11783534D02*
X15307775Y-11802582D01*
X15307775Y-11802582D02*
X15307775Y-11907344D01*
X15698251Y-11697820D02*
X15526823Y-11954963D01*
X15955394Y-11707344D02*
X15974442Y-11707344D01*
X15974442Y-11707344D02*
X15993489Y-11716868D01*
X15993489Y-11716868D02*
X16003013Y-11726391D01*
X16003013Y-11726391D02*
X16012537Y-11745439D01*
X16012537Y-11745439D02*
X16022061Y-11783534D01*
X16022061Y-11783534D02*
X16022061Y-11831153D01*
X16022061Y-11831153D02*
X16012537Y-11869248D01*
X16012537Y-11869248D02*
X16003013Y-11888296D01*
X16003013Y-11888296D02*
X15993489Y-11897820D01*
X15993489Y-11897820D02*
X15974442Y-11907344D01*
X15974442Y-11907344D02*
X15955394Y-11907344D01*
X15955394Y-11907344D02*
X15936346Y-11897820D01*
X15936346Y-11897820D02*
X15926823Y-11888296D01*
X15926823Y-11888296D02*
X15917299Y-11869248D01*
X15917299Y-11869248D02*
X15907775Y-11831153D01*
X15907775Y-11831153D02*
X15907775Y-11783534D01*
X15907775Y-11783534D02*
X15917299Y-11745439D01*
X15917299Y-11745439D02*
X15926823Y-11726391D01*
X15926823Y-11726391D02*
X15936346Y-11716868D01*
X15936346Y-11716868D02*
X15955394Y-11707344D01*
X16107775Y-11888296D02*
X16117299Y-11897820D01*
X16117299Y-11897820D02*
X16107775Y-11907344D01*
X16107775Y-11907344D02*
X16098251Y-11897820D01*
X16098251Y-11897820D02*
X16107775Y-11888296D01*
X16107775Y-11888296D02*
X16107775Y-11907344D01*
X16241108Y-11707344D02*
X16260156Y-11707344D01*
X16260156Y-11707344D02*
X16279204Y-11716868D01*
X16279204Y-11716868D02*
X16288727Y-11726391D01*
X16288727Y-11726391D02*
X16298251Y-11745439D01*
X16298251Y-11745439D02*
X16307775Y-11783534D01*
X16307775Y-11783534D02*
X16307775Y-11831153D01*
X16307775Y-11831153D02*
X16298251Y-11869248D01*
X16298251Y-11869248D02*
X16288727Y-11888296D01*
X16288727Y-11888296D02*
X16279204Y-11897820D01*
X16279204Y-11897820D02*
X16260156Y-11907344D01*
X16260156Y-11907344D02*
X16241108Y-11907344D01*
X16241108Y-11907344D02*
X16222061Y-11897820D01*
X16222061Y-11897820D02*
X16212537Y-11888296D01*
X16212537Y-11888296D02*
X16203013Y-11869248D01*
X16203013Y-11869248D02*
X16193489Y-11831153D01*
X16193489Y-11831153D02*
X16193489Y-11783534D01*
X16193489Y-11783534D02*
X16203013Y-11745439D01*
X16203013Y-11745439D02*
X16212537Y-11726391D01*
X16212537Y-11726391D02*
X16222061Y-11716868D01*
X16222061Y-11716868D02*
X16241108Y-11707344D01*
X16422061Y-11793058D02*
X16403013Y-11783534D01*
X16403013Y-11783534D02*
X16393489Y-11774010D01*
X16393489Y-11774010D02*
X16383966Y-11754963D01*
X16383966Y-11754963D02*
X16383966Y-11745439D01*
X16383966Y-11745439D02*
X16393489Y-11726391D01*
X16393489Y-11726391D02*
X16403013Y-11716868D01*
X16403013Y-11716868D02*
X16422061Y-11707344D01*
X16422061Y-11707344D02*
X16460156Y-11707344D01*
X16460156Y-11707344D02*
X16479204Y-11716868D01*
X16479204Y-11716868D02*
X16488727Y-11726391D01*
X16488727Y-11726391D02*
X16498251Y-11745439D01*
X16498251Y-11745439D02*
X16498251Y-11754963D01*
X16498251Y-11754963D02*
X16488727Y-11774010D01*
X16488727Y-11774010D02*
X16479204Y-11783534D01*
X16479204Y-11783534D02*
X16460156Y-11793058D01*
X16460156Y-11793058D02*
X16422061Y-11793058D01*
X16422061Y-11793058D02*
X16403013Y-11802582D01*
X16403013Y-11802582D02*
X16393489Y-11812106D01*
X16393489Y-11812106D02*
X16383966Y-11831153D01*
X16383966Y-11831153D02*
X16383966Y-11869248D01*
X16383966Y-11869248D02*
X16393489Y-11888296D01*
X16393489Y-11888296D02*
X16403013Y-11897820D01*
X16403013Y-11897820D02*
X16422061Y-11907344D01*
X16422061Y-11907344D02*
X16460156Y-11907344D01*
X16460156Y-11907344D02*
X16479204Y-11897820D01*
X16479204Y-11897820D02*
X16488727Y-11888296D01*
X16488727Y-11888296D02*
X16498251Y-11869248D01*
X16498251Y-11869248D02*
X16498251Y-11831153D01*
X16498251Y-11831153D02*
X16488727Y-11812106D01*
X16488727Y-11812106D02*
X16479204Y-11802582D01*
X16479204Y-11802582D02*
X16460156Y-11793058D01*
X16669680Y-11707344D02*
X16631585Y-11707344D01*
X16631585Y-11707344D02*
X16612537Y-11716868D01*
X16612537Y-11716868D02*
X16603013Y-11726391D01*
X16603013Y-11726391D02*
X16583966Y-11754963D01*
X16583966Y-11754963D02*
X16574442Y-11793058D01*
X16574442Y-11793058D02*
X16574442Y-11869248D01*
X16574442Y-11869248D02*
X16583966Y-11888296D01*
X16583966Y-11888296D02*
X16593489Y-11897820D01*
X16593489Y-11897820D02*
X16612537Y-11907344D01*
X16612537Y-11907344D02*
X16650632Y-11907344D01*
X16650632Y-11907344D02*
X16669680Y-11897820D01*
X16669680Y-11897820D02*
X16679204Y-11888296D01*
X16679204Y-11888296D02*
X16688727Y-11869248D01*
X16688727Y-11869248D02*
X16688727Y-11821629D01*
X16688727Y-11821629D02*
X16679204Y-11802582D01*
X16679204Y-11802582D02*
X16669680Y-11793058D01*
X16669680Y-11793058D02*
X16650632Y-11783534D01*
X16650632Y-11783534D02*
X16612537Y-11783534D01*
X16612537Y-11783534D02*
X16593489Y-11793058D01*
X16593489Y-11793058D02*
X16583966Y-11802582D01*
X16583966Y-11802582D02*
X16574442Y-11821629D01*
X16860156Y-11707344D02*
X16822061Y-11707344D01*
X16822061Y-11707344D02*
X16803013Y-11716868D01*
X16803013Y-11716868D02*
X16793489Y-11726391D01*
X16793489Y-11726391D02*
X16774442Y-11754963D01*
X16774442Y-11754963D02*
X16764918Y-11793058D01*
X16764918Y-11793058D02*
X16764918Y-11869248D01*
X16764918Y-11869248D02*
X16774442Y-11888296D01*
X16774442Y-11888296D02*
X16783966Y-11897820D01*
X16783966Y-11897820D02*
X16803013Y-11907344D01*
X16803013Y-11907344D02*
X16841109Y-11907344D01*
X16841109Y-11907344D02*
X16860156Y-11897820D01*
X16860156Y-11897820D02*
X16869680Y-11888296D01*
X16869680Y-11888296D02*
X16879204Y-11869248D01*
X16879204Y-11869248D02*
X16879204Y-11821629D01*
X16879204Y-11821629D02*
X16869680Y-11802582D01*
X16869680Y-11802582D02*
X16860156Y-11793058D01*
X16860156Y-11793058D02*
X16841109Y-11783534D01*
X16841109Y-11783534D02*
X16803013Y-11783534D01*
X16803013Y-11783534D02*
X16783966Y-11793058D01*
X16783966Y-11793058D02*
X16774442Y-11802582D01*
X16774442Y-11802582D02*
X16764918Y-11821629D01*
X16955394Y-11707344D02*
X16955394Y-11745439D01*
X17031585Y-11707344D02*
X17031585Y-11745439D01*
X17326823Y-11983534D02*
X17317299Y-11974010D01*
X17317299Y-11974010D02*
X17298251Y-11945439D01*
X17298251Y-11945439D02*
X17288728Y-11926391D01*
X17288728Y-11926391D02*
X17279204Y-11897820D01*
X17279204Y-11897820D02*
X17269680Y-11850201D01*
X17269680Y-11850201D02*
X17269680Y-11812106D01*
X17269680Y-11812106D02*
X17279204Y-11764487D01*
X17279204Y-11764487D02*
X17288728Y-11735915D01*
X17288728Y-11735915D02*
X17298251Y-11716868D01*
X17298251Y-11716868D02*
X17317299Y-11688296D01*
X17317299Y-11688296D02*
X17326823Y-11678772D01*
X17488728Y-11774010D02*
X17488728Y-11907344D01*
X17441109Y-11697820D02*
X17393490Y-11840677D01*
X17393490Y-11840677D02*
X17517299Y-11840677D01*
X17745871Y-11907344D02*
X17745871Y-11707344D01*
X17831585Y-11907344D02*
X17831585Y-11802582D01*
X17831585Y-11802582D02*
X17822061Y-11783534D01*
X17822061Y-11783534D02*
X17803013Y-11774010D01*
X17803013Y-11774010D02*
X17774442Y-11774010D01*
X17774442Y-11774010D02*
X17755394Y-11783534D01*
X17755394Y-11783534D02*
X17745871Y-11793058D01*
X17955394Y-11907344D02*
X17936347Y-11897820D01*
X17936347Y-11897820D02*
X17926823Y-11888296D01*
X17926823Y-11888296D02*
X17917299Y-11869248D01*
X17917299Y-11869248D02*
X17917299Y-11812106D01*
X17917299Y-11812106D02*
X17926823Y-11793058D01*
X17926823Y-11793058D02*
X17936347Y-11783534D01*
X17936347Y-11783534D02*
X17955394Y-11774010D01*
X17955394Y-11774010D02*
X17983966Y-11774010D01*
X17983966Y-11774010D02*
X18003013Y-11783534D01*
X18003013Y-11783534D02*
X18012537Y-11793058D01*
X18012537Y-11793058D02*
X18022061Y-11812106D01*
X18022061Y-11812106D02*
X18022061Y-11869248D01*
X18022061Y-11869248D02*
X18012537Y-11888296D01*
X18012537Y-11888296D02*
X18003013Y-11897820D01*
X18003013Y-11897820D02*
X17983966Y-11907344D01*
X17983966Y-11907344D02*
X17955394Y-11907344D01*
X18136347Y-11907344D02*
X18117299Y-11897820D01*
X18117299Y-11897820D02*
X18107775Y-11878772D01*
X18107775Y-11878772D02*
X18107775Y-11707344D01*
X18288728Y-11897820D02*
X18269680Y-11907344D01*
X18269680Y-11907344D02*
X18231585Y-11907344D01*
X18231585Y-11907344D02*
X18212537Y-11897820D01*
X18212537Y-11897820D02*
X18203013Y-11878772D01*
X18203013Y-11878772D02*
X18203013Y-11802582D01*
X18203013Y-11802582D02*
X18212537Y-11783534D01*
X18212537Y-11783534D02*
X18231585Y-11774010D01*
X18231585Y-11774010D02*
X18269680Y-11774010D01*
X18269680Y-11774010D02*
X18288728Y-11783534D01*
X18288728Y-11783534D02*
X18298252Y-11802582D01*
X18298252Y-11802582D02*
X18298252Y-11821629D01*
X18298252Y-11821629D02*
X18203013Y-11840677D01*
X18374442Y-11897820D02*
X18393490Y-11907344D01*
X18393490Y-11907344D02*
X18431585Y-11907344D01*
X18431585Y-11907344D02*
X18450633Y-11897820D01*
X18450633Y-11897820D02*
X18460156Y-11878772D01*
X18460156Y-11878772D02*
X18460156Y-11869248D01*
X18460156Y-11869248D02*
X18450633Y-11850201D01*
X18450633Y-11850201D02*
X18431585Y-11840677D01*
X18431585Y-11840677D02*
X18403013Y-11840677D01*
X18403013Y-11840677D02*
X18383966Y-11831153D01*
X18383966Y-11831153D02*
X18374442Y-11812106D01*
X18374442Y-11812106D02*
X18374442Y-11802582D01*
X18374442Y-11802582D02*
X18383966Y-11783534D01*
X18383966Y-11783534D02*
X18403013Y-11774010D01*
X18403013Y-11774010D02*
X18431585Y-11774010D01*
X18431585Y-11774010D02*
X18450633Y-11783534D01*
X18526823Y-11983534D02*
X18536347Y-11974010D01*
X18536347Y-11974010D02*
X18555394Y-11945439D01*
X18555394Y-11945439D02*
X18564918Y-11926391D01*
X18564918Y-11926391D02*
X18574442Y-11897820D01*
X18574442Y-11897820D02*
X18583966Y-11850201D01*
X18583966Y-11850201D02*
X18583966Y-11812106D01*
X18583966Y-11812106D02*
X18574442Y-11764487D01*
X18574442Y-11764487D02*
X18564918Y-11735915D01*
X18564918Y-11735915D02*
X18555394Y-11716868D01*
X18555394Y-11716868D02*
X18536347Y-11688296D01*
X18536347Y-11688296D02*
X18526823Y-11678772D01*
X18888728Y-11983534D02*
X18879204Y-11974010D01*
X18879204Y-11974010D02*
X18860156Y-11945439D01*
X18860156Y-11945439D02*
X18850633Y-11926391D01*
X18850633Y-11926391D02*
X18841109Y-11897820D01*
X18841109Y-11897820D02*
X18831585Y-11850201D01*
X18831585Y-11850201D02*
X18831585Y-11812106D01*
X18831585Y-11812106D02*
X18841109Y-11764487D01*
X18841109Y-11764487D02*
X18850633Y-11735915D01*
X18850633Y-11735915D02*
X18860156Y-11716868D01*
X18860156Y-11716868D02*
X18879204Y-11688296D01*
X18879204Y-11688296D02*
X18888728Y-11678772D01*
X18964918Y-11774010D02*
X18964918Y-11907344D01*
X18964918Y-11793058D02*
X18974442Y-11783534D01*
X18974442Y-11783534D02*
X18993490Y-11774010D01*
X18993490Y-11774010D02*
X19022061Y-11774010D01*
X19022061Y-11774010D02*
X19041109Y-11783534D01*
X19041109Y-11783534D02*
X19050633Y-11802582D01*
X19050633Y-11802582D02*
X19050633Y-11907344D01*
X19174442Y-11907344D02*
X19155394Y-11897820D01*
X19155394Y-11897820D02*
X19145871Y-11888296D01*
X19145871Y-11888296D02*
X19136347Y-11869248D01*
X19136347Y-11869248D02*
X19136347Y-11812106D01*
X19136347Y-11812106D02*
X19145871Y-11793058D01*
X19145871Y-11793058D02*
X19155394Y-11783534D01*
X19155394Y-11783534D02*
X19174442Y-11774010D01*
X19174442Y-11774010D02*
X19203014Y-11774010D01*
X19203014Y-11774010D02*
X19222061Y-11783534D01*
X19222061Y-11783534D02*
X19231585Y-11793058D01*
X19231585Y-11793058D02*
X19241109Y-11812106D01*
X19241109Y-11812106D02*
X19241109Y-11869248D01*
X19241109Y-11869248D02*
X19231585Y-11888296D01*
X19231585Y-11888296D02*
X19222061Y-11897820D01*
X19222061Y-11897820D02*
X19203014Y-11907344D01*
X19203014Y-11907344D02*
X19174442Y-11907344D01*
X19298252Y-11774010D02*
X19374442Y-11774010D01*
X19326823Y-11707344D02*
X19326823Y-11878772D01*
X19326823Y-11878772D02*
X19336347Y-11897820D01*
X19336347Y-11897820D02*
X19355394Y-11907344D01*
X19355394Y-11907344D02*
X19374442Y-11907344D01*
X19593490Y-11774010D02*
X19593490Y-11974010D01*
X19593490Y-11783534D02*
X19612537Y-11774010D01*
X19612537Y-11774010D02*
X19650633Y-11774010D01*
X19650633Y-11774010D02*
X19669680Y-11783534D01*
X19669680Y-11783534D02*
X19679204Y-11793058D01*
X19679204Y-11793058D02*
X19688728Y-11812106D01*
X19688728Y-11812106D02*
X19688728Y-11869248D01*
X19688728Y-11869248D02*
X19679204Y-11888296D01*
X19679204Y-11888296D02*
X19669680Y-11897820D01*
X19669680Y-11897820D02*
X19650633Y-11907344D01*
X19650633Y-11907344D02*
X19612537Y-11907344D01*
X19612537Y-11907344D02*
X19593490Y-11897820D01*
X19803014Y-11907344D02*
X19783966Y-11897820D01*
X19783966Y-11897820D02*
X19774442Y-11878772D01*
X19774442Y-11878772D02*
X19774442Y-11707344D01*
X19964918Y-11907344D02*
X19964918Y-11802582D01*
X19964918Y-11802582D02*
X19955395Y-11783534D01*
X19955395Y-11783534D02*
X19936347Y-11774010D01*
X19936347Y-11774010D02*
X19898252Y-11774010D01*
X19898252Y-11774010D02*
X19879204Y-11783534D01*
X19964918Y-11897820D02*
X19945871Y-11907344D01*
X19945871Y-11907344D02*
X19898252Y-11907344D01*
X19898252Y-11907344D02*
X19879204Y-11897820D01*
X19879204Y-11897820D02*
X19869680Y-11878772D01*
X19869680Y-11878772D02*
X19869680Y-11859725D01*
X19869680Y-11859725D02*
X19879204Y-11840677D01*
X19879204Y-11840677D02*
X19898252Y-11831153D01*
X19898252Y-11831153D02*
X19945871Y-11831153D01*
X19945871Y-11831153D02*
X19964918Y-11821629D01*
X20031585Y-11774010D02*
X20107775Y-11774010D01*
X20060156Y-11707344D02*
X20060156Y-11878772D01*
X20060156Y-11878772D02*
X20069680Y-11897820D01*
X20069680Y-11897820D02*
X20088728Y-11907344D01*
X20088728Y-11907344D02*
X20107775Y-11907344D01*
X20250633Y-11897820D02*
X20231585Y-11907344D01*
X20231585Y-11907344D02*
X20193490Y-11907344D01*
X20193490Y-11907344D02*
X20174442Y-11897820D01*
X20174442Y-11897820D02*
X20164918Y-11878772D01*
X20164918Y-11878772D02*
X20164918Y-11802582D01*
X20164918Y-11802582D02*
X20174442Y-11783534D01*
X20174442Y-11783534D02*
X20193490Y-11774010D01*
X20193490Y-11774010D02*
X20231585Y-11774010D01*
X20231585Y-11774010D02*
X20250633Y-11783534D01*
X20250633Y-11783534D02*
X20260156Y-11802582D01*
X20260156Y-11802582D02*
X20260156Y-11821629D01*
X20260156Y-11821629D02*
X20164918Y-11840677D01*
X20431585Y-11907344D02*
X20431585Y-11707344D01*
X20431585Y-11897820D02*
X20412537Y-11907344D01*
X20412537Y-11907344D02*
X20374442Y-11907344D01*
X20374442Y-11907344D02*
X20355395Y-11897820D01*
X20355395Y-11897820D02*
X20345871Y-11888296D01*
X20345871Y-11888296D02*
X20336347Y-11869248D01*
X20336347Y-11869248D02*
X20336347Y-11812106D01*
X20336347Y-11812106D02*
X20345871Y-11793058D01*
X20345871Y-11793058D02*
X20355395Y-11783534D01*
X20355395Y-11783534D02*
X20374442Y-11774010D01*
X20374442Y-11774010D02*
X20412537Y-11774010D01*
X20412537Y-11774010D02*
X20431585Y-11783534D01*
X20507776Y-11983534D02*
X20517299Y-11974010D01*
X20517299Y-11974010D02*
X20536347Y-11945439D01*
X20536347Y-11945439D02*
X20545871Y-11926391D01*
X20545871Y-11926391D02*
X20555395Y-11897820D01*
X20555395Y-11897820D02*
X20564918Y-11850201D01*
X20564918Y-11850201D02*
X20564918Y-11812106D01*
X20564918Y-11812106D02*
X20555395Y-11764487D01*
X20555395Y-11764487D02*
X20545871Y-11735915D01*
X20545871Y-11735915D02*
X20536347Y-11716868D01*
X20536347Y-11716868D02*
X20517299Y-11688296D01*
X20517299Y-11688296D02*
X20507776Y-11678772D01*
X13651760Y-12235860D02*
X13751760Y-12135860D01*
X13651760Y-12035860D01*
X13551760Y-12135860D01*
X13651760Y-12235860D01*
X13993489Y-12027344D02*
X14117299Y-12027344D01*
X14117299Y-12027344D02*
X14050632Y-12103534D01*
X14050632Y-12103534D02*
X14079203Y-12103534D01*
X14079203Y-12103534D02*
X14098251Y-12113058D01*
X14098251Y-12113058D02*
X14107775Y-12122582D01*
X14107775Y-12122582D02*
X14117299Y-12141629D01*
X14117299Y-12141629D02*
X14117299Y-12189248D01*
X14117299Y-12189248D02*
X14107775Y-12208296D01*
X14107775Y-12208296D02*
X14098251Y-12217820D01*
X14098251Y-12217820D02*
X14079203Y-12227344D01*
X14079203Y-12227344D02*
X14022061Y-12227344D01*
X14022061Y-12227344D02*
X14003013Y-12217820D01*
X14003013Y-12217820D02*
X13993489Y-12208296D01*
X14203013Y-12208296D02*
X14212537Y-12217820D01*
X14212537Y-12217820D02*
X14203013Y-12227344D01*
X14203013Y-12227344D02*
X14193489Y-12217820D01*
X14193489Y-12217820D02*
X14203013Y-12208296D01*
X14203013Y-12208296D02*
X14203013Y-12227344D01*
X14336346Y-12027344D02*
X14355394Y-12027344D01*
X14355394Y-12027344D02*
X14374442Y-12036868D01*
X14374442Y-12036868D02*
X14383965Y-12046391D01*
X14383965Y-12046391D02*
X14393489Y-12065439D01*
X14393489Y-12065439D02*
X14403013Y-12103534D01*
X14403013Y-12103534D02*
X14403013Y-12151153D01*
X14403013Y-12151153D02*
X14393489Y-12189248D01*
X14393489Y-12189248D02*
X14383965Y-12208296D01*
X14383965Y-12208296D02*
X14374442Y-12217820D01*
X14374442Y-12217820D02*
X14355394Y-12227344D01*
X14355394Y-12227344D02*
X14336346Y-12227344D01*
X14336346Y-12227344D02*
X14317299Y-12217820D01*
X14317299Y-12217820D02*
X14307775Y-12208296D01*
X14307775Y-12208296D02*
X14298251Y-12189248D01*
X14298251Y-12189248D02*
X14288727Y-12151153D01*
X14288727Y-12151153D02*
X14288727Y-12103534D01*
X14288727Y-12103534D02*
X14298251Y-12065439D01*
X14298251Y-12065439D02*
X14307775Y-12046391D01*
X14307775Y-12046391D02*
X14317299Y-12036868D01*
X14317299Y-12036868D02*
X14336346Y-12027344D01*
X14526822Y-12027344D02*
X14545870Y-12027344D01*
X14545870Y-12027344D02*
X14564918Y-12036868D01*
X14564918Y-12036868D02*
X14574442Y-12046391D01*
X14574442Y-12046391D02*
X14583965Y-12065439D01*
X14583965Y-12065439D02*
X14593489Y-12103534D01*
X14593489Y-12103534D02*
X14593489Y-12151153D01*
X14593489Y-12151153D02*
X14583965Y-12189248D01*
X14583965Y-12189248D02*
X14574442Y-12208296D01*
X14574442Y-12208296D02*
X14564918Y-12217820D01*
X14564918Y-12217820D02*
X14545870Y-12227344D01*
X14545870Y-12227344D02*
X14526822Y-12227344D01*
X14526822Y-12227344D02*
X14507775Y-12217820D01*
X14507775Y-12217820D02*
X14498251Y-12208296D01*
X14498251Y-12208296D02*
X14488727Y-12189248D01*
X14488727Y-12189248D02*
X14479203Y-12151153D01*
X14479203Y-12151153D02*
X14479203Y-12103534D01*
X14479203Y-12103534D02*
X14488727Y-12065439D01*
X14488727Y-12065439D02*
X14498251Y-12046391D01*
X14498251Y-12046391D02*
X14507775Y-12036868D01*
X14507775Y-12036868D02*
X14526822Y-12027344D01*
X14717299Y-12027344D02*
X14736346Y-12027344D01*
X14736346Y-12027344D02*
X14755394Y-12036868D01*
X14755394Y-12036868D02*
X14764918Y-12046391D01*
X14764918Y-12046391D02*
X14774442Y-12065439D01*
X14774442Y-12065439D02*
X14783965Y-12103534D01*
X14783965Y-12103534D02*
X14783965Y-12151153D01*
X14783965Y-12151153D02*
X14774442Y-12189248D01*
X14774442Y-12189248D02*
X14764918Y-12208296D01*
X14764918Y-12208296D02*
X14755394Y-12217820D01*
X14755394Y-12217820D02*
X14736346Y-12227344D01*
X14736346Y-12227344D02*
X14717299Y-12227344D01*
X14717299Y-12227344D02*
X14698251Y-12217820D01*
X14698251Y-12217820D02*
X14688727Y-12208296D01*
X14688727Y-12208296D02*
X14679203Y-12189248D01*
X14679203Y-12189248D02*
X14669680Y-12151153D01*
X14669680Y-12151153D02*
X14669680Y-12103534D01*
X14669680Y-12103534D02*
X14679203Y-12065439D01*
X14679203Y-12065439D02*
X14688727Y-12046391D01*
X14688727Y-12046391D02*
X14698251Y-12036868D01*
X14698251Y-12036868D02*
X14717299Y-12027344D01*
X14869680Y-12227344D02*
X14869680Y-12094010D01*
X14869680Y-12113058D02*
X14879203Y-12103534D01*
X14879203Y-12103534D02*
X14898251Y-12094010D01*
X14898251Y-12094010D02*
X14926823Y-12094010D01*
X14926823Y-12094010D02*
X14945870Y-12103534D01*
X14945870Y-12103534D02*
X14955394Y-12122582D01*
X14955394Y-12122582D02*
X14955394Y-12227344D01*
X14955394Y-12122582D02*
X14964918Y-12103534D01*
X14964918Y-12103534D02*
X14983965Y-12094010D01*
X14983965Y-12094010D02*
X15012537Y-12094010D01*
X15012537Y-12094010D02*
X15031584Y-12103534D01*
X15031584Y-12103534D02*
X15041108Y-12122582D01*
X15041108Y-12122582D02*
X15041108Y-12227344D01*
X15136346Y-12227344D02*
X15136346Y-12094010D01*
X15136346Y-12113058D02*
X15145870Y-12103534D01*
X15145870Y-12103534D02*
X15164918Y-12094010D01*
X15164918Y-12094010D02*
X15193489Y-12094010D01*
X15193489Y-12094010D02*
X15212537Y-12103534D01*
X15212537Y-12103534D02*
X15222061Y-12122582D01*
X15222061Y-12122582D02*
X15222061Y-12227344D01*
X15222061Y-12122582D02*
X15231584Y-12103534D01*
X15231584Y-12103534D02*
X15250632Y-12094010D01*
X15250632Y-12094010D02*
X15279203Y-12094010D01*
X15279203Y-12094010D02*
X15298251Y-12103534D01*
X15298251Y-12103534D02*
X15307775Y-12122582D01*
X15307775Y-12122582D02*
X15307775Y-12227344D01*
X15698251Y-12017820D02*
X15526823Y-12274963D01*
X15955394Y-12027344D02*
X15974442Y-12027344D01*
X15974442Y-12027344D02*
X15993489Y-12036868D01*
X15993489Y-12036868D02*
X16003013Y-12046391D01*
X16003013Y-12046391D02*
X16012537Y-12065439D01*
X16012537Y-12065439D02*
X16022061Y-12103534D01*
X16022061Y-12103534D02*
X16022061Y-12151153D01*
X16022061Y-12151153D02*
X16012537Y-12189248D01*
X16012537Y-12189248D02*
X16003013Y-12208296D01*
X16003013Y-12208296D02*
X15993489Y-12217820D01*
X15993489Y-12217820D02*
X15974442Y-12227344D01*
X15974442Y-12227344D02*
X15955394Y-12227344D01*
X15955394Y-12227344D02*
X15936346Y-12217820D01*
X15936346Y-12217820D02*
X15926823Y-12208296D01*
X15926823Y-12208296D02*
X15917299Y-12189248D01*
X15917299Y-12189248D02*
X15907775Y-12151153D01*
X15907775Y-12151153D02*
X15907775Y-12103534D01*
X15907775Y-12103534D02*
X15917299Y-12065439D01*
X15917299Y-12065439D02*
X15926823Y-12046391D01*
X15926823Y-12046391D02*
X15936346Y-12036868D01*
X15936346Y-12036868D02*
X15955394Y-12027344D01*
X16107775Y-12208296D02*
X16117299Y-12217820D01*
X16117299Y-12217820D02*
X16107775Y-12227344D01*
X16107775Y-12227344D02*
X16098251Y-12217820D01*
X16098251Y-12217820D02*
X16107775Y-12208296D01*
X16107775Y-12208296D02*
X16107775Y-12227344D01*
X16307775Y-12227344D02*
X16193489Y-12227344D01*
X16250632Y-12227344D02*
X16250632Y-12027344D01*
X16250632Y-12027344D02*
X16231585Y-12055915D01*
X16231585Y-12055915D02*
X16212537Y-12074963D01*
X16212537Y-12074963D02*
X16193489Y-12084487D01*
X16498251Y-12227344D02*
X16383966Y-12227344D01*
X16441108Y-12227344D02*
X16441108Y-12027344D01*
X16441108Y-12027344D02*
X16422061Y-12055915D01*
X16422061Y-12055915D02*
X16403013Y-12074963D01*
X16403013Y-12074963D02*
X16383966Y-12084487D01*
X16612537Y-12113058D02*
X16593489Y-12103534D01*
X16593489Y-12103534D02*
X16583966Y-12094010D01*
X16583966Y-12094010D02*
X16574442Y-12074963D01*
X16574442Y-12074963D02*
X16574442Y-12065439D01*
X16574442Y-12065439D02*
X16583966Y-12046391D01*
X16583966Y-12046391D02*
X16593489Y-12036868D01*
X16593489Y-12036868D02*
X16612537Y-12027344D01*
X16612537Y-12027344D02*
X16650632Y-12027344D01*
X16650632Y-12027344D02*
X16669680Y-12036868D01*
X16669680Y-12036868D02*
X16679204Y-12046391D01*
X16679204Y-12046391D02*
X16688727Y-12065439D01*
X16688727Y-12065439D02*
X16688727Y-12074963D01*
X16688727Y-12074963D02*
X16679204Y-12094010D01*
X16679204Y-12094010D02*
X16669680Y-12103534D01*
X16669680Y-12103534D02*
X16650632Y-12113058D01*
X16650632Y-12113058D02*
X16612537Y-12113058D01*
X16612537Y-12113058D02*
X16593489Y-12122582D01*
X16593489Y-12122582D02*
X16583966Y-12132106D01*
X16583966Y-12132106D02*
X16574442Y-12151153D01*
X16574442Y-12151153D02*
X16574442Y-12189248D01*
X16574442Y-12189248D02*
X16583966Y-12208296D01*
X16583966Y-12208296D02*
X16593489Y-12217820D01*
X16593489Y-12217820D02*
X16612537Y-12227344D01*
X16612537Y-12227344D02*
X16650632Y-12227344D01*
X16650632Y-12227344D02*
X16669680Y-12217820D01*
X16669680Y-12217820D02*
X16679204Y-12208296D01*
X16679204Y-12208296D02*
X16688727Y-12189248D01*
X16688727Y-12189248D02*
X16688727Y-12151153D01*
X16688727Y-12151153D02*
X16679204Y-12132106D01*
X16679204Y-12132106D02*
X16669680Y-12122582D01*
X16669680Y-12122582D02*
X16650632Y-12113058D01*
X16879204Y-12227344D02*
X16764918Y-12227344D01*
X16822061Y-12227344D02*
X16822061Y-12027344D01*
X16822061Y-12027344D02*
X16803013Y-12055915D01*
X16803013Y-12055915D02*
X16783966Y-12074963D01*
X16783966Y-12074963D02*
X16764918Y-12084487D01*
X16955394Y-12027344D02*
X16955394Y-12065439D01*
X17031585Y-12027344D02*
X17031585Y-12065439D01*
X17326823Y-12303534D02*
X17317299Y-12294010D01*
X17317299Y-12294010D02*
X17298251Y-12265439D01*
X17298251Y-12265439D02*
X17288728Y-12246391D01*
X17288728Y-12246391D02*
X17279204Y-12217820D01*
X17279204Y-12217820D02*
X17269680Y-12170201D01*
X17269680Y-12170201D02*
X17269680Y-12132106D01*
X17269680Y-12132106D02*
X17279204Y-12084487D01*
X17279204Y-12084487D02*
X17288728Y-12055915D01*
X17288728Y-12055915D02*
X17298251Y-12036868D01*
X17298251Y-12036868D02*
X17317299Y-12008296D01*
X17317299Y-12008296D02*
X17326823Y-11998772D01*
X17393490Y-12046391D02*
X17403013Y-12036868D01*
X17403013Y-12036868D02*
X17422061Y-12027344D01*
X17422061Y-12027344D02*
X17469680Y-12027344D01*
X17469680Y-12027344D02*
X17488728Y-12036868D01*
X17488728Y-12036868D02*
X17498251Y-12046391D01*
X17498251Y-12046391D02*
X17507775Y-12065439D01*
X17507775Y-12065439D02*
X17507775Y-12084487D01*
X17507775Y-12084487D02*
X17498251Y-12113058D01*
X17498251Y-12113058D02*
X17383966Y-12227344D01*
X17383966Y-12227344D02*
X17507775Y-12227344D01*
X17745871Y-12227344D02*
X17745871Y-12027344D01*
X17831585Y-12227344D02*
X17831585Y-12122582D01*
X17831585Y-12122582D02*
X17822061Y-12103534D01*
X17822061Y-12103534D02*
X17803013Y-12094010D01*
X17803013Y-12094010D02*
X17774442Y-12094010D01*
X17774442Y-12094010D02*
X17755394Y-12103534D01*
X17755394Y-12103534D02*
X17745871Y-12113058D01*
X17955394Y-12227344D02*
X17936347Y-12217820D01*
X17936347Y-12217820D02*
X17926823Y-12208296D01*
X17926823Y-12208296D02*
X17917299Y-12189248D01*
X17917299Y-12189248D02*
X17917299Y-12132106D01*
X17917299Y-12132106D02*
X17926823Y-12113058D01*
X17926823Y-12113058D02*
X17936347Y-12103534D01*
X17936347Y-12103534D02*
X17955394Y-12094010D01*
X17955394Y-12094010D02*
X17983966Y-12094010D01*
X17983966Y-12094010D02*
X18003013Y-12103534D01*
X18003013Y-12103534D02*
X18012537Y-12113058D01*
X18012537Y-12113058D02*
X18022061Y-12132106D01*
X18022061Y-12132106D02*
X18022061Y-12189248D01*
X18022061Y-12189248D02*
X18012537Y-12208296D01*
X18012537Y-12208296D02*
X18003013Y-12217820D01*
X18003013Y-12217820D02*
X17983966Y-12227344D01*
X17983966Y-12227344D02*
X17955394Y-12227344D01*
X18136347Y-12227344D02*
X18117299Y-12217820D01*
X18117299Y-12217820D02*
X18107775Y-12198772D01*
X18107775Y-12198772D02*
X18107775Y-12027344D01*
X18288728Y-12217820D02*
X18269680Y-12227344D01*
X18269680Y-12227344D02*
X18231585Y-12227344D01*
X18231585Y-12227344D02*
X18212537Y-12217820D01*
X18212537Y-12217820D02*
X18203013Y-12198772D01*
X18203013Y-12198772D02*
X18203013Y-12122582D01*
X18203013Y-12122582D02*
X18212537Y-12103534D01*
X18212537Y-12103534D02*
X18231585Y-12094010D01*
X18231585Y-12094010D02*
X18269680Y-12094010D01*
X18269680Y-12094010D02*
X18288728Y-12103534D01*
X18288728Y-12103534D02*
X18298252Y-12122582D01*
X18298252Y-12122582D02*
X18298252Y-12141629D01*
X18298252Y-12141629D02*
X18203013Y-12160677D01*
X18374442Y-12217820D02*
X18393490Y-12227344D01*
X18393490Y-12227344D02*
X18431585Y-12227344D01*
X18431585Y-12227344D02*
X18450633Y-12217820D01*
X18450633Y-12217820D02*
X18460156Y-12198772D01*
X18460156Y-12198772D02*
X18460156Y-12189248D01*
X18460156Y-12189248D02*
X18450633Y-12170201D01*
X18450633Y-12170201D02*
X18431585Y-12160677D01*
X18431585Y-12160677D02*
X18403013Y-12160677D01*
X18403013Y-12160677D02*
X18383966Y-12151153D01*
X18383966Y-12151153D02*
X18374442Y-12132106D01*
X18374442Y-12132106D02*
X18374442Y-12122582D01*
X18374442Y-12122582D02*
X18383966Y-12103534D01*
X18383966Y-12103534D02*
X18403013Y-12094010D01*
X18403013Y-12094010D02*
X18431585Y-12094010D01*
X18431585Y-12094010D02*
X18450633Y-12103534D01*
X18526823Y-12303534D02*
X18536347Y-12294010D01*
X18536347Y-12294010D02*
X18555394Y-12265439D01*
X18555394Y-12265439D02*
X18564918Y-12246391D01*
X18564918Y-12246391D02*
X18574442Y-12217820D01*
X18574442Y-12217820D02*
X18583966Y-12170201D01*
X18583966Y-12170201D02*
X18583966Y-12132106D01*
X18583966Y-12132106D02*
X18574442Y-12084487D01*
X18574442Y-12084487D02*
X18564918Y-12055915D01*
X18564918Y-12055915D02*
X18555394Y-12036868D01*
X18555394Y-12036868D02*
X18536347Y-12008296D01*
X18536347Y-12008296D02*
X18526823Y-11998772D01*
X18888728Y-12303534D02*
X18879204Y-12294010D01*
X18879204Y-12294010D02*
X18860156Y-12265439D01*
X18860156Y-12265439D02*
X18850633Y-12246391D01*
X18850633Y-12246391D02*
X18841109Y-12217820D01*
X18841109Y-12217820D02*
X18831585Y-12170201D01*
X18831585Y-12170201D02*
X18831585Y-12132106D01*
X18831585Y-12132106D02*
X18841109Y-12084487D01*
X18841109Y-12084487D02*
X18850633Y-12055915D01*
X18850633Y-12055915D02*
X18860156Y-12036868D01*
X18860156Y-12036868D02*
X18879204Y-12008296D01*
X18879204Y-12008296D02*
X18888728Y-11998772D01*
X18964918Y-12094010D02*
X18964918Y-12227344D01*
X18964918Y-12113058D02*
X18974442Y-12103534D01*
X18974442Y-12103534D02*
X18993490Y-12094010D01*
X18993490Y-12094010D02*
X19022061Y-12094010D01*
X19022061Y-12094010D02*
X19041109Y-12103534D01*
X19041109Y-12103534D02*
X19050633Y-12122582D01*
X19050633Y-12122582D02*
X19050633Y-12227344D01*
X19174442Y-12227344D02*
X19155394Y-12217820D01*
X19155394Y-12217820D02*
X19145871Y-12208296D01*
X19145871Y-12208296D02*
X19136347Y-12189248D01*
X19136347Y-12189248D02*
X19136347Y-12132106D01*
X19136347Y-12132106D02*
X19145871Y-12113058D01*
X19145871Y-12113058D02*
X19155394Y-12103534D01*
X19155394Y-12103534D02*
X19174442Y-12094010D01*
X19174442Y-12094010D02*
X19203014Y-12094010D01*
X19203014Y-12094010D02*
X19222061Y-12103534D01*
X19222061Y-12103534D02*
X19231585Y-12113058D01*
X19231585Y-12113058D02*
X19241109Y-12132106D01*
X19241109Y-12132106D02*
X19241109Y-12189248D01*
X19241109Y-12189248D02*
X19231585Y-12208296D01*
X19231585Y-12208296D02*
X19222061Y-12217820D01*
X19222061Y-12217820D02*
X19203014Y-12227344D01*
X19203014Y-12227344D02*
X19174442Y-12227344D01*
X19298252Y-12094010D02*
X19374442Y-12094010D01*
X19326823Y-12027344D02*
X19326823Y-12198772D01*
X19326823Y-12198772D02*
X19336347Y-12217820D01*
X19336347Y-12217820D02*
X19355394Y-12227344D01*
X19355394Y-12227344D02*
X19374442Y-12227344D01*
X19593490Y-12094010D02*
X19593490Y-12294010D01*
X19593490Y-12103534D02*
X19612537Y-12094010D01*
X19612537Y-12094010D02*
X19650633Y-12094010D01*
X19650633Y-12094010D02*
X19669680Y-12103534D01*
X19669680Y-12103534D02*
X19679204Y-12113058D01*
X19679204Y-12113058D02*
X19688728Y-12132106D01*
X19688728Y-12132106D02*
X19688728Y-12189248D01*
X19688728Y-12189248D02*
X19679204Y-12208296D01*
X19679204Y-12208296D02*
X19669680Y-12217820D01*
X19669680Y-12217820D02*
X19650633Y-12227344D01*
X19650633Y-12227344D02*
X19612537Y-12227344D01*
X19612537Y-12227344D02*
X19593490Y-12217820D01*
X19803014Y-12227344D02*
X19783966Y-12217820D01*
X19783966Y-12217820D02*
X19774442Y-12198772D01*
X19774442Y-12198772D02*
X19774442Y-12027344D01*
X19964918Y-12227344D02*
X19964918Y-12122582D01*
X19964918Y-12122582D02*
X19955395Y-12103534D01*
X19955395Y-12103534D02*
X19936347Y-12094010D01*
X19936347Y-12094010D02*
X19898252Y-12094010D01*
X19898252Y-12094010D02*
X19879204Y-12103534D01*
X19964918Y-12217820D02*
X19945871Y-12227344D01*
X19945871Y-12227344D02*
X19898252Y-12227344D01*
X19898252Y-12227344D02*
X19879204Y-12217820D01*
X19879204Y-12217820D02*
X19869680Y-12198772D01*
X19869680Y-12198772D02*
X19869680Y-12179725D01*
X19869680Y-12179725D02*
X19879204Y-12160677D01*
X19879204Y-12160677D02*
X19898252Y-12151153D01*
X19898252Y-12151153D02*
X19945871Y-12151153D01*
X19945871Y-12151153D02*
X19964918Y-12141629D01*
X20031585Y-12094010D02*
X20107775Y-12094010D01*
X20060156Y-12027344D02*
X20060156Y-12198772D01*
X20060156Y-12198772D02*
X20069680Y-12217820D01*
X20069680Y-12217820D02*
X20088728Y-12227344D01*
X20088728Y-12227344D02*
X20107775Y-12227344D01*
X20250633Y-12217820D02*
X20231585Y-12227344D01*
X20231585Y-12227344D02*
X20193490Y-12227344D01*
X20193490Y-12227344D02*
X20174442Y-12217820D01*
X20174442Y-12217820D02*
X20164918Y-12198772D01*
X20164918Y-12198772D02*
X20164918Y-12122582D01*
X20164918Y-12122582D02*
X20174442Y-12103534D01*
X20174442Y-12103534D02*
X20193490Y-12094010D01*
X20193490Y-12094010D02*
X20231585Y-12094010D01*
X20231585Y-12094010D02*
X20250633Y-12103534D01*
X20250633Y-12103534D02*
X20260156Y-12122582D01*
X20260156Y-12122582D02*
X20260156Y-12141629D01*
X20260156Y-12141629D02*
X20164918Y-12160677D01*
X20431585Y-12227344D02*
X20431585Y-12027344D01*
X20431585Y-12217820D02*
X20412537Y-12227344D01*
X20412537Y-12227344D02*
X20374442Y-12227344D01*
X20374442Y-12227344D02*
X20355395Y-12217820D01*
X20355395Y-12217820D02*
X20345871Y-12208296D01*
X20345871Y-12208296D02*
X20336347Y-12189248D01*
X20336347Y-12189248D02*
X20336347Y-12132106D01*
X20336347Y-12132106D02*
X20345871Y-12113058D01*
X20345871Y-12113058D02*
X20355395Y-12103534D01*
X20355395Y-12103534D02*
X20374442Y-12094010D01*
X20374442Y-12094010D02*
X20412537Y-12094010D01*
X20412537Y-12094010D02*
X20431585Y-12103534D01*
X20507776Y-12303534D02*
X20517299Y-12294010D01*
X20517299Y-12294010D02*
X20536347Y-12265439D01*
X20536347Y-12265439D02*
X20545871Y-12246391D01*
X20545871Y-12246391D02*
X20555395Y-12217820D01*
X20555395Y-12217820D02*
X20564918Y-12170201D01*
X20564918Y-12170201D02*
X20564918Y-12132106D01*
X20564918Y-12132106D02*
X20555395Y-12084487D01*
X20555395Y-12084487D02*
X20545871Y-12055915D01*
X20545871Y-12055915D02*
X20536347Y-12036868D01*
X20536347Y-12036868D02*
X20517299Y-12008296D01*
X20517299Y-12008296D02*
X20507776Y-11998772D01*
M02*
