G04 #@! TF.GenerationSoftware,KiCad,Pcbnew,8.0.1*
G04 #@! TF.CreationDate,2024-03-31T00:10:13+01:00*
G04 #@! TF.ProjectId,spider2,73706964-6572-4322-9e6b-696361645f70,rev?*
G04 #@! TF.SameCoordinates,Original*
G04 #@! TF.FileFunction,Soldermask,Bot*
G04 #@! TF.FilePolarity,Negative*
%FSLAX46Y46*%
G04 Gerber Fmt 4.6, Leading zero omitted, Abs format (unit mm)*
G04 Created by KiCad (PCBNEW 8.0.1) date 2024-03-31 00:10:13*
%MOMM*%
%LPD*%
G01*
G04 APERTURE LIST*
%ADD10C,1.600000*%
%ADD11O,1.600000X1.600000*%
%ADD12R,2.000000X2.000000*%
%ADD13C,2.000000*%
%ADD14C,0.700000*%
%ADD15O,0.900000X2.400000*%
%ADD16O,0.900000X1.700000*%
%ADD17R,1.717500X1.800000*%
%ADD18O,1.717500X1.800000*%
%ADD19R,1.600000X1.600000*%
%ADD20R,2.500000X2.500000*%
%ADD21C,1.500000*%
%ADD22O,1.000000X1.900000*%
%ADD23O,1.703200X3.203200*%
%ADD24O,1.903200X3.203200*%
%ADD25O,1.900000X1.000000*%
%ADD26O,3.203200X2.203200*%
%ADD27C,0.800000*%
%ADD28C,6.400000*%
%ADD29R,1.700000X1.700000*%
%ADD30O,1.700000X1.700000*%
%ADD31C,3.000000*%
%ADD32R,1.500000X1.500000*%
%ADD33R,1.050000X1.500000*%
%ADD34O,1.050000X1.500000*%
%ADD35C,2.400000*%
%ADD36O,2.400000X2.400000*%
%ADD37C,4.000000*%
%ADD38C,1.800000*%
%ADD39R,4.000000X4.000000*%
%ADD40R,1.800000X1.800000*%
%ADD41C,2.600000*%
%ADD42R,1.500000X1.000000*%
%ADD43R,1.000000X1.500000*%
G04 APERTURE END LIST*
D10*
X171975000Y-64135000D03*
D11*
X171975000Y-74295000D03*
D10*
X147599400Y-34823400D03*
X152679400Y-34823400D03*
G36*
G01*
X147199400Y-41643400D02*
X147999400Y-41643400D01*
G75*
G02*
X148399400Y-42043400I0J-400000D01*
G01*
X148399400Y-42843400D01*
G75*
G02*
X147999400Y-43243400I-400000J0D01*
G01*
X147199400Y-43243400D01*
G75*
G02*
X146799400Y-42843400I0J400000D01*
G01*
X146799400Y-42043400D01*
G75*
G02*
X147199400Y-41643400I400000J0D01*
G01*
G37*
X150139400Y-42443400D03*
X152679400Y-42443400D03*
X147599400Y-39903400D03*
X150139400Y-39903400D03*
X152679400Y-39903400D03*
X262920000Y-52200000D03*
D11*
X273080000Y-52200000D03*
D12*
X218620000Y-67000000D03*
D13*
X221160000Y-67000000D03*
X223700000Y-67000000D03*
X218620000Y-72080000D03*
X221160000Y-72080000D03*
X223700000Y-72080000D03*
D10*
X230650000Y-33400000D03*
X225650000Y-33400000D03*
X244875000Y-36200000D03*
D11*
X234715000Y-36200000D03*
D14*
X165725000Y-37575000D03*
X164875000Y-37575000D03*
X164025000Y-37575000D03*
X163175000Y-37575000D03*
X162325000Y-37575000D03*
X161475000Y-37575000D03*
X160625000Y-37575000D03*
X159775000Y-37575000D03*
X159775000Y-36225000D03*
X160625000Y-36225000D03*
X161475000Y-36225000D03*
X162325000Y-36225000D03*
X163175000Y-36225000D03*
X164025000Y-36225000D03*
X164875000Y-36225000D03*
X165725000Y-36225000D03*
D15*
X167075000Y-36595000D03*
D16*
X167075000Y-33215000D03*
D15*
X158425000Y-36595000D03*
D16*
X158425000Y-33215000D03*
D10*
X187800000Y-61600000D03*
D11*
X187800000Y-51440000D03*
D17*
X142950000Y-67000000D03*
D18*
X145240000Y-67000000D03*
X147530000Y-67000000D03*
D10*
X263120000Y-81300000D03*
D11*
X273280000Y-81300000D03*
D10*
X181800000Y-82425000D03*
X181800000Y-87425000D03*
X207645000Y-51333400D03*
X207645000Y-56333400D03*
X196850000Y-86475000D03*
X196850000Y-81475000D03*
X211480400Y-56337200D03*
X211480400Y-51337200D03*
X209300000Y-82980000D03*
D11*
X209300000Y-72820000D03*
D19*
X149620000Y-69750000D03*
D11*
X142000000Y-69750000D03*
D10*
X178275000Y-82880000D03*
D11*
X178275000Y-72720000D03*
D10*
X139700000Y-52959000D03*
D11*
X139700000Y-42799000D03*
D10*
X202800000Y-32550000D03*
D11*
X202800000Y-42710000D03*
D10*
X232600000Y-54625000D03*
D11*
X232600000Y-64785000D03*
D10*
X205525000Y-82000000D03*
X205525000Y-87000000D03*
D20*
X181356000Y-32385000D03*
D21*
X240099112Y-90500000D03*
D22*
X242349112Y-87200000D03*
D23*
X244099112Y-88100000D03*
D24*
X236599112Y-88100000D03*
D22*
X237849112Y-87200000D03*
D25*
X240099112Y-85800000D03*
D26*
X240099112Y-92600000D03*
D27*
X248019532Y-36102461D03*
X248722476Y-34405405D03*
X248722476Y-37799517D03*
X250419532Y-33702461D03*
D28*
X250419532Y-36102461D03*
D27*
X250419532Y-38502461D03*
X252116588Y-34405405D03*
X252116588Y-37799517D03*
X252819532Y-36102461D03*
D10*
X189850000Y-86450000D03*
X189850000Y-81450000D03*
X200500000Y-69450000D03*
X200500000Y-64450000D03*
X214700000Y-32640000D03*
D11*
X214700000Y-42800000D03*
D10*
X196350000Y-37000000D03*
X196350000Y-34000000D03*
X191950000Y-42000000D03*
X196350000Y-41000000D03*
D29*
X155800000Y-46090000D03*
D30*
X155800000Y-43550000D03*
D10*
X189200000Y-100200000D03*
D11*
X189200000Y-90040000D03*
D10*
X212177000Y-99568000D03*
X207177000Y-99568000D03*
D19*
X205765400Y-68808600D03*
D10*
X205765400Y-66308600D03*
X176425000Y-85600000D03*
X176425000Y-90600000D03*
X232925000Y-46200000D03*
X232925000Y-41200000D03*
X191600000Y-61595000D03*
D11*
X191600000Y-51435000D03*
D10*
X261200000Y-93230000D03*
D11*
X261200000Y-83070000D03*
D10*
X249645000Y-66950000D03*
D11*
X259805000Y-66950000D03*
D31*
X226300000Y-86450000D03*
D13*
X228430000Y-92800000D03*
X217000000Y-92800000D03*
D31*
X228430000Y-89650000D03*
X217000000Y-89650000D03*
X228430000Y-96000000D03*
X217000000Y-96000000D03*
X228430000Y-83300000D03*
X217000000Y-83300000D03*
D10*
X156425000Y-50275000D03*
D11*
X146265000Y-50275000D03*
D31*
X168800000Y-86450000D03*
D13*
X170930000Y-92800000D03*
X159500000Y-92800000D03*
D31*
X170930000Y-89650000D03*
X159500000Y-89650000D03*
X170930000Y-96000000D03*
X159500000Y-96000000D03*
X170930000Y-83300000D03*
X159500000Y-83300000D03*
D10*
X145500000Y-82500000D03*
D11*
X155660000Y-82500000D03*
D10*
X212550000Y-60100000D03*
D11*
X212550000Y-70260000D03*
D10*
X249745000Y-81400000D03*
D11*
X259905000Y-81400000D03*
D10*
X198800000Y-100320000D03*
D11*
X198800000Y-90160000D03*
D10*
X165129200Y-43750000D03*
X170129200Y-43750000D03*
D32*
X192120004Y-89159163D03*
D10*
X249220000Y-52150000D03*
D11*
X259380000Y-52150000D03*
D10*
X203809600Y-61722000D03*
D11*
X203809600Y-51562000D03*
D10*
X234675000Y-32825000D03*
D11*
X244835000Y-32825000D03*
D10*
X236195000Y-66725000D03*
D11*
X246355000Y-66725000D03*
D19*
X183750000Y-44182380D03*
D10*
X183750000Y-41682380D03*
X197100000Y-76225000D03*
X192100000Y-76225000D03*
X142500000Y-72170000D03*
D11*
X142500000Y-82330000D03*
D10*
X247100000Y-82250000D03*
D11*
X247100000Y-92410000D03*
D21*
X240100000Y-61433333D03*
D22*
X242350000Y-58133333D03*
D23*
X244100000Y-59033333D03*
D24*
X236600000Y-59033333D03*
D22*
X237850000Y-58133333D03*
D25*
X240100000Y-56733333D03*
D26*
X240100000Y-63533333D03*
D33*
X145020000Y-91250000D03*
D34*
X143750000Y-91250000D03*
X142480000Y-91250000D03*
D10*
X175641000Y-95758000D03*
X180641000Y-95758000D03*
D21*
X240100000Y-75966666D03*
D22*
X242350000Y-72666666D03*
D23*
X244100000Y-73566666D03*
D24*
X236600000Y-73566666D03*
D22*
X237850000Y-72666666D03*
D25*
X240100000Y-71266666D03*
D26*
X240100000Y-78066666D03*
D10*
X152250000Y-76190000D03*
D11*
X152250000Y-66030000D03*
D21*
X177174065Y-59268249D03*
D22*
X179424065Y-55968249D03*
D23*
X181174065Y-56868249D03*
D24*
X173674065Y-56868249D03*
D22*
X174924065Y-55968249D03*
D25*
X177174065Y-54568249D03*
D26*
X177174065Y-61368249D03*
D27*
X228260142Y-71088261D03*
X228963086Y-69391205D03*
X228963086Y-72785317D03*
X230660142Y-68688261D03*
D28*
X230660142Y-71088261D03*
D27*
X230660142Y-73488261D03*
X232357198Y-69391205D03*
X232357198Y-72785317D03*
X233060142Y-71088261D03*
D10*
X143002000Y-52959000D03*
D11*
X143002000Y-42799000D03*
D21*
X268100000Y-47000000D03*
D22*
X270350000Y-43700000D03*
D23*
X272100000Y-44600000D03*
D24*
X264600000Y-44600000D03*
D22*
X265850000Y-43700000D03*
D25*
X268100000Y-42300000D03*
D26*
X268100000Y-49100000D03*
D10*
X184000000Y-63600000D03*
X184000000Y-58600000D03*
D35*
X259100000Y-32190000D03*
D36*
X259100000Y-39810000D03*
D32*
X184277000Y-32385000D03*
D19*
X160925000Y-43175000D03*
D10*
X160925000Y-45675000D03*
D37*
X159217564Y-56780906D03*
X168017564Y-56780906D03*
D38*
X166117564Y-63780906D03*
X163617564Y-63780906D03*
X161117564Y-63780906D03*
D10*
X188750000Y-69062600D03*
X188750000Y-64062600D03*
D32*
X186817000Y-32385000D03*
X189357000Y-32385000D03*
D12*
X166152500Y-72090000D03*
D13*
X163612500Y-72090000D03*
X161072500Y-72090000D03*
X166152500Y-67010000D03*
X163612500Y-67010000D03*
X161072500Y-67010000D03*
D33*
X145000000Y-86500000D03*
D34*
X143730000Y-86500000D03*
X142460000Y-86500000D03*
D10*
X145500000Y-79000000D03*
D11*
X155660000Y-79000000D03*
D10*
X185100000Y-100200000D03*
D11*
X185100000Y-90040000D03*
D21*
X268100000Y-76000000D03*
D22*
X270350000Y-72700000D03*
D23*
X272100000Y-73600000D03*
D24*
X264600000Y-73600000D03*
D22*
X265850000Y-72700000D03*
D25*
X268100000Y-71300000D03*
D26*
X268100000Y-78100000D03*
D29*
X139850000Y-60250000D03*
D30*
X139850000Y-62790000D03*
D10*
X175225000Y-82835000D03*
D11*
X175225000Y-72675000D03*
D27*
X250278178Y-99588332D03*
X250981122Y-97891276D03*
X250981122Y-101285388D03*
X252678178Y-97188332D03*
D28*
X252678178Y-99588332D03*
D27*
X252678178Y-101988332D03*
X254375234Y-97891276D03*
X254375234Y-101285388D03*
X255078178Y-99588332D03*
D10*
X236270000Y-52150000D03*
D11*
X246430000Y-52150000D03*
D10*
X218750000Y-32640000D03*
D11*
X218750000Y-42800000D03*
D10*
X211350000Y-37000000D03*
X211350000Y-34000000D03*
X206950000Y-42000000D03*
X211350000Y-41000000D03*
D21*
X268100000Y-61500000D03*
D22*
X270350000Y-58200000D03*
D23*
X272100000Y-59100000D03*
D24*
X264600000Y-59100000D03*
D22*
X265850000Y-58200000D03*
D25*
X268100000Y-56800000D03*
D26*
X268100000Y-63600000D03*
D21*
X240100000Y-46900000D03*
D22*
X242350000Y-43600000D03*
D23*
X244100000Y-44500000D03*
D24*
X236600000Y-44500000D03*
D22*
X237850000Y-43600000D03*
D25*
X240100000Y-42200000D03*
D26*
X240100000Y-49000000D03*
D19*
X222375000Y-37100000D03*
D11*
X222375000Y-39640000D03*
X222375000Y-42180000D03*
X222375000Y-44720000D03*
X229995000Y-44720000D03*
X229995000Y-42180000D03*
X229995000Y-39640000D03*
X229995000Y-37100000D03*
D10*
X263120000Y-66750000D03*
D11*
X273280000Y-66750000D03*
D10*
X233260000Y-92180000D03*
D11*
X233260000Y-82020000D03*
D10*
X188722000Y-76276200D03*
X188722000Y-71276200D03*
X211800000Y-48750000D03*
D11*
X221960000Y-48750000D03*
D21*
X254100000Y-61500000D03*
D22*
X256350000Y-58200000D03*
D23*
X258100000Y-59100000D03*
D24*
X250600000Y-59100000D03*
D22*
X251850000Y-58200000D03*
D25*
X254100000Y-56800000D03*
D26*
X254100000Y-63600000D03*
D21*
X254100000Y-76000000D03*
D22*
X256350000Y-72700000D03*
D23*
X258100000Y-73600000D03*
D24*
X250600000Y-73600000D03*
D22*
X251850000Y-72700000D03*
D25*
X254100000Y-71300000D03*
D26*
X254100000Y-78100000D03*
D21*
X254100000Y-47000000D03*
D22*
X256350000Y-43700000D03*
D23*
X258100000Y-44600000D03*
D24*
X250600000Y-44600000D03*
D22*
X251850000Y-43700000D03*
D25*
X254100000Y-42300000D03*
D26*
X254100000Y-49100000D03*
D10*
X212600000Y-82985000D03*
D11*
X212600000Y-72825000D03*
D10*
X202600000Y-100360000D03*
D11*
X202600000Y-90200000D03*
D10*
X172347600Y-44196000D03*
X177347600Y-44196000D03*
X184000000Y-51400000D03*
X184000000Y-56400000D03*
D21*
X150165198Y-59269712D03*
D22*
X152415198Y-55969712D03*
D23*
X154165198Y-56869712D03*
D24*
X146665198Y-56869712D03*
D22*
X147915198Y-55969712D03*
D25*
X150165198Y-54569712D03*
D26*
X150165198Y-61369712D03*
D39*
X194056000Y-100584000D03*
D21*
X254099112Y-90500000D03*
D22*
X256349112Y-87200000D03*
D23*
X258099112Y-88100000D03*
D24*
X250599112Y-88100000D03*
D22*
X251849112Y-87200000D03*
D25*
X254099112Y-85800000D03*
D26*
X254099112Y-92600000D03*
D21*
X268100000Y-90500000D03*
D22*
X270350000Y-87200000D03*
D23*
X272100000Y-88100000D03*
D24*
X264600000Y-88100000D03*
D22*
X265850000Y-87200000D03*
D25*
X268100000Y-85800000D03*
D26*
X268100000Y-92600000D03*
D10*
X175700000Y-100500000D03*
X180700000Y-100500000D03*
X188750000Y-37250000D03*
D11*
X188750000Y-47410000D03*
D10*
X170641261Y-31877000D03*
X170641261Y-36877000D03*
X139250000Y-93160000D03*
D11*
X139250000Y-83000000D03*
D10*
X171704000Y-48133000D03*
X176704000Y-48133000D03*
D32*
X195961000Y-89154000D03*
D40*
X148875000Y-88725000D03*
D38*
X151415000Y-88725000D03*
D10*
X199600000Y-32570000D03*
D11*
X199600000Y-42730000D03*
D10*
X229450000Y-64800000D03*
D11*
X229450000Y-54640000D03*
D10*
X212304000Y-94361000D03*
X207304000Y-94361000D03*
D37*
X216749930Y-56700000D03*
X225549930Y-56700000D03*
D38*
X223649930Y-63700000D03*
X221149930Y-63700000D03*
X218649930Y-63700000D03*
D10*
X199694800Y-61722000D03*
D11*
X199694800Y-51562000D03*
D10*
X245080000Y-81225000D03*
D11*
X234920000Y-81225000D03*
D41*
X174752000Y-37592000D03*
X179752000Y-37592000D03*
D10*
X155250000Y-76150000D03*
D11*
X155250000Y-65990000D03*
D40*
X147670000Y-98300000D03*
D38*
X150210000Y-98300000D03*
X152750000Y-98300000D03*
D27*
X139840000Y-97590000D03*
X140542944Y-95892944D03*
X140542944Y-99287056D03*
X142240000Y-95190000D03*
D28*
X142240000Y-97590000D03*
D27*
X142240000Y-99990000D03*
X143937056Y-95892944D03*
X143937056Y-99287056D03*
X144640000Y-97590000D03*
D10*
X224000000Y-48760000D03*
D11*
X234160000Y-48760000D03*
D10*
X139350000Y-77840000D03*
D11*
X139350000Y-67680000D03*
D10*
X211400000Y-85650000D03*
X211400000Y-90650000D03*
D19*
X183388000Y-69400000D03*
D10*
X183388000Y-66900000D03*
D27*
X138994600Y-37691600D03*
X139697544Y-35994544D03*
X139697544Y-39388656D03*
X141394600Y-35291600D03*
D28*
X141394600Y-37691600D03*
D27*
X141394600Y-40091600D03*
X143091656Y-35994544D03*
X143091656Y-39388656D03*
X143794600Y-37691600D03*
G36*
G01*
X181094800Y-94116200D02*
X180194800Y-94116200D01*
G75*
G02*
X179944800Y-93866200I0J250000D01*
G01*
X179944800Y-93166200D01*
G75*
G02*
X180194800Y-92916200I250000J0D01*
G01*
X181094800Y-92916200D01*
G75*
G02*
X181344800Y-93166200I0J-250000D01*
G01*
X181344800Y-93866200D01*
G75*
G02*
X181094800Y-94116200I-250000J0D01*
G01*
G37*
G36*
G01*
X181094800Y-92116200D02*
X180194800Y-92116200D01*
G75*
G02*
X179944800Y-91866200I0J250000D01*
G01*
X179944800Y-91166200D01*
G75*
G02*
X180194800Y-90916200I250000J0D01*
G01*
X181094800Y-90916200D01*
G75*
G02*
X181344800Y-91166200I0J-250000D01*
G01*
X181344800Y-91866200D01*
G75*
G02*
X181094800Y-92116200I-250000J0D01*
G01*
G37*
G36*
G01*
X203396000Y-94974300D02*
X202496000Y-94974300D01*
G75*
G02*
X202246000Y-94724300I0J250000D01*
G01*
X202246000Y-94024300D01*
G75*
G02*
X202496000Y-93774300I250000J0D01*
G01*
X203396000Y-93774300D01*
G75*
G02*
X203646000Y-94024300I0J-250000D01*
G01*
X203646000Y-94724300D01*
G75*
G02*
X203396000Y-94974300I-250000J0D01*
G01*
G37*
G36*
G01*
X203396000Y-92974300D02*
X202496000Y-92974300D01*
G75*
G02*
X202246000Y-92724300I0J250000D01*
G01*
X202246000Y-92024300D01*
G75*
G02*
X202496000Y-91774300I250000J0D01*
G01*
X203396000Y-91774300D01*
G75*
G02*
X203646000Y-92024300I0J-250000D01*
G01*
X203646000Y-92724300D01*
G75*
G02*
X203396000Y-92974300I-250000J0D01*
G01*
G37*
G36*
X223203200Y-96812800D02*
G01*
X223203200Y-97362800D01*
X223198111Y-97362800D01*
X223198111Y-97433957D01*
X223158016Y-97570508D01*
X223081075Y-97690230D01*
X222973520Y-97783427D01*
X222844066Y-97842546D01*
X222703200Y-97862800D01*
X222203200Y-97862800D01*
X222062334Y-97842546D01*
X221932880Y-97783427D01*
X221825325Y-97690230D01*
X221748384Y-97570508D01*
X221708289Y-97433957D01*
X221708289Y-97362800D01*
X221703200Y-97362800D01*
X221703200Y-96812800D01*
X223203200Y-96812800D01*
G37*
D42*
X222453200Y-96062800D03*
G36*
X221708289Y-94762800D02*
G01*
X221708289Y-94691643D01*
X221748384Y-94555092D01*
X221825325Y-94435370D01*
X221932880Y-94342173D01*
X222062334Y-94283054D01*
X222203200Y-94262800D01*
X222703200Y-94262800D01*
X222844066Y-94283054D01*
X222973520Y-94342173D01*
X223081075Y-94435370D01*
X223158016Y-94555092D01*
X223198111Y-94691643D01*
X223198111Y-94762800D01*
X223203200Y-94762800D01*
X223203200Y-95312800D01*
X221703200Y-95312800D01*
X221703200Y-94762800D01*
X221708289Y-94762800D01*
G37*
G36*
X221700000Y-60250000D02*
G01*
X222250000Y-60250000D01*
X222250000Y-60255089D01*
X222321157Y-60255089D01*
X222457708Y-60295184D01*
X222577430Y-60372125D01*
X222670627Y-60479680D01*
X222729746Y-60609134D01*
X222750000Y-60750000D01*
X222750000Y-61250000D01*
X222729746Y-61390866D01*
X222670627Y-61520320D01*
X222577430Y-61627875D01*
X222457708Y-61704816D01*
X222321157Y-61744911D01*
X222250000Y-61744911D01*
X222250000Y-61750000D01*
X221700000Y-61750000D01*
X221700000Y-60250000D01*
G37*
D43*
X220950000Y-61000000D03*
G36*
X219650000Y-61744911D02*
G01*
X219578843Y-61744911D01*
X219442292Y-61704816D01*
X219322570Y-61627875D01*
X219229373Y-61520320D01*
X219170254Y-61390866D01*
X219150000Y-61250000D01*
X219150000Y-60750000D01*
X219170254Y-60609134D01*
X219229373Y-60479680D01*
X219322570Y-60372125D01*
X219442292Y-60295184D01*
X219578843Y-60255089D01*
X219650000Y-60255089D01*
X219650000Y-60250000D01*
X220200000Y-60250000D01*
X220200000Y-61750000D01*
X219650000Y-61750000D01*
X219650000Y-61744911D01*
G37*
G36*
G01*
X182252600Y-90928700D02*
X183202600Y-90928700D01*
G75*
G02*
X183452600Y-91178700I0J-250000D01*
G01*
X183452600Y-91853700D01*
G75*
G02*
X183202600Y-92103700I-250000J0D01*
G01*
X182252600Y-92103700D01*
G75*
G02*
X182002600Y-91853700I0J250000D01*
G01*
X182002600Y-91178700D01*
G75*
G02*
X182252600Y-90928700I250000J0D01*
G01*
G37*
G36*
G01*
X182252600Y-93003700D02*
X183202600Y-93003700D01*
G75*
G02*
X183452600Y-93253700I0J-250000D01*
G01*
X183452600Y-93928700D01*
G75*
G02*
X183202600Y-94178700I-250000J0D01*
G01*
X182252600Y-94178700D01*
G75*
G02*
X182002600Y-93928700I0J250000D01*
G01*
X182002600Y-93253700D01*
G75*
G02*
X182252600Y-93003700I250000J0D01*
G01*
G37*
G36*
G01*
X200362800Y-91770800D02*
X201312800Y-91770800D01*
G75*
G02*
X201562800Y-92020800I0J-250000D01*
G01*
X201562800Y-92695800D01*
G75*
G02*
X201312800Y-92945800I-250000J0D01*
G01*
X200362800Y-92945800D01*
G75*
G02*
X200112800Y-92695800I0J250000D01*
G01*
X200112800Y-92020800D01*
G75*
G02*
X200362800Y-91770800I250000J0D01*
G01*
G37*
G36*
G01*
X200362800Y-93845800D02*
X201312800Y-93845800D01*
G75*
G02*
X201562800Y-94095800I0J-250000D01*
G01*
X201562800Y-94770800D01*
G75*
G02*
X201312800Y-95020800I-250000J0D01*
G01*
X200362800Y-95020800D01*
G75*
G02*
X200112800Y-94770800I0J250000D01*
G01*
X200112800Y-94095800D01*
G75*
G02*
X200362800Y-93845800I250000J0D01*
G01*
G37*
G36*
X165250000Y-60750000D02*
G01*
X165800000Y-60750000D01*
X165800000Y-60755089D01*
X165871157Y-60755089D01*
X166007708Y-60795184D01*
X166127430Y-60872125D01*
X166220627Y-60979680D01*
X166279746Y-61109134D01*
X166300000Y-61250000D01*
X166300000Y-61750000D01*
X166279746Y-61890866D01*
X166220627Y-62020320D01*
X166127430Y-62127875D01*
X166007708Y-62204816D01*
X165871157Y-62244911D01*
X165800000Y-62244911D01*
X165800000Y-62250000D01*
X165250000Y-62250000D01*
X165250000Y-60750000D01*
G37*
X164500000Y-61500000D03*
G36*
X163200000Y-62244911D02*
G01*
X163128843Y-62244911D01*
X162992292Y-62204816D01*
X162872570Y-62127875D01*
X162779373Y-62020320D01*
X162720254Y-61890866D01*
X162700000Y-61750000D01*
X162700000Y-61250000D01*
X162720254Y-61109134D01*
X162779373Y-60979680D01*
X162872570Y-60872125D01*
X162992292Y-60795184D01*
X163128843Y-60755089D01*
X163200000Y-60755089D01*
X163200000Y-60750000D01*
X163750000Y-60750000D01*
X163750000Y-62250000D01*
X163200000Y-62250000D01*
X163200000Y-62244911D01*
G37*
G36*
X164400800Y-95232000D02*
G01*
X164400800Y-94682000D01*
X164405889Y-94682000D01*
X164405889Y-94610843D01*
X164445984Y-94474292D01*
X164522925Y-94354570D01*
X164630480Y-94261373D01*
X164759934Y-94202254D01*
X164900800Y-94182000D01*
X165400800Y-94182000D01*
X165541666Y-94202254D01*
X165671120Y-94261373D01*
X165778675Y-94354570D01*
X165855616Y-94474292D01*
X165895711Y-94610843D01*
X165895711Y-94682000D01*
X165900800Y-94682000D01*
X165900800Y-95232000D01*
X164400800Y-95232000D01*
G37*
D42*
X165150800Y-95982000D03*
G36*
X165895711Y-97282000D02*
G01*
X165895711Y-97353157D01*
X165855616Y-97489708D01*
X165778675Y-97609430D01*
X165671120Y-97702627D01*
X165541666Y-97761746D01*
X165400800Y-97782000D01*
X164900800Y-97782000D01*
X164759934Y-97761746D01*
X164630480Y-97702627D01*
X164522925Y-97609430D01*
X164445984Y-97489708D01*
X164405889Y-97353157D01*
X164405889Y-97282000D01*
X164400800Y-97282000D01*
X164400800Y-96732000D01*
X165900800Y-96732000D01*
X165900800Y-97282000D01*
X165895711Y-97282000D01*
G37*
M02*
