G04 #@! TF.GenerationSoftware,KiCad,Pcbnew,8.0.1*
G04 #@! TF.CreationDate,2024-04-16T20:02:15+02:00*
G04 #@! TF.ProjectId,spider2,73706964-6572-4322-9e6b-696361645f70,rev?*
G04 #@! TF.SameCoordinates,Original*
G04 #@! TF.FileFunction,Legend,Bot*
G04 #@! TF.FilePolarity,Positive*
%FSLAX46Y46*%
G04 Gerber Fmt 4.6, Leading zero omitted, Abs format (unit mm)*
G04 Created by KiCad (PCBNEW 8.0.1) date 2024-04-16 20:02:15*
%MOMM*%
%LPD*%
G01*
G04 APERTURE LIST*
%ADD10C,0.000000*%
%ADD11C,0.150000*%
%ADD12C,0.200000*%
%ADD13C,0.120000*%
%ADD14C,1.600000*%
%ADD15O,1.600000X1.600000*%
%ADD16C,0.700000*%
%ADD17O,0.900000X2.400000*%
%ADD18O,0.900000X1.700000*%
%ADD19R,1.717500X1.800000*%
%ADD20O,1.717500X1.800000*%
%ADD21R,1.600000X1.600000*%
%ADD22R,2.500000X2.500000*%
%ADD23C,1.500000*%
%ADD24O,1.900000X1.000000*%
%ADD25O,1.000000X1.800000*%
%ADD26C,1.300000*%
%ADD27O,1.703200X3.203200*%
%ADD28O,1.903200X3.203200*%
%ADD29O,1.000000X1.900000*%
%ADD30O,3.203200X2.203200*%
%ADD31O,1.800000X0.900000*%
%ADD32C,0.800000*%
%ADD33C,6.400000*%
%ADD34C,3.000000*%
%ADD35C,2.000000*%
%ADD36R,1.500000X1.500000*%
%ADD37C,1.400000*%
%ADD38O,1.400000X1.400000*%
%ADD39C,4.000000*%
%ADD40C,1.800000*%
%ADD41R,1.700000X1.700000*%
%ADD42O,1.700000X1.700000*%
%ADD43R,4.000000X4.000000*%
%ADD44R,1.800000X1.800000*%
%ADD45R,1.000000X1.500000*%
%ADD46C,1.000000*%
G04 APERTURE END LIST*
D10*
G36*
X232526086Y-101515632D02*
G01*
X232539084Y-101516989D01*
X232551746Y-101519250D01*
X232564074Y-101522415D01*
X232576067Y-101526484D01*
X232587724Y-101531458D01*
X232599046Y-101537336D01*
X232610034Y-101544119D01*
X232620686Y-101551806D01*
X232631003Y-101560397D01*
X232640985Y-101569892D01*
X232650632Y-101580292D01*
X232659944Y-101591596D01*
X232668921Y-101603805D01*
X232677562Y-101616918D01*
X232685869Y-101630935D01*
X232689745Y-101641577D01*
X232693104Y-101652058D01*
X232694589Y-101657238D01*
X232695946Y-101662377D01*
X232697173Y-101667476D01*
X232698271Y-101672535D01*
X232699240Y-101677553D01*
X232700080Y-101682531D01*
X232700791Y-101687468D01*
X232701372Y-101692365D01*
X232701824Y-101697222D01*
X232702147Y-101702039D01*
X232702341Y-101706815D01*
X232702405Y-101711550D01*
X232701986Y-101727653D01*
X232700726Y-101743662D01*
X232698627Y-101759579D01*
X232695688Y-101775403D01*
X232691909Y-101791134D01*
X232687290Y-101806772D01*
X232681832Y-101822317D01*
X232675534Y-101837770D01*
X232668396Y-101853129D01*
X232660418Y-101868396D01*
X232651601Y-101883570D01*
X232641944Y-101898651D01*
X232631447Y-101913639D01*
X232620111Y-101928535D01*
X232607934Y-101943337D01*
X232594918Y-101958047D01*
X232321550Y-102286192D01*
X232318449Y-102286192D01*
X232028028Y-101930142D01*
X232017515Y-101916873D01*
X232007680Y-101903553D01*
X231998524Y-101890179D01*
X231990046Y-101876754D01*
X231982246Y-101863275D01*
X231975124Y-101849745D01*
X231968681Y-101836161D01*
X231962916Y-101822526D01*
X231957829Y-101808837D01*
X231953420Y-101795097D01*
X231949690Y-101781304D01*
X231946638Y-101767458D01*
X231944264Y-101753560D01*
X231942568Y-101739609D01*
X231941551Y-101725606D01*
X231941212Y-101711550D01*
X231941613Y-101698096D01*
X231942818Y-101684994D01*
X231944827Y-101672242D01*
X231947639Y-101659842D01*
X231951254Y-101647793D01*
X231955673Y-101636095D01*
X231960895Y-101624748D01*
X231966921Y-101613753D01*
X231973750Y-101603109D01*
X231981382Y-101592816D01*
X231989818Y-101582874D01*
X231999057Y-101573284D01*
X232009100Y-101564044D01*
X232019946Y-101555156D01*
X232031595Y-101546620D01*
X232044048Y-101538434D01*
X232049480Y-101535618D01*
X232054924Y-101532984D01*
X232060380Y-101530532D01*
X232065849Y-101528261D01*
X232071329Y-101526171D01*
X232076822Y-101524264D01*
X232082327Y-101522538D01*
X232087844Y-101520994D01*
X232093373Y-101519631D01*
X232098914Y-101518450D01*
X232104467Y-101517451D01*
X232110032Y-101516633D01*
X232115610Y-101515998D01*
X232121199Y-101515543D01*
X232126801Y-101515271D01*
X232132415Y-101515180D01*
X232145352Y-101515654D01*
X232157938Y-101517078D01*
X232170173Y-101519449D01*
X232176158Y-101520991D01*
X232182056Y-101522770D01*
X232187866Y-101524786D01*
X232193588Y-101527039D01*
X232199223Y-101529530D01*
X232204769Y-101532257D01*
X232215599Y-101538424D01*
X232226078Y-101545540D01*
X232236205Y-101553604D01*
X232245981Y-101562617D01*
X232255406Y-101572579D01*
X232264480Y-101583490D01*
X232273202Y-101595349D01*
X232281573Y-101608157D01*
X232289593Y-101621914D01*
X232297262Y-101636619D01*
X232302365Y-101648279D01*
X232306822Y-101659228D01*
X232310633Y-101669466D01*
X232313799Y-101678994D01*
X232316318Y-101687812D01*
X232317335Y-101691954D01*
X232318191Y-101695918D01*
X232318885Y-101699705D01*
X232319418Y-101703314D01*
X232319790Y-101706746D01*
X232320000Y-101710000D01*
X232321550Y-101710000D01*
X232323926Y-101699647D01*
X232326532Y-101689515D01*
X232329368Y-101679606D01*
X232332434Y-101669919D01*
X232335731Y-101660453D01*
X232339257Y-101651210D01*
X232343014Y-101642189D01*
X232347001Y-101633390D01*
X232351218Y-101624813D01*
X232355665Y-101616458D01*
X232360342Y-101608325D01*
X232365249Y-101600414D01*
X232370386Y-101592725D01*
X232375754Y-101585258D01*
X232381351Y-101578013D01*
X232387179Y-101570991D01*
X232394210Y-101564232D01*
X232401350Y-101557910D01*
X232408599Y-101552024D01*
X232415956Y-101546573D01*
X232423423Y-101541559D01*
X232430999Y-101536981D01*
X232438684Y-101532839D01*
X232446478Y-101529133D01*
X232454381Y-101525862D01*
X232462393Y-101523028D01*
X232470513Y-101520630D01*
X232478743Y-101518668D01*
X232487082Y-101517142D01*
X232495530Y-101516052D01*
X232504087Y-101515398D01*
X232512753Y-101515180D01*
X232526086Y-101515632D01*
G37*
D11*
X212468475Y-98700000D02*
X227531525Y-98700000D01*
X227531525Y-102629700D01*
X212468475Y-102629700D01*
X212468475Y-98700000D01*
G36*
X212468475Y-98700000D02*
G01*
X227531525Y-98700000D01*
X227531525Y-102629700D01*
X212468475Y-102629700D01*
X212468475Y-98700000D01*
G37*
D10*
G36*
X233598058Y-99875490D02*
G01*
X233611056Y-99876847D01*
X233623718Y-99879108D01*
X233636046Y-99882273D01*
X233648039Y-99886342D01*
X233659696Y-99891316D01*
X233671018Y-99897194D01*
X233682006Y-99903977D01*
X233692658Y-99911664D01*
X233702975Y-99920255D01*
X233712957Y-99929750D01*
X233722604Y-99940150D01*
X233731916Y-99951454D01*
X233740893Y-99963663D01*
X233749534Y-99976776D01*
X233757841Y-99990793D01*
X233761717Y-100001435D01*
X233765076Y-100011916D01*
X233766561Y-100017096D01*
X233767918Y-100022235D01*
X233769145Y-100027334D01*
X233770243Y-100032393D01*
X233771212Y-100037411D01*
X233772052Y-100042389D01*
X233772763Y-100047326D01*
X233773344Y-100052223D01*
X233773796Y-100057080D01*
X233774119Y-100061897D01*
X233774313Y-100066673D01*
X233774377Y-100071408D01*
X233773958Y-100087511D01*
X233772698Y-100103520D01*
X233770599Y-100119437D01*
X233767660Y-100135261D01*
X233763881Y-100150992D01*
X233759262Y-100166630D01*
X233753804Y-100182175D01*
X233747506Y-100197628D01*
X233740368Y-100212987D01*
X233732390Y-100228254D01*
X233723573Y-100243428D01*
X233713916Y-100258509D01*
X233703419Y-100273497D01*
X233692083Y-100288393D01*
X233679906Y-100303195D01*
X233666890Y-100317905D01*
X233393522Y-100646050D01*
X233390421Y-100646050D01*
X233100000Y-100290000D01*
X233089487Y-100276731D01*
X233079652Y-100263411D01*
X233070496Y-100250037D01*
X233062018Y-100236612D01*
X233054218Y-100223133D01*
X233047096Y-100209603D01*
X233040653Y-100196019D01*
X233034888Y-100182384D01*
X233029801Y-100168695D01*
X233025392Y-100154955D01*
X233021662Y-100141162D01*
X233018610Y-100127316D01*
X233016236Y-100113418D01*
X233014540Y-100099467D01*
X233013523Y-100085464D01*
X233013184Y-100071408D01*
X233013585Y-100057954D01*
X233014790Y-100044852D01*
X233016799Y-100032100D01*
X233019611Y-100019700D01*
X233023226Y-100007651D01*
X233027645Y-99995953D01*
X233032867Y-99984606D01*
X233038893Y-99973611D01*
X233045722Y-99962967D01*
X233053354Y-99952674D01*
X233061790Y-99942732D01*
X233071029Y-99933142D01*
X233081072Y-99923902D01*
X233091918Y-99915014D01*
X233103567Y-99906478D01*
X233116020Y-99898292D01*
X233121452Y-99895476D01*
X233126896Y-99892842D01*
X233132352Y-99890390D01*
X233137821Y-99888119D01*
X233143301Y-99886029D01*
X233148794Y-99884122D01*
X233154299Y-99882396D01*
X233159816Y-99880852D01*
X233165345Y-99879489D01*
X233170886Y-99878308D01*
X233176439Y-99877309D01*
X233182004Y-99876491D01*
X233187582Y-99875856D01*
X233193171Y-99875401D01*
X233198773Y-99875129D01*
X233204387Y-99875038D01*
X233217324Y-99875512D01*
X233229910Y-99876936D01*
X233242145Y-99879307D01*
X233248130Y-99880849D01*
X233254028Y-99882628D01*
X233259838Y-99884644D01*
X233265560Y-99886897D01*
X233271195Y-99889388D01*
X233276741Y-99892115D01*
X233287571Y-99898282D01*
X233298050Y-99905398D01*
X233308177Y-99913462D01*
X233317953Y-99922475D01*
X233327378Y-99932437D01*
X233336452Y-99943348D01*
X233345174Y-99955207D01*
X233353545Y-99968015D01*
X233361565Y-99981772D01*
X233369234Y-99996477D01*
X233374337Y-100008137D01*
X233378794Y-100019086D01*
X233382605Y-100029324D01*
X233385771Y-100038852D01*
X233388290Y-100047670D01*
X233389307Y-100051812D01*
X233390163Y-100055776D01*
X233390857Y-100059563D01*
X233391390Y-100063172D01*
X233391762Y-100066604D01*
X233391972Y-100069858D01*
X233393522Y-100069858D01*
X233395898Y-100059505D01*
X233398504Y-100049373D01*
X233401340Y-100039464D01*
X233404406Y-100029777D01*
X233407703Y-100020311D01*
X233411229Y-100011068D01*
X233414986Y-100002047D01*
X233418973Y-99993248D01*
X233423190Y-99984671D01*
X233427637Y-99976316D01*
X233432314Y-99968183D01*
X233437221Y-99960272D01*
X233442358Y-99952583D01*
X233447726Y-99945116D01*
X233453323Y-99937871D01*
X233459151Y-99930849D01*
X233466182Y-99924090D01*
X233473322Y-99917768D01*
X233480571Y-99911882D01*
X233487928Y-99906431D01*
X233495395Y-99901417D01*
X233502971Y-99896839D01*
X233510656Y-99892697D01*
X233518450Y-99888991D01*
X233526353Y-99885720D01*
X233534365Y-99882886D01*
X233542485Y-99880488D01*
X233550715Y-99878526D01*
X233559054Y-99877000D01*
X233567502Y-99875910D01*
X233576059Y-99875256D01*
X233584725Y-99875038D01*
X233598058Y-99875490D01*
G37*
D12*
X239073660Y-95662204D02*
X239117469Y-95709824D01*
X239117469Y-95709824D02*
X239248898Y-95757443D01*
X239248898Y-95757443D02*
X239336517Y-95757443D01*
X239336517Y-95757443D02*
X239467945Y-95709824D01*
X239467945Y-95709824D02*
X239555564Y-95614585D01*
X239555564Y-95614585D02*
X239599374Y-95519347D01*
X239599374Y-95519347D02*
X239643183Y-95328871D01*
X239643183Y-95328871D02*
X239643183Y-95186014D01*
X239643183Y-95186014D02*
X239599374Y-94995538D01*
X239599374Y-94995538D02*
X239555564Y-94900300D01*
X239555564Y-94900300D02*
X239467945Y-94805062D01*
X239467945Y-94805062D02*
X239336517Y-94757443D01*
X239336517Y-94757443D02*
X239248898Y-94757443D01*
X239248898Y-94757443D02*
X239117469Y-94805062D01*
X239117469Y-94805062D02*
X239073660Y-94852681D01*
X238504136Y-94757443D02*
X238328898Y-94757443D01*
X238328898Y-94757443D02*
X238241279Y-94805062D01*
X238241279Y-94805062D02*
X238153660Y-94900300D01*
X238153660Y-94900300D02*
X238109850Y-95090776D01*
X238109850Y-95090776D02*
X238109850Y-95424109D01*
X238109850Y-95424109D02*
X238153660Y-95614585D01*
X238153660Y-95614585D02*
X238241279Y-95709824D01*
X238241279Y-95709824D02*
X238328898Y-95757443D01*
X238328898Y-95757443D02*
X238504136Y-95757443D01*
X238504136Y-95757443D02*
X238591755Y-95709824D01*
X238591755Y-95709824D02*
X238679374Y-95614585D01*
X238679374Y-95614585D02*
X238723183Y-95424109D01*
X238723183Y-95424109D02*
X238723183Y-95090776D01*
X238723183Y-95090776D02*
X238679374Y-94900300D01*
X238679374Y-94900300D02*
X238591755Y-94805062D01*
X238591755Y-94805062D02*
X238504136Y-94757443D01*
X237759373Y-95471728D02*
X237321278Y-95471728D01*
X237846992Y-95757443D02*
X237540326Y-94757443D01*
X237540326Y-94757443D02*
X237233659Y-95757443D01*
X237058421Y-94757443D02*
X236532707Y-94757443D01*
X236795564Y-95757443D02*
X236795564Y-94757443D01*
X236226041Y-95757443D02*
X236226041Y-94757443D01*
X235130803Y-95709824D02*
X234999375Y-95757443D01*
X234999375Y-95757443D02*
X234780327Y-95757443D01*
X234780327Y-95757443D02*
X234692708Y-95709824D01*
X234692708Y-95709824D02*
X234648899Y-95662204D01*
X234648899Y-95662204D02*
X234605089Y-95566966D01*
X234605089Y-95566966D02*
X234605089Y-95471728D01*
X234605089Y-95471728D02*
X234648899Y-95376490D01*
X234648899Y-95376490D02*
X234692708Y-95328871D01*
X234692708Y-95328871D02*
X234780327Y-95281252D01*
X234780327Y-95281252D02*
X234955565Y-95233633D01*
X234955565Y-95233633D02*
X235043184Y-95186014D01*
X235043184Y-95186014D02*
X235086994Y-95138395D01*
X235086994Y-95138395D02*
X235130803Y-95043157D01*
X235130803Y-95043157D02*
X235130803Y-94947919D01*
X235130803Y-94947919D02*
X235086994Y-94852681D01*
X235086994Y-94852681D02*
X235043184Y-94805062D01*
X235043184Y-94805062D02*
X234955565Y-94757443D01*
X234955565Y-94757443D02*
X234736518Y-94757443D01*
X234736518Y-94757443D02*
X234605089Y-94805062D01*
X234210804Y-95090776D02*
X234210804Y-96090776D01*
X234210804Y-95138395D02*
X234123185Y-95090776D01*
X234123185Y-95090776D02*
X233947947Y-95090776D01*
X233947947Y-95090776D02*
X233860328Y-95138395D01*
X233860328Y-95138395D02*
X233816518Y-95186014D01*
X233816518Y-95186014D02*
X233772709Y-95281252D01*
X233772709Y-95281252D02*
X233772709Y-95566966D01*
X233772709Y-95566966D02*
X233816518Y-95662204D01*
X233816518Y-95662204D02*
X233860328Y-95709824D01*
X233860328Y-95709824D02*
X233947947Y-95757443D01*
X233947947Y-95757443D02*
X234123185Y-95757443D01*
X234123185Y-95757443D02*
X234210804Y-95709824D01*
X233378423Y-95757443D02*
X233378423Y-95090776D01*
X233378423Y-94757443D02*
X233422232Y-94805062D01*
X233422232Y-94805062D02*
X233378423Y-94852681D01*
X233378423Y-94852681D02*
X233334613Y-94805062D01*
X233334613Y-94805062D02*
X233378423Y-94757443D01*
X233378423Y-94757443D02*
X233378423Y-94852681D01*
X232546042Y-95757443D02*
X232546042Y-94757443D01*
X232546042Y-95709824D02*
X232633661Y-95757443D01*
X232633661Y-95757443D02*
X232808899Y-95757443D01*
X232808899Y-95757443D02*
X232896518Y-95709824D01*
X232896518Y-95709824D02*
X232940328Y-95662204D01*
X232940328Y-95662204D02*
X232984137Y-95566966D01*
X232984137Y-95566966D02*
X232984137Y-95281252D01*
X232984137Y-95281252D02*
X232940328Y-95186014D01*
X232940328Y-95186014D02*
X232896518Y-95138395D01*
X232896518Y-95138395D02*
X232808899Y-95090776D01*
X232808899Y-95090776D02*
X232633661Y-95090776D01*
X232633661Y-95090776D02*
X232546042Y-95138395D01*
X231757471Y-95709824D02*
X231845090Y-95757443D01*
X231845090Y-95757443D02*
X232020328Y-95757443D01*
X232020328Y-95757443D02*
X232107947Y-95709824D01*
X232107947Y-95709824D02*
X232151756Y-95614585D01*
X232151756Y-95614585D02*
X232151756Y-95233633D01*
X232151756Y-95233633D02*
X232107947Y-95138395D01*
X232107947Y-95138395D02*
X232020328Y-95090776D01*
X232020328Y-95090776D02*
X231845090Y-95090776D01*
X231845090Y-95090776D02*
X231757471Y-95138395D01*
X231757471Y-95138395D02*
X231713661Y-95233633D01*
X231713661Y-95233633D02*
X231713661Y-95328871D01*
X231713661Y-95328871D02*
X232151756Y-95424109D01*
X231319376Y-95757443D02*
X231319376Y-95090776D01*
X231319376Y-95281252D02*
X231275566Y-95186014D01*
X231275566Y-95186014D02*
X231231757Y-95138395D01*
X231231757Y-95138395D02*
X231144138Y-95090776D01*
X231144138Y-95090776D02*
X231056519Y-95090776D01*
X239643183Y-97081672D02*
X239205088Y-97081672D01*
X239730802Y-97367387D02*
X239424136Y-96367387D01*
X239424136Y-96367387D02*
X239117469Y-97367387D01*
X238372708Y-97367387D02*
X238810803Y-97367387D01*
X238810803Y-97367387D02*
X238810803Y-96367387D01*
X238066041Y-97367387D02*
X238066041Y-96367387D01*
X237671755Y-97319768D02*
X237540327Y-97367387D01*
X237540327Y-97367387D02*
X237321279Y-97367387D01*
X237321279Y-97367387D02*
X237233660Y-97319768D01*
X237233660Y-97319768D02*
X237189851Y-97272148D01*
X237189851Y-97272148D02*
X237146041Y-97176910D01*
X237146041Y-97176910D02*
X237146041Y-97081672D01*
X237146041Y-97081672D02*
X237189851Y-96986434D01*
X237189851Y-96986434D02*
X237233660Y-96938815D01*
X237233660Y-96938815D02*
X237321279Y-96891196D01*
X237321279Y-96891196D02*
X237496517Y-96843577D01*
X237496517Y-96843577D02*
X237584136Y-96795958D01*
X237584136Y-96795958D02*
X237627946Y-96748339D01*
X237627946Y-96748339D02*
X237671755Y-96653101D01*
X237671755Y-96653101D02*
X237671755Y-96557863D01*
X237671755Y-96557863D02*
X237627946Y-96462625D01*
X237627946Y-96462625D02*
X237584136Y-96415006D01*
X237584136Y-96415006D02*
X237496517Y-96367387D01*
X237496517Y-96367387D02*
X237277470Y-96367387D01*
X237277470Y-96367387D02*
X237146041Y-96415006D01*
X236094613Y-97319768D02*
X235963185Y-97367387D01*
X235963185Y-97367387D02*
X235744137Y-97367387D01*
X235744137Y-97367387D02*
X235656518Y-97319768D01*
X235656518Y-97319768D02*
X235612709Y-97272148D01*
X235612709Y-97272148D02*
X235568899Y-97176910D01*
X235568899Y-97176910D02*
X235568899Y-97081672D01*
X235568899Y-97081672D02*
X235612709Y-96986434D01*
X235612709Y-96986434D02*
X235656518Y-96938815D01*
X235656518Y-96938815D02*
X235744137Y-96891196D01*
X235744137Y-96891196D02*
X235919375Y-96843577D01*
X235919375Y-96843577D02*
X236006994Y-96795958D01*
X236006994Y-96795958D02*
X236050804Y-96748339D01*
X236050804Y-96748339D02*
X236094613Y-96653101D01*
X236094613Y-96653101D02*
X236094613Y-96557863D01*
X236094613Y-96557863D02*
X236050804Y-96462625D01*
X236050804Y-96462625D02*
X236006994Y-96415006D01*
X236006994Y-96415006D02*
X235919375Y-96367387D01*
X235919375Y-96367387D02*
X235700328Y-96367387D01*
X235700328Y-96367387D02*
X235568899Y-96415006D01*
X235174614Y-96700720D02*
X235174614Y-97700720D01*
X235174614Y-96748339D02*
X235086995Y-96700720D01*
X235086995Y-96700720D02*
X234911757Y-96700720D01*
X234911757Y-96700720D02*
X234824138Y-96748339D01*
X234824138Y-96748339D02*
X234780328Y-96795958D01*
X234780328Y-96795958D02*
X234736519Y-96891196D01*
X234736519Y-96891196D02*
X234736519Y-97176910D01*
X234736519Y-97176910D02*
X234780328Y-97272148D01*
X234780328Y-97272148D02*
X234824138Y-97319768D01*
X234824138Y-97319768D02*
X234911757Y-97367387D01*
X234911757Y-97367387D02*
X235086995Y-97367387D01*
X235086995Y-97367387D02*
X235174614Y-97319768D01*
X234342233Y-97367387D02*
X234342233Y-96700720D01*
X234342233Y-96367387D02*
X234386042Y-96415006D01*
X234386042Y-96415006D02*
X234342233Y-96462625D01*
X234342233Y-96462625D02*
X234298423Y-96415006D01*
X234298423Y-96415006D02*
X234342233Y-96367387D01*
X234342233Y-96367387D02*
X234342233Y-96462625D01*
X233509852Y-97367387D02*
X233509852Y-96367387D01*
X233509852Y-97319768D02*
X233597471Y-97367387D01*
X233597471Y-97367387D02*
X233772709Y-97367387D01*
X233772709Y-97367387D02*
X233860328Y-97319768D01*
X233860328Y-97319768D02*
X233904138Y-97272148D01*
X233904138Y-97272148D02*
X233947947Y-97176910D01*
X233947947Y-97176910D02*
X233947947Y-96891196D01*
X233947947Y-96891196D02*
X233904138Y-96795958D01*
X233904138Y-96795958D02*
X233860328Y-96748339D01*
X233860328Y-96748339D02*
X233772709Y-96700720D01*
X233772709Y-96700720D02*
X233597471Y-96700720D01*
X233597471Y-96700720D02*
X233509852Y-96748339D01*
X232721281Y-97319768D02*
X232808900Y-97367387D01*
X232808900Y-97367387D02*
X232984138Y-97367387D01*
X232984138Y-97367387D02*
X233071757Y-97319768D01*
X233071757Y-97319768D02*
X233115566Y-97224529D01*
X233115566Y-97224529D02*
X233115566Y-96843577D01*
X233115566Y-96843577D02*
X233071757Y-96748339D01*
X233071757Y-96748339D02*
X232984138Y-96700720D01*
X232984138Y-96700720D02*
X232808900Y-96700720D01*
X232808900Y-96700720D02*
X232721281Y-96748339D01*
X232721281Y-96748339D02*
X232677471Y-96843577D01*
X232677471Y-96843577D02*
X232677471Y-96938815D01*
X232677471Y-96938815D02*
X233115566Y-97034053D01*
X232283186Y-97367387D02*
X232283186Y-96700720D01*
X232283186Y-96891196D02*
X232239376Y-96795958D01*
X232239376Y-96795958D02*
X232195567Y-96748339D01*
X232195567Y-96748339D02*
X232107948Y-96700720D01*
X232107948Y-96700720D02*
X232020329Y-96700720D01*
X239205088Y-98929712D02*
X239292707Y-98977331D01*
X239292707Y-98977331D02*
X239467945Y-98977331D01*
X239467945Y-98977331D02*
X239555564Y-98929712D01*
X239555564Y-98929712D02*
X239599374Y-98882092D01*
X239599374Y-98882092D02*
X239643183Y-98786854D01*
X239643183Y-98786854D02*
X239643183Y-98501140D01*
X239643183Y-98501140D02*
X239599374Y-98405902D01*
X239599374Y-98405902D02*
X239555564Y-98358283D01*
X239555564Y-98358283D02*
X239467945Y-98310664D01*
X239467945Y-98310664D02*
X239292707Y-98310664D01*
X239292707Y-98310664D02*
X239205088Y-98358283D01*
X238810803Y-98977331D02*
X238810803Y-97977331D01*
X238416517Y-98977331D02*
X238416517Y-98453521D01*
X238416517Y-98453521D02*
X238460327Y-98358283D01*
X238460327Y-98358283D02*
X238547946Y-98310664D01*
X238547946Y-98310664D02*
X238679374Y-98310664D01*
X238679374Y-98310664D02*
X238766993Y-98358283D01*
X238766993Y-98358283D02*
X238810803Y-98405902D01*
X237584136Y-98977331D02*
X237584136Y-98453521D01*
X237584136Y-98453521D02*
X237627946Y-98358283D01*
X237627946Y-98358283D02*
X237715565Y-98310664D01*
X237715565Y-98310664D02*
X237890803Y-98310664D01*
X237890803Y-98310664D02*
X237978422Y-98358283D01*
X237584136Y-98929712D02*
X237671755Y-98977331D01*
X237671755Y-98977331D02*
X237890803Y-98977331D01*
X237890803Y-98977331D02*
X237978422Y-98929712D01*
X237978422Y-98929712D02*
X238022231Y-98834473D01*
X238022231Y-98834473D02*
X238022231Y-98739235D01*
X238022231Y-98739235D02*
X237978422Y-98643997D01*
X237978422Y-98643997D02*
X237890803Y-98596378D01*
X237890803Y-98596378D02*
X237671755Y-98596378D01*
X237671755Y-98596378D02*
X237584136Y-98548759D01*
X237146041Y-98310664D02*
X237146041Y-98977331D01*
X237146041Y-98405902D02*
X237102231Y-98358283D01*
X237102231Y-98358283D02*
X237014612Y-98310664D01*
X237014612Y-98310664D02*
X236883184Y-98310664D01*
X236883184Y-98310664D02*
X236795565Y-98358283D01*
X236795565Y-98358283D02*
X236751755Y-98453521D01*
X236751755Y-98453521D02*
X236751755Y-98977331D01*
X235919374Y-98977331D02*
X235919374Y-97977331D01*
X235919374Y-98929712D02*
X236006993Y-98977331D01*
X236006993Y-98977331D02*
X236182231Y-98977331D01*
X236182231Y-98977331D02*
X236269850Y-98929712D01*
X236269850Y-98929712D02*
X236313660Y-98882092D01*
X236313660Y-98882092D02*
X236357469Y-98786854D01*
X236357469Y-98786854D02*
X236357469Y-98501140D01*
X236357469Y-98501140D02*
X236313660Y-98405902D01*
X236313660Y-98405902D02*
X236269850Y-98358283D01*
X236269850Y-98358283D02*
X236182231Y-98310664D01*
X236182231Y-98310664D02*
X236006993Y-98310664D01*
X236006993Y-98310664D02*
X235919374Y-98358283D01*
X235481279Y-98977331D02*
X235481279Y-98310664D01*
X235481279Y-97977331D02*
X235525088Y-98024950D01*
X235525088Y-98024950D02*
X235481279Y-98072569D01*
X235481279Y-98072569D02*
X235437469Y-98024950D01*
X235437469Y-98024950D02*
X235481279Y-97977331D01*
X235481279Y-97977331D02*
X235481279Y-98072569D01*
X239599374Y-100587275D02*
X239599374Y-99587275D01*
X239599374Y-99587275D02*
X239292707Y-100301560D01*
X239292707Y-100301560D02*
X238986041Y-99587275D01*
X238986041Y-99587275D02*
X238986041Y-100587275D01*
X238153659Y-100587275D02*
X238153659Y-100063465D01*
X238153659Y-100063465D02*
X238197469Y-99968227D01*
X238197469Y-99968227D02*
X238285088Y-99920608D01*
X238285088Y-99920608D02*
X238460326Y-99920608D01*
X238460326Y-99920608D02*
X238547945Y-99968227D01*
X238153659Y-100539656D02*
X238241278Y-100587275D01*
X238241278Y-100587275D02*
X238460326Y-100587275D01*
X238460326Y-100587275D02*
X238547945Y-100539656D01*
X238547945Y-100539656D02*
X238591754Y-100444417D01*
X238591754Y-100444417D02*
X238591754Y-100349179D01*
X238591754Y-100349179D02*
X238547945Y-100253941D01*
X238547945Y-100253941D02*
X238460326Y-100206322D01*
X238460326Y-100206322D02*
X238241278Y-100206322D01*
X238241278Y-100206322D02*
X238153659Y-100158703D01*
X237846992Y-99920608D02*
X237496516Y-99920608D01*
X237715564Y-99587275D02*
X237715564Y-100444417D01*
X237715564Y-100444417D02*
X237671754Y-100539656D01*
X237671754Y-100539656D02*
X237584135Y-100587275D01*
X237584135Y-100587275D02*
X237496516Y-100587275D01*
X237321278Y-99920608D02*
X236970802Y-99920608D01*
X237189850Y-99587275D02*
X237189850Y-100444417D01*
X237189850Y-100444417D02*
X237146040Y-100539656D01*
X237146040Y-100539656D02*
X237058421Y-100587275D01*
X237058421Y-100587275D02*
X236970802Y-100587275D01*
X236664136Y-100587275D02*
X236664136Y-99587275D01*
X236269850Y-100587275D02*
X236269850Y-100063465D01*
X236269850Y-100063465D02*
X236313660Y-99968227D01*
X236313660Y-99968227D02*
X236401279Y-99920608D01*
X236401279Y-99920608D02*
X236532707Y-99920608D01*
X236532707Y-99920608D02*
X236620326Y-99968227D01*
X236620326Y-99968227D02*
X236664136Y-100015846D01*
X235831755Y-100587275D02*
X235831755Y-99920608D01*
X235831755Y-99587275D02*
X235875564Y-99634894D01*
X235875564Y-99634894D02*
X235831755Y-99682513D01*
X235831755Y-99682513D02*
X235787945Y-99634894D01*
X235787945Y-99634894D02*
X235831755Y-99587275D01*
X235831755Y-99587275D02*
X235831755Y-99682513D01*
X234999374Y-100587275D02*
X234999374Y-100063465D01*
X234999374Y-100063465D02*
X235043184Y-99968227D01*
X235043184Y-99968227D02*
X235130803Y-99920608D01*
X235130803Y-99920608D02*
X235306041Y-99920608D01*
X235306041Y-99920608D02*
X235393660Y-99968227D01*
X234999374Y-100539656D02*
X235086993Y-100587275D01*
X235086993Y-100587275D02*
X235306041Y-100587275D01*
X235306041Y-100587275D02*
X235393660Y-100539656D01*
X235393660Y-100539656D02*
X235437469Y-100444417D01*
X235437469Y-100444417D02*
X235437469Y-100349179D01*
X235437469Y-100349179D02*
X235393660Y-100253941D01*
X235393660Y-100253941D02*
X235306041Y-100206322D01*
X235306041Y-100206322D02*
X235086993Y-100206322D01*
X235086993Y-100206322D02*
X234999374Y-100158703D01*
X234605088Y-100539656D02*
X234517469Y-100587275D01*
X234517469Y-100587275D02*
X234342231Y-100587275D01*
X234342231Y-100587275D02*
X234254612Y-100539656D01*
X234254612Y-100539656D02*
X234210803Y-100444417D01*
X234210803Y-100444417D02*
X234210803Y-100396798D01*
X234210803Y-100396798D02*
X234254612Y-100301560D01*
X234254612Y-100301560D02*
X234342231Y-100253941D01*
X234342231Y-100253941D02*
X234473660Y-100253941D01*
X234473660Y-100253941D02*
X234561279Y-100206322D01*
X234561279Y-100206322D02*
X234605088Y-100111084D01*
X234605088Y-100111084D02*
X234605088Y-100063465D01*
X234605088Y-100063465D02*
X234561279Y-99968227D01*
X234561279Y-99968227D02*
X234473660Y-99920608D01*
X234473660Y-99920608D02*
X234342231Y-99920608D01*
X234342231Y-99920608D02*
X234254612Y-99968227D01*
X239599374Y-102197219D02*
X239599374Y-101197219D01*
X239161279Y-101530552D02*
X239161279Y-102197219D01*
X239161279Y-101625790D02*
X239117469Y-101578171D01*
X239117469Y-101578171D02*
X239029850Y-101530552D01*
X239029850Y-101530552D02*
X238898422Y-101530552D01*
X238898422Y-101530552D02*
X238810803Y-101578171D01*
X238810803Y-101578171D02*
X238766993Y-101673409D01*
X238766993Y-101673409D02*
X238766993Y-102197219D01*
X238460326Y-101530552D02*
X238109850Y-101530552D01*
X238328898Y-101197219D02*
X238328898Y-102054361D01*
X238328898Y-102054361D02*
X238285088Y-102149600D01*
X238285088Y-102149600D02*
X238197469Y-102197219D01*
X238197469Y-102197219D02*
X238109850Y-102197219D01*
X237452708Y-102149600D02*
X237540327Y-102197219D01*
X237540327Y-102197219D02*
X237715565Y-102197219D01*
X237715565Y-102197219D02*
X237803184Y-102149600D01*
X237803184Y-102149600D02*
X237846993Y-102054361D01*
X237846993Y-102054361D02*
X237846993Y-101673409D01*
X237846993Y-101673409D02*
X237803184Y-101578171D01*
X237803184Y-101578171D02*
X237715565Y-101530552D01*
X237715565Y-101530552D02*
X237540327Y-101530552D01*
X237540327Y-101530552D02*
X237452708Y-101578171D01*
X237452708Y-101578171D02*
X237408898Y-101673409D01*
X237408898Y-101673409D02*
X237408898Y-101768647D01*
X237408898Y-101768647D02*
X237846993Y-101863885D01*
X237014613Y-102197219D02*
X237014613Y-101530552D01*
X237014613Y-101721028D02*
X236970803Y-101625790D01*
X236970803Y-101625790D02*
X236926994Y-101578171D01*
X236926994Y-101578171D02*
X236839375Y-101530552D01*
X236839375Y-101530552D02*
X236751756Y-101530552D01*
X236445089Y-101530552D02*
X236445089Y-102530552D01*
X236445089Y-101578171D02*
X236357470Y-101530552D01*
X236357470Y-101530552D02*
X236182232Y-101530552D01*
X236182232Y-101530552D02*
X236094613Y-101578171D01*
X236094613Y-101578171D02*
X236050803Y-101625790D01*
X236050803Y-101625790D02*
X236006994Y-101721028D01*
X236006994Y-101721028D02*
X236006994Y-102006742D01*
X236006994Y-102006742D02*
X236050803Y-102101980D01*
X236050803Y-102101980D02*
X236094613Y-102149600D01*
X236094613Y-102149600D02*
X236182232Y-102197219D01*
X236182232Y-102197219D02*
X236357470Y-102197219D01*
X236357470Y-102197219D02*
X236445089Y-102149600D01*
X235086994Y-102197219D02*
X235393660Y-101721028D01*
X235612708Y-102197219D02*
X235612708Y-101197219D01*
X235612708Y-101197219D02*
X235262232Y-101197219D01*
X235262232Y-101197219D02*
X235174613Y-101244838D01*
X235174613Y-101244838D02*
X235130803Y-101292457D01*
X235130803Y-101292457D02*
X235086994Y-101387695D01*
X235086994Y-101387695D02*
X235086994Y-101530552D01*
X235086994Y-101530552D02*
X235130803Y-101625790D01*
X235130803Y-101625790D02*
X235174613Y-101673409D01*
X235174613Y-101673409D02*
X235262232Y-101721028D01*
X235262232Y-101721028D02*
X235612708Y-101721028D01*
X234692708Y-102197219D02*
X234692708Y-101530552D01*
X234692708Y-101197219D02*
X234736517Y-101244838D01*
X234736517Y-101244838D02*
X234692708Y-101292457D01*
X234692708Y-101292457D02*
X234648898Y-101244838D01*
X234648898Y-101244838D02*
X234692708Y-101197219D01*
X234692708Y-101197219D02*
X234692708Y-101292457D01*
X234298422Y-102149600D02*
X234210803Y-102197219D01*
X234210803Y-102197219D02*
X234035565Y-102197219D01*
X234035565Y-102197219D02*
X233947946Y-102149600D01*
X233947946Y-102149600D02*
X233904137Y-102054361D01*
X233904137Y-102054361D02*
X233904137Y-102006742D01*
X233904137Y-102006742D02*
X233947946Y-101911504D01*
X233947946Y-101911504D02*
X234035565Y-101863885D01*
X234035565Y-101863885D02*
X234166994Y-101863885D01*
X234166994Y-101863885D02*
X234254613Y-101816266D01*
X234254613Y-101816266D02*
X234298422Y-101721028D01*
X234298422Y-101721028D02*
X234298422Y-101673409D01*
X234298422Y-101673409D02*
X234254613Y-101578171D01*
X234254613Y-101578171D02*
X234166994Y-101530552D01*
X234166994Y-101530552D02*
X234035565Y-101530552D01*
X234035565Y-101530552D02*
X233947946Y-101578171D01*
X233159375Y-102149600D02*
X233246994Y-102197219D01*
X233246994Y-102197219D02*
X233422232Y-102197219D01*
X233422232Y-102197219D02*
X233509851Y-102149600D01*
X233509851Y-102149600D02*
X233553660Y-102054361D01*
X233553660Y-102054361D02*
X233553660Y-101673409D01*
X233553660Y-101673409D02*
X233509851Y-101578171D01*
X233509851Y-101578171D02*
X233422232Y-101530552D01*
X233422232Y-101530552D02*
X233246994Y-101530552D01*
X233246994Y-101530552D02*
X233159375Y-101578171D01*
X233159375Y-101578171D02*
X233115565Y-101673409D01*
X233115565Y-101673409D02*
X233115565Y-101768647D01*
X233115565Y-101768647D02*
X233553660Y-101863885D01*
D11*
X248656780Y-95800043D02*
X248656780Y-94800043D01*
X248656780Y-95180995D02*
X248575827Y-95133376D01*
X248575827Y-95133376D02*
X248413922Y-95133376D01*
X248413922Y-95133376D02*
X248332970Y-95180995D01*
X248332970Y-95180995D02*
X248292494Y-95228614D01*
X248292494Y-95228614D02*
X248252018Y-95323852D01*
X248252018Y-95323852D02*
X248252018Y-95609566D01*
X248252018Y-95609566D02*
X248292494Y-95704804D01*
X248292494Y-95704804D02*
X248332970Y-95752424D01*
X248332970Y-95752424D02*
X248413922Y-95800043D01*
X248413922Y-95800043D02*
X248575827Y-95800043D01*
X248575827Y-95800043D02*
X248656780Y-95752424D01*
X247523446Y-95800043D02*
X247523446Y-95276233D01*
X247523446Y-95276233D02*
X247563922Y-95180995D01*
X247563922Y-95180995D02*
X247644874Y-95133376D01*
X247644874Y-95133376D02*
X247806779Y-95133376D01*
X247806779Y-95133376D02*
X247887732Y-95180995D01*
X247523446Y-95752424D02*
X247604398Y-95800043D01*
X247604398Y-95800043D02*
X247806779Y-95800043D01*
X247806779Y-95800043D02*
X247887732Y-95752424D01*
X247887732Y-95752424D02*
X247928208Y-95657185D01*
X247928208Y-95657185D02*
X247928208Y-95561947D01*
X247928208Y-95561947D02*
X247887732Y-95466709D01*
X247887732Y-95466709D02*
X247806779Y-95419090D01*
X247806779Y-95419090D02*
X247604398Y-95419090D01*
X247604398Y-95419090D02*
X247523446Y-95371471D01*
X247159160Y-95752424D02*
X247078207Y-95800043D01*
X247078207Y-95800043D02*
X246916303Y-95800043D01*
X246916303Y-95800043D02*
X246835350Y-95752424D01*
X246835350Y-95752424D02*
X246794874Y-95657185D01*
X246794874Y-95657185D02*
X246794874Y-95609566D01*
X246794874Y-95609566D02*
X246835350Y-95514328D01*
X246835350Y-95514328D02*
X246916303Y-95466709D01*
X246916303Y-95466709D02*
X247037731Y-95466709D01*
X247037731Y-95466709D02*
X247118684Y-95419090D01*
X247118684Y-95419090D02*
X247159160Y-95323852D01*
X247159160Y-95323852D02*
X247159160Y-95276233D01*
X247159160Y-95276233D02*
X247118684Y-95180995D01*
X247118684Y-95180995D02*
X247037731Y-95133376D01*
X247037731Y-95133376D02*
X246916303Y-95133376D01*
X246916303Y-95133376D02*
X246835350Y-95180995D01*
X246106779Y-95752424D02*
X246187731Y-95800043D01*
X246187731Y-95800043D02*
X246349636Y-95800043D01*
X246349636Y-95800043D02*
X246430589Y-95752424D01*
X246430589Y-95752424D02*
X246471065Y-95657185D01*
X246471065Y-95657185D02*
X246471065Y-95276233D01*
X246471065Y-95276233D02*
X246430589Y-95180995D01*
X246430589Y-95180995D02*
X246349636Y-95133376D01*
X246349636Y-95133376D02*
X246187731Y-95133376D01*
X246187731Y-95133376D02*
X246106779Y-95180995D01*
X246106779Y-95180995D02*
X246066303Y-95276233D01*
X246066303Y-95276233D02*
X246066303Y-95371471D01*
X246066303Y-95371471D02*
X246471065Y-95466709D01*
X245337732Y-95800043D02*
X245337732Y-94800043D01*
X245337732Y-95752424D02*
X245418684Y-95800043D01*
X245418684Y-95800043D02*
X245580589Y-95800043D01*
X245580589Y-95800043D02*
X245661541Y-95752424D01*
X245661541Y-95752424D02*
X245702018Y-95704804D01*
X245702018Y-95704804D02*
X245742494Y-95609566D01*
X245742494Y-95609566D02*
X245742494Y-95323852D01*
X245742494Y-95323852D02*
X245702018Y-95228614D01*
X245702018Y-95228614D02*
X245661541Y-95180995D01*
X245661541Y-95180995D02*
X245580589Y-95133376D01*
X245580589Y-95133376D02*
X245418684Y-95133376D01*
X245418684Y-95133376D02*
X245337732Y-95180995D01*
X244163922Y-95800043D02*
X244244874Y-95752424D01*
X244244874Y-95752424D02*
X244285351Y-95704804D01*
X244285351Y-95704804D02*
X244325827Y-95609566D01*
X244325827Y-95609566D02*
X244325827Y-95323852D01*
X244325827Y-95323852D02*
X244285351Y-95228614D01*
X244285351Y-95228614D02*
X244244874Y-95180995D01*
X244244874Y-95180995D02*
X244163922Y-95133376D01*
X244163922Y-95133376D02*
X244042493Y-95133376D01*
X244042493Y-95133376D02*
X243961541Y-95180995D01*
X243961541Y-95180995D02*
X243921065Y-95228614D01*
X243921065Y-95228614D02*
X243880589Y-95323852D01*
X243880589Y-95323852D02*
X243880589Y-95609566D01*
X243880589Y-95609566D02*
X243921065Y-95704804D01*
X243921065Y-95704804D02*
X243961541Y-95752424D01*
X243961541Y-95752424D02*
X244042493Y-95800043D01*
X244042493Y-95800043D02*
X244163922Y-95800043D01*
X243516303Y-95133376D02*
X243516303Y-95800043D01*
X243516303Y-95228614D02*
X243475826Y-95180995D01*
X243475826Y-95180995D02*
X243394874Y-95133376D01*
X243394874Y-95133376D02*
X243273445Y-95133376D01*
X243273445Y-95133376D02*
X243192493Y-95180995D01*
X243192493Y-95180995D02*
X243152017Y-95276233D01*
X243152017Y-95276233D02*
X243152017Y-95800043D01*
X242221064Y-95133376D02*
X241897255Y-95133376D01*
X242099636Y-94800043D02*
X242099636Y-95657185D01*
X242099636Y-95657185D02*
X242059159Y-95752424D01*
X242059159Y-95752424D02*
X241978207Y-95800043D01*
X241978207Y-95800043D02*
X241897255Y-95800043D01*
X241613922Y-95800043D02*
X241613922Y-94800043D01*
X241249636Y-95800043D02*
X241249636Y-95276233D01*
X241249636Y-95276233D02*
X241290112Y-95180995D01*
X241290112Y-95180995D02*
X241371064Y-95133376D01*
X241371064Y-95133376D02*
X241492493Y-95133376D01*
X241492493Y-95133376D02*
X241573445Y-95180995D01*
X241573445Y-95180995D02*
X241613922Y-95228614D01*
X240521064Y-95752424D02*
X240602016Y-95800043D01*
X240602016Y-95800043D02*
X240763921Y-95800043D01*
X240763921Y-95800043D02*
X240844874Y-95752424D01*
X240844874Y-95752424D02*
X240885350Y-95657185D01*
X240885350Y-95657185D02*
X240885350Y-95276233D01*
X240885350Y-95276233D02*
X240844874Y-95180995D01*
X240844874Y-95180995D02*
X240763921Y-95133376D01*
X240763921Y-95133376D02*
X240602016Y-95133376D01*
X240602016Y-95133376D02*
X240521064Y-95180995D01*
X240521064Y-95180995D02*
X240480588Y-95276233D01*
X240480588Y-95276233D02*
X240480588Y-95371471D01*
X240480588Y-95371471D02*
X240885350Y-95466709D01*
X247240113Y-97409987D02*
X247240113Y-96743320D01*
X247240113Y-96409987D02*
X247280589Y-96457606D01*
X247280589Y-96457606D02*
X247240113Y-96505225D01*
X247240113Y-96505225D02*
X247199636Y-96457606D01*
X247199636Y-96457606D02*
X247240113Y-96409987D01*
X247240113Y-96409987D02*
X247240113Y-96505225D01*
X246835351Y-96743320D02*
X246835351Y-97409987D01*
X246835351Y-96838558D02*
X246794874Y-96790939D01*
X246794874Y-96790939D02*
X246713922Y-96743320D01*
X246713922Y-96743320D02*
X246592493Y-96743320D01*
X246592493Y-96743320D02*
X246511541Y-96790939D01*
X246511541Y-96790939D02*
X246471065Y-96886177D01*
X246471065Y-96886177D02*
X246471065Y-97409987D01*
X246106779Y-97362368D02*
X246025826Y-97409987D01*
X246025826Y-97409987D02*
X245863922Y-97409987D01*
X245863922Y-97409987D02*
X245782969Y-97362368D01*
X245782969Y-97362368D02*
X245742493Y-97267129D01*
X245742493Y-97267129D02*
X245742493Y-97219510D01*
X245742493Y-97219510D02*
X245782969Y-97124272D01*
X245782969Y-97124272D02*
X245863922Y-97076653D01*
X245863922Y-97076653D02*
X245985350Y-97076653D01*
X245985350Y-97076653D02*
X246066303Y-97029034D01*
X246066303Y-97029034D02*
X246106779Y-96933796D01*
X246106779Y-96933796D02*
X246106779Y-96886177D01*
X246106779Y-96886177D02*
X246066303Y-96790939D01*
X246066303Y-96790939D02*
X245985350Y-96743320D01*
X245985350Y-96743320D02*
X245863922Y-96743320D01*
X245863922Y-96743320D02*
X245782969Y-96790939D01*
X245378208Y-96743320D02*
X245378208Y-97743320D01*
X245378208Y-96790939D02*
X245297255Y-96743320D01*
X245297255Y-96743320D02*
X245135350Y-96743320D01*
X245135350Y-96743320D02*
X245054398Y-96790939D01*
X245054398Y-96790939D02*
X245013922Y-96838558D01*
X245013922Y-96838558D02*
X244973446Y-96933796D01*
X244973446Y-96933796D02*
X244973446Y-97219510D01*
X244973446Y-97219510D02*
X245013922Y-97314748D01*
X245013922Y-97314748D02*
X245054398Y-97362368D01*
X245054398Y-97362368D02*
X245135350Y-97409987D01*
X245135350Y-97409987D02*
X245297255Y-97409987D01*
X245297255Y-97409987D02*
X245378208Y-97362368D01*
X244609160Y-97409987D02*
X244609160Y-96743320D01*
X244609160Y-96409987D02*
X244649636Y-96457606D01*
X244649636Y-96457606D02*
X244609160Y-96505225D01*
X244609160Y-96505225D02*
X244568683Y-96457606D01*
X244568683Y-96457606D02*
X244609160Y-96409987D01*
X244609160Y-96409987D02*
X244609160Y-96505225D01*
X244204398Y-97409987D02*
X244204398Y-96743320D01*
X244204398Y-96933796D02*
X244163921Y-96838558D01*
X244163921Y-96838558D02*
X244123445Y-96790939D01*
X244123445Y-96790939D02*
X244042493Y-96743320D01*
X244042493Y-96743320D02*
X243961540Y-96743320D01*
X243354398Y-97362368D02*
X243435350Y-97409987D01*
X243435350Y-97409987D02*
X243597255Y-97409987D01*
X243597255Y-97409987D02*
X243678208Y-97362368D01*
X243678208Y-97362368D02*
X243718684Y-97267129D01*
X243718684Y-97267129D02*
X243718684Y-96886177D01*
X243718684Y-96886177D02*
X243678208Y-96790939D01*
X243678208Y-96790939D02*
X243597255Y-96743320D01*
X243597255Y-96743320D02*
X243435350Y-96743320D01*
X243435350Y-96743320D02*
X243354398Y-96790939D01*
X243354398Y-96790939D02*
X243313922Y-96886177D01*
X243313922Y-96886177D02*
X243313922Y-96981415D01*
X243313922Y-96981415D02*
X243718684Y-97076653D01*
X242585351Y-97409987D02*
X242585351Y-96409987D01*
X242585351Y-97362368D02*
X242666303Y-97409987D01*
X242666303Y-97409987D02*
X242828208Y-97409987D01*
X242828208Y-97409987D02*
X242909160Y-97362368D01*
X242909160Y-97362368D02*
X242949637Y-97314748D01*
X242949637Y-97314748D02*
X242990113Y-97219510D01*
X242990113Y-97219510D02*
X242990113Y-96933796D01*
X242990113Y-96933796D02*
X242949637Y-96838558D01*
X242949637Y-96838558D02*
X242909160Y-96790939D01*
X242909160Y-96790939D02*
X242828208Y-96743320D01*
X242828208Y-96743320D02*
X242666303Y-96743320D01*
X242666303Y-96743320D02*
X242585351Y-96790939D01*
X241532970Y-97409987D02*
X241532970Y-96409987D01*
X241532970Y-96790939D02*
X241452017Y-96743320D01*
X241452017Y-96743320D02*
X241290112Y-96743320D01*
X241290112Y-96743320D02*
X241209160Y-96790939D01*
X241209160Y-96790939D02*
X241168684Y-96838558D01*
X241168684Y-96838558D02*
X241128208Y-96933796D01*
X241128208Y-96933796D02*
X241128208Y-97219510D01*
X241128208Y-97219510D02*
X241168684Y-97314748D01*
X241168684Y-97314748D02*
X241209160Y-97362368D01*
X241209160Y-97362368D02*
X241290112Y-97409987D01*
X241290112Y-97409987D02*
X241452017Y-97409987D01*
X241452017Y-97409987D02*
X241532970Y-97362368D01*
X240844874Y-96743320D02*
X240642493Y-97409987D01*
X240440112Y-96743320D02*
X240642493Y-97409987D01*
X240642493Y-97409987D02*
X240723445Y-97648082D01*
X240723445Y-97648082D02*
X240763922Y-97695701D01*
X240763922Y-97695701D02*
X240844874Y-97743320D01*
X254444875Y-98972312D02*
X254323446Y-99019931D01*
X254323446Y-99019931D02*
X254121065Y-99019931D01*
X254121065Y-99019931D02*
X254040113Y-98972312D01*
X254040113Y-98972312D02*
X253999637Y-98924692D01*
X253999637Y-98924692D02*
X253959160Y-98829454D01*
X253959160Y-98829454D02*
X253959160Y-98734216D01*
X253959160Y-98734216D02*
X253999637Y-98638978D01*
X253999637Y-98638978D02*
X254040113Y-98591359D01*
X254040113Y-98591359D02*
X254121065Y-98543740D01*
X254121065Y-98543740D02*
X254282970Y-98496121D01*
X254282970Y-98496121D02*
X254363922Y-98448502D01*
X254363922Y-98448502D02*
X254404399Y-98400883D01*
X254404399Y-98400883D02*
X254444875Y-98305645D01*
X254444875Y-98305645D02*
X254444875Y-98210407D01*
X254444875Y-98210407D02*
X254404399Y-98115169D01*
X254404399Y-98115169D02*
X254363922Y-98067550D01*
X254363922Y-98067550D02*
X254282970Y-98019931D01*
X254282970Y-98019931D02*
X254080589Y-98019931D01*
X254080589Y-98019931D02*
X253959160Y-98067550D01*
X253594875Y-99019931D02*
X253594875Y-98019931D01*
X252704398Y-98924692D02*
X252744874Y-98972312D01*
X252744874Y-98972312D02*
X252866303Y-99019931D01*
X252866303Y-99019931D02*
X252947255Y-99019931D01*
X252947255Y-99019931D02*
X253068684Y-98972312D01*
X253068684Y-98972312D02*
X253149636Y-98877073D01*
X253149636Y-98877073D02*
X253190113Y-98781835D01*
X253190113Y-98781835D02*
X253230589Y-98591359D01*
X253230589Y-98591359D02*
X253230589Y-98448502D01*
X253230589Y-98448502D02*
X253190113Y-98258026D01*
X253190113Y-98258026D02*
X253149636Y-98162788D01*
X253149636Y-98162788D02*
X253068684Y-98067550D01*
X253068684Y-98067550D02*
X252947255Y-98019931D01*
X252947255Y-98019931D02*
X252866303Y-98019931D01*
X252866303Y-98019931D02*
X252744874Y-98067550D01*
X252744874Y-98067550D02*
X252704398Y-98115169D01*
X252340113Y-99019931D02*
X252340113Y-98019931D01*
X251854398Y-99019931D02*
X252218684Y-98448502D01*
X251854398Y-98019931D02*
X252340113Y-98591359D01*
X250882970Y-98972312D02*
X250802017Y-99019931D01*
X250802017Y-99019931D02*
X250640113Y-99019931D01*
X250640113Y-99019931D02*
X250559160Y-98972312D01*
X250559160Y-98972312D02*
X250518684Y-98877073D01*
X250518684Y-98877073D02*
X250518684Y-98829454D01*
X250518684Y-98829454D02*
X250559160Y-98734216D01*
X250559160Y-98734216D02*
X250640113Y-98686597D01*
X250640113Y-98686597D02*
X250761541Y-98686597D01*
X250761541Y-98686597D02*
X250842494Y-98638978D01*
X250842494Y-98638978D02*
X250882970Y-98543740D01*
X250882970Y-98543740D02*
X250882970Y-98496121D01*
X250882970Y-98496121D02*
X250842494Y-98400883D01*
X250842494Y-98400883D02*
X250761541Y-98353264D01*
X250761541Y-98353264D02*
X250640113Y-98353264D01*
X250640113Y-98353264D02*
X250559160Y-98400883D01*
X250154399Y-98353264D02*
X250154399Y-99353264D01*
X250154399Y-98400883D02*
X250073446Y-98353264D01*
X250073446Y-98353264D02*
X249911541Y-98353264D01*
X249911541Y-98353264D02*
X249830589Y-98400883D01*
X249830589Y-98400883D02*
X249790113Y-98448502D01*
X249790113Y-98448502D02*
X249749637Y-98543740D01*
X249749637Y-98543740D02*
X249749637Y-98829454D01*
X249749637Y-98829454D02*
X249790113Y-98924692D01*
X249790113Y-98924692D02*
X249830589Y-98972312D01*
X249830589Y-98972312D02*
X249911541Y-99019931D01*
X249911541Y-99019931D02*
X250073446Y-99019931D01*
X250073446Y-99019931D02*
X250154399Y-98972312D01*
X249385351Y-99019931D02*
X249385351Y-98353264D01*
X249385351Y-98019931D02*
X249425827Y-98067550D01*
X249425827Y-98067550D02*
X249385351Y-98115169D01*
X249385351Y-98115169D02*
X249344874Y-98067550D01*
X249344874Y-98067550D02*
X249385351Y-98019931D01*
X249385351Y-98019931D02*
X249385351Y-98115169D01*
X248616303Y-99019931D02*
X248616303Y-98019931D01*
X248616303Y-98972312D02*
X248697255Y-99019931D01*
X248697255Y-99019931D02*
X248859160Y-99019931D01*
X248859160Y-99019931D02*
X248940112Y-98972312D01*
X248940112Y-98972312D02*
X248980589Y-98924692D01*
X248980589Y-98924692D02*
X249021065Y-98829454D01*
X249021065Y-98829454D02*
X249021065Y-98543740D01*
X249021065Y-98543740D02*
X248980589Y-98448502D01*
X248980589Y-98448502D02*
X248940112Y-98400883D01*
X248940112Y-98400883D02*
X248859160Y-98353264D01*
X248859160Y-98353264D02*
X248697255Y-98353264D01*
X248697255Y-98353264D02*
X248616303Y-98400883D01*
X247887731Y-98972312D02*
X247968683Y-99019931D01*
X247968683Y-99019931D02*
X248130588Y-99019931D01*
X248130588Y-99019931D02*
X248211541Y-98972312D01*
X248211541Y-98972312D02*
X248252017Y-98877073D01*
X248252017Y-98877073D02*
X248252017Y-98496121D01*
X248252017Y-98496121D02*
X248211541Y-98400883D01*
X248211541Y-98400883D02*
X248130588Y-98353264D01*
X248130588Y-98353264D02*
X247968683Y-98353264D01*
X247968683Y-98353264D02*
X247887731Y-98400883D01*
X247887731Y-98400883D02*
X247847255Y-98496121D01*
X247847255Y-98496121D02*
X247847255Y-98591359D01*
X247847255Y-98591359D02*
X248252017Y-98686597D01*
X247482970Y-99019931D02*
X247482970Y-98353264D01*
X247482970Y-98543740D02*
X247442493Y-98448502D01*
X247442493Y-98448502D02*
X247402017Y-98400883D01*
X247402017Y-98400883D02*
X247321065Y-98353264D01*
X247321065Y-98353264D02*
X247240112Y-98353264D01*
X245944875Y-99019931D02*
X245944875Y-98019931D01*
X245944875Y-98972312D02*
X246025827Y-99019931D01*
X246025827Y-99019931D02*
X246187732Y-99019931D01*
X246187732Y-99019931D02*
X246268684Y-98972312D01*
X246268684Y-98972312D02*
X246309161Y-98924692D01*
X246309161Y-98924692D02*
X246349637Y-98829454D01*
X246349637Y-98829454D02*
X246349637Y-98543740D01*
X246349637Y-98543740D02*
X246309161Y-98448502D01*
X246309161Y-98448502D02*
X246268684Y-98400883D01*
X246268684Y-98400883D02*
X246187732Y-98353264D01*
X246187732Y-98353264D02*
X246025827Y-98353264D01*
X246025827Y-98353264D02*
X245944875Y-98400883D01*
X245216303Y-98972312D02*
X245297255Y-99019931D01*
X245297255Y-99019931D02*
X245459160Y-99019931D01*
X245459160Y-99019931D02*
X245540113Y-98972312D01*
X245540113Y-98972312D02*
X245580589Y-98877073D01*
X245580589Y-98877073D02*
X245580589Y-98496121D01*
X245580589Y-98496121D02*
X245540113Y-98400883D01*
X245540113Y-98400883D02*
X245459160Y-98353264D01*
X245459160Y-98353264D02*
X245297255Y-98353264D01*
X245297255Y-98353264D02*
X245216303Y-98400883D01*
X245216303Y-98400883D02*
X245175827Y-98496121D01*
X245175827Y-98496121D02*
X245175827Y-98591359D01*
X245175827Y-98591359D02*
X245580589Y-98686597D01*
X244852018Y-98972312D02*
X244771065Y-99019931D01*
X244771065Y-99019931D02*
X244609161Y-99019931D01*
X244609161Y-99019931D02*
X244528208Y-98972312D01*
X244528208Y-98972312D02*
X244487732Y-98877073D01*
X244487732Y-98877073D02*
X244487732Y-98829454D01*
X244487732Y-98829454D02*
X244528208Y-98734216D01*
X244528208Y-98734216D02*
X244609161Y-98686597D01*
X244609161Y-98686597D02*
X244730589Y-98686597D01*
X244730589Y-98686597D02*
X244811542Y-98638978D01*
X244811542Y-98638978D02*
X244852018Y-98543740D01*
X244852018Y-98543740D02*
X244852018Y-98496121D01*
X244852018Y-98496121D02*
X244811542Y-98400883D01*
X244811542Y-98400883D02*
X244730589Y-98353264D01*
X244730589Y-98353264D02*
X244609161Y-98353264D01*
X244609161Y-98353264D02*
X244528208Y-98400883D01*
X244123447Y-99019931D02*
X244123447Y-98353264D01*
X244123447Y-98019931D02*
X244163923Y-98067550D01*
X244163923Y-98067550D02*
X244123447Y-98115169D01*
X244123447Y-98115169D02*
X244082970Y-98067550D01*
X244082970Y-98067550D02*
X244123447Y-98019931D01*
X244123447Y-98019931D02*
X244123447Y-98115169D01*
X243354399Y-98353264D02*
X243354399Y-99162788D01*
X243354399Y-99162788D02*
X243394875Y-99258026D01*
X243394875Y-99258026D02*
X243435351Y-99305645D01*
X243435351Y-99305645D02*
X243516304Y-99353264D01*
X243516304Y-99353264D02*
X243637732Y-99353264D01*
X243637732Y-99353264D02*
X243718685Y-99305645D01*
X243354399Y-98972312D02*
X243435351Y-99019931D01*
X243435351Y-99019931D02*
X243597256Y-99019931D01*
X243597256Y-99019931D02*
X243678208Y-98972312D01*
X243678208Y-98972312D02*
X243718685Y-98924692D01*
X243718685Y-98924692D02*
X243759161Y-98829454D01*
X243759161Y-98829454D02*
X243759161Y-98543740D01*
X243759161Y-98543740D02*
X243718685Y-98448502D01*
X243718685Y-98448502D02*
X243678208Y-98400883D01*
X243678208Y-98400883D02*
X243597256Y-98353264D01*
X243597256Y-98353264D02*
X243435351Y-98353264D01*
X243435351Y-98353264D02*
X243354399Y-98400883D01*
X242949637Y-98353264D02*
X242949637Y-99019931D01*
X242949637Y-98448502D02*
X242909160Y-98400883D01*
X242909160Y-98400883D02*
X242828208Y-98353264D01*
X242828208Y-98353264D02*
X242706779Y-98353264D01*
X242706779Y-98353264D02*
X242625827Y-98400883D01*
X242625827Y-98400883D02*
X242585351Y-98496121D01*
X242585351Y-98496121D02*
X242585351Y-99019931D01*
X241532970Y-99019931D02*
X241532970Y-98019931D01*
X241532970Y-98400883D02*
X241452017Y-98353264D01*
X241452017Y-98353264D02*
X241290112Y-98353264D01*
X241290112Y-98353264D02*
X241209160Y-98400883D01*
X241209160Y-98400883D02*
X241168684Y-98448502D01*
X241168684Y-98448502D02*
X241128208Y-98543740D01*
X241128208Y-98543740D02*
X241128208Y-98829454D01*
X241128208Y-98829454D02*
X241168684Y-98924692D01*
X241168684Y-98924692D02*
X241209160Y-98972312D01*
X241209160Y-98972312D02*
X241290112Y-99019931D01*
X241290112Y-99019931D02*
X241452017Y-99019931D01*
X241452017Y-99019931D02*
X241532970Y-98972312D01*
X240844874Y-98353264D02*
X240642493Y-99019931D01*
X240440112Y-98353264D02*
X240642493Y-99019931D01*
X240642493Y-99019931D02*
X240723445Y-99258026D01*
X240723445Y-99258026D02*
X240763922Y-99305645D01*
X240763922Y-99305645D02*
X240844874Y-99353264D01*
X251935350Y-99963208D02*
X251773445Y-100629875D01*
X251773445Y-100629875D02*
X251611540Y-100153684D01*
X251611540Y-100153684D02*
X251449636Y-100629875D01*
X251449636Y-100629875D02*
X251287731Y-99963208D01*
X250963922Y-100629875D02*
X250963922Y-99963208D01*
X250963922Y-99629875D02*
X251004398Y-99677494D01*
X251004398Y-99677494D02*
X250963922Y-99725113D01*
X250963922Y-99725113D02*
X250923445Y-99677494D01*
X250923445Y-99677494D02*
X250963922Y-99629875D01*
X250963922Y-99629875D02*
X250963922Y-99725113D01*
X250680588Y-99963208D02*
X250356779Y-99963208D01*
X250559160Y-99629875D02*
X250559160Y-100487017D01*
X250559160Y-100487017D02*
X250518683Y-100582256D01*
X250518683Y-100582256D02*
X250437731Y-100629875D01*
X250437731Y-100629875D02*
X250356779Y-100629875D01*
X250073446Y-100629875D02*
X250073446Y-99629875D01*
X249709160Y-100629875D02*
X249709160Y-100106065D01*
X249709160Y-100106065D02*
X249749636Y-100010827D01*
X249749636Y-100010827D02*
X249830588Y-99963208D01*
X249830588Y-99963208D02*
X249952017Y-99963208D01*
X249952017Y-99963208D02*
X250032969Y-100010827D01*
X250032969Y-100010827D02*
X250073446Y-100058446D01*
X248292493Y-99963208D02*
X248292493Y-100772732D01*
X248292493Y-100772732D02*
X248332969Y-100867970D01*
X248332969Y-100867970D02*
X248373445Y-100915589D01*
X248373445Y-100915589D02*
X248454398Y-100963208D01*
X248454398Y-100963208D02*
X248575826Y-100963208D01*
X248575826Y-100963208D02*
X248656779Y-100915589D01*
X248292493Y-100582256D02*
X248373445Y-100629875D01*
X248373445Y-100629875D02*
X248535350Y-100629875D01*
X248535350Y-100629875D02*
X248616302Y-100582256D01*
X248616302Y-100582256D02*
X248656779Y-100534636D01*
X248656779Y-100534636D02*
X248697255Y-100439398D01*
X248697255Y-100439398D02*
X248697255Y-100153684D01*
X248697255Y-100153684D02*
X248656779Y-100058446D01*
X248656779Y-100058446D02*
X248616302Y-100010827D01*
X248616302Y-100010827D02*
X248535350Y-99963208D01*
X248535350Y-99963208D02*
X248373445Y-99963208D01*
X248373445Y-99963208D02*
X248292493Y-100010827D01*
X247887731Y-100629875D02*
X247887731Y-99963208D01*
X247887731Y-100153684D02*
X247847254Y-100058446D01*
X247847254Y-100058446D02*
X247806778Y-100010827D01*
X247806778Y-100010827D02*
X247725826Y-99963208D01*
X247725826Y-99963208D02*
X247644873Y-99963208D01*
X247037731Y-100582256D02*
X247118683Y-100629875D01*
X247118683Y-100629875D02*
X247280588Y-100629875D01*
X247280588Y-100629875D02*
X247361541Y-100582256D01*
X247361541Y-100582256D02*
X247402017Y-100487017D01*
X247402017Y-100487017D02*
X247402017Y-100106065D01*
X247402017Y-100106065D02*
X247361541Y-100010827D01*
X247361541Y-100010827D02*
X247280588Y-99963208D01*
X247280588Y-99963208D02*
X247118683Y-99963208D01*
X247118683Y-99963208D02*
X247037731Y-100010827D01*
X247037731Y-100010827D02*
X246997255Y-100106065D01*
X246997255Y-100106065D02*
X246997255Y-100201303D01*
X246997255Y-100201303D02*
X247402017Y-100296541D01*
X246268684Y-100629875D02*
X246268684Y-100106065D01*
X246268684Y-100106065D02*
X246309160Y-100010827D01*
X246309160Y-100010827D02*
X246390112Y-99963208D01*
X246390112Y-99963208D02*
X246552017Y-99963208D01*
X246552017Y-99963208D02*
X246632970Y-100010827D01*
X246268684Y-100582256D02*
X246349636Y-100629875D01*
X246349636Y-100629875D02*
X246552017Y-100629875D01*
X246552017Y-100629875D02*
X246632970Y-100582256D01*
X246632970Y-100582256D02*
X246673446Y-100487017D01*
X246673446Y-100487017D02*
X246673446Y-100391779D01*
X246673446Y-100391779D02*
X246632970Y-100296541D01*
X246632970Y-100296541D02*
X246552017Y-100248922D01*
X246552017Y-100248922D02*
X246349636Y-100248922D01*
X246349636Y-100248922D02*
X246268684Y-100201303D01*
X245985350Y-99963208D02*
X245661541Y-99963208D01*
X245863922Y-99629875D02*
X245863922Y-100487017D01*
X245863922Y-100487017D02*
X245823445Y-100582256D01*
X245823445Y-100582256D02*
X245742493Y-100629875D01*
X245742493Y-100629875D02*
X245661541Y-100629875D01*
X244730589Y-100629875D02*
X244730589Y-99629875D01*
X244366303Y-100629875D02*
X244366303Y-100106065D01*
X244366303Y-100106065D02*
X244406779Y-100010827D01*
X244406779Y-100010827D02*
X244487731Y-99963208D01*
X244487731Y-99963208D02*
X244609160Y-99963208D01*
X244609160Y-99963208D02*
X244690112Y-100010827D01*
X244690112Y-100010827D02*
X244730589Y-100058446D01*
X243637731Y-100582256D02*
X243718683Y-100629875D01*
X243718683Y-100629875D02*
X243880588Y-100629875D01*
X243880588Y-100629875D02*
X243961541Y-100582256D01*
X243961541Y-100582256D02*
X244002017Y-100487017D01*
X244002017Y-100487017D02*
X244002017Y-100106065D01*
X244002017Y-100106065D02*
X243961541Y-100010827D01*
X243961541Y-100010827D02*
X243880588Y-99963208D01*
X243880588Y-99963208D02*
X243718683Y-99963208D01*
X243718683Y-99963208D02*
X243637731Y-100010827D01*
X243637731Y-100010827D02*
X243597255Y-100106065D01*
X243597255Y-100106065D02*
X243597255Y-100201303D01*
X243597255Y-100201303D02*
X244002017Y-100296541D01*
X243111541Y-100629875D02*
X243192493Y-100582256D01*
X243192493Y-100582256D02*
X243232970Y-100487017D01*
X243232970Y-100487017D02*
X243232970Y-99629875D01*
X242787732Y-99963208D02*
X242787732Y-100963208D01*
X242787732Y-100010827D02*
X242706779Y-99963208D01*
X242706779Y-99963208D02*
X242544874Y-99963208D01*
X242544874Y-99963208D02*
X242463922Y-100010827D01*
X242463922Y-100010827D02*
X242423446Y-100058446D01*
X242423446Y-100058446D02*
X242382970Y-100153684D01*
X242382970Y-100153684D02*
X242382970Y-100439398D01*
X242382970Y-100439398D02*
X242423446Y-100534636D01*
X242423446Y-100534636D02*
X242463922Y-100582256D01*
X242463922Y-100582256D02*
X242544874Y-100629875D01*
X242544874Y-100629875D02*
X242706779Y-100629875D01*
X242706779Y-100629875D02*
X242787732Y-100582256D01*
X241249636Y-100629875D02*
X241330588Y-100582256D01*
X241330588Y-100582256D02*
X241371065Y-100534636D01*
X241371065Y-100534636D02*
X241411541Y-100439398D01*
X241411541Y-100439398D02*
X241411541Y-100153684D01*
X241411541Y-100153684D02*
X241371065Y-100058446D01*
X241371065Y-100058446D02*
X241330588Y-100010827D01*
X241330588Y-100010827D02*
X241249636Y-99963208D01*
X241249636Y-99963208D02*
X241128207Y-99963208D01*
X241128207Y-99963208D02*
X241047255Y-100010827D01*
X241047255Y-100010827D02*
X241006779Y-100058446D01*
X241006779Y-100058446D02*
X240966303Y-100153684D01*
X240966303Y-100153684D02*
X240966303Y-100439398D01*
X240966303Y-100439398D02*
X241006779Y-100534636D01*
X241006779Y-100534636D02*
X241047255Y-100582256D01*
X241047255Y-100582256D02*
X241128207Y-100629875D01*
X241128207Y-100629875D02*
X241249636Y-100629875D01*
X240723445Y-99963208D02*
X240399636Y-99963208D01*
X240602017Y-100629875D02*
X240602017Y-99772732D01*
X240602017Y-99772732D02*
X240561540Y-99677494D01*
X240561540Y-99677494D02*
X240480588Y-99629875D01*
X240480588Y-99629875D02*
X240399636Y-99629875D01*
X242059161Y-102239819D02*
X242059161Y-101716009D01*
X242059161Y-101716009D02*
X242099637Y-101620771D01*
X242099637Y-101620771D02*
X242180589Y-101573152D01*
X242180589Y-101573152D02*
X242342494Y-101573152D01*
X242342494Y-101573152D02*
X242423447Y-101620771D01*
X242059161Y-102192200D02*
X242140113Y-102239819D01*
X242140113Y-102239819D02*
X242342494Y-102239819D01*
X242342494Y-102239819D02*
X242423447Y-102192200D01*
X242423447Y-102192200D02*
X242463923Y-102096961D01*
X242463923Y-102096961D02*
X242463923Y-102001723D01*
X242463923Y-102001723D02*
X242423447Y-101906485D01*
X242423447Y-101906485D02*
X242342494Y-101858866D01*
X242342494Y-101858866D02*
X242140113Y-101858866D01*
X242140113Y-101858866D02*
X242059161Y-101811247D01*
X241654399Y-101573152D02*
X241654399Y-102239819D01*
X241654399Y-101668390D02*
X241613922Y-101620771D01*
X241613922Y-101620771D02*
X241532970Y-101573152D01*
X241532970Y-101573152D02*
X241411541Y-101573152D01*
X241411541Y-101573152D02*
X241330589Y-101620771D01*
X241330589Y-101620771D02*
X241290113Y-101716009D01*
X241290113Y-101716009D02*
X241290113Y-102239819D01*
X240521065Y-102239819D02*
X240521065Y-101239819D01*
X240521065Y-102192200D02*
X240602017Y-102239819D01*
X240602017Y-102239819D02*
X240763922Y-102239819D01*
X240763922Y-102239819D02*
X240844874Y-102192200D01*
X240844874Y-102192200D02*
X240885351Y-102144580D01*
X240885351Y-102144580D02*
X240925827Y-102049342D01*
X240925827Y-102049342D02*
X240925827Y-101763628D01*
X240925827Y-101763628D02*
X240885351Y-101668390D01*
X240885351Y-101668390D02*
X240844874Y-101620771D01*
X240844874Y-101620771D02*
X240763922Y-101573152D01*
X240763922Y-101573152D02*
X240602017Y-101573152D01*
X240602017Y-101573152D02*
X240521065Y-101620771D01*
X227134399Y-98119819D02*
X227134399Y-97119819D01*
X227134399Y-97500771D02*
X227053446Y-97453152D01*
X227053446Y-97453152D02*
X226891541Y-97453152D01*
X226891541Y-97453152D02*
X226810589Y-97500771D01*
X226810589Y-97500771D02*
X226770113Y-97548390D01*
X226770113Y-97548390D02*
X226729637Y-97643628D01*
X226729637Y-97643628D02*
X226729637Y-97929342D01*
X226729637Y-97929342D02*
X226770113Y-98024580D01*
X226770113Y-98024580D02*
X226810589Y-98072200D01*
X226810589Y-98072200D02*
X226891541Y-98119819D01*
X226891541Y-98119819D02*
X227053446Y-98119819D01*
X227053446Y-98119819D02*
X227134399Y-98072200D01*
X226001065Y-97453152D02*
X226001065Y-98119819D01*
X226365351Y-97453152D02*
X226365351Y-97976961D01*
X226365351Y-97976961D02*
X226324874Y-98072200D01*
X226324874Y-98072200D02*
X226243922Y-98119819D01*
X226243922Y-98119819D02*
X226122493Y-98119819D01*
X226122493Y-98119819D02*
X226041541Y-98072200D01*
X226041541Y-98072200D02*
X226001065Y-98024580D01*
X225596303Y-98119819D02*
X225596303Y-97453152D01*
X225596303Y-97119819D02*
X225636779Y-97167438D01*
X225636779Y-97167438D02*
X225596303Y-97215057D01*
X225596303Y-97215057D02*
X225555826Y-97167438D01*
X225555826Y-97167438D02*
X225596303Y-97119819D01*
X225596303Y-97119819D02*
X225596303Y-97215057D01*
X225070112Y-98119819D02*
X225151064Y-98072200D01*
X225151064Y-98072200D02*
X225191541Y-97976961D01*
X225191541Y-97976961D02*
X225191541Y-97119819D01*
X224867731Y-97453152D02*
X224543922Y-97453152D01*
X224746303Y-97119819D02*
X224746303Y-97976961D01*
X224746303Y-97976961D02*
X224705826Y-98072200D01*
X224705826Y-98072200D02*
X224624874Y-98119819D01*
X224624874Y-98119819D02*
X224543922Y-98119819D01*
X223612970Y-98119819D02*
X223612970Y-97119819D01*
X223612970Y-97500771D02*
X223532017Y-97453152D01*
X223532017Y-97453152D02*
X223370112Y-97453152D01*
X223370112Y-97453152D02*
X223289160Y-97500771D01*
X223289160Y-97500771D02*
X223248684Y-97548390D01*
X223248684Y-97548390D02*
X223208208Y-97643628D01*
X223208208Y-97643628D02*
X223208208Y-97929342D01*
X223208208Y-97929342D02*
X223248684Y-98024580D01*
X223248684Y-98024580D02*
X223289160Y-98072200D01*
X223289160Y-98072200D02*
X223370112Y-98119819D01*
X223370112Y-98119819D02*
X223532017Y-98119819D01*
X223532017Y-98119819D02*
X223612970Y-98072200D01*
X222924874Y-97453152D02*
X222722493Y-98119819D01*
X222520112Y-97453152D02*
X222722493Y-98119819D01*
X222722493Y-98119819D02*
X222803445Y-98357914D01*
X222803445Y-98357914D02*
X222843922Y-98405533D01*
X222843922Y-98405533D02*
X222924874Y-98453152D01*
X166993333Y-64014819D02*
X166993333Y-64729104D01*
X166993333Y-64729104D02*
X167040952Y-64871961D01*
X167040952Y-64871961D02*
X167136190Y-64967200D01*
X167136190Y-64967200D02*
X167279047Y-65014819D01*
X167279047Y-65014819D02*
X167374285Y-65014819D01*
X166517142Y-65014819D02*
X166517142Y-64014819D01*
X166517142Y-64014819D02*
X166136190Y-64014819D01*
X166136190Y-64014819D02*
X166040952Y-64062438D01*
X166040952Y-64062438D02*
X165993333Y-64110057D01*
X165993333Y-64110057D02*
X165945714Y-64205295D01*
X165945714Y-64205295D02*
X165945714Y-64348152D01*
X165945714Y-64348152D02*
X165993333Y-64443390D01*
X165993333Y-64443390D02*
X166040952Y-64491009D01*
X166040952Y-64491009D02*
X166136190Y-64538628D01*
X166136190Y-64538628D02*
X166517142Y-64538628D01*
X165564761Y-64110057D02*
X165517142Y-64062438D01*
X165517142Y-64062438D02*
X165421904Y-64014819D01*
X165421904Y-64014819D02*
X165183809Y-64014819D01*
X165183809Y-64014819D02*
X165088571Y-64062438D01*
X165088571Y-64062438D02*
X165040952Y-64110057D01*
X165040952Y-64110057D02*
X164993333Y-64205295D01*
X164993333Y-64205295D02*
X164993333Y-64300533D01*
X164993333Y-64300533D02*
X165040952Y-64443390D01*
X165040952Y-64443390D02*
X165612380Y-65014819D01*
X165612380Y-65014819D02*
X164993333Y-65014819D01*
X163893332Y-65814819D02*
X163274285Y-65814819D01*
X163274285Y-65814819D02*
X163607618Y-66195771D01*
X163607618Y-66195771D02*
X163464761Y-66195771D01*
X163464761Y-66195771D02*
X163369523Y-66243390D01*
X163369523Y-66243390D02*
X163321904Y-66291009D01*
X163321904Y-66291009D02*
X163274285Y-66386247D01*
X163274285Y-66386247D02*
X163274285Y-66624342D01*
X163274285Y-66624342D02*
X163321904Y-66719580D01*
X163321904Y-66719580D02*
X163369523Y-66767200D01*
X163369523Y-66767200D02*
X163464761Y-66814819D01*
X163464761Y-66814819D02*
X163750475Y-66814819D01*
X163750475Y-66814819D02*
X163845713Y-66767200D01*
X163845713Y-66767200D02*
X163893332Y-66719580D01*
X168474285Y-66814819D02*
X169045713Y-66814819D01*
X168759999Y-66814819D02*
X168759999Y-65814819D01*
X168759999Y-65814819D02*
X168855237Y-65957676D01*
X168855237Y-65957676D02*
X168950475Y-66052914D01*
X168950475Y-66052914D02*
X169045713Y-66100533D01*
X201761904Y-82406819D02*
X201190476Y-82406819D01*
X201476190Y-83406819D02*
X201476190Y-82406819D01*
X200857142Y-83406819D02*
X200857142Y-82406819D01*
X200857142Y-82406819D02*
X200476190Y-82406819D01*
X200476190Y-82406819D02*
X200380952Y-82454438D01*
X200380952Y-82454438D02*
X200333333Y-82502057D01*
X200333333Y-82502057D02*
X200285714Y-82597295D01*
X200285714Y-82597295D02*
X200285714Y-82740152D01*
X200285714Y-82740152D02*
X200333333Y-82835390D01*
X200333333Y-82835390D02*
X200380952Y-82883009D01*
X200380952Y-82883009D02*
X200476190Y-82930628D01*
X200476190Y-82930628D02*
X200857142Y-82930628D01*
X199380952Y-82406819D02*
X199857142Y-82406819D01*
X199857142Y-82406819D02*
X199904761Y-82883009D01*
X199904761Y-82883009D02*
X199857142Y-82835390D01*
X199857142Y-82835390D02*
X199761904Y-82787771D01*
X199761904Y-82787771D02*
X199523809Y-82787771D01*
X199523809Y-82787771D02*
X199428571Y-82835390D01*
X199428571Y-82835390D02*
X199380952Y-82883009D01*
X199380952Y-82883009D02*
X199333333Y-82978247D01*
X199333333Y-82978247D02*
X199333333Y-83216342D01*
X199333333Y-83216342D02*
X199380952Y-83311580D01*
X199380952Y-83311580D02*
X199428571Y-83359200D01*
X199428571Y-83359200D02*
X199523809Y-83406819D01*
X199523809Y-83406819D02*
X199761904Y-83406819D01*
X199761904Y-83406819D02*
X199857142Y-83359200D01*
X199857142Y-83359200D02*
X199904761Y-83311580D01*
X192061904Y-82306819D02*
X191490476Y-82306819D01*
X191776190Y-83306819D02*
X191776190Y-82306819D01*
X191157142Y-83306819D02*
X191157142Y-82306819D01*
X191157142Y-82306819D02*
X190776190Y-82306819D01*
X190776190Y-82306819D02*
X190680952Y-82354438D01*
X190680952Y-82354438D02*
X190633333Y-82402057D01*
X190633333Y-82402057D02*
X190585714Y-82497295D01*
X190585714Y-82497295D02*
X190585714Y-82640152D01*
X190585714Y-82640152D02*
X190633333Y-82735390D01*
X190633333Y-82735390D02*
X190680952Y-82783009D01*
X190680952Y-82783009D02*
X190776190Y-82830628D01*
X190776190Y-82830628D02*
X191157142Y-82830628D01*
X189728571Y-82306819D02*
X189919047Y-82306819D01*
X189919047Y-82306819D02*
X190014285Y-82354438D01*
X190014285Y-82354438D02*
X190061904Y-82402057D01*
X190061904Y-82402057D02*
X190157142Y-82544914D01*
X190157142Y-82544914D02*
X190204761Y-82735390D01*
X190204761Y-82735390D02*
X190204761Y-83116342D01*
X190204761Y-83116342D02*
X190157142Y-83211580D01*
X190157142Y-83211580D02*
X190109523Y-83259200D01*
X190109523Y-83259200D02*
X190014285Y-83306819D01*
X190014285Y-83306819D02*
X189823809Y-83306819D01*
X189823809Y-83306819D02*
X189728571Y-83259200D01*
X189728571Y-83259200D02*
X189680952Y-83211580D01*
X189680952Y-83211580D02*
X189633333Y-83116342D01*
X189633333Y-83116342D02*
X189633333Y-82878247D01*
X189633333Y-82878247D02*
X189680952Y-82783009D01*
X189680952Y-82783009D02*
X189728571Y-82735390D01*
X189728571Y-82735390D02*
X189823809Y-82687771D01*
X189823809Y-82687771D02*
X190014285Y-82687771D01*
X190014285Y-82687771D02*
X190109523Y-82735390D01*
X190109523Y-82735390D02*
X190157142Y-82783009D01*
X190157142Y-82783009D02*
X190204761Y-82878247D01*
X219333333Y-65054819D02*
X219333333Y-65769104D01*
X219333333Y-65769104D02*
X219380952Y-65911961D01*
X219380952Y-65911961D02*
X219476190Y-66007200D01*
X219476190Y-66007200D02*
X219619047Y-66054819D01*
X219619047Y-66054819D02*
X219714285Y-66054819D01*
X218857142Y-66054819D02*
X218857142Y-65054819D01*
X218857142Y-65054819D02*
X218476190Y-65054819D01*
X218476190Y-65054819D02*
X218380952Y-65102438D01*
X218380952Y-65102438D02*
X218333333Y-65150057D01*
X218333333Y-65150057D02*
X218285714Y-65245295D01*
X218285714Y-65245295D02*
X218285714Y-65388152D01*
X218285714Y-65388152D02*
X218333333Y-65483390D01*
X218333333Y-65483390D02*
X218380952Y-65531009D01*
X218380952Y-65531009D02*
X218476190Y-65578628D01*
X218476190Y-65578628D02*
X218857142Y-65578628D01*
X217333333Y-66054819D02*
X217904761Y-66054819D01*
X217619047Y-66054819D02*
X217619047Y-65054819D01*
X217619047Y-65054819D02*
X217714285Y-65197676D01*
X217714285Y-65197676D02*
X217809523Y-65292914D01*
X217809523Y-65292914D02*
X217904761Y-65340533D01*
X220814285Y-67854819D02*
X221385713Y-67854819D01*
X221099999Y-67854819D02*
X221099999Y-66854819D01*
X221099999Y-66854819D02*
X221195237Y-66997676D01*
X221195237Y-66997676D02*
X221290475Y-67092914D01*
X221290475Y-67092914D02*
X221385713Y-67140533D01*
X216233332Y-66854819D02*
X215614285Y-66854819D01*
X215614285Y-66854819D02*
X215947618Y-67235771D01*
X215947618Y-67235771D02*
X215804761Y-67235771D01*
X215804761Y-67235771D02*
X215709523Y-67283390D01*
X215709523Y-67283390D02*
X215661904Y-67331009D01*
X215661904Y-67331009D02*
X215614285Y-67426247D01*
X215614285Y-67426247D02*
X215614285Y-67664342D01*
X215614285Y-67664342D02*
X215661904Y-67759580D01*
X215661904Y-67759580D02*
X215709523Y-67807200D01*
X215709523Y-67807200D02*
X215804761Y-67854819D01*
X215804761Y-67854819D02*
X216090475Y-67854819D01*
X216090475Y-67854819D02*
X216185713Y-67807200D01*
X216185713Y-67807200D02*
X216233332Y-67759580D01*
D13*
X164110000Y-66660000D02*
X164110000Y-66060000D01*
X164760000Y-65360000D02*
X167560000Y-65360000D01*
X167560000Y-67360000D02*
X164760000Y-67360000D01*
X168210000Y-66060000D02*
X168210000Y-66660000D01*
X164110000Y-66060000D02*
G75*
G02*
X164810000Y-65360000I700000J0D01*
G01*
X164810000Y-67360000D02*
G75*
G02*
X164110000Y-66660000I0J700000D01*
G01*
X167510000Y-65360000D02*
G75*
G02*
X168210000Y-66060000I1J-699999D01*
G01*
X168210000Y-66660000D02*
G75*
G02*
X167510000Y-67360000I-699999J-1D01*
G01*
X201200000Y-84400000D02*
G75*
G02*
X199800000Y-84400000I-700000J0D01*
G01*
X199800000Y-84400000D02*
G75*
G02*
X201200000Y-84400000I700000J0D01*
G01*
X191500000Y-84300000D02*
G75*
G02*
X190100000Y-84300000I-700000J0D01*
G01*
X190100000Y-84300000D02*
G75*
G02*
X191500000Y-84300000I700000J0D01*
G01*
X216450000Y-67700000D02*
X216450000Y-67100000D01*
X217100000Y-66400000D02*
X219900000Y-66400000D01*
X219900000Y-68400000D02*
X217100000Y-68400000D01*
X220550000Y-67100000D02*
X220550000Y-67700000D01*
X216450000Y-67100000D02*
G75*
G02*
X217150000Y-66400000I700000J0D01*
G01*
X217150000Y-68400000D02*
G75*
G02*
X216450000Y-67700000I0J700000D01*
G01*
X219850000Y-66400000D02*
G75*
G02*
X220550000Y-67100000I1J-699999D01*
G01*
X220550000Y-67700000D02*
G75*
G02*
X219850000Y-68400000I-699999J-1D01*
G01*
%LPC*%
D14*
X147799400Y-33323400D03*
X152879400Y-33323400D03*
G36*
G01*
X147399400Y-40143400D02*
X148199400Y-40143400D01*
G75*
G02*
X148599400Y-40543400I0J-400000D01*
G01*
X148599400Y-41343400D01*
G75*
G02*
X148199400Y-41743400I-400000J0D01*
G01*
X147399400Y-41743400D01*
G75*
G02*
X146999400Y-41343400I0J400000D01*
G01*
X146999400Y-40543400D01*
G75*
G02*
X147399400Y-40143400I400000J0D01*
G01*
G37*
X150339400Y-40943400D03*
X152879400Y-40943400D03*
X147799400Y-38403400D03*
X150339400Y-38403400D03*
X152879400Y-38403400D03*
X262920000Y-52200000D03*
D15*
X273080000Y-52200000D03*
D14*
X196750000Y-94500000D03*
X196750000Y-92000000D03*
X209700000Y-80700000D03*
X209700000Y-83200000D03*
X231625000Y-32125000D03*
X231625000Y-37125000D03*
X244875000Y-36200000D03*
D15*
X234715000Y-36200000D03*
D16*
X169250000Y-33375000D03*
X168400000Y-33375000D03*
X167550000Y-33375000D03*
X166700000Y-33375000D03*
X165850000Y-33375000D03*
X165000000Y-33375000D03*
X164150000Y-33375000D03*
X163300000Y-33375000D03*
X163300000Y-32025000D03*
X164150000Y-32025000D03*
X165000000Y-32025000D03*
X165850000Y-32025000D03*
X166700000Y-32025000D03*
X167550000Y-32025000D03*
X168400000Y-32025000D03*
X169250000Y-32025000D03*
D17*
X170600000Y-32395000D03*
D18*
X170600000Y-29015000D03*
D17*
X161950000Y-32395000D03*
D18*
X161950000Y-29015000D03*
D14*
X187750000Y-61850000D03*
D15*
X187750000Y-51690000D03*
D19*
X142950000Y-67000000D03*
D20*
X145240000Y-67000000D03*
X147530000Y-67000000D03*
D14*
X263120000Y-81300000D03*
D15*
X273280000Y-81300000D03*
D14*
X182250000Y-81230000D03*
X182250000Y-86230000D03*
X204750000Y-52350000D03*
X204750000Y-54850000D03*
X200150000Y-81500000D03*
X200150000Y-86500000D03*
X204750000Y-59750000D03*
X204750000Y-57250000D03*
D21*
X151200000Y-69750000D03*
D15*
X143580000Y-69750000D03*
D14*
X139700000Y-52959000D03*
D15*
X139700000Y-42799000D03*
D14*
X203000000Y-30995000D03*
D15*
X203000000Y-41155000D03*
D14*
X190975000Y-92075000D03*
X190975000Y-94575000D03*
X206050000Y-81700000D03*
X206050000Y-86700000D03*
D22*
X181300000Y-32750000D03*
D23*
X240078391Y-90526253D03*
D24*
X238349112Y-92100000D03*
X241849112Y-90600000D03*
D25*
X242328391Y-87226253D03*
D26*
X242649112Y-88100000D03*
D27*
X244078391Y-88126253D03*
D28*
X236578391Y-88126253D03*
D29*
X237549112Y-88100000D03*
X237828391Y-87226253D03*
D24*
X238349112Y-84100000D03*
X240078391Y-85826253D03*
D30*
X240078391Y-92626253D03*
D31*
X241849112Y-85600000D03*
D32*
X248019532Y-36102461D03*
X248722476Y-34405405D03*
X248722476Y-37799517D03*
X250419532Y-33702461D03*
D33*
X250419532Y-36102461D03*
D32*
X250419532Y-38502461D03*
X252116588Y-34405405D03*
X252116588Y-37799517D03*
X252819532Y-36102461D03*
D14*
X188500000Y-78850000D03*
X188500000Y-83850000D03*
X199500000Y-69750000D03*
X199500000Y-64750000D03*
X218050000Y-32945000D03*
D15*
X218050000Y-43105000D03*
D14*
X204700000Y-79150000D03*
X202200000Y-79150000D03*
X196550000Y-33200000D03*
X196550000Y-30200000D03*
X192150000Y-38200000D03*
X196550000Y-37200000D03*
X188210000Y-101360000D03*
D15*
X188210000Y-91200000D03*
D14*
X208450000Y-95800000D03*
X208450000Y-100800000D03*
X224500000Y-69800000D03*
D15*
X214340000Y-69800000D03*
D14*
X186250000Y-78800000D03*
X183750000Y-78800000D03*
X179900000Y-92900000D03*
X174900000Y-92900000D03*
X209100000Y-48430000D03*
X214100000Y-48430000D03*
X191620000Y-61810000D03*
D15*
X191620000Y-51650000D03*
D14*
X261200000Y-93230000D03*
D15*
X261200000Y-83070000D03*
D14*
X249645000Y-66950000D03*
D15*
X259805000Y-66950000D03*
D34*
X226300000Y-86450000D03*
D35*
X228430000Y-92800000D03*
X217000000Y-92800000D03*
D34*
X228430000Y-89650000D03*
X217000000Y-89650000D03*
X228430000Y-96000000D03*
X217000000Y-96000000D03*
X228430000Y-83300000D03*
X217000000Y-83300000D03*
D14*
X183900000Y-64150000D03*
D15*
X173740000Y-64150000D03*
D34*
X168800000Y-86450000D03*
D35*
X170930000Y-92800000D03*
X159500000Y-92800000D03*
D34*
X170930000Y-89650000D03*
X159500000Y-89650000D03*
X170930000Y-96000000D03*
X159500000Y-96000000D03*
X170930000Y-83300000D03*
X159500000Y-83300000D03*
D14*
X148300000Y-82450000D03*
D15*
X148300000Y-72290000D03*
D14*
X249745000Y-81400000D03*
D15*
X259905000Y-81400000D03*
D14*
X199500000Y-101400000D03*
D15*
X199500000Y-91240000D03*
D14*
X249220000Y-52150000D03*
D15*
X259380000Y-52150000D03*
D14*
X201600000Y-61700000D03*
D15*
X201600000Y-51540000D03*
D14*
X187300000Y-88750000D03*
X189800000Y-88750000D03*
X234675000Y-32825000D03*
D15*
X244835000Y-32825000D03*
D14*
X236195000Y-66725000D03*
D15*
X246355000Y-66725000D03*
D21*
X158750000Y-42700000D03*
D14*
X156250000Y-42700000D03*
X197100000Y-75400000D03*
X192100000Y-75400000D03*
X142500000Y-72170000D03*
D15*
X142500000Y-82330000D03*
D14*
X247100000Y-82250000D03*
D15*
X247100000Y-92410000D03*
D23*
X240079279Y-61459586D03*
D24*
X238350000Y-63033333D03*
X241850000Y-61533333D03*
D25*
X242329279Y-58159586D03*
D26*
X242650000Y-59033333D03*
D27*
X244079279Y-59059586D03*
D28*
X236579279Y-59059586D03*
D29*
X237550000Y-59033333D03*
X237829279Y-58159586D03*
D24*
X238350000Y-55033333D03*
X240079279Y-56759586D03*
D30*
X240079279Y-63559586D03*
D31*
X241850000Y-56533333D03*
D36*
X144800000Y-86600000D03*
D23*
X142260000Y-86600000D03*
X139720000Y-86600000D03*
D37*
X175400000Y-80100000D03*
D38*
X175400000Y-75020000D03*
D14*
X181600000Y-96100000D03*
X181600000Y-101100000D03*
X222545000Y-44100000D03*
D15*
X232705000Y-44100000D03*
D23*
X240079279Y-75992919D03*
D24*
X238350000Y-77566666D03*
X241850000Y-76066666D03*
D25*
X242329279Y-72692919D03*
D26*
X242650000Y-73566666D03*
D27*
X244079279Y-73592919D03*
D28*
X236579279Y-73592919D03*
D29*
X237550000Y-73566666D03*
X237829279Y-72692919D03*
D24*
X238350000Y-69566666D03*
X240079279Y-71292919D03*
D30*
X240079279Y-78092919D03*
D31*
X241850000Y-71066666D03*
D23*
X177153344Y-59294502D03*
D24*
X175424065Y-60868249D03*
X178924065Y-59368249D03*
D25*
X179403344Y-55994502D03*
D26*
X179724065Y-56868249D03*
D27*
X181153344Y-56894502D03*
D28*
X173653344Y-56894502D03*
D29*
X174624065Y-56868249D03*
X174903344Y-55994502D03*
D24*
X175424065Y-52868249D03*
X177153344Y-54594502D03*
D30*
X177153344Y-61394502D03*
D31*
X178924065Y-54368249D03*
D32*
X228260142Y-71088261D03*
X228963086Y-69391205D03*
X228963086Y-72785317D03*
X230660142Y-68688261D03*
D33*
X230660142Y-71088261D03*
D32*
X230660142Y-73488261D03*
X232357198Y-69391205D03*
X232357198Y-72785317D03*
X233060142Y-71088261D03*
D14*
X143002000Y-52959000D03*
D15*
X143002000Y-42799000D03*
D23*
X268079279Y-47026253D03*
D24*
X266350000Y-48600000D03*
X269850000Y-47100000D03*
D25*
X270329279Y-43726253D03*
D26*
X270650000Y-44600000D03*
D27*
X272079279Y-44626253D03*
D28*
X264579279Y-44626253D03*
D29*
X265550000Y-44600000D03*
X265829279Y-43726253D03*
D24*
X266350000Y-40600000D03*
X268079279Y-42326253D03*
D30*
X268079279Y-49126253D03*
D31*
X269850000Y-42100000D03*
D14*
X184550000Y-56500000D03*
X184550000Y-54000000D03*
D36*
X184221000Y-32750000D03*
D39*
X159200000Y-56900000D03*
X168000000Y-56900000D03*
D40*
X166100000Y-63900000D03*
X163600000Y-63900000D03*
X161100000Y-63900000D03*
D14*
X189500000Y-69000000D03*
X189500000Y-64000000D03*
D36*
X186761000Y-32750000D03*
D14*
X203393829Y-89000000D03*
X205893829Y-89000000D03*
D36*
X189301000Y-32750000D03*
D14*
X171450000Y-39350000D03*
D15*
X161290000Y-39350000D03*
D36*
X144840000Y-91500000D03*
D23*
X142300000Y-91500000D03*
X139760000Y-91500000D03*
D14*
X151400000Y-72300000D03*
D15*
X151400000Y-82460000D03*
D14*
X185080000Y-101350000D03*
D15*
X185080000Y-91190000D03*
D23*
X268079279Y-76026253D03*
D24*
X266350000Y-77600000D03*
X269850000Y-76100000D03*
D25*
X270329279Y-72726253D03*
D26*
X270650000Y-73600000D03*
D27*
X272079279Y-73626253D03*
D28*
X264579279Y-73626253D03*
D29*
X265550000Y-73600000D03*
X265829279Y-72726253D03*
D24*
X266350000Y-69600000D03*
X268079279Y-71326253D03*
D30*
X268079279Y-78126253D03*
D31*
X269850000Y-71100000D03*
D41*
X139560000Y-66610000D03*
D42*
X139560000Y-69150000D03*
D32*
X255630000Y-99560000D03*
X256332944Y-97862944D03*
X256332944Y-101257056D03*
X258030000Y-97160000D03*
D33*
X258030000Y-99560000D03*
D32*
X258030000Y-101960000D03*
X259727056Y-97862944D03*
X259727056Y-101257056D03*
X260430000Y-99560000D03*
D14*
X236270000Y-52150000D03*
D15*
X246430000Y-52150000D03*
D14*
X214990000Y-31800000D03*
D15*
X214990000Y-41960000D03*
D14*
X211550000Y-33200000D03*
X211550000Y-30200000D03*
X207150000Y-38200000D03*
X211550000Y-37200000D03*
X190600000Y-86200000D03*
X188100000Y-86200000D03*
X175500000Y-40800000D03*
X175500000Y-35800000D03*
D23*
X268079279Y-61526253D03*
D24*
X266350000Y-63100000D03*
X269850000Y-61600000D03*
D25*
X270329279Y-58226253D03*
D26*
X270650000Y-59100000D03*
D27*
X272079279Y-59126253D03*
D28*
X264579279Y-59126253D03*
D29*
X265550000Y-59100000D03*
X265829279Y-58226253D03*
D24*
X266350000Y-55100000D03*
X268079279Y-56826253D03*
D30*
X268079279Y-63626253D03*
D31*
X269850000Y-56600000D03*
D14*
X177750000Y-79925000D03*
X177750000Y-82425000D03*
D23*
X240079279Y-46926253D03*
D24*
X238350000Y-48500000D03*
X241850000Y-47000000D03*
D25*
X242329279Y-43626253D03*
D26*
X242650000Y-44500000D03*
D27*
X244079279Y-44526253D03*
D28*
X236579279Y-44526253D03*
D29*
X237550000Y-44500000D03*
X237829279Y-43626253D03*
D24*
X238350000Y-40500000D03*
X240079279Y-42226253D03*
D30*
X240079279Y-49026253D03*
D31*
X241850000Y-42000000D03*
D21*
X221450000Y-33375000D03*
D15*
X221450000Y-35915000D03*
X221450000Y-38455000D03*
X221450000Y-40995000D03*
X229070000Y-40995000D03*
X229070000Y-38455000D03*
X229070000Y-35915000D03*
X229070000Y-33375000D03*
D14*
X206050000Y-74800000D03*
X208550000Y-74800000D03*
X263120000Y-66750000D03*
D15*
X273280000Y-66750000D03*
D14*
X233260000Y-92180000D03*
D15*
X233260000Y-82020000D03*
D14*
X192600000Y-44050000D03*
D15*
X202760000Y-44050000D03*
D23*
X254079279Y-61526253D03*
D24*
X252350000Y-63100000D03*
X255850000Y-61600000D03*
D25*
X256329279Y-58226253D03*
D26*
X256650000Y-59100000D03*
D27*
X258079279Y-59126253D03*
D28*
X250579279Y-59126253D03*
D29*
X251550000Y-59100000D03*
X251829279Y-58226253D03*
D24*
X252350000Y-55100000D03*
X254079279Y-56826253D03*
D30*
X254079279Y-63626253D03*
D31*
X255850000Y-56600000D03*
D14*
X208500000Y-88300000D03*
X208500000Y-85800000D03*
D23*
X254079279Y-76026253D03*
D24*
X252350000Y-77600000D03*
X255850000Y-76100000D03*
D25*
X256329279Y-72726253D03*
D26*
X256650000Y-73600000D03*
D27*
X258079279Y-73626253D03*
D28*
X250579279Y-73626253D03*
D29*
X251550000Y-73600000D03*
X251829279Y-72726253D03*
D24*
X252350000Y-69600000D03*
X254079279Y-71326253D03*
D30*
X254079279Y-78126253D03*
D31*
X255850000Y-71100000D03*
D23*
X254079279Y-47026253D03*
D24*
X252350000Y-48600000D03*
X255850000Y-47100000D03*
D25*
X256329279Y-43726253D03*
D26*
X256650000Y-44600000D03*
D27*
X258079279Y-44626253D03*
D28*
X250579279Y-44626253D03*
D29*
X251550000Y-44600000D03*
X251829279Y-43726253D03*
D24*
X252350000Y-40600000D03*
X254079279Y-42326253D03*
D30*
X254079279Y-49126253D03*
D31*
X255850000Y-42100000D03*
D14*
X202500000Y-101500000D03*
D15*
X202500000Y-91340000D03*
D14*
X184550000Y-58650000D03*
X184550000Y-61150000D03*
X211200000Y-67050000D03*
X211200000Y-72050000D03*
D23*
X150144477Y-59295965D03*
D24*
X148415198Y-60869712D03*
X151915198Y-59369712D03*
D25*
X152394477Y-55995965D03*
D26*
X152715198Y-56869712D03*
D27*
X154144477Y-56895965D03*
D28*
X146644477Y-56895965D03*
D29*
X147615198Y-56869712D03*
X147894477Y-55995965D03*
D24*
X148415198Y-52869712D03*
X150144477Y-54595965D03*
D30*
X150144477Y-61395965D03*
D31*
X151915198Y-54369712D03*
D43*
X194056000Y-100584000D03*
D23*
X254078391Y-90526253D03*
D24*
X252349112Y-92100000D03*
X255849112Y-90600000D03*
D25*
X256328391Y-87226253D03*
D26*
X256649112Y-88100000D03*
D27*
X258078391Y-88126253D03*
D28*
X250578391Y-88126253D03*
D29*
X251549112Y-88100000D03*
X251828391Y-87226253D03*
D24*
X252349112Y-84100000D03*
X254078391Y-85826253D03*
D30*
X254078391Y-92626253D03*
D31*
X255849112Y-85600000D03*
D23*
X268079279Y-90526253D03*
D24*
X266350000Y-92100000D03*
X269850000Y-90600000D03*
D25*
X270329279Y-87226253D03*
D26*
X270650000Y-88100000D03*
D27*
X272079279Y-88126253D03*
D28*
X264579279Y-88126253D03*
D29*
X265550000Y-88100000D03*
X265829279Y-87226253D03*
D24*
X266350000Y-84100000D03*
X268079279Y-85826253D03*
D30*
X268079279Y-92626253D03*
D31*
X269850000Y-85600000D03*
D14*
X179000000Y-96100000D03*
X179000000Y-101100000D03*
X154500000Y-82450000D03*
D15*
X154500000Y-72290000D03*
D14*
X193142656Y-85661097D03*
D15*
X193142656Y-78041097D03*
D14*
X196150000Y-85650000D03*
D15*
X196150000Y-78030000D03*
D14*
X182500000Y-88600000D03*
X185000000Y-88600000D03*
D44*
X148875000Y-88725000D03*
D40*
X151415000Y-88725000D03*
D14*
X199800000Y-31015000D03*
D15*
X199800000Y-41175000D03*
D14*
X232750000Y-47100000D03*
D15*
X222590000Y-47100000D03*
D14*
X198750000Y-88750000D03*
X201250000Y-88750000D03*
X205900000Y-95700000D03*
X205900000Y-100700000D03*
D39*
X216650000Y-56800000D03*
X225450000Y-56800000D03*
D40*
X223550000Y-63800000D03*
X221050000Y-63800000D03*
X218550000Y-63800000D03*
D14*
X197735200Y-61700000D03*
D15*
X197735200Y-51540000D03*
D14*
X169350000Y-69040000D03*
D15*
X159190000Y-69040000D03*
D37*
X212500000Y-82100000D03*
D38*
X212500000Y-77020000D03*
D14*
X245080000Y-81225000D03*
D15*
X234920000Y-81225000D03*
D44*
X152742934Y-98294059D03*
D40*
X150202934Y-98294059D03*
X147662934Y-98294059D03*
D32*
X139840000Y-97590000D03*
X140542944Y-95892944D03*
X140542944Y-99287056D03*
X142240000Y-95190000D03*
D33*
X142240000Y-97590000D03*
D32*
X142240000Y-99990000D03*
X143937056Y-95892944D03*
X143937056Y-99287056D03*
X144640000Y-97590000D03*
D14*
X205175000Y-44750000D03*
D15*
X215335000Y-44750000D03*
D14*
X139350000Y-82360000D03*
D15*
X139350000Y-72200000D03*
D14*
X208200000Y-92850000D03*
X213200000Y-92850000D03*
D21*
X184650000Y-69850000D03*
D14*
X184650000Y-67350000D03*
D32*
X138994600Y-37691600D03*
X139697544Y-35994544D03*
X139697544Y-39388656D03*
X141394600Y-35291600D03*
D33*
X141394600Y-37691600D03*
D32*
X141394600Y-40091600D03*
X143091656Y-35994544D03*
X143091656Y-39388656D03*
X143794600Y-37691600D03*
D14*
X175600000Y-42900000D03*
X175600000Y-47900000D03*
G36*
X166910000Y-65610000D02*
G01*
X167460000Y-65610000D01*
X167460000Y-65615089D01*
X167531157Y-65615089D01*
X167667708Y-65655184D01*
X167787430Y-65732125D01*
X167880627Y-65839680D01*
X167939746Y-65969134D01*
X167960000Y-66110000D01*
X167960000Y-66610000D01*
X167939746Y-66750866D01*
X167880627Y-66880320D01*
X167787430Y-66987875D01*
X167667708Y-67064816D01*
X167531157Y-67104911D01*
X167460000Y-67104911D01*
X167460000Y-67110000D01*
X166910000Y-67110000D01*
X166910000Y-65610000D01*
G37*
D45*
X166160000Y-66360000D03*
G36*
X164860000Y-67104911D02*
G01*
X164788843Y-67104911D01*
X164652292Y-67064816D01*
X164532570Y-66987875D01*
X164439373Y-66880320D01*
X164380254Y-66750866D01*
X164360000Y-66610000D01*
X164360000Y-66110000D01*
X164380254Y-65969134D01*
X164439373Y-65839680D01*
X164532570Y-65732125D01*
X164652292Y-65655184D01*
X164788843Y-65615089D01*
X164860000Y-65615089D01*
X164860000Y-65610000D01*
X165410000Y-65610000D01*
X165410000Y-67110000D01*
X164860000Y-67110000D01*
X164860000Y-67104911D01*
G37*
D46*
X200500000Y-84400000D03*
X190800000Y-84300000D03*
G36*
X219250000Y-66650000D02*
G01*
X219800000Y-66650000D01*
X219800000Y-66655089D01*
X219871157Y-66655089D01*
X220007708Y-66695184D01*
X220127430Y-66772125D01*
X220220627Y-66879680D01*
X220279746Y-67009134D01*
X220300000Y-67150000D01*
X220300000Y-67650000D01*
X220279746Y-67790866D01*
X220220627Y-67920320D01*
X220127430Y-68027875D01*
X220007708Y-68104816D01*
X219871157Y-68144911D01*
X219800000Y-68144911D01*
X219800000Y-68150000D01*
X219250000Y-68150000D01*
X219250000Y-66650000D01*
G37*
D45*
X218500000Y-67400000D03*
G36*
X217200000Y-68144911D02*
G01*
X217128843Y-68144911D01*
X216992292Y-68104816D01*
X216872570Y-68027875D01*
X216779373Y-67920320D01*
X216720254Y-67790866D01*
X216700000Y-67650000D01*
X216700000Y-67150000D01*
X216720254Y-67009134D01*
X216779373Y-66879680D01*
X216872570Y-66772125D01*
X216992292Y-66695184D01*
X217128843Y-66655089D01*
X217200000Y-66655089D01*
X217200000Y-66650000D01*
X217750000Y-66650000D01*
X217750000Y-68150000D01*
X217200000Y-68150000D01*
X217200000Y-68144911D01*
G37*
%LPD*%
M02*
