M48
; DRILL file {KiCad 8.0.1} date 2024-04-16T20:02:15+0200
; FORMAT={-:-/ absolute / metric / decimal}
; #@! TF.CreationDate,2024-04-16T20:02:15+02:00
; #@! TF.GenerationSoftware,Kicad,Pcbnew,8.0.1
; #@! TF.FileFunction,NonPlated,1,2,NPTH
FMAT,2
METRIC
; #@! TA.AperFunction,NonPlated,NPTH,ComponentDrill
T1C1.200
; #@! TA.AperFunction,NonPlated,NPTH,ComponentDrill
T2C1.500
; #@! TA.AperFunction,NonPlated,NPTH,ComponentDrill
T3C2.000
; #@! TA.AperFunction,NonPlated,NPTH,ComponentDrill
T4C2.200
; #@! TA.AperFunction,NonPlated,NPTH,ComponentDrill
T5C3.000
%
G90
G05
T1
X150.144Y-59.296
X177.153Y-59.295
X240.078Y-90.526
X240.079Y-46.926
X240.079Y-61.46
X240.079Y-75.993
X254.078Y-90.526
X254.079Y-47.026
X254.079Y-61.526
X254.079Y-76.026
X268.079Y-47.026
X268.079Y-61.526
X268.079Y-76.026
X268.079Y-90.526
T2
X194.35Y-28.75
X194.35Y-35.75
X209.35Y-28.75
X209.35Y-35.75
T3
X159.5Y-92.8
X170.93Y-92.8
X217.0Y-92.8
X228.43Y-92.8
T4
X159.2Y-56.9
X168.0Y-56.9
X216.65Y-56.8
X225.45Y-56.8
T5
X168.8Y-86.45
X226.3Y-86.45
M30
