G04 #@! TF.GenerationSoftware,KiCad,Pcbnew,8.0.1*
G04 #@! TF.CreationDate,2024-04-16T20:02:15+02:00*
G04 #@! TF.ProjectId,spider2,73706964-6572-4322-9e6b-696361645f70,rev?*
G04 #@! TF.SameCoordinates,Original*
G04 #@! TF.FileFunction,Soldermask,Bot*
G04 #@! TF.FilePolarity,Negative*
%FSLAX46Y46*%
G04 Gerber Fmt 4.6, Leading zero omitted, Abs format (unit mm)*
G04 Created by KiCad (PCBNEW 8.0.1) date 2024-04-16 20:02:15*
%MOMM*%
%LPD*%
G01*
G04 APERTURE LIST*
%ADD10C,1.600000*%
%ADD11O,1.600000X1.600000*%
%ADD12C,0.700000*%
%ADD13O,0.900000X2.400000*%
%ADD14O,0.900000X1.700000*%
%ADD15R,1.717500X1.800000*%
%ADD16O,1.717500X1.800000*%
%ADD17R,1.600000X1.600000*%
%ADD18R,2.500000X2.500000*%
%ADD19C,1.500000*%
%ADD20O,1.900000X1.000000*%
%ADD21O,1.000000X1.800000*%
%ADD22C,1.300000*%
%ADD23O,1.703200X3.203200*%
%ADD24O,1.903200X3.203200*%
%ADD25O,1.000000X1.900000*%
%ADD26O,3.203200X2.203200*%
%ADD27O,1.800000X0.900000*%
%ADD28C,0.800000*%
%ADD29C,6.400000*%
%ADD30C,3.000000*%
%ADD31C,2.000000*%
%ADD32R,1.500000X1.500000*%
%ADD33C,1.400000*%
%ADD34O,1.400000X1.400000*%
%ADD35C,4.000000*%
%ADD36C,1.800000*%
%ADD37R,1.700000X1.700000*%
%ADD38O,1.700000X1.700000*%
%ADD39R,4.000000X4.000000*%
%ADD40R,1.800000X1.800000*%
%ADD41R,1.000000X1.500000*%
%ADD42C,1.000000*%
G04 APERTURE END LIST*
D10*
X147799400Y-33323400D03*
X152879400Y-33323400D03*
G36*
G01*
X147399400Y-40143400D02*
X148199400Y-40143400D01*
G75*
G02*
X148599400Y-40543400I0J-400000D01*
G01*
X148599400Y-41343400D01*
G75*
G02*
X148199400Y-41743400I-400000J0D01*
G01*
X147399400Y-41743400D01*
G75*
G02*
X146999400Y-41343400I0J400000D01*
G01*
X146999400Y-40543400D01*
G75*
G02*
X147399400Y-40143400I400000J0D01*
G01*
G37*
X150339400Y-40943400D03*
X152879400Y-40943400D03*
X147799400Y-38403400D03*
X150339400Y-38403400D03*
X152879400Y-38403400D03*
X262920000Y-52200000D03*
D11*
X273080000Y-52200000D03*
D10*
X196750000Y-94500000D03*
X196750000Y-92000000D03*
X209700000Y-80700000D03*
X209700000Y-83200000D03*
X231625000Y-32125000D03*
X231625000Y-37125000D03*
X244875000Y-36200000D03*
D11*
X234715000Y-36200000D03*
D12*
X169250000Y-33375000D03*
X168400000Y-33375000D03*
X167550000Y-33375000D03*
X166700000Y-33375000D03*
X165850000Y-33375000D03*
X165000000Y-33375000D03*
X164150000Y-33375000D03*
X163300000Y-33375000D03*
X163300000Y-32025000D03*
X164150000Y-32025000D03*
X165000000Y-32025000D03*
X165850000Y-32025000D03*
X166700000Y-32025000D03*
X167550000Y-32025000D03*
X168400000Y-32025000D03*
X169250000Y-32025000D03*
D13*
X170600000Y-32395000D03*
D14*
X170600000Y-29015000D03*
D13*
X161950000Y-32395000D03*
D14*
X161950000Y-29015000D03*
D10*
X187750000Y-61850000D03*
D11*
X187750000Y-51690000D03*
D15*
X142950000Y-67000000D03*
D16*
X145240000Y-67000000D03*
X147530000Y-67000000D03*
D10*
X263120000Y-81300000D03*
D11*
X273280000Y-81300000D03*
D10*
X182250000Y-81230000D03*
X182250000Y-86230000D03*
X204750000Y-52350000D03*
X204750000Y-54850000D03*
X200150000Y-81500000D03*
X200150000Y-86500000D03*
X204750000Y-59750000D03*
X204750000Y-57250000D03*
D17*
X151200000Y-69750000D03*
D11*
X143580000Y-69750000D03*
D10*
X139700000Y-52959000D03*
D11*
X139700000Y-42799000D03*
D10*
X203000000Y-30995000D03*
D11*
X203000000Y-41155000D03*
D10*
X190975000Y-92075000D03*
X190975000Y-94575000D03*
X206050000Y-81700000D03*
X206050000Y-86700000D03*
D18*
X181300000Y-32750000D03*
D19*
X240078391Y-90526253D03*
D20*
X238349112Y-92100000D03*
X241849112Y-90600000D03*
D21*
X242328391Y-87226253D03*
D22*
X242649112Y-88100000D03*
D23*
X244078391Y-88126253D03*
D24*
X236578391Y-88126253D03*
D25*
X237549112Y-88100000D03*
X237828391Y-87226253D03*
D20*
X238349112Y-84100000D03*
X240078391Y-85826253D03*
D26*
X240078391Y-92626253D03*
D27*
X241849112Y-85600000D03*
D28*
X248019532Y-36102461D03*
X248722476Y-34405405D03*
X248722476Y-37799517D03*
X250419532Y-33702461D03*
D29*
X250419532Y-36102461D03*
D28*
X250419532Y-38502461D03*
X252116588Y-34405405D03*
X252116588Y-37799517D03*
X252819532Y-36102461D03*
D10*
X188500000Y-78850000D03*
X188500000Y-83850000D03*
X199500000Y-69750000D03*
X199500000Y-64750000D03*
X218050000Y-32945000D03*
D11*
X218050000Y-43105000D03*
D10*
X204700000Y-79150000D03*
X202200000Y-79150000D03*
X196550000Y-33200000D03*
X196550000Y-30200000D03*
X192150000Y-38200000D03*
X196550000Y-37200000D03*
X188210000Y-101360000D03*
D11*
X188210000Y-91200000D03*
D10*
X208450000Y-95800000D03*
X208450000Y-100800000D03*
X224500000Y-69800000D03*
D11*
X214340000Y-69800000D03*
D10*
X186250000Y-78800000D03*
X183750000Y-78800000D03*
X179900000Y-92900000D03*
X174900000Y-92900000D03*
X209100000Y-48430000D03*
X214100000Y-48430000D03*
X191620000Y-61810000D03*
D11*
X191620000Y-51650000D03*
D10*
X261200000Y-93230000D03*
D11*
X261200000Y-83070000D03*
D10*
X249645000Y-66950000D03*
D11*
X259805000Y-66950000D03*
D30*
X226300000Y-86450000D03*
D31*
X228430000Y-92800000D03*
X217000000Y-92800000D03*
D30*
X228430000Y-89650000D03*
X217000000Y-89650000D03*
X228430000Y-96000000D03*
X217000000Y-96000000D03*
X228430000Y-83300000D03*
X217000000Y-83300000D03*
D10*
X183900000Y-64150000D03*
D11*
X173740000Y-64150000D03*
D30*
X168800000Y-86450000D03*
D31*
X170930000Y-92800000D03*
X159500000Y-92800000D03*
D30*
X170930000Y-89650000D03*
X159500000Y-89650000D03*
X170930000Y-96000000D03*
X159500000Y-96000000D03*
X170930000Y-83300000D03*
X159500000Y-83300000D03*
D10*
X148300000Y-82450000D03*
D11*
X148300000Y-72290000D03*
D10*
X249745000Y-81400000D03*
D11*
X259905000Y-81400000D03*
D10*
X199500000Y-101400000D03*
D11*
X199500000Y-91240000D03*
D10*
X249220000Y-52150000D03*
D11*
X259380000Y-52150000D03*
D10*
X201600000Y-61700000D03*
D11*
X201600000Y-51540000D03*
D10*
X187300000Y-88750000D03*
X189800000Y-88750000D03*
X234675000Y-32825000D03*
D11*
X244835000Y-32825000D03*
D10*
X236195000Y-66725000D03*
D11*
X246355000Y-66725000D03*
D17*
X158750000Y-42700000D03*
D10*
X156250000Y-42700000D03*
X197100000Y-75400000D03*
X192100000Y-75400000D03*
X142500000Y-72170000D03*
D11*
X142500000Y-82330000D03*
D10*
X247100000Y-82250000D03*
D11*
X247100000Y-92410000D03*
D19*
X240079279Y-61459586D03*
D20*
X238350000Y-63033333D03*
X241850000Y-61533333D03*
D21*
X242329279Y-58159586D03*
D22*
X242650000Y-59033333D03*
D23*
X244079279Y-59059586D03*
D24*
X236579279Y-59059586D03*
D25*
X237550000Y-59033333D03*
X237829279Y-58159586D03*
D20*
X238350000Y-55033333D03*
X240079279Y-56759586D03*
D26*
X240079279Y-63559586D03*
D27*
X241850000Y-56533333D03*
D32*
X144800000Y-86600000D03*
D19*
X142260000Y-86600000D03*
X139720000Y-86600000D03*
D33*
X175400000Y-80100000D03*
D34*
X175400000Y-75020000D03*
D10*
X181600000Y-96100000D03*
X181600000Y-101100000D03*
X222545000Y-44100000D03*
D11*
X232705000Y-44100000D03*
D19*
X240079279Y-75992919D03*
D20*
X238350000Y-77566666D03*
X241850000Y-76066666D03*
D21*
X242329279Y-72692919D03*
D22*
X242650000Y-73566666D03*
D23*
X244079279Y-73592919D03*
D24*
X236579279Y-73592919D03*
D25*
X237550000Y-73566666D03*
X237829279Y-72692919D03*
D20*
X238350000Y-69566666D03*
X240079279Y-71292919D03*
D26*
X240079279Y-78092919D03*
D27*
X241850000Y-71066666D03*
D19*
X177153344Y-59294502D03*
D20*
X175424065Y-60868249D03*
X178924065Y-59368249D03*
D21*
X179403344Y-55994502D03*
D22*
X179724065Y-56868249D03*
D23*
X181153344Y-56894502D03*
D24*
X173653344Y-56894502D03*
D25*
X174624065Y-56868249D03*
X174903344Y-55994502D03*
D20*
X175424065Y-52868249D03*
X177153344Y-54594502D03*
D26*
X177153344Y-61394502D03*
D27*
X178924065Y-54368249D03*
D28*
X228260142Y-71088261D03*
X228963086Y-69391205D03*
X228963086Y-72785317D03*
X230660142Y-68688261D03*
D29*
X230660142Y-71088261D03*
D28*
X230660142Y-73488261D03*
X232357198Y-69391205D03*
X232357198Y-72785317D03*
X233060142Y-71088261D03*
D10*
X143002000Y-52959000D03*
D11*
X143002000Y-42799000D03*
D19*
X268079279Y-47026253D03*
D20*
X266350000Y-48600000D03*
X269850000Y-47100000D03*
D21*
X270329279Y-43726253D03*
D22*
X270650000Y-44600000D03*
D23*
X272079279Y-44626253D03*
D24*
X264579279Y-44626253D03*
D25*
X265550000Y-44600000D03*
X265829279Y-43726253D03*
D20*
X266350000Y-40600000D03*
X268079279Y-42326253D03*
D26*
X268079279Y-49126253D03*
D27*
X269850000Y-42100000D03*
D10*
X184550000Y-56500000D03*
X184550000Y-54000000D03*
D32*
X184221000Y-32750000D03*
D35*
X159200000Y-56900000D03*
X168000000Y-56900000D03*
D36*
X166100000Y-63900000D03*
X163600000Y-63900000D03*
X161100000Y-63900000D03*
D10*
X189500000Y-69000000D03*
X189500000Y-64000000D03*
D32*
X186761000Y-32750000D03*
D10*
X203393829Y-89000000D03*
X205893829Y-89000000D03*
D32*
X189301000Y-32750000D03*
D10*
X171450000Y-39350000D03*
D11*
X161290000Y-39350000D03*
D32*
X144840000Y-91500000D03*
D19*
X142300000Y-91500000D03*
X139760000Y-91500000D03*
D10*
X151400000Y-72300000D03*
D11*
X151400000Y-82460000D03*
D10*
X185080000Y-101350000D03*
D11*
X185080000Y-91190000D03*
D19*
X268079279Y-76026253D03*
D20*
X266350000Y-77600000D03*
X269850000Y-76100000D03*
D21*
X270329279Y-72726253D03*
D22*
X270650000Y-73600000D03*
D23*
X272079279Y-73626253D03*
D24*
X264579279Y-73626253D03*
D25*
X265550000Y-73600000D03*
X265829279Y-72726253D03*
D20*
X266350000Y-69600000D03*
X268079279Y-71326253D03*
D26*
X268079279Y-78126253D03*
D27*
X269850000Y-71100000D03*
D37*
X139560000Y-66610000D03*
D38*
X139560000Y-69150000D03*
D28*
X255630000Y-99560000D03*
X256332944Y-97862944D03*
X256332944Y-101257056D03*
X258030000Y-97160000D03*
D29*
X258030000Y-99560000D03*
D28*
X258030000Y-101960000D03*
X259727056Y-97862944D03*
X259727056Y-101257056D03*
X260430000Y-99560000D03*
D10*
X236270000Y-52150000D03*
D11*
X246430000Y-52150000D03*
D10*
X214990000Y-31800000D03*
D11*
X214990000Y-41960000D03*
D10*
X211550000Y-33200000D03*
X211550000Y-30200000D03*
X207150000Y-38200000D03*
X211550000Y-37200000D03*
X190600000Y-86200000D03*
X188100000Y-86200000D03*
X175500000Y-40800000D03*
X175500000Y-35800000D03*
D19*
X268079279Y-61526253D03*
D20*
X266350000Y-63100000D03*
X269850000Y-61600000D03*
D21*
X270329279Y-58226253D03*
D22*
X270650000Y-59100000D03*
D23*
X272079279Y-59126253D03*
D24*
X264579279Y-59126253D03*
D25*
X265550000Y-59100000D03*
X265829279Y-58226253D03*
D20*
X266350000Y-55100000D03*
X268079279Y-56826253D03*
D26*
X268079279Y-63626253D03*
D27*
X269850000Y-56600000D03*
D10*
X177750000Y-79925000D03*
X177750000Y-82425000D03*
D19*
X240079279Y-46926253D03*
D20*
X238350000Y-48500000D03*
X241850000Y-47000000D03*
D21*
X242329279Y-43626253D03*
D22*
X242650000Y-44500000D03*
D23*
X244079279Y-44526253D03*
D24*
X236579279Y-44526253D03*
D25*
X237550000Y-44500000D03*
X237829279Y-43626253D03*
D20*
X238350000Y-40500000D03*
X240079279Y-42226253D03*
D26*
X240079279Y-49026253D03*
D27*
X241850000Y-42000000D03*
D17*
X221450000Y-33375000D03*
D11*
X221450000Y-35915000D03*
X221450000Y-38455000D03*
X221450000Y-40995000D03*
X229070000Y-40995000D03*
X229070000Y-38455000D03*
X229070000Y-35915000D03*
X229070000Y-33375000D03*
D10*
X206050000Y-74800000D03*
X208550000Y-74800000D03*
X263120000Y-66750000D03*
D11*
X273280000Y-66750000D03*
D10*
X233260000Y-92180000D03*
D11*
X233260000Y-82020000D03*
D10*
X192600000Y-44050000D03*
D11*
X202760000Y-44050000D03*
D19*
X254079279Y-61526253D03*
D20*
X252350000Y-63100000D03*
X255850000Y-61600000D03*
D21*
X256329279Y-58226253D03*
D22*
X256650000Y-59100000D03*
D23*
X258079279Y-59126253D03*
D24*
X250579279Y-59126253D03*
D25*
X251550000Y-59100000D03*
X251829279Y-58226253D03*
D20*
X252350000Y-55100000D03*
X254079279Y-56826253D03*
D26*
X254079279Y-63626253D03*
D27*
X255850000Y-56600000D03*
D10*
X208500000Y-88300000D03*
X208500000Y-85800000D03*
D19*
X254079279Y-76026253D03*
D20*
X252350000Y-77600000D03*
X255850000Y-76100000D03*
D21*
X256329279Y-72726253D03*
D22*
X256650000Y-73600000D03*
D23*
X258079279Y-73626253D03*
D24*
X250579279Y-73626253D03*
D25*
X251550000Y-73600000D03*
X251829279Y-72726253D03*
D20*
X252350000Y-69600000D03*
X254079279Y-71326253D03*
D26*
X254079279Y-78126253D03*
D27*
X255850000Y-71100000D03*
D19*
X254079279Y-47026253D03*
D20*
X252350000Y-48600000D03*
X255850000Y-47100000D03*
D21*
X256329279Y-43726253D03*
D22*
X256650000Y-44600000D03*
D23*
X258079279Y-44626253D03*
D24*
X250579279Y-44626253D03*
D25*
X251550000Y-44600000D03*
X251829279Y-43726253D03*
D20*
X252350000Y-40600000D03*
X254079279Y-42326253D03*
D26*
X254079279Y-49126253D03*
D27*
X255850000Y-42100000D03*
D10*
X202500000Y-101500000D03*
D11*
X202500000Y-91340000D03*
D10*
X184550000Y-58650000D03*
X184550000Y-61150000D03*
X211200000Y-67050000D03*
X211200000Y-72050000D03*
D19*
X150144477Y-59295965D03*
D20*
X148415198Y-60869712D03*
X151915198Y-59369712D03*
D21*
X152394477Y-55995965D03*
D22*
X152715198Y-56869712D03*
D23*
X154144477Y-56895965D03*
D24*
X146644477Y-56895965D03*
D25*
X147615198Y-56869712D03*
X147894477Y-55995965D03*
D20*
X148415198Y-52869712D03*
X150144477Y-54595965D03*
D26*
X150144477Y-61395965D03*
D27*
X151915198Y-54369712D03*
D39*
X194056000Y-100584000D03*
D19*
X254078391Y-90526253D03*
D20*
X252349112Y-92100000D03*
X255849112Y-90600000D03*
D21*
X256328391Y-87226253D03*
D22*
X256649112Y-88100000D03*
D23*
X258078391Y-88126253D03*
D24*
X250578391Y-88126253D03*
D25*
X251549112Y-88100000D03*
X251828391Y-87226253D03*
D20*
X252349112Y-84100000D03*
X254078391Y-85826253D03*
D26*
X254078391Y-92626253D03*
D27*
X255849112Y-85600000D03*
D19*
X268079279Y-90526253D03*
D20*
X266350000Y-92100000D03*
X269850000Y-90600000D03*
D21*
X270329279Y-87226253D03*
D22*
X270650000Y-88100000D03*
D23*
X272079279Y-88126253D03*
D24*
X264579279Y-88126253D03*
D25*
X265550000Y-88100000D03*
X265829279Y-87226253D03*
D20*
X266350000Y-84100000D03*
X268079279Y-85826253D03*
D26*
X268079279Y-92626253D03*
D27*
X269850000Y-85600000D03*
D10*
X179000000Y-96100000D03*
X179000000Y-101100000D03*
X154500000Y-82450000D03*
D11*
X154500000Y-72290000D03*
D10*
X193142656Y-85661097D03*
D11*
X193142656Y-78041097D03*
D10*
X196150000Y-85650000D03*
D11*
X196150000Y-78030000D03*
D10*
X182500000Y-88600000D03*
X185000000Y-88600000D03*
D40*
X148875000Y-88725000D03*
D36*
X151415000Y-88725000D03*
D10*
X199800000Y-31015000D03*
D11*
X199800000Y-41175000D03*
D10*
X232750000Y-47100000D03*
D11*
X222590000Y-47100000D03*
D10*
X198750000Y-88750000D03*
X201250000Y-88750000D03*
X205900000Y-95700000D03*
X205900000Y-100700000D03*
D35*
X216650000Y-56800000D03*
X225450000Y-56800000D03*
D36*
X223550000Y-63800000D03*
X221050000Y-63800000D03*
X218550000Y-63800000D03*
D10*
X197735200Y-61700000D03*
D11*
X197735200Y-51540000D03*
D10*
X169350000Y-69040000D03*
D11*
X159190000Y-69040000D03*
D33*
X212500000Y-82100000D03*
D34*
X212500000Y-77020000D03*
D10*
X245080000Y-81225000D03*
D11*
X234920000Y-81225000D03*
D40*
X152742934Y-98294059D03*
D36*
X150202934Y-98294059D03*
X147662934Y-98294059D03*
D28*
X139840000Y-97590000D03*
X140542944Y-95892944D03*
X140542944Y-99287056D03*
X142240000Y-95190000D03*
D29*
X142240000Y-97590000D03*
D28*
X142240000Y-99990000D03*
X143937056Y-95892944D03*
X143937056Y-99287056D03*
X144640000Y-97590000D03*
D10*
X205175000Y-44750000D03*
D11*
X215335000Y-44750000D03*
D10*
X139350000Y-82360000D03*
D11*
X139350000Y-72200000D03*
D10*
X208200000Y-92850000D03*
X213200000Y-92850000D03*
D17*
X184650000Y-69850000D03*
D10*
X184650000Y-67350000D03*
D28*
X138994600Y-37691600D03*
X139697544Y-35994544D03*
X139697544Y-39388656D03*
X141394600Y-35291600D03*
D29*
X141394600Y-37691600D03*
D28*
X141394600Y-40091600D03*
X143091656Y-35994544D03*
X143091656Y-39388656D03*
X143794600Y-37691600D03*
D10*
X175600000Y-42900000D03*
X175600000Y-47900000D03*
G36*
X166910000Y-65610000D02*
G01*
X167460000Y-65610000D01*
X167460000Y-65615089D01*
X167531157Y-65615089D01*
X167667708Y-65655184D01*
X167787430Y-65732125D01*
X167880627Y-65839680D01*
X167939746Y-65969134D01*
X167960000Y-66110000D01*
X167960000Y-66610000D01*
X167939746Y-66750866D01*
X167880627Y-66880320D01*
X167787430Y-66987875D01*
X167667708Y-67064816D01*
X167531157Y-67104911D01*
X167460000Y-67104911D01*
X167460000Y-67110000D01*
X166910000Y-67110000D01*
X166910000Y-65610000D01*
G37*
D41*
X166160000Y-66360000D03*
G36*
X164860000Y-67104911D02*
G01*
X164788843Y-67104911D01*
X164652292Y-67064816D01*
X164532570Y-66987875D01*
X164439373Y-66880320D01*
X164380254Y-66750866D01*
X164360000Y-66610000D01*
X164360000Y-66110000D01*
X164380254Y-65969134D01*
X164439373Y-65839680D01*
X164532570Y-65732125D01*
X164652292Y-65655184D01*
X164788843Y-65615089D01*
X164860000Y-65615089D01*
X164860000Y-65610000D01*
X165410000Y-65610000D01*
X165410000Y-67110000D01*
X164860000Y-67110000D01*
X164860000Y-67104911D01*
G37*
D42*
X200500000Y-84400000D03*
X190800000Y-84300000D03*
G36*
X219250000Y-66650000D02*
G01*
X219800000Y-66650000D01*
X219800000Y-66655089D01*
X219871157Y-66655089D01*
X220007708Y-66695184D01*
X220127430Y-66772125D01*
X220220627Y-66879680D01*
X220279746Y-67009134D01*
X220300000Y-67150000D01*
X220300000Y-67650000D01*
X220279746Y-67790866D01*
X220220627Y-67920320D01*
X220127430Y-68027875D01*
X220007708Y-68104816D01*
X219871157Y-68144911D01*
X219800000Y-68144911D01*
X219800000Y-68150000D01*
X219250000Y-68150000D01*
X219250000Y-66650000D01*
G37*
D41*
X218500000Y-67400000D03*
G36*
X217200000Y-68144911D02*
G01*
X217128843Y-68144911D01*
X216992292Y-68104816D01*
X216872570Y-68027875D01*
X216779373Y-67920320D01*
X216720254Y-67790866D01*
X216700000Y-67650000D01*
X216700000Y-67150000D01*
X216720254Y-67009134D01*
X216779373Y-66879680D01*
X216872570Y-66772125D01*
X216992292Y-66695184D01*
X217128843Y-66655089D01*
X217200000Y-66655089D01*
X217200000Y-66650000D01*
X217750000Y-66650000D01*
X217750000Y-68150000D01*
X217200000Y-68150000D01*
X217200000Y-68144911D01*
G37*
M02*
