M48
; DRILL file {KiCad 8.0.1} date 2024-04-16T20:02:15+0200
; FORMAT={-:-/ absolute / metric / decimal}
; #@! TF.CreationDate,2024-04-16T20:02:15+02:00
; #@! TF.GenerationSoftware,Kicad,Pcbnew,8.0.1
; #@! TF.FileFunction,Plated,1,2,PTH
FMAT,2
METRIC
; #@! TA.AperFunction,Plated,PTH,ViaDrill
T1C0.400
; #@! TA.AperFunction,Plated,PTH,ComponentDrill
T2C0.400
; #@! TA.AperFunction,Plated,PTH,ComponentDrill
T3C0.500
; #@! TA.AperFunction,Plated,PTH,ComponentDrill
T4C0.600
; #@! TA.AperFunction,Plated,PTH,ComponentDrill
T5C0.700
; #@! TA.AperFunction,Plated,PTH,ComponentDrill
T6C0.800
; #@! TA.AperFunction,Plated,PTH,ComponentDrill
T7C0.890
; #@! TA.AperFunction,Plated,PTH,ComponentDrill
T8C0.900
; #@! TA.AperFunction,Plated,PTH,ViaDrill
T9C1.000
; #@! TA.AperFunction,Plated,PTH,ComponentDrill
T10C1.000
; #@! TA.AperFunction,Plated,PTH,ComponentDrill
T11C1.100
; #@! TA.AperFunction,Plated,PTH,ComponentDrill
T12C1.200
; #@! TA.AperFunction,Plated,PTH,ComponentDrill
T13C1.500
; #@! TA.AperFunction,Plated,PTH,ComponentDrill
T14C2.000
; #@! TA.AperFunction,Plated,PTH,ComponentDrill
T15C3.200
%
G90
G05
T1
X157.31Y-74.56
X157.46Y-79.75
X158.0Y-63.9
X158.3Y-102.3
X159.6Y-36.2
X159.65Y-86.45
X161.95Y-80.15
X164.3Y-67.7
X164.8Y-65.0
X164.95Y-62.5
X170.05Y-70.3
X170.11Y-73.9
X170.35Y-67.85
X170.85Y-80.15
X171.2Y-86.65
X171.3Y-42.65
X171.6Y-75.6
X172.75Y-41.6
X172.9Y-75.7
X173.0Y-73.1
X173.6Y-39.8
X173.8Y-41.6
X173.8Y-102.25
X173.85Y-47.75
X174.1Y-71.55
X176.3Y-69.4
X176.4Y-41.6
X176.4Y-76.5
X176.95Y-78.75
X177.4Y-92.5
X178.1Y-85.55
X178.71Y-31.28
X178.9Y-84.35
X179.05Y-37.85
X179.2Y-81.7
X179.6Y-77.2
X180.3Y-98.1
X180.4Y-78.1
X182.702Y-84.404
X183.6Y-83.55
X185.49Y-80.5
X185.86Y-84.915
X186.65Y-90.4
X186.65Y-92.1
X186.8Y-83.8
X186.9Y-87.3
X187.6Y-80.65
X189.35Y-81.75
X189.75Y-75.5
X190.25Y-102.25
X190.85Y-77.6
X194.15Y-94.65
X194.25Y-91.0
X194.65Y-84.5
X194.7Y-79.0
X195.25Y-71.0
X197.45Y-87.1
X197.55Y-102.2
X197.95Y-77.65
X198.25Y-85.05
X200.7Y-83.05
X200.95Y-92.15
X202.7Y-84.4
X203.0Y-77.15
X203.8Y-85.0
X204.142Y-80.721
X204.75Y-91.65
X206.875Y-84.7
X206.9Y-98.1
X207.725Y-80.2
X208.5Y-69.45
X209.8Y-77.7
X210.15Y-92.6
X210.4Y-84.4
X211.0Y-81.9
X211.9Y-85.3
X212.65Y-62.85
X213.4Y-102.1
X214.1Y-67.95
X214.8Y-80.8
X215.9Y-64.0
X216.2Y-69.4
X217.0Y-86.65
X217.6Y-69.7
X218.7Y-71.0
X219.45Y-91.6
X220.6Y-65.8
X221.25Y-56.15
X221.35Y-51.0
X221.7Y-76.8
X225.65Y-91.7
X229.1Y-101.85
X229.25Y-86.5
X229.4Y-80.35
X232.15Y-64.3
T2
X163.3Y-32.025
X163.3Y-33.375
X164.15Y-32.025
X164.15Y-33.375
X165.0Y-32.025
X165.0Y-33.375
X165.85Y-32.025
X165.85Y-33.375
X166.7Y-32.025
X166.7Y-33.375
X167.55Y-32.025
X167.55Y-33.375
X168.4Y-32.025
X168.4Y-33.375
X169.25Y-32.025
X169.25Y-33.375
T3
X138.995Y-37.692
X139.698Y-35.995
X139.698Y-39.389
X139.84Y-97.59
X140.543Y-95.893
X140.543Y-99.287
X141.395Y-35.292
X141.395Y-40.092
X142.24Y-95.19
X142.24Y-99.99
X143.092Y-35.995
X143.092Y-39.389
X143.795Y-37.692
X143.937Y-95.893
X143.937Y-99.287
X144.64Y-97.59
X228.26Y-71.088
X228.963Y-69.391
X228.963Y-72.785
X230.66Y-68.688
X230.66Y-73.488
X232.357Y-69.391
X232.357Y-72.785
X233.06Y-71.088
X248.02Y-36.102
X248.722Y-34.405
X248.722Y-37.8
X250.42Y-33.702
X250.42Y-38.502
X252.117Y-34.405
X252.117Y-37.8
X252.82Y-36.102
X255.63Y-99.56
X256.333Y-97.863
X256.333Y-101.257
X258.03Y-97.16
X258.03Y-101.96
X259.727Y-97.863
X259.727Y-101.257
X260.43Y-99.56
T5
X175.4Y-75.02
X175.4Y-80.1
X184.221Y-32.75
X186.761Y-32.75
X189.301Y-32.75
X212.5Y-77.02
X212.5Y-82.1
T6
X139.35Y-72.2
X139.35Y-82.36
X139.7Y-42.799
X139.7Y-52.959
X139.72Y-86.6
X139.76Y-91.5
X142.26Y-86.6
X142.3Y-91.5
X142.5Y-72.17
X142.5Y-82.33
X143.002Y-42.799
X143.002Y-52.959
X143.58Y-69.75
X144.8Y-86.6
X144.84Y-91.5
X148.3Y-72.29
X148.3Y-82.45
X151.2Y-69.75
X151.4Y-72.3
X151.4Y-82.46
X154.5Y-72.29
X154.5Y-82.45
X156.25Y-42.7
X158.75Y-42.7
X159.19Y-69.04
X161.29Y-39.35
X169.35Y-69.04
X171.45Y-39.35
X173.74Y-64.15
X174.9Y-92.9
X175.5Y-35.8
X175.5Y-40.8
X175.6Y-42.9
X175.6Y-47.9
X177.75Y-79.925
X177.75Y-82.425
X179.0Y-96.1
X179.0Y-101.1
X179.9Y-92.9
X181.6Y-96.1
X181.6Y-101.1
X182.25Y-81.23
X182.25Y-86.23
X182.5Y-88.6
X183.75Y-78.8
X183.9Y-64.15
X184.55Y-54.0
X184.55Y-56.5
X184.55Y-58.65
X184.55Y-61.15
X184.65Y-67.35
X184.65Y-69.85
X185.0Y-88.6
X185.08Y-91.19
X185.08Y-101.35
X186.25Y-78.8
X187.3Y-88.75
X187.75Y-51.69
X187.75Y-61.85
X188.1Y-86.2
X188.21Y-91.2
X188.21Y-101.36
X188.5Y-78.85
X188.5Y-83.85
X189.5Y-64.0
X189.5Y-69.0
X189.8Y-88.75
X190.6Y-86.2
X190.975Y-92.075
X190.975Y-94.575
X191.62Y-51.65
X191.62Y-61.81
X192.1Y-75.4
X192.6Y-44.05
X193.143Y-78.041
X193.143Y-85.661
X196.15Y-78.03
X196.15Y-85.65
X196.75Y-92.0
X196.75Y-94.5
X197.1Y-75.4
X197.735Y-51.54
X197.735Y-61.7
X198.75Y-88.75
X199.5Y-64.75
X199.5Y-69.75
X199.5Y-91.24
X199.5Y-101.4
X199.8Y-31.015
X199.8Y-41.175
X200.15Y-81.5
X200.15Y-86.5
X201.25Y-88.75
X201.6Y-51.54
X201.6Y-61.7
X202.2Y-79.15
X202.5Y-91.34
X202.5Y-101.5
X202.76Y-44.05
X203.0Y-30.995
X203.0Y-41.155
X203.394Y-89.0
X204.7Y-79.15
X204.75Y-52.35
X204.75Y-54.85
X204.75Y-57.25
X204.75Y-59.75
X205.175Y-44.75
X205.894Y-89.0
X205.9Y-95.7
X205.9Y-100.7
X206.05Y-74.8
X206.05Y-81.7
X206.05Y-86.7
X208.2Y-92.85
X208.45Y-95.8
X208.45Y-100.8
X208.5Y-85.8
X208.5Y-88.3
X208.55Y-74.8
X209.1Y-48.43
X209.7Y-80.7
X209.7Y-83.2
X211.2Y-67.05
X211.2Y-72.05
X213.2Y-92.85
X214.1Y-48.43
X214.34Y-69.8
X214.99Y-31.8
X214.99Y-41.96
X215.335Y-44.75
X218.05Y-32.945
X218.05Y-43.105
X221.45Y-33.375
X221.45Y-35.915
X221.45Y-38.455
X221.45Y-40.995
X222.545Y-44.1
X222.59Y-47.1
X224.5Y-69.8
X229.07Y-33.375
X229.07Y-35.915
X229.07Y-38.455
X229.07Y-40.995
X231.625Y-32.125
X231.625Y-37.125
X232.705Y-44.1
X232.75Y-47.1
X233.26Y-82.02
X233.26Y-92.18
X234.675Y-32.825
X234.715Y-36.2
X234.92Y-81.225
X236.195Y-66.725
X236.27Y-52.15
X244.835Y-32.825
X244.875Y-36.2
X245.08Y-81.225
X246.355Y-66.725
X246.43Y-52.15
X247.1Y-82.25
X247.1Y-92.41
X249.22Y-52.15
X249.645Y-66.95
X249.745Y-81.4
X259.38Y-52.15
X259.805Y-66.95
X259.905Y-81.4
X261.2Y-83.07
X261.2Y-93.23
X262.92Y-52.2
X263.12Y-66.75
X263.12Y-81.3
X273.08Y-52.2
X273.28Y-66.75
X273.28Y-81.3
T7
X147.799Y-33.323
X147.799Y-38.403
X147.799Y-40.943
X150.339Y-38.403
X150.339Y-40.943
X152.879Y-33.323
X152.879Y-38.403
X152.879Y-40.943
T8
X147.663Y-98.294
X148.875Y-88.725
X150.203Y-98.294
X151.415Y-88.725
X152.743Y-98.294
T9
X164.2Y-51.72
X166.65Y-51.85
T10
X139.56Y-66.61
X139.56Y-69.15
X146.644Y-56.896
X154.144Y-56.896
X161.1Y-63.9
X163.6Y-63.9
X166.1Y-63.9
X173.653Y-56.895
X181.153Y-56.895
X218.55Y-63.8
X221.05Y-63.8
X223.55Y-63.8
X236.578Y-88.126
X236.579Y-44.526
X236.579Y-59.06
X236.579Y-73.593
X244.078Y-88.126
X244.079Y-44.526
X244.079Y-59.06
X244.079Y-73.593
X250.578Y-88.126
X250.579Y-44.626
X250.579Y-59.126
X250.579Y-73.626
X258.078Y-88.126
X258.079Y-44.626
X258.079Y-59.126
X258.079Y-73.626
X264.579Y-44.626
X264.579Y-59.126
X264.579Y-73.626
X264.579Y-88.126
X272.079Y-44.626
X272.079Y-59.126
X272.079Y-73.626
X272.079Y-88.126
T11
X142.95Y-67.0
X145.24Y-67.0
X147.53Y-67.0
T12
X152.715Y-56.87
X179.724Y-56.868
X181.3Y-32.75
X242.649Y-88.1
X242.65Y-44.5
X242.65Y-59.033
X242.65Y-73.567
X256.649Y-88.1
X256.65Y-44.6
X256.65Y-59.1
X256.65Y-73.6
X270.65Y-44.6
X270.65Y-59.1
X270.65Y-73.6
X270.65Y-88.1
T13
X150.144Y-61.396
X159.5Y-83.3
X159.5Y-89.65
X159.5Y-96.0
X170.93Y-83.3
X170.93Y-89.65
X170.93Y-96.0
X177.153Y-61.395
X217.0Y-83.3
X217.0Y-89.65
X217.0Y-96.0
X228.43Y-83.3
X228.43Y-89.65
X228.43Y-96.0
X240.078Y-92.626
X240.079Y-49.026
X240.079Y-63.56
X240.079Y-78.093
X254.078Y-92.626
X254.079Y-49.126
X254.079Y-63.626
X254.079Y-78.126
X268.079Y-49.126
X268.079Y-63.626
X268.079Y-78.126
X268.079Y-92.626
T14
X194.056Y-100.584
T15
X141.395Y-37.692
X142.24Y-97.59
X230.66Y-71.088
X250.42Y-36.102
X258.03Y-99.56
T4
X147.615Y-57.32G85X147.615Y-56.42
G05
X147.894Y-55.546G85X147.894Y-56.446
G05
X147.965Y-52.87G85X148.865Y-52.87
G05
X147.965Y-60.87G85X148.865Y-60.87
G05
X149.694Y-54.596G85X150.594Y-54.596
G05
X151.465Y-54.37G85X152.365Y-54.37
G05
X151.465Y-59.37G85X152.365Y-59.37
G05
X152.394Y-55.546G85X152.394Y-56.446
G05
X161.95Y-29.415G85X161.95Y-28.615
G05
X161.95Y-33.145G85X161.95Y-31.645
G05
X170.6Y-29.415G85X170.6Y-28.615
G05
X170.6Y-33.145G85X170.6Y-31.645
G05
X174.624Y-57.318G85X174.624Y-56.418
G05
X174.903Y-55.545G85X174.903Y-56.445
G05
X174.974Y-52.868G85X175.874Y-52.868
G05
X174.974Y-60.868G85X175.874Y-60.868
G05
X176.703Y-54.595G85X177.603Y-54.595
G05
X178.474Y-54.368G85X179.374Y-54.368
G05
X178.474Y-59.368G85X179.374Y-59.368
G05
X179.403Y-55.545G85X179.403Y-56.445
G05
X237.549Y-88.55G85X237.549Y-87.65
G05
X237.55Y-44.95G85X237.55Y-44.05
G05
X237.55Y-59.483G85X237.55Y-58.583
G05
X237.55Y-74.017G85X237.55Y-73.117
G05
X237.828Y-86.776G85X237.828Y-87.676
G05
X237.829Y-43.176G85X237.829Y-44.076
G05
X237.829Y-57.71G85X237.829Y-58.61
G05
X237.829Y-72.243G85X237.829Y-73.143
G05
X237.899Y-84.1G85X238.799Y-84.1
G05
X237.899Y-92.1G85X238.799Y-92.1
G05
X237.9Y-40.5G85X238.8Y-40.5
G05
X237.9Y-48.5G85X238.8Y-48.5
G05
X237.9Y-55.033G85X238.8Y-55.033
G05
X237.9Y-63.033G85X238.8Y-63.033
G05
X237.9Y-69.567G85X238.8Y-69.567
G05
X237.9Y-77.567G85X238.8Y-77.567
G05
X239.628Y-85.826G85X240.528Y-85.826
G05
X239.629Y-42.226G85X240.529Y-42.226
G05
X239.629Y-56.76G85X240.529Y-56.76
G05
X239.629Y-71.293G85X240.529Y-71.293
G05
X241.399Y-85.6G85X242.299Y-85.6
G05
X241.399Y-90.6G85X242.299Y-90.6
G05
X241.4Y-42.0G85X242.3Y-42.0
G05
X241.4Y-47.0G85X242.3Y-47.0
G05
X241.4Y-56.533G85X242.3Y-56.533
G05
X241.4Y-61.533G85X242.3Y-61.533
G05
X241.4Y-71.067G85X242.3Y-71.067
G05
X241.4Y-76.067G85X242.3Y-76.067
G05
X242.328Y-86.776G85X242.328Y-87.676
G05
X242.329Y-43.176G85X242.329Y-44.076
G05
X242.329Y-57.71G85X242.329Y-58.61
G05
X242.329Y-72.243G85X242.329Y-73.143
G05
X251.549Y-88.55G85X251.549Y-87.65
G05
X251.55Y-45.05G85X251.55Y-44.15
G05
X251.55Y-59.55G85X251.55Y-58.65
G05
X251.55Y-74.05G85X251.55Y-73.15
G05
X251.828Y-86.776G85X251.828Y-87.676
G05
X251.829Y-43.276G85X251.829Y-44.176
G05
X251.829Y-57.776G85X251.829Y-58.676
G05
X251.829Y-72.276G85X251.829Y-73.176
G05
X251.899Y-84.1G85X252.799Y-84.1
G05
X251.899Y-92.1G85X252.799Y-92.1
G05
X251.9Y-40.6G85X252.8Y-40.6
G05
X251.9Y-48.6G85X252.8Y-48.6
G05
X251.9Y-55.1G85X252.8Y-55.1
G05
X251.9Y-63.1G85X252.8Y-63.1
G05
X251.9Y-69.6G85X252.8Y-69.6
G05
X251.9Y-77.6G85X252.8Y-77.6
G05
X253.628Y-85.826G85X254.528Y-85.826
G05
X253.629Y-42.326G85X254.529Y-42.326
G05
X253.629Y-56.826G85X254.529Y-56.826
G05
X253.629Y-71.326G85X254.529Y-71.326
G05
X255.399Y-85.6G85X256.299Y-85.6
G05
X255.399Y-90.6G85X256.299Y-90.6
G05
X255.4Y-42.1G85X256.3Y-42.1
G05
X255.4Y-47.1G85X256.3Y-47.1
G05
X255.4Y-56.6G85X256.3Y-56.6
G05
X255.4Y-61.6G85X256.3Y-61.6
G05
X255.4Y-71.1G85X256.3Y-71.1
G05
X255.4Y-76.1G85X256.3Y-76.1
G05
X256.328Y-86.776G85X256.328Y-87.676
G05
X256.329Y-43.276G85X256.329Y-44.176
G05
X256.329Y-57.776G85X256.329Y-58.676
G05
X256.329Y-72.276G85X256.329Y-73.176
G05
X265.55Y-45.05G85X265.55Y-44.15
G05
X265.55Y-59.55G85X265.55Y-58.65
G05
X265.55Y-74.05G85X265.55Y-73.15
G05
X265.55Y-88.55G85X265.55Y-87.65
G05
X265.829Y-43.276G85X265.829Y-44.176
G05
X265.829Y-57.776G85X265.829Y-58.676
G05
X265.829Y-72.276G85X265.829Y-73.176
G05
X265.829Y-86.776G85X265.829Y-87.676
G05
X265.9Y-40.6G85X266.8Y-40.6
G05
X265.9Y-48.6G85X266.8Y-48.6
G05
X265.9Y-55.1G85X266.8Y-55.1
G05
X265.9Y-63.1G85X266.8Y-63.1
G05
X265.9Y-69.6G85X266.8Y-69.6
G05
X265.9Y-77.6G85X266.8Y-77.6
G05
X265.9Y-84.1G85X266.8Y-84.1
G05
X265.9Y-92.1G85X266.8Y-92.1
G05
X267.629Y-42.326G85X268.529Y-42.326
G05
X267.629Y-56.826G85X268.529Y-56.826
G05
X267.629Y-71.326G85X268.529Y-71.326
G05
X267.629Y-85.826G85X268.529Y-85.826
G05
X269.4Y-42.1G85X270.3Y-42.1
G05
X269.4Y-47.1G85X270.3Y-47.1
G05
X269.4Y-56.6G85X270.3Y-56.6
G05
X269.4Y-61.6G85X270.3Y-61.6
G05
X269.4Y-71.1G85X270.3Y-71.1
G05
X269.4Y-76.1G85X270.3Y-76.1
G05
X269.4Y-85.6G85X270.3Y-85.6
G05
X269.4Y-90.6G85X270.3Y-90.6
G05
X270.329Y-43.276G85X270.329Y-44.176
G05
X270.329Y-57.776G85X270.329Y-58.676
G05
X270.329Y-72.276G85X270.329Y-73.176
G05
X270.329Y-86.776G85X270.329Y-87.676
G05
T5
X192.15Y-37.8G85X192.15Y-38.6
G05
X196.55Y-29.8G85X196.55Y-30.6
G05
X196.55Y-32.8G85X196.55Y-33.6
G05
X196.55Y-36.8G85X196.55Y-37.6
G05
X207.15Y-37.8G85X207.15Y-38.6
G05
X211.55Y-29.8G85X211.55Y-30.6
G05
X211.55Y-32.8G85X211.55Y-33.6
G05
X211.55Y-36.8G85X211.55Y-37.6
G05
M30
