G04 #@! TF.GenerationSoftware,KiCad,Pcbnew,8.0.6*
G04 #@! TF.CreationDate,2024-11-06T00:44:51+01:00*
G04 #@! TF.ProjectId,spider2,73706964-6572-4322-9e6b-696361645f70,rev?*
G04 #@! TF.SameCoordinates,Original*
G04 #@! TF.FileFunction,Legend,Bot*
G04 #@! TF.FilePolarity,Positive*
%FSLAX46Y46*%
G04 Gerber Fmt 4.6, Leading zero omitted, Abs format (unit mm)*
G04 Created by KiCad (PCBNEW 8.0.6) date 2024-11-06 00:44:51*
%MOMM*%
%LPD*%
G01*
G04 APERTURE LIST*
%ADD10C,0.000000*%
%ADD11C,0.150000*%
%ADD12C,0.200000*%
%ADD13C,0.120000*%
%ADD14C,0.010000*%
%ADD15C,1.400000*%
%ADD16O,1.400000X1.400000*%
%ADD17C,1.600000*%
%ADD18O,1.600000X1.600000*%
%ADD19R,1.600000X1.600000*%
%ADD20R,2.500000X2.500000*%
%ADD21O,2.300000X1.500000*%
%ADD22O,1.703200X3.203200*%
%ADD23O,1.903200X3.203200*%
%ADD24O,1.500000X2.300000*%
%ADD25O,3.203200X2.203200*%
%ADD26C,0.800000*%
%ADD27C,6.400000*%
%ADD28C,3.000000*%
%ADD29C,2.000000*%
%ADD30O,1.100000X1.700000*%
%ADD31R,1.500000X1.500000*%
%ADD32C,1.500000*%
%ADD33C,4.000000*%
%ADD34C,1.800000*%
%ADD35R,1.700000X1.700000*%
%ADD36O,1.700000X1.700000*%
%ADD37R,1.800000X1.800000*%
%ADD38R,4.000000X4.000000*%
G04 APERTURE END LIST*
D10*
G36*
X184781393Y-95396169D02*
G01*
X184794391Y-95397526D01*
X184807053Y-95399787D01*
X184819381Y-95402952D01*
X184831374Y-95407021D01*
X184843031Y-95411995D01*
X184854353Y-95417873D01*
X184865341Y-95424656D01*
X184875993Y-95432343D01*
X184886310Y-95440934D01*
X184896292Y-95450429D01*
X184905939Y-95460829D01*
X184915251Y-95472133D01*
X184924228Y-95484342D01*
X184932869Y-95497455D01*
X184941176Y-95511472D01*
X184945052Y-95522114D01*
X184948411Y-95532595D01*
X184949896Y-95537775D01*
X184951253Y-95542914D01*
X184952480Y-95548013D01*
X184953578Y-95553072D01*
X184954547Y-95558090D01*
X184955387Y-95563068D01*
X184956098Y-95568005D01*
X184956679Y-95572902D01*
X184957131Y-95577759D01*
X184957454Y-95582576D01*
X184957648Y-95587352D01*
X184957712Y-95592087D01*
X184957293Y-95608190D01*
X184956033Y-95624199D01*
X184953934Y-95640116D01*
X184950995Y-95655940D01*
X184947216Y-95671671D01*
X184942597Y-95687309D01*
X184937139Y-95702854D01*
X184930841Y-95718307D01*
X184923703Y-95733666D01*
X184915725Y-95748933D01*
X184906908Y-95764107D01*
X184897251Y-95779188D01*
X184886754Y-95794176D01*
X184875418Y-95809072D01*
X184863241Y-95823874D01*
X184850225Y-95838584D01*
X184576857Y-96166729D01*
X184573756Y-96166729D01*
X184283335Y-95810679D01*
X184272822Y-95797410D01*
X184262987Y-95784090D01*
X184253831Y-95770716D01*
X184245353Y-95757291D01*
X184237553Y-95743812D01*
X184230431Y-95730282D01*
X184223988Y-95716698D01*
X184218223Y-95703063D01*
X184213136Y-95689374D01*
X184208727Y-95675634D01*
X184204997Y-95661841D01*
X184201945Y-95647995D01*
X184199571Y-95634097D01*
X184197875Y-95620146D01*
X184196858Y-95606143D01*
X184196519Y-95592087D01*
X184196920Y-95578633D01*
X184198125Y-95565531D01*
X184200134Y-95552779D01*
X184202946Y-95540379D01*
X184206561Y-95528330D01*
X184210980Y-95516632D01*
X184216202Y-95505285D01*
X184222228Y-95494290D01*
X184229057Y-95483646D01*
X184236689Y-95473353D01*
X184245125Y-95463411D01*
X184254364Y-95453821D01*
X184264407Y-95444581D01*
X184275253Y-95435693D01*
X184286902Y-95427157D01*
X184299355Y-95418971D01*
X184304787Y-95416155D01*
X184310231Y-95413521D01*
X184315687Y-95411069D01*
X184321156Y-95408798D01*
X184326636Y-95406708D01*
X184332129Y-95404801D01*
X184337634Y-95403075D01*
X184343151Y-95401531D01*
X184348680Y-95400168D01*
X184354221Y-95398987D01*
X184359774Y-95397988D01*
X184365339Y-95397170D01*
X184370917Y-95396535D01*
X184376506Y-95396080D01*
X184382108Y-95395808D01*
X184387722Y-95395717D01*
X184400659Y-95396191D01*
X184413245Y-95397615D01*
X184425480Y-95399986D01*
X184431465Y-95401528D01*
X184437363Y-95403307D01*
X184443173Y-95405323D01*
X184448895Y-95407576D01*
X184454530Y-95410067D01*
X184460076Y-95412794D01*
X184470906Y-95418961D01*
X184481385Y-95426077D01*
X184491512Y-95434141D01*
X184501288Y-95443154D01*
X184510713Y-95453116D01*
X184519787Y-95464027D01*
X184528509Y-95475886D01*
X184536880Y-95488694D01*
X184544900Y-95502451D01*
X184552569Y-95517156D01*
X184557672Y-95528816D01*
X184562129Y-95539765D01*
X184565940Y-95550003D01*
X184569106Y-95559531D01*
X184571625Y-95568349D01*
X184572642Y-95572491D01*
X184573498Y-95576455D01*
X184574192Y-95580242D01*
X184574725Y-95583851D01*
X184575097Y-95587283D01*
X184575307Y-95590537D01*
X184576857Y-95590537D01*
X184579233Y-95580184D01*
X184581839Y-95570052D01*
X184584675Y-95560143D01*
X184587741Y-95550456D01*
X184591038Y-95540990D01*
X184594564Y-95531747D01*
X184598321Y-95522726D01*
X184602308Y-95513927D01*
X184606525Y-95505350D01*
X184610972Y-95496995D01*
X184615649Y-95488862D01*
X184620556Y-95480951D01*
X184625693Y-95473262D01*
X184631061Y-95465795D01*
X184636658Y-95458550D01*
X184642486Y-95451528D01*
X184649517Y-95444769D01*
X184656657Y-95438447D01*
X184663906Y-95432561D01*
X184671263Y-95427110D01*
X184678730Y-95422096D01*
X184686306Y-95417518D01*
X184693991Y-95413376D01*
X184701785Y-95409670D01*
X184709688Y-95406399D01*
X184717700Y-95403565D01*
X184725820Y-95401167D01*
X184734050Y-95399205D01*
X184742389Y-95397679D01*
X184750837Y-95396589D01*
X184759394Y-95395935D01*
X184768060Y-95395717D01*
X184781393Y-95396169D01*
G37*
D11*
X177608475Y-96800000D02*
X192671525Y-96800000D01*
X192671525Y-101029700D01*
X177608475Y-101029700D01*
X177608475Y-96800000D01*
G36*
X177608475Y-96800000D02*
G01*
X192671525Y-96800000D01*
X192671525Y-101029700D01*
X177608475Y-101029700D01*
X177608475Y-96800000D01*
G37*
D10*
G36*
X185853365Y-93756027D02*
G01*
X185866363Y-93757384D01*
X185879025Y-93759645D01*
X185891353Y-93762810D01*
X185903346Y-93766879D01*
X185915003Y-93771853D01*
X185926325Y-93777731D01*
X185937313Y-93784514D01*
X185947965Y-93792201D01*
X185958282Y-93800792D01*
X185968264Y-93810287D01*
X185977911Y-93820687D01*
X185987223Y-93831991D01*
X185996200Y-93844200D01*
X186004841Y-93857313D01*
X186013148Y-93871330D01*
X186017024Y-93881972D01*
X186020383Y-93892453D01*
X186021868Y-93897633D01*
X186023225Y-93902772D01*
X186024452Y-93907871D01*
X186025550Y-93912930D01*
X186026519Y-93917948D01*
X186027359Y-93922926D01*
X186028070Y-93927863D01*
X186028651Y-93932760D01*
X186029103Y-93937617D01*
X186029426Y-93942434D01*
X186029620Y-93947210D01*
X186029684Y-93951945D01*
X186029265Y-93968048D01*
X186028005Y-93984057D01*
X186025906Y-93999974D01*
X186022967Y-94015798D01*
X186019188Y-94031529D01*
X186014569Y-94047167D01*
X186009111Y-94062712D01*
X186002813Y-94078165D01*
X185995675Y-94093524D01*
X185987697Y-94108791D01*
X185978880Y-94123965D01*
X185969223Y-94139046D01*
X185958726Y-94154034D01*
X185947390Y-94168930D01*
X185935213Y-94183732D01*
X185922197Y-94198442D01*
X185648829Y-94526587D01*
X185645728Y-94526587D01*
X185355307Y-94170537D01*
X185344794Y-94157268D01*
X185334959Y-94143948D01*
X185325803Y-94130574D01*
X185317325Y-94117149D01*
X185309525Y-94103670D01*
X185302403Y-94090140D01*
X185295960Y-94076556D01*
X185290195Y-94062921D01*
X185285108Y-94049232D01*
X185280699Y-94035492D01*
X185276969Y-94021699D01*
X185273917Y-94007853D01*
X185271543Y-93993955D01*
X185269847Y-93980004D01*
X185268830Y-93966001D01*
X185268491Y-93951945D01*
X185268892Y-93938491D01*
X185270097Y-93925389D01*
X185272106Y-93912637D01*
X185274918Y-93900237D01*
X185278533Y-93888188D01*
X185282952Y-93876490D01*
X185288174Y-93865143D01*
X185294200Y-93854148D01*
X185301029Y-93843504D01*
X185308661Y-93833211D01*
X185317097Y-93823269D01*
X185326336Y-93813679D01*
X185336379Y-93804439D01*
X185347225Y-93795551D01*
X185358874Y-93787015D01*
X185371327Y-93778829D01*
X185376759Y-93776013D01*
X185382203Y-93773379D01*
X185387659Y-93770927D01*
X185393128Y-93768656D01*
X185398608Y-93766566D01*
X185404101Y-93764659D01*
X185409606Y-93762933D01*
X185415123Y-93761389D01*
X185420652Y-93760026D01*
X185426193Y-93758845D01*
X185431746Y-93757846D01*
X185437311Y-93757028D01*
X185442889Y-93756393D01*
X185448478Y-93755938D01*
X185454080Y-93755666D01*
X185459694Y-93755575D01*
X185472631Y-93756049D01*
X185485217Y-93757473D01*
X185497452Y-93759844D01*
X185503437Y-93761386D01*
X185509335Y-93763165D01*
X185515145Y-93765181D01*
X185520867Y-93767434D01*
X185526502Y-93769925D01*
X185532048Y-93772652D01*
X185542878Y-93778819D01*
X185553357Y-93785935D01*
X185563484Y-93793999D01*
X185573260Y-93803012D01*
X185582685Y-93812974D01*
X185591759Y-93823885D01*
X185600481Y-93835744D01*
X185608852Y-93848552D01*
X185616872Y-93862309D01*
X185624541Y-93877014D01*
X185629644Y-93888674D01*
X185634101Y-93899623D01*
X185637912Y-93909861D01*
X185641078Y-93919389D01*
X185643597Y-93928207D01*
X185644614Y-93932349D01*
X185645470Y-93936313D01*
X185646164Y-93940100D01*
X185646697Y-93943709D01*
X185647069Y-93947141D01*
X185647279Y-93950395D01*
X185648829Y-93950395D01*
X185651205Y-93940042D01*
X185653811Y-93929910D01*
X185656647Y-93920001D01*
X185659713Y-93910314D01*
X185663010Y-93900848D01*
X185666536Y-93891605D01*
X185670293Y-93882584D01*
X185674280Y-93873785D01*
X185678497Y-93865208D01*
X185682944Y-93856853D01*
X185687621Y-93848720D01*
X185692528Y-93840809D01*
X185697665Y-93833120D01*
X185703033Y-93825653D01*
X185708630Y-93818408D01*
X185714458Y-93811386D01*
X185721489Y-93804627D01*
X185728629Y-93798305D01*
X185735878Y-93792419D01*
X185743235Y-93786968D01*
X185750702Y-93781954D01*
X185758278Y-93777376D01*
X185765963Y-93773234D01*
X185773757Y-93769528D01*
X185781660Y-93766257D01*
X185789672Y-93763423D01*
X185797792Y-93761025D01*
X185806022Y-93759063D01*
X185814361Y-93757537D01*
X185822809Y-93756447D01*
X185831366Y-93755793D01*
X185840032Y-93755575D01*
X185853365Y-93756027D01*
G37*
D12*
X191842034Y-89581578D02*
X191889653Y-89629198D01*
X191889653Y-89629198D02*
X192032510Y-89676817D01*
X192032510Y-89676817D02*
X192127748Y-89676817D01*
X192127748Y-89676817D02*
X192270605Y-89629198D01*
X192270605Y-89629198D02*
X192365843Y-89533959D01*
X192365843Y-89533959D02*
X192413462Y-89438721D01*
X192413462Y-89438721D02*
X192461081Y-89248245D01*
X192461081Y-89248245D02*
X192461081Y-89105388D01*
X192461081Y-89105388D02*
X192413462Y-88914912D01*
X192413462Y-88914912D02*
X192365843Y-88819674D01*
X192365843Y-88819674D02*
X192270605Y-88724436D01*
X192270605Y-88724436D02*
X192127748Y-88676817D01*
X192127748Y-88676817D02*
X192032510Y-88676817D01*
X192032510Y-88676817D02*
X191889653Y-88724436D01*
X191889653Y-88724436D02*
X191842034Y-88772055D01*
X191222986Y-88676817D02*
X191032510Y-88676817D01*
X191032510Y-88676817D02*
X190937272Y-88724436D01*
X190937272Y-88724436D02*
X190842034Y-88819674D01*
X190842034Y-88819674D02*
X190794415Y-89010150D01*
X190794415Y-89010150D02*
X190794415Y-89343483D01*
X190794415Y-89343483D02*
X190842034Y-89533959D01*
X190842034Y-89533959D02*
X190937272Y-89629198D01*
X190937272Y-89629198D02*
X191032510Y-89676817D01*
X191032510Y-89676817D02*
X191222986Y-89676817D01*
X191222986Y-89676817D02*
X191318224Y-89629198D01*
X191318224Y-89629198D02*
X191413462Y-89533959D01*
X191413462Y-89533959D02*
X191461081Y-89343483D01*
X191461081Y-89343483D02*
X191461081Y-89010150D01*
X191461081Y-89010150D02*
X191413462Y-88819674D01*
X191413462Y-88819674D02*
X191318224Y-88724436D01*
X191318224Y-88724436D02*
X191222986Y-88676817D01*
X190413462Y-89391102D02*
X189937272Y-89391102D01*
X190508700Y-89676817D02*
X190175367Y-88676817D01*
X190175367Y-88676817D02*
X189842034Y-89676817D01*
X189651557Y-88676817D02*
X189080129Y-88676817D01*
X189365843Y-89676817D02*
X189365843Y-88676817D01*
X188746795Y-89676817D02*
X188746795Y-88676817D01*
X187556319Y-89629198D02*
X187413462Y-89676817D01*
X187413462Y-89676817D02*
X187175367Y-89676817D01*
X187175367Y-89676817D02*
X187080129Y-89629198D01*
X187080129Y-89629198D02*
X187032510Y-89581578D01*
X187032510Y-89581578D02*
X186984891Y-89486340D01*
X186984891Y-89486340D02*
X186984891Y-89391102D01*
X186984891Y-89391102D02*
X187032510Y-89295864D01*
X187032510Y-89295864D02*
X187080129Y-89248245D01*
X187080129Y-89248245D02*
X187175367Y-89200626D01*
X187175367Y-89200626D02*
X187365843Y-89153007D01*
X187365843Y-89153007D02*
X187461081Y-89105388D01*
X187461081Y-89105388D02*
X187508700Y-89057769D01*
X187508700Y-89057769D02*
X187556319Y-88962531D01*
X187556319Y-88962531D02*
X187556319Y-88867293D01*
X187556319Y-88867293D02*
X187508700Y-88772055D01*
X187508700Y-88772055D02*
X187461081Y-88724436D01*
X187461081Y-88724436D02*
X187365843Y-88676817D01*
X187365843Y-88676817D02*
X187127748Y-88676817D01*
X187127748Y-88676817D02*
X186984891Y-88724436D01*
X186556319Y-89010150D02*
X186556319Y-90010150D01*
X186556319Y-89057769D02*
X186461081Y-89010150D01*
X186461081Y-89010150D02*
X186270605Y-89010150D01*
X186270605Y-89010150D02*
X186175367Y-89057769D01*
X186175367Y-89057769D02*
X186127748Y-89105388D01*
X186127748Y-89105388D02*
X186080129Y-89200626D01*
X186080129Y-89200626D02*
X186080129Y-89486340D01*
X186080129Y-89486340D02*
X186127748Y-89581578D01*
X186127748Y-89581578D02*
X186175367Y-89629198D01*
X186175367Y-89629198D02*
X186270605Y-89676817D01*
X186270605Y-89676817D02*
X186461081Y-89676817D01*
X186461081Y-89676817D02*
X186556319Y-89629198D01*
X185651557Y-89676817D02*
X185651557Y-89010150D01*
X185651557Y-88676817D02*
X185699176Y-88724436D01*
X185699176Y-88724436D02*
X185651557Y-88772055D01*
X185651557Y-88772055D02*
X185603938Y-88724436D01*
X185603938Y-88724436D02*
X185651557Y-88676817D01*
X185651557Y-88676817D02*
X185651557Y-88772055D01*
X184746796Y-89676817D02*
X184746796Y-88676817D01*
X184746796Y-89629198D02*
X184842034Y-89676817D01*
X184842034Y-89676817D02*
X185032510Y-89676817D01*
X185032510Y-89676817D02*
X185127748Y-89629198D01*
X185127748Y-89629198D02*
X185175367Y-89581578D01*
X185175367Y-89581578D02*
X185222986Y-89486340D01*
X185222986Y-89486340D02*
X185222986Y-89200626D01*
X185222986Y-89200626D02*
X185175367Y-89105388D01*
X185175367Y-89105388D02*
X185127748Y-89057769D01*
X185127748Y-89057769D02*
X185032510Y-89010150D01*
X185032510Y-89010150D02*
X184842034Y-89010150D01*
X184842034Y-89010150D02*
X184746796Y-89057769D01*
X183889653Y-89629198D02*
X183984891Y-89676817D01*
X183984891Y-89676817D02*
X184175367Y-89676817D01*
X184175367Y-89676817D02*
X184270605Y-89629198D01*
X184270605Y-89629198D02*
X184318224Y-89533959D01*
X184318224Y-89533959D02*
X184318224Y-89153007D01*
X184318224Y-89153007D02*
X184270605Y-89057769D01*
X184270605Y-89057769D02*
X184175367Y-89010150D01*
X184175367Y-89010150D02*
X183984891Y-89010150D01*
X183984891Y-89010150D02*
X183889653Y-89057769D01*
X183889653Y-89057769D02*
X183842034Y-89153007D01*
X183842034Y-89153007D02*
X183842034Y-89248245D01*
X183842034Y-89248245D02*
X184318224Y-89343483D01*
X183413462Y-89676817D02*
X183413462Y-89010150D01*
X183413462Y-89200626D02*
X183365843Y-89105388D01*
X183365843Y-89105388D02*
X183318224Y-89057769D01*
X183318224Y-89057769D02*
X183222986Y-89010150D01*
X183222986Y-89010150D02*
X183127748Y-89010150D01*
X192461081Y-91001046D02*
X191984891Y-91001046D01*
X192556319Y-91286761D02*
X192222986Y-90286761D01*
X192222986Y-90286761D02*
X191889653Y-91286761D01*
X191080129Y-91286761D02*
X191556319Y-91286761D01*
X191556319Y-91286761D02*
X191556319Y-90286761D01*
X190746795Y-91286761D02*
X190746795Y-90286761D01*
X190318224Y-91239142D02*
X190175367Y-91286761D01*
X190175367Y-91286761D02*
X189937272Y-91286761D01*
X189937272Y-91286761D02*
X189842034Y-91239142D01*
X189842034Y-91239142D02*
X189794415Y-91191522D01*
X189794415Y-91191522D02*
X189746796Y-91096284D01*
X189746796Y-91096284D02*
X189746796Y-91001046D01*
X189746796Y-91001046D02*
X189794415Y-90905808D01*
X189794415Y-90905808D02*
X189842034Y-90858189D01*
X189842034Y-90858189D02*
X189937272Y-90810570D01*
X189937272Y-90810570D02*
X190127748Y-90762951D01*
X190127748Y-90762951D02*
X190222986Y-90715332D01*
X190222986Y-90715332D02*
X190270605Y-90667713D01*
X190270605Y-90667713D02*
X190318224Y-90572475D01*
X190318224Y-90572475D02*
X190318224Y-90477237D01*
X190318224Y-90477237D02*
X190270605Y-90381999D01*
X190270605Y-90381999D02*
X190222986Y-90334380D01*
X190222986Y-90334380D02*
X190127748Y-90286761D01*
X190127748Y-90286761D02*
X189889653Y-90286761D01*
X189889653Y-90286761D02*
X189746796Y-90334380D01*
X188603938Y-91239142D02*
X188461081Y-91286761D01*
X188461081Y-91286761D02*
X188222986Y-91286761D01*
X188222986Y-91286761D02*
X188127748Y-91239142D01*
X188127748Y-91239142D02*
X188080129Y-91191522D01*
X188080129Y-91191522D02*
X188032510Y-91096284D01*
X188032510Y-91096284D02*
X188032510Y-91001046D01*
X188032510Y-91001046D02*
X188080129Y-90905808D01*
X188080129Y-90905808D02*
X188127748Y-90858189D01*
X188127748Y-90858189D02*
X188222986Y-90810570D01*
X188222986Y-90810570D02*
X188413462Y-90762951D01*
X188413462Y-90762951D02*
X188508700Y-90715332D01*
X188508700Y-90715332D02*
X188556319Y-90667713D01*
X188556319Y-90667713D02*
X188603938Y-90572475D01*
X188603938Y-90572475D02*
X188603938Y-90477237D01*
X188603938Y-90477237D02*
X188556319Y-90381999D01*
X188556319Y-90381999D02*
X188508700Y-90334380D01*
X188508700Y-90334380D02*
X188413462Y-90286761D01*
X188413462Y-90286761D02*
X188175367Y-90286761D01*
X188175367Y-90286761D02*
X188032510Y-90334380D01*
X187603938Y-90620094D02*
X187603938Y-91620094D01*
X187603938Y-90667713D02*
X187508700Y-90620094D01*
X187508700Y-90620094D02*
X187318224Y-90620094D01*
X187318224Y-90620094D02*
X187222986Y-90667713D01*
X187222986Y-90667713D02*
X187175367Y-90715332D01*
X187175367Y-90715332D02*
X187127748Y-90810570D01*
X187127748Y-90810570D02*
X187127748Y-91096284D01*
X187127748Y-91096284D02*
X187175367Y-91191522D01*
X187175367Y-91191522D02*
X187222986Y-91239142D01*
X187222986Y-91239142D02*
X187318224Y-91286761D01*
X187318224Y-91286761D02*
X187508700Y-91286761D01*
X187508700Y-91286761D02*
X187603938Y-91239142D01*
X186699176Y-91286761D02*
X186699176Y-90620094D01*
X186699176Y-90286761D02*
X186746795Y-90334380D01*
X186746795Y-90334380D02*
X186699176Y-90381999D01*
X186699176Y-90381999D02*
X186651557Y-90334380D01*
X186651557Y-90334380D02*
X186699176Y-90286761D01*
X186699176Y-90286761D02*
X186699176Y-90381999D01*
X185794415Y-91286761D02*
X185794415Y-90286761D01*
X185794415Y-91239142D02*
X185889653Y-91286761D01*
X185889653Y-91286761D02*
X186080129Y-91286761D01*
X186080129Y-91286761D02*
X186175367Y-91239142D01*
X186175367Y-91239142D02*
X186222986Y-91191522D01*
X186222986Y-91191522D02*
X186270605Y-91096284D01*
X186270605Y-91096284D02*
X186270605Y-90810570D01*
X186270605Y-90810570D02*
X186222986Y-90715332D01*
X186222986Y-90715332D02*
X186175367Y-90667713D01*
X186175367Y-90667713D02*
X186080129Y-90620094D01*
X186080129Y-90620094D02*
X185889653Y-90620094D01*
X185889653Y-90620094D02*
X185794415Y-90667713D01*
X184937272Y-91239142D02*
X185032510Y-91286761D01*
X185032510Y-91286761D02*
X185222986Y-91286761D01*
X185222986Y-91286761D02*
X185318224Y-91239142D01*
X185318224Y-91239142D02*
X185365843Y-91143903D01*
X185365843Y-91143903D02*
X185365843Y-90762951D01*
X185365843Y-90762951D02*
X185318224Y-90667713D01*
X185318224Y-90667713D02*
X185222986Y-90620094D01*
X185222986Y-90620094D02*
X185032510Y-90620094D01*
X185032510Y-90620094D02*
X184937272Y-90667713D01*
X184937272Y-90667713D02*
X184889653Y-90762951D01*
X184889653Y-90762951D02*
X184889653Y-90858189D01*
X184889653Y-90858189D02*
X185365843Y-90953427D01*
X184461081Y-91286761D02*
X184461081Y-90620094D01*
X184461081Y-90810570D02*
X184413462Y-90715332D01*
X184413462Y-90715332D02*
X184365843Y-90667713D01*
X184365843Y-90667713D02*
X184270605Y-90620094D01*
X184270605Y-90620094D02*
X184175367Y-90620094D01*
X191984891Y-92849086D02*
X192080129Y-92896705D01*
X192080129Y-92896705D02*
X192270605Y-92896705D01*
X192270605Y-92896705D02*
X192365843Y-92849086D01*
X192365843Y-92849086D02*
X192413462Y-92801466D01*
X192413462Y-92801466D02*
X192461081Y-92706228D01*
X192461081Y-92706228D02*
X192461081Y-92420514D01*
X192461081Y-92420514D02*
X192413462Y-92325276D01*
X192413462Y-92325276D02*
X192365843Y-92277657D01*
X192365843Y-92277657D02*
X192270605Y-92230038D01*
X192270605Y-92230038D02*
X192080129Y-92230038D01*
X192080129Y-92230038D02*
X191984891Y-92277657D01*
X191556319Y-92896705D02*
X191556319Y-91896705D01*
X191127748Y-92896705D02*
X191127748Y-92372895D01*
X191127748Y-92372895D02*
X191175367Y-92277657D01*
X191175367Y-92277657D02*
X191270605Y-92230038D01*
X191270605Y-92230038D02*
X191413462Y-92230038D01*
X191413462Y-92230038D02*
X191508700Y-92277657D01*
X191508700Y-92277657D02*
X191556319Y-92325276D01*
X190222986Y-92896705D02*
X190222986Y-92372895D01*
X190222986Y-92372895D02*
X190270605Y-92277657D01*
X190270605Y-92277657D02*
X190365843Y-92230038D01*
X190365843Y-92230038D02*
X190556319Y-92230038D01*
X190556319Y-92230038D02*
X190651557Y-92277657D01*
X190222986Y-92849086D02*
X190318224Y-92896705D01*
X190318224Y-92896705D02*
X190556319Y-92896705D01*
X190556319Y-92896705D02*
X190651557Y-92849086D01*
X190651557Y-92849086D02*
X190699176Y-92753847D01*
X190699176Y-92753847D02*
X190699176Y-92658609D01*
X190699176Y-92658609D02*
X190651557Y-92563371D01*
X190651557Y-92563371D02*
X190556319Y-92515752D01*
X190556319Y-92515752D02*
X190318224Y-92515752D01*
X190318224Y-92515752D02*
X190222986Y-92468133D01*
X189746795Y-92230038D02*
X189746795Y-92896705D01*
X189746795Y-92325276D02*
X189699176Y-92277657D01*
X189699176Y-92277657D02*
X189603938Y-92230038D01*
X189603938Y-92230038D02*
X189461081Y-92230038D01*
X189461081Y-92230038D02*
X189365843Y-92277657D01*
X189365843Y-92277657D02*
X189318224Y-92372895D01*
X189318224Y-92372895D02*
X189318224Y-92896705D01*
X188413462Y-92896705D02*
X188413462Y-91896705D01*
X188413462Y-92849086D02*
X188508700Y-92896705D01*
X188508700Y-92896705D02*
X188699176Y-92896705D01*
X188699176Y-92896705D02*
X188794414Y-92849086D01*
X188794414Y-92849086D02*
X188842033Y-92801466D01*
X188842033Y-92801466D02*
X188889652Y-92706228D01*
X188889652Y-92706228D02*
X188889652Y-92420514D01*
X188889652Y-92420514D02*
X188842033Y-92325276D01*
X188842033Y-92325276D02*
X188794414Y-92277657D01*
X188794414Y-92277657D02*
X188699176Y-92230038D01*
X188699176Y-92230038D02*
X188508700Y-92230038D01*
X188508700Y-92230038D02*
X188413462Y-92277657D01*
X187937271Y-92896705D02*
X187937271Y-92230038D01*
X187937271Y-91896705D02*
X187984890Y-91944324D01*
X187984890Y-91944324D02*
X187937271Y-91991943D01*
X187937271Y-91991943D02*
X187889652Y-91944324D01*
X187889652Y-91944324D02*
X187937271Y-91896705D01*
X187937271Y-91896705D02*
X187937271Y-91991943D01*
X192413462Y-94506649D02*
X192413462Y-93506649D01*
X192413462Y-93506649D02*
X192080129Y-94220934D01*
X192080129Y-94220934D02*
X191746796Y-93506649D01*
X191746796Y-93506649D02*
X191746796Y-94506649D01*
X190842034Y-94506649D02*
X190842034Y-93982839D01*
X190842034Y-93982839D02*
X190889653Y-93887601D01*
X190889653Y-93887601D02*
X190984891Y-93839982D01*
X190984891Y-93839982D02*
X191175367Y-93839982D01*
X191175367Y-93839982D02*
X191270605Y-93887601D01*
X190842034Y-94459030D02*
X190937272Y-94506649D01*
X190937272Y-94506649D02*
X191175367Y-94506649D01*
X191175367Y-94506649D02*
X191270605Y-94459030D01*
X191270605Y-94459030D02*
X191318224Y-94363791D01*
X191318224Y-94363791D02*
X191318224Y-94268553D01*
X191318224Y-94268553D02*
X191270605Y-94173315D01*
X191270605Y-94173315D02*
X191175367Y-94125696D01*
X191175367Y-94125696D02*
X190937272Y-94125696D01*
X190937272Y-94125696D02*
X190842034Y-94078077D01*
X190508700Y-93839982D02*
X190127748Y-93839982D01*
X190365843Y-93506649D02*
X190365843Y-94363791D01*
X190365843Y-94363791D02*
X190318224Y-94459030D01*
X190318224Y-94459030D02*
X190222986Y-94506649D01*
X190222986Y-94506649D02*
X190127748Y-94506649D01*
X189937271Y-93839982D02*
X189556319Y-93839982D01*
X189794414Y-93506649D02*
X189794414Y-94363791D01*
X189794414Y-94363791D02*
X189746795Y-94459030D01*
X189746795Y-94459030D02*
X189651557Y-94506649D01*
X189651557Y-94506649D02*
X189556319Y-94506649D01*
X189222985Y-94506649D02*
X189222985Y-93506649D01*
X188794414Y-94506649D02*
X188794414Y-93982839D01*
X188794414Y-93982839D02*
X188842033Y-93887601D01*
X188842033Y-93887601D02*
X188937271Y-93839982D01*
X188937271Y-93839982D02*
X189080128Y-93839982D01*
X189080128Y-93839982D02*
X189175366Y-93887601D01*
X189175366Y-93887601D02*
X189222985Y-93935220D01*
X188318223Y-94506649D02*
X188318223Y-93839982D01*
X188318223Y-93506649D02*
X188365842Y-93554268D01*
X188365842Y-93554268D02*
X188318223Y-93601887D01*
X188318223Y-93601887D02*
X188270604Y-93554268D01*
X188270604Y-93554268D02*
X188318223Y-93506649D01*
X188318223Y-93506649D02*
X188318223Y-93601887D01*
X187413462Y-94506649D02*
X187413462Y-93982839D01*
X187413462Y-93982839D02*
X187461081Y-93887601D01*
X187461081Y-93887601D02*
X187556319Y-93839982D01*
X187556319Y-93839982D02*
X187746795Y-93839982D01*
X187746795Y-93839982D02*
X187842033Y-93887601D01*
X187413462Y-94459030D02*
X187508700Y-94506649D01*
X187508700Y-94506649D02*
X187746795Y-94506649D01*
X187746795Y-94506649D02*
X187842033Y-94459030D01*
X187842033Y-94459030D02*
X187889652Y-94363791D01*
X187889652Y-94363791D02*
X187889652Y-94268553D01*
X187889652Y-94268553D02*
X187842033Y-94173315D01*
X187842033Y-94173315D02*
X187746795Y-94125696D01*
X187746795Y-94125696D02*
X187508700Y-94125696D01*
X187508700Y-94125696D02*
X187413462Y-94078077D01*
X186984890Y-94459030D02*
X186889652Y-94506649D01*
X186889652Y-94506649D02*
X186699176Y-94506649D01*
X186699176Y-94506649D02*
X186603938Y-94459030D01*
X186603938Y-94459030D02*
X186556319Y-94363791D01*
X186556319Y-94363791D02*
X186556319Y-94316172D01*
X186556319Y-94316172D02*
X186603938Y-94220934D01*
X186603938Y-94220934D02*
X186699176Y-94173315D01*
X186699176Y-94173315D02*
X186842033Y-94173315D01*
X186842033Y-94173315D02*
X186937271Y-94125696D01*
X186937271Y-94125696D02*
X186984890Y-94030458D01*
X186984890Y-94030458D02*
X186984890Y-93982839D01*
X186984890Y-93982839D02*
X186937271Y-93887601D01*
X186937271Y-93887601D02*
X186842033Y-93839982D01*
X186842033Y-93839982D02*
X186699176Y-93839982D01*
X186699176Y-93839982D02*
X186603938Y-93887601D01*
X192413462Y-96116593D02*
X192413462Y-95116593D01*
X191937272Y-95449926D02*
X191937272Y-96116593D01*
X191937272Y-95545164D02*
X191889653Y-95497545D01*
X191889653Y-95497545D02*
X191794415Y-95449926D01*
X191794415Y-95449926D02*
X191651558Y-95449926D01*
X191651558Y-95449926D02*
X191556320Y-95497545D01*
X191556320Y-95497545D02*
X191508701Y-95592783D01*
X191508701Y-95592783D02*
X191508701Y-96116593D01*
X191175367Y-95449926D02*
X190794415Y-95449926D01*
X191032510Y-95116593D02*
X191032510Y-95973735D01*
X191032510Y-95973735D02*
X190984891Y-96068974D01*
X190984891Y-96068974D02*
X190889653Y-96116593D01*
X190889653Y-96116593D02*
X190794415Y-96116593D01*
X190080129Y-96068974D02*
X190175367Y-96116593D01*
X190175367Y-96116593D02*
X190365843Y-96116593D01*
X190365843Y-96116593D02*
X190461081Y-96068974D01*
X190461081Y-96068974D02*
X190508700Y-95973735D01*
X190508700Y-95973735D02*
X190508700Y-95592783D01*
X190508700Y-95592783D02*
X190461081Y-95497545D01*
X190461081Y-95497545D02*
X190365843Y-95449926D01*
X190365843Y-95449926D02*
X190175367Y-95449926D01*
X190175367Y-95449926D02*
X190080129Y-95497545D01*
X190080129Y-95497545D02*
X190032510Y-95592783D01*
X190032510Y-95592783D02*
X190032510Y-95688021D01*
X190032510Y-95688021D02*
X190508700Y-95783259D01*
X189603938Y-96116593D02*
X189603938Y-95449926D01*
X189603938Y-95640402D02*
X189556319Y-95545164D01*
X189556319Y-95545164D02*
X189508700Y-95497545D01*
X189508700Y-95497545D02*
X189413462Y-95449926D01*
X189413462Y-95449926D02*
X189318224Y-95449926D01*
X188984890Y-95449926D02*
X188984890Y-96449926D01*
X188984890Y-95497545D02*
X188889652Y-95449926D01*
X188889652Y-95449926D02*
X188699176Y-95449926D01*
X188699176Y-95449926D02*
X188603938Y-95497545D01*
X188603938Y-95497545D02*
X188556319Y-95545164D01*
X188556319Y-95545164D02*
X188508700Y-95640402D01*
X188508700Y-95640402D02*
X188508700Y-95926116D01*
X188508700Y-95926116D02*
X188556319Y-96021354D01*
X188556319Y-96021354D02*
X188603938Y-96068974D01*
X188603938Y-96068974D02*
X188699176Y-96116593D01*
X188699176Y-96116593D02*
X188889652Y-96116593D01*
X188889652Y-96116593D02*
X188984890Y-96068974D01*
X187508700Y-96116593D02*
X187842033Y-95640402D01*
X188080128Y-96116593D02*
X188080128Y-95116593D01*
X188080128Y-95116593D02*
X187699176Y-95116593D01*
X187699176Y-95116593D02*
X187603938Y-95164212D01*
X187603938Y-95164212D02*
X187556319Y-95211831D01*
X187556319Y-95211831D02*
X187508700Y-95307069D01*
X187508700Y-95307069D02*
X187508700Y-95449926D01*
X187508700Y-95449926D02*
X187556319Y-95545164D01*
X187556319Y-95545164D02*
X187603938Y-95592783D01*
X187603938Y-95592783D02*
X187699176Y-95640402D01*
X187699176Y-95640402D02*
X188080128Y-95640402D01*
X187080128Y-96116593D02*
X187080128Y-95449926D01*
X187080128Y-95116593D02*
X187127747Y-95164212D01*
X187127747Y-95164212D02*
X187080128Y-95211831D01*
X187080128Y-95211831D02*
X187032509Y-95164212D01*
X187032509Y-95164212D02*
X187080128Y-95116593D01*
X187080128Y-95116593D02*
X187080128Y-95211831D01*
X186651557Y-96068974D02*
X186556319Y-96116593D01*
X186556319Y-96116593D02*
X186365843Y-96116593D01*
X186365843Y-96116593D02*
X186270605Y-96068974D01*
X186270605Y-96068974D02*
X186222986Y-95973735D01*
X186222986Y-95973735D02*
X186222986Y-95926116D01*
X186222986Y-95926116D02*
X186270605Y-95830878D01*
X186270605Y-95830878D02*
X186365843Y-95783259D01*
X186365843Y-95783259D02*
X186508700Y-95783259D01*
X186508700Y-95783259D02*
X186603938Y-95735640D01*
X186603938Y-95735640D02*
X186651557Y-95640402D01*
X186651557Y-95640402D02*
X186651557Y-95592783D01*
X186651557Y-95592783D02*
X186603938Y-95497545D01*
X186603938Y-95497545D02*
X186508700Y-95449926D01*
X186508700Y-95449926D02*
X186365843Y-95449926D01*
X186365843Y-95449926D02*
X186270605Y-95497545D01*
X185413462Y-96068974D02*
X185508700Y-96116593D01*
X185508700Y-96116593D02*
X185699176Y-96116593D01*
X185699176Y-96116593D02*
X185794414Y-96068974D01*
X185794414Y-96068974D02*
X185842033Y-95973735D01*
X185842033Y-95973735D02*
X185842033Y-95592783D01*
X185842033Y-95592783D02*
X185794414Y-95497545D01*
X185794414Y-95497545D02*
X185699176Y-95449926D01*
X185699176Y-95449926D02*
X185508700Y-95449926D01*
X185508700Y-95449926D02*
X185413462Y-95497545D01*
X185413462Y-95497545D02*
X185365843Y-95592783D01*
X185365843Y-95592783D02*
X185365843Y-95688021D01*
X185365843Y-95688021D02*
X185842033Y-95783259D01*
X241441755Y-99120552D02*
X241441755Y-99930076D01*
X241441755Y-99930076D02*
X241489374Y-100025314D01*
X241489374Y-100025314D02*
X241536993Y-100072933D01*
X241536993Y-100072933D02*
X241632231Y-100120552D01*
X241632231Y-100120552D02*
X241775088Y-100120552D01*
X241775088Y-100120552D02*
X241870326Y-100072933D01*
X241441755Y-99739600D02*
X241536993Y-99787219D01*
X241536993Y-99787219D02*
X241727469Y-99787219D01*
X241727469Y-99787219D02*
X241822707Y-99739600D01*
X241822707Y-99739600D02*
X241870326Y-99691980D01*
X241870326Y-99691980D02*
X241917945Y-99596742D01*
X241917945Y-99596742D02*
X241917945Y-99311028D01*
X241917945Y-99311028D02*
X241870326Y-99215790D01*
X241870326Y-99215790D02*
X241822707Y-99168171D01*
X241822707Y-99168171D02*
X241727469Y-99120552D01*
X241727469Y-99120552D02*
X241536993Y-99120552D01*
X241536993Y-99120552D02*
X241441755Y-99168171D01*
X240965564Y-99787219D02*
X240965564Y-99120552D01*
X240965564Y-98787219D02*
X241013183Y-98834838D01*
X241013183Y-98834838D02*
X240965564Y-98882457D01*
X240965564Y-98882457D02*
X240917945Y-98834838D01*
X240917945Y-98834838D02*
X240965564Y-98787219D01*
X240965564Y-98787219D02*
X240965564Y-98882457D01*
X240632231Y-99120552D02*
X240251279Y-99120552D01*
X240489374Y-98787219D02*
X240489374Y-99644361D01*
X240489374Y-99644361D02*
X240441755Y-99739600D01*
X240441755Y-99739600D02*
X240346517Y-99787219D01*
X240346517Y-99787219D02*
X240251279Y-99787219D01*
X239917945Y-99787219D02*
X239917945Y-98787219D01*
X239489374Y-99787219D02*
X239489374Y-99263409D01*
X239489374Y-99263409D02*
X239536993Y-99168171D01*
X239536993Y-99168171D02*
X239632231Y-99120552D01*
X239632231Y-99120552D02*
X239775088Y-99120552D01*
X239775088Y-99120552D02*
X239870326Y-99168171D01*
X239870326Y-99168171D02*
X239917945Y-99215790D01*
X238584612Y-99120552D02*
X238584612Y-99787219D01*
X239013183Y-99120552D02*
X239013183Y-99644361D01*
X239013183Y-99644361D02*
X238965564Y-99739600D01*
X238965564Y-99739600D02*
X238870326Y-99787219D01*
X238870326Y-99787219D02*
X238727469Y-99787219D01*
X238727469Y-99787219D02*
X238632231Y-99739600D01*
X238632231Y-99739600D02*
X238584612Y-99691980D01*
X238108421Y-99787219D02*
X238108421Y-98787219D01*
X238108421Y-99168171D02*
X238013183Y-99120552D01*
X238013183Y-99120552D02*
X237822707Y-99120552D01*
X237822707Y-99120552D02*
X237727469Y-99168171D01*
X237727469Y-99168171D02*
X237679850Y-99215790D01*
X237679850Y-99215790D02*
X237632231Y-99311028D01*
X237632231Y-99311028D02*
X237632231Y-99596742D01*
X237632231Y-99596742D02*
X237679850Y-99691980D01*
X237679850Y-99691980D02*
X237727469Y-99739600D01*
X237727469Y-99739600D02*
X237822707Y-99787219D01*
X237822707Y-99787219D02*
X238013183Y-99787219D01*
X238013183Y-99787219D02*
X238108421Y-99739600D01*
X237203659Y-99691980D02*
X237156040Y-99739600D01*
X237156040Y-99739600D02*
X237203659Y-99787219D01*
X237203659Y-99787219D02*
X237251278Y-99739600D01*
X237251278Y-99739600D02*
X237203659Y-99691980D01*
X237203659Y-99691980D02*
X237203659Y-99787219D01*
X236298898Y-99739600D02*
X236394136Y-99787219D01*
X236394136Y-99787219D02*
X236584612Y-99787219D01*
X236584612Y-99787219D02*
X236679850Y-99739600D01*
X236679850Y-99739600D02*
X236727469Y-99691980D01*
X236727469Y-99691980D02*
X236775088Y-99596742D01*
X236775088Y-99596742D02*
X236775088Y-99311028D01*
X236775088Y-99311028D02*
X236727469Y-99215790D01*
X236727469Y-99215790D02*
X236679850Y-99168171D01*
X236679850Y-99168171D02*
X236584612Y-99120552D01*
X236584612Y-99120552D02*
X236394136Y-99120552D01*
X236394136Y-99120552D02*
X236298898Y-99168171D01*
X235727469Y-99787219D02*
X235822707Y-99739600D01*
X235822707Y-99739600D02*
X235870326Y-99691980D01*
X235870326Y-99691980D02*
X235917945Y-99596742D01*
X235917945Y-99596742D02*
X235917945Y-99311028D01*
X235917945Y-99311028D02*
X235870326Y-99215790D01*
X235870326Y-99215790D02*
X235822707Y-99168171D01*
X235822707Y-99168171D02*
X235727469Y-99120552D01*
X235727469Y-99120552D02*
X235584612Y-99120552D01*
X235584612Y-99120552D02*
X235489374Y-99168171D01*
X235489374Y-99168171D02*
X235441755Y-99215790D01*
X235441755Y-99215790D02*
X235394136Y-99311028D01*
X235394136Y-99311028D02*
X235394136Y-99596742D01*
X235394136Y-99596742D02*
X235441755Y-99691980D01*
X235441755Y-99691980D02*
X235489374Y-99739600D01*
X235489374Y-99739600D02*
X235584612Y-99787219D01*
X235584612Y-99787219D02*
X235727469Y-99787219D01*
X234965564Y-99787219D02*
X234965564Y-99120552D01*
X234965564Y-99215790D02*
X234917945Y-99168171D01*
X234917945Y-99168171D02*
X234822707Y-99120552D01*
X234822707Y-99120552D02*
X234679850Y-99120552D01*
X234679850Y-99120552D02*
X234584612Y-99168171D01*
X234584612Y-99168171D02*
X234536993Y-99263409D01*
X234536993Y-99263409D02*
X234536993Y-99787219D01*
X234536993Y-99263409D02*
X234489374Y-99168171D01*
X234489374Y-99168171D02*
X234394136Y-99120552D01*
X234394136Y-99120552D02*
X234251279Y-99120552D01*
X234251279Y-99120552D02*
X234156040Y-99168171D01*
X234156040Y-99168171D02*
X234108421Y-99263409D01*
X234108421Y-99263409D02*
X234108421Y-99787219D01*
X232917946Y-98739600D02*
X233775088Y-100025314D01*
X232156041Y-99787219D02*
X232156041Y-99263409D01*
X232156041Y-99263409D02*
X232203660Y-99168171D01*
X232203660Y-99168171D02*
X232298898Y-99120552D01*
X232298898Y-99120552D02*
X232489374Y-99120552D01*
X232489374Y-99120552D02*
X232584612Y-99168171D01*
X232156041Y-99739600D02*
X232251279Y-99787219D01*
X232251279Y-99787219D02*
X232489374Y-99787219D01*
X232489374Y-99787219D02*
X232584612Y-99739600D01*
X232584612Y-99739600D02*
X232632231Y-99644361D01*
X232632231Y-99644361D02*
X232632231Y-99549123D01*
X232632231Y-99549123D02*
X232584612Y-99453885D01*
X232584612Y-99453885D02*
X232489374Y-99406266D01*
X232489374Y-99406266D02*
X232251279Y-99406266D01*
X232251279Y-99406266D02*
X232156041Y-99358647D01*
X231536993Y-99787219D02*
X231632231Y-99739600D01*
X231632231Y-99739600D02*
X231679850Y-99644361D01*
X231679850Y-99644361D02*
X231679850Y-98787219D01*
X230727469Y-99787219D02*
X230727469Y-99263409D01*
X230727469Y-99263409D02*
X230775088Y-99168171D01*
X230775088Y-99168171D02*
X230870326Y-99120552D01*
X230870326Y-99120552D02*
X231060802Y-99120552D01*
X231060802Y-99120552D02*
X231156040Y-99168171D01*
X230727469Y-99739600D02*
X230822707Y-99787219D01*
X230822707Y-99787219D02*
X231060802Y-99787219D01*
X231060802Y-99787219D02*
X231156040Y-99739600D01*
X231156040Y-99739600D02*
X231203659Y-99644361D01*
X231203659Y-99644361D02*
X231203659Y-99549123D01*
X231203659Y-99549123D02*
X231156040Y-99453885D01*
X231156040Y-99453885D02*
X231060802Y-99406266D01*
X231060802Y-99406266D02*
X230822707Y-99406266D01*
X230822707Y-99406266D02*
X230727469Y-99358647D01*
X230251278Y-99120552D02*
X230251278Y-99787219D01*
X230251278Y-99215790D02*
X230203659Y-99168171D01*
X230203659Y-99168171D02*
X230108421Y-99120552D01*
X230108421Y-99120552D02*
X229965564Y-99120552D01*
X229965564Y-99120552D02*
X229870326Y-99168171D01*
X229870326Y-99168171D02*
X229822707Y-99263409D01*
X229822707Y-99263409D02*
X229822707Y-99787219D01*
X228917945Y-99120552D02*
X228917945Y-99930076D01*
X228917945Y-99930076D02*
X228965564Y-100025314D01*
X228965564Y-100025314D02*
X229013183Y-100072933D01*
X229013183Y-100072933D02*
X229108421Y-100120552D01*
X229108421Y-100120552D02*
X229251278Y-100120552D01*
X229251278Y-100120552D02*
X229346516Y-100072933D01*
X228917945Y-99739600D02*
X229013183Y-99787219D01*
X229013183Y-99787219D02*
X229203659Y-99787219D01*
X229203659Y-99787219D02*
X229298897Y-99739600D01*
X229298897Y-99739600D02*
X229346516Y-99691980D01*
X229346516Y-99691980D02*
X229394135Y-99596742D01*
X229394135Y-99596742D02*
X229394135Y-99311028D01*
X229394135Y-99311028D02*
X229346516Y-99215790D01*
X229346516Y-99215790D02*
X229298897Y-99168171D01*
X229298897Y-99168171D02*
X229203659Y-99120552D01*
X229203659Y-99120552D02*
X229013183Y-99120552D01*
X229013183Y-99120552D02*
X228917945Y-99168171D01*
X228060802Y-99739600D02*
X228156040Y-99787219D01*
X228156040Y-99787219D02*
X228346516Y-99787219D01*
X228346516Y-99787219D02*
X228441754Y-99739600D01*
X228441754Y-99739600D02*
X228489373Y-99644361D01*
X228489373Y-99644361D02*
X228489373Y-99263409D01*
X228489373Y-99263409D02*
X228441754Y-99168171D01*
X228441754Y-99168171D02*
X228346516Y-99120552D01*
X228346516Y-99120552D02*
X228156040Y-99120552D01*
X228156040Y-99120552D02*
X228060802Y-99168171D01*
X228060802Y-99168171D02*
X228013183Y-99263409D01*
X228013183Y-99263409D02*
X228013183Y-99358647D01*
X228013183Y-99358647D02*
X228489373Y-99453885D01*
X227156040Y-99739600D02*
X227251278Y-99787219D01*
X227251278Y-99787219D02*
X227441754Y-99787219D01*
X227441754Y-99787219D02*
X227536992Y-99739600D01*
X227536992Y-99739600D02*
X227584611Y-99691980D01*
X227584611Y-99691980D02*
X227632230Y-99596742D01*
X227632230Y-99596742D02*
X227632230Y-99311028D01*
X227632230Y-99311028D02*
X227584611Y-99215790D01*
X227584611Y-99215790D02*
X227536992Y-99168171D01*
X227536992Y-99168171D02*
X227441754Y-99120552D01*
X227441754Y-99120552D02*
X227251278Y-99120552D01*
X227251278Y-99120552D02*
X227156040Y-99168171D01*
X226727468Y-99787219D02*
X226727468Y-98787219D01*
X226632230Y-99406266D02*
X226346516Y-99787219D01*
X226346516Y-99120552D02*
X226727468Y-99501504D01*
X225536992Y-99739600D02*
X225632230Y-99787219D01*
X225632230Y-99787219D02*
X225822706Y-99787219D01*
X225822706Y-99787219D02*
X225917944Y-99739600D01*
X225917944Y-99739600D02*
X225965563Y-99644361D01*
X225965563Y-99644361D02*
X225965563Y-99263409D01*
X225965563Y-99263409D02*
X225917944Y-99168171D01*
X225917944Y-99168171D02*
X225822706Y-99120552D01*
X225822706Y-99120552D02*
X225632230Y-99120552D01*
X225632230Y-99120552D02*
X225536992Y-99168171D01*
X225536992Y-99168171D02*
X225489373Y-99263409D01*
X225489373Y-99263409D02*
X225489373Y-99358647D01*
X225489373Y-99358647D02*
X225965563Y-99453885D01*
X225060801Y-99787219D02*
X225060801Y-99120552D01*
X225060801Y-99311028D02*
X225013182Y-99215790D01*
X225013182Y-99215790D02*
X224965563Y-99168171D01*
X224965563Y-99168171D02*
X224870325Y-99120552D01*
X224870325Y-99120552D02*
X224775087Y-99120552D01*
X223727468Y-98739600D02*
X224584610Y-100025314D01*
X223441753Y-99739600D02*
X223346515Y-99787219D01*
X223346515Y-99787219D02*
X223156039Y-99787219D01*
X223156039Y-99787219D02*
X223060801Y-99739600D01*
X223060801Y-99739600D02*
X223013182Y-99644361D01*
X223013182Y-99644361D02*
X223013182Y-99596742D01*
X223013182Y-99596742D02*
X223060801Y-99501504D01*
X223060801Y-99501504D02*
X223156039Y-99453885D01*
X223156039Y-99453885D02*
X223298896Y-99453885D01*
X223298896Y-99453885D02*
X223394134Y-99406266D01*
X223394134Y-99406266D02*
X223441753Y-99311028D01*
X223441753Y-99311028D02*
X223441753Y-99263409D01*
X223441753Y-99263409D02*
X223394134Y-99168171D01*
X223394134Y-99168171D02*
X223298896Y-99120552D01*
X223298896Y-99120552D02*
X223156039Y-99120552D01*
X223156039Y-99120552D02*
X223060801Y-99168171D01*
X222584610Y-99787219D02*
X222584610Y-99120552D01*
X222584610Y-98787219D02*
X222632229Y-98834838D01*
X222632229Y-98834838D02*
X222584610Y-98882457D01*
X222584610Y-98882457D02*
X222536991Y-98834838D01*
X222536991Y-98834838D02*
X222584610Y-98787219D01*
X222584610Y-98787219D02*
X222584610Y-98882457D01*
X221679849Y-99739600D02*
X221775087Y-99787219D01*
X221775087Y-99787219D02*
X221965563Y-99787219D01*
X221965563Y-99787219D02*
X222060801Y-99739600D01*
X222060801Y-99739600D02*
X222108420Y-99691980D01*
X222108420Y-99691980D02*
X222156039Y-99596742D01*
X222156039Y-99596742D02*
X222156039Y-99311028D01*
X222156039Y-99311028D02*
X222108420Y-99215790D01*
X222108420Y-99215790D02*
X222060801Y-99168171D01*
X222060801Y-99168171D02*
X221965563Y-99120552D01*
X221965563Y-99120552D02*
X221775087Y-99120552D01*
X221775087Y-99120552D02*
X221679849Y-99168171D01*
X221251277Y-99787219D02*
X221251277Y-98787219D01*
X221156039Y-99406266D02*
X220870325Y-99787219D01*
X220870325Y-99120552D02*
X221251277Y-99501504D01*
X220441753Y-99406266D02*
X219679849Y-99406266D01*
X219251277Y-99739600D02*
X219156039Y-99787219D01*
X219156039Y-99787219D02*
X218965563Y-99787219D01*
X218965563Y-99787219D02*
X218870325Y-99739600D01*
X218870325Y-99739600D02*
X218822706Y-99644361D01*
X218822706Y-99644361D02*
X218822706Y-99596742D01*
X218822706Y-99596742D02*
X218870325Y-99501504D01*
X218870325Y-99501504D02*
X218965563Y-99453885D01*
X218965563Y-99453885D02*
X219108420Y-99453885D01*
X219108420Y-99453885D02*
X219203658Y-99406266D01*
X219203658Y-99406266D02*
X219251277Y-99311028D01*
X219251277Y-99311028D02*
X219251277Y-99263409D01*
X219251277Y-99263409D02*
X219203658Y-99168171D01*
X219203658Y-99168171D02*
X219108420Y-99120552D01*
X219108420Y-99120552D02*
X218965563Y-99120552D01*
X218965563Y-99120552D02*
X218870325Y-99168171D01*
X218394134Y-99120552D02*
X218394134Y-100120552D01*
X218394134Y-99168171D02*
X218298896Y-99120552D01*
X218298896Y-99120552D02*
X218108420Y-99120552D01*
X218108420Y-99120552D02*
X218013182Y-99168171D01*
X218013182Y-99168171D02*
X217965563Y-99215790D01*
X217965563Y-99215790D02*
X217917944Y-99311028D01*
X217917944Y-99311028D02*
X217917944Y-99596742D01*
X217917944Y-99596742D02*
X217965563Y-99691980D01*
X217965563Y-99691980D02*
X218013182Y-99739600D01*
X218013182Y-99739600D02*
X218108420Y-99787219D01*
X218108420Y-99787219D02*
X218298896Y-99787219D01*
X218298896Y-99787219D02*
X218394134Y-99739600D01*
X217489372Y-99787219D02*
X217489372Y-99120552D01*
X217489372Y-98787219D02*
X217536991Y-98834838D01*
X217536991Y-98834838D02*
X217489372Y-98882457D01*
X217489372Y-98882457D02*
X217441753Y-98834838D01*
X217441753Y-98834838D02*
X217489372Y-98787219D01*
X217489372Y-98787219D02*
X217489372Y-98882457D01*
X216584611Y-99787219D02*
X216584611Y-98787219D01*
X216584611Y-99739600D02*
X216679849Y-99787219D01*
X216679849Y-99787219D02*
X216870325Y-99787219D01*
X216870325Y-99787219D02*
X216965563Y-99739600D01*
X216965563Y-99739600D02*
X217013182Y-99691980D01*
X217013182Y-99691980D02*
X217060801Y-99596742D01*
X217060801Y-99596742D02*
X217060801Y-99311028D01*
X217060801Y-99311028D02*
X217013182Y-99215790D01*
X217013182Y-99215790D02*
X216965563Y-99168171D01*
X216965563Y-99168171D02*
X216870325Y-99120552D01*
X216870325Y-99120552D02*
X216679849Y-99120552D01*
X216679849Y-99120552D02*
X216584611Y-99168171D01*
X215727468Y-99739600D02*
X215822706Y-99787219D01*
X215822706Y-99787219D02*
X216013182Y-99787219D01*
X216013182Y-99787219D02*
X216108420Y-99739600D01*
X216108420Y-99739600D02*
X216156039Y-99644361D01*
X216156039Y-99644361D02*
X216156039Y-99263409D01*
X216156039Y-99263409D02*
X216108420Y-99168171D01*
X216108420Y-99168171D02*
X216013182Y-99120552D01*
X216013182Y-99120552D02*
X215822706Y-99120552D01*
X215822706Y-99120552D02*
X215727468Y-99168171D01*
X215727468Y-99168171D02*
X215679849Y-99263409D01*
X215679849Y-99263409D02*
X215679849Y-99358647D01*
X215679849Y-99358647D02*
X216156039Y-99453885D01*
X215251277Y-99787219D02*
X215251277Y-99120552D01*
X215251277Y-99311028D02*
X215203658Y-99215790D01*
X215203658Y-99215790D02*
X215156039Y-99168171D01*
X215156039Y-99168171D02*
X215060801Y-99120552D01*
X215060801Y-99120552D02*
X214965563Y-99120552D01*
D11*
X202470870Y-89719417D02*
X202470870Y-88719417D01*
X202470870Y-89100369D02*
X202380394Y-89052750D01*
X202380394Y-89052750D02*
X202199441Y-89052750D01*
X202199441Y-89052750D02*
X202108965Y-89100369D01*
X202108965Y-89100369D02*
X202063727Y-89147988D01*
X202063727Y-89147988D02*
X202018489Y-89243226D01*
X202018489Y-89243226D02*
X202018489Y-89528940D01*
X202018489Y-89528940D02*
X202063727Y-89624178D01*
X202063727Y-89624178D02*
X202108965Y-89671798D01*
X202108965Y-89671798D02*
X202199441Y-89719417D01*
X202199441Y-89719417D02*
X202380394Y-89719417D01*
X202380394Y-89719417D02*
X202470870Y-89671798D01*
X201204203Y-89719417D02*
X201204203Y-89195607D01*
X201204203Y-89195607D02*
X201249441Y-89100369D01*
X201249441Y-89100369D02*
X201339917Y-89052750D01*
X201339917Y-89052750D02*
X201520870Y-89052750D01*
X201520870Y-89052750D02*
X201611346Y-89100369D01*
X201204203Y-89671798D02*
X201294679Y-89719417D01*
X201294679Y-89719417D02*
X201520870Y-89719417D01*
X201520870Y-89719417D02*
X201611346Y-89671798D01*
X201611346Y-89671798D02*
X201656584Y-89576559D01*
X201656584Y-89576559D02*
X201656584Y-89481321D01*
X201656584Y-89481321D02*
X201611346Y-89386083D01*
X201611346Y-89386083D02*
X201520870Y-89338464D01*
X201520870Y-89338464D02*
X201294679Y-89338464D01*
X201294679Y-89338464D02*
X201204203Y-89290845D01*
X200797060Y-89671798D02*
X200706584Y-89719417D01*
X200706584Y-89719417D02*
X200525632Y-89719417D01*
X200525632Y-89719417D02*
X200435155Y-89671798D01*
X200435155Y-89671798D02*
X200389917Y-89576559D01*
X200389917Y-89576559D02*
X200389917Y-89528940D01*
X200389917Y-89528940D02*
X200435155Y-89433702D01*
X200435155Y-89433702D02*
X200525632Y-89386083D01*
X200525632Y-89386083D02*
X200661346Y-89386083D01*
X200661346Y-89386083D02*
X200751822Y-89338464D01*
X200751822Y-89338464D02*
X200797060Y-89243226D01*
X200797060Y-89243226D02*
X200797060Y-89195607D01*
X200797060Y-89195607D02*
X200751822Y-89100369D01*
X200751822Y-89100369D02*
X200661346Y-89052750D01*
X200661346Y-89052750D02*
X200525632Y-89052750D01*
X200525632Y-89052750D02*
X200435155Y-89100369D01*
X199620869Y-89671798D02*
X199711345Y-89719417D01*
X199711345Y-89719417D02*
X199892298Y-89719417D01*
X199892298Y-89719417D02*
X199982774Y-89671798D01*
X199982774Y-89671798D02*
X200028012Y-89576559D01*
X200028012Y-89576559D02*
X200028012Y-89195607D01*
X200028012Y-89195607D02*
X199982774Y-89100369D01*
X199982774Y-89100369D02*
X199892298Y-89052750D01*
X199892298Y-89052750D02*
X199711345Y-89052750D01*
X199711345Y-89052750D02*
X199620869Y-89100369D01*
X199620869Y-89100369D02*
X199575631Y-89195607D01*
X199575631Y-89195607D02*
X199575631Y-89290845D01*
X199575631Y-89290845D02*
X200028012Y-89386083D01*
X198761345Y-89719417D02*
X198761345Y-88719417D01*
X198761345Y-89671798D02*
X198851821Y-89719417D01*
X198851821Y-89719417D02*
X199032774Y-89719417D01*
X199032774Y-89719417D02*
X199123250Y-89671798D01*
X199123250Y-89671798D02*
X199168488Y-89624178D01*
X199168488Y-89624178D02*
X199213726Y-89528940D01*
X199213726Y-89528940D02*
X199213726Y-89243226D01*
X199213726Y-89243226D02*
X199168488Y-89147988D01*
X199168488Y-89147988D02*
X199123250Y-89100369D01*
X199123250Y-89100369D02*
X199032774Y-89052750D01*
X199032774Y-89052750D02*
X198851821Y-89052750D01*
X198851821Y-89052750D02*
X198761345Y-89100369D01*
X197449440Y-89719417D02*
X197539916Y-89671798D01*
X197539916Y-89671798D02*
X197585154Y-89624178D01*
X197585154Y-89624178D02*
X197630392Y-89528940D01*
X197630392Y-89528940D02*
X197630392Y-89243226D01*
X197630392Y-89243226D02*
X197585154Y-89147988D01*
X197585154Y-89147988D02*
X197539916Y-89100369D01*
X197539916Y-89100369D02*
X197449440Y-89052750D01*
X197449440Y-89052750D02*
X197313725Y-89052750D01*
X197313725Y-89052750D02*
X197223249Y-89100369D01*
X197223249Y-89100369D02*
X197178011Y-89147988D01*
X197178011Y-89147988D02*
X197132773Y-89243226D01*
X197132773Y-89243226D02*
X197132773Y-89528940D01*
X197132773Y-89528940D02*
X197178011Y-89624178D01*
X197178011Y-89624178D02*
X197223249Y-89671798D01*
X197223249Y-89671798D02*
X197313725Y-89719417D01*
X197313725Y-89719417D02*
X197449440Y-89719417D01*
X196725630Y-89052750D02*
X196725630Y-89719417D01*
X196725630Y-89147988D02*
X196680392Y-89100369D01*
X196680392Y-89100369D02*
X196589916Y-89052750D01*
X196589916Y-89052750D02*
X196454201Y-89052750D01*
X196454201Y-89052750D02*
X196363725Y-89100369D01*
X196363725Y-89100369D02*
X196318487Y-89195607D01*
X196318487Y-89195607D02*
X196318487Y-89719417D01*
X195278010Y-89052750D02*
X194916106Y-89052750D01*
X195142296Y-88719417D02*
X195142296Y-89576559D01*
X195142296Y-89576559D02*
X195097058Y-89671798D01*
X195097058Y-89671798D02*
X195006582Y-89719417D01*
X195006582Y-89719417D02*
X194916106Y-89719417D01*
X194599439Y-89719417D02*
X194599439Y-88719417D01*
X194192296Y-89719417D02*
X194192296Y-89195607D01*
X194192296Y-89195607D02*
X194237534Y-89100369D01*
X194237534Y-89100369D02*
X194328010Y-89052750D01*
X194328010Y-89052750D02*
X194463725Y-89052750D01*
X194463725Y-89052750D02*
X194554201Y-89100369D01*
X194554201Y-89100369D02*
X194599439Y-89147988D01*
X193378010Y-89671798D02*
X193468486Y-89719417D01*
X193468486Y-89719417D02*
X193649439Y-89719417D01*
X193649439Y-89719417D02*
X193739915Y-89671798D01*
X193739915Y-89671798D02*
X193785153Y-89576559D01*
X193785153Y-89576559D02*
X193785153Y-89195607D01*
X193785153Y-89195607D02*
X193739915Y-89100369D01*
X193739915Y-89100369D02*
X193649439Y-89052750D01*
X193649439Y-89052750D02*
X193468486Y-89052750D01*
X193468486Y-89052750D02*
X193378010Y-89100369D01*
X193378010Y-89100369D02*
X193332772Y-89195607D01*
X193332772Y-89195607D02*
X193332772Y-89290845D01*
X193332772Y-89290845D02*
X193785153Y-89386083D01*
X200887536Y-91329361D02*
X200887536Y-90662694D01*
X200887536Y-90329361D02*
X200932774Y-90376980D01*
X200932774Y-90376980D02*
X200887536Y-90424599D01*
X200887536Y-90424599D02*
X200842298Y-90376980D01*
X200842298Y-90376980D02*
X200887536Y-90329361D01*
X200887536Y-90329361D02*
X200887536Y-90424599D01*
X200435155Y-90662694D02*
X200435155Y-91329361D01*
X200435155Y-90757932D02*
X200389917Y-90710313D01*
X200389917Y-90710313D02*
X200299441Y-90662694D01*
X200299441Y-90662694D02*
X200163726Y-90662694D01*
X200163726Y-90662694D02*
X200073250Y-90710313D01*
X200073250Y-90710313D02*
X200028012Y-90805551D01*
X200028012Y-90805551D02*
X200028012Y-91329361D01*
X199620869Y-91281742D02*
X199530393Y-91329361D01*
X199530393Y-91329361D02*
X199349441Y-91329361D01*
X199349441Y-91329361D02*
X199258964Y-91281742D01*
X199258964Y-91281742D02*
X199213726Y-91186503D01*
X199213726Y-91186503D02*
X199213726Y-91138884D01*
X199213726Y-91138884D02*
X199258964Y-91043646D01*
X199258964Y-91043646D02*
X199349441Y-90996027D01*
X199349441Y-90996027D02*
X199485155Y-90996027D01*
X199485155Y-90996027D02*
X199575631Y-90948408D01*
X199575631Y-90948408D02*
X199620869Y-90853170D01*
X199620869Y-90853170D02*
X199620869Y-90805551D01*
X199620869Y-90805551D02*
X199575631Y-90710313D01*
X199575631Y-90710313D02*
X199485155Y-90662694D01*
X199485155Y-90662694D02*
X199349441Y-90662694D01*
X199349441Y-90662694D02*
X199258964Y-90710313D01*
X198806583Y-90662694D02*
X198806583Y-91662694D01*
X198806583Y-90710313D02*
X198716107Y-90662694D01*
X198716107Y-90662694D02*
X198535154Y-90662694D01*
X198535154Y-90662694D02*
X198444678Y-90710313D01*
X198444678Y-90710313D02*
X198399440Y-90757932D01*
X198399440Y-90757932D02*
X198354202Y-90853170D01*
X198354202Y-90853170D02*
X198354202Y-91138884D01*
X198354202Y-91138884D02*
X198399440Y-91234122D01*
X198399440Y-91234122D02*
X198444678Y-91281742D01*
X198444678Y-91281742D02*
X198535154Y-91329361D01*
X198535154Y-91329361D02*
X198716107Y-91329361D01*
X198716107Y-91329361D02*
X198806583Y-91281742D01*
X197947059Y-91329361D02*
X197947059Y-90662694D01*
X197947059Y-90329361D02*
X197992297Y-90376980D01*
X197992297Y-90376980D02*
X197947059Y-90424599D01*
X197947059Y-90424599D02*
X197901821Y-90376980D01*
X197901821Y-90376980D02*
X197947059Y-90329361D01*
X197947059Y-90329361D02*
X197947059Y-90424599D01*
X197494678Y-91329361D02*
X197494678Y-90662694D01*
X197494678Y-90853170D02*
X197449440Y-90757932D01*
X197449440Y-90757932D02*
X197404202Y-90710313D01*
X197404202Y-90710313D02*
X197313726Y-90662694D01*
X197313726Y-90662694D02*
X197223249Y-90662694D01*
X196544678Y-91281742D02*
X196635154Y-91329361D01*
X196635154Y-91329361D02*
X196816107Y-91329361D01*
X196816107Y-91329361D02*
X196906583Y-91281742D01*
X196906583Y-91281742D02*
X196951821Y-91186503D01*
X196951821Y-91186503D02*
X196951821Y-90805551D01*
X196951821Y-90805551D02*
X196906583Y-90710313D01*
X196906583Y-90710313D02*
X196816107Y-90662694D01*
X196816107Y-90662694D02*
X196635154Y-90662694D01*
X196635154Y-90662694D02*
X196544678Y-90710313D01*
X196544678Y-90710313D02*
X196499440Y-90805551D01*
X196499440Y-90805551D02*
X196499440Y-90900789D01*
X196499440Y-90900789D02*
X196951821Y-90996027D01*
X195685154Y-91329361D02*
X195685154Y-90329361D01*
X195685154Y-91281742D02*
X195775630Y-91329361D01*
X195775630Y-91329361D02*
X195956583Y-91329361D01*
X195956583Y-91329361D02*
X196047059Y-91281742D01*
X196047059Y-91281742D02*
X196092297Y-91234122D01*
X196092297Y-91234122D02*
X196137535Y-91138884D01*
X196137535Y-91138884D02*
X196137535Y-90853170D01*
X196137535Y-90853170D02*
X196092297Y-90757932D01*
X196092297Y-90757932D02*
X196047059Y-90710313D01*
X196047059Y-90710313D02*
X195956583Y-90662694D01*
X195956583Y-90662694D02*
X195775630Y-90662694D01*
X195775630Y-90662694D02*
X195685154Y-90710313D01*
X194508963Y-91329361D02*
X194508963Y-90329361D01*
X194508963Y-90710313D02*
X194418487Y-90662694D01*
X194418487Y-90662694D02*
X194237534Y-90662694D01*
X194237534Y-90662694D02*
X194147058Y-90710313D01*
X194147058Y-90710313D02*
X194101820Y-90757932D01*
X194101820Y-90757932D02*
X194056582Y-90853170D01*
X194056582Y-90853170D02*
X194056582Y-91138884D01*
X194056582Y-91138884D02*
X194101820Y-91234122D01*
X194101820Y-91234122D02*
X194147058Y-91281742D01*
X194147058Y-91281742D02*
X194237534Y-91329361D01*
X194237534Y-91329361D02*
X194418487Y-91329361D01*
X194418487Y-91329361D02*
X194508963Y-91281742D01*
X193739915Y-90662694D02*
X193513725Y-91329361D01*
X193287534Y-90662694D02*
X193513725Y-91329361D01*
X193513725Y-91329361D02*
X193604201Y-91567456D01*
X193604201Y-91567456D02*
X193649439Y-91615075D01*
X193649439Y-91615075D02*
X193739915Y-91662694D01*
X208939919Y-92891686D02*
X208804205Y-92939305D01*
X208804205Y-92939305D02*
X208578014Y-92939305D01*
X208578014Y-92939305D02*
X208487538Y-92891686D01*
X208487538Y-92891686D02*
X208442300Y-92844066D01*
X208442300Y-92844066D02*
X208397062Y-92748828D01*
X208397062Y-92748828D02*
X208397062Y-92653590D01*
X208397062Y-92653590D02*
X208442300Y-92558352D01*
X208442300Y-92558352D02*
X208487538Y-92510733D01*
X208487538Y-92510733D02*
X208578014Y-92463114D01*
X208578014Y-92463114D02*
X208758967Y-92415495D01*
X208758967Y-92415495D02*
X208849443Y-92367876D01*
X208849443Y-92367876D02*
X208894681Y-92320257D01*
X208894681Y-92320257D02*
X208939919Y-92225019D01*
X208939919Y-92225019D02*
X208939919Y-92129781D01*
X208939919Y-92129781D02*
X208894681Y-92034543D01*
X208894681Y-92034543D02*
X208849443Y-91986924D01*
X208849443Y-91986924D02*
X208758967Y-91939305D01*
X208758967Y-91939305D02*
X208532776Y-91939305D01*
X208532776Y-91939305D02*
X208397062Y-91986924D01*
X207989919Y-92939305D02*
X207989919Y-91939305D01*
X206994681Y-92844066D02*
X207039919Y-92891686D01*
X207039919Y-92891686D02*
X207175633Y-92939305D01*
X207175633Y-92939305D02*
X207266109Y-92939305D01*
X207266109Y-92939305D02*
X207401824Y-92891686D01*
X207401824Y-92891686D02*
X207492300Y-92796447D01*
X207492300Y-92796447D02*
X207537538Y-92701209D01*
X207537538Y-92701209D02*
X207582776Y-92510733D01*
X207582776Y-92510733D02*
X207582776Y-92367876D01*
X207582776Y-92367876D02*
X207537538Y-92177400D01*
X207537538Y-92177400D02*
X207492300Y-92082162D01*
X207492300Y-92082162D02*
X207401824Y-91986924D01*
X207401824Y-91986924D02*
X207266109Y-91939305D01*
X207266109Y-91939305D02*
X207175633Y-91939305D01*
X207175633Y-91939305D02*
X207039919Y-91986924D01*
X207039919Y-91986924D02*
X206994681Y-92034543D01*
X206587538Y-92939305D02*
X206587538Y-91939305D01*
X206044681Y-92939305D02*
X206451824Y-92367876D01*
X206044681Y-91939305D02*
X206587538Y-92510733D01*
X204958966Y-92891686D02*
X204868490Y-92939305D01*
X204868490Y-92939305D02*
X204687538Y-92939305D01*
X204687538Y-92939305D02*
X204597061Y-92891686D01*
X204597061Y-92891686D02*
X204551823Y-92796447D01*
X204551823Y-92796447D02*
X204551823Y-92748828D01*
X204551823Y-92748828D02*
X204597061Y-92653590D01*
X204597061Y-92653590D02*
X204687538Y-92605971D01*
X204687538Y-92605971D02*
X204823252Y-92605971D01*
X204823252Y-92605971D02*
X204913728Y-92558352D01*
X204913728Y-92558352D02*
X204958966Y-92463114D01*
X204958966Y-92463114D02*
X204958966Y-92415495D01*
X204958966Y-92415495D02*
X204913728Y-92320257D01*
X204913728Y-92320257D02*
X204823252Y-92272638D01*
X204823252Y-92272638D02*
X204687538Y-92272638D01*
X204687538Y-92272638D02*
X204597061Y-92320257D01*
X204144680Y-92272638D02*
X204144680Y-93272638D01*
X204144680Y-92320257D02*
X204054204Y-92272638D01*
X204054204Y-92272638D02*
X203873251Y-92272638D01*
X203873251Y-92272638D02*
X203782775Y-92320257D01*
X203782775Y-92320257D02*
X203737537Y-92367876D01*
X203737537Y-92367876D02*
X203692299Y-92463114D01*
X203692299Y-92463114D02*
X203692299Y-92748828D01*
X203692299Y-92748828D02*
X203737537Y-92844066D01*
X203737537Y-92844066D02*
X203782775Y-92891686D01*
X203782775Y-92891686D02*
X203873251Y-92939305D01*
X203873251Y-92939305D02*
X204054204Y-92939305D01*
X204054204Y-92939305D02*
X204144680Y-92891686D01*
X203285156Y-92939305D02*
X203285156Y-92272638D01*
X203285156Y-91939305D02*
X203330394Y-91986924D01*
X203330394Y-91986924D02*
X203285156Y-92034543D01*
X203285156Y-92034543D02*
X203239918Y-91986924D01*
X203239918Y-91986924D02*
X203285156Y-91939305D01*
X203285156Y-91939305D02*
X203285156Y-92034543D01*
X202425632Y-92939305D02*
X202425632Y-91939305D01*
X202425632Y-92891686D02*
X202516108Y-92939305D01*
X202516108Y-92939305D02*
X202697061Y-92939305D01*
X202697061Y-92939305D02*
X202787537Y-92891686D01*
X202787537Y-92891686D02*
X202832775Y-92844066D01*
X202832775Y-92844066D02*
X202878013Y-92748828D01*
X202878013Y-92748828D02*
X202878013Y-92463114D01*
X202878013Y-92463114D02*
X202832775Y-92367876D01*
X202832775Y-92367876D02*
X202787537Y-92320257D01*
X202787537Y-92320257D02*
X202697061Y-92272638D01*
X202697061Y-92272638D02*
X202516108Y-92272638D01*
X202516108Y-92272638D02*
X202425632Y-92320257D01*
X201611346Y-92891686D02*
X201701822Y-92939305D01*
X201701822Y-92939305D02*
X201882775Y-92939305D01*
X201882775Y-92939305D02*
X201973251Y-92891686D01*
X201973251Y-92891686D02*
X202018489Y-92796447D01*
X202018489Y-92796447D02*
X202018489Y-92415495D01*
X202018489Y-92415495D02*
X201973251Y-92320257D01*
X201973251Y-92320257D02*
X201882775Y-92272638D01*
X201882775Y-92272638D02*
X201701822Y-92272638D01*
X201701822Y-92272638D02*
X201611346Y-92320257D01*
X201611346Y-92320257D02*
X201566108Y-92415495D01*
X201566108Y-92415495D02*
X201566108Y-92510733D01*
X201566108Y-92510733D02*
X202018489Y-92605971D01*
X201158965Y-92939305D02*
X201158965Y-92272638D01*
X201158965Y-92463114D02*
X201113727Y-92367876D01*
X201113727Y-92367876D02*
X201068489Y-92320257D01*
X201068489Y-92320257D02*
X200978013Y-92272638D01*
X200978013Y-92272638D02*
X200887536Y-92272638D01*
X199439917Y-92939305D02*
X199439917Y-91939305D01*
X199439917Y-92891686D02*
X199530393Y-92939305D01*
X199530393Y-92939305D02*
X199711346Y-92939305D01*
X199711346Y-92939305D02*
X199801822Y-92891686D01*
X199801822Y-92891686D02*
X199847060Y-92844066D01*
X199847060Y-92844066D02*
X199892298Y-92748828D01*
X199892298Y-92748828D02*
X199892298Y-92463114D01*
X199892298Y-92463114D02*
X199847060Y-92367876D01*
X199847060Y-92367876D02*
X199801822Y-92320257D01*
X199801822Y-92320257D02*
X199711346Y-92272638D01*
X199711346Y-92272638D02*
X199530393Y-92272638D01*
X199530393Y-92272638D02*
X199439917Y-92320257D01*
X198625631Y-92891686D02*
X198716107Y-92939305D01*
X198716107Y-92939305D02*
X198897060Y-92939305D01*
X198897060Y-92939305D02*
X198987536Y-92891686D01*
X198987536Y-92891686D02*
X199032774Y-92796447D01*
X199032774Y-92796447D02*
X199032774Y-92415495D01*
X199032774Y-92415495D02*
X198987536Y-92320257D01*
X198987536Y-92320257D02*
X198897060Y-92272638D01*
X198897060Y-92272638D02*
X198716107Y-92272638D01*
X198716107Y-92272638D02*
X198625631Y-92320257D01*
X198625631Y-92320257D02*
X198580393Y-92415495D01*
X198580393Y-92415495D02*
X198580393Y-92510733D01*
X198580393Y-92510733D02*
X199032774Y-92605971D01*
X198218488Y-92891686D02*
X198128012Y-92939305D01*
X198128012Y-92939305D02*
X197947060Y-92939305D01*
X197947060Y-92939305D02*
X197856583Y-92891686D01*
X197856583Y-92891686D02*
X197811345Y-92796447D01*
X197811345Y-92796447D02*
X197811345Y-92748828D01*
X197811345Y-92748828D02*
X197856583Y-92653590D01*
X197856583Y-92653590D02*
X197947060Y-92605971D01*
X197947060Y-92605971D02*
X198082774Y-92605971D01*
X198082774Y-92605971D02*
X198173250Y-92558352D01*
X198173250Y-92558352D02*
X198218488Y-92463114D01*
X198218488Y-92463114D02*
X198218488Y-92415495D01*
X198218488Y-92415495D02*
X198173250Y-92320257D01*
X198173250Y-92320257D02*
X198082774Y-92272638D01*
X198082774Y-92272638D02*
X197947060Y-92272638D01*
X197947060Y-92272638D02*
X197856583Y-92320257D01*
X197404202Y-92939305D02*
X197404202Y-92272638D01*
X197404202Y-91939305D02*
X197449440Y-91986924D01*
X197449440Y-91986924D02*
X197404202Y-92034543D01*
X197404202Y-92034543D02*
X197358964Y-91986924D01*
X197358964Y-91986924D02*
X197404202Y-91939305D01*
X197404202Y-91939305D02*
X197404202Y-92034543D01*
X196544678Y-92272638D02*
X196544678Y-93082162D01*
X196544678Y-93082162D02*
X196589916Y-93177400D01*
X196589916Y-93177400D02*
X196635154Y-93225019D01*
X196635154Y-93225019D02*
X196725631Y-93272638D01*
X196725631Y-93272638D02*
X196861345Y-93272638D01*
X196861345Y-93272638D02*
X196951821Y-93225019D01*
X196544678Y-92891686D02*
X196635154Y-92939305D01*
X196635154Y-92939305D02*
X196816107Y-92939305D01*
X196816107Y-92939305D02*
X196906583Y-92891686D01*
X196906583Y-92891686D02*
X196951821Y-92844066D01*
X196951821Y-92844066D02*
X196997059Y-92748828D01*
X196997059Y-92748828D02*
X196997059Y-92463114D01*
X196997059Y-92463114D02*
X196951821Y-92367876D01*
X196951821Y-92367876D02*
X196906583Y-92320257D01*
X196906583Y-92320257D02*
X196816107Y-92272638D01*
X196816107Y-92272638D02*
X196635154Y-92272638D01*
X196635154Y-92272638D02*
X196544678Y-92320257D01*
X196092297Y-92272638D02*
X196092297Y-92939305D01*
X196092297Y-92367876D02*
X196047059Y-92320257D01*
X196047059Y-92320257D02*
X195956583Y-92272638D01*
X195956583Y-92272638D02*
X195820868Y-92272638D01*
X195820868Y-92272638D02*
X195730392Y-92320257D01*
X195730392Y-92320257D02*
X195685154Y-92415495D01*
X195685154Y-92415495D02*
X195685154Y-92939305D01*
X194508963Y-92939305D02*
X194508963Y-91939305D01*
X194508963Y-92320257D02*
X194418487Y-92272638D01*
X194418487Y-92272638D02*
X194237534Y-92272638D01*
X194237534Y-92272638D02*
X194147058Y-92320257D01*
X194147058Y-92320257D02*
X194101820Y-92367876D01*
X194101820Y-92367876D02*
X194056582Y-92463114D01*
X194056582Y-92463114D02*
X194056582Y-92748828D01*
X194056582Y-92748828D02*
X194101820Y-92844066D01*
X194101820Y-92844066D02*
X194147058Y-92891686D01*
X194147058Y-92891686D02*
X194237534Y-92939305D01*
X194237534Y-92939305D02*
X194418487Y-92939305D01*
X194418487Y-92939305D02*
X194508963Y-92891686D01*
X193739915Y-92272638D02*
X193513725Y-92939305D01*
X193287534Y-92272638D02*
X193513725Y-92939305D01*
X193513725Y-92939305D02*
X193604201Y-93177400D01*
X193604201Y-93177400D02*
X193649439Y-93225019D01*
X193649439Y-93225019D02*
X193739915Y-93272638D01*
X206135155Y-93882582D02*
X205954203Y-94549249D01*
X205954203Y-94549249D02*
X205773250Y-94073058D01*
X205773250Y-94073058D02*
X205592298Y-94549249D01*
X205592298Y-94549249D02*
X205411346Y-93882582D01*
X205049441Y-94549249D02*
X205049441Y-93882582D01*
X205049441Y-93549249D02*
X205094679Y-93596868D01*
X205094679Y-93596868D02*
X205049441Y-93644487D01*
X205049441Y-93644487D02*
X205004203Y-93596868D01*
X205004203Y-93596868D02*
X205049441Y-93549249D01*
X205049441Y-93549249D02*
X205049441Y-93644487D01*
X204732774Y-93882582D02*
X204370870Y-93882582D01*
X204597060Y-93549249D02*
X204597060Y-94406391D01*
X204597060Y-94406391D02*
X204551822Y-94501630D01*
X204551822Y-94501630D02*
X204461346Y-94549249D01*
X204461346Y-94549249D02*
X204370870Y-94549249D01*
X204054203Y-94549249D02*
X204054203Y-93549249D01*
X203647060Y-94549249D02*
X203647060Y-94025439D01*
X203647060Y-94025439D02*
X203692298Y-93930201D01*
X203692298Y-93930201D02*
X203782774Y-93882582D01*
X203782774Y-93882582D02*
X203918489Y-93882582D01*
X203918489Y-93882582D02*
X204008965Y-93930201D01*
X204008965Y-93930201D02*
X204054203Y-93977820D01*
X202063726Y-93882582D02*
X202063726Y-94692106D01*
X202063726Y-94692106D02*
X202108964Y-94787344D01*
X202108964Y-94787344D02*
X202154202Y-94834963D01*
X202154202Y-94834963D02*
X202244679Y-94882582D01*
X202244679Y-94882582D02*
X202380393Y-94882582D01*
X202380393Y-94882582D02*
X202470869Y-94834963D01*
X202063726Y-94501630D02*
X202154202Y-94549249D01*
X202154202Y-94549249D02*
X202335155Y-94549249D01*
X202335155Y-94549249D02*
X202425631Y-94501630D01*
X202425631Y-94501630D02*
X202470869Y-94454010D01*
X202470869Y-94454010D02*
X202516107Y-94358772D01*
X202516107Y-94358772D02*
X202516107Y-94073058D01*
X202516107Y-94073058D02*
X202470869Y-93977820D01*
X202470869Y-93977820D02*
X202425631Y-93930201D01*
X202425631Y-93930201D02*
X202335155Y-93882582D01*
X202335155Y-93882582D02*
X202154202Y-93882582D01*
X202154202Y-93882582D02*
X202063726Y-93930201D01*
X201611345Y-94549249D02*
X201611345Y-93882582D01*
X201611345Y-94073058D02*
X201566107Y-93977820D01*
X201566107Y-93977820D02*
X201520869Y-93930201D01*
X201520869Y-93930201D02*
X201430393Y-93882582D01*
X201430393Y-93882582D02*
X201339916Y-93882582D01*
X200661345Y-94501630D02*
X200751821Y-94549249D01*
X200751821Y-94549249D02*
X200932774Y-94549249D01*
X200932774Y-94549249D02*
X201023250Y-94501630D01*
X201023250Y-94501630D02*
X201068488Y-94406391D01*
X201068488Y-94406391D02*
X201068488Y-94025439D01*
X201068488Y-94025439D02*
X201023250Y-93930201D01*
X201023250Y-93930201D02*
X200932774Y-93882582D01*
X200932774Y-93882582D02*
X200751821Y-93882582D01*
X200751821Y-93882582D02*
X200661345Y-93930201D01*
X200661345Y-93930201D02*
X200616107Y-94025439D01*
X200616107Y-94025439D02*
X200616107Y-94120677D01*
X200616107Y-94120677D02*
X201068488Y-94215915D01*
X199801821Y-94549249D02*
X199801821Y-94025439D01*
X199801821Y-94025439D02*
X199847059Y-93930201D01*
X199847059Y-93930201D02*
X199937535Y-93882582D01*
X199937535Y-93882582D02*
X200118488Y-93882582D01*
X200118488Y-93882582D02*
X200208964Y-93930201D01*
X199801821Y-94501630D02*
X199892297Y-94549249D01*
X199892297Y-94549249D02*
X200118488Y-94549249D01*
X200118488Y-94549249D02*
X200208964Y-94501630D01*
X200208964Y-94501630D02*
X200254202Y-94406391D01*
X200254202Y-94406391D02*
X200254202Y-94311153D01*
X200254202Y-94311153D02*
X200208964Y-94215915D01*
X200208964Y-94215915D02*
X200118488Y-94168296D01*
X200118488Y-94168296D02*
X199892297Y-94168296D01*
X199892297Y-94168296D02*
X199801821Y-94120677D01*
X199485154Y-93882582D02*
X199123250Y-93882582D01*
X199349440Y-93549249D02*
X199349440Y-94406391D01*
X199349440Y-94406391D02*
X199304202Y-94501630D01*
X199304202Y-94501630D02*
X199213726Y-94549249D01*
X199213726Y-94549249D02*
X199123250Y-94549249D01*
X198082773Y-94549249D02*
X198082773Y-93549249D01*
X197675630Y-94549249D02*
X197675630Y-94025439D01*
X197675630Y-94025439D02*
X197720868Y-93930201D01*
X197720868Y-93930201D02*
X197811344Y-93882582D01*
X197811344Y-93882582D02*
X197947059Y-93882582D01*
X197947059Y-93882582D02*
X198037535Y-93930201D01*
X198037535Y-93930201D02*
X198082773Y-93977820D01*
X196861344Y-94501630D02*
X196951820Y-94549249D01*
X196951820Y-94549249D02*
X197132773Y-94549249D01*
X197132773Y-94549249D02*
X197223249Y-94501630D01*
X197223249Y-94501630D02*
X197268487Y-94406391D01*
X197268487Y-94406391D02*
X197268487Y-94025439D01*
X197268487Y-94025439D02*
X197223249Y-93930201D01*
X197223249Y-93930201D02*
X197132773Y-93882582D01*
X197132773Y-93882582D02*
X196951820Y-93882582D01*
X196951820Y-93882582D02*
X196861344Y-93930201D01*
X196861344Y-93930201D02*
X196816106Y-94025439D01*
X196816106Y-94025439D02*
X196816106Y-94120677D01*
X196816106Y-94120677D02*
X197268487Y-94215915D01*
X196273249Y-94549249D02*
X196363725Y-94501630D01*
X196363725Y-94501630D02*
X196408963Y-94406391D01*
X196408963Y-94406391D02*
X196408963Y-93549249D01*
X195911344Y-93882582D02*
X195911344Y-94882582D01*
X195911344Y-93930201D02*
X195820868Y-93882582D01*
X195820868Y-93882582D02*
X195639915Y-93882582D01*
X195639915Y-93882582D02*
X195549439Y-93930201D01*
X195549439Y-93930201D02*
X195504201Y-93977820D01*
X195504201Y-93977820D02*
X195458963Y-94073058D01*
X195458963Y-94073058D02*
X195458963Y-94358772D01*
X195458963Y-94358772D02*
X195504201Y-94454010D01*
X195504201Y-94454010D02*
X195549439Y-94501630D01*
X195549439Y-94501630D02*
X195639915Y-94549249D01*
X195639915Y-94549249D02*
X195820868Y-94549249D01*
X195820868Y-94549249D02*
X195911344Y-94501630D01*
X194192296Y-94549249D02*
X194282772Y-94501630D01*
X194282772Y-94501630D02*
X194328010Y-94454010D01*
X194328010Y-94454010D02*
X194373248Y-94358772D01*
X194373248Y-94358772D02*
X194373248Y-94073058D01*
X194373248Y-94073058D02*
X194328010Y-93977820D01*
X194328010Y-93977820D02*
X194282772Y-93930201D01*
X194282772Y-93930201D02*
X194192296Y-93882582D01*
X194192296Y-93882582D02*
X194056581Y-93882582D01*
X194056581Y-93882582D02*
X193966105Y-93930201D01*
X193966105Y-93930201D02*
X193920867Y-93977820D01*
X193920867Y-93977820D02*
X193875629Y-94073058D01*
X193875629Y-94073058D02*
X193875629Y-94358772D01*
X193875629Y-94358772D02*
X193920867Y-94454010D01*
X193920867Y-94454010D02*
X193966105Y-94501630D01*
X193966105Y-94501630D02*
X194056581Y-94549249D01*
X194056581Y-94549249D02*
X194192296Y-94549249D01*
X193604200Y-93882582D02*
X193242296Y-93882582D01*
X193468486Y-94549249D02*
X193468486Y-93692106D01*
X193468486Y-93692106D02*
X193423248Y-93596868D01*
X193423248Y-93596868D02*
X193332772Y-93549249D01*
X193332772Y-93549249D02*
X193242296Y-93549249D01*
X195097058Y-96159193D02*
X195097058Y-95635383D01*
X195097058Y-95635383D02*
X195142296Y-95540145D01*
X195142296Y-95540145D02*
X195232772Y-95492526D01*
X195232772Y-95492526D02*
X195413725Y-95492526D01*
X195413725Y-95492526D02*
X195504201Y-95540145D01*
X195097058Y-96111574D02*
X195187534Y-96159193D01*
X195187534Y-96159193D02*
X195413725Y-96159193D01*
X195413725Y-96159193D02*
X195504201Y-96111574D01*
X195504201Y-96111574D02*
X195549439Y-96016335D01*
X195549439Y-96016335D02*
X195549439Y-95921097D01*
X195549439Y-95921097D02*
X195504201Y-95825859D01*
X195504201Y-95825859D02*
X195413725Y-95778240D01*
X195413725Y-95778240D02*
X195187534Y-95778240D01*
X195187534Y-95778240D02*
X195097058Y-95730621D01*
X194644677Y-95492526D02*
X194644677Y-96159193D01*
X194644677Y-95587764D02*
X194599439Y-95540145D01*
X194599439Y-95540145D02*
X194508963Y-95492526D01*
X194508963Y-95492526D02*
X194373248Y-95492526D01*
X194373248Y-95492526D02*
X194282772Y-95540145D01*
X194282772Y-95540145D02*
X194237534Y-95635383D01*
X194237534Y-95635383D02*
X194237534Y-96159193D01*
X193378010Y-96159193D02*
X193378010Y-95159193D01*
X193378010Y-96111574D02*
X193468486Y-96159193D01*
X193468486Y-96159193D02*
X193649439Y-96159193D01*
X193649439Y-96159193D02*
X193739915Y-96111574D01*
X193739915Y-96111574D02*
X193785153Y-96063954D01*
X193785153Y-96063954D02*
X193830391Y-95968716D01*
X193830391Y-95968716D02*
X193830391Y-95683002D01*
X193830391Y-95683002D02*
X193785153Y-95587764D01*
X193785153Y-95587764D02*
X193739915Y-95540145D01*
X193739915Y-95540145D02*
X193649439Y-95492526D01*
X193649439Y-95492526D02*
X193468486Y-95492526D01*
X193468486Y-95492526D02*
X193378010Y-95540145D01*
X197944399Y-97739819D02*
X197944399Y-96739819D01*
X197944399Y-97120771D02*
X197863446Y-97073152D01*
X197863446Y-97073152D02*
X197701541Y-97073152D01*
X197701541Y-97073152D02*
X197620589Y-97120771D01*
X197620589Y-97120771D02*
X197580113Y-97168390D01*
X197580113Y-97168390D02*
X197539637Y-97263628D01*
X197539637Y-97263628D02*
X197539637Y-97549342D01*
X197539637Y-97549342D02*
X197580113Y-97644580D01*
X197580113Y-97644580D02*
X197620589Y-97692200D01*
X197620589Y-97692200D02*
X197701541Y-97739819D01*
X197701541Y-97739819D02*
X197863446Y-97739819D01*
X197863446Y-97739819D02*
X197944399Y-97692200D01*
X196811065Y-97073152D02*
X196811065Y-97739819D01*
X197175351Y-97073152D02*
X197175351Y-97596961D01*
X197175351Y-97596961D02*
X197134874Y-97692200D01*
X197134874Y-97692200D02*
X197053922Y-97739819D01*
X197053922Y-97739819D02*
X196932493Y-97739819D01*
X196932493Y-97739819D02*
X196851541Y-97692200D01*
X196851541Y-97692200D02*
X196811065Y-97644580D01*
X196406303Y-97739819D02*
X196406303Y-97073152D01*
X196406303Y-96739819D02*
X196446779Y-96787438D01*
X196446779Y-96787438D02*
X196406303Y-96835057D01*
X196406303Y-96835057D02*
X196365826Y-96787438D01*
X196365826Y-96787438D02*
X196406303Y-96739819D01*
X196406303Y-96739819D02*
X196406303Y-96835057D01*
X195880112Y-97739819D02*
X195961064Y-97692200D01*
X195961064Y-97692200D02*
X196001541Y-97596961D01*
X196001541Y-97596961D02*
X196001541Y-96739819D01*
X195677731Y-97073152D02*
X195353922Y-97073152D01*
X195556303Y-96739819D02*
X195556303Y-97596961D01*
X195556303Y-97596961D02*
X195515826Y-97692200D01*
X195515826Y-97692200D02*
X195434874Y-97739819D01*
X195434874Y-97739819D02*
X195353922Y-97739819D01*
X194422970Y-97739819D02*
X194422970Y-96739819D01*
X194422970Y-97120771D02*
X194342017Y-97073152D01*
X194342017Y-97073152D02*
X194180112Y-97073152D01*
X194180112Y-97073152D02*
X194099160Y-97120771D01*
X194099160Y-97120771D02*
X194058684Y-97168390D01*
X194058684Y-97168390D02*
X194018208Y-97263628D01*
X194018208Y-97263628D02*
X194018208Y-97549342D01*
X194018208Y-97549342D02*
X194058684Y-97644580D01*
X194058684Y-97644580D02*
X194099160Y-97692200D01*
X194099160Y-97692200D02*
X194180112Y-97739819D01*
X194180112Y-97739819D02*
X194342017Y-97739819D01*
X194342017Y-97739819D02*
X194422970Y-97692200D01*
X193734874Y-97073152D02*
X193532493Y-97739819D01*
X193330112Y-97073152D02*
X193532493Y-97739819D01*
X193532493Y-97739819D02*
X193613445Y-97977914D01*
X193613445Y-97977914D02*
X193653922Y-98025533D01*
X193653922Y-98025533D02*
X193734874Y-98073152D01*
X209413333Y-34424819D02*
X209413333Y-35139104D01*
X209413333Y-35139104D02*
X209460952Y-35281961D01*
X209460952Y-35281961D02*
X209556190Y-35377200D01*
X209556190Y-35377200D02*
X209699047Y-35424819D01*
X209699047Y-35424819D02*
X209794285Y-35424819D01*
X208937142Y-35424819D02*
X208937142Y-34424819D01*
X208937142Y-34424819D02*
X208556190Y-34424819D01*
X208556190Y-34424819D02*
X208460952Y-34472438D01*
X208460952Y-34472438D02*
X208413333Y-34520057D01*
X208413333Y-34520057D02*
X208365714Y-34615295D01*
X208365714Y-34615295D02*
X208365714Y-34758152D01*
X208365714Y-34758152D02*
X208413333Y-34853390D01*
X208413333Y-34853390D02*
X208460952Y-34901009D01*
X208460952Y-34901009D02*
X208556190Y-34948628D01*
X208556190Y-34948628D02*
X208937142Y-34948628D01*
X207984761Y-34520057D02*
X207937142Y-34472438D01*
X207937142Y-34472438D02*
X207841904Y-34424819D01*
X207841904Y-34424819D02*
X207603809Y-34424819D01*
X207603809Y-34424819D02*
X207508571Y-34472438D01*
X207508571Y-34472438D02*
X207460952Y-34520057D01*
X207460952Y-34520057D02*
X207413333Y-34615295D01*
X207413333Y-34615295D02*
X207413333Y-34710533D01*
X207413333Y-34710533D02*
X207460952Y-34853390D01*
X207460952Y-34853390D02*
X208032380Y-35424819D01*
X208032380Y-35424819D02*
X207413333Y-35424819D01*
X194383333Y-34444819D02*
X194383333Y-35159104D01*
X194383333Y-35159104D02*
X194430952Y-35301961D01*
X194430952Y-35301961D02*
X194526190Y-35397200D01*
X194526190Y-35397200D02*
X194669047Y-35444819D01*
X194669047Y-35444819D02*
X194764285Y-35444819D01*
X193907142Y-35444819D02*
X193907142Y-34444819D01*
X193907142Y-34444819D02*
X193526190Y-34444819D01*
X193526190Y-34444819D02*
X193430952Y-34492438D01*
X193430952Y-34492438D02*
X193383333Y-34540057D01*
X193383333Y-34540057D02*
X193335714Y-34635295D01*
X193335714Y-34635295D02*
X193335714Y-34778152D01*
X193335714Y-34778152D02*
X193383333Y-34873390D01*
X193383333Y-34873390D02*
X193430952Y-34921009D01*
X193430952Y-34921009D02*
X193526190Y-34968628D01*
X193526190Y-34968628D02*
X193907142Y-34968628D01*
X193002380Y-34444819D02*
X192383333Y-34444819D01*
X192383333Y-34444819D02*
X192716666Y-34825771D01*
X192716666Y-34825771D02*
X192573809Y-34825771D01*
X192573809Y-34825771D02*
X192478571Y-34873390D01*
X192478571Y-34873390D02*
X192430952Y-34921009D01*
X192430952Y-34921009D02*
X192383333Y-35016247D01*
X192383333Y-35016247D02*
X192383333Y-35254342D01*
X192383333Y-35254342D02*
X192430952Y-35349580D01*
X192430952Y-35349580D02*
X192478571Y-35397200D01*
X192478571Y-35397200D02*
X192573809Y-35444819D01*
X192573809Y-35444819D02*
X192859523Y-35444819D01*
X192859523Y-35444819D02*
X192954761Y-35397200D01*
X192954761Y-35397200D02*
X193002380Y-35349580D01*
D13*
X207180000Y-33470000D02*
X207180000Y-32870000D01*
X207880000Y-32170000D02*
X209280000Y-32170000D01*
X209280000Y-34170000D02*
X207880000Y-34170000D01*
X209980000Y-32870000D02*
X209980000Y-33470000D01*
X207180000Y-32870000D02*
G75*
G02*
X207880000Y-32170000I699999J1D01*
G01*
X207880000Y-34170000D02*
G75*
G02*
X207180000Y-33470000I-1J699999D01*
G01*
X209280000Y-32170000D02*
G75*
G02*
X209980000Y-32870000I0J-700000D01*
G01*
X209980000Y-33470000D02*
G75*
G02*
X209280000Y-34170000I-700000J0D01*
G01*
X192150000Y-33490000D02*
X192150000Y-32890000D01*
X192850000Y-32190000D02*
X194250000Y-32190000D01*
X194250000Y-34190000D02*
X192850000Y-34190000D01*
X194950000Y-32890000D02*
X194950000Y-33490000D01*
X192150000Y-32890000D02*
G75*
G02*
X192850000Y-32190000I699999J1D01*
G01*
X192850000Y-34190000D02*
G75*
G02*
X192150000Y-33490000I-1J699999D01*
G01*
X194250000Y-32190000D02*
G75*
G02*
X194950000Y-32890000I0J-700000D01*
G01*
X194950000Y-33490000D02*
G75*
G02*
X194250000Y-34190000I-700000J0D01*
G01*
D14*
X243322829Y-101271097D02*
X243382753Y-101293355D01*
X243407673Y-101310080D01*
X243432910Y-101334043D01*
X243450912Y-101364526D01*
X243462858Y-101406023D01*
X243469930Y-101463032D01*
X243473308Y-101540047D01*
X243474171Y-101641565D01*
X243474002Y-101694027D01*
X243473153Y-101765715D01*
X243471711Y-101822925D01*
X243469814Y-101860809D01*
X243467597Y-101874514D01*
X243453172Y-101869981D01*
X243424054Y-101857670D01*
X243423181Y-101857272D01*
X243408060Y-101849356D01*
X243397891Y-101838495D01*
X243391691Y-101819471D01*
X243388478Y-101787069D01*
X243387270Y-101736071D01*
X243387086Y-101661261D01*
X243386714Y-101613804D01*
X243382750Y-101524615D01*
X243373673Y-101459287D01*
X243358524Y-101414393D01*
X243336345Y-101386507D01*
X243306175Y-101372203D01*
X243301990Y-101371206D01*
X243245480Y-101370427D01*
X243201410Y-101395744D01*
X243170972Y-101446502D01*
X243165544Y-101461175D01*
X243153171Y-101493649D01*
X243146905Y-101508572D01*
X243134036Y-101506516D01*
X243105933Y-101495357D01*
X243079721Y-101476927D01*
X243067771Y-101442098D01*
X243071336Y-101417151D01*
X243093235Y-101366547D01*
X243128644Y-101319128D01*
X243170052Y-101286334D01*
X243187400Y-101278752D01*
X243253089Y-101266076D01*
X243322829Y-101271097D01*
G36*
X243322829Y-101271097D02*
G01*
X243382753Y-101293355D01*
X243407673Y-101310080D01*
X243432910Y-101334043D01*
X243450912Y-101364526D01*
X243462858Y-101406023D01*
X243469930Y-101463032D01*
X243473308Y-101540047D01*
X243474171Y-101641565D01*
X243474002Y-101694027D01*
X243473153Y-101765715D01*
X243471711Y-101822925D01*
X243469814Y-101860809D01*
X243467597Y-101874514D01*
X243453172Y-101869981D01*
X243424054Y-101857670D01*
X243423181Y-101857272D01*
X243408060Y-101849356D01*
X243397891Y-101838495D01*
X243391691Y-101819471D01*
X243388478Y-101787069D01*
X243387270Y-101736071D01*
X243387086Y-101661261D01*
X243386714Y-101613804D01*
X243382750Y-101524615D01*
X243373673Y-101459287D01*
X243358524Y-101414393D01*
X243336345Y-101386507D01*
X243306175Y-101372203D01*
X243301990Y-101371206D01*
X243245480Y-101370427D01*
X243201410Y-101395744D01*
X243170972Y-101446502D01*
X243165544Y-101461175D01*
X243153171Y-101493649D01*
X243146905Y-101508572D01*
X243134036Y-101506516D01*
X243105933Y-101495357D01*
X243079721Y-101476927D01*
X243067771Y-101442098D01*
X243071336Y-101417151D01*
X243093235Y-101366547D01*
X243128644Y-101319128D01*
X243170052Y-101286334D01*
X243187400Y-101278752D01*
X243253089Y-101266076D01*
X243322829Y-101271097D01*
G37*
X247271020Y-101237822D02*
X247338810Y-101269680D01*
X247394366Y-101324770D01*
X247405881Y-101342016D01*
X247415432Y-101361562D01*
X247422206Y-101386198D01*
X247426819Y-101420711D01*
X247429888Y-101469889D01*
X247432029Y-101538519D01*
X247433859Y-101631389D01*
X247438404Y-101889007D01*
X247400225Y-101874491D01*
X247365268Y-101861156D01*
X247339097Y-101848323D01*
X247322013Y-101831780D01*
X247312086Y-101806465D01*
X247307386Y-101767316D01*
X247305982Y-101709268D01*
X247305943Y-101627261D01*
X247305744Y-101561895D01*
X247304559Y-101499173D01*
X247301729Y-101456334D01*
X247296609Y-101428220D01*
X247288553Y-101409675D01*
X247276914Y-101395543D01*
X247248303Y-101375600D01*
X247200239Y-101368083D01*
X247152688Y-101387079D01*
X247149550Y-101389511D01*
X247139769Y-101400748D01*
X247132553Y-101418770D01*
X247127299Y-101448026D01*
X247123402Y-101492962D01*
X247120256Y-101558028D01*
X247117257Y-101647670D01*
X247110000Y-101887697D01*
X247048314Y-101860044D01*
X246986629Y-101832391D01*
X246986629Y-101613246D01*
X246986884Y-101553711D01*
X246989086Y-101470892D01*
X246994661Y-101409227D01*
X247004941Y-101363748D01*
X247021258Y-101329484D01*
X247044943Y-101301466D01*
X247077328Y-101274723D01*
X247123907Y-101247780D01*
X247197287Y-101230191D01*
X247271020Y-101237822D01*
G36*
X247271020Y-101237822D02*
G01*
X247338810Y-101269680D01*
X247394366Y-101324770D01*
X247405881Y-101342016D01*
X247415432Y-101361562D01*
X247422206Y-101386198D01*
X247426819Y-101420711D01*
X247429888Y-101469889D01*
X247432029Y-101538519D01*
X247433859Y-101631389D01*
X247438404Y-101889007D01*
X247400225Y-101874491D01*
X247365268Y-101861156D01*
X247339097Y-101848323D01*
X247322013Y-101831780D01*
X247312086Y-101806465D01*
X247307386Y-101767316D01*
X247305982Y-101709268D01*
X247305943Y-101627261D01*
X247305744Y-101561895D01*
X247304559Y-101499173D01*
X247301729Y-101456334D01*
X247296609Y-101428220D01*
X247288553Y-101409675D01*
X247276914Y-101395543D01*
X247248303Y-101375600D01*
X247200239Y-101368083D01*
X247152688Y-101387079D01*
X247149550Y-101389511D01*
X247139769Y-101400748D01*
X247132553Y-101418770D01*
X247127299Y-101448026D01*
X247123402Y-101492962D01*
X247120256Y-101558028D01*
X247117257Y-101647670D01*
X247110000Y-101887697D01*
X247048314Y-101860044D01*
X246986629Y-101832391D01*
X246986629Y-101613246D01*
X246986884Y-101553711D01*
X246989086Y-101470892D01*
X246994661Y-101409227D01*
X247004941Y-101363748D01*
X247021258Y-101329484D01*
X247044943Y-101301466D01*
X247077328Y-101274723D01*
X247123907Y-101247780D01*
X247197287Y-101230191D01*
X247271020Y-101237822D01*
G37*
X245447691Y-101286467D02*
X245452273Y-101289003D01*
X245489704Y-101318057D01*
X245523170Y-101355410D01*
X245529007Y-101363852D01*
X245540165Y-101383553D01*
X245548136Y-101406935D01*
X245553618Y-101439067D01*
X245557307Y-101485019D01*
X245559899Y-101549859D01*
X245562092Y-101638657D01*
X245562402Y-101653669D01*
X245563400Y-101750999D01*
X245561994Y-101819934D01*
X245558164Y-101860948D01*
X245551889Y-101874514D01*
X245532898Y-101870452D01*
X245500638Y-101858144D01*
X245493041Y-101854545D01*
X245481176Y-101846398D01*
X245472994Y-101833004D01*
X245467643Y-101809608D01*
X245464269Y-101771455D01*
X245462019Y-101713790D01*
X245460040Y-101631857D01*
X245459498Y-101607907D01*
X245457403Y-101532266D01*
X245454683Y-101479328D01*
X245450515Y-101444075D01*
X245444079Y-101421487D01*
X245434550Y-101406544D01*
X245421106Y-101394227D01*
X245381305Y-101372634D01*
X245332341Y-101368476D01*
X245288529Y-101384999D01*
X245257008Y-101419210D01*
X245244914Y-101468114D01*
X245244578Y-101481407D01*
X245237972Y-101505472D01*
X245218470Y-101509144D01*
X245180283Y-101494813D01*
X245171438Y-101490217D01*
X245147534Y-101463186D01*
X245147061Y-101422994D01*
X245169836Y-101367409D01*
X245190727Y-101337117D01*
X245244142Y-101294084D01*
X245310074Y-101269755D01*
X245380574Y-101266443D01*
X245447691Y-101286467D01*
G36*
X245447691Y-101286467D02*
G01*
X245452273Y-101289003D01*
X245489704Y-101318057D01*
X245523170Y-101355410D01*
X245529007Y-101363852D01*
X245540165Y-101383553D01*
X245548136Y-101406935D01*
X245553618Y-101439067D01*
X245557307Y-101485019D01*
X245559899Y-101549859D01*
X245562092Y-101638657D01*
X245562402Y-101653669D01*
X245563400Y-101750999D01*
X245561994Y-101819934D01*
X245558164Y-101860948D01*
X245551889Y-101874514D01*
X245532898Y-101870452D01*
X245500638Y-101858144D01*
X245493041Y-101854545D01*
X245481176Y-101846398D01*
X245472994Y-101833004D01*
X245467643Y-101809608D01*
X245464269Y-101771455D01*
X245462019Y-101713790D01*
X245460040Y-101631857D01*
X245459498Y-101607907D01*
X245457403Y-101532266D01*
X245454683Y-101479328D01*
X245450515Y-101444075D01*
X245444079Y-101421487D01*
X245434550Y-101406544D01*
X245421106Y-101394227D01*
X245381305Y-101372634D01*
X245332341Y-101368476D01*
X245288529Y-101384999D01*
X245257008Y-101419210D01*
X245244914Y-101468114D01*
X245244578Y-101481407D01*
X245237972Y-101505472D01*
X245218470Y-101509144D01*
X245180283Y-101494813D01*
X245171438Y-101490217D01*
X245147534Y-101463186D01*
X245147061Y-101422994D01*
X245169836Y-101367409D01*
X245190727Y-101337117D01*
X245244142Y-101294084D01*
X245310074Y-101269755D01*
X245380574Y-101266443D01*
X245447691Y-101286467D01*
G37*
X244493941Y-101269282D02*
X244525774Y-101281758D01*
X244562743Y-101298602D01*
X244562743Y-101785196D01*
X244516812Y-101831127D01*
X244506320Y-101841427D01*
X244477255Y-101864320D01*
X244447943Y-101871735D01*
X244404326Y-101868321D01*
X244386568Y-101866114D01*
X244340767Y-101861445D01*
X244308743Y-101859585D01*
X244299244Y-101859869D01*
X244260274Y-101862948D01*
X244213160Y-101868321D01*
X244198085Y-101870168D01*
X244160110Y-101870893D01*
X244132325Y-101859429D01*
X244100674Y-101831127D01*
X244054743Y-101785196D01*
X244054743Y-101525055D01*
X244055101Y-101448180D01*
X244056216Y-101374886D01*
X244057952Y-101316850D01*
X244060167Y-101278663D01*
X244062721Y-101264914D01*
X244063256Y-101264951D01*
X244081808Y-101271793D01*
X244113153Y-101286868D01*
X244155608Y-101308822D01*
X244159604Y-101537240D01*
X244163600Y-101765657D01*
X244250686Y-101765657D01*
X244254657Y-101515286D01*
X244255916Y-101447227D01*
X244257718Y-101374482D01*
X244259671Y-101316730D01*
X244261612Y-101278648D01*
X244263377Y-101264914D01*
X244263885Y-101264962D01*
X244281482Y-101270015D01*
X244313834Y-101280849D01*
X244359543Y-101296783D01*
X244359765Y-101516706D01*
X244359988Y-101554909D01*
X244361531Y-101629146D01*
X244364292Y-101691145D01*
X244367977Y-101735308D01*
X244372292Y-101756041D01*
X244387732Y-101767131D01*
X244419241Y-101770556D01*
X244453886Y-101765657D01*
X244457857Y-101515286D01*
X244459278Y-101451663D01*
X244462225Y-101376356D01*
X244466079Y-101317286D01*
X244470542Y-101278718D01*
X244475317Y-101264914D01*
X244493941Y-101269282D01*
G36*
X244493941Y-101269282D02*
G01*
X244525774Y-101281758D01*
X244562743Y-101298602D01*
X244562743Y-101785196D01*
X244516812Y-101831127D01*
X244506320Y-101841427D01*
X244477255Y-101864320D01*
X244447943Y-101871735D01*
X244404326Y-101868321D01*
X244386568Y-101866114D01*
X244340767Y-101861445D01*
X244308743Y-101859585D01*
X244299244Y-101859869D01*
X244260274Y-101862948D01*
X244213160Y-101868321D01*
X244198085Y-101870168D01*
X244160110Y-101870893D01*
X244132325Y-101859429D01*
X244100674Y-101831127D01*
X244054743Y-101785196D01*
X244054743Y-101525055D01*
X244055101Y-101448180D01*
X244056216Y-101374886D01*
X244057952Y-101316850D01*
X244060167Y-101278663D01*
X244062721Y-101264914D01*
X244063256Y-101264951D01*
X244081808Y-101271793D01*
X244113153Y-101286868D01*
X244155608Y-101308822D01*
X244159604Y-101537240D01*
X244163600Y-101765657D01*
X244250686Y-101765657D01*
X244254657Y-101515286D01*
X244255916Y-101447227D01*
X244257718Y-101374482D01*
X244259671Y-101316730D01*
X244261612Y-101278648D01*
X244263377Y-101264914D01*
X244263885Y-101264962D01*
X244281482Y-101270015D01*
X244313834Y-101280849D01*
X244359543Y-101296783D01*
X244359765Y-101516706D01*
X244359988Y-101554909D01*
X244361531Y-101629146D01*
X244364292Y-101691145D01*
X244367977Y-101735308D01*
X244372292Y-101756041D01*
X244387732Y-101767131D01*
X244419241Y-101770556D01*
X244453886Y-101765657D01*
X244457857Y-101515286D01*
X244459278Y-101451663D01*
X244462225Y-101376356D01*
X244466079Y-101317286D01*
X244470542Y-101278718D01*
X244475317Y-101264914D01*
X244493941Y-101269282D01*
G37*
X246518543Y-101069444D02*
X246565714Y-101089342D01*
X246565714Y-101486509D01*
X246565519Y-101589498D01*
X246564998Y-101682141D01*
X246564199Y-101760700D01*
X246563172Y-101821439D01*
X246561963Y-101860623D01*
X246560623Y-101874514D01*
X246560099Y-101874468D01*
X246542287Y-101869420D01*
X246509823Y-101858580D01*
X246464114Y-101842646D01*
X246464114Y-101638173D01*
X246463824Y-101557832D01*
X246462474Y-101499562D01*
X246459369Y-101459909D01*
X246453812Y-101433618D01*
X246445107Y-101415436D01*
X246432556Y-101400107D01*
X246423999Y-101391955D01*
X246377728Y-101369375D01*
X246326728Y-101371375D01*
X246279993Y-101398073D01*
X246273189Y-101404698D01*
X246262293Y-101418456D01*
X246254836Y-101436642D01*
X246250169Y-101464177D01*
X246247642Y-101505981D01*
X246246602Y-101566973D01*
X246246400Y-101652073D01*
X246246303Y-101695234D01*
X246245674Y-101766224D01*
X246244556Y-101823076D01*
X246243063Y-101860828D01*
X246241309Y-101874514D01*
X246240785Y-101874468D01*
X246222973Y-101869420D01*
X246190509Y-101858580D01*
X246144800Y-101842646D01*
X246144823Y-101637237D01*
X246144857Y-101618951D01*
X246146778Y-101523626D01*
X246152678Y-101451543D01*
X246164001Y-101397813D01*
X246182187Y-101357549D01*
X246208679Y-101325861D01*
X246244918Y-101297861D01*
X246280263Y-101280333D01*
X246336773Y-101266785D01*
X246392356Y-101266015D01*
X246435086Y-101279195D01*
X246438298Y-101281015D01*
X246448205Y-101280820D01*
X246454975Y-101265572D01*
X246459861Y-101230613D01*
X246464114Y-101171289D01*
X246471371Y-101049547D01*
X246518543Y-101069444D01*
G36*
X246518543Y-101069444D02*
G01*
X246565714Y-101089342D01*
X246565714Y-101486509D01*
X246565519Y-101589498D01*
X246564998Y-101682141D01*
X246564199Y-101760700D01*
X246563172Y-101821439D01*
X246561963Y-101860623D01*
X246560623Y-101874514D01*
X246560099Y-101874468D01*
X246542287Y-101869420D01*
X246509823Y-101858580D01*
X246464114Y-101842646D01*
X246464114Y-101638173D01*
X246463824Y-101557832D01*
X246462474Y-101499562D01*
X246459369Y-101459909D01*
X246453812Y-101433618D01*
X246445107Y-101415436D01*
X246432556Y-101400107D01*
X246423999Y-101391955D01*
X246377728Y-101369375D01*
X246326728Y-101371375D01*
X246279993Y-101398073D01*
X246273189Y-101404698D01*
X246262293Y-101418456D01*
X246254836Y-101436642D01*
X246250169Y-101464177D01*
X246247642Y-101505981D01*
X246246602Y-101566973D01*
X246246400Y-101652073D01*
X246246303Y-101695234D01*
X246245674Y-101766224D01*
X246244556Y-101823076D01*
X246243063Y-101860828D01*
X246241309Y-101874514D01*
X246240785Y-101874468D01*
X246222973Y-101869420D01*
X246190509Y-101858580D01*
X246144800Y-101842646D01*
X246144823Y-101637237D01*
X246144857Y-101618951D01*
X246146778Y-101523626D01*
X246152678Y-101451543D01*
X246164001Y-101397813D01*
X246182187Y-101357549D01*
X246208679Y-101325861D01*
X246244918Y-101297861D01*
X246280263Y-101280333D01*
X246336773Y-101266785D01*
X246392356Y-101266015D01*
X246435086Y-101279195D01*
X246438298Y-101281015D01*
X246448205Y-101280820D01*
X246454975Y-101265572D01*
X246459861Y-101230613D01*
X246464114Y-101171289D01*
X246471371Y-101049547D01*
X246518543Y-101069444D01*
G37*
X249105714Y-101555200D02*
X249105701Y-101570935D01*
X249104914Y-101641119D01*
X249102210Y-101690022D01*
X249096606Y-101724178D01*
X249087119Y-101750124D01*
X249072768Y-101774397D01*
X249069237Y-101779433D01*
X249031878Y-101819143D01*
X248989311Y-101849092D01*
X248967452Y-101858810D01*
X248888908Y-101875020D01*
X248811231Y-101864535D01*
X248739645Y-101828707D01*
X248679374Y-101768887D01*
X248674286Y-101760873D01*
X248657730Y-101714342D01*
X248646573Y-101649552D01*
X248641160Y-101574727D01*
X248641768Y-101505513D01*
X248788248Y-101505513D01*
X248789402Y-101601399D01*
X248789866Y-101607569D01*
X248796629Y-101660478D01*
X248808671Y-101694029D01*
X248829005Y-101717016D01*
X248863097Y-101738548D01*
X248896814Y-101739680D01*
X248931543Y-101714857D01*
X248937584Y-101708325D01*
X248949417Y-101688779D01*
X248956404Y-101660386D01*
X248959727Y-101616430D01*
X248960571Y-101550192D01*
X248959125Y-101488150D01*
X248951907Y-101429042D01*
X248937006Y-101391686D01*
X248912636Y-101372152D01*
X248877008Y-101366514D01*
X248863440Y-101367635D01*
X248825430Y-101388194D01*
X248800312Y-101434299D01*
X248788248Y-101505513D01*
X248641768Y-101505513D01*
X248641833Y-101498096D01*
X248648937Y-101427882D01*
X248662815Y-101372312D01*
X248680649Y-101335301D01*
X248730855Y-101277733D01*
X248798885Y-101241962D01*
X248882158Y-101229665D01*
X248904398Y-101230331D01*
X248969891Y-101243947D01*
X249023687Y-101278249D01*
X249073057Y-101337338D01*
X249075995Y-101341722D01*
X249089287Y-101365299D01*
X249097932Y-101391949D01*
X249102904Y-101428159D01*
X249105174Y-101480413D01*
X249105678Y-101550192D01*
X249105714Y-101555200D01*
G36*
X249105714Y-101555200D02*
G01*
X249105701Y-101570935D01*
X249104914Y-101641119D01*
X249102210Y-101690022D01*
X249096606Y-101724178D01*
X249087119Y-101750124D01*
X249072768Y-101774397D01*
X249069237Y-101779433D01*
X249031878Y-101819143D01*
X248989311Y-101849092D01*
X248967452Y-101858810D01*
X248888908Y-101875020D01*
X248811231Y-101864535D01*
X248739645Y-101828707D01*
X248679374Y-101768887D01*
X248674286Y-101760873D01*
X248657730Y-101714342D01*
X248646573Y-101649552D01*
X248641160Y-101574727D01*
X248641768Y-101505513D01*
X248788248Y-101505513D01*
X248789402Y-101601399D01*
X248789866Y-101607569D01*
X248796629Y-101660478D01*
X248808671Y-101694029D01*
X248829005Y-101717016D01*
X248863097Y-101738548D01*
X248896814Y-101739680D01*
X248931543Y-101714857D01*
X248937584Y-101708325D01*
X248949417Y-101688779D01*
X248956404Y-101660386D01*
X248959727Y-101616430D01*
X248960571Y-101550192D01*
X248959125Y-101488150D01*
X248951907Y-101429042D01*
X248937006Y-101391686D01*
X248912636Y-101372152D01*
X248877008Y-101366514D01*
X248863440Y-101367635D01*
X248825430Y-101388194D01*
X248800312Y-101434299D01*
X248788248Y-101505513D01*
X248641768Y-101505513D01*
X248641833Y-101498096D01*
X248648937Y-101427882D01*
X248662815Y-101372312D01*
X248680649Y-101335301D01*
X248730855Y-101277733D01*
X248798885Y-101241962D01*
X248882158Y-101229665D01*
X248904398Y-101230331D01*
X248969891Y-101243947D01*
X249023687Y-101278249D01*
X249073057Y-101337338D01*
X249075995Y-101341722D01*
X249089287Y-101365299D01*
X249097932Y-101391949D01*
X249102904Y-101428159D01*
X249105174Y-101480413D01*
X249105678Y-101550192D01*
X249105714Y-101555200D01*
G37*
X242980590Y-101572622D02*
X242980307Y-101611305D01*
X242976762Y-101687521D01*
X242967483Y-101743294D01*
X242950375Y-101784613D01*
X242923344Y-101817467D01*
X242884292Y-101847846D01*
X242859445Y-101861660D01*
X242819615Y-101870965D01*
X242763665Y-101870230D01*
X242732385Y-101867283D01*
X242694653Y-101858283D01*
X242664494Y-101838720D01*
X242629408Y-101802267D01*
X242624720Y-101796943D01*
X242593177Y-101755969D01*
X242578128Y-101720283D01*
X242574286Y-101677966D01*
X242574286Y-101615779D01*
X242617742Y-101632182D01*
X242649424Y-101651356D01*
X242676962Y-101696347D01*
X242682711Y-101710752D01*
X242714855Y-101751546D01*
X242758611Y-101772081D01*
X242806254Y-101770235D01*
X242850057Y-101743886D01*
X242865111Y-101727455D01*
X242878763Y-101702667D01*
X242874493Y-101680144D01*
X242849916Y-101656964D01*
X242802651Y-101630202D01*
X242730314Y-101596934D01*
X242581543Y-101531816D01*
X242577595Y-101467308D01*
X242579079Y-101426220D01*
X242676010Y-101426220D01*
X242683368Y-101451657D01*
X242716848Y-101478814D01*
X242777614Y-101509714D01*
X242787669Y-101514190D01*
X242835751Y-101535017D01*
X242871726Y-101549665D01*
X242888444Y-101555200D01*
X242890977Y-101551126D01*
X242891993Y-101526247D01*
X242888369Y-101486257D01*
X242879242Y-101447152D01*
X242850773Y-101397884D01*
X242809678Y-101370122D01*
X242760590Y-101366364D01*
X242708144Y-101389109D01*
X242693609Y-101400481D01*
X242676010Y-101426220D01*
X242579079Y-101426220D01*
X242579338Y-101419064D01*
X242601281Y-101358096D01*
X242628979Y-101324497D01*
X242686405Y-101286966D01*
X242754527Y-101268006D01*
X242824947Y-101269507D01*
X242889267Y-101293355D01*
X242903426Y-101302513D01*
X242935904Y-101330849D01*
X242958116Y-101366695D01*
X242971804Y-101415384D01*
X242978715Y-101482249D01*
X242979628Y-101526247D01*
X242980590Y-101572622D01*
G36*
X242980590Y-101572622D02*
G01*
X242980307Y-101611305D01*
X242976762Y-101687521D01*
X242967483Y-101743294D01*
X242950375Y-101784613D01*
X242923344Y-101817467D01*
X242884292Y-101847846D01*
X242859445Y-101861660D01*
X242819615Y-101870965D01*
X242763665Y-101870230D01*
X242732385Y-101867283D01*
X242694653Y-101858283D01*
X242664494Y-101838720D01*
X242629408Y-101802267D01*
X242624720Y-101796943D01*
X242593177Y-101755969D01*
X242578128Y-101720283D01*
X242574286Y-101677966D01*
X242574286Y-101615779D01*
X242617742Y-101632182D01*
X242649424Y-101651356D01*
X242676962Y-101696347D01*
X242682711Y-101710752D01*
X242714855Y-101751546D01*
X242758611Y-101772081D01*
X242806254Y-101770235D01*
X242850057Y-101743886D01*
X242865111Y-101727455D01*
X242878763Y-101702667D01*
X242874493Y-101680144D01*
X242849916Y-101656964D01*
X242802651Y-101630202D01*
X242730314Y-101596934D01*
X242581543Y-101531816D01*
X242577595Y-101467308D01*
X242579079Y-101426220D01*
X242676010Y-101426220D01*
X242683368Y-101451657D01*
X242716848Y-101478814D01*
X242777614Y-101509714D01*
X242787669Y-101514190D01*
X242835751Y-101535017D01*
X242871726Y-101549665D01*
X242888444Y-101555200D01*
X242890977Y-101551126D01*
X242891993Y-101526247D01*
X242888369Y-101486257D01*
X242879242Y-101447152D01*
X242850773Y-101397884D01*
X242809678Y-101370122D01*
X242760590Y-101366364D01*
X242708144Y-101389109D01*
X242693609Y-101400481D01*
X242676010Y-101426220D01*
X242579079Y-101426220D01*
X242579338Y-101419064D01*
X242601281Y-101358096D01*
X242628979Y-101324497D01*
X242686405Y-101286966D01*
X242754527Y-101268006D01*
X242824947Y-101269507D01*
X242889267Y-101293355D01*
X242903426Y-101302513D01*
X242935904Y-101330849D01*
X242958116Y-101366695D01*
X242971804Y-101415384D01*
X242978715Y-101482249D01*
X242979628Y-101526247D01*
X242980590Y-101572622D01*
G37*
X245070698Y-101569714D02*
X245069537Y-101626313D01*
X245061345Y-101703462D01*
X245043519Y-101761276D01*
X245013975Y-101805422D01*
X244970625Y-101841568D01*
X244929332Y-101862463D01*
X244859987Y-101874090D01*
X244790736Y-101861377D01*
X244728145Y-101825945D01*
X244678779Y-101769418D01*
X244672818Y-101758995D01*
X244664945Y-101740733D01*
X244659106Y-101717429D01*
X244654999Y-101685085D01*
X244652325Y-101639704D01*
X244650781Y-101577287D01*
X244650734Y-101571748D01*
X244751429Y-101571748D01*
X244751772Y-101624577D01*
X244753942Y-101672362D01*
X244759307Y-101703209D01*
X244769217Y-101723935D01*
X244785021Y-101741356D01*
X244788724Y-101744705D01*
X244836299Y-101769419D01*
X244886635Y-101766890D01*
X244933517Y-101737288D01*
X244947477Y-101721953D01*
X244959160Y-101701622D01*
X244965686Y-101673514D01*
X244968524Y-101630550D01*
X244969143Y-101565647D01*
X244968837Y-101516122D01*
X244966722Y-101467782D01*
X244961390Y-101436587D01*
X244951460Y-101415647D01*
X244935550Y-101398073D01*
X244926204Y-101390159D01*
X244877776Y-101368843D01*
X244827040Y-101372198D01*
X244782987Y-101400107D01*
X244773504Y-101411173D01*
X244761939Y-101432009D01*
X244755252Y-101461106D01*
X244752173Y-101505381D01*
X244751429Y-101571748D01*
X244650734Y-101571748D01*
X244650067Y-101493837D01*
X244649883Y-101385358D01*
X244649829Y-101048601D01*
X244697000Y-101068362D01*
X244709472Y-101073770D01*
X244729324Y-101085985D01*
X244740687Y-101104482D01*
X244746933Y-101136829D01*
X244751429Y-101190593D01*
X244755535Y-101238866D01*
X244760963Y-101270557D01*
X244768739Y-101282383D01*
X244780457Y-101279212D01*
X244810318Y-101268067D01*
X244863684Y-101265304D01*
X244921093Y-101275625D01*
X244970625Y-101297861D01*
X244997876Y-101318443D01*
X245032865Y-101358600D01*
X245055274Y-101410086D01*
X245067190Y-101478568D01*
X245070542Y-101565647D01*
X245070698Y-101569714D01*
G36*
X245070698Y-101569714D02*
G01*
X245069537Y-101626313D01*
X245061345Y-101703462D01*
X245043519Y-101761276D01*
X245013975Y-101805422D01*
X244970625Y-101841568D01*
X244929332Y-101862463D01*
X244859987Y-101874090D01*
X244790736Y-101861377D01*
X244728145Y-101825945D01*
X244678779Y-101769418D01*
X244672818Y-101758995D01*
X244664945Y-101740733D01*
X244659106Y-101717429D01*
X244654999Y-101685085D01*
X244652325Y-101639704D01*
X244650781Y-101577287D01*
X244650734Y-101571748D01*
X244751429Y-101571748D01*
X244751772Y-101624577D01*
X244753942Y-101672362D01*
X244759307Y-101703209D01*
X244769217Y-101723935D01*
X244785021Y-101741356D01*
X244788724Y-101744705D01*
X244836299Y-101769419D01*
X244886635Y-101766890D01*
X244933517Y-101737288D01*
X244947477Y-101721953D01*
X244959160Y-101701622D01*
X244965686Y-101673514D01*
X244968524Y-101630550D01*
X244969143Y-101565647D01*
X244968837Y-101516122D01*
X244966722Y-101467782D01*
X244961390Y-101436587D01*
X244951460Y-101415647D01*
X244935550Y-101398073D01*
X244926204Y-101390159D01*
X244877776Y-101368843D01*
X244827040Y-101372198D01*
X244782987Y-101400107D01*
X244773504Y-101411173D01*
X244761939Y-101432009D01*
X244755252Y-101461106D01*
X244752173Y-101505381D01*
X244751429Y-101571748D01*
X244650734Y-101571748D01*
X244650067Y-101493837D01*
X244649883Y-101385358D01*
X244649829Y-101048601D01*
X244697000Y-101068362D01*
X244709472Y-101073770D01*
X244729324Y-101085985D01*
X244740687Y-101104482D01*
X244746933Y-101136829D01*
X244751429Y-101190593D01*
X244755535Y-101238866D01*
X244760963Y-101270557D01*
X244768739Y-101282383D01*
X244780457Y-101279212D01*
X244810318Y-101268067D01*
X244863684Y-101265304D01*
X244921093Y-101275625D01*
X244970625Y-101297861D01*
X244997876Y-101318443D01*
X245032865Y-101358600D01*
X245055274Y-101410086D01*
X245067190Y-101478568D01*
X245070542Y-101565647D01*
X245070698Y-101569714D01*
G37*
X248002299Y-101514055D02*
X247997684Y-101624078D01*
X247995078Y-101647387D01*
X247975660Y-101730352D01*
X247940573Y-101793448D01*
X247887212Y-101841808D01*
X247884196Y-101843804D01*
X247816362Y-101872185D01*
X247745535Y-101874711D01*
X247677289Y-101853097D01*
X247617196Y-101809062D01*
X247570829Y-101744322D01*
X247570050Y-101742761D01*
X247554643Y-101702558D01*
X247543357Y-101656866D01*
X247537370Y-101613972D01*
X247537861Y-101582160D01*
X247546007Y-101569714D01*
X247553244Y-101570471D01*
X247587851Y-101584235D01*
X247627078Y-101609546D01*
X247660448Y-101638845D01*
X247677483Y-101664572D01*
X247695192Y-101699471D01*
X247731485Y-101731212D01*
X247773630Y-101743886D01*
X247789077Y-101740221D01*
X247819569Y-101721774D01*
X247846128Y-101696166D01*
X247857486Y-101672934D01*
X247857482Y-101672848D01*
X247844596Y-101662179D01*
X247810241Y-101642933D01*
X247759593Y-101617813D01*
X247697829Y-101589524D01*
X247697489Y-101589374D01*
X247630388Y-101559498D01*
X247585411Y-101537973D01*
X247558145Y-101521437D01*
X247544178Y-101506531D01*
X247539097Y-101489893D01*
X247538490Y-101468162D01*
X247542712Y-101427013D01*
X247686000Y-101427013D01*
X247700791Y-101439949D01*
X247737644Y-101459333D01*
X247738725Y-101459881D01*
X247782205Y-101480587D01*
X247821102Y-101497105D01*
X247845778Y-101504093D01*
X247855676Y-101494753D01*
X247857486Y-101462748D01*
X247849966Y-101422915D01*
X247823897Y-101386717D01*
X247786154Y-101367950D01*
X247744077Y-101369845D01*
X247705005Y-101395632D01*
X247689647Y-101413451D01*
X247686000Y-101427013D01*
X247542712Y-101427013D01*
X247543833Y-101416086D01*
X247570251Y-101345335D01*
X247614473Y-101289735D01*
X247671697Y-101251239D01*
X247737120Y-101231797D01*
X247805937Y-101233359D01*
X247873347Y-101257878D01*
X247934544Y-101307302D01*
X247968450Y-101356212D01*
X247992806Y-101426027D01*
X247996767Y-101462748D01*
X248002299Y-101514055D01*
G36*
X248002299Y-101514055D02*
G01*
X247997684Y-101624078D01*
X247995078Y-101647387D01*
X247975660Y-101730352D01*
X247940573Y-101793448D01*
X247887212Y-101841808D01*
X247884196Y-101843804D01*
X247816362Y-101872185D01*
X247745535Y-101874711D01*
X247677289Y-101853097D01*
X247617196Y-101809062D01*
X247570829Y-101744322D01*
X247570050Y-101742761D01*
X247554643Y-101702558D01*
X247543357Y-101656866D01*
X247537370Y-101613972D01*
X247537861Y-101582160D01*
X247546007Y-101569714D01*
X247553244Y-101570471D01*
X247587851Y-101584235D01*
X247627078Y-101609546D01*
X247660448Y-101638845D01*
X247677483Y-101664572D01*
X247695192Y-101699471D01*
X247731485Y-101731212D01*
X247773630Y-101743886D01*
X247789077Y-101740221D01*
X247819569Y-101721774D01*
X247846128Y-101696166D01*
X247857486Y-101672934D01*
X247857482Y-101672848D01*
X247844596Y-101662179D01*
X247810241Y-101642933D01*
X247759593Y-101617813D01*
X247697829Y-101589524D01*
X247697489Y-101589374D01*
X247630388Y-101559498D01*
X247585411Y-101537973D01*
X247558145Y-101521437D01*
X247544178Y-101506531D01*
X247539097Y-101489893D01*
X247538490Y-101468162D01*
X247542712Y-101427013D01*
X247686000Y-101427013D01*
X247700791Y-101439949D01*
X247737644Y-101459333D01*
X247738725Y-101459881D01*
X247782205Y-101480587D01*
X247821102Y-101497105D01*
X247845778Y-101504093D01*
X247855676Y-101494753D01*
X247857486Y-101462748D01*
X247849966Y-101422915D01*
X247823897Y-101386717D01*
X247786154Y-101367950D01*
X247744077Y-101369845D01*
X247705005Y-101395632D01*
X247689647Y-101413451D01*
X247686000Y-101427013D01*
X247542712Y-101427013D01*
X247543833Y-101416086D01*
X247570251Y-101345335D01*
X247614473Y-101289735D01*
X247671697Y-101251239D01*
X247737120Y-101231797D01*
X247805937Y-101233359D01*
X247873347Y-101257878D01*
X247934544Y-101307302D01*
X247968450Y-101356212D01*
X247992806Y-101426027D01*
X247996767Y-101462748D01*
X248002299Y-101514055D01*
G37*
X245929483Y-101280569D02*
X245979376Y-101309661D01*
X246001325Y-101332327D01*
X246043504Y-101400082D01*
X246057714Y-101473950D01*
X246057714Y-101524770D01*
X246010999Y-101505128D01*
X245978692Y-101485308D01*
X245953231Y-101444160D01*
X245950616Y-101435675D01*
X245922478Y-101392451D01*
X245880067Y-101369103D01*
X245831370Y-101368100D01*
X245784373Y-101391914D01*
X245777357Y-101398056D01*
X245753893Y-101424745D01*
X245750019Y-101448014D01*
X245767768Y-101470862D01*
X245809179Y-101496287D01*
X245876286Y-101527288D01*
X245880824Y-101529252D01*
X245955322Y-101563990D01*
X246006203Y-101594763D01*
X246037525Y-101625488D01*
X246053343Y-101660082D01*
X246057714Y-101702462D01*
X246051986Y-101749446D01*
X246023062Y-101809585D01*
X245972178Y-101852788D01*
X245935374Y-101865759D01*
X245883434Y-101872856D01*
X245832999Y-101871340D01*
X245796983Y-101860632D01*
X245793158Y-101857966D01*
X245782998Y-101839337D01*
X245790048Y-101806505D01*
X245802297Y-101780735D01*
X245821939Y-101770006D01*
X245859191Y-101770539D01*
X245910908Y-101767462D01*
X245944701Y-101746212D01*
X245956114Y-101706877D01*
X245956104Y-101705747D01*
X245949187Y-101682913D01*
X245925659Y-101661963D01*
X245879914Y-101637815D01*
X245817704Y-101608741D01*
X245776499Y-101592925D01*
X245752712Y-101593944D01*
X245741597Y-101614837D01*
X245738408Y-101658641D01*
X245738400Y-101728393D01*
X245738044Y-101771452D01*
X245736413Y-101824626D01*
X245733761Y-101861022D01*
X245730422Y-101874514D01*
X245729530Y-101874423D01*
X245710237Y-101867110D01*
X245678284Y-101851678D01*
X245634124Y-101828842D01*
X245639371Y-101623078D01*
X245639736Y-101609432D01*
X245643904Y-101513651D01*
X245651268Y-101441462D01*
X245663330Y-101388058D01*
X245681593Y-101348633D01*
X245707560Y-101318380D01*
X245742733Y-101292493D01*
X245743384Y-101292087D01*
X245800256Y-101270968D01*
X245866033Y-101267400D01*
X245929483Y-101280569D01*
G36*
X245929483Y-101280569D02*
G01*
X245979376Y-101309661D01*
X246001325Y-101332327D01*
X246043504Y-101400082D01*
X246057714Y-101473950D01*
X246057714Y-101524770D01*
X246010999Y-101505128D01*
X245978692Y-101485308D01*
X245953231Y-101444160D01*
X245950616Y-101435675D01*
X245922478Y-101392451D01*
X245880067Y-101369103D01*
X245831370Y-101368100D01*
X245784373Y-101391914D01*
X245777357Y-101398056D01*
X245753893Y-101424745D01*
X245750019Y-101448014D01*
X245767768Y-101470862D01*
X245809179Y-101496287D01*
X245876286Y-101527288D01*
X245880824Y-101529252D01*
X245955322Y-101563990D01*
X246006203Y-101594763D01*
X246037525Y-101625488D01*
X246053343Y-101660082D01*
X246057714Y-101702462D01*
X246051986Y-101749446D01*
X246023062Y-101809585D01*
X245972178Y-101852788D01*
X245935374Y-101865759D01*
X245883434Y-101872856D01*
X245832999Y-101871340D01*
X245796983Y-101860632D01*
X245793158Y-101857966D01*
X245782998Y-101839337D01*
X245790048Y-101806505D01*
X245802297Y-101780735D01*
X245821939Y-101770006D01*
X245859191Y-101770539D01*
X245910908Y-101767462D01*
X245944701Y-101746212D01*
X245956114Y-101706877D01*
X245956104Y-101705747D01*
X245949187Y-101682913D01*
X245925659Y-101661963D01*
X245879914Y-101637815D01*
X245817704Y-101608741D01*
X245776499Y-101592925D01*
X245752712Y-101593944D01*
X245741597Y-101614837D01*
X245738408Y-101658641D01*
X245738400Y-101728393D01*
X245738044Y-101771452D01*
X245736413Y-101824626D01*
X245733761Y-101861022D01*
X245730422Y-101874514D01*
X245729530Y-101874423D01*
X245710237Y-101867110D01*
X245678284Y-101851678D01*
X245634124Y-101828842D01*
X245639371Y-101623078D01*
X245639736Y-101609432D01*
X245643904Y-101513651D01*
X245651268Y-101441462D01*
X245663330Y-101388058D01*
X245681593Y-101348633D01*
X245707560Y-101318380D01*
X245742733Y-101292493D01*
X245743384Y-101292087D01*
X245800256Y-101270968D01*
X245866033Y-101267400D01*
X245929483Y-101280569D01*
G37*
X243807495Y-101266220D02*
X243838599Y-101274121D01*
X243867559Y-101293817D01*
X243904831Y-101330484D01*
X243928801Y-101356378D01*
X243953770Y-101389997D01*
X243965031Y-101421506D01*
X243967657Y-101461485D01*
X243967657Y-101526917D01*
X243923035Y-101503842D01*
X243887673Y-101475724D01*
X243863451Y-101437848D01*
X243859291Y-101427551D01*
X243827594Y-101387637D01*
X243783554Y-101367624D01*
X243735531Y-101369572D01*
X243691886Y-101395543D01*
X243673420Y-101416635D01*
X243662663Y-101443619D01*
X243674178Y-101467634D01*
X243709981Y-101491791D01*
X243772090Y-101519199D01*
X243781515Y-101522985D01*
X243838058Y-101547759D01*
X243886580Y-101572189D01*
X243917451Y-101591486D01*
X243948371Y-101625953D01*
X243968927Y-101680957D01*
X243966744Y-101739983D01*
X243942424Y-101795845D01*
X243896568Y-101841355D01*
X243859438Y-101860727D01*
X243787711Y-101874292D01*
X243747852Y-101872462D01*
X243710953Y-101862568D01*
X243696797Y-101841806D01*
X243702091Y-101807613D01*
X243703631Y-101803092D01*
X243715842Y-101779116D01*
X243736174Y-101770042D01*
X243774908Y-101770649D01*
X243802257Y-101771474D01*
X243834257Y-101764392D01*
X243856182Y-101743219D01*
X243868670Y-101717152D01*
X243870062Y-101689845D01*
X243869998Y-101689685D01*
X243853807Y-101674930D01*
X243819155Y-101653457D01*
X243774321Y-101629458D01*
X243727582Y-101607125D01*
X243687217Y-101590652D01*
X243661504Y-101584229D01*
X243657679Y-101590518D01*
X243652864Y-101620115D01*
X243649566Y-101668447D01*
X243648343Y-101729372D01*
X243648058Y-101771542D01*
X243646718Y-101824653D01*
X243644528Y-101861025D01*
X243641769Y-101874514D01*
X243627344Y-101869981D01*
X243598226Y-101857670D01*
X243561257Y-101840826D01*
X243561257Y-101624721D01*
X243561493Y-101569327D01*
X243563729Y-101485207D01*
X243569423Y-101422800D01*
X243579903Y-101377358D01*
X243596497Y-101344133D01*
X243620531Y-101318378D01*
X243653333Y-101295344D01*
X243695124Y-101276335D01*
X243772287Y-101264914D01*
X243807495Y-101266220D01*
G36*
X243807495Y-101266220D02*
G01*
X243838599Y-101274121D01*
X243867559Y-101293817D01*
X243904831Y-101330484D01*
X243928801Y-101356378D01*
X243953770Y-101389997D01*
X243965031Y-101421506D01*
X243967657Y-101461485D01*
X243967657Y-101526917D01*
X243923035Y-101503842D01*
X243887673Y-101475724D01*
X243863451Y-101437848D01*
X243859291Y-101427551D01*
X243827594Y-101387637D01*
X243783554Y-101367624D01*
X243735531Y-101369572D01*
X243691886Y-101395543D01*
X243673420Y-101416635D01*
X243662663Y-101443619D01*
X243674178Y-101467634D01*
X243709981Y-101491791D01*
X243772090Y-101519199D01*
X243781515Y-101522985D01*
X243838058Y-101547759D01*
X243886580Y-101572189D01*
X243917451Y-101591486D01*
X243948371Y-101625953D01*
X243968927Y-101680957D01*
X243966744Y-101739983D01*
X243942424Y-101795845D01*
X243896568Y-101841355D01*
X243859438Y-101860727D01*
X243787711Y-101874292D01*
X243747852Y-101872462D01*
X243710953Y-101862568D01*
X243696797Y-101841806D01*
X243702091Y-101807613D01*
X243703631Y-101803092D01*
X243715842Y-101779116D01*
X243736174Y-101770042D01*
X243774908Y-101770649D01*
X243802257Y-101771474D01*
X243834257Y-101764392D01*
X243856182Y-101743219D01*
X243868670Y-101717152D01*
X243870062Y-101689845D01*
X243869998Y-101689685D01*
X243853807Y-101674930D01*
X243819155Y-101653457D01*
X243774321Y-101629458D01*
X243727582Y-101607125D01*
X243687217Y-101590652D01*
X243661504Y-101584229D01*
X243657679Y-101590518D01*
X243652864Y-101620115D01*
X243649566Y-101668447D01*
X243648343Y-101729372D01*
X243648058Y-101771542D01*
X243646718Y-101824653D01*
X243644528Y-101861025D01*
X243641769Y-101874514D01*
X243627344Y-101869981D01*
X243598226Y-101857670D01*
X243561257Y-101840826D01*
X243561257Y-101624721D01*
X243561493Y-101569327D01*
X243563729Y-101485207D01*
X243569423Y-101422800D01*
X243579903Y-101377358D01*
X243596497Y-101344133D01*
X243620531Y-101318378D01*
X243653333Y-101295344D01*
X243695124Y-101276335D01*
X243772287Y-101264914D01*
X243807495Y-101266220D01*
G37*
X248549815Y-101621524D02*
X248551252Y-101733000D01*
X248551651Y-101765339D01*
X248552929Y-101873455D01*
X248553185Y-101956186D01*
X248551634Y-102016426D01*
X248547490Y-102057073D01*
X248539964Y-102081023D01*
X248528271Y-102091171D01*
X248511624Y-102090414D01*
X248489236Y-102081648D01*
X248460321Y-102067769D01*
X248454142Y-102064808D01*
X248428413Y-102050311D01*
X248414976Y-102033065D01*
X248409834Y-102004308D01*
X248408990Y-101955283D01*
X248408952Y-101867257D01*
X248318276Y-101867257D01*
X248262498Y-101864815D01*
X248218640Y-101854908D01*
X248182218Y-101834886D01*
X248179503Y-101832929D01*
X248142546Y-101799869D01*
X248116826Y-101759931D01*
X248100606Y-101707657D01*
X248092148Y-101637588D01*
X248090083Y-101558430D01*
X248234857Y-101558430D01*
X248234882Y-101571697D01*
X248236261Y-101631584D01*
X248240687Y-101670732D01*
X248249461Y-101696153D01*
X248263886Y-101714857D01*
X248264784Y-101715750D01*
X248300237Y-101739952D01*
X248334596Y-101737567D01*
X248373403Y-101708260D01*
X248382895Y-101698244D01*
X248396876Y-101677708D01*
X248404760Y-101650997D01*
X248408245Y-101610499D01*
X248409029Y-101548603D01*
X248408350Y-101511130D01*
X248400983Y-101442980D01*
X248384168Y-101398330D01*
X248356234Y-101373926D01*
X248315509Y-101366514D01*
X248298350Y-101368094D01*
X248268660Y-101383766D01*
X248249031Y-101418691D01*
X248238188Y-101475901D01*
X248234857Y-101558430D01*
X248090083Y-101558430D01*
X248089714Y-101544267D01*
X248090253Y-101476169D01*
X248092707Y-101424587D01*
X248098158Y-101388816D01*
X248107686Y-101362015D01*
X248122371Y-101337338D01*
X248135852Y-101318480D01*
X248184799Y-101267568D01*
X248240256Y-101239918D01*
X248309928Y-101231165D01*
X248389664Y-101239890D01*
X248458595Y-101271185D01*
X248513113Y-101326381D01*
X248517223Y-101332224D01*
X248526808Y-101347753D01*
X248534151Y-101365498D01*
X248539612Y-101389290D01*
X248543550Y-101422958D01*
X248546323Y-101470333D01*
X248548292Y-101535245D01*
X248548528Y-101548603D01*
X248549815Y-101621524D01*
G36*
X248549815Y-101621524D02*
G01*
X248551252Y-101733000D01*
X248551651Y-101765339D01*
X248552929Y-101873455D01*
X248553185Y-101956186D01*
X248551634Y-102016426D01*
X248547490Y-102057073D01*
X248539964Y-102081023D01*
X248528271Y-102091171D01*
X248511624Y-102090414D01*
X248489236Y-102081648D01*
X248460321Y-102067769D01*
X248454142Y-102064808D01*
X248428413Y-102050311D01*
X248414976Y-102033065D01*
X248409834Y-102004308D01*
X248408990Y-101955283D01*
X248408952Y-101867257D01*
X248318276Y-101867257D01*
X248262498Y-101864815D01*
X248218640Y-101854908D01*
X248182218Y-101834886D01*
X248179503Y-101832929D01*
X248142546Y-101799869D01*
X248116826Y-101759931D01*
X248100606Y-101707657D01*
X248092148Y-101637588D01*
X248090083Y-101558430D01*
X248234857Y-101558430D01*
X248234882Y-101571697D01*
X248236261Y-101631584D01*
X248240687Y-101670732D01*
X248249461Y-101696153D01*
X248263886Y-101714857D01*
X248264784Y-101715750D01*
X248300237Y-101739952D01*
X248334596Y-101737567D01*
X248373403Y-101708260D01*
X248382895Y-101698244D01*
X248396876Y-101677708D01*
X248404760Y-101650997D01*
X248408245Y-101610499D01*
X248409029Y-101548603D01*
X248408350Y-101511130D01*
X248400983Y-101442980D01*
X248384168Y-101398330D01*
X248356234Y-101373926D01*
X248315509Y-101366514D01*
X248298350Y-101368094D01*
X248268660Y-101383766D01*
X248249031Y-101418691D01*
X248238188Y-101475901D01*
X248234857Y-101558430D01*
X248090083Y-101558430D01*
X248089714Y-101544267D01*
X248090253Y-101476169D01*
X248092707Y-101424587D01*
X248098158Y-101388816D01*
X248107686Y-101362015D01*
X248122371Y-101337338D01*
X248135852Y-101318480D01*
X248184799Y-101267568D01*
X248240256Y-101239918D01*
X248309928Y-101231165D01*
X248389664Y-101239890D01*
X248458595Y-101271185D01*
X248513113Y-101326381D01*
X248517223Y-101332224D01*
X248526808Y-101347753D01*
X248534151Y-101365498D01*
X248539612Y-101389290D01*
X248543550Y-101422958D01*
X248546323Y-101470333D01*
X248548292Y-101535245D01*
X248548528Y-101548603D01*
X248549815Y-101621524D01*
G37*
X245953933Y-96562371D02*
X246029856Y-96562865D01*
X246084491Y-96564135D01*
X246121500Y-96566547D01*
X246144547Y-96570467D01*
X246157296Y-96576262D01*
X246163411Y-96584299D01*
X246166556Y-96594943D01*
X246166646Y-96595325D01*
X246171814Y-96620347D01*
X246181209Y-96668681D01*
X246193867Y-96735260D01*
X246208825Y-96815014D01*
X246225119Y-96902875D01*
X246226448Y-96910064D01*
X246242691Y-96995340D01*
X246257805Y-97070242D01*
X246270808Y-97130219D01*
X246280715Y-97170717D01*
X246286544Y-97187184D01*
X246286575Y-97187210D01*
X246304943Y-97196320D01*
X246342640Y-97211457D01*
X246391543Y-97229358D01*
X246394297Y-97230330D01*
X246456817Y-97253959D01*
X246529543Y-97283595D01*
X246597294Y-97313062D01*
X246708703Y-97363626D01*
X246955399Y-97195160D01*
X246972775Y-97183311D01*
X247047202Y-97132947D01*
X247113614Y-97088612D01*
X247168039Y-97052916D01*
X247206506Y-97028471D01*
X247225042Y-97017889D01*
X247237743Y-97020315D01*
X247266579Y-97039110D01*
X247311143Y-97076330D01*
X247372670Y-97133020D01*
X247452398Y-97210227D01*
X247459532Y-97217255D01*
X247522796Y-97280222D01*
X247578990Y-97337268D01*
X247624677Y-97384817D01*
X247656414Y-97419297D01*
X247670764Y-97437131D01*
X247670810Y-97437217D01*
X247672633Y-97450795D01*
X247665910Y-97472820D01*
X247648946Y-97506304D01*
X247620044Y-97554261D01*
X247577508Y-97619704D01*
X247519644Y-97705645D01*
X247509783Y-97720151D01*
X247459913Y-97793635D01*
X247415905Y-97858687D01*
X247380380Y-97911417D01*
X247355959Y-97947936D01*
X247345264Y-97964356D01*
X247344458Y-97967834D01*
X247349518Y-97993785D01*
X247364677Y-98036159D01*
X247387463Y-98087728D01*
X247418429Y-98155170D01*
X247453004Y-98235195D01*
X247482366Y-98307629D01*
X247489645Y-98326377D01*
X247508710Y-98374246D01*
X247522715Y-98407596D01*
X247529041Y-98420114D01*
X247536025Y-98421050D01*
X247567413Y-98426461D01*
X247618787Y-98435806D01*
X247684802Y-98448069D01*
X247760113Y-98462232D01*
X247839375Y-98477280D01*
X247917243Y-98492195D01*
X247988370Y-98505961D01*
X248047412Y-98517562D01*
X248089022Y-98525980D01*
X248107857Y-98530199D01*
X248110980Y-98531389D01*
X248118591Y-98537805D01*
X248124254Y-98551465D01*
X248128251Y-98575999D01*
X248130866Y-98615038D01*
X248132384Y-98672213D01*
X248133086Y-98751154D01*
X248133257Y-98855492D01*
X248133257Y-99172799D01*
X248057057Y-99187839D01*
X248047840Y-99189642D01*
X247998891Y-99198980D01*
X247931205Y-99211669D01*
X247852478Y-99226273D01*
X247770400Y-99241355D01*
X247738078Y-99247422D01*
X247665855Y-99262181D01*
X247605666Y-99276137D01*
X247563040Y-99287952D01*
X247543510Y-99296287D01*
X247534660Y-99309905D01*
X247518548Y-99345938D01*
X247502065Y-99392572D01*
X247496263Y-99410034D01*
X247474906Y-99467358D01*
X247447359Y-99535201D01*
X247418107Y-99602355D01*
X247402463Y-99637430D01*
X247380174Y-99689822D01*
X247364857Y-99729058D01*
X247359162Y-99748563D01*
X247359478Y-99750036D01*
X247370281Y-99770729D01*
X247394638Y-99810665D01*
X247430081Y-99865972D01*
X247474136Y-99932781D01*
X247524332Y-100007220D01*
X247689501Y-100249623D01*
X247472503Y-100466983D01*
X247451516Y-100487899D01*
X247387342Y-100550505D01*
X247329990Y-100604495D01*
X247282820Y-100646826D01*
X247249192Y-100674457D01*
X247232467Y-100684343D01*
X247214303Y-100676821D01*
X247176265Y-100655227D01*
X247122726Y-100622151D01*
X247057884Y-100580191D01*
X246985940Y-100531943D01*
X246915275Y-100484291D01*
X246851526Y-100442328D01*
X246799513Y-100409165D01*
X246763279Y-100387378D01*
X246746867Y-100379543D01*
X246745905Y-100379614D01*
X246724103Y-100387338D01*
X246685440Y-100405323D01*
X246637612Y-100430013D01*
X246637110Y-100430284D01*
X246573587Y-100462099D01*
X246530060Y-100477642D01*
X246503052Y-100477685D01*
X246489090Y-100463000D01*
X246483180Y-100448544D01*
X246467229Y-100409831D01*
X246442660Y-100350316D01*
X246410779Y-100273165D01*
X246372893Y-100181541D01*
X246330310Y-100078607D01*
X246284337Y-99967526D01*
X246242667Y-99866472D01*
X246200268Y-99762780D01*
X246162756Y-99670119D01*
X246131388Y-99591642D01*
X246107425Y-99530500D01*
X246092123Y-99489843D01*
X246086743Y-99472825D01*
X246097018Y-99457219D01*
X246125563Y-99431162D01*
X246165971Y-99400887D01*
X246262979Y-99321684D01*
X246349793Y-99220475D01*
X246413322Y-99109116D01*
X246453177Y-98990893D01*
X246468965Y-98869095D01*
X246460296Y-98747010D01*
X246426778Y-98627925D01*
X246368021Y-98515129D01*
X246283632Y-98411911D01*
X246239631Y-98371713D01*
X246134211Y-98300638D01*
X246021410Y-98254301D01*
X245904525Y-98231599D01*
X245786853Y-98231428D01*
X245671690Y-98252687D01*
X245562335Y-98294270D01*
X245462083Y-98355076D01*
X245374233Y-98434001D01*
X245302080Y-98529941D01*
X245248922Y-98641795D01*
X245218057Y-98768457D01*
X245212392Y-98829507D01*
X245220185Y-98961776D01*
X245255284Y-99087266D01*
X245316649Y-99203759D01*
X245403243Y-99309039D01*
X245514029Y-99400887D01*
X245552931Y-99429930D01*
X245582104Y-99456272D01*
X245593257Y-99472800D01*
X245588810Y-99487209D01*
X245574378Y-99525815D01*
X245551173Y-99585201D01*
X245520452Y-99662215D01*
X245483474Y-99753703D01*
X245441496Y-99856516D01*
X245395778Y-99967502D01*
X245354178Y-100068072D01*
X245311222Y-100171947D01*
X245272829Y-100264819D01*
X245240305Y-100343525D01*
X245214958Y-100404899D01*
X245198095Y-100445779D01*
X245191025Y-100463000D01*
X245190943Y-100463204D01*
X245176798Y-100477745D01*
X245149659Y-100477579D01*
X245106023Y-100461927D01*
X245042388Y-100430013D01*
X245037379Y-100427326D01*
X244990125Y-100403150D01*
X244952811Y-100386037D01*
X244933133Y-100379543D01*
X244917005Y-100387218D01*
X244880959Y-100408871D01*
X244829092Y-100441928D01*
X244765445Y-100483810D01*
X244694060Y-100531943D01*
X244623724Y-100579131D01*
X244558670Y-100621267D01*
X244504820Y-100654578D01*
X244466374Y-100676469D01*
X244447534Y-100684343D01*
X244444325Y-100683343D01*
X244421954Y-100667584D01*
X244383733Y-100635033D01*
X244333021Y-100588733D01*
X244273181Y-100531726D01*
X244207571Y-100467058D01*
X243990648Y-100249772D01*
X244159601Y-100001253D01*
X244328553Y-99752733D01*
X244277183Y-99641595D01*
X244277031Y-99641266D01*
X244246183Y-99570418D01*
X244214661Y-99491523D01*
X244189266Y-99421600D01*
X244185423Y-99410322D01*
X244166047Y-99357967D01*
X244148574Y-99317283D01*
X244136388Y-99296287D01*
X244131426Y-99293322D01*
X244101634Y-99283375D01*
X244051047Y-99270505D01*
X243985194Y-99256053D01*
X243909600Y-99241355D01*
X243886957Y-99237210D01*
X243805038Y-99222116D01*
X243728600Y-99207899D01*
X243665337Y-99195995D01*
X243622943Y-99187839D01*
X243546743Y-99172799D01*
X243546743Y-98855492D01*
X243546760Y-98816476D01*
X243547082Y-98721292D01*
X243548033Y-98650255D01*
X243549896Y-98599734D01*
X243552955Y-98566098D01*
X243557494Y-98545718D01*
X243563795Y-98534962D01*
X243572143Y-98530199D01*
X243580224Y-98528270D01*
X243613172Y-98521445D01*
X243665736Y-98511022D01*
X243732569Y-98498018D01*
X243808328Y-98483449D01*
X243887665Y-98468333D01*
X243965237Y-98453685D01*
X244035698Y-98440523D01*
X244093702Y-98429863D01*
X244133904Y-98422721D01*
X244150959Y-98420114D01*
X244152112Y-98418541D01*
X244161385Y-98398119D01*
X244177432Y-98359045D01*
X244197635Y-98307629D01*
X244225672Y-98238353D01*
X244260186Y-98158290D01*
X244292538Y-98087728D01*
X244299952Y-98071889D01*
X244320755Y-98022293D01*
X244333219Y-97984038D01*
X244334863Y-97964356D01*
X244334015Y-97962962D01*
X244320548Y-97942420D01*
X244293850Y-97902516D01*
X244256539Y-97847140D01*
X244211234Y-97780177D01*
X244160552Y-97705517D01*
X244103445Y-97620692D01*
X244060607Y-97554800D01*
X244031460Y-97506478D01*
X244014317Y-97472733D01*
X244007495Y-97450572D01*
X244009306Y-97437002D01*
X244009915Y-97435984D01*
X244026297Y-97416210D01*
X244059695Y-97380175D01*
X244106671Y-97331451D01*
X244163786Y-97273612D01*
X244227603Y-97210227D01*
X244293802Y-97145905D01*
X244358648Y-97085447D01*
X244406299Y-97044655D01*
X244437990Y-97022484D01*
X244454958Y-97017889D01*
X244457175Y-97018921D01*
X244480524Y-97032837D01*
X244522912Y-97060030D01*
X244580369Y-97097889D01*
X244648923Y-97143803D01*
X244724601Y-97195160D01*
X244971298Y-97363626D01*
X245082706Y-97313062D01*
X245085943Y-97311597D01*
X245154343Y-97281965D01*
X245226907Y-97252493D01*
X245288457Y-97229358D01*
X245288729Y-97229262D01*
X245337595Y-97211367D01*
X245375212Y-97196253D01*
X245393457Y-97187184D01*
X245393752Y-97186855D01*
X245399946Y-97168282D01*
X245410139Y-97126045D01*
X245423348Y-97064696D01*
X245438590Y-96988789D01*
X245454881Y-96902875D01*
X245455449Y-96899796D01*
X245471713Y-96812128D01*
X245486608Y-96732741D01*
X245499171Y-96666701D01*
X245508438Y-96619079D01*
X245513444Y-96594943D01*
X245513764Y-96593605D01*
X245517060Y-96583273D01*
X245523738Y-96575506D01*
X245537462Y-96569940D01*
X245561895Y-96566207D01*
X245600702Y-96563942D01*
X245657546Y-96562778D01*
X245736090Y-96562348D01*
X245840000Y-96562286D01*
X245853056Y-96562286D01*
X245953933Y-96562371D01*
G36*
X245953933Y-96562371D02*
G01*
X246029856Y-96562865D01*
X246084491Y-96564135D01*
X246121500Y-96566547D01*
X246144547Y-96570467D01*
X246157296Y-96576262D01*
X246163411Y-96584299D01*
X246166556Y-96594943D01*
X246166646Y-96595325D01*
X246171814Y-96620347D01*
X246181209Y-96668681D01*
X246193867Y-96735260D01*
X246208825Y-96815014D01*
X246225119Y-96902875D01*
X246226448Y-96910064D01*
X246242691Y-96995340D01*
X246257805Y-97070242D01*
X246270808Y-97130219D01*
X246280715Y-97170717D01*
X246286544Y-97187184D01*
X246286575Y-97187210D01*
X246304943Y-97196320D01*
X246342640Y-97211457D01*
X246391543Y-97229358D01*
X246394297Y-97230330D01*
X246456817Y-97253959D01*
X246529543Y-97283595D01*
X246597294Y-97313062D01*
X246708703Y-97363626D01*
X246955399Y-97195160D01*
X246972775Y-97183311D01*
X247047202Y-97132947D01*
X247113614Y-97088612D01*
X247168039Y-97052916D01*
X247206506Y-97028471D01*
X247225042Y-97017889D01*
X247237743Y-97020315D01*
X247266579Y-97039110D01*
X247311143Y-97076330D01*
X247372670Y-97133020D01*
X247452398Y-97210227D01*
X247459532Y-97217255D01*
X247522796Y-97280222D01*
X247578990Y-97337268D01*
X247624677Y-97384817D01*
X247656414Y-97419297D01*
X247670764Y-97437131D01*
X247670810Y-97437217D01*
X247672633Y-97450795D01*
X247665910Y-97472820D01*
X247648946Y-97506304D01*
X247620044Y-97554261D01*
X247577508Y-97619704D01*
X247519644Y-97705645D01*
X247509783Y-97720151D01*
X247459913Y-97793635D01*
X247415905Y-97858687D01*
X247380380Y-97911417D01*
X247355959Y-97947936D01*
X247345264Y-97964356D01*
X247344458Y-97967834D01*
X247349518Y-97993785D01*
X247364677Y-98036159D01*
X247387463Y-98087728D01*
X247418429Y-98155170D01*
X247453004Y-98235195D01*
X247482366Y-98307629D01*
X247489645Y-98326377D01*
X247508710Y-98374246D01*
X247522715Y-98407596D01*
X247529041Y-98420114D01*
X247536025Y-98421050D01*
X247567413Y-98426461D01*
X247618787Y-98435806D01*
X247684802Y-98448069D01*
X247760113Y-98462232D01*
X247839375Y-98477280D01*
X247917243Y-98492195D01*
X247988370Y-98505961D01*
X248047412Y-98517562D01*
X248089022Y-98525980D01*
X248107857Y-98530199D01*
X248110980Y-98531389D01*
X248118591Y-98537805D01*
X248124254Y-98551465D01*
X248128251Y-98575999D01*
X248130866Y-98615038D01*
X248132384Y-98672213D01*
X248133086Y-98751154D01*
X248133257Y-98855492D01*
X248133257Y-99172799D01*
X248057057Y-99187839D01*
X248047840Y-99189642D01*
X247998891Y-99198980D01*
X247931205Y-99211669D01*
X247852478Y-99226273D01*
X247770400Y-99241355D01*
X247738078Y-99247422D01*
X247665855Y-99262181D01*
X247605666Y-99276137D01*
X247563040Y-99287952D01*
X247543510Y-99296287D01*
X247534660Y-99309905D01*
X247518548Y-99345938D01*
X247502065Y-99392572D01*
X247496263Y-99410034D01*
X247474906Y-99467358D01*
X247447359Y-99535201D01*
X247418107Y-99602355D01*
X247402463Y-99637430D01*
X247380174Y-99689822D01*
X247364857Y-99729058D01*
X247359162Y-99748563D01*
X247359478Y-99750036D01*
X247370281Y-99770729D01*
X247394638Y-99810665D01*
X247430081Y-99865972D01*
X247474136Y-99932781D01*
X247524332Y-100007220D01*
X247689501Y-100249623D01*
X247472503Y-100466983D01*
X247451516Y-100487899D01*
X247387342Y-100550505D01*
X247329990Y-100604495D01*
X247282820Y-100646826D01*
X247249192Y-100674457D01*
X247232467Y-100684343D01*
X247214303Y-100676821D01*
X247176265Y-100655227D01*
X247122726Y-100622151D01*
X247057884Y-100580191D01*
X246985940Y-100531943D01*
X246915275Y-100484291D01*
X246851526Y-100442328D01*
X246799513Y-100409165D01*
X246763279Y-100387378D01*
X246746867Y-100379543D01*
X246745905Y-100379614D01*
X246724103Y-100387338D01*
X246685440Y-100405323D01*
X246637612Y-100430013D01*
X246637110Y-100430284D01*
X246573587Y-100462099D01*
X246530060Y-100477642D01*
X246503052Y-100477685D01*
X246489090Y-100463000D01*
X246483180Y-100448544D01*
X246467229Y-100409831D01*
X246442660Y-100350316D01*
X246410779Y-100273165D01*
X246372893Y-100181541D01*
X246330310Y-100078607D01*
X246284337Y-99967526D01*
X246242667Y-99866472D01*
X246200268Y-99762780D01*
X246162756Y-99670119D01*
X246131388Y-99591642D01*
X246107425Y-99530500D01*
X246092123Y-99489843D01*
X246086743Y-99472825D01*
X246097018Y-99457219D01*
X246125563Y-99431162D01*
X246165971Y-99400887D01*
X246262979Y-99321684D01*
X246349793Y-99220475D01*
X246413322Y-99109116D01*
X246453177Y-98990893D01*
X246468965Y-98869095D01*
X246460296Y-98747010D01*
X246426778Y-98627925D01*
X246368021Y-98515129D01*
X246283632Y-98411911D01*
X246239631Y-98371713D01*
X246134211Y-98300638D01*
X246021410Y-98254301D01*
X245904525Y-98231599D01*
X245786853Y-98231428D01*
X245671690Y-98252687D01*
X245562335Y-98294270D01*
X245462083Y-98355076D01*
X245374233Y-98434001D01*
X245302080Y-98529941D01*
X245248922Y-98641795D01*
X245218057Y-98768457D01*
X245212392Y-98829507D01*
X245220185Y-98961776D01*
X245255284Y-99087266D01*
X245316649Y-99203759D01*
X245403243Y-99309039D01*
X245514029Y-99400887D01*
X245552931Y-99429930D01*
X245582104Y-99456272D01*
X245593257Y-99472800D01*
X245588810Y-99487209D01*
X245574378Y-99525815D01*
X245551173Y-99585201D01*
X245520452Y-99662215D01*
X245483474Y-99753703D01*
X245441496Y-99856516D01*
X245395778Y-99967502D01*
X245354178Y-100068072D01*
X245311222Y-100171947D01*
X245272829Y-100264819D01*
X245240305Y-100343525D01*
X245214958Y-100404899D01*
X245198095Y-100445779D01*
X245191025Y-100463000D01*
X245190943Y-100463204D01*
X245176798Y-100477745D01*
X245149659Y-100477579D01*
X245106023Y-100461927D01*
X245042388Y-100430013D01*
X245037379Y-100427326D01*
X244990125Y-100403150D01*
X244952811Y-100386037D01*
X244933133Y-100379543D01*
X244917005Y-100387218D01*
X244880959Y-100408871D01*
X244829092Y-100441928D01*
X244765445Y-100483810D01*
X244694060Y-100531943D01*
X244623724Y-100579131D01*
X244558670Y-100621267D01*
X244504820Y-100654578D01*
X244466374Y-100676469D01*
X244447534Y-100684343D01*
X244444325Y-100683343D01*
X244421954Y-100667584D01*
X244383733Y-100635033D01*
X244333021Y-100588733D01*
X244273181Y-100531726D01*
X244207571Y-100467058D01*
X243990648Y-100249772D01*
X244159601Y-100001253D01*
X244328553Y-99752733D01*
X244277183Y-99641595D01*
X244277031Y-99641266D01*
X244246183Y-99570418D01*
X244214661Y-99491523D01*
X244189266Y-99421600D01*
X244185423Y-99410322D01*
X244166047Y-99357967D01*
X244148574Y-99317283D01*
X244136388Y-99296287D01*
X244131426Y-99293322D01*
X244101634Y-99283375D01*
X244051047Y-99270505D01*
X243985194Y-99256053D01*
X243909600Y-99241355D01*
X243886957Y-99237210D01*
X243805038Y-99222116D01*
X243728600Y-99207899D01*
X243665337Y-99195995D01*
X243622943Y-99187839D01*
X243546743Y-99172799D01*
X243546743Y-98855492D01*
X243546760Y-98816476D01*
X243547082Y-98721292D01*
X243548033Y-98650255D01*
X243549896Y-98599734D01*
X243552955Y-98566098D01*
X243557494Y-98545718D01*
X243563795Y-98534962D01*
X243572143Y-98530199D01*
X243580224Y-98528270D01*
X243613172Y-98521445D01*
X243665736Y-98511022D01*
X243732569Y-98498018D01*
X243808328Y-98483449D01*
X243887665Y-98468333D01*
X243965237Y-98453685D01*
X244035698Y-98440523D01*
X244093702Y-98429863D01*
X244133904Y-98422721D01*
X244150959Y-98420114D01*
X244152112Y-98418541D01*
X244161385Y-98398119D01*
X244177432Y-98359045D01*
X244197635Y-98307629D01*
X244225672Y-98238353D01*
X244260186Y-98158290D01*
X244292538Y-98087728D01*
X244299952Y-98071889D01*
X244320755Y-98022293D01*
X244333219Y-97984038D01*
X244334863Y-97964356D01*
X244334015Y-97962962D01*
X244320548Y-97942420D01*
X244293850Y-97902516D01*
X244256539Y-97847140D01*
X244211234Y-97780177D01*
X244160552Y-97705517D01*
X244103445Y-97620692D01*
X244060607Y-97554800D01*
X244031460Y-97506478D01*
X244014317Y-97472733D01*
X244007495Y-97450572D01*
X244009306Y-97437002D01*
X244009915Y-97435984D01*
X244026297Y-97416210D01*
X244059695Y-97380175D01*
X244106671Y-97331451D01*
X244163786Y-97273612D01*
X244227603Y-97210227D01*
X244293802Y-97145905D01*
X244358648Y-97085447D01*
X244406299Y-97044655D01*
X244437990Y-97022484D01*
X244454958Y-97017889D01*
X244457175Y-97018921D01*
X244480524Y-97032837D01*
X244522912Y-97060030D01*
X244580369Y-97097889D01*
X244648923Y-97143803D01*
X244724601Y-97195160D01*
X244971298Y-97363626D01*
X245082706Y-97313062D01*
X245085943Y-97311597D01*
X245154343Y-97281965D01*
X245226907Y-97252493D01*
X245288457Y-97229358D01*
X245288729Y-97229262D01*
X245337595Y-97211367D01*
X245375212Y-97196253D01*
X245393457Y-97187184D01*
X245393752Y-97186855D01*
X245399946Y-97168282D01*
X245410139Y-97126045D01*
X245423348Y-97064696D01*
X245438590Y-96988789D01*
X245454881Y-96902875D01*
X245455449Y-96899796D01*
X245471713Y-96812128D01*
X245486608Y-96732741D01*
X245499171Y-96666701D01*
X245508438Y-96619079D01*
X245513444Y-96594943D01*
X245513764Y-96593605D01*
X245517060Y-96583273D01*
X245523738Y-96575506D01*
X245537462Y-96569940D01*
X245561895Y-96566207D01*
X245600702Y-96563942D01*
X245657546Y-96562778D01*
X245736090Y-96562348D01*
X245840000Y-96562286D01*
X245853056Y-96562286D01*
X245953933Y-96562371D01*
G37*
%LPC*%
D15*
X225940000Y-73240000D03*
D16*
X225940000Y-68160000D03*
D17*
X147799400Y-33323400D03*
X152879400Y-33323400D03*
G36*
G01*
X147399400Y-40143400D02*
X148199400Y-40143400D01*
G75*
G02*
X148599400Y-40543400I0J-400000D01*
G01*
X148599400Y-41343400D01*
G75*
G02*
X148199400Y-41743400I-400000J0D01*
G01*
X147399400Y-41743400D01*
G75*
G02*
X146999400Y-41343400I0J400000D01*
G01*
X146999400Y-40543400D01*
G75*
G02*
X147399400Y-40143400I400000J0D01*
G01*
G37*
X150339400Y-40943400D03*
X152879400Y-40943400D03*
X147799400Y-38403400D03*
X150339400Y-38403400D03*
X152879400Y-38403400D03*
X262920000Y-52200000D03*
D18*
X273080000Y-52200000D03*
D17*
X219851600Y-32588200D03*
X224851600Y-32588200D03*
D15*
X214330000Y-66370000D03*
D16*
X219410000Y-66370000D03*
D15*
X227431600Y-40233600D03*
D16*
X227431600Y-35153600D03*
D17*
X187750000Y-61800000D03*
D18*
X187750000Y-51640000D03*
D15*
X220370000Y-74340000D03*
D16*
X215290000Y-74340000D03*
D17*
X263120000Y-81300000D03*
D18*
X273280000Y-81300000D03*
D15*
X177690000Y-89220000D03*
D16*
X177690000Y-94300000D03*
D19*
X192230000Y-42900000D03*
D17*
X192230000Y-45400000D03*
X204750000Y-52350000D03*
X204750000Y-54850000D03*
X204750000Y-59750000D03*
X204750000Y-57250000D03*
D19*
X153475000Y-67125000D03*
D18*
X145855000Y-67125000D03*
D17*
X154460000Y-46600000D03*
D18*
X144300000Y-46600000D03*
D15*
X202800000Y-33400000D03*
D16*
X202800000Y-38480000D03*
D17*
X208175000Y-76050000D03*
X213175000Y-76050000D03*
D20*
X177800000Y-32775000D03*
D21*
X238349112Y-92100000D03*
X241849112Y-90600000D03*
D15*
X242649112Y-88100000D03*
D22*
X244078391Y-88126253D03*
D23*
X236578391Y-88126253D03*
D24*
X237549112Y-88100000D03*
D21*
X238349112Y-84100000D03*
D25*
X240078391Y-92626253D03*
D21*
X241849112Y-85600000D03*
D26*
X248019532Y-36102461D03*
X248722476Y-34405405D03*
X248722476Y-37799517D03*
X250419532Y-33702461D03*
D27*
X250419532Y-36102461D03*
D26*
X250419532Y-38502461D03*
X252116588Y-34405405D03*
X252116588Y-37799517D03*
X252819532Y-36102461D03*
D15*
X157720000Y-68350000D03*
D16*
X157720000Y-73430000D03*
D17*
X199500000Y-69750000D03*
X199500000Y-64750000D03*
D15*
X216890600Y-34518600D03*
D16*
X216890600Y-39598600D03*
D17*
X196550000Y-33200000D03*
X196550000Y-30200000D03*
X192150000Y-38200000D03*
X196550000Y-37200000D03*
X212660000Y-83873400D03*
X212660000Y-78873400D03*
X175620000Y-72700000D03*
X178965653Y-76415724D03*
X175225000Y-86850000D03*
X177725000Y-86850000D03*
X191620000Y-61810000D03*
D18*
X191620000Y-51650000D03*
D17*
X261200000Y-93230000D03*
D18*
X261200000Y-83070000D03*
D17*
X249610000Y-66720000D03*
D18*
X259770000Y-66720000D03*
D28*
X226300000Y-86450000D03*
D29*
X228430000Y-92800000D03*
X217000000Y-92800000D03*
D28*
X217000000Y-96000000D03*
X228430000Y-89650000D03*
X217000000Y-89650000D03*
X228430000Y-96000000D03*
X228430000Y-83300000D03*
X217000000Y-83300000D03*
D17*
X184900000Y-64150000D03*
D18*
X174740000Y-64150000D03*
D28*
X168800000Y-86450000D03*
D29*
X170930000Y-92800000D03*
X159500000Y-92800000D03*
D28*
X159500000Y-96000000D03*
X170930000Y-89650000D03*
X159500000Y-89650000D03*
X170930000Y-96000000D03*
X170930000Y-83300000D03*
X159500000Y-83300000D03*
D17*
X148300000Y-79925000D03*
D18*
X148300000Y-69765000D03*
D17*
X249745000Y-81400000D03*
D18*
X259905000Y-81400000D03*
D15*
X185520000Y-83700000D03*
D16*
X180440000Y-83700000D03*
D17*
X249220000Y-52150000D03*
D18*
X259380000Y-52150000D03*
D30*
X170590000Y-31370000D03*
X170590000Y-27570000D03*
X161950000Y-31370000D03*
X161950000Y-27570000D03*
D17*
X203708000Y-78282800D03*
D18*
X196088000Y-78282800D03*
D17*
X201600000Y-61700000D03*
D18*
X201600000Y-51540000D03*
D15*
X229743000Y-40233600D03*
D16*
X229743000Y-35153600D03*
D17*
X236195000Y-66725000D03*
D18*
X246355000Y-66725000D03*
D19*
X176192380Y-45200000D03*
D17*
X173692380Y-45200000D03*
X197100000Y-75400000D03*
X192100000Y-75400000D03*
X143980000Y-69810000D03*
D18*
X143980000Y-79970000D03*
D17*
X181080000Y-41470000D03*
X181080000Y-46470000D03*
X247100000Y-82250000D03*
D18*
X247100000Y-92410000D03*
D15*
X210350000Y-73715000D03*
D16*
X210350000Y-68635000D03*
D21*
X238350000Y-63033333D03*
X241850000Y-61533333D03*
D15*
X242650000Y-59033333D03*
D22*
X244079279Y-59059586D03*
D23*
X236579279Y-59059586D03*
D24*
X237550000Y-59033333D03*
D21*
X238350000Y-55033333D03*
D25*
X240079279Y-63559586D03*
D21*
X241850000Y-56533333D03*
D31*
X145860000Y-85630000D03*
D32*
X143320000Y-85630000D03*
X140780000Y-85630000D03*
D17*
X173325000Y-69175000D03*
X173325000Y-74175000D03*
X175100000Y-83875000D03*
X175100000Y-78875000D03*
X210388200Y-46456600D03*
D18*
X220548200Y-46456600D03*
D31*
X189176000Y-33075000D03*
D21*
X238350000Y-77566666D03*
X241850000Y-76066666D03*
D15*
X242650000Y-73566666D03*
D22*
X244079279Y-73592919D03*
D23*
X236579279Y-73592919D03*
D24*
X237550000Y-73566666D03*
D21*
X238350000Y-69566666D03*
D25*
X240079279Y-78092919D03*
D21*
X241850000Y-71066666D03*
X175424065Y-60868249D03*
X178924065Y-59368249D03*
D15*
X179724065Y-56868249D03*
D22*
X181153344Y-56894502D03*
D23*
X173653344Y-56894502D03*
D24*
X174624065Y-56868249D03*
D21*
X175424065Y-52868249D03*
D25*
X177153344Y-61394502D03*
D21*
X178924065Y-54368249D03*
D26*
X228260142Y-71088261D03*
X228963086Y-69391205D03*
X228963086Y-72785317D03*
X230660142Y-68688261D03*
D27*
X230660142Y-71088261D03*
D26*
X230660142Y-73488261D03*
X232357198Y-69391205D03*
X232357198Y-72785317D03*
X233060142Y-71088261D03*
D17*
X154460000Y-43540000D03*
D18*
X144300000Y-43540000D03*
D21*
X266350000Y-48600000D03*
X269850000Y-47100000D03*
D15*
X270650000Y-44600000D03*
D22*
X272079279Y-44626253D03*
D23*
X264579279Y-44626253D03*
D24*
X265550000Y-44600000D03*
D21*
X266350000Y-40600000D03*
D25*
X268079279Y-49126253D03*
D21*
X269850000Y-42100000D03*
D17*
X184550000Y-56500000D03*
X184550000Y-54000000D03*
D31*
X181571000Y-33075000D03*
D15*
X202635000Y-81625000D03*
D16*
X207715000Y-81625000D03*
D33*
X159200000Y-56900000D03*
X168000000Y-56900000D03*
D34*
X166100000Y-63900000D03*
X163600000Y-63900000D03*
X161100000Y-63900000D03*
D17*
X207060000Y-71420000D03*
X204121074Y-75465085D03*
X189500000Y-69000000D03*
X189500000Y-64000000D03*
D31*
X184111000Y-33075000D03*
D15*
X175420000Y-89230000D03*
D16*
X175420000Y-94310000D03*
D31*
X186651000Y-33075000D03*
D17*
X172780000Y-38050000D03*
D18*
X182940000Y-38050000D03*
D31*
X145860000Y-91470000D03*
D32*
X143320000Y-91470000D03*
X140780000Y-91470000D03*
D17*
X151400000Y-69775000D03*
D18*
X151400000Y-79935000D03*
D21*
X266350000Y-77600000D03*
X269850000Y-76100000D03*
D15*
X270650000Y-73600000D03*
D22*
X272079279Y-73626253D03*
D23*
X264579279Y-73626253D03*
D24*
X265550000Y-73600000D03*
D21*
X266350000Y-69600000D03*
D25*
X268079279Y-78126253D03*
D21*
X269850000Y-71100000D03*
D15*
X157675000Y-66325000D03*
D16*
X162754999Y-66325000D03*
D35*
X143750000Y-50450000D03*
D36*
X141210000Y-50450000D03*
D17*
X188530000Y-40680000D03*
X183530000Y-40680000D03*
D26*
X250250000Y-99550000D03*
X250952944Y-97852944D03*
X250952944Y-101247056D03*
X252650000Y-97150000D03*
D27*
X252650000Y-99550000D03*
D26*
X252650000Y-101950000D03*
X254347056Y-97852944D03*
X254347056Y-101247056D03*
X255050000Y-99550000D03*
D15*
X210400000Y-89535000D03*
D16*
X210400000Y-94615000D03*
D17*
X236270000Y-52150000D03*
D18*
X246430000Y-52150000D03*
D15*
X214477600Y-34544000D03*
D16*
X214477600Y-39624000D03*
D17*
X211550000Y-33200000D03*
X211550000Y-30200000D03*
X207150000Y-38200000D03*
X211550000Y-37200000D03*
D21*
X266350000Y-63100000D03*
X269850000Y-61600000D03*
D15*
X270650000Y-59100000D03*
D22*
X272079279Y-59126253D03*
D23*
X264579279Y-59126253D03*
D24*
X265550000Y-59100000D03*
D21*
X266350000Y-55100000D03*
D25*
X268079279Y-63626253D03*
D21*
X269850000Y-56600000D03*
X238350000Y-48500000D03*
X241850000Y-47000000D03*
D15*
X242650000Y-44500000D03*
D22*
X244079279Y-44526253D03*
D23*
X236579279Y-44526253D03*
D24*
X237550000Y-44500000D03*
D21*
X238350000Y-40500000D03*
D25*
X240079279Y-49026253D03*
D21*
X241850000Y-42000000D03*
D17*
X263120000Y-66750000D03*
D18*
X273280000Y-66750000D03*
D17*
X233260000Y-92180000D03*
D18*
X233260000Y-82020000D03*
D21*
X252350000Y-63100000D03*
X255850000Y-61600000D03*
D15*
X256650000Y-59100000D03*
D22*
X258079279Y-59126253D03*
D23*
X250579279Y-59126253D03*
D24*
X251550000Y-59100000D03*
D21*
X252350000Y-55100000D03*
D25*
X254079279Y-63626253D03*
D21*
X255850000Y-56600000D03*
D15*
X170825000Y-74125000D03*
D16*
X170825000Y-69045000D03*
D21*
X252350000Y-77600000D03*
X255850000Y-76100000D03*
D15*
X256650000Y-73600000D03*
D22*
X258079279Y-73626253D03*
D23*
X250579279Y-73626253D03*
D24*
X251550000Y-73600000D03*
D21*
X252350000Y-69600000D03*
D25*
X254079279Y-78126253D03*
D21*
X255850000Y-71100000D03*
X252350000Y-48600000D03*
X255850000Y-47100000D03*
D15*
X256650000Y-44600000D03*
D22*
X258079279Y-44626253D03*
D23*
X250579279Y-44626253D03*
D24*
X251550000Y-44600000D03*
D21*
X252350000Y-40600000D03*
D25*
X254079279Y-49126253D03*
D21*
X255850000Y-42100000D03*
D15*
X212675000Y-68670000D03*
D16*
X212675000Y-73750000D03*
D15*
X170125000Y-66300000D03*
D16*
X165045000Y-66300000D03*
D17*
X225176400Y-42849800D03*
X222676400Y-42849800D03*
X184550000Y-58650000D03*
X184550000Y-61150000D03*
D21*
X148415198Y-60869712D03*
X151915198Y-59369712D03*
D15*
X152715198Y-56869712D03*
D22*
X154144477Y-56895965D03*
D23*
X146644477Y-56895965D03*
D24*
X147615198Y-56869712D03*
D21*
X148415198Y-52869712D03*
D25*
X150144477Y-61395965D03*
D21*
X151915198Y-54369712D03*
D17*
X167960000Y-74115000D03*
X167960000Y-69115000D03*
D15*
X165270000Y-74100000D03*
D16*
X160190000Y-74100000D03*
D21*
X252349112Y-92100000D03*
X255849112Y-90600000D03*
D15*
X256649112Y-88100000D03*
D22*
X258078391Y-88126253D03*
D23*
X250578391Y-88126253D03*
D24*
X251549112Y-88100000D03*
D21*
X252349112Y-84100000D03*
D25*
X254078391Y-92626253D03*
D21*
X255849112Y-85600000D03*
X266350000Y-92100000D03*
X269850000Y-90600000D03*
D15*
X270650000Y-88100000D03*
D22*
X272079279Y-88126253D03*
D23*
X264579279Y-88126253D03*
D24*
X265550000Y-88100000D03*
D21*
X266350000Y-84100000D03*
D25*
X268079279Y-92626253D03*
D21*
X269850000Y-85600000D03*
D17*
X177513000Y-83875000D03*
X177513000Y-78875000D03*
X154500000Y-79925000D03*
D18*
X154500000Y-69765000D03*
D17*
X184300000Y-78300000D03*
D18*
X191920000Y-78300000D03*
D37*
X148875000Y-88725000D03*
D34*
X151415000Y-88725000D03*
D15*
X200000000Y-33400000D03*
D16*
X200000000Y-38480000D03*
D15*
X207715000Y-84150000D03*
D16*
X202635000Y-84150000D03*
D17*
X220395800Y-43180000D03*
D18*
X210235800Y-43180000D03*
D17*
X210250000Y-83850000D03*
X210250000Y-78850000D03*
D33*
X216650000Y-56800000D03*
X225450000Y-56800000D03*
D34*
X223550000Y-63800000D03*
X221050000Y-63800000D03*
X218550000Y-63800000D03*
D17*
X197735200Y-61700000D03*
D18*
X197735200Y-51540000D03*
D15*
X212775000Y-89535000D03*
D16*
X212775000Y-94615000D03*
D17*
X213156800Y-57317000D03*
X213156800Y-62317000D03*
X245080000Y-81225000D03*
D18*
X234920000Y-81225000D03*
D37*
X152742934Y-98294059D03*
D34*
X150202934Y-98294059D03*
X147662934Y-98294059D03*
D15*
X180460000Y-81500000D03*
D16*
X185540000Y-81500000D03*
D26*
X139840000Y-97590000D03*
X140542944Y-95892944D03*
X140542944Y-99287056D03*
X142240000Y-95190000D03*
D27*
X142240000Y-97590000D03*
D26*
X142240000Y-99990000D03*
X143937056Y-95892944D03*
X143937056Y-99287056D03*
X144640000Y-97590000D03*
D17*
X140970000Y-79980000D03*
D18*
X140970000Y-69820000D03*
D17*
X223160000Y-73520000D03*
X223160000Y-68520000D03*
X210250000Y-86675000D03*
X212750000Y-86675000D03*
D19*
X184650000Y-69850000D03*
D17*
X184650000Y-67350000D03*
D26*
X138994600Y-37691600D03*
X139697544Y-35994544D03*
X139697544Y-39388656D03*
X141394600Y-35291600D03*
D27*
X141394600Y-37691600D03*
D26*
X141394600Y-40091600D03*
X143091656Y-35994544D03*
X143091656Y-39388656D03*
X143794600Y-37691600D03*
D31*
X141180000Y-47550000D03*
D32*
X141180000Y-45010000D03*
X141180000Y-42470000D03*
D38*
X211531200Y-99923600D03*
G36*
X208430000Y-33920000D02*
G01*
X207930000Y-33920000D01*
X207930000Y-33914911D01*
X207858843Y-33914911D01*
X207722292Y-33874816D01*
X207602570Y-33797875D01*
X207509373Y-33690320D01*
X207450254Y-33560866D01*
X207430000Y-33420000D01*
X207430000Y-32920000D01*
X207450254Y-32779134D01*
X207509373Y-32649680D01*
X207602570Y-32542125D01*
X207722292Y-32465184D01*
X207858843Y-32425089D01*
X207930000Y-32425089D01*
X207930000Y-32420000D01*
X208430000Y-32420000D01*
X208430000Y-33920000D01*
G37*
G36*
X209230000Y-32425089D02*
G01*
X209301157Y-32425089D01*
X209437708Y-32465184D01*
X209557430Y-32542125D01*
X209650627Y-32649680D01*
X209709746Y-32779134D01*
X209730000Y-32920000D01*
X209730000Y-33420000D01*
X209709746Y-33560866D01*
X209650627Y-33690320D01*
X209557430Y-33797875D01*
X209437708Y-33874816D01*
X209301157Y-33914911D01*
X209230000Y-33914911D01*
X209230000Y-33920000D01*
X208730000Y-33920000D01*
X208730000Y-32420000D01*
X209230000Y-32420000D01*
X209230000Y-32425089D01*
G37*
G36*
X193400000Y-33940000D02*
G01*
X192900000Y-33940000D01*
X192900000Y-33934911D01*
X192828843Y-33934911D01*
X192692292Y-33894816D01*
X192572570Y-33817875D01*
X192479373Y-33710320D01*
X192420254Y-33580866D01*
X192400000Y-33440000D01*
X192400000Y-32940000D01*
X192420254Y-32799134D01*
X192479373Y-32669680D01*
X192572570Y-32562125D01*
X192692292Y-32485184D01*
X192828843Y-32445089D01*
X192900000Y-32445089D01*
X192900000Y-32440000D01*
X193400000Y-32440000D01*
X193400000Y-33940000D01*
G37*
G36*
X194200000Y-32445089D02*
G01*
X194271157Y-32445089D01*
X194407708Y-32485184D01*
X194527430Y-32562125D01*
X194620627Y-32669680D01*
X194679746Y-32799134D01*
X194700000Y-32940000D01*
X194700000Y-33440000D01*
X194679746Y-33580866D01*
X194620627Y-33710320D01*
X194527430Y-33817875D01*
X194407708Y-33894816D01*
X194271157Y-33934911D01*
X194200000Y-33934911D01*
X194200000Y-33940000D01*
X193700000Y-33940000D01*
X193700000Y-32440000D01*
X194200000Y-32440000D01*
X194200000Y-32445089D01*
G37*
%LPD*%
M02*
