G04 #@! TF.GenerationSoftware,KiCad,Pcbnew,8.0.6*
G04 #@! TF.CreationDate,2024-11-06T00:44:51+01:00*
G04 #@! TF.ProjectId,spider2,73706964-6572-4322-9e6b-696361645f70,rev?*
G04 #@! TF.SameCoordinates,Original*
G04 #@! TF.FileFunction,Profile,NP*
%FSLAX46Y46*%
G04 Gerber Fmt 4.6, Leading zero omitted, Abs format (unit mm)*
G04 Created by KiCad (PCBNEW 8.0.6) date 2024-11-06 00:44:51*
%MOMM*%
%LPD*%
G01*
G04 APERTURE LIST*
G04 #@! TA.AperFunction,Profile*
%ADD10C,0.254000*%
G04 #@! TD*
G04 #@! TA.AperFunction,Profile*
%ADD11C,0.100000*%
G04 #@! TD*
G04 APERTURE END LIST*
D10*
X188734215Y-29941118D02*
X189348013Y-28708495D01*
X268644600Y-39091600D02*
G75*
G02*
X263394600Y-34091600I-125000J5125000D01*
G01*
X171355423Y-26912344D02*
X172935458Y-29939998D01*
X272644600Y-39091600D02*
G75*
G02*
X274644600Y-41091600I0J-2000000D01*
G01*
X188734215Y-29941118D02*
G75*
G02*
X187470000Y-30610005I-1190015J720018D01*
G01*
X174199673Y-30608880D02*
X187470000Y-30610000D01*
X263394600Y-102091600D02*
X263394600Y-99591600D01*
X263394600Y-102091600D02*
G75*
G02*
X262394600Y-103091600I-1000000J0D01*
G01*
X160894802Y-26993677D02*
G75*
G02*
X161819244Y-26375041I924398J-381323D01*
G01*
X137644600Y-33590572D02*
G75*
G02*
X140643571Y-30590600I3000000J-28D01*
G01*
D11*
X143092894Y-54857106D02*
X143092894Y-54900000D01*
X143092894Y-54900000D02*
G75*
G02*
X142092894Y-55899994I-999994J0D01*
G01*
D10*
X270144600Y-94591600D02*
X272644600Y-94591600D01*
X159689540Y-29915593D02*
G75*
G02*
X158425325Y-30584472I-1189940J719893D01*
G01*
D11*
X139007106Y-54857106D02*
X139007106Y-54900000D01*
D10*
X159689540Y-29915593D02*
X160894802Y-26993677D01*
D11*
X140007106Y-55900000D02*
G75*
G02*
X139007100Y-54900000I-6J1000000D01*
G01*
D10*
X262570799Y-30591425D02*
G75*
G02*
X263568032Y-31662668I-199J-999975D01*
G01*
X140644600Y-103091600D02*
X262394600Y-103091600D01*
X274644600Y-92591600D02*
X274644600Y-41091600D01*
D11*
X139007106Y-54857106D02*
G75*
G02*
X140007106Y-53857106I999994J6D01*
G01*
D10*
X170468885Y-26375000D02*
G75*
G02*
X171355435Y-26912338I15J-1000000D01*
G01*
X140644600Y-103091600D02*
G75*
G02*
X137644600Y-100091600I0J3000000D01*
G01*
X217579797Y-30584101D02*
G75*
G02*
X216293038Y-29959722I26103J1691901D01*
G01*
D11*
X139949999Y-58607107D02*
G75*
G02*
X140949999Y-57607099I1000001J7D01*
G01*
D10*
X140643571Y-30590572D02*
X158425325Y-30584475D01*
D11*
X139949999Y-60692895D02*
X139949999Y-58607107D01*
X140949999Y-61692895D02*
G75*
G02*
X139950005Y-60692895I1J999995D01*
G01*
D10*
X174199673Y-30608880D02*
G75*
G02*
X172935491Y-29939978I-74173J1388880D01*
G01*
X263394600Y-99591600D02*
G75*
G02*
X270144601Y-94591600I5875000J-875000D01*
G01*
D11*
X140992893Y-57607107D02*
X140949999Y-57607107D01*
D10*
X189348013Y-28708495D02*
G75*
G02*
X191138325Y-27600023I1790287J-891505D01*
G01*
X217579797Y-30584101D02*
X262570799Y-30591425D01*
X161819244Y-26375000D02*
X170468885Y-26375000D01*
X137644600Y-33590572D02*
X137644600Y-100091600D01*
X213136100Y-27600000D02*
G75*
G02*
X214562876Y-28198461I0J-2000000D01*
G01*
X191138325Y-27600000D02*
X213136100Y-27600000D01*
X263568095Y-31662672D02*
X263394600Y-34091600D01*
D11*
X141992893Y-60692895D02*
X141992893Y-58607107D01*
X141992893Y-60692895D02*
G75*
G02*
X140992893Y-61692893I-999993J-5D01*
G01*
X142092894Y-55900000D02*
X140007106Y-55900000D01*
X140992893Y-61692895D02*
X140949999Y-61692895D01*
X142092894Y-53857106D02*
X140007106Y-53857106D01*
X142092894Y-53857106D02*
G75*
G02*
X143092894Y-54857106I6J-999994D01*
G01*
D10*
X274644600Y-92591600D02*
G75*
G02*
X272644600Y-94591600I-2000000J0D01*
G01*
X268644600Y-39091600D02*
X272644600Y-39091600D01*
D11*
X140992893Y-57607107D02*
G75*
G02*
X141992893Y-58607107I7J-999993D01*
G01*
D10*
X214562876Y-28198461D02*
X216293008Y-29959747D01*
M02*
