G04 #@! TF.GenerationSoftware,KiCad,Pcbnew,8.0.1*
G04 #@! TF.CreationDate,2024-03-31T00:10:13+01:00*
G04 #@! TF.ProjectId,spider2,73706964-6572-4322-9e6b-696361645f70,rev?*
G04 #@! TF.SameCoordinates,Original*
G04 #@! TF.FileFunction,Copper,L1,Top*
G04 #@! TF.FilePolarity,Positive*
%FSLAX46Y46*%
G04 Gerber Fmt 4.6, Leading zero omitted, Abs format (unit mm)*
G04 Created by KiCad (PCBNEW 8.0.1) date 2024-03-31 00:10:13*
%MOMM*%
%LPD*%
G01*
G04 APERTURE LIST*
G04 #@! TA.AperFunction,EtchedComponent*
%ADD10C,0.000000*%
G04 #@! TD*
G04 #@! TA.AperFunction,EtchedComponent*
%ADD11C,0.200000*%
G04 #@! TD*
G04 #@! TA.AperFunction,ComponentPad*
%ADD12C,1.600000*%
G04 #@! TD*
G04 #@! TA.AperFunction,ComponentPad*
%ADD13O,1.600000X1.600000*%
G04 #@! TD*
G04 #@! TA.AperFunction,ComponentPad*
%ADD14R,2.000000X2.000000*%
G04 #@! TD*
G04 #@! TA.AperFunction,ComponentPad*
%ADD15C,2.000000*%
G04 #@! TD*
G04 #@! TA.AperFunction,ComponentPad*
%ADD16C,0.700000*%
G04 #@! TD*
G04 #@! TA.AperFunction,ComponentPad*
%ADD17O,0.900000X2.400000*%
G04 #@! TD*
G04 #@! TA.AperFunction,ComponentPad*
%ADD18O,0.900000X1.700000*%
G04 #@! TD*
G04 #@! TA.AperFunction,ComponentPad*
%ADD19R,1.717500X1.800000*%
G04 #@! TD*
G04 #@! TA.AperFunction,ComponentPad*
%ADD20O,1.717500X1.800000*%
G04 #@! TD*
G04 #@! TA.AperFunction,ComponentPad*
%ADD21R,1.600000X1.600000*%
G04 #@! TD*
G04 #@! TA.AperFunction,ComponentPad*
%ADD22R,2.500000X2.500000*%
G04 #@! TD*
G04 #@! TA.AperFunction,WasherPad*
%ADD23C,1.500000*%
G04 #@! TD*
G04 #@! TA.AperFunction,ComponentPad*
%ADD24O,1.000000X1.900000*%
G04 #@! TD*
G04 #@! TA.AperFunction,ComponentPad*
%ADD25O,1.500000X3.000000*%
G04 #@! TD*
G04 #@! TA.AperFunction,ComponentPad*
%ADD26O,1.700000X3.000000*%
G04 #@! TD*
G04 #@! TA.AperFunction,ComponentPad*
%ADD27O,1.900000X1.000000*%
G04 #@! TD*
G04 #@! TA.AperFunction,ComponentPad*
%ADD28O,3.000000X2.000000*%
G04 #@! TD*
G04 #@! TA.AperFunction,ComponentPad*
%ADD29C,0.800000*%
G04 #@! TD*
G04 #@! TA.AperFunction,ComponentPad*
%ADD30C,6.400000*%
G04 #@! TD*
G04 #@! TA.AperFunction,SMDPad,CuDef*
%ADD31R,1.500000X1.000000*%
G04 #@! TD*
G04 #@! TA.AperFunction,ComponentPad*
%ADD32R,1.700000X1.700000*%
G04 #@! TD*
G04 #@! TA.AperFunction,ComponentPad*
%ADD33O,1.700000X1.700000*%
G04 #@! TD*
G04 #@! TA.AperFunction,ComponentPad*
%ADD34C,3.000000*%
G04 #@! TD*
G04 #@! TA.AperFunction,ComponentPad*
%ADD35R,1.500000X1.500000*%
G04 #@! TD*
G04 #@! TA.AperFunction,ComponentPad*
%ADD36R,1.050000X1.500000*%
G04 #@! TD*
G04 #@! TA.AperFunction,ComponentPad*
%ADD37O,1.050000X1.500000*%
G04 #@! TD*
G04 #@! TA.AperFunction,ComponentPad*
%ADD38C,2.400000*%
G04 #@! TD*
G04 #@! TA.AperFunction,ComponentPad*
%ADD39O,2.400000X2.400000*%
G04 #@! TD*
G04 #@! TA.AperFunction,WasherPad*
%ADD40C,4.000000*%
G04 #@! TD*
G04 #@! TA.AperFunction,ComponentPad*
%ADD41C,1.800000*%
G04 #@! TD*
G04 #@! TA.AperFunction,ComponentPad*
%ADD42R,4.000000X4.000000*%
G04 #@! TD*
G04 #@! TA.AperFunction,SMDPad,CuDef*
%ADD43R,1.000000X1.500000*%
G04 #@! TD*
G04 #@! TA.AperFunction,ComponentPad*
%ADD44R,1.800000X1.800000*%
G04 #@! TD*
G04 #@! TA.AperFunction,ComponentPad*
%ADD45C,2.600000*%
G04 #@! TD*
G04 #@! TA.AperFunction,ViaPad*
%ADD46C,1.600000*%
G04 #@! TD*
G04 #@! TA.AperFunction,ViaPad*
%ADD47C,0.800000*%
G04 #@! TD*
G04 #@! TA.AperFunction,Conductor*
%ADD48C,0.250000*%
G04 #@! TD*
G04 #@! TA.AperFunction,Conductor*
%ADD49C,1.000000*%
G04 #@! TD*
G04 #@! TA.AperFunction,Conductor*
%ADD50C,0.500000*%
G04 #@! TD*
G04 #@! TA.AperFunction,Conductor*
%ADD51C,2.000000*%
G04 #@! TD*
G04 APERTURE END LIST*
D10*
G04 #@! TA.AperFunction,EtchedComponent*
G36*
X222400000Y-34375000D02*
G01*
X221900000Y-34375000D01*
X221900000Y-33775000D01*
X222400000Y-33775000D01*
X222400000Y-34375000D01*
G37*
G04 #@! TD.AperFunction*
D11*
X243889282Y-86842665D02*
X243877172Y-89034554D01*
X242596551Y-88008242D01*
X242599112Y-86600000D01*
X243889282Y-86842665D01*
G04 #@! TA.AperFunction,EtchedComponent*
G36*
X243889282Y-86842665D02*
G01*
X243877172Y-89034554D01*
X242596551Y-88008242D01*
X242599112Y-86600000D01*
X243889282Y-86842665D01*
G37*
G04 #@! TD.AperFunction*
D10*
G04 #@! TA.AperFunction,EtchedComponent*
G36*
X200960000Y-78116000D02*
G01*
X200360000Y-78116000D01*
X200360000Y-77616000D01*
X200960000Y-77616000D01*
X200960000Y-78116000D01*
G37*
G04 #@! TD.AperFunction*
G04 #@! TA.AperFunction,EtchedComponent*
G36*
X189050000Y-43400000D02*
G01*
X188450000Y-43400000D01*
X188450000Y-42900000D01*
X189050000Y-42900000D01*
X189050000Y-43400000D01*
G37*
G04 #@! TD.AperFunction*
D11*
X243890170Y-57775998D02*
X243878060Y-59967887D01*
X242597439Y-58941575D01*
X242600000Y-57533333D01*
X243890170Y-57775998D01*
G04 #@! TA.AperFunction,EtchedComponent*
G36*
X243890170Y-57775998D02*
G01*
X243878060Y-59967887D01*
X242597439Y-58941575D01*
X242600000Y-57533333D01*
X243890170Y-57775998D01*
G37*
G04 #@! TD.AperFunction*
X243890170Y-72309331D02*
X243878060Y-74501220D01*
X242597439Y-73474908D01*
X242600000Y-72066666D01*
X243890170Y-72309331D01*
G04 #@! TA.AperFunction,EtchedComponent*
G36*
X243890170Y-72309331D02*
G01*
X243878060Y-74501220D01*
X242597439Y-73474908D01*
X242600000Y-72066666D01*
X243890170Y-72309331D01*
G37*
G04 #@! TD.AperFunction*
X180964235Y-55610914D02*
X180952125Y-57802803D01*
X179671504Y-56776491D01*
X179674065Y-55368249D01*
X180964235Y-55610914D01*
G04 #@! TA.AperFunction,EtchedComponent*
G36*
X180964235Y-55610914D02*
G01*
X180952125Y-57802803D01*
X179671504Y-56776491D01*
X179674065Y-55368249D01*
X180964235Y-55610914D01*
G37*
G04 #@! TD.AperFunction*
X271890170Y-43342665D02*
X271878060Y-45534554D01*
X270597439Y-44508242D01*
X270600000Y-43100000D01*
X271890170Y-43342665D01*
G04 #@! TA.AperFunction,EtchedComponent*
G36*
X271890170Y-43342665D02*
G01*
X271878060Y-45534554D01*
X270597439Y-44508242D01*
X270600000Y-43100000D01*
X271890170Y-43342665D01*
G37*
G04 #@! TD.AperFunction*
X271890170Y-72342665D02*
X271878060Y-74534554D01*
X270597439Y-73508242D01*
X270600000Y-72100000D01*
X271890170Y-72342665D01*
G04 #@! TA.AperFunction,EtchedComponent*
G36*
X271890170Y-72342665D02*
G01*
X271878060Y-74534554D01*
X270597439Y-73508242D01*
X270600000Y-72100000D01*
X271890170Y-72342665D01*
G37*
G04 #@! TD.AperFunction*
X271890170Y-57842665D02*
X271878060Y-60034554D01*
X270597439Y-59008242D01*
X270600000Y-57600000D01*
X271890170Y-57842665D01*
G04 #@! TA.AperFunction,EtchedComponent*
G36*
X271890170Y-57842665D02*
G01*
X271878060Y-60034554D01*
X270597439Y-59008242D01*
X270600000Y-57600000D01*
X271890170Y-57842665D01*
G37*
G04 #@! TD.AperFunction*
X243890170Y-43242665D02*
X243878060Y-45434554D01*
X242597439Y-44408242D01*
X242600000Y-43000000D01*
X243890170Y-43242665D01*
G04 #@! TA.AperFunction,EtchedComponent*
G36*
X243890170Y-43242665D02*
G01*
X243878060Y-45434554D01*
X242597439Y-44408242D01*
X242600000Y-43000000D01*
X243890170Y-43242665D01*
G37*
G04 #@! TD.AperFunction*
X257890170Y-57842665D02*
X257878060Y-60034554D01*
X256597439Y-59008242D01*
X256600000Y-57600000D01*
X257890170Y-57842665D01*
G04 #@! TA.AperFunction,EtchedComponent*
G36*
X257890170Y-57842665D02*
G01*
X257878060Y-60034554D01*
X256597439Y-59008242D01*
X256600000Y-57600000D01*
X257890170Y-57842665D01*
G37*
G04 #@! TD.AperFunction*
X257890170Y-72342665D02*
X257878060Y-74534554D01*
X256597439Y-73508242D01*
X256600000Y-72100000D01*
X257890170Y-72342665D01*
G04 #@! TA.AperFunction,EtchedComponent*
G36*
X257890170Y-72342665D02*
G01*
X257878060Y-74534554D01*
X256597439Y-73508242D01*
X256600000Y-72100000D01*
X257890170Y-72342665D01*
G37*
G04 #@! TD.AperFunction*
X257890170Y-43342665D02*
X257878060Y-45534554D01*
X256597439Y-44508242D01*
X256600000Y-43100000D01*
X257890170Y-43342665D01*
G04 #@! TA.AperFunction,EtchedComponent*
G36*
X257890170Y-43342665D02*
G01*
X257878060Y-45534554D01*
X256597439Y-44508242D01*
X256600000Y-43100000D01*
X257890170Y-43342665D01*
G37*
G04 #@! TD.AperFunction*
X153955368Y-55612377D02*
X153943258Y-57804266D01*
X152662637Y-56777954D01*
X152665198Y-55369712D01*
X153955368Y-55612377D01*
G04 #@! TA.AperFunction,EtchedComponent*
G36*
X153955368Y-55612377D02*
G01*
X153943258Y-57804266D01*
X152662637Y-56777954D01*
X152665198Y-55369712D01*
X153955368Y-55612377D01*
G37*
G04 #@! TD.AperFunction*
X257889282Y-86842665D02*
X257877172Y-89034554D01*
X256596551Y-88008242D01*
X256599112Y-86600000D01*
X257889282Y-86842665D01*
G04 #@! TA.AperFunction,EtchedComponent*
G36*
X257889282Y-86842665D02*
G01*
X257877172Y-89034554D01*
X256596551Y-88008242D01*
X256599112Y-86600000D01*
X257889282Y-86842665D01*
G37*
G04 #@! TD.AperFunction*
X271890170Y-86842665D02*
X271878060Y-89034554D01*
X270597439Y-88008242D01*
X270600000Y-86600000D01*
X271890170Y-86842665D01*
G04 #@! TA.AperFunction,EtchedComponent*
G36*
X271890170Y-86842665D02*
G01*
X271878060Y-89034554D01*
X270597439Y-88008242D01*
X270600000Y-86600000D01*
X271890170Y-86842665D01*
G37*
G04 #@! TD.AperFunction*
D10*
G04 #@! TA.AperFunction,EtchedComponent*
G36*
X217151000Y-46147000D02*
G01*
X216651000Y-46147000D01*
X216651000Y-45547000D01*
X217151000Y-45547000D01*
X217151000Y-46147000D01*
G37*
G04 #@! TD.AperFunction*
G04 #@! TA.AperFunction,EtchedComponent*
G36*
X156612400Y-40990800D02*
G01*
X156112400Y-40990800D01*
X156112400Y-40390800D01*
X156612400Y-40390800D01*
X156612400Y-40990800D01*
G37*
G04 #@! TD.AperFunction*
D12*
X171975000Y-64135000D03*
D13*
X171975000Y-74295000D03*
D12*
X147599400Y-34823400D03*
X152679400Y-34823400D03*
G04 #@! TA.AperFunction,ComponentPad*
G36*
G01*
X147199400Y-41643400D02*
X147999400Y-41643400D01*
G75*
G02*
X148399400Y-42043400I0J-400000D01*
G01*
X148399400Y-42843400D01*
G75*
G02*
X147999400Y-43243400I-400000J0D01*
G01*
X147199400Y-43243400D01*
G75*
G02*
X146799400Y-42843400I0J400000D01*
G01*
X146799400Y-42043400D01*
G75*
G02*
X147199400Y-41643400I400000J0D01*
G01*
G37*
G04 #@! TD.AperFunction*
X150139400Y-42443400D03*
X152679400Y-42443400D03*
X147599400Y-39903400D03*
X150139400Y-39903400D03*
X152679400Y-39903400D03*
X262920000Y-52200000D03*
D13*
X273080000Y-52200000D03*
G04 #@! TA.AperFunction,SMDPad,CuDef*
G36*
G01*
X190263800Y-68528600D02*
X189313800Y-68528600D01*
G75*
G02*
X189063800Y-68278600I0J250000D01*
G01*
X189063800Y-67603600D01*
G75*
G02*
X189313800Y-67353600I250000J0D01*
G01*
X190263800Y-67353600D01*
G75*
G02*
X190513800Y-67603600I0J-250000D01*
G01*
X190513800Y-68278600D01*
G75*
G02*
X190263800Y-68528600I-250000J0D01*
G01*
G37*
G04 #@! TD.AperFunction*
G04 #@! TA.AperFunction,SMDPad,CuDef*
G36*
G01*
X190263800Y-66453600D02*
X189313800Y-66453600D01*
G75*
G02*
X189063800Y-66203600I0J250000D01*
G01*
X189063800Y-65528600D01*
G75*
G02*
X189313800Y-65278600I250000J0D01*
G01*
X190263800Y-65278600D01*
G75*
G02*
X190513800Y-65528600I0J-250000D01*
G01*
X190513800Y-66203600D01*
G75*
G02*
X190263800Y-66453600I-250000J0D01*
G01*
G37*
G04 #@! TD.AperFunction*
G04 #@! TA.AperFunction,SMDPad,CuDef*
G36*
X222000000Y-34825000D02*
G01*
X221500000Y-34825000D01*
X221500000Y-34819911D01*
X221428843Y-34819911D01*
X221292292Y-34779816D01*
X221172570Y-34702875D01*
X221079373Y-34595320D01*
X221020254Y-34465866D01*
X221000000Y-34325000D01*
X221000000Y-33825000D01*
X221020254Y-33684134D01*
X221079373Y-33554680D01*
X221172570Y-33447125D01*
X221292292Y-33370184D01*
X221428843Y-33330089D01*
X221500000Y-33330089D01*
X221500000Y-33325000D01*
X222000000Y-33325000D01*
X222000000Y-34825000D01*
G37*
G04 #@! TD.AperFunction*
G04 #@! TA.AperFunction,SMDPad,CuDef*
G36*
X222800000Y-33330089D02*
G01*
X222871157Y-33330089D01*
X223007708Y-33370184D01*
X223127430Y-33447125D01*
X223220627Y-33554680D01*
X223279746Y-33684134D01*
X223300000Y-33825000D01*
X223300000Y-34325000D01*
X223279746Y-34465866D01*
X223220627Y-34595320D01*
X223127430Y-34702875D01*
X223007708Y-34779816D01*
X222871157Y-34819911D01*
X222800000Y-34819911D01*
X222800000Y-34825000D01*
X222300000Y-34825000D01*
X222300000Y-33325000D01*
X222800000Y-33325000D01*
X222800000Y-33330089D01*
G37*
G04 #@! TD.AperFunction*
D14*
X218620000Y-67000000D03*
D15*
X221160000Y-67000000D03*
X223700000Y-67000000D03*
X218620000Y-72080000D03*
X221160000Y-72080000D03*
X223700000Y-72080000D03*
D12*
X230650000Y-33400000D03*
X225650000Y-33400000D03*
X244875000Y-36200000D03*
D13*
X234715000Y-36200000D03*
D16*
X165725000Y-37575000D03*
X164875000Y-37575000D03*
X164025000Y-37575000D03*
X163175000Y-37575000D03*
X162325000Y-37575000D03*
X161475000Y-37575000D03*
X160625000Y-37575000D03*
X159775000Y-37575000D03*
X159775000Y-36225000D03*
X160625000Y-36225000D03*
X161475000Y-36225000D03*
X162325000Y-36225000D03*
X163175000Y-36225000D03*
X164025000Y-36225000D03*
X164875000Y-36225000D03*
X165725000Y-36225000D03*
D17*
X167075000Y-36595000D03*
D18*
X167075000Y-33215000D03*
D17*
X158425000Y-36595000D03*
D18*
X158425000Y-33215000D03*
D12*
X187800000Y-61600000D03*
D13*
X187800000Y-51440000D03*
D19*
X142950000Y-67000000D03*
D20*
X145240000Y-67000000D03*
X147530000Y-67000000D03*
D12*
X263120000Y-81300000D03*
D13*
X273280000Y-81300000D03*
D12*
X181800000Y-82425000D03*
X181800000Y-87425000D03*
X207645000Y-51333400D03*
X207645000Y-56333400D03*
X196850000Y-86475000D03*
X196850000Y-81475000D03*
X211480400Y-56337200D03*
X211480400Y-51337200D03*
X209300000Y-82980000D03*
D13*
X209300000Y-72820000D03*
D21*
X149620000Y-69750000D03*
D13*
X142000000Y-69750000D03*
D12*
X178275000Y-82880000D03*
D13*
X178275000Y-72720000D03*
D12*
X139700000Y-52959000D03*
D13*
X139700000Y-42799000D03*
D12*
X202800000Y-32550000D03*
D13*
X202800000Y-42710000D03*
D12*
X232600000Y-54625000D03*
D13*
X232600000Y-64785000D03*
D12*
X205525000Y-82000000D03*
X205525000Y-87000000D03*
D22*
X181356000Y-32385000D03*
D23*
X240099112Y-90500000D03*
D24*
X242349112Y-87200000D03*
D25*
X244099112Y-88100000D03*
D26*
X236599112Y-88100000D03*
D24*
X237849112Y-87200000D03*
D27*
X240099112Y-85800000D03*
D28*
X240099112Y-92600000D03*
D29*
X248019532Y-36102461D03*
X248722476Y-34405405D03*
X248722476Y-37799517D03*
X250419532Y-33702461D03*
D30*
X250419532Y-36102461D03*
D29*
X250419532Y-38502461D03*
X252116588Y-34405405D03*
X252116588Y-37799517D03*
X252819532Y-36102461D03*
D12*
X189850000Y-86450000D03*
X189850000Y-81450000D03*
G04 #@! TA.AperFunction,SMDPad,CuDef*
G36*
G01*
X176287500Y-42650000D02*
X176287500Y-44850000D01*
G75*
G02*
X176037500Y-45100000I-250000J0D01*
G01*
X175212500Y-45100000D01*
G75*
G02*
X174962500Y-44850000I0J250000D01*
G01*
X174962500Y-42650000D01*
G75*
G02*
X175212500Y-42400000I250000J0D01*
G01*
X176037500Y-42400000D01*
G75*
G02*
X176287500Y-42650000I0J-250000D01*
G01*
G37*
G04 #@! TD.AperFunction*
G04 #@! TA.AperFunction,SMDPad,CuDef*
G36*
G01*
X173162500Y-42650000D02*
X173162500Y-44850000D01*
G75*
G02*
X172912500Y-45100000I-250000J0D01*
G01*
X172087500Y-45100000D01*
G75*
G02*
X171837500Y-44850000I0J250000D01*
G01*
X171837500Y-42650000D01*
G75*
G02*
X172087500Y-42400000I250000J0D01*
G01*
X172912500Y-42400000D01*
G75*
G02*
X173162500Y-42650000I0J-250000D01*
G01*
G37*
G04 #@! TD.AperFunction*
X200500000Y-69450000D03*
X200500000Y-64450000D03*
G04 #@! TA.AperFunction,SMDPad,CuDef*
G36*
X201410000Y-77966000D02*
G01*
X201410000Y-78516000D01*
X201404911Y-78516000D01*
X201404911Y-78587157D01*
X201364816Y-78723708D01*
X201287875Y-78843430D01*
X201180320Y-78936627D01*
X201050866Y-78995746D01*
X200910000Y-79016000D01*
X200410000Y-79016000D01*
X200269134Y-78995746D01*
X200139680Y-78936627D01*
X200032125Y-78843430D01*
X199955184Y-78723708D01*
X199915089Y-78587157D01*
X199915089Y-78516000D01*
X199910000Y-78516000D01*
X199910000Y-77966000D01*
X201410000Y-77966000D01*
G37*
G04 #@! TD.AperFunction*
D31*
X200660000Y-77216000D03*
G04 #@! TA.AperFunction,SMDPad,CuDef*
G36*
X199915089Y-75916000D02*
G01*
X199915089Y-75844843D01*
X199955184Y-75708292D01*
X200032125Y-75588570D01*
X200139680Y-75495373D01*
X200269134Y-75436254D01*
X200410000Y-75416000D01*
X200910000Y-75416000D01*
X201050866Y-75436254D01*
X201180320Y-75495373D01*
X201287875Y-75588570D01*
X201364816Y-75708292D01*
X201404911Y-75844843D01*
X201404911Y-75916000D01*
X201410000Y-75916000D01*
X201410000Y-76466000D01*
X199910000Y-76466000D01*
X199910000Y-75916000D01*
X199915089Y-75916000D01*
G37*
G04 #@! TD.AperFunction*
D12*
X214700000Y-32640000D03*
D13*
X214700000Y-42800000D03*
D12*
X196350000Y-37000000D03*
X196350000Y-34000000D03*
X191950000Y-42000000D03*
X196350000Y-41000000D03*
D32*
X155800000Y-46090000D03*
D33*
X155800000Y-43550000D03*
D12*
X189200000Y-100200000D03*
D13*
X189200000Y-90040000D03*
D12*
X212177000Y-99568000D03*
X207177000Y-99568000D03*
D21*
X205765400Y-68808600D03*
D12*
X205765400Y-66308600D03*
X176425000Y-85600000D03*
X176425000Y-90600000D03*
X232925000Y-46200000D03*
X232925000Y-41200000D03*
X191600000Y-61595000D03*
D13*
X191600000Y-51435000D03*
D12*
X261200000Y-93230000D03*
D13*
X261200000Y-83070000D03*
D12*
X249645000Y-66950000D03*
D13*
X259805000Y-66950000D03*
D34*
X228430000Y-89650000D03*
X217000000Y-89650000D03*
X228430000Y-96000000D03*
X217000000Y-96000000D03*
X228430000Y-83300000D03*
X217000000Y-83300000D03*
D12*
X156425000Y-50275000D03*
D13*
X146265000Y-50275000D03*
D34*
X170930000Y-89650000D03*
X159500000Y-89650000D03*
X170930000Y-96000000D03*
X159500000Y-96000000D03*
X170930000Y-83300000D03*
X159500000Y-83300000D03*
D12*
X145500000Y-82500000D03*
D13*
X155660000Y-82500000D03*
D12*
X212550000Y-60100000D03*
D13*
X212550000Y-70260000D03*
D12*
X249745000Y-81400000D03*
D13*
X259905000Y-81400000D03*
D12*
X198800000Y-100320000D03*
D13*
X198800000Y-90160000D03*
D12*
X165129200Y-43750000D03*
X170129200Y-43750000D03*
D35*
X192120004Y-89159163D03*
D12*
X249220000Y-52150000D03*
D13*
X259380000Y-52150000D03*
D12*
X203809600Y-61722000D03*
D13*
X203809600Y-51562000D03*
D12*
X234675000Y-32825000D03*
D13*
X244835000Y-32825000D03*
D12*
X236195000Y-66725000D03*
D13*
X246355000Y-66725000D03*
D21*
X183750000Y-44182380D03*
D12*
X183750000Y-41682380D03*
G04 #@! TA.AperFunction,SMDPad,CuDef*
G36*
X188000000Y-43000000D02*
G01*
X188000000Y-42500000D01*
X188005089Y-42500000D01*
X188005089Y-42428843D01*
X188045184Y-42292292D01*
X188122125Y-42172570D01*
X188229680Y-42079373D01*
X188359134Y-42020254D01*
X188500000Y-42000000D01*
X189000000Y-42000000D01*
X189140866Y-42020254D01*
X189270320Y-42079373D01*
X189377875Y-42172570D01*
X189454816Y-42292292D01*
X189494911Y-42428843D01*
X189494911Y-42500000D01*
X189500000Y-42500000D01*
X189500000Y-43000000D01*
X188000000Y-43000000D01*
G37*
G04 #@! TD.AperFunction*
G04 #@! TA.AperFunction,SMDPad,CuDef*
G36*
X189494911Y-43800000D02*
G01*
X189494911Y-43871157D01*
X189454816Y-44007708D01*
X189377875Y-44127430D01*
X189270320Y-44220627D01*
X189140866Y-44279746D01*
X189000000Y-44300000D01*
X188500000Y-44300000D01*
X188359134Y-44279746D01*
X188229680Y-44220627D01*
X188122125Y-44127430D01*
X188045184Y-44007708D01*
X188005089Y-43871157D01*
X188005089Y-43800000D01*
X188000000Y-43800000D01*
X188000000Y-43300000D01*
X189500000Y-43300000D01*
X189500000Y-43800000D01*
X189494911Y-43800000D01*
G37*
G04 #@! TD.AperFunction*
G04 #@! TA.AperFunction,SMDPad,CuDef*
G36*
G01*
X202562500Y-81512500D02*
X202737500Y-81512500D01*
G75*
G02*
X202825000Y-81600000I0J-87500D01*
G01*
X202825000Y-83050000D01*
G75*
G02*
X202737500Y-83137500I-87500J0D01*
G01*
X202562500Y-83137500D01*
G75*
G02*
X202475000Y-83050000I0J87500D01*
G01*
X202475000Y-81600000D01*
G75*
G02*
X202562500Y-81512500I87500J0D01*
G01*
G37*
G04 #@! TD.AperFunction*
G04 #@! TA.AperFunction,SMDPad,CuDef*
G36*
G01*
X202062500Y-81512500D02*
X202237500Y-81512500D01*
G75*
G02*
X202325000Y-81600000I0J-87500D01*
G01*
X202325000Y-83050000D01*
G75*
G02*
X202237500Y-83137500I-87500J0D01*
G01*
X202062500Y-83137500D01*
G75*
G02*
X201975000Y-83050000I0J87500D01*
G01*
X201975000Y-81600000D01*
G75*
G02*
X202062500Y-81512500I87500J0D01*
G01*
G37*
G04 #@! TD.AperFunction*
G04 #@! TA.AperFunction,SMDPad,CuDef*
G36*
G01*
X201562500Y-81512500D02*
X201737500Y-81512500D01*
G75*
G02*
X201825000Y-81600000I0J-87500D01*
G01*
X201825000Y-83050000D01*
G75*
G02*
X201737500Y-83137500I-87500J0D01*
G01*
X201562500Y-83137500D01*
G75*
G02*
X201475000Y-83050000I0J87500D01*
G01*
X201475000Y-81600000D01*
G75*
G02*
X201562500Y-81512500I87500J0D01*
G01*
G37*
G04 #@! TD.AperFunction*
G04 #@! TA.AperFunction,SMDPad,CuDef*
G36*
G01*
X201062500Y-81512500D02*
X201237500Y-81512500D01*
G75*
G02*
X201325000Y-81600000I0J-87500D01*
G01*
X201325000Y-83050000D01*
G75*
G02*
X201237500Y-83137500I-87500J0D01*
G01*
X201062500Y-83137500D01*
G75*
G02*
X200975000Y-83050000I0J87500D01*
G01*
X200975000Y-81600000D01*
G75*
G02*
X201062500Y-81512500I87500J0D01*
G01*
G37*
G04 #@! TD.AperFunction*
G04 #@! TA.AperFunction,SMDPad,CuDef*
G36*
G01*
X200562500Y-81512500D02*
X200737500Y-81512500D01*
G75*
G02*
X200825000Y-81600000I0J-87500D01*
G01*
X200825000Y-83050000D01*
G75*
G02*
X200737500Y-83137500I-87500J0D01*
G01*
X200562500Y-83137500D01*
G75*
G02*
X200475000Y-83050000I0J87500D01*
G01*
X200475000Y-81600000D01*
G75*
G02*
X200562500Y-81512500I87500J0D01*
G01*
G37*
G04 #@! TD.AperFunction*
G04 #@! TA.AperFunction,SMDPad,CuDef*
G36*
G01*
X200562500Y-85737500D02*
X200737500Y-85737500D01*
G75*
G02*
X200825000Y-85825000I0J-87500D01*
G01*
X200825000Y-87275000D01*
G75*
G02*
X200737500Y-87362500I-87500J0D01*
G01*
X200562500Y-87362500D01*
G75*
G02*
X200475000Y-87275000I0J87500D01*
G01*
X200475000Y-85825000D01*
G75*
G02*
X200562500Y-85737500I87500J0D01*
G01*
G37*
G04 #@! TD.AperFunction*
G04 #@! TA.AperFunction,SMDPad,CuDef*
G36*
G01*
X201062500Y-85737500D02*
X201237500Y-85737500D01*
G75*
G02*
X201325000Y-85825000I0J-87500D01*
G01*
X201325000Y-87275000D01*
G75*
G02*
X201237500Y-87362500I-87500J0D01*
G01*
X201062500Y-87362500D01*
G75*
G02*
X200975000Y-87275000I0J87500D01*
G01*
X200975000Y-85825000D01*
G75*
G02*
X201062500Y-85737500I87500J0D01*
G01*
G37*
G04 #@! TD.AperFunction*
G04 #@! TA.AperFunction,SMDPad,CuDef*
G36*
G01*
X201562500Y-85737500D02*
X201737500Y-85737500D01*
G75*
G02*
X201825000Y-85825000I0J-87500D01*
G01*
X201825000Y-87275000D01*
G75*
G02*
X201737500Y-87362500I-87500J0D01*
G01*
X201562500Y-87362500D01*
G75*
G02*
X201475000Y-87275000I0J87500D01*
G01*
X201475000Y-85825000D01*
G75*
G02*
X201562500Y-85737500I87500J0D01*
G01*
G37*
G04 #@! TD.AperFunction*
G04 #@! TA.AperFunction,SMDPad,CuDef*
G36*
G01*
X202062500Y-85737500D02*
X202237500Y-85737500D01*
G75*
G02*
X202325000Y-85825000I0J-87500D01*
G01*
X202325000Y-87275000D01*
G75*
G02*
X202237500Y-87362500I-87500J0D01*
G01*
X202062500Y-87362500D01*
G75*
G02*
X201975000Y-87275000I0J87500D01*
G01*
X201975000Y-85825000D01*
G75*
G02*
X202062500Y-85737500I87500J0D01*
G01*
G37*
G04 #@! TD.AperFunction*
G04 #@! TA.AperFunction,SMDPad,CuDef*
G36*
G01*
X202562500Y-85737500D02*
X202737500Y-85737500D01*
G75*
G02*
X202825000Y-85825000I0J-87500D01*
G01*
X202825000Y-87275000D01*
G75*
G02*
X202737500Y-87362500I-87500J0D01*
G01*
X202562500Y-87362500D01*
G75*
G02*
X202475000Y-87275000I0J87500D01*
G01*
X202475000Y-85825000D01*
G75*
G02*
X202562500Y-85737500I87500J0D01*
G01*
G37*
G04 #@! TD.AperFunction*
G04 #@! TA.AperFunction,SMDPad,CuDef*
G36*
G01*
X176037500Y-46650000D02*
X176037500Y-48850000D01*
G75*
G02*
X175787500Y-49100000I-250000J0D01*
G01*
X174962500Y-49100000D01*
G75*
G02*
X174712500Y-48850000I0J250000D01*
G01*
X174712500Y-46650000D01*
G75*
G02*
X174962500Y-46400000I250000J0D01*
G01*
X175787500Y-46400000D01*
G75*
G02*
X176037500Y-46650000I0J-250000D01*
G01*
G37*
G04 #@! TD.AperFunction*
G04 #@! TA.AperFunction,SMDPad,CuDef*
G36*
G01*
X172912500Y-46650000D02*
X172912500Y-48850000D01*
G75*
G02*
X172662500Y-49100000I-250000J0D01*
G01*
X171837500Y-49100000D01*
G75*
G02*
X171587500Y-48850000I0J250000D01*
G01*
X171587500Y-46650000D01*
G75*
G02*
X171837500Y-46400000I250000J0D01*
G01*
X172662500Y-46400000D01*
G75*
G02*
X172912500Y-46650000I0J-250000D01*
G01*
G37*
G04 #@! TD.AperFunction*
X197100000Y-76225000D03*
X192100000Y-76225000D03*
X142500000Y-72170000D03*
D13*
X142500000Y-82330000D03*
D12*
X247100000Y-82250000D03*
D13*
X247100000Y-92410000D03*
D23*
X240100000Y-61433333D03*
D24*
X242350000Y-58133333D03*
D25*
X244100000Y-59033333D03*
D26*
X236600000Y-59033333D03*
D24*
X237850000Y-58133333D03*
D27*
X240100000Y-56733333D03*
D28*
X240100000Y-63533333D03*
D36*
X145020000Y-91250000D03*
D37*
X143750000Y-91250000D03*
X142480000Y-91250000D03*
D12*
X175641000Y-95758000D03*
X180641000Y-95758000D03*
D23*
X240100000Y-75966666D03*
D24*
X242350000Y-72666666D03*
D25*
X244100000Y-73566666D03*
D26*
X236600000Y-73566666D03*
D24*
X237850000Y-72666666D03*
D27*
X240100000Y-71266666D03*
D28*
X240100000Y-78066666D03*
D12*
X152250000Y-76190000D03*
D13*
X152250000Y-66030000D03*
D23*
X177174065Y-59268249D03*
D24*
X179424065Y-55968249D03*
D25*
X181174065Y-56868249D03*
D26*
X173674065Y-56868249D03*
D24*
X174924065Y-55968249D03*
D27*
X177174065Y-54568249D03*
D28*
X177174065Y-61368249D03*
D29*
X228260142Y-71088261D03*
X228963086Y-69391205D03*
X228963086Y-72785317D03*
X230660142Y-68688261D03*
D30*
X230660142Y-71088261D03*
D29*
X230660142Y-73488261D03*
X232357198Y-69391205D03*
X232357198Y-72785317D03*
X233060142Y-71088261D03*
D12*
X143002000Y-52959000D03*
D13*
X143002000Y-42799000D03*
D23*
X268100000Y-47000000D03*
D24*
X270350000Y-43700000D03*
D25*
X272100000Y-44600000D03*
D26*
X264600000Y-44600000D03*
D24*
X265850000Y-43700000D03*
D27*
X268100000Y-42300000D03*
D28*
X268100000Y-49100000D03*
D12*
X184000000Y-63600000D03*
X184000000Y-58600000D03*
D38*
X259100000Y-32190000D03*
D39*
X259100000Y-39810000D03*
D35*
X184277000Y-32385000D03*
D21*
X160925000Y-43175000D03*
D12*
X160925000Y-45675000D03*
D40*
X159217564Y-56780906D03*
X168017564Y-56780906D03*
D41*
X166117564Y-63780906D03*
X163617564Y-63780906D03*
X161117564Y-63780906D03*
D12*
X188750000Y-69062600D03*
X188750000Y-64062600D03*
D35*
X186817000Y-32385000D03*
X189357000Y-32385000D03*
D14*
X166152500Y-72090000D03*
D15*
X163612500Y-72090000D03*
X161072500Y-72090000D03*
X166152500Y-67010000D03*
X163612500Y-67010000D03*
X161072500Y-67010000D03*
D36*
X145000000Y-86500000D03*
D37*
X143730000Y-86500000D03*
X142460000Y-86500000D03*
D12*
X145500000Y-79000000D03*
D13*
X155660000Y-79000000D03*
D12*
X185100000Y-100200000D03*
D13*
X185100000Y-90040000D03*
D23*
X268100000Y-76000000D03*
D24*
X270350000Y-72700000D03*
D25*
X272100000Y-73600000D03*
D26*
X264600000Y-73600000D03*
D24*
X265850000Y-72700000D03*
D27*
X268100000Y-71300000D03*
D28*
X268100000Y-78100000D03*
D32*
X139850000Y-60250000D03*
D33*
X139850000Y-62790000D03*
D12*
X175225000Y-82835000D03*
D13*
X175225000Y-72675000D03*
D29*
X250278178Y-99588332D03*
X250981122Y-97891276D03*
X250981122Y-101285388D03*
X252678178Y-97188332D03*
D30*
X252678178Y-99588332D03*
D29*
X252678178Y-101988332D03*
X254375234Y-97891276D03*
X254375234Y-101285388D03*
X255078178Y-99588332D03*
D12*
X236270000Y-52150000D03*
D13*
X246430000Y-52150000D03*
D12*
X218750000Y-32640000D03*
D13*
X218750000Y-42800000D03*
D12*
X211350000Y-37000000D03*
X211350000Y-34000000D03*
X206950000Y-42000000D03*
X211350000Y-41000000D03*
G04 #@! TA.AperFunction,SMDPad,CuDef*
G36*
G01*
X199788800Y-68727900D02*
X198838800Y-68727900D01*
G75*
G02*
X198588800Y-68477900I0J250000D01*
G01*
X198588800Y-67802900D01*
G75*
G02*
X198838800Y-67552900I250000J0D01*
G01*
X199788800Y-67552900D01*
G75*
G02*
X200038800Y-67802900I0J-250000D01*
G01*
X200038800Y-68477900D01*
G75*
G02*
X199788800Y-68727900I-250000J0D01*
G01*
G37*
G04 #@! TD.AperFunction*
G04 #@! TA.AperFunction,SMDPad,CuDef*
G36*
G01*
X199788800Y-66652900D02*
X198838800Y-66652900D01*
G75*
G02*
X198588800Y-66402900I0J250000D01*
G01*
X198588800Y-65727900D01*
G75*
G02*
X198838800Y-65477900I250000J0D01*
G01*
X199788800Y-65477900D01*
G75*
G02*
X200038800Y-65727900I0J-250000D01*
G01*
X200038800Y-66402900D01*
G75*
G02*
X199788800Y-66652900I-250000J0D01*
G01*
G37*
G04 #@! TD.AperFunction*
D23*
X268100000Y-61500000D03*
D24*
X270350000Y-58200000D03*
D25*
X272100000Y-59100000D03*
D26*
X264600000Y-59100000D03*
D24*
X265850000Y-58200000D03*
D27*
X268100000Y-56800000D03*
D28*
X268100000Y-63600000D03*
D23*
X240100000Y-46900000D03*
D24*
X242350000Y-43600000D03*
D25*
X244100000Y-44500000D03*
D26*
X236600000Y-44500000D03*
D24*
X237850000Y-43600000D03*
D27*
X240100000Y-42200000D03*
D28*
X240100000Y-49000000D03*
D21*
X222375000Y-37100000D03*
D13*
X222375000Y-39640000D03*
X222375000Y-42180000D03*
X222375000Y-44720000D03*
X229995000Y-44720000D03*
X229995000Y-42180000D03*
X229995000Y-39640000D03*
X229995000Y-37100000D03*
D12*
X263120000Y-66750000D03*
D13*
X273280000Y-66750000D03*
D12*
X233260000Y-92180000D03*
D13*
X233260000Y-82020000D03*
D12*
X188722000Y-76276200D03*
X188722000Y-71276200D03*
X211800000Y-48750000D03*
D13*
X221960000Y-48750000D03*
D23*
X254100000Y-61500000D03*
D24*
X256350000Y-58200000D03*
D25*
X258100000Y-59100000D03*
D26*
X250600000Y-59100000D03*
D24*
X251850000Y-58200000D03*
D27*
X254100000Y-56800000D03*
D28*
X254100000Y-63600000D03*
D23*
X254100000Y-76000000D03*
D24*
X256350000Y-72700000D03*
D25*
X258100000Y-73600000D03*
D26*
X250600000Y-73600000D03*
D24*
X251850000Y-72700000D03*
D27*
X254100000Y-71300000D03*
D28*
X254100000Y-78100000D03*
D23*
X254100000Y-47000000D03*
D24*
X256350000Y-43700000D03*
D25*
X258100000Y-44600000D03*
D26*
X250600000Y-44600000D03*
D24*
X251850000Y-43700000D03*
D27*
X254100000Y-42300000D03*
D28*
X254100000Y-49100000D03*
D12*
X212600000Y-82985000D03*
D13*
X212600000Y-72825000D03*
D12*
X202600000Y-100360000D03*
D13*
X202600000Y-90200000D03*
D12*
X172347600Y-44196000D03*
X177347600Y-44196000D03*
X184000000Y-51400000D03*
X184000000Y-56400000D03*
D23*
X150165198Y-59269712D03*
D24*
X152415198Y-55969712D03*
D25*
X154165198Y-56869712D03*
D26*
X146665198Y-56869712D03*
D24*
X147915198Y-55969712D03*
D27*
X150165198Y-54569712D03*
D28*
X150165198Y-61369712D03*
G04 #@! TA.AperFunction,SMDPad,CuDef*
G36*
G01*
X166337500Y-44198862D02*
X166337500Y-41998862D01*
G75*
G02*
X166587500Y-41748862I250000J0D01*
G01*
X167412500Y-41748862D01*
G75*
G02*
X167662500Y-41998862I0J-250000D01*
G01*
X167662500Y-44198862D01*
G75*
G02*
X167412500Y-44448862I-250000J0D01*
G01*
X166587500Y-44448862D01*
G75*
G02*
X166337500Y-44198862I0J250000D01*
G01*
G37*
G04 #@! TD.AperFunction*
G04 #@! TA.AperFunction,SMDPad,CuDef*
G36*
G01*
X169462500Y-44198862D02*
X169462500Y-41998862D01*
G75*
G02*
X169712500Y-41748862I250000J0D01*
G01*
X170537500Y-41748862D01*
G75*
G02*
X170787500Y-41998862I0J-250000D01*
G01*
X170787500Y-44198862D01*
G75*
G02*
X170537500Y-44448862I-250000J0D01*
G01*
X169712500Y-44448862D01*
G75*
G02*
X169462500Y-44198862I0J250000D01*
G01*
G37*
G04 #@! TD.AperFunction*
D42*
X194056000Y-100584000D03*
D23*
X254099112Y-90500000D03*
D24*
X256349112Y-87200000D03*
D25*
X258099112Y-88100000D03*
D26*
X250599112Y-88100000D03*
D24*
X251849112Y-87200000D03*
D27*
X254099112Y-85800000D03*
D28*
X254099112Y-92600000D03*
D23*
X268100000Y-90500000D03*
D24*
X270350000Y-87200000D03*
D25*
X272100000Y-88100000D03*
D26*
X264600000Y-88100000D03*
D24*
X265850000Y-87200000D03*
D27*
X268100000Y-85800000D03*
D28*
X268100000Y-92600000D03*
D12*
X175700000Y-100500000D03*
X180700000Y-100500000D03*
X188750000Y-37250000D03*
D13*
X188750000Y-47410000D03*
D12*
X170641261Y-31877000D03*
X170641261Y-36877000D03*
X139250000Y-93160000D03*
D13*
X139250000Y-83000000D03*
D12*
X171704000Y-48133000D03*
X176704000Y-48133000D03*
D35*
X195961000Y-89154000D03*
G04 #@! TA.AperFunction,SMDPad,CuDef*
G36*
X216801000Y-46597000D02*
G01*
X216251000Y-46597000D01*
X216251000Y-46591911D01*
X216179843Y-46591911D01*
X216043292Y-46551816D01*
X215923570Y-46474875D01*
X215830373Y-46367320D01*
X215771254Y-46237866D01*
X215751000Y-46097000D01*
X215751000Y-45597000D01*
X215771254Y-45456134D01*
X215830373Y-45326680D01*
X215923570Y-45219125D01*
X216043292Y-45142184D01*
X216179843Y-45102089D01*
X216251000Y-45102089D01*
X216251000Y-45097000D01*
X216801000Y-45097000D01*
X216801000Y-46597000D01*
G37*
G04 #@! TD.AperFunction*
D43*
X217551000Y-45847000D03*
G04 #@! TA.AperFunction,SMDPad,CuDef*
G36*
X218851000Y-45102089D02*
G01*
X218922157Y-45102089D01*
X219058708Y-45142184D01*
X219178430Y-45219125D01*
X219271627Y-45326680D01*
X219330746Y-45456134D01*
X219351000Y-45597000D01*
X219351000Y-46097000D01*
X219330746Y-46237866D01*
X219271627Y-46367320D01*
X219178430Y-46474875D01*
X219058708Y-46551816D01*
X218922157Y-46591911D01*
X218851000Y-46591911D01*
X218851000Y-46597000D01*
X218301000Y-46597000D01*
X218301000Y-45097000D01*
X218851000Y-45097000D01*
X218851000Y-45102089D01*
G37*
G04 #@! TD.AperFunction*
D44*
X148875000Y-88725000D03*
D41*
X151415000Y-88725000D03*
D12*
X199600000Y-32570000D03*
D13*
X199600000Y-42730000D03*
D12*
X229450000Y-64800000D03*
D13*
X229450000Y-54640000D03*
G04 #@! TA.AperFunction,SMDPad,CuDef*
G36*
G01*
X191050000Y-64670000D02*
X191050000Y-64370000D01*
G75*
G02*
X191200000Y-64220000I150000J0D01*
G01*
X192900000Y-64220000D01*
G75*
G02*
X193050000Y-64370000I0J-150000D01*
G01*
X193050000Y-64670000D01*
G75*
G02*
X192900000Y-64820000I-150000J0D01*
G01*
X191200000Y-64820000D01*
G75*
G02*
X191050000Y-64670000I0J150000D01*
G01*
G37*
G04 #@! TD.AperFunction*
G04 #@! TA.AperFunction,SMDPad,CuDef*
G36*
G01*
X191050000Y-65940000D02*
X191050000Y-65640000D01*
G75*
G02*
X191200000Y-65490000I150000J0D01*
G01*
X192900000Y-65490000D01*
G75*
G02*
X193050000Y-65640000I0J-150000D01*
G01*
X193050000Y-65940000D01*
G75*
G02*
X192900000Y-66090000I-150000J0D01*
G01*
X191200000Y-66090000D01*
G75*
G02*
X191050000Y-65940000I0J150000D01*
G01*
G37*
G04 #@! TD.AperFunction*
G04 #@! TA.AperFunction,SMDPad,CuDef*
G36*
G01*
X191050000Y-67210000D02*
X191050000Y-66910000D01*
G75*
G02*
X191200000Y-66760000I150000J0D01*
G01*
X192900000Y-66760000D01*
G75*
G02*
X193050000Y-66910000I0J-150000D01*
G01*
X193050000Y-67210000D01*
G75*
G02*
X192900000Y-67360000I-150000J0D01*
G01*
X191200000Y-67360000D01*
G75*
G02*
X191050000Y-67210000I0J150000D01*
G01*
G37*
G04 #@! TD.AperFunction*
G04 #@! TA.AperFunction,SMDPad,CuDef*
G36*
G01*
X191050000Y-68480000D02*
X191050000Y-68180000D01*
G75*
G02*
X191200000Y-68030000I150000J0D01*
G01*
X192900000Y-68030000D01*
G75*
G02*
X193050000Y-68180000I0J-150000D01*
G01*
X193050000Y-68480000D01*
G75*
G02*
X192900000Y-68630000I-150000J0D01*
G01*
X191200000Y-68630000D01*
G75*
G02*
X191050000Y-68480000I0J150000D01*
G01*
G37*
G04 #@! TD.AperFunction*
G04 #@! TA.AperFunction,SMDPad,CuDef*
G36*
G01*
X191050000Y-69750000D02*
X191050000Y-69450000D01*
G75*
G02*
X191200000Y-69300000I150000J0D01*
G01*
X192900000Y-69300000D01*
G75*
G02*
X193050000Y-69450000I0J-150000D01*
G01*
X193050000Y-69750000D01*
G75*
G02*
X192900000Y-69900000I-150000J0D01*
G01*
X191200000Y-69900000D01*
G75*
G02*
X191050000Y-69750000I0J150000D01*
G01*
G37*
G04 #@! TD.AperFunction*
G04 #@! TA.AperFunction,SMDPad,CuDef*
G36*
G01*
X191050000Y-71020000D02*
X191050000Y-70720000D01*
G75*
G02*
X191200000Y-70570000I150000J0D01*
G01*
X192900000Y-70570000D01*
G75*
G02*
X193050000Y-70720000I0J-150000D01*
G01*
X193050000Y-71020000D01*
G75*
G02*
X192900000Y-71170000I-150000J0D01*
G01*
X191200000Y-71170000D01*
G75*
G02*
X191050000Y-71020000I0J150000D01*
G01*
G37*
G04 #@! TD.AperFunction*
G04 #@! TA.AperFunction,SMDPad,CuDef*
G36*
G01*
X191050000Y-72290000D02*
X191050000Y-71990000D01*
G75*
G02*
X191200000Y-71840000I150000J0D01*
G01*
X192900000Y-71840000D01*
G75*
G02*
X193050000Y-71990000I0J-150000D01*
G01*
X193050000Y-72290000D01*
G75*
G02*
X192900000Y-72440000I-150000J0D01*
G01*
X191200000Y-72440000D01*
G75*
G02*
X191050000Y-72290000I0J150000D01*
G01*
G37*
G04 #@! TD.AperFunction*
G04 #@! TA.AperFunction,SMDPad,CuDef*
G36*
G01*
X191050000Y-73560000D02*
X191050000Y-73260000D01*
G75*
G02*
X191200000Y-73110000I150000J0D01*
G01*
X192900000Y-73110000D01*
G75*
G02*
X193050000Y-73260000I0J-150000D01*
G01*
X193050000Y-73560000D01*
G75*
G02*
X192900000Y-73710000I-150000J0D01*
G01*
X191200000Y-73710000D01*
G75*
G02*
X191050000Y-73560000I0J150000D01*
G01*
G37*
G04 #@! TD.AperFunction*
G04 #@! TA.AperFunction,SMDPad,CuDef*
G36*
G01*
X196050000Y-73560000D02*
X196050000Y-73260000D01*
G75*
G02*
X196200000Y-73110000I150000J0D01*
G01*
X197900000Y-73110000D01*
G75*
G02*
X198050000Y-73260000I0J-150000D01*
G01*
X198050000Y-73560000D01*
G75*
G02*
X197900000Y-73710000I-150000J0D01*
G01*
X196200000Y-73710000D01*
G75*
G02*
X196050000Y-73560000I0J150000D01*
G01*
G37*
G04 #@! TD.AperFunction*
G04 #@! TA.AperFunction,SMDPad,CuDef*
G36*
G01*
X196050000Y-72290000D02*
X196050000Y-71990000D01*
G75*
G02*
X196200000Y-71840000I150000J0D01*
G01*
X197900000Y-71840000D01*
G75*
G02*
X198050000Y-71990000I0J-150000D01*
G01*
X198050000Y-72290000D01*
G75*
G02*
X197900000Y-72440000I-150000J0D01*
G01*
X196200000Y-72440000D01*
G75*
G02*
X196050000Y-72290000I0J150000D01*
G01*
G37*
G04 #@! TD.AperFunction*
G04 #@! TA.AperFunction,SMDPad,CuDef*
G36*
G01*
X196050000Y-71020000D02*
X196050000Y-70720000D01*
G75*
G02*
X196200000Y-70570000I150000J0D01*
G01*
X197900000Y-70570000D01*
G75*
G02*
X198050000Y-70720000I0J-150000D01*
G01*
X198050000Y-71020000D01*
G75*
G02*
X197900000Y-71170000I-150000J0D01*
G01*
X196200000Y-71170000D01*
G75*
G02*
X196050000Y-71020000I0J150000D01*
G01*
G37*
G04 #@! TD.AperFunction*
G04 #@! TA.AperFunction,SMDPad,CuDef*
G36*
G01*
X196050000Y-69750000D02*
X196050000Y-69450000D01*
G75*
G02*
X196200000Y-69300000I150000J0D01*
G01*
X197900000Y-69300000D01*
G75*
G02*
X198050000Y-69450000I0J-150000D01*
G01*
X198050000Y-69750000D01*
G75*
G02*
X197900000Y-69900000I-150000J0D01*
G01*
X196200000Y-69900000D01*
G75*
G02*
X196050000Y-69750000I0J150000D01*
G01*
G37*
G04 #@! TD.AperFunction*
G04 #@! TA.AperFunction,SMDPad,CuDef*
G36*
G01*
X196050000Y-68480000D02*
X196050000Y-68180000D01*
G75*
G02*
X196200000Y-68030000I150000J0D01*
G01*
X197900000Y-68030000D01*
G75*
G02*
X198050000Y-68180000I0J-150000D01*
G01*
X198050000Y-68480000D01*
G75*
G02*
X197900000Y-68630000I-150000J0D01*
G01*
X196200000Y-68630000D01*
G75*
G02*
X196050000Y-68480000I0J150000D01*
G01*
G37*
G04 #@! TD.AperFunction*
G04 #@! TA.AperFunction,SMDPad,CuDef*
G36*
G01*
X196050000Y-67210000D02*
X196050000Y-66910000D01*
G75*
G02*
X196200000Y-66760000I150000J0D01*
G01*
X197900000Y-66760000D01*
G75*
G02*
X198050000Y-66910000I0J-150000D01*
G01*
X198050000Y-67210000D01*
G75*
G02*
X197900000Y-67360000I-150000J0D01*
G01*
X196200000Y-67360000D01*
G75*
G02*
X196050000Y-67210000I0J150000D01*
G01*
G37*
G04 #@! TD.AperFunction*
G04 #@! TA.AperFunction,SMDPad,CuDef*
G36*
G01*
X196050000Y-65940000D02*
X196050000Y-65640000D01*
G75*
G02*
X196200000Y-65490000I150000J0D01*
G01*
X197900000Y-65490000D01*
G75*
G02*
X198050000Y-65640000I0J-150000D01*
G01*
X198050000Y-65940000D01*
G75*
G02*
X197900000Y-66090000I-150000J0D01*
G01*
X196200000Y-66090000D01*
G75*
G02*
X196050000Y-65940000I0J150000D01*
G01*
G37*
G04 #@! TD.AperFunction*
G04 #@! TA.AperFunction,SMDPad,CuDef*
G36*
G01*
X196050000Y-64670000D02*
X196050000Y-64370000D01*
G75*
G02*
X196200000Y-64220000I150000J0D01*
G01*
X197900000Y-64220000D01*
G75*
G02*
X198050000Y-64370000I0J-150000D01*
G01*
X198050000Y-64670000D01*
G75*
G02*
X197900000Y-64820000I-150000J0D01*
G01*
X196200000Y-64820000D01*
G75*
G02*
X196050000Y-64670000I0J150000D01*
G01*
G37*
G04 #@! TD.AperFunction*
D12*
X212304000Y-94361000D03*
X207304000Y-94361000D03*
D40*
X216749930Y-56700000D03*
X225549930Y-56700000D03*
D41*
X223649930Y-63700000D03*
X221149930Y-63700000D03*
X218649930Y-63700000D03*
D12*
X199694800Y-61722000D03*
D13*
X199694800Y-51562000D03*
G04 #@! TA.AperFunction,SMDPad,CuDef*
G36*
G01*
X168770100Y-38950000D02*
X168770100Y-38650000D01*
G75*
G02*
X168920100Y-38500000I150000J0D01*
G01*
X169945100Y-38500000D01*
G75*
G02*
X170095100Y-38650000I0J-150000D01*
G01*
X170095100Y-38950000D01*
G75*
G02*
X169945100Y-39100000I-150000J0D01*
G01*
X168920100Y-39100000D01*
G75*
G02*
X168770100Y-38950000I0J150000D01*
G01*
G37*
G04 #@! TD.AperFunction*
G04 #@! TA.AperFunction,SMDPad,CuDef*
G36*
G01*
X168770100Y-39900000D02*
X168770100Y-39600000D01*
G75*
G02*
X168920100Y-39450000I150000J0D01*
G01*
X169945100Y-39450000D01*
G75*
G02*
X170095100Y-39600000I0J-150000D01*
G01*
X170095100Y-39900000D01*
G75*
G02*
X169945100Y-40050000I-150000J0D01*
G01*
X168920100Y-40050000D01*
G75*
G02*
X168770100Y-39900000I0J150000D01*
G01*
G37*
G04 #@! TD.AperFunction*
G04 #@! TA.AperFunction,SMDPad,CuDef*
G36*
G01*
X168770100Y-40850000D02*
X168770100Y-40550000D01*
G75*
G02*
X168920100Y-40400000I150000J0D01*
G01*
X169945100Y-40400000D01*
G75*
G02*
X170095100Y-40550000I0J-150000D01*
G01*
X170095100Y-40850000D01*
G75*
G02*
X169945100Y-41000000I-150000J0D01*
G01*
X168920100Y-41000000D01*
G75*
G02*
X168770100Y-40850000I0J150000D01*
G01*
G37*
G04 #@! TD.AperFunction*
G04 #@! TA.AperFunction,SMDPad,CuDef*
G36*
G01*
X171045100Y-40850000D02*
X171045100Y-40550000D01*
G75*
G02*
X171195100Y-40400000I150000J0D01*
G01*
X172220100Y-40400000D01*
G75*
G02*
X172370100Y-40550000I0J-150000D01*
G01*
X172370100Y-40850000D01*
G75*
G02*
X172220100Y-41000000I-150000J0D01*
G01*
X171195100Y-41000000D01*
G75*
G02*
X171045100Y-40850000I0J150000D01*
G01*
G37*
G04 #@! TD.AperFunction*
G04 #@! TA.AperFunction,SMDPad,CuDef*
G36*
G01*
X171045100Y-39900000D02*
X171045100Y-39600000D01*
G75*
G02*
X171195100Y-39450000I150000J0D01*
G01*
X172220100Y-39450000D01*
G75*
G02*
X172370100Y-39600000I0J-150000D01*
G01*
X172370100Y-39900000D01*
G75*
G02*
X172220100Y-40050000I-150000J0D01*
G01*
X171195100Y-40050000D01*
G75*
G02*
X171045100Y-39900000I0J150000D01*
G01*
G37*
G04 #@! TD.AperFunction*
G04 #@! TA.AperFunction,SMDPad,CuDef*
G36*
G01*
X171045100Y-38950000D02*
X171045100Y-38650000D01*
G75*
G02*
X171195100Y-38500000I150000J0D01*
G01*
X172220100Y-38500000D01*
G75*
G02*
X172370100Y-38650000I0J-150000D01*
G01*
X172370100Y-38950000D01*
G75*
G02*
X172220100Y-39100000I-150000J0D01*
G01*
X171195100Y-39100000D01*
G75*
G02*
X171045100Y-38950000I0J150000D01*
G01*
G37*
G04 #@! TD.AperFunction*
D12*
X245080000Y-81225000D03*
D13*
X234920000Y-81225000D03*
D45*
X174752000Y-37592000D03*
X179752000Y-37592000D03*
D12*
X155250000Y-76150000D03*
D13*
X155250000Y-65990000D03*
D44*
X147670000Y-98300000D03*
D41*
X150210000Y-98300000D03*
X152750000Y-98300000D03*
D29*
X139840000Y-97590000D03*
X140542944Y-95892944D03*
X140542944Y-99287056D03*
X142240000Y-95190000D03*
D30*
X142240000Y-97590000D03*
D29*
X142240000Y-99990000D03*
X143937056Y-95892944D03*
X143937056Y-99287056D03*
X144640000Y-97590000D03*
D12*
X224000000Y-48760000D03*
D13*
X234160000Y-48760000D03*
D12*
X139350000Y-77840000D03*
D13*
X139350000Y-67680000D03*
G04 #@! TA.AperFunction,SMDPad,CuDef*
G36*
X156212400Y-41440800D02*
G01*
X155712400Y-41440800D01*
X155712400Y-41435711D01*
X155641243Y-41435711D01*
X155504692Y-41395616D01*
X155384970Y-41318675D01*
X155291773Y-41211120D01*
X155232654Y-41081666D01*
X155212400Y-40940800D01*
X155212400Y-40440800D01*
X155232654Y-40299934D01*
X155291773Y-40170480D01*
X155384970Y-40062925D01*
X155504692Y-39985984D01*
X155641243Y-39945889D01*
X155712400Y-39945889D01*
X155712400Y-39940800D01*
X156212400Y-39940800D01*
X156212400Y-41440800D01*
G37*
G04 #@! TD.AperFunction*
G04 #@! TA.AperFunction,SMDPad,CuDef*
G36*
X157012400Y-39945889D02*
G01*
X157083557Y-39945889D01*
X157220108Y-39985984D01*
X157339830Y-40062925D01*
X157433027Y-40170480D01*
X157492146Y-40299934D01*
X157512400Y-40440800D01*
X157512400Y-40940800D01*
X157492146Y-41081666D01*
X157433027Y-41211120D01*
X157339830Y-41318675D01*
X157220108Y-41395616D01*
X157083557Y-41435711D01*
X157012400Y-41435711D01*
X157012400Y-41440800D01*
X156512400Y-41440800D01*
X156512400Y-39940800D01*
X157012400Y-39940800D01*
X157012400Y-39945889D01*
G37*
G04 #@! TD.AperFunction*
D12*
X211400000Y-85650000D03*
X211400000Y-90650000D03*
D21*
X183388000Y-69400000D03*
D12*
X183388000Y-66900000D03*
D29*
X138994600Y-37691600D03*
X139697544Y-35994544D03*
X139697544Y-39388656D03*
X141394600Y-35291600D03*
D30*
X141394600Y-37691600D03*
D29*
X141394600Y-40091600D03*
X143091656Y-35994544D03*
X143091656Y-39388656D03*
X143794600Y-37691600D03*
G04 #@! TA.AperFunction,SMDPad,CuDef*
G36*
G01*
X186637500Y-81250000D02*
X186812500Y-81250000D01*
G75*
G02*
X186900000Y-81337500I0J-87500D01*
G01*
X186900000Y-82787500D01*
G75*
G02*
X186812500Y-82875000I-87500J0D01*
G01*
X186637500Y-82875000D01*
G75*
G02*
X186550000Y-82787500I0J87500D01*
G01*
X186550000Y-81337500D01*
G75*
G02*
X186637500Y-81250000I87500J0D01*
G01*
G37*
G04 #@! TD.AperFunction*
G04 #@! TA.AperFunction,SMDPad,CuDef*
G36*
G01*
X186137500Y-81250000D02*
X186312500Y-81250000D01*
G75*
G02*
X186400000Y-81337500I0J-87500D01*
G01*
X186400000Y-82787500D01*
G75*
G02*
X186312500Y-82875000I-87500J0D01*
G01*
X186137500Y-82875000D01*
G75*
G02*
X186050000Y-82787500I0J87500D01*
G01*
X186050000Y-81337500D01*
G75*
G02*
X186137500Y-81250000I87500J0D01*
G01*
G37*
G04 #@! TD.AperFunction*
G04 #@! TA.AperFunction,SMDPad,CuDef*
G36*
G01*
X185637500Y-81250000D02*
X185812500Y-81250000D01*
G75*
G02*
X185900000Y-81337500I0J-87500D01*
G01*
X185900000Y-82787500D01*
G75*
G02*
X185812500Y-82875000I-87500J0D01*
G01*
X185637500Y-82875000D01*
G75*
G02*
X185550000Y-82787500I0J87500D01*
G01*
X185550000Y-81337500D01*
G75*
G02*
X185637500Y-81250000I87500J0D01*
G01*
G37*
G04 #@! TD.AperFunction*
G04 #@! TA.AperFunction,SMDPad,CuDef*
G36*
G01*
X185137500Y-81250000D02*
X185312500Y-81250000D01*
G75*
G02*
X185400000Y-81337500I0J-87500D01*
G01*
X185400000Y-82787500D01*
G75*
G02*
X185312500Y-82875000I-87500J0D01*
G01*
X185137500Y-82875000D01*
G75*
G02*
X185050000Y-82787500I0J87500D01*
G01*
X185050000Y-81337500D01*
G75*
G02*
X185137500Y-81250000I87500J0D01*
G01*
G37*
G04 #@! TD.AperFunction*
G04 #@! TA.AperFunction,SMDPad,CuDef*
G36*
G01*
X184637500Y-81250000D02*
X184812500Y-81250000D01*
G75*
G02*
X184900000Y-81337500I0J-87500D01*
G01*
X184900000Y-82787500D01*
G75*
G02*
X184812500Y-82875000I-87500J0D01*
G01*
X184637500Y-82875000D01*
G75*
G02*
X184550000Y-82787500I0J87500D01*
G01*
X184550000Y-81337500D01*
G75*
G02*
X184637500Y-81250000I87500J0D01*
G01*
G37*
G04 #@! TD.AperFunction*
G04 #@! TA.AperFunction,SMDPad,CuDef*
G36*
G01*
X184637500Y-85475000D02*
X184812500Y-85475000D01*
G75*
G02*
X184900000Y-85562500I0J-87500D01*
G01*
X184900000Y-87012500D01*
G75*
G02*
X184812500Y-87100000I-87500J0D01*
G01*
X184637500Y-87100000D01*
G75*
G02*
X184550000Y-87012500I0J87500D01*
G01*
X184550000Y-85562500D01*
G75*
G02*
X184637500Y-85475000I87500J0D01*
G01*
G37*
G04 #@! TD.AperFunction*
G04 #@! TA.AperFunction,SMDPad,CuDef*
G36*
G01*
X185137500Y-85475000D02*
X185312500Y-85475000D01*
G75*
G02*
X185400000Y-85562500I0J-87500D01*
G01*
X185400000Y-87012500D01*
G75*
G02*
X185312500Y-87100000I-87500J0D01*
G01*
X185137500Y-87100000D01*
G75*
G02*
X185050000Y-87012500I0J87500D01*
G01*
X185050000Y-85562500D01*
G75*
G02*
X185137500Y-85475000I87500J0D01*
G01*
G37*
G04 #@! TD.AperFunction*
G04 #@! TA.AperFunction,SMDPad,CuDef*
G36*
G01*
X185637500Y-85475000D02*
X185812500Y-85475000D01*
G75*
G02*
X185900000Y-85562500I0J-87500D01*
G01*
X185900000Y-87012500D01*
G75*
G02*
X185812500Y-87100000I-87500J0D01*
G01*
X185637500Y-87100000D01*
G75*
G02*
X185550000Y-87012500I0J87500D01*
G01*
X185550000Y-85562500D01*
G75*
G02*
X185637500Y-85475000I87500J0D01*
G01*
G37*
G04 #@! TD.AperFunction*
G04 #@! TA.AperFunction,SMDPad,CuDef*
G36*
G01*
X186137500Y-85475000D02*
X186312500Y-85475000D01*
G75*
G02*
X186400000Y-85562500I0J-87500D01*
G01*
X186400000Y-87012500D01*
G75*
G02*
X186312500Y-87100000I-87500J0D01*
G01*
X186137500Y-87100000D01*
G75*
G02*
X186050000Y-87012500I0J87500D01*
G01*
X186050000Y-85562500D01*
G75*
G02*
X186137500Y-85475000I87500J0D01*
G01*
G37*
G04 #@! TD.AperFunction*
G04 #@! TA.AperFunction,SMDPad,CuDef*
G36*
G01*
X186637500Y-85475000D02*
X186812500Y-85475000D01*
G75*
G02*
X186900000Y-85562500I0J-87500D01*
G01*
X186900000Y-87012500D01*
G75*
G02*
X186812500Y-87100000I-87500J0D01*
G01*
X186637500Y-87100000D01*
G75*
G02*
X186550000Y-87012500I0J87500D01*
G01*
X186550000Y-85562500D01*
G75*
G02*
X186637500Y-85475000I87500J0D01*
G01*
G37*
G04 #@! TD.AperFunction*
D46*
X239930000Y-51890000D03*
D47*
X202692000Y-80772000D03*
X159000000Y-39500000D03*
X185925000Y-80225000D03*
X217551000Y-35433000D03*
X168600000Y-59800000D03*
X216075000Y-65300000D03*
X225168808Y-63206427D03*
X220950000Y-59500000D03*
X174000000Y-53400000D03*
X165400000Y-53400000D03*
X180225000Y-77325000D03*
X183425000Y-77725000D03*
X200914000Y-72898000D03*
X221234000Y-53975000D03*
X195072000Y-71882000D03*
X221107000Y-45720000D03*
X169600000Y-59200000D03*
X159347702Y-62947702D03*
X206879963Y-81870037D03*
X205645037Y-83604963D03*
X168400000Y-67810000D03*
X182702200Y-84404200D03*
X180006129Y-81956129D03*
X168000000Y-66210000D03*
X171834314Y-35765686D03*
D46*
X209550000Y-54356000D03*
X209042000Y-45999400D03*
D47*
X173965686Y-35634314D03*
X193750000Y-44250000D03*
D46*
X172200000Y-50450000D03*
X177009345Y-50058946D03*
D47*
X172250000Y-33250000D03*
X169750000Y-33250000D03*
X215265000Y-53975000D03*
X215265000Y-50038000D03*
X200279000Y-83845400D03*
X181666663Y-90113337D03*
X203047600Y-95681800D03*
X224434400Y-94513400D03*
X179120800Y-93548200D03*
X166700200Y-97332800D03*
D48*
X199212200Y-85013800D02*
X197751000Y-86475000D01*
X200244238Y-80837500D02*
X199800000Y-81281738D01*
X197751000Y-86475000D02*
X196850000Y-86475000D01*
X199800000Y-81281738D02*
X199800000Y-83105200D01*
X199212200Y-83693000D02*
X199212200Y-85013800D01*
X199800000Y-83105200D02*
X199212200Y-83693000D01*
X201055762Y-80837500D02*
X200244238Y-80837500D01*
X201650000Y-81431738D02*
X201055762Y-80837500D01*
X201650000Y-82325000D02*
X201650000Y-81431738D01*
D49*
X211480400Y-51337200D02*
X235032190Y-51337200D01*
X235032190Y-51337200D02*
X235719390Y-50650000D01*
X238690000Y-50650000D02*
X239930000Y-51890000D01*
X201345800Y-49911000D02*
X207016790Y-49911000D01*
X207016790Y-49911000D02*
X207044390Y-49883400D01*
X210026600Y-49883400D02*
X211480400Y-51337200D01*
X199694800Y-51562000D02*
X201345800Y-49911000D01*
X238450000Y-50650000D02*
X240100000Y-49000000D01*
X238450000Y-50650000D02*
X238690000Y-50650000D01*
X235719390Y-50650000D02*
X238450000Y-50650000D01*
X207044390Y-49883400D02*
X210026600Y-49883400D01*
D50*
X226308680Y-89650000D02*
X224300000Y-87641320D01*
X225298000Y-72080000D02*
X223700000Y-72080000D01*
X217000000Y-89650000D02*
X212400000Y-89650000D01*
X210150000Y-89400000D02*
X210150000Y-83830000D01*
X224300000Y-87641320D02*
X224300000Y-85621573D01*
X212400000Y-89650000D02*
X211400000Y-90650000D01*
X211400000Y-90650000D02*
X210150000Y-89400000D01*
X210150000Y-83830000D02*
X209300000Y-82980000D01*
X226060000Y-72842000D02*
X225298000Y-72080000D01*
X224300000Y-85621573D02*
X226060000Y-83861573D01*
X226060000Y-83861573D02*
X226060000Y-72842000D01*
X228430000Y-89650000D02*
X226308680Y-89650000D01*
D49*
X172347600Y-44196000D02*
X171800000Y-43648400D01*
D48*
X202150000Y-86550000D02*
X202150000Y-87448288D01*
D50*
X158425000Y-38925000D02*
X159000000Y-39500000D01*
D49*
X171901600Y-43750000D02*
X172347600Y-44196000D01*
D48*
X186225000Y-82062500D02*
X186225000Y-80525000D01*
D49*
X172347600Y-42811600D02*
X171707600Y-42171600D01*
X170129200Y-43750000D02*
X171901600Y-43750000D01*
D50*
X199160000Y-65790000D02*
X200500000Y-64450000D01*
D48*
X202825000Y-87799999D02*
X202087500Y-87799999D01*
X197350000Y-75975000D02*
X197100000Y-76225000D01*
X202087500Y-87799999D02*
X201650000Y-87362499D01*
D49*
X189788800Y-65101400D02*
X188750000Y-64062600D01*
D50*
X198049999Y-70870000D02*
X198600000Y-71420001D01*
D48*
X205525000Y-86562500D02*
X204500000Y-85537500D01*
D49*
X171707600Y-42171600D02*
X171707600Y-40900000D01*
X172347600Y-44196000D02*
X172347600Y-42811600D01*
D48*
X200601000Y-75975000D02*
X197350000Y-75975000D01*
X205525000Y-87000000D02*
X205525000Y-86562500D01*
X186225000Y-86287500D02*
X186225000Y-85475001D01*
X186225000Y-85475001D02*
X185899999Y-85150000D01*
D49*
X171800000Y-43648400D02*
X171800000Y-43000000D01*
D48*
X202692000Y-80772000D02*
X202150000Y-81314000D01*
X184075000Y-85150000D02*
X181800000Y-87425000D01*
X185899999Y-85150000D02*
X185225000Y-85150000D01*
X185725000Y-85389212D02*
X185485788Y-85150000D01*
D50*
X197050000Y-70870000D02*
X198049999Y-70870000D01*
D48*
X204500000Y-86125000D02*
X204500000Y-85537500D01*
D50*
X198600000Y-74725000D02*
X197100000Y-76225000D01*
D48*
X202501711Y-87799999D02*
X202825000Y-87799999D01*
D49*
X170129200Y-43750000D02*
X171707600Y-42171600D01*
D48*
X202150000Y-81314000D02*
X202150000Y-82325000D01*
X200660000Y-75916000D02*
X200601000Y-75975000D01*
X205525000Y-87000000D02*
X204725001Y-87799999D01*
X185725000Y-86287500D02*
X185725000Y-85389212D01*
D49*
X192050000Y-65790000D02*
X189864900Y-65790000D01*
D48*
X185485788Y-85150000D02*
X185225000Y-85150000D01*
X202150000Y-87448288D02*
X202501711Y-87799999D01*
X201650000Y-87362499D02*
X201650000Y-86550000D01*
X202825000Y-87799999D02*
X204500000Y-86125000D01*
X185225000Y-85150000D02*
X184075000Y-85150000D01*
D50*
X158425000Y-36595000D02*
X158425000Y-38925000D01*
D48*
X204725001Y-87799999D02*
X202825000Y-87799999D01*
D50*
X197050000Y-65790000D02*
X199160000Y-65790000D01*
D48*
X186225000Y-80525000D02*
X185925000Y-80225000D01*
D49*
X172347600Y-47489400D02*
X171704000Y-48133000D01*
D50*
X198600000Y-71420001D02*
X198600000Y-74725000D01*
D49*
X189788800Y-65866100D02*
X189788800Y-65101400D01*
X189864900Y-65790000D02*
X189788800Y-65866100D01*
X172347600Y-44196000D02*
X172347600Y-47489400D01*
D50*
X225044000Y-70906762D02*
X225044000Y-68344000D01*
X211400000Y-84185000D02*
X212600000Y-82985000D01*
X226710000Y-82565000D02*
X226710000Y-72572762D01*
X211400000Y-85650000D02*
X214650000Y-85650000D01*
X214650000Y-85650000D02*
X217000000Y-83300000D01*
X211400000Y-85650000D02*
X211400000Y-84185000D01*
X228430000Y-83300000D02*
X227445000Y-83300000D01*
X227445000Y-83300000D02*
X226710000Y-82565000D01*
X225044000Y-68344000D02*
X223700000Y-67000000D01*
X226710000Y-72572762D02*
X225044000Y-70906762D01*
X178275000Y-88750000D02*
X178275000Y-82880000D01*
X157575000Y-84450000D02*
X157550000Y-84425000D01*
X157550000Y-84425000D02*
X157550000Y-81900000D01*
X159350000Y-68732500D02*
X161072500Y-67010000D01*
X159500000Y-89650000D02*
X170930000Y-89650000D01*
X159350000Y-80100000D02*
X159350000Y-68732500D01*
X159500000Y-89650000D02*
X157575000Y-87725000D01*
X157575000Y-87725000D02*
X157575000Y-84450000D01*
X157550000Y-81900000D02*
X159350000Y-80100000D01*
X176425000Y-90600000D02*
X178275000Y-88750000D01*
X159500000Y-83300000D02*
X160175000Y-82625000D01*
X159500000Y-83300000D02*
X170930000Y-83300000D01*
X161072500Y-72226500D02*
X161072500Y-72090000D01*
X176425000Y-85600000D02*
X176425000Y-84035000D01*
X160175000Y-82625000D02*
X160175000Y-73124000D01*
X176425000Y-84035000D02*
X175225000Y-82835000D01*
X160175000Y-73124000D02*
X161072500Y-72226500D01*
X212304000Y-94361000D02*
X212304000Y-95718000D01*
X217043000Y-71374000D02*
X219131393Y-69285607D01*
X221107000Y-95885000D02*
X221107000Y-77978000D01*
X218694000Y-98298000D02*
X221107000Y-95885000D01*
X217043000Y-73914000D02*
X217043000Y-71374000D01*
X220288607Y-69285607D02*
X221160000Y-68414213D01*
X221160000Y-68414213D02*
X221160000Y-67000000D01*
X221107000Y-77978000D02*
X217043000Y-73914000D01*
X219131393Y-69285607D02*
X220288607Y-69285607D01*
X212304000Y-95718000D02*
X214884000Y-98298000D01*
X214884000Y-98298000D02*
X218694000Y-98298000D01*
X264600000Y-44600000D02*
X264600000Y-50520000D01*
X264600000Y-50520000D02*
X262920000Y-52200000D01*
X264600000Y-59100000D02*
X264600000Y-65270000D01*
X264600000Y-65270000D02*
X263120000Y-66750000D01*
X221160000Y-72080000D02*
X221160000Y-75110000D01*
X221757000Y-75707000D02*
X221757000Y-96154239D01*
X214137000Y-99568000D02*
X214757000Y-98948000D01*
X218963238Y-98948000D02*
X214757000Y-98948000D01*
X212177000Y-99568000D02*
X214137000Y-99568000D01*
X221757000Y-96154239D02*
X218963238Y-98948000D01*
X221160000Y-75110000D02*
X221757000Y-75707000D01*
X261200000Y-93230000D02*
X261200000Y-91500000D01*
X261200000Y-91500000D02*
X264600000Y-88100000D01*
X233260000Y-92180000D02*
X233260000Y-91745000D01*
X233260000Y-91745000D02*
X236599112Y-88405888D01*
X236599112Y-88405888D02*
X236599112Y-88100000D01*
X250600000Y-50770000D02*
X249220000Y-52150000D01*
X250600000Y-44600000D02*
X250600000Y-50770000D01*
D49*
X268466548Y-81300000D02*
X273280000Y-81300000D01*
X258355000Y-68400000D02*
X259027500Y-69072500D01*
X238755000Y-82125000D02*
X240795495Y-84165495D01*
X271630000Y-53650000D02*
X273080000Y-52200000D01*
X259380000Y-52150000D02*
X260950000Y-50580000D01*
X209098800Y-52787200D02*
X234856590Y-52787200D01*
X246430000Y-52150000D02*
X244630000Y-53950000D01*
X244630000Y-53950000D02*
X244350000Y-53950000D01*
X262773274Y-75606726D02*
X268466548Y-81300000D01*
X234920000Y-81225000D02*
X235820000Y-82125000D01*
X260880000Y-53650000D02*
X271630000Y-53650000D01*
X240795495Y-84165495D02*
X242894505Y-84165495D01*
D50*
X234055000Y-81225000D02*
X233260000Y-82020000D01*
D49*
X240780000Y-53950000D02*
X244350000Y-53950000D01*
X259027500Y-69072500D02*
X259905000Y-69950000D01*
X246355000Y-66725000D02*
X248030000Y-68400000D01*
X244350000Y-53950000D02*
X257580000Y-53950000D01*
X259380000Y-52150000D02*
X260880000Y-53650000D01*
X257420000Y-68400000D02*
X258355000Y-68400000D01*
X262773274Y-75606726D02*
X262773274Y-72818274D01*
X259905000Y-73810000D02*
X259905000Y-81400000D01*
X242894505Y-84165495D02*
X247100000Y-88370989D01*
X236019390Y-53950000D02*
X240780000Y-53950000D01*
X259905000Y-81400000D02*
X259905000Y-81775000D01*
X259905000Y-69950000D02*
X259905000Y-73810000D01*
X260950000Y-34040000D02*
X259100000Y-32190000D01*
X257420000Y-68400000D02*
X271630000Y-68400000D01*
X247100000Y-88370989D02*
X247100000Y-92410000D01*
X207645000Y-51333400D02*
X209098800Y-52787200D01*
X248030000Y-68400000D02*
X257420000Y-68400000D01*
X241746566Y-53950000D02*
X246355000Y-58558434D01*
X262773274Y-72818274D02*
X259027500Y-69072500D01*
X259905000Y-81775000D02*
X261200000Y-83070000D01*
X203809600Y-51562000D02*
X207416400Y-51562000D01*
D50*
X234920000Y-81225000D02*
X234055000Y-81225000D01*
D49*
X260950000Y-50580000D02*
X260950000Y-34040000D01*
X240670346Y-66725000D02*
X234920000Y-72475346D01*
X240780000Y-53950000D02*
X241746566Y-53950000D01*
X207416400Y-51562000D02*
X207645000Y-51333400D01*
X257580000Y-53950000D02*
X259380000Y-52150000D01*
X246355000Y-58558434D02*
X246355000Y-66725000D01*
X246355000Y-66725000D02*
X240670346Y-66725000D01*
X235820000Y-82125000D02*
X238755000Y-82125000D01*
X234920000Y-72475346D02*
X234920000Y-81225000D01*
X258355000Y-68400000D02*
X259805000Y-66950000D01*
X234856590Y-52787200D02*
X236019390Y-53950000D01*
X271630000Y-68400000D02*
X273280000Y-66750000D01*
D50*
X250600000Y-59100000D02*
X250600000Y-65995000D01*
X250600000Y-65995000D02*
X249645000Y-66950000D01*
X249745000Y-74455000D02*
X250600000Y-73600000D01*
X249745000Y-81400000D02*
X249745000Y-74455000D01*
X236600000Y-77908697D02*
X236600000Y-73566666D01*
X245080000Y-81225000D02*
X239916303Y-81225000D01*
X239916303Y-81225000D02*
X236600000Y-77908697D01*
X250599112Y-88100000D02*
X250599112Y-85749112D01*
X250599112Y-85749112D02*
X247100000Y-82250000D01*
X236600000Y-66320000D02*
X236195000Y-66725000D01*
X236600000Y-59033333D02*
X236600000Y-66320000D01*
D48*
X142293186Y-88043186D02*
X143793186Y-88043186D01*
X143750000Y-91250000D02*
X143750000Y-88086371D01*
X139250000Y-85000000D02*
X142293186Y-88043186D01*
X139250000Y-83000000D02*
X139250000Y-85000000D01*
X143793186Y-88043186D02*
X145000000Y-86836372D01*
X145000000Y-86836372D02*
X145000000Y-86500000D01*
X143750000Y-88086371D02*
X143793186Y-88043186D01*
X143730000Y-86500000D02*
X143730000Y-83560000D01*
X143730000Y-83560000D02*
X142500000Y-82330000D01*
D50*
X163612500Y-72090000D02*
X163612500Y-73224783D01*
X163612500Y-73224783D02*
X173050000Y-82662283D01*
X173050000Y-82662283D02*
X173050000Y-91950000D01*
X173050000Y-91950000D02*
X175641000Y-94541000D01*
X175641000Y-94541000D02*
X175641000Y-95758000D01*
X165072000Y-69497000D02*
X166359500Y-69497000D01*
X173750000Y-82372333D02*
X173750000Y-91454000D01*
X163612500Y-68037500D02*
X165072000Y-69497000D01*
X163612500Y-67010000D02*
X163612500Y-68037500D01*
X176950000Y-94654000D02*
X176950000Y-99250000D01*
X173750000Y-91454000D02*
X176950000Y-94654000D01*
X168225000Y-76847333D02*
X173750000Y-82372333D01*
X168225000Y-71362500D02*
X168225000Y-76847333D01*
X166359500Y-69497000D02*
X168225000Y-71362500D01*
X176950000Y-99250000D02*
X175700000Y-100500000D01*
X155660000Y-80575000D02*
X155660000Y-79000000D01*
X153150000Y-88960000D02*
X153150000Y-83085000D01*
X153150000Y-83085000D02*
X155660000Y-80575000D01*
X150175000Y-90025000D02*
X152085000Y-90025000D01*
X148875000Y-88725000D02*
X150175000Y-90025000D01*
X152085000Y-90025000D02*
X153150000Y-88960000D01*
X244875000Y-36200000D02*
X244850000Y-36175000D01*
X234100000Y-37975000D02*
X229995000Y-42080000D01*
X244850000Y-32840000D02*
X244835000Y-32825000D01*
X229995000Y-42080000D02*
X229995000Y-42180000D01*
X244875000Y-36200000D02*
X243100000Y-37975000D01*
X244850000Y-36175000D02*
X244850000Y-32840000D01*
X243100000Y-37975000D02*
X234100000Y-37975000D01*
X214700000Y-40350000D02*
X211350000Y-37000000D01*
X214700000Y-42800000D02*
X214700000Y-40350000D01*
D48*
X142500000Y-72170000D02*
X142500000Y-74690000D01*
D50*
X139525000Y-78015000D02*
X139350000Y-77840000D01*
X139525000Y-80230000D02*
X139525000Y-78015000D01*
D48*
X142500000Y-72170000D02*
X142500000Y-70250000D01*
X142500000Y-70250000D02*
X142000000Y-69750000D01*
X142500000Y-74690000D02*
X139350000Y-77840000D01*
D50*
X211350000Y-42131370D02*
X211350000Y-41000000D01*
X213268630Y-44050000D02*
X211350000Y-42131370D01*
X218750000Y-42800000D02*
X217500000Y-44050000D01*
X217500000Y-44050000D02*
X213268630Y-44050000D01*
X202800000Y-42710000D02*
X197090000Y-37000000D01*
X197090000Y-37000000D02*
X196350000Y-37000000D01*
X199600000Y-42730000D02*
X198080000Y-42730000D01*
X198080000Y-42730000D02*
X196350000Y-41000000D01*
X210827767Y-32640000D02*
X209667767Y-33800000D01*
X221645000Y-40945000D02*
X217551000Y-36851000D01*
X231275000Y-39640000D02*
X234715000Y-36200000D01*
X217551000Y-36851000D02*
X217551000Y-35433000D01*
X214700000Y-32640000D02*
X210827767Y-32640000D01*
X229995000Y-39640000D02*
X228690000Y-40945000D01*
X229995000Y-39640000D02*
X231275000Y-39640000D01*
X228690000Y-40945000D02*
X221645000Y-40945000D01*
X204050000Y-33800000D02*
X202800000Y-32550000D01*
X209667767Y-33800000D02*
X204050000Y-33800000D01*
X212600000Y-72825000D02*
X212600000Y-70310000D01*
X215810000Y-67000000D02*
X212550000Y-70260000D01*
X218620000Y-67000000D02*
X215810000Y-67000000D01*
X212600000Y-70310000D02*
X212550000Y-70260000D01*
X212550000Y-62100000D02*
X212550000Y-60100000D01*
X209300000Y-72820000D02*
X210950000Y-71170000D01*
X210950000Y-71170000D02*
X210950000Y-63700000D01*
X210950000Y-63700000D02*
X212550000Y-62100000D01*
X204612000Y-98918000D02*
X201310000Y-98918000D01*
X201310000Y-98918000D02*
X199908000Y-100320000D01*
X207304000Y-96226000D02*
X204612000Y-98918000D01*
X199908000Y-100320000D02*
X198800000Y-100320000D01*
X207304000Y-94361000D02*
X207304000Y-96226000D01*
D48*
X198800000Y-90160000D02*
X200650000Y-88310000D01*
X200650000Y-88310000D02*
X200650000Y-86550000D01*
D50*
X203392000Y-99568000D02*
X207177000Y-99568000D01*
X202600000Y-100360000D02*
X203392000Y-99568000D01*
D48*
X201150000Y-88750000D02*
X202600000Y-90200000D01*
X201150000Y-86550000D02*
X201150000Y-88750000D01*
D50*
X171975000Y-74295000D02*
X173595000Y-72675000D01*
X173595000Y-72675000D02*
X175225000Y-72675000D01*
X172125000Y-64285000D02*
X171975000Y-64135000D01*
X166152500Y-67010000D02*
X169165000Y-67010000D01*
X178275000Y-72720000D02*
X172125000Y-66570000D01*
X172125000Y-66570000D02*
X172125000Y-64285000D01*
X169165000Y-67010000D02*
X171975000Y-64200000D01*
X171975000Y-64200000D02*
X171975000Y-64135000D01*
X180641000Y-95758000D02*
X182499000Y-97616000D01*
X183385000Y-100200000D02*
X185100000Y-100200000D01*
X182499000Y-97616000D02*
X182499000Y-99314000D01*
X182499000Y-99314000D02*
X183385000Y-100200000D01*
D48*
X185725000Y-89415000D02*
X185725000Y-88500000D01*
X185100000Y-90040000D02*
X185725000Y-89415000D01*
X184725000Y-87500000D02*
X184725000Y-86287500D01*
X185725000Y-88500000D02*
X184725000Y-87500000D01*
D50*
X180700000Y-100500000D02*
X181650000Y-101450000D01*
X181650000Y-101450000D02*
X187950000Y-101450000D01*
X187950000Y-101450000D02*
X189200000Y-100200000D01*
D48*
X185225000Y-87185788D02*
X188079212Y-90040000D01*
X188079212Y-90040000D02*
X189200000Y-90040000D01*
X185225000Y-86287500D02*
X185225000Y-87185788D01*
D50*
X177174065Y-54568249D02*
X178024065Y-54568249D01*
D49*
X186800000Y-57400000D02*
X185600000Y-58600000D01*
X150165198Y-54569712D02*
X151015198Y-54569712D01*
D50*
X181174065Y-57368249D02*
X181174065Y-56868249D01*
D49*
X182983800Y-58600000D02*
X180352049Y-55968249D01*
D50*
X154165198Y-56869712D02*
X154165198Y-57369712D01*
D49*
X186800000Y-52640000D02*
X186800000Y-57400000D01*
D50*
X157029800Y-59734314D02*
X160400000Y-59734314D01*
X181174065Y-56868249D02*
X180324065Y-56868249D01*
X154165198Y-57369712D02*
X150165198Y-61369712D01*
X177174065Y-61368249D02*
X181174065Y-57368249D01*
X168600000Y-59800000D02*
X168534314Y-59734314D01*
D49*
X180352049Y-55968249D02*
X179424065Y-55968249D01*
D50*
X168534314Y-59734314D02*
X160400000Y-59734314D01*
D49*
X187800000Y-51640000D02*
X186800000Y-52640000D01*
D50*
X160400000Y-59734314D02*
X161934314Y-59734314D01*
D49*
X187800000Y-51440000D02*
X187800000Y-51640000D01*
D50*
X180324065Y-56868249D02*
X179424065Y-55968249D01*
X178024065Y-54568249D02*
X179424065Y-55968249D01*
X154165198Y-56869712D02*
X157029800Y-59734314D01*
D49*
X185600000Y-58600000D02*
X184000000Y-58600000D01*
X151015198Y-54569712D02*
X152415198Y-55969712D01*
X184000000Y-58600000D02*
X182983800Y-58600000D01*
D48*
X209931000Y-70169000D02*
X205250000Y-74850000D01*
X212104720Y-59025000D02*
X211475000Y-59654720D01*
X211475000Y-59654720D02*
X211475000Y-61829000D01*
X205250000Y-79725000D02*
X202650000Y-82325000D01*
X231240000Y-63425000D02*
X232600000Y-64785000D01*
X225168808Y-63206427D02*
X225387381Y-63425000D01*
X214900000Y-64125000D02*
X214900000Y-60475000D01*
X209931000Y-63373000D02*
X209931000Y-70169000D01*
X216075000Y-65300000D02*
X214900000Y-64125000D01*
X205250000Y-74850000D02*
X205250000Y-79725000D01*
X214900000Y-60475000D02*
X213450000Y-59025000D01*
X211475000Y-61829000D02*
X209931000Y-63373000D01*
X225387381Y-63425000D02*
X231240000Y-63425000D01*
X213450000Y-59025000D02*
X212104720Y-59025000D01*
X220950000Y-59500000D02*
X220950000Y-58082594D01*
X232600000Y-54625000D02*
X232550000Y-54675000D01*
X232550000Y-54675000D02*
X229485000Y-54675000D01*
X224782594Y-54250000D02*
X229060000Y-54250000D01*
X220950000Y-58082594D02*
X224782594Y-54250000D01*
X229485000Y-54675000D02*
X229450000Y-54640000D01*
X229060000Y-54250000D02*
X229450000Y-54640000D01*
D50*
X174000000Y-53400000D02*
X182600000Y-53400000D01*
X184000000Y-52000000D02*
X184000000Y-51400000D01*
X162000000Y-50000000D02*
X165400000Y-53400000D01*
X156425000Y-50275000D02*
X156700000Y-50000000D01*
D49*
X189898200Y-49733200D02*
X185666800Y-49733200D01*
D50*
X182600000Y-53400000D02*
X184000000Y-52000000D01*
D49*
X185666800Y-49733200D02*
X184000000Y-51400000D01*
X191600000Y-51435000D02*
X189898200Y-49733200D01*
D50*
X156700000Y-50000000D02*
X162000000Y-50000000D01*
D48*
X178292157Y-71492157D02*
X179307843Y-71492157D01*
X160736769Y-62500000D02*
X159942564Y-63294205D01*
X158550000Y-64700000D02*
X153580000Y-64700000D01*
X163617564Y-63780906D02*
X162336658Y-62500000D01*
X159942564Y-63294205D02*
X159942564Y-63307436D01*
X171916186Y-62555906D02*
X173200000Y-63839720D01*
X163617564Y-63780906D02*
X164842564Y-62555906D01*
X180225000Y-72409314D02*
X180225000Y-77325000D01*
X186725000Y-82062500D02*
X186725000Y-79900000D01*
X159942564Y-63307436D02*
X158550000Y-64700000D01*
X179307843Y-71492157D02*
X180225000Y-72409314D01*
X186725000Y-79900000D02*
X184550000Y-77725000D01*
X162336658Y-62500000D02*
X160736769Y-62500000D01*
X184550000Y-77725000D02*
X183425000Y-77725000D01*
X164842564Y-62555906D02*
X171916186Y-62555906D01*
X173200000Y-66400000D02*
X178292157Y-71492157D01*
X153580000Y-64700000D02*
X152250000Y-66030000D01*
X173200000Y-63839720D02*
X173200000Y-66400000D01*
D50*
X191050001Y-64520000D02*
X188130001Y-61600000D01*
X188130001Y-61600000D02*
X187800000Y-61600000D01*
X192050000Y-64520000D02*
X191050001Y-64520000D01*
X215900000Y-59690000D02*
X217154043Y-59690000D01*
X214310000Y-58100000D02*
X215900000Y-59690000D01*
X195150000Y-78175000D02*
X196850000Y-79875000D01*
X195150000Y-73040001D02*
X195150000Y-78175000D01*
X196050001Y-72140000D02*
X195150000Y-73040001D01*
X221107000Y-43368000D02*
X222295000Y-42180000D01*
X205613000Y-72136000D02*
X209006000Y-68743000D01*
X197050000Y-72140000D02*
X195330000Y-72140000D01*
X197050000Y-72140000D02*
X196050001Y-72140000D01*
X196850000Y-79875000D02*
X196850000Y-81475000D01*
X222295000Y-42180000D02*
X222375000Y-42180000D01*
X217154043Y-59690000D02*
X221234000Y-55610043D01*
X211721573Y-58100000D02*
X214310000Y-58100000D01*
X210550000Y-60849000D02*
X210550000Y-59271572D01*
X200914000Y-72898000D02*
X201676000Y-72136000D01*
X209006000Y-62393000D02*
X210550000Y-60849000D01*
X195330000Y-72140000D02*
X195072000Y-71882000D01*
X201676000Y-72136000D02*
X205613000Y-72136000D01*
X221234000Y-55610043D02*
X221234000Y-53975000D01*
X210550000Y-59271572D02*
X211721573Y-58100000D01*
X209006000Y-68743000D02*
X209006000Y-62393000D01*
X221107000Y-45720000D02*
X221107000Y-43368000D01*
X191600000Y-62288026D02*
X191600000Y-61595000D01*
X193751200Y-64439226D02*
X191600000Y-62288026D01*
X193049999Y-67060000D02*
X193751200Y-66358799D01*
X193751200Y-66358799D02*
X193751200Y-64439226D01*
X192050000Y-67060000D02*
X193049999Y-67060000D01*
X195650000Y-66659999D02*
X195650000Y-65348000D01*
X197050000Y-67060000D02*
X196050001Y-67060000D01*
X198066026Y-61722000D02*
X195650000Y-64138026D01*
X199694800Y-61722000D02*
X198066026Y-61722000D01*
X195650000Y-64138026D02*
X195650000Y-65348000D01*
X196050001Y-67060000D02*
X195650000Y-66659999D01*
X195650000Y-65348000D02*
X195681600Y-65379600D01*
X203504800Y-62941200D02*
X203809600Y-62636400D01*
X197050000Y-64520000D02*
X198732943Y-64520000D01*
X198732943Y-64520000D02*
X200311743Y-62941200D01*
X203809600Y-62636400D02*
X203809600Y-61722000D01*
X200311743Y-62941200D02*
X203504800Y-62941200D01*
D48*
X192120004Y-88720004D02*
X192120004Y-89159163D01*
X189214212Y-86450000D02*
X189850000Y-86450000D01*
X185725000Y-82960788D02*
X189214212Y-86450000D01*
X189850000Y-86450000D02*
X192120004Y-88720004D01*
X185725000Y-82062500D02*
X185725000Y-82960788D01*
D50*
X147915198Y-55969712D02*
X147915198Y-51915198D01*
X169000000Y-60800000D02*
X159400000Y-60800000D01*
X147915198Y-51915198D02*
X146200000Y-50200000D01*
X169600000Y-59200000D02*
X169600000Y-60200000D01*
X159400000Y-60800000D02*
X157200000Y-63000000D01*
X169600000Y-60200000D02*
X169000000Y-60800000D01*
X146665198Y-61211743D02*
X146665198Y-56869712D01*
X148453455Y-63000000D02*
X146665198Y-61211743D01*
X157200000Y-63000000D02*
X148453455Y-63000000D01*
D48*
X151349860Y-66650140D02*
X151949720Y-67250000D01*
X151949720Y-67250000D02*
X153990000Y-67250000D01*
X158371083Y-64300000D02*
X152450000Y-64300000D01*
X159347702Y-62947702D02*
X159347702Y-63323381D01*
X152250000Y-76190000D02*
X152250000Y-67550280D01*
X151175000Y-65575000D02*
X151175000Y-66475280D01*
X151175000Y-66475280D02*
X151349860Y-66650140D01*
X152250000Y-67550280D02*
X151349860Y-66650140D01*
X152450000Y-64300000D02*
X151175000Y-65575000D01*
X153990000Y-67250000D02*
X155250000Y-65990000D01*
X159347702Y-63323381D02*
X158371083Y-64300000D01*
X229300000Y-64950000D02*
X229450000Y-64800000D01*
X206879963Y-81870037D02*
X211475000Y-77275000D01*
X217200000Y-66000000D02*
X218250000Y-64950000D01*
X205595037Y-83604963D02*
X205645037Y-83604963D01*
X211475000Y-69814720D02*
X215289720Y-66000000D01*
X218250000Y-64950000D02*
X229300000Y-64950000D01*
X215289720Y-66000000D02*
X217200000Y-66000000D01*
X202650000Y-86550000D02*
X205595037Y-83604963D01*
X211475000Y-77275000D02*
X211475000Y-69814720D01*
X156775000Y-74625000D02*
X156775000Y-68950000D01*
X185790595Y-84404200D02*
X186725000Y-85338605D01*
X179855000Y-81805000D02*
X180006129Y-81956129D01*
X186725000Y-85338605D02*
X186725000Y-86287500D01*
X156775000Y-68950000D02*
X160040000Y-65685000D01*
X170900000Y-70310000D02*
X170900000Y-74740280D01*
X168400000Y-67810000D02*
X170900000Y-70310000D01*
X182702200Y-84404200D02*
X185790595Y-84404200D01*
X170900000Y-74740280D02*
X177964720Y-81805000D01*
X166400000Y-65685000D02*
X167475000Y-65685000D01*
X177964720Y-81805000D02*
X179855000Y-81805000D01*
X155250000Y-76150000D02*
X156775000Y-74625000D01*
X167475000Y-65685000D02*
X168000000Y-66210000D01*
X160040000Y-65685000D02*
X166400000Y-65685000D01*
D50*
X196582233Y-77475000D02*
X195850000Y-76742767D01*
X200660000Y-77216000D02*
X200401000Y-77475000D01*
X195850000Y-76742767D02*
X195850000Y-74610000D01*
X195850000Y-74610000D02*
X197050000Y-73410000D01*
X200401000Y-77475000D02*
X196582233Y-77475000D01*
D48*
X138000000Y-82519600D02*
X138000000Y-86770000D01*
X138000000Y-86770000D02*
X142480000Y-91250000D01*
X145500000Y-82500000D02*
X144255000Y-81255000D01*
X144255000Y-81255000D02*
X139264600Y-81255000D01*
X139264600Y-81255000D02*
X138000000Y-82519600D01*
D50*
X189850000Y-81450000D02*
X193500000Y-77800000D01*
X193500000Y-77800000D02*
X193500000Y-72725000D01*
X192915000Y-72140000D02*
X192050000Y-72140000D01*
X193500000Y-72725000D02*
X192915000Y-72140000D01*
D48*
X142875000Y-41275000D02*
X145025000Y-39125000D01*
X164025000Y-37608884D02*
X164025000Y-37575000D01*
X167001016Y-34675000D02*
X167850000Y-35523984D01*
X139700000Y-42799000D02*
X141020009Y-42799000D01*
X167850000Y-35523984D02*
X167850000Y-37666016D01*
X165925000Y-34675000D02*
X167001016Y-34675000D01*
X167850000Y-37666016D02*
X167289016Y-38227000D01*
X161450000Y-31375000D02*
X162650000Y-32575000D01*
X145025000Y-32851200D02*
X146501200Y-31375000D01*
X164643116Y-38227000D02*
X164025000Y-37608884D01*
X142544008Y-41275000D02*
X142875000Y-41275000D01*
X162650000Y-32575000D02*
X163825000Y-32575000D01*
X146501200Y-31375000D02*
X161450000Y-31375000D01*
X167289016Y-38227000D02*
X164643116Y-38227000D01*
X141020009Y-42799000D02*
X142544008Y-41275000D01*
X163825000Y-32575000D02*
X165925000Y-34675000D01*
X145025000Y-39125000D02*
X145025000Y-32851200D01*
X143002000Y-42799000D02*
X143002000Y-41675000D01*
X145475000Y-33036200D02*
X146686200Y-31825000D01*
X161475000Y-34768984D02*
X161475000Y-36225000D01*
X158531016Y-31825000D02*
X161475000Y-34768984D01*
X143040686Y-41675000D02*
X145475000Y-39240686D01*
X143002000Y-41675000D02*
X143040686Y-41675000D01*
X146686200Y-31825000D02*
X158531016Y-31825000D01*
X145475000Y-39240686D02*
X145475000Y-33036200D01*
D50*
X222120000Y-32640000D02*
X218750000Y-32640000D01*
X222800000Y-36675000D02*
X222375000Y-37100000D01*
X234675000Y-34200000D02*
X234675000Y-32825000D01*
X222800000Y-33320000D02*
X222120000Y-32640000D01*
X223680000Y-38405000D02*
X230812057Y-38405000D01*
X218750000Y-32640000D02*
X216015000Y-35375000D01*
X222800000Y-34075000D02*
X222800000Y-33320000D01*
X222375000Y-37100000D02*
X223680000Y-38405000D01*
X231570000Y-37647057D02*
X231570000Y-37305000D01*
X222800000Y-34075000D02*
X222800000Y-36675000D01*
X230812057Y-38405000D02*
X231570000Y-37647057D01*
X231570000Y-37305000D02*
X234675000Y-34200000D01*
X202405000Y-35375000D02*
X199600000Y-32570000D01*
X216015000Y-35375000D02*
X202405000Y-35375000D01*
X222140000Y-39640000D02*
X220800000Y-38300000D01*
X222375000Y-39640000D02*
X222140000Y-39640000D01*
X220800000Y-34775000D02*
X221500000Y-34075000D01*
X220800000Y-38300000D02*
X220800000Y-34775000D01*
D49*
X144452000Y-53559610D02*
X144452000Y-52358390D01*
X144452000Y-52358390D02*
X143600000Y-51506390D01*
X143600000Y-51506390D02*
X143600000Y-45604600D01*
X139850000Y-57150000D02*
X142591000Y-54409000D01*
X139850000Y-60250000D02*
X139850000Y-57150000D01*
X143602610Y-54409000D02*
X144452000Y-53559610D01*
X142591000Y-54409000D02*
X143602610Y-54409000D01*
X146761200Y-42443400D02*
X147599400Y-42443400D01*
X143600000Y-45604600D02*
X146761200Y-42443400D01*
X181510232Y-69400000D02*
X183388000Y-69400000D01*
X199124200Y-68330000D02*
X199313800Y-68140400D01*
D48*
X175625000Y-43750000D02*
X176400000Y-42975000D01*
D49*
X187750000Y-41500000D02*
X187500000Y-41500000D01*
D48*
X151000000Y-74602000D02*
X151000000Y-68648000D01*
X170200000Y-47800000D02*
X170200000Y-48149280D01*
X170232295Y-35765686D02*
X171834314Y-35765686D01*
D51*
X176704000Y-48133000D02*
X176704000Y-44839600D01*
D49*
X209550000Y-57658000D02*
X209550000Y-54356000D01*
D48*
X157800000Y-47200000D02*
X169600000Y-47200000D01*
X200660000Y-78516000D02*
X201415000Y-78516000D01*
D49*
X188337331Y-36837331D02*
X185837331Y-36837331D01*
D48*
X149352000Y-67000000D02*
X149352000Y-66602000D01*
D49*
X188637400Y-68950000D02*
X183838000Y-68950000D01*
D51*
X179000000Y-38384000D02*
X179752000Y-37632000D01*
D49*
X188750000Y-42500000D02*
X187750000Y-41500000D01*
D48*
X145877656Y-48200000D02*
X156800000Y-48200000D01*
D49*
X200500000Y-69326600D02*
X199313800Y-68140400D01*
X186817000Y-35857662D02*
X185837331Y-36837331D01*
X206298800Y-63724590D02*
X206298800Y-60909200D01*
X190500000Y-44123690D02*
X190500000Y-42250000D01*
X189750000Y-41500000D02*
X187500000Y-41500000D01*
D51*
X179000000Y-40400000D02*
X179000000Y-38384000D01*
D49*
X171817564Y-59707332D02*
X181510232Y-69400000D01*
X181500000Y-44750000D02*
X178117000Y-48133000D01*
D48*
X170200000Y-48149280D02*
X171425720Y-49375000D01*
X201415000Y-78516000D02*
X201750000Y-78181000D01*
D49*
X202971400Y-68808600D02*
X205765400Y-68808600D01*
X192050000Y-68330000D02*
X189482600Y-68330000D01*
D48*
X142748000Y-57017686D02*
X145828000Y-53937685D01*
D49*
X176667000Y-48133000D02*
X171817564Y-52982436D01*
D48*
X169600000Y-47200000D02*
X170200000Y-47800000D01*
D49*
X178117000Y-48133000D02*
X176704000Y-48133000D01*
D48*
X176400000Y-42975000D02*
X176400000Y-37012613D01*
D51*
X176071000Y-44196000D02*
X175625000Y-43750000D01*
D48*
X156800000Y-48200000D02*
X157800000Y-47200000D01*
D49*
X185837331Y-36837331D02*
X185837331Y-37544439D01*
X190500000Y-42250000D02*
X189750000Y-41500000D01*
X181500000Y-41881770D02*
X181500000Y-44750000D01*
X205765400Y-68808600D02*
X204315400Y-67358600D01*
X176704000Y-48133000D02*
X176667000Y-48133000D01*
D48*
X199839000Y-73404685D02*
X199839000Y-70111000D01*
X149352000Y-66602000D02*
X146300000Y-63550000D01*
X151000000Y-68648000D02*
X149352000Y-67000000D01*
D49*
X186517620Y-41500000D02*
X185250000Y-40232380D01*
X206298800Y-60909200D02*
X209550000Y-57658000D01*
X188750000Y-69062600D02*
X188637400Y-68950000D01*
X204315400Y-65707990D02*
X206298800Y-63724590D01*
D48*
X149352000Y-76250000D02*
X151000000Y-74602000D01*
D49*
X183149390Y-40232380D02*
X181500000Y-41881770D01*
D48*
X169432600Y-38800000D02*
X169432600Y-36565381D01*
X174131372Y-35800000D02*
X173965686Y-35634314D01*
X145828000Y-53937685D02*
X145828000Y-52072688D01*
X144261878Y-63550000D02*
X142748000Y-62036122D01*
D49*
X197050000Y-68330000D02*
X199124200Y-68330000D01*
D48*
X201750000Y-75315686D02*
X199839000Y-73404685D01*
D49*
X200500000Y-69450000D02*
X200500000Y-69326600D01*
D48*
X175462000Y-49375000D02*
X176704000Y-48133000D01*
X179000000Y-40400000D02*
X179000000Y-39612613D01*
X169432600Y-36565381D02*
X170232295Y-35765686D01*
D49*
X185837331Y-37544439D02*
X183149390Y-40232380D01*
X192375711Y-45999400D02*
X190500000Y-44123690D01*
X209042000Y-45999400D02*
X192375711Y-45999400D01*
X200500000Y-69450000D02*
X202330000Y-69450000D01*
D48*
X151415000Y-88725000D02*
X149352000Y-86662000D01*
D49*
X186817000Y-32385000D02*
X186817000Y-35857662D01*
D48*
X142748000Y-62036122D02*
X142748000Y-57017686D01*
X175187387Y-35800000D02*
X174131372Y-35800000D01*
X171425720Y-49375000D02*
X175462000Y-49375000D01*
D49*
X187500000Y-41500000D02*
X186517620Y-41500000D01*
X171817564Y-52982436D02*
X171817564Y-59707332D01*
D48*
X149352000Y-86662000D02*
X149352000Y-76250000D01*
D51*
X176704000Y-44839600D02*
X177347600Y-44196000D01*
D48*
X145828000Y-52072688D02*
X145077656Y-51322344D01*
D51*
X177347600Y-44196000D02*
X176071000Y-44196000D01*
D49*
X204315400Y-67358600D02*
X204315400Y-65707990D01*
X188750000Y-37250000D02*
X188337331Y-36837331D01*
D48*
X145077656Y-49000000D02*
X145877656Y-48200000D01*
D49*
X189482600Y-68330000D02*
X188750000Y-69062600D01*
D51*
X179752000Y-37632000D02*
X179752000Y-37592000D01*
D48*
X146300000Y-63550000D02*
X144261878Y-63550000D01*
D49*
X185250000Y-40232380D02*
X183149390Y-40232380D01*
D48*
X176400000Y-37012613D02*
X175187387Y-35800000D01*
X201750000Y-78181000D02*
X201750000Y-75315686D01*
X199839000Y-70111000D02*
X200500000Y-69450000D01*
D51*
X175650000Y-43750000D02*
X179000000Y-40400000D01*
D48*
X145077656Y-51322344D02*
X145077656Y-49000000D01*
D49*
X183838000Y-68950000D02*
X183388000Y-69400000D01*
X202330000Y-69450000D02*
X202971400Y-68808600D01*
D51*
X175625000Y-43750000D02*
X175650000Y-43750000D01*
D49*
X182050000Y-72500000D02*
X187750000Y-72500000D01*
D48*
X211800000Y-46446000D02*
X209159000Y-43805000D01*
X211800000Y-48750000D02*
X211800000Y-46446000D01*
X200650000Y-82325000D02*
X200650000Y-83218261D01*
D49*
X188750000Y-43800000D02*
X188367620Y-44182380D01*
X188367620Y-44182380D02*
X186772380Y-44182380D01*
X170667564Y-60098550D02*
X170667564Y-51982436D01*
X181800000Y-82425000D02*
X181800000Y-71316114D01*
X181762400Y-91694000D02*
X203156610Y-91694000D01*
X170667564Y-51982436D02*
X172200000Y-50450000D01*
X186772380Y-44182380D02*
X188750000Y-46160000D01*
X184037500Y-82425000D02*
X184400000Y-82062500D01*
X181800000Y-82425000D02*
X179946000Y-84279000D01*
D48*
X193025000Y-36053000D02*
X189357000Y-32385000D01*
D49*
X181800000Y-82425000D02*
X184037500Y-82425000D01*
D48*
X201244239Y-83812500D02*
X203712500Y-83812500D01*
D49*
X170625000Y-60141114D02*
X170667564Y-60098550D01*
X179946000Y-89877600D02*
X181762400Y-91694000D01*
X188750000Y-46160000D02*
X188750000Y-47410000D01*
D48*
X193025000Y-43525000D02*
X193025000Y-36053000D01*
D49*
X207010000Y-87840610D02*
X207010000Y-83485000D01*
X203156610Y-91694000D02*
X207010000Y-87840610D01*
X183750000Y-44182380D02*
X186772380Y-44182380D01*
D50*
X178433500Y-67765073D02*
X178433500Y-67816500D01*
X192050000Y-70870000D02*
X189128200Y-70870000D01*
D48*
X200650000Y-83218261D02*
X201244239Y-83812500D01*
X209159000Y-43805000D02*
X194195000Y-43805000D01*
D49*
X181800000Y-71316114D02*
X170625000Y-60141114D01*
X187750000Y-72500000D02*
X188722000Y-71528000D01*
D48*
X193750000Y-44250000D02*
X193025000Y-43525000D01*
D50*
X189128200Y-70870000D02*
X188722000Y-71276200D01*
D49*
X188722000Y-71528000D02*
X188722000Y-71276200D01*
D51*
X181825000Y-82400000D02*
X181800000Y-82425000D01*
D49*
X177009345Y-50058946D02*
X177873434Y-50058946D01*
X179946000Y-84279000D02*
X179946000Y-89877600D01*
X207010000Y-83485000D02*
X205525000Y-82000000D01*
X177873434Y-50058946D02*
X183750000Y-44182380D01*
D48*
X203712500Y-83812500D02*
X205525000Y-82000000D01*
X194195000Y-43805000D02*
X193750000Y-44250000D01*
D49*
X161080200Y-43330200D02*
X160925000Y-43175000D01*
D50*
X167500000Y-38750000D02*
X167500000Y-39000000D01*
D49*
X165129200Y-43750000D02*
X164709400Y-43330200D01*
D50*
X165129200Y-41370800D02*
X165129200Y-43750000D01*
X169750000Y-33250000D02*
X168375000Y-34625000D01*
D49*
X164709400Y-43330200D02*
X161080200Y-43330200D01*
D50*
X184277000Y-33635000D02*
X183877000Y-34035000D01*
X185427000Y-31235000D02*
X184277000Y-32385000D01*
X228550000Y-31300000D02*
X193632233Y-31300000D01*
D49*
X169432600Y-40700000D02*
X169398862Y-40700000D01*
X158191200Y-40690800D02*
X157012400Y-40690800D01*
X156560000Y-46090000D02*
X155800000Y-46090000D01*
X160925000Y-43175000D02*
X160675400Y-43175000D01*
D50*
X230650000Y-33400000D02*
X228550000Y-31300000D01*
X183877000Y-34035000D02*
X173035000Y-34035000D01*
D49*
X159475000Y-43175000D02*
X156560000Y-46090000D01*
D50*
X167500000Y-39000000D02*
X165129200Y-41370800D01*
X230650000Y-33400000D02*
X230650000Y-36445000D01*
X193567233Y-31235000D02*
X185427000Y-31235000D01*
D49*
X165780338Y-43098862D02*
X165129200Y-43750000D01*
D50*
X168375000Y-37883478D02*
X167508478Y-38750000D01*
X173035000Y-34035000D02*
X172250000Y-33250000D01*
X193632233Y-31300000D02*
X193567233Y-31235000D01*
D49*
X167000000Y-43098862D02*
X165780338Y-43098862D01*
D50*
X184277000Y-32385000D02*
X184277000Y-33635000D01*
D49*
X169432600Y-40700000D02*
X169432600Y-39750000D01*
D50*
X168375000Y-34625000D02*
X168375000Y-37883478D01*
X167508478Y-38750000D02*
X167500000Y-38750000D01*
X230650000Y-36445000D02*
X229995000Y-37100000D01*
D49*
X160675400Y-43175000D02*
X158191200Y-40690800D01*
X169398862Y-40700000D02*
X167000000Y-43098862D01*
X160925000Y-43175000D02*
X159475000Y-43175000D01*
X171707600Y-39750000D02*
X172594000Y-39750000D01*
X172594000Y-39750000D02*
X174752000Y-37592000D01*
D50*
X170641261Y-33441261D02*
X174752000Y-37552000D01*
X174752000Y-37552000D02*
X174752000Y-37592000D01*
X170641261Y-31877000D02*
X170641261Y-33441261D01*
X171707600Y-38800000D02*
X171707600Y-37943339D01*
X171707600Y-37943339D02*
X170641261Y-36877000D01*
D48*
X198069200Y-82550000D02*
X198309600Y-82309600D01*
X200239000Y-73239000D02*
X200239000Y-72557000D01*
X201803000Y-70993000D02*
X205740000Y-70993000D01*
X198309600Y-82206452D02*
X200766052Y-79750000D01*
X188775000Y-82095000D02*
X189230000Y-82550000D01*
X202750000Y-79000000D02*
X202750000Y-75750000D01*
X188775000Y-79550000D02*
X188775000Y-82095000D01*
X215265000Y-50038000D02*
X215265000Y-49403000D01*
X212554000Y-57575000D02*
X215265000Y-54864000D01*
X209931000Y-59148111D02*
X211504111Y-57575000D01*
X192050000Y-76175000D02*
X192100000Y-76225000D01*
X205740000Y-70993000D02*
X208280000Y-68453000D01*
X215265000Y-49403000D02*
X216251000Y-48417000D01*
X200239000Y-72557000D02*
X201803000Y-70993000D01*
X209931000Y-60706000D02*
X209931000Y-59148111D01*
X215265000Y-54864000D02*
X215265000Y-53975000D01*
X208280000Y-62357000D02*
X209931000Y-60706000D01*
X202750000Y-75750000D02*
X200239000Y-73239000D01*
X211504111Y-57575000D02*
X212554000Y-57575000D01*
X202000000Y-79750000D02*
X202750000Y-79000000D01*
X216251000Y-48417000D02*
X216251000Y-45847000D01*
X192050000Y-73410000D02*
X192050000Y-76175000D01*
X189230000Y-82550000D02*
X198069200Y-82550000D01*
X208280000Y-68453000D02*
X208280000Y-62357000D01*
X192100000Y-76225000D02*
X188775000Y-79550000D01*
X198309600Y-82309600D02*
X198309600Y-82206452D01*
X200766052Y-79750000D02*
X202000000Y-79750000D01*
X229263000Y-46482000D02*
X229517000Y-46736000D01*
X232925000Y-45219000D02*
X232426000Y-44720000D01*
X232426000Y-44720000D02*
X229995000Y-44720000D01*
X232925000Y-46200000D02*
X232925000Y-45219000D01*
X217581000Y-44817000D02*
X219249405Y-44817000D01*
X229517000Y-46736000D02*
X232389000Y-46736000D01*
X232389000Y-46736000D02*
X232925000Y-46200000D01*
X220914405Y-46482000D02*
X229263000Y-46482000D01*
X217551000Y-44847000D02*
X217581000Y-44817000D01*
X219249405Y-44817000D02*
X220914405Y-46482000D01*
X217551000Y-45847000D02*
X217551000Y-44847000D01*
X149620000Y-69750000D02*
X145700000Y-69750000D01*
X142250000Y-66300000D02*
X142250000Y-56950000D01*
D49*
X150139400Y-42443400D02*
X147599400Y-39903400D01*
D48*
X150210000Y-98300000D02*
X150210000Y-92460000D01*
X144725000Y-68775000D02*
X142950000Y-67000000D01*
X147250000Y-89500000D02*
X147250000Y-71300000D01*
X144600000Y-51410374D02*
X144600000Y-47982800D01*
X150210000Y-92460000D02*
X147250000Y-89500000D01*
X145227000Y-53973000D02*
X145227000Y-52037374D01*
X142950000Y-67000000D02*
X142250000Y-66300000D01*
X145227000Y-52037374D02*
X144600000Y-51410374D01*
X142250000Y-56950000D02*
X145227000Y-53973000D01*
X145700000Y-69750000D02*
X144725000Y-68775000D01*
X147250000Y-71300000D02*
X144725000Y-68775000D01*
X144600000Y-47982800D02*
X150139400Y-42443400D01*
X221960000Y-48750000D02*
X221754000Y-48750000D01*
X221754000Y-48750000D02*
X218851000Y-45847000D01*
X221978000Y-48768000D02*
X221960000Y-48750000D01*
X221960000Y-48750000D02*
X224150000Y-48750000D01*
D49*
X151589400Y-38453400D02*
X153475000Y-38453400D01*
X153475000Y-38453400D02*
X155712400Y-40690800D01*
X155712400Y-43462400D02*
X155800000Y-43550000D01*
X150139400Y-39903400D02*
X151589400Y-38453400D01*
X155712400Y-40690800D02*
X155712400Y-43462400D01*
D48*
X200279000Y-83845400D02*
X200200000Y-83766400D01*
X200200000Y-81447424D02*
X200409924Y-81237500D01*
X200890076Y-81237500D02*
X201150000Y-81497424D01*
X201150000Y-81497424D02*
X201150000Y-82325000D01*
X200409924Y-81237500D02*
X200890076Y-81237500D01*
X200200000Y-83766400D02*
X200200000Y-81447424D01*
X185225000Y-82062500D02*
X185225000Y-82890076D01*
X182412000Y-83729200D02*
X180721000Y-85420200D01*
X180721000Y-89167674D02*
X181666663Y-90113337D01*
X184385876Y-83729200D02*
X182412000Y-83729200D01*
X185225000Y-82890076D02*
X184385876Y-83729200D01*
X180721000Y-85420200D02*
X180721000Y-89167674D01*
X198348600Y-101549200D02*
X197725000Y-100925600D01*
X224434400Y-94513400D02*
X224434400Y-96037400D01*
X197725000Y-100925600D02*
X197725000Y-99874720D01*
X197725000Y-99874720D02*
X201917920Y-95681800D01*
X201917920Y-95681800D02*
X203047600Y-95681800D01*
X218922600Y-101549200D02*
X198348600Y-101549200D01*
X224434400Y-96037400D02*
X218922600Y-101549200D01*
X166700200Y-97332800D02*
X166522400Y-97510600D01*
X166522400Y-97510600D02*
X166522400Y-97967800D01*
X166522400Y-97967800D02*
X168100000Y-99300000D01*
X168100000Y-99300000D02*
X171150000Y-102350000D01*
X179120800Y-98629200D02*
X179120800Y-93548200D01*
X171150000Y-102350000D02*
X175400000Y-102350000D01*
X175400000Y-102350000D02*
X179120800Y-98629200D01*
X145020000Y-91250000D02*
X147670000Y-93900000D01*
X147670000Y-93900000D02*
X147670000Y-98300000D01*
X151550000Y-99500000D02*
X152750000Y-98300000D01*
X139250000Y-93160000D02*
X142724393Y-93160000D01*
X146520000Y-99500000D02*
X151550000Y-99500000D01*
X142724393Y-93160000D02*
X146250000Y-96685607D01*
X146250000Y-99230000D02*
X146520000Y-99500000D01*
X146250000Y-96685607D02*
X146250000Y-99230000D01*
M02*
