G04 #@! TF.GenerationSoftware,KiCad,Pcbnew,8.0.6*
G04 #@! TF.CreationDate,2025-01-21T23:06:27+01:00*
G04 #@! TF.ProjectId,spider2,73706964-6572-4322-9e6b-696361645f70,rev?*
G04 #@! TF.SameCoordinates,Original*
G04 #@! TF.FileFunction,Soldermask,Bot*
G04 #@! TF.FilePolarity,Negative*
%FSLAX46Y46*%
G04 Gerber Fmt 4.6, Leading zero omitted, Abs format (unit mm)*
G04 Created by KiCad (PCBNEW 8.0.6) date 2025-01-21 23:06:27*
%MOMM*%
%LPD*%
G01*
G04 APERTURE LIST*
%ADD10C,1.400000*%
%ADD11O,1.400000X1.400000*%
%ADD12C,1.600000*%
%ADD13O,1.600000X1.600000*%
%ADD14R,1.600000X1.600000*%
%ADD15R,2.500000X2.500000*%
%ADD16O,2.300000X1.500000*%
%ADD17O,1.703200X3.203200*%
%ADD18O,1.903200X3.203200*%
%ADD19O,1.500000X2.300000*%
%ADD20O,3.203200X2.203200*%
%ADD21C,0.800000*%
%ADD22C,6.400000*%
%ADD23C,3.000000*%
%ADD24C,2.000000*%
%ADD25O,1.100000X1.700000*%
%ADD26R,1.500000X1.500000*%
%ADD27C,1.500000*%
%ADD28C,4.000000*%
%ADD29C,1.800000*%
%ADD30R,1.700000X1.700000*%
%ADD31O,1.700000X1.700000*%
%ADD32R,1.800000X1.800000*%
%ADD33R,4.000000X4.000000*%
G04 APERTURE END LIST*
D10*
X225940000Y-73240000D03*
D11*
X225940000Y-68160000D03*
D12*
X147799400Y-33323400D03*
X152879400Y-33323400D03*
G36*
G01*
X147399400Y-40143400D02*
X148199400Y-40143400D01*
G75*
G02*
X148599400Y-40543400I0J-400000D01*
G01*
X148599400Y-41343400D01*
G75*
G02*
X148199400Y-41743400I-400000J0D01*
G01*
X147399400Y-41743400D01*
G75*
G02*
X146999400Y-41343400I0J400000D01*
G01*
X146999400Y-40543400D01*
G75*
G02*
X147399400Y-40143400I400000J0D01*
G01*
G37*
X150339400Y-40943400D03*
X152879400Y-40943400D03*
X147799400Y-38403400D03*
X150339400Y-38403400D03*
X152879400Y-38403400D03*
X262920000Y-52200000D03*
D13*
X273080000Y-52200000D03*
D12*
X219851600Y-32588200D03*
X222351600Y-32588200D03*
D10*
X214330000Y-66370000D03*
D11*
X219410000Y-66370000D03*
D10*
X227431600Y-40233600D03*
D11*
X227431600Y-35153600D03*
D12*
X187750000Y-61800000D03*
D13*
X187750000Y-51640000D03*
D10*
X220370000Y-74340000D03*
D11*
X215290000Y-74340000D03*
D12*
X263120000Y-81300000D03*
D13*
X273280000Y-81300000D03*
D12*
X177749200Y-87731600D03*
D13*
X177749200Y-95351600D03*
D14*
X192230000Y-42900000D03*
D12*
X192230000Y-45400000D03*
X204750000Y-52350000D03*
X204750000Y-54850000D03*
X204750000Y-59750000D03*
X204750000Y-57250000D03*
D14*
X153475000Y-67125000D03*
D13*
X145855000Y-67125000D03*
D12*
X154460000Y-46600000D03*
D13*
X144300000Y-46600000D03*
D10*
X202800000Y-33400000D03*
D11*
X202800000Y-38480000D03*
D12*
X208175000Y-76050000D03*
X210675000Y-76050000D03*
D15*
X177800000Y-32775000D03*
D16*
X238349112Y-92100000D03*
X241849112Y-90600000D03*
D10*
X242649112Y-88100000D03*
D17*
X244078391Y-88126253D03*
D18*
X236578391Y-88126253D03*
D19*
X237549112Y-88100000D03*
D16*
X238349112Y-84100000D03*
D20*
X240078391Y-92626253D03*
D16*
X241849112Y-85600000D03*
D21*
X248019532Y-36102461D03*
X248722476Y-34405405D03*
X248722476Y-37799517D03*
X250419532Y-33702461D03*
D22*
X250419532Y-36102461D03*
D21*
X250419532Y-38502461D03*
X252116588Y-34405405D03*
X252116588Y-37799517D03*
X252819532Y-36102461D03*
D10*
X157720000Y-68350000D03*
D11*
X157720000Y-73430000D03*
D12*
X199500000Y-69750000D03*
X199500000Y-67250000D03*
D10*
X216890600Y-34518600D03*
D11*
X216890600Y-39598600D03*
D12*
X196550000Y-33200000D03*
X196550000Y-30200000D03*
X192150000Y-38200000D03*
X196550000Y-37200000D03*
X212700000Y-82250000D03*
X212700000Y-79750000D03*
X175620000Y-72700000D03*
X177292827Y-74557862D03*
X175285400Y-85267800D03*
X177785400Y-85267800D03*
X191620000Y-61810000D03*
D13*
X191620000Y-51650000D03*
D12*
X261200000Y-93230000D03*
D13*
X261200000Y-83070000D03*
D12*
X249610000Y-66720000D03*
D13*
X259770000Y-66720000D03*
D23*
X226300000Y-86450000D03*
D24*
X228430000Y-92800000D03*
X217000000Y-92800000D03*
D23*
X217000000Y-96000000D03*
X228430000Y-89650000D03*
X217000000Y-89650000D03*
X228430000Y-96000000D03*
X228430000Y-83300000D03*
X217000000Y-83300000D03*
D12*
X184900000Y-64150000D03*
D13*
X174740000Y-64150000D03*
D23*
X168800000Y-86450000D03*
D24*
X170930000Y-92800000D03*
X159500000Y-92800000D03*
D23*
X159500000Y-96000000D03*
X170930000Y-89650000D03*
X159500000Y-89650000D03*
X170930000Y-96000000D03*
X170930000Y-83300000D03*
X159500000Y-83300000D03*
D12*
X147620000Y-79980000D03*
D13*
X147620000Y-69820000D03*
D12*
X249745000Y-81400000D03*
D13*
X259905000Y-81400000D03*
D10*
X185520000Y-83700000D03*
D11*
X180440000Y-83700000D03*
D12*
X249220000Y-52150000D03*
D13*
X259380000Y-52150000D03*
D25*
X170590000Y-31370000D03*
X170590000Y-27570000D03*
X161950000Y-31370000D03*
X161950000Y-27570000D03*
D12*
X203708000Y-78282800D03*
D13*
X196088000Y-78282800D03*
D12*
X201600000Y-61700000D03*
D13*
X201600000Y-51540000D03*
D10*
X229743000Y-40233600D03*
D11*
X229743000Y-35153600D03*
D12*
X236195000Y-66725000D03*
D13*
X246355000Y-66725000D03*
D14*
X176192380Y-45200000D03*
D12*
X173692380Y-45200000D03*
X191581400Y-75514200D03*
X194081400Y-75514200D03*
X143980000Y-69810000D03*
D13*
X143980000Y-79970000D03*
D12*
X181500000Y-43500000D03*
X181500000Y-46000000D03*
X247100000Y-82250000D03*
D13*
X247100000Y-92410000D03*
D10*
X210350000Y-73715000D03*
D11*
X210350000Y-68635000D03*
D16*
X238350000Y-63033333D03*
X241850000Y-61533333D03*
D10*
X242650000Y-59033333D03*
D17*
X244079279Y-59059586D03*
D18*
X236579279Y-59059586D03*
D19*
X237550000Y-59033333D03*
D16*
X238350000Y-55033333D03*
D20*
X240079279Y-63559586D03*
D16*
X241850000Y-56533333D03*
D26*
X145860000Y-85630000D03*
D27*
X143320000Y-85630000D03*
X140780000Y-85630000D03*
D12*
X173325000Y-69175000D03*
X173325000Y-71675000D03*
X175285400Y-81991200D03*
X175285400Y-79491200D03*
X210388200Y-46456600D03*
D13*
X220548200Y-46456600D03*
D26*
X189176000Y-33075000D03*
D16*
X238350000Y-77566666D03*
X241850000Y-76066666D03*
D10*
X242650000Y-73566666D03*
D17*
X244079279Y-73592919D03*
D18*
X236579279Y-73592919D03*
D19*
X237550000Y-73566666D03*
D16*
X238350000Y-69566666D03*
D20*
X240079279Y-78092919D03*
D16*
X241850000Y-71066666D03*
X175424065Y-60868249D03*
X178924065Y-59368249D03*
D10*
X179724065Y-56868249D03*
D17*
X181153344Y-56894502D03*
D18*
X173653344Y-56894502D03*
D19*
X174624065Y-56868249D03*
D16*
X175424065Y-52868249D03*
D20*
X177153344Y-61394502D03*
D16*
X178924065Y-54368249D03*
D21*
X228260142Y-71088261D03*
X228963086Y-69391205D03*
X228963086Y-72785317D03*
X230660142Y-68688261D03*
D22*
X230660142Y-71088261D03*
D21*
X230660142Y-73488261D03*
X232357198Y-69391205D03*
X232357198Y-72785317D03*
X233060142Y-71088261D03*
D12*
X154460000Y-43540000D03*
D13*
X144300000Y-43540000D03*
D16*
X266350000Y-48600000D03*
X269850000Y-47100000D03*
D10*
X270650000Y-44600000D03*
D17*
X272079279Y-44626253D03*
D18*
X264579279Y-44626253D03*
D19*
X265550000Y-44600000D03*
D16*
X266350000Y-40600000D03*
D20*
X268079279Y-49126253D03*
D16*
X269850000Y-42100000D03*
D12*
X184550000Y-56500000D03*
X184550000Y-54000000D03*
D26*
X181571000Y-33075000D03*
D10*
X202200000Y-81900000D03*
D11*
X207280000Y-81900000D03*
D28*
X159200000Y-56900000D03*
X168000000Y-56900000D03*
D29*
X166100000Y-63900000D03*
X163600000Y-63900000D03*
X161100000Y-63900000D03*
D12*
X206779532Y-72445529D03*
X205310069Y-74468071D03*
X189500000Y-69000000D03*
X189500000Y-66500000D03*
D26*
X184111000Y-33075000D03*
D12*
X172390000Y-37220000D03*
D13*
X182550000Y-37220000D03*
D12*
X175420000Y-87731600D03*
D13*
X175420000Y-95351600D03*
D26*
X186651000Y-33075000D03*
X145860000Y-91470000D03*
D27*
X143320000Y-91470000D03*
X140780000Y-91470000D03*
D12*
X150660000Y-69820000D03*
D13*
X150660000Y-79980000D03*
D16*
X266350000Y-77600000D03*
X269850000Y-76100000D03*
D10*
X270650000Y-73600000D03*
D17*
X272079279Y-73626253D03*
D18*
X264579279Y-73626253D03*
D19*
X265550000Y-73600000D03*
D16*
X266350000Y-69600000D03*
D20*
X268079279Y-78126253D03*
D16*
X269850000Y-71100000D03*
D10*
X157675000Y-66325000D03*
D11*
X162754999Y-66325000D03*
D30*
X142300000Y-52400000D03*
D31*
X139760000Y-52400000D03*
D12*
X187900000Y-40600000D03*
X185400000Y-40600000D03*
X172390000Y-40270000D03*
D13*
X182550000Y-40270000D03*
D21*
X250250000Y-99550000D03*
X250952944Y-97852944D03*
X250952944Y-101247056D03*
X252650000Y-97150000D03*
D22*
X252650000Y-99550000D03*
D21*
X252650000Y-101950000D03*
X254347056Y-97852944D03*
X254347056Y-101247056D03*
X255050000Y-99550000D03*
D12*
X209770000Y-88200000D03*
D13*
X209770000Y-95820000D03*
D12*
X236270000Y-52150000D03*
D13*
X246430000Y-52150000D03*
D10*
X214477600Y-34544000D03*
D11*
X214477600Y-39624000D03*
D12*
X211550000Y-33200000D03*
X211550000Y-30200000D03*
X207150000Y-38200000D03*
X211550000Y-37200000D03*
D16*
X266350000Y-63100000D03*
X269850000Y-61600000D03*
D10*
X270650000Y-59100000D03*
D17*
X272079279Y-59126253D03*
D18*
X264579279Y-59126253D03*
D19*
X265550000Y-59100000D03*
D16*
X266350000Y-55100000D03*
D20*
X268079279Y-63626253D03*
D16*
X269850000Y-56600000D03*
X238350000Y-48500000D03*
X241850000Y-47000000D03*
D10*
X242650000Y-44500000D03*
D17*
X244079279Y-44526253D03*
D18*
X236579279Y-44526253D03*
D19*
X237550000Y-44500000D03*
D16*
X238350000Y-40500000D03*
D20*
X240079279Y-49026253D03*
D16*
X241850000Y-42000000D03*
D12*
X263120000Y-66750000D03*
D13*
X273280000Y-66750000D03*
D12*
X233260000Y-92180000D03*
D13*
X233260000Y-82020000D03*
D16*
X252350000Y-63100000D03*
X255850000Y-61600000D03*
D10*
X256650000Y-59100000D03*
D17*
X258079279Y-59126253D03*
D18*
X250579279Y-59126253D03*
D19*
X251550000Y-59100000D03*
D16*
X252350000Y-55100000D03*
D20*
X254079279Y-63626253D03*
D16*
X255850000Y-56600000D03*
D10*
X170825000Y-74125000D03*
D11*
X170825000Y-69045000D03*
D16*
X252350000Y-77600000D03*
X255850000Y-76100000D03*
D10*
X256650000Y-73600000D03*
D17*
X258079279Y-73626253D03*
D18*
X250579279Y-73626253D03*
D19*
X251550000Y-73600000D03*
D16*
X252350000Y-69600000D03*
D20*
X254079279Y-78126253D03*
D16*
X255850000Y-71100000D03*
X252350000Y-48600000D03*
X255850000Y-47100000D03*
D10*
X256650000Y-44600000D03*
D17*
X258079279Y-44626253D03*
D18*
X250579279Y-44626253D03*
D19*
X251550000Y-44600000D03*
D16*
X252350000Y-40600000D03*
D20*
X254079279Y-49126253D03*
D16*
X255850000Y-42100000D03*
D10*
X212675000Y-68670000D03*
D11*
X212675000Y-73750000D03*
D10*
X170125000Y-66300000D03*
D11*
X165045000Y-66300000D03*
D12*
X225176400Y-42849800D03*
X222676400Y-42849800D03*
X184550000Y-58650000D03*
X184550000Y-61150000D03*
D16*
X148415198Y-60869712D03*
X151915198Y-59369712D03*
D10*
X152715198Y-56869712D03*
D17*
X154144477Y-56895965D03*
D18*
X146644477Y-56895965D03*
D19*
X147615198Y-56869712D03*
D16*
X148415198Y-52869712D03*
D20*
X150144477Y-61395965D03*
D16*
X151915198Y-54369712D03*
D12*
X168249600Y-71588000D03*
X168249600Y-69088000D03*
D10*
X165270000Y-74100000D03*
D11*
X160190000Y-74100000D03*
D16*
X252349112Y-92100000D03*
X255849112Y-90600000D03*
D10*
X256649112Y-88100000D03*
D17*
X258078391Y-88126253D03*
D18*
X250578391Y-88126253D03*
D19*
X251549112Y-88100000D03*
D16*
X252349112Y-84100000D03*
D20*
X254078391Y-92626253D03*
D16*
X255849112Y-85600000D03*
X266350000Y-92100000D03*
X269850000Y-90600000D03*
D10*
X270650000Y-88100000D03*
D17*
X272079279Y-88126253D03*
D18*
X264579279Y-88126253D03*
D19*
X265550000Y-88100000D03*
D16*
X266350000Y-84100000D03*
D20*
X268079279Y-92626253D03*
D16*
X269850000Y-85600000D03*
D12*
X177698400Y-81991200D03*
X177698400Y-79491200D03*
X153730000Y-79980000D03*
D13*
X153730000Y-69820000D03*
D12*
X184300000Y-78300000D03*
D13*
X191920000Y-78300000D03*
D32*
X148875000Y-88725000D03*
D29*
X151415000Y-88725000D03*
D10*
X200000000Y-33400000D03*
D11*
X200000000Y-38480000D03*
D10*
X207280000Y-84425000D03*
D11*
X202200000Y-84425000D03*
D12*
X220395800Y-43180000D03*
D13*
X210235800Y-43180000D03*
D12*
X210290000Y-82226600D03*
X210290000Y-79726600D03*
D28*
X216650000Y-56800000D03*
X225450000Y-56800000D03*
D29*
X223550000Y-63800000D03*
X221050000Y-63800000D03*
X218550000Y-63800000D03*
D12*
X197735200Y-61700000D03*
D13*
X197735200Y-51540000D03*
D12*
X212775000Y-88200000D03*
D13*
X212775000Y-95820000D03*
D12*
X213080600Y-59984000D03*
X213080600Y-62484000D03*
X245080000Y-81225000D03*
D13*
X234920000Y-81225000D03*
D32*
X152742934Y-98294059D03*
D29*
X150202934Y-98294059D03*
X147662934Y-98294059D03*
D10*
X180460000Y-81500000D03*
D11*
X185540000Y-81500000D03*
D21*
X139840000Y-97590000D03*
X140542944Y-95892944D03*
X140542944Y-99287056D03*
X142240000Y-95190000D03*
D22*
X142240000Y-97590000D03*
D21*
X142240000Y-99990000D03*
X143937056Y-95892944D03*
X143937056Y-99287056D03*
X144640000Y-97590000D03*
D12*
X140970000Y-79980000D03*
D13*
X140970000Y-69820000D03*
D12*
X223200000Y-71000000D03*
X223200000Y-68500000D03*
X210250000Y-85500000D03*
X212750000Y-85500000D03*
D14*
X184650000Y-69850000D03*
D12*
X184650000Y-67350000D03*
D21*
X138994600Y-37691600D03*
X139697544Y-35994544D03*
X139697544Y-39388656D03*
X141394600Y-35291600D03*
D22*
X141394600Y-37691600D03*
D21*
X141394600Y-40091600D03*
X143091656Y-35994544D03*
X143091656Y-39388656D03*
X143794600Y-37691600D03*
D26*
X141200000Y-47600000D03*
D27*
X141200000Y-45060000D03*
X141200000Y-42520000D03*
D33*
X211531200Y-99923600D03*
G36*
X208430000Y-33920000D02*
G01*
X207930000Y-33920000D01*
X207930000Y-33914911D01*
X207858843Y-33914911D01*
X207722292Y-33874816D01*
X207602570Y-33797875D01*
X207509373Y-33690320D01*
X207450254Y-33560866D01*
X207430000Y-33420000D01*
X207430000Y-32920000D01*
X207450254Y-32779134D01*
X207509373Y-32649680D01*
X207602570Y-32542125D01*
X207722292Y-32465184D01*
X207858843Y-32425089D01*
X207930000Y-32425089D01*
X207930000Y-32420000D01*
X208430000Y-32420000D01*
X208430000Y-33920000D01*
G37*
G36*
X209230000Y-32425089D02*
G01*
X209301157Y-32425089D01*
X209437708Y-32465184D01*
X209557430Y-32542125D01*
X209650627Y-32649680D01*
X209709746Y-32779134D01*
X209730000Y-32920000D01*
X209730000Y-33420000D01*
X209709746Y-33560866D01*
X209650627Y-33690320D01*
X209557430Y-33797875D01*
X209437708Y-33874816D01*
X209301157Y-33914911D01*
X209230000Y-33914911D01*
X209230000Y-33920000D01*
X208730000Y-33920000D01*
X208730000Y-32420000D01*
X209230000Y-32420000D01*
X209230000Y-32425089D01*
G37*
G36*
X193400000Y-33940000D02*
G01*
X192900000Y-33940000D01*
X192900000Y-33934911D01*
X192828843Y-33934911D01*
X192692292Y-33894816D01*
X192572570Y-33817875D01*
X192479373Y-33710320D01*
X192420254Y-33580866D01*
X192400000Y-33440000D01*
X192400000Y-32940000D01*
X192420254Y-32799134D01*
X192479373Y-32669680D01*
X192572570Y-32562125D01*
X192692292Y-32485184D01*
X192828843Y-32445089D01*
X192900000Y-32445089D01*
X192900000Y-32440000D01*
X193400000Y-32440000D01*
X193400000Y-33940000D01*
G37*
G36*
X194200000Y-32445089D02*
G01*
X194271157Y-32445089D01*
X194407708Y-32485184D01*
X194527430Y-32562125D01*
X194620627Y-32669680D01*
X194679746Y-32799134D01*
X194700000Y-32940000D01*
X194700000Y-33440000D01*
X194679746Y-33580866D01*
X194620627Y-33710320D01*
X194527430Y-33817875D01*
X194407708Y-33894816D01*
X194271157Y-33934911D01*
X194200000Y-33934911D01*
X194200000Y-33940000D01*
X193700000Y-33940000D01*
X193700000Y-32440000D01*
X194200000Y-32440000D01*
X194200000Y-32445089D01*
G37*
M02*
